<svg width="49" height="48" viewBox="0 0 49 48" fill="none" xmlns="http://www.w3.org/2000/svg">
<path d="M30.032 11.8594C30.032 12.5539 30.032 13.1865 30.032 13.8643C30.3012 13.8643 30.5583 13.8613 30.8154 13.8653C31.227 13.8702 31.3886 14.0463 31.3903 14.5106C31.3947 15.6173 31.3973 16.724 31.3868 17.8308C31.3842 18.0629 31.4476 18.1633 31.6422 18.2548C35.6964 20.1554 38.1351 23.5572 38.8577 28.4563C39.648 33.8207 37.0807 39.4163 32.7869 41.8442C32.6384 41.9278 32.4577 41.9741 32.291 41.9741C29.1426 41.9819 25.9943 41.9898 22.846 41.9632C22.5472 41.9603 22.2094 41.7891 21.9619 41.5835C21.4581 41.1644 20.9996 41.0552 20.343 41.2067C18.3489 41.6661 16.5885 40.281 16.1273 38.039C16.1073 37.9436 16.0882 37.8492 16.063 37.7252C15.178 38.16 14.3599 38.0666 13.6694 37.2796C12.9903 36.5063 12.9008 35.5856 13.2543 34.5615C12.1912 34.3755 11.3262 33.8482 10.6983 32.8773C10.2345 32.1611 10.0009 31.3544 10 30.4681C9.99913 29.4312 10.2979 28.5153 10.9015 27.7342C11.5034 26.9561 12.2737 26.5163 13.1987 26.3501C12.8027 25.2581 12.9225 24.2921 13.6798 23.5001C14.3382 22.8105 15.1051 22.7328 15.9466 23.1253C15.9727 23.0093 16.0013 22.9069 16.0187 22.8027C16.426 20.4121 18.5834 18.9385 20.6426 19.6566C20.8502 19.7294 20.9918 19.692 21.1785 19.5779C21.9211 19.1234 22.6714 18.6857 23.4348 18.2794C23.6485 18.1652 23.7188 18.0551 23.7162 17.7973C23.7041 16.7152 23.7102 15.6331 23.7119 14.5509C23.7128 14.0354 23.8622 13.8662 24.3138 13.8633C24.5517 13.8613 24.7906 13.8633 25.0572 13.8633C25.0572 13.0733 25.0572 12.2972 25.0572 11.4797C24.8045 11.4797 24.5578 11.4836 24.3112 11.4787C23.929 11.4708 23.7188 11.2868 23.7145 10.9642C23.7102 10.6366 23.916 10.4526 24.2999 10.4477C24.5474 10.4438 24.7949 10.4467 25.0859 10.4467C25.0859 10.1595 25.0859 9.90565 25.0859 9.65184C25.0859 8.98781 25.0833 8.32378 25.0867 7.65974C25.0893 7.18754 25.2474 7.00358 25.6521 7.0026C26.9219 6.99964 28.1925 6.99866 29.4622 7.0026C29.8496 7.00358 30.0103 7.18852 30.0146 7.6381C30.0216 8.28935 30.0163 8.94157 30.0163 9.59282C30.0163 9.71382 30.0163 9.83384 30.0163 10.0276C30.5487 9.67742 31.036 9.36656 31.5154 9.03995C32.066 8.66514 32.6436 8.41822 33.3002 8.4615C34.4674 8.53823 35.3724 9.73546 35.2977 11.1108C35.223 12.4949 34.2025 13.5455 33.0257 13.458C32.4924 13.4177 32.013 13.212 31.5614 12.8992C31.0655 12.5588 30.5652 12.2224 30.032 11.8594ZM23.295 37.6819C23.6867 38.0154 24.0063 38.2338 24.4614 38.2289C26.6205 38.2023 28.7796 38.222 30.9387 38.2092C31.1428 38.2082 31.3738 38.1433 31.5458 38.0233C34.3849 36.045 35.7823 33.1537 35.474 29.3977C35.1813 25.8316 33.4435 23.3437 30.5322 21.933C30.2925 21.8169 30.0094 21.7717 29.7462 21.7687C28.4774 21.752 27.205 21.813 25.9387 21.7451C24.9252 21.691 24.121 22.1977 23.3098 22.7427C23.2412 22.7889 23.2151 22.9178 23.17 23.0083C24.1114 22.6167 24.9174 22.7299 25.6026 23.5021C26.294 24.2822 26.3678 25.2168 26.0273 26.2163C27.8989 26.6777 29.0862 28.0195 29.246 29.8227C29.3259 30.7278 29.2017 31.5876 28.7944 32.3795C28.1882 33.5551 27.2641 34.2142 26.0864 34.4395C26.8837 36.4601 25.2135 38.5653 23.295 37.6819ZM22.0522 40.4246C22.4005 40.7267 22.7791 40.9667 23.3046 40.9608C26.2236 40.9313 29.1435 40.949 32.0634 40.9411C32.2284 40.9411 32.416 40.9047 32.555 40.8122C36.4546 38.223 38.3991 34.348 37.9979 29.259C37.6097 24.3324 35.1848 20.9532 31.1098 19.1313C30.963 19.0654 30.7945 19.0359 30.6365 19.0349C28.5851 19.029 26.5337 19.03 24.4823 19.0319C24.3754 19.0319 24.2565 19.0241 24.1627 19.0703C23.3793 19.452 22.6002 19.8445 21.8255 20.2311C22.2242 20.7948 22.5716 21.2857 22.9198 21.7776C23.1969 21.6113 23.48 21.4293 23.7718 21.267C24.4197 20.906 25.0815 20.6837 25.8284 20.7122C27.2163 20.7643 28.6068 20.723 29.9955 20.7319C30.1857 20.7328 30.3889 20.7643 30.5652 20.843C33.9732 22.3521 36.0307 25.1588 36.3738 29.2787C36.7333 33.6023 35.0945 36.8959 31.7594 39.069C31.5823 39.1841 31.3512 39.2402 31.1445 39.2422C28.9846 39.254 26.8246 39.2382 24.6646 39.2579C24.0993 39.2628 23.5616 39.2402 23.1013 38.8142C23.0909 38.8044 23.0614 38.8201 23.1083 38.8113C22.7392 39.375 22.3996 39.8934 22.0522 40.4246ZM18.7059 32.836C18.1683 34.0411 17.6263 35.2285 17.1122 36.4306C17.0079 36.6746 16.9636 36.9756 16.9663 37.2491C16.9828 38.7611 17.9451 39.9879 19.2912 40.2476C20.5254 40.4846 21.7882 39.6426 22.2337 38.2673C22.4395 37.6308 22.5264 36.9756 22.2354 36.3381C21.7291 35.2265 21.2124 34.1207 20.6886 33.0199C20.6478 32.9334 20.5002 32.834 20.4333 32.8566C20.2831 32.9078 20.046 32.8655 20.0633 33.2C20.0859 33.6407 20.0755 34.0834 20.0711 34.5261C20.0668 34.8989 19.8948 35.1173 19.6213 35.1163C19.3529 35.1153 19.1731 34.893 19.1636 34.5241C19.154 34.1434 19.1323 33.7597 19.1653 33.3829C19.1983 32.9953 19.0515 32.8488 18.7059 32.836ZM20.5523 27.9782C21.0465 26.8754 21.5276 25.8041 22.0079 24.7318C22.0713 24.5892 22.1573 24.4514 22.1885 24.2999C22.2459 24.0284 22.311 23.7451 22.2997 23.4706C22.2233 21.5189 20.6635 20.1711 18.9777 20.5843C17.232 21.0122 16.2923 23.4116 17.2199 24.8499C17.3145 24.9974 17.3727 25.1745 17.4483 25.3378C17.8565 26.2163 18.2647 27.0938 18.6668 27.9585C18.9977 27.9565 19.1445 27.8228 19.1132 27.4479C19.0828 27.082 19.1002 26.7111 19.1019 26.3422C19.1045 25.9123 19.2686 25.6742 19.557 25.6723C19.8488 25.6693 20.0077 25.8966 20.0112 26.3353C20.0147 26.8223 20.0121 27.3102 20.0121 27.7952C20.211 27.8621 20.3647 27.9142 20.5523 27.9782ZM17.523 31.4725C17.4656 31.2885 17.4196 31.141 17.3727 30.9895C16.9246 30.9895 16.4912 30.9904 16.0578 30.9895C15.6791 30.9885 15.4655 30.8055 15.4629 30.4828C15.4603 30.1582 15.6739 29.9624 16.0482 29.9585C16.4808 29.9536 16.9124 29.9575 17.3484 29.9575C17.404 29.7362 17.45 29.5522 17.5004 29.3486C16.4 28.7219 15.3187 28.1012 14.2305 27.4942C14.0898 27.4155 13.9187 27.382 13.7597 27.3732C12.5256 27.3014 11.4035 28.1936 11.0335 29.5286C10.6627 30.8635 11.1317 32.3284 12.1904 33.0603C12.8452 33.5128 13.5739 33.7607 14.2982 33.376C15.3838 32.7966 16.4313 32.1227 17.523 31.4725ZM21.7856 31.442C22.7539 31.9988 23.7188 32.5536 24.6838 33.1075C24.7993 33.1744 24.9148 33.2472 25.0372 33.2934C25.1797 33.3475 25.3282 33.4016 25.4767 33.4134C26.5988 33.5049 27.6792 32.7523 28.1343 31.5738C28.599 30.3687 28.3349 28.9511 27.4795 28.0608C26.617 27.1636 25.5783 27.0299 24.4866 27.6791C23.5773 28.2202 22.6697 28.7662 21.7517 29.3161C21.8125 29.5217 21.8655 29.7027 21.9193 29.8867C22.4039 29.8867 22.8695 29.8759 23.3341 29.8906C23.6277 29.8995 23.8257 30.1326 23.8031 30.4258C23.7788 30.7425 23.6146 30.9108 23.3306 30.9157C22.9832 30.9226 22.6341 30.956 22.2902 30.9235C21.961 30.894 21.8073 31.0347 21.7856 31.442ZM26.023 8.05029C26.023 10.005 26.023 11.9253 26.023 13.8318C27.0617 13.8318 28.0744 13.8318 29.0836 13.8318C29.0836 11.8879 29.0836 9.97747 29.0836 8.05029C28.0561 8.05029 27.0504 8.05029 26.023 8.05029ZM24.6377 17.9714C26.5953 17.9714 28.5277 17.9714 30.4532 17.9714C30.4532 16.9336 30.4532 15.9233 30.4532 14.9179C28.5017 14.9179 26.5771 14.9179 24.6377 14.9179C24.6377 15.94 24.6377 16.9424 24.6377 17.9714ZM21.4755 28.2094C21.4964 28.232 21.5172 28.2556 21.538 28.2782C22.6072 27.6349 23.6858 27.0112 24.7393 26.3373C25.164 26.0658 25.3516 25.5798 25.3004 25.0171C25.2483 24.4377 24.8462 23.9615 24.352 23.8513C23.8769 23.7461 23.3237 24.0756 23.0657 24.6383C22.7861 25.2473 22.5194 25.8651 22.2467 26.478C21.9905 27.0564 21.7326 27.6329 21.4755 28.2094ZM17.8113 32.5359C17.7357 32.5428 17.7019 32.5359 17.6784 32.5507C16.6432 33.1665 15.6001 33.7656 14.5787 34.41C14.1306 34.6933 13.9169 35.1862 13.9751 35.7784C14.0333 36.3735 14.4572 36.8507 14.9644 36.9392C15.4386 37.0228 15.9683 36.6756 16.2272 36.1001C16.6796 35.0947 17.1269 34.0873 17.5759 33.0799C17.6515 32.9107 17.7236 32.7396 17.8113 32.5359ZM21.5459 32.4651C21.5268 32.4828 21.5076 32.5005 21.4894 32.5182C22.0722 33.7597 22.6358 35.015 23.2481 36.2378C23.48 36.7011 23.903 36.9185 24.3902 36.8448C24.8965 36.768 25.2865 36.3066 25.3742 35.7203C25.455 35.1802 25.1866 34.5625 24.7046 34.2801C23.6563 33.6633 22.5993 33.0691 21.5459 32.4651ZM17.7297 28.3274C17.7462 28.3097 17.7618 28.292 17.7783 28.2733C17.2094 27.0476 16.6588 25.811 16.0639 24.601C15.8216 24.1091 15.396 23.8622 14.8801 23.9399C14.3859 24.0137 14.0029 24.4623 13.9057 25.0338C13.8162 25.5552 14.0594 26.1937 14.5206 26.4701C15.5819 27.1076 16.6588 27.7106 17.7297 28.3274ZM30.448 10.9337C31.0082 11.3173 31.5171 11.6656 32.0269 12.0129C32.1103 12.0699 32.1937 12.1289 32.2823 12.1742C32.4204 12.244 32.5585 12.3198 32.7035 12.365C33.3566 12.5697 33.9376 12.304 34.2295 11.6764C34.53 11.0301 34.3953 10.2264 33.8968 9.77875C33.4061 9.33803 32.8685 9.42361 32.3657 9.71087C31.729 10.0739 31.1211 10.4998 30.448 10.9337ZM19.6456 31.9712C20.409 31.9644 21.0308 31.261 21.0343 30.3982C21.0378 29.5217 20.402 28.8065 19.6247 28.8134C18.844 28.8203 18.2264 29.5374 18.2386 30.4218C18.2516 31.2846 18.8804 31.9781 19.6456 31.9712Z" fill="#1FB9B3"/>
</svg>
