<svg width="48" height="50" viewBox="0 0 48 50" fill="none" xmlns="http://www.w3.org/2000/svg">
<path d="M39 50H9C4.029 50 0 45.971 0 41V11C0 6.029 4.029 2 9 2H39C43.971 2 48 6.029 48 11V41C48 45.971 43.971 50 39 50Z" fill="#F8F8F8"/>
<g clip-path="url(#clip0_2956_3860)">
<path d="M22.5938 34.1091L25.7654 30.9375L26.4063 31.5782L23.2345 34.7501L22.5938 34.1091ZM22.6875 31.0308H23.5938V31.9371H22.6875V31.0308ZM25.4063 33.7496H26.3125V34.6558H25.4063V33.7496Z" fill="#1FB9B3"/>
<path d="M24.5 37.375C27.0026 37.375 29.0312 35.3464 29.0312 32.8438C29.0312 30.3411 27.0026 28.3125 24.5 28.3125C21.9974 28.3125 19.9688 30.3411 19.9688 32.8438C19.9714 35.3452 21.9985 37.3723 24.5 37.375ZM24.5 29.2188C26.5021 29.2188 28.125 30.8416 28.125 32.8438C28.125 34.8459 26.5021 36.4688 24.5 36.4688C22.4979 36.4688 20.875 34.8459 20.875 32.8438C20.8773 30.8428 22.499 29.221 24.5 29.2188Z" fill="#1FB9B3"/>
<path d="M14.5312 38.7344V39.1875H34.4688V38.7344C34.4703 37.4836 35.4836 36.4703 36.7344 36.4688H37.1875V29.2188H36.7344C35.4836 29.2172 34.4703 28.2039 34.4688 26.9531V26.5H14.5312V26.9531C14.5297 28.2039 13.5164 29.2172 12.2656 29.2188H11.8125V36.4688H12.2656C13.5164 36.4703 14.5297 37.4836 14.5312 38.7344ZM12.7188 30.0929C14.1098 29.8898 15.2023 28.7973 15.4054 27.4062H33.5946C33.7977 28.7973 34.8902 29.8898 36.2812 30.0929V35.5946C34.8902 35.7977 33.7977 36.8902 33.5946 38.2812H15.4054C15.2023 36.8902 14.1098 35.7977 12.7188 35.5946V30.0929Z" fill="#1FB9B3"/>
<path d="M34.7406 17.5758L32.4076 18.2011L29.2365 12.2387L10.24 22.3427L10.6662 23.1427L28.8622 13.4644L31.5079 18.4416L30.6077 18.6827L29.762 17.0908L29.3616 17.3052C28.2575 17.8909 26.8877 17.4718 26.3003 16.3686L26.0859 15.968L18.2773 20.1231L18.7027 20.9233L25.7405 17.1793C26.5723 18.3123 28.0498 18.7639 29.3729 18.2898L29.7096 18.9241L14.9032 22.8905L15.1379 23.7658L34.0986 18.6853L35.7049 24.6875H34.7654L34.1597 22.425L33.7229 22.5416C32.5133 22.8615 31.2723 22.1439 30.9462 20.9362L30.8287 20.4984L21.9023 22.8905L22.137 23.7658L30.2176 21.6004C30.7745 22.8911 32.1115 23.6644 33.5081 23.5035L33.8254 24.6888H10V41H39V24.6875H36.6436L34.7406 17.5758ZM38.0938 40.0938H10.9062V25.5938H38.0938V40.0938ZM33.5625 12H39V12.9062H33.5625V12ZM35.375 13.8125H39V14.7188H35.375V13.8125ZM37.1875 15.625H39V16.5312H37.1875V15.625ZM10 12H15.4375V12.9062H10V12ZM10 13.8125H13.625V14.7188H10V13.8125ZM10 15.625H11.8125V16.5312H10V15.625Z" fill="#1FB9B3"/>
</g>
<defs>
<clipPath id="clip0_2956_3860">
<rect width="29" height="29" fill="white" transform="translate(10 12)"/>
</clipPath>
</defs>
</svg>
