<svg width="49" height="50" viewBox="0 0 49 50" fill="none" xmlns="http://www.w3.org/2000/svg">
<path d="M39.5 50H9.5C4.529 50 0.5 45.971 0.5 41V11C0.5 6.029 4.529 2 9.5 2H39.5C44.471 2 48.5 6.029 48.5 11V41C48.5 45.971 44.471 50 39.5 50Z" fill="#F8F8F8"/>
<path d="M17.5916 34.3379C18.9001 35.8295 18.7383 37.6608 18.6803 39.4903C18.3767 39.4903 18.0724 39.4903 17.735 39.4903C17.735 38.8066 17.7229 38.1317 17.7382 37.4568C17.7535 36.8117 17.6045 36.2287 17.2857 35.6859C17.0264 35.2439 16.8098 34.7694 16.5288 34.3449C16.2453 33.916 16.2799 33.5588 16.5255 33.1194C17.1939 31.9236 17.8187 30.6999 18.4669 29.4918C18.6215 29.2039 18.6964 28.9062 18.6103 28.5832C18.4991 28.1683 18.2423 27.9092 17.8501 27.8322C17.4298 27.7499 17.0618 27.9433 16.8331 28.367C16.3854 29.1968 15.9466 30.0319 15.5037 30.8644C15.242 31.3564 14.9851 31.8518 14.717 32.3394C14.4529 32.8217 14.0318 32.8095 13.787 32.3167C13.5092 31.7564 13.3827 31.1568 13.3836 30.5204C13.386 28.3215 13.3844 26.1217 13.3844 23.9228C13.3844 23.809 13.3844 23.6952 13.3844 23.5569C13.3393 23.5928 13.3183 23.6006 13.3119 23.6155C12.6242 25.2437 11.9068 26.8579 11.2674 28.5079C11.0629 29.0349 10.9872 29.6547 10.9816 30.2333C10.9542 33.1876 10.9687 36.142 10.9687 39.0964C10.9687 39.225 10.9687 39.3537 10.9687 39.4982C10.6434 39.4982 10.3446 39.4982 10.0024 39.4982C10.0024 39.3844 10.0024 39.2697 10.0024 39.1541C10.0024 36.1998 10.0065 33.2454 10 30.2911C9.9984 29.3675 10.1707 28.4931 10.5282 27.6562C11.2312 26.0114 11.9132 24.3561 12.6331 22.72C12.7692 22.4101 13.0486 22.1764 13.2434 21.8928C13.3167 21.786 13.3787 21.6372 13.3787 21.5076C13.3884 18.2478 13.3827 14.987 13.3884 11.7263C13.3916 10.0727 14.2927 8.70014 15.7211 8.19768C16.069 8.07512 16.4498 8.01122 16.8154 8.01035C20.0162 7.99634 23.2169 7.99897 26.4177 8.00422C27.6545 8.00597 28.8656 8.77542 29.3334 9.85387C29.0701 10.0202 28.8044 10.1883 28.5306 10.3616C27.9412 9.37154 27.1053 9.03453 26.069 9.04328C23.0293 9.06954 19.9896 9.05203 16.9499 9.05291C15.3596 9.05291 14.353 10.1515 14.353 11.8865C14.3522 18.0464 14.353 24.2073 14.353 30.3672C14.353 30.5038 14.353 30.6403 14.353 30.7769C14.3748 30.7821 14.3957 30.7874 14.4175 30.7926C14.473 30.6964 14.531 30.6009 14.5833 30.502C15.0673 29.5943 15.5399 28.6786 16.036 27.7788C16.4651 27.0006 17.2591 26.6259 18.0506 26.7931C18.8285 26.9577 19.442 27.6159 19.5749 28.4913C19.6248 28.8178 19.583 29.161 19.583 29.5129C19.992 28.9938 20.5694 28.9929 21.1564 29.0086C21.6194 29.0209 22.0824 29.006 22.5454 29.0121C23.3739 29.0226 24.0141 29.7098 24.0149 30.5834C24.0157 31.457 23.378 32.1495 22.551 32.16C21.9471 32.1678 21.3432 32.1635 20.7393 32.1617C19.7923 32.1582 19.1981 31.5148 19.1876 30.4836C19.1876 30.4442 19.1836 30.4049 19.1755 30.2604C18.632 31.2828 18.1336 32.2204 17.615 33.1964C17.7414 33.2034 17.8268 33.2122 17.9121 33.2122C20.7103 33.213 23.5084 33.2139 26.3066 33.2122C27.8156 33.2113 28.8438 32.0908 28.847 30.4486C28.8487 29.631 28.847 28.8126 28.847 27.9783C29.1715 27.9783 29.4695 27.9783 29.7875 27.9783C29.7956 28.0449 29.8125 28.1166 29.8117 28.1884C29.798 29.1723 29.8592 30.1659 29.7489 31.1367C29.5419 32.9557 28.1304 34.2495 26.4314 34.2591C24.0358 34.2731 21.6403 34.2626 19.2448 34.2635C18.7238 34.2635 18.2028 34.2635 17.681 34.2635C17.652 34.288 17.6222 34.3134 17.5916 34.3379ZM21.5807 31.1113C21.8923 31.1113 22.2048 31.1174 22.5164 31.1095C22.8417 31.1016 23.0535 30.8819 23.047 30.5738C23.0406 30.2771 22.8369 30.067 22.5244 30.0635C21.9109 30.0565 21.2965 30.0565 20.6829 30.0635C20.356 30.067 20.1458 30.2884 20.1531 30.5983C20.1595 30.8942 20.3632 31.1016 20.6748 31.1095C20.9768 31.1174 21.2788 31.1113 21.5807 31.1113Z" fill="#1FB9B3"/>
<path d="M31.3004 10.6035C35.1397 10.6394 38.3774 13.7189 38.9234 17.8717C39.5112 22.3466 36.6486 26.5895 32.5525 27.3081C30.2246 27.7169 28.1455 27.0928 26.3192 25.4812C26.1574 25.3386 26.0141 25.3097 25.8256 25.3491C24.9278 25.5381 24.0284 25.7211 23.1298 25.9058C22.8842 25.9566 22.641 25.9785 22.4735 25.7202C22.3245 25.4909 22.3841 25.2703 22.5065 25.0471C22.9905 24.1647 23.4655 23.2762 23.9527 22.3956C24.0493 22.2214 24.0646 22.0769 23.9994 21.8809C22.2939 16.7871 25.4166 11.2994 30.3687 10.6805C30.6779 10.6429 30.9895 10.6289 31.3004 10.6035ZM23.8263 24.6925C24.5365 24.5481 25.1911 24.4387 25.8353 24.275C26.2411 24.1717 26.5318 24.2741 26.8434 24.5744C28.0046 25.6957 29.3823 26.2892 30.9291 26.3706C35.1107 26.5912 38.4491 22.7063 37.9789 18.1859C37.5602 14.1593 34.1951 11.2557 30.4943 11.7284C26.1244 12.286 23.3898 17.104 24.9327 21.5692C25.105 22.0682 25.0873 22.4429 24.8207 22.8762C24.4713 23.4434 24.1741 24.05 23.8263 24.6925Z" fill="#1FB9B3"/>
<path d="M19.7592 14.9404C20.0354 15.2442 20.2456 15.4762 20.5339 15.7939C20.3334 15.9742 20.1377 16.1581 19.9348 16.3323C19.785 16.4609 19.7761 16.5774 19.8663 16.7734C20.3269 17.7766 20.2528 18.7544 19.6127 19.6289C18.9701 20.506 18.0973 20.8106 17.1044 20.5253C16.1229 20.2425 15.5133 19.5098 15.345 18.4218C15.1856 17.3906 15.5077 16.5135 16.2847 15.8858C17.0706 15.2512 17.9346 15.1777 18.8115 15.6477C19.0305 15.765 19.1505 15.744 19.2882 15.5523C19.4363 15.3448 19.5966 15.1505 19.7592 14.9404ZM19.0031 17.2855C18.5208 17.8186 18.0538 18.3351 17.6198 18.8139C17.3806 18.5811 17.1576 18.364 16.9063 18.1189C17.3927 17.605 17.8654 17.1043 18.3461 16.5957C17.7389 16.2333 16.9973 16.4329 16.5786 17.0387C16.1478 17.6619 16.1994 18.5198 16.7002 19.0757C17.2035 19.6341 17.9878 19.7121 18.5715 19.2612C19.1424 18.8227 19.3397 18.0121 19.0031 17.2855Z" fill="#1FB9B3"/>
<path d="M23.5187 10.126C23.5187 10.4717 23.5187 10.7956 23.5187 11.1361C22.2425 11.1361 20.9791 11.1361 19.6915 11.1361C19.6915 10.8131 19.6915 10.4814 19.6915 10.126C20.9541 10.126 22.224 10.126 23.5187 10.126Z" fill="#1FB9B3"/>
<path d="M23.043 16.4238C23.043 16.774 23.043 17.09 23.043 17.4305C22.4109 17.4305 21.7844 17.4305 21.1378 17.4305C21.1378 17.1057 21.1378 16.7749 21.1378 16.4238C21.7667 16.4238 22.3932 16.4238 23.043 16.4238Z" fill="#1FB9B3"/>
<path d="M23.0347 18.5283C23.0347 18.8793 23.0347 19.2024 23.0347 19.5411C22.401 19.5411 21.7818 19.5411 21.14 19.5411C21.14 19.2129 21.14 18.882 21.14 18.5283C21.7616 18.5283 22.3873 18.5283 23.0347 18.5283Z" fill="#1FB9B3"/>
<path d="M18.687 10.125C18.687 10.4751 18.687 10.7982 18.687 11.1369C18.3754 11.1369 18.0783 11.1369 17.7578 11.1369C17.7578 10.8095 17.7578 10.4786 17.7578 10.125C18.0574 10.125 18.3617 10.125 18.687 10.125Z" fill="#1FB9B3"/>
<path d="M33.1953 15.881C33.6841 15.881 34.1262 15.8766 34.5682 15.8818C34.9443 15.8862 35.1255 16.0788 35.1263 16.4858C35.1295 18.5631 35.1335 20.6403 35.1238 22.7167C35.1198 23.5938 34.4901 24.274 33.6809 24.2792C32.0721 24.2897 30.4632 24.2889 28.8536 24.2801C28.029 24.2757 27.4026 23.5921 27.3994 22.6957C27.3921 20.6298 27.3953 18.5631 27.3977 16.4972C27.3985 16.0709 27.5773 15.8845 27.9751 15.881C28.4155 15.8766 28.8552 15.8801 29.3351 15.8801C29.2747 15.0371 29.4172 14.2869 30.034 13.7363C30.4052 13.4045 30.8352 13.2374 31.3168 13.2575C31.9239 13.2829 32.4175 13.5604 32.7959 14.0803C33.176 14.602 33.2211 15.2166 33.1953 15.881ZM29.3311 16.9524C28.9929 16.9524 28.6877 16.9524 28.3866 16.9524C28.3866 18.3556 28.3866 19.737 28.3866 21.1157C30.3175 21.1157 32.225 21.1157 34.1423 21.1157C34.1423 19.7177 34.1423 18.3355 34.1423 16.955C33.8186 16.955 33.5134 16.955 33.1865 16.955C33.1865 17.3034 33.1865 17.6273 33.1865 17.9608C32.8588 17.9608 32.5536 17.9608 32.2162 17.9608C32.2162 17.6089 32.2162 17.2763 32.2162 16.948C31.5632 16.948 30.9431 16.948 30.2901 16.948C30.2901 17.2964 30.2901 17.6291 30.2901 17.9565C29.9511 17.9565 29.6459 17.9565 29.3303 17.9565C29.3311 17.6151 29.3311 17.2991 29.3311 16.9524ZM28.3648 22.1994C28.3648 22.3744 28.3584 22.5355 28.3664 22.6957C28.3833 23.0231 28.5613 23.2288 28.8649 23.2297C30.4624 23.2358 32.06 23.2358 33.6575 23.2297C33.9619 23.2288 34.1415 23.0248 34.1592 22.6983C34.168 22.5381 34.1608 22.3762 34.1608 22.1994C32.221 22.1994 30.307 22.1994 28.3648 22.1994ZM30.3135 15.8573C30.9608 15.8573 31.5881 15.8573 32.213 15.8573C32.2814 14.8682 31.9311 14.3053 31.262 14.3062C30.5913 14.3062 30.2426 14.8682 30.3135 15.8573Z" fill="#1FB9B3"/>
</svg>
