<svg width="160" height="160" viewBox="0 0 160 160" fill="none" xmlns="http://www.w3.org/2000/svg">
<circle cx="80" cy="80" r="80" fill="#FF1616"/>
<path d="M80 88.7915C77.4717 88.7915 75.375 86.6948 75.375 84.1665V51.7915C75.375 49.2632 77.4717 47.1665 80 47.1665C82.5283 47.1665 84.625 49.2632 84.625 51.7915V84.1665C84.625 86.6948 82.5283 88.7915 80 88.7915Z" fill="white"/>
<path d="M80.0007 110.375C78.3357 110.375 76.7938 109.759 75.6222 108.587C75.0672 107.97 74.6357 107.292 74.2657 106.552C73.9574 105.812 73.834 105.01 73.834 104.208C73.834 102.605 74.5122 101.002 75.6222 99.8299C77.9038 97.5482 82.0975 97.5482 84.3791 99.8299C85.4891 101.002 86.1673 102.605 86.1673 104.208C86.1673 105.01 85.9822 105.812 85.6739 106.552C85.3655 107.292 84.9341 107.97 84.3791 108.587C83.2075 109.759 81.6657 110.375 80.0007 110.375Z" fill="white"/>
<path d="M80.0005 144.292C75.8688 144.292 71.6754 143.244 67.9754 141.085L31.3454 119.934C23.9454 115.617 19.3203 107.662 19.3203 99.0905V56.9107C19.3203 48.339 23.9454 40.384 31.3454 36.0673L67.9754 14.9157C75.3754 10.5991 84.5639 10.5991 92.0256 14.9157L128.656 36.0673C136.056 40.384 140.681 48.339 140.681 56.9107V99.0905C140.681 107.662 136.056 115.617 128.656 119.934L92.0256 141.085C88.3256 143.244 84.1321 144.292 80.0005 144.292ZM80.0005 20.9589C77.4721 20.9589 74.8821 21.6373 72.6004 22.9323L35.9704 44.0839C31.4071 46.7356 28.5703 51.6074 28.5703 56.9107V99.0905C28.5703 104.332 31.4071 109.266 35.9704 111.917L72.6004 133.069C77.1637 135.721 82.8372 135.721 87.3388 133.069L123.969 111.917C128.532 109.266 131.369 104.394 131.369 99.0905V56.9107C131.369 51.669 128.532 46.7356 123.969 44.0839L87.3388 22.9323C85.1188 21.6373 82.5288 20.9589 80.0005 20.9589Z" fill="white"/>
</svg>
