<svg width="83" height="89" viewBox="0 0 83 89" fill="none" xmlns="http://www.w3.org/2000/svg">
<path d="M63.004 29.5563C62.9494 33.6781 62.902 37.7999 63.9028 41.841C64.4435 44.0229 65.0696 46.1857 65.5511 48.3794C65.7764 49.4111 65.793 50.4972 65.8238 51.5597C65.8499 52.487 65.2665 53.049 64.4246 53.0538C63.5827 53.0585 63.0064 52.5107 63.0064 51.5763C63.004 49.2664 62.4894 47.0537 61.7826 44.8766C60.668 41.4355 60.234 37.8947 60.1534 34.2923C60.0561 29.969 60.004 25.6409 59.7597 21.3246C59.5937 18.3625 58.9083 15.4669 57.7083 12.7277C55.2585 7.13555 50.9564 4.03117 44.9279 3.3031C41.1358 2.84539 37.4077 3.05646 33.8646 4.64303C29.4724 6.60906 26.7499 10.1285 24.9285 14.44C22.9672 19.0835 22.2154 23.9903 21.9048 28.9777C21.6178 33.6164 21.7696 38.2766 21.0463 42.8964C20.6573 45.377 20.3799 47.898 20.3395 50.4048C20.1925 59.2768 25.5783 66.2017 34.1705 68.386C34.4006 68.4452 34.633 68.495 34.8535 68.5757C35.7144 68.8887 36.0322 69.5623 35.7761 70.499C35.584 71.2034 34.9247 71.5757 34.0756 71.3599C26.1997 69.3488 20.7166 64.7551 18.3095 56.7985C17.2897 53.4309 17.2328 49.9992 17.719 46.5842C18.5538 40.7074 18.8241 34.8022 19.0945 28.8828C19.3862 22.4796 20.5411 16.2234 23.7143 10.5293C27.44 3.84145 33.2243 0.51414 40.8299 0.276984C44.1453 0.172635 47.4015 0.547342 50.513 1.76158C56.7336 4.19007 60.1131 9.00434 61.7376 15.2653C62.9542 19.9562 63.0846 24.7468 63.004 29.5563Z" fill="url(#paint0_linear_148_5296)"/>
<path d="M24.5729 25.2826C24.5729 23.3356 24.5634 21.8533 24.5753 20.3711C24.5848 19.3395 25.0733 18.7869 25.9508 18.7632C26.8662 18.7395 27.3809 19.3134 27.4164 20.3759C27.5303 23.7198 27.4994 27.0779 27.8054 30.4052C28.2014 34.7191 29.3516 38.8693 31.8275 42.5002C32.7501 43.8543 33.8718 45.1421 35.1335 46.1785C39.2885 49.5912 44.4443 49.4418 48.5234 45.9318C51.4546 43.4085 53.1361 40.1096 54.2531 36.4906C55.4768 32.5206 56.091 28.4202 55.823 24.2984C55.4436 18.481 51.4096 12.4619 44.1597 11.7718C40.064 11.3829 36.279 12.0066 33.0394 14.6438C31.9817 15.5047 31.135 16.6549 30.3121 17.7624C29.603 18.7134 28.901 19.0691 28.1089 18.5853C27.2955 18.092 27.1722 17.2881 27.7769 16.2707C29.5935 13.2161 32.2568 11.1623 35.5414 9.93385C40.0332 8.25716 44.5913 8.33068 49.0048 10.0927C54.3218 12.2177 57.0491 16.541 58.3654 21.9245C58.9416 24.2795 58.7163 26.6392 58.5361 28.9989C58.1899 33.5499 57.2721 37.9658 55.1685 42.0686C53.9519 44.4425 52.3724 46.5366 50.2878 48.2228C44.4941 52.9042 37.1825 52.4774 31.8157 47.1461C28.4386 43.7903 26.6884 39.595 25.6496 35.0487C24.8765 31.6835 24.6014 28.2613 24.5729 25.2826Z" fill="url(#paint1_linear_148_5296)"/>
<path d="M82.9107 85.0771C82.9107 85.6984 82.925 86.3221 82.9084 86.9435C82.8799 87.9372 82.3416 88.4945 81.4546 88.4755C80.6056 88.4565 80.0981 87.9182 80.0696 86.9648C80.0293 85.5727 80.1076 84.1711 79.9629 82.7909C79.6 79.3213 77.9399 76.4493 75.5802 73.9639C73.0166 71.2627 69.9573 69.2445 66.5707 67.7409C62.6979 66.0215 58.9532 66.5575 55.4789 68.7939C52.5689 70.6674 49.799 72.7591 46.9388 74.7157C43.6637 76.9568 40.1799 78.7829 36.2289 79.4849C30.7529 80.4549 25.3908 80.0659 20.3963 77.4572C15.6864 74.9955 12.933 71.1323 13.2555 65.6539C13.4002 63.197 14.0903 60.7661 14.5978 58.3353C14.7804 57.4626 15.6271 56.993 16.3314 57.2017C17.0405 57.4104 17.4318 58.2025 17.2611 59.0871C16.8887 61.0033 16.4476 62.9077 16.1559 64.8357C15.6081 68.4334 16.8935 71.3599 19.6825 73.6248C22.2295 75.6951 25.2651 76.5133 28.4572 76.926C34.7229 77.7323 40.2819 75.9465 45.3712 72.3868C48.2337 70.3852 51.0488 68.3053 53.9919 66.4247C59.0054 63.2207 64.1849 63.178 69.4071 65.986C72.9336 67.8808 76.1494 70.1789 78.706 73.3022C81.5044 76.7244 83.0554 80.5995 82.9107 85.0771Z" fill="url(#paint2_linear_148_5296)"/>
<path d="M41.4137 65.8461C35.7599 65.6042 31.2041 63.3393 27.7488 58.895C25.5906 56.1203 24.1463 52.9946 23.3021 49.5914C22.9914 48.3392 23.3471 47.4688 24.2151 47.2412C25.1021 47.0087 25.8302 47.6609 26.1408 48.9653C26.7361 51.4649 27.7511 53.7819 29.1195 55.9543C33.0207 62.1393 41.0698 65.1678 48.4169 60.7875C50.7814 59.3788 53.1174 57.9156 55.5127 56.5638C57.8819 55.2262 60.3957 54.2989 63.1823 54.3321C68.2385 54.3938 73.5294 58.9401 74.3405 63.9322C74.4876 64.8429 74.0607 65.5496 73.2757 65.6943C72.4646 65.8437 71.7199 65.3409 71.5421 64.4184C71.2338 62.8247 70.4725 61.4777 69.4171 60.2848C66.7847 57.3108 63.2795 56.3503 59.6131 57.8824C57.3862 58.812 55.2921 60.0761 53.1933 61.2879C50.5774 62.7963 48.0446 64.473 45.073 65.2153C43.8754 65.5141 42.6351 65.6421 41.4137 65.8461Z" fill="url(#paint3_linear_148_5296)"/>
<path d="M41.6506 18.7511C46.1447 18.7867 50.2618 19.963 53.9851 22.4721C54.5828 22.8729 54.9409 23.3591 54.7891 24.099C54.5614 25.2018 53.4539 25.5812 52.4152 24.8745C50.4586 23.5393 48.3456 22.5812 46.0262 22.095C40.6237 20.9638 35.5533 21.7677 30.8742 24.7606C30.0015 25.3203 29.1691 25.235 28.6853 24.5306C28.2157 23.8452 28.4671 23.046 29.3612 22.4436C33.0845 19.9416 37.2087 18.7748 41.6506 18.7511Z" fill="url(#paint4_linear_148_5296)"/>
<path d="M10.4767 68.2767C10.8704 68.6372 11.3731 68.9242 11.6103 69.3582C11.9447 69.9677 11.6601 70.5771 11.1431 71.0159C10.4886 71.5708 9.78182 72.0641 9.13913 72.6309C6.04898 75.3559 3.8126 78.5907 3.3288 82.7907C3.17702 84.1093 3.25291 85.4516 3.22682 86.7844C3.20547 87.8848 2.74065 88.4564 1.84183 88.4777C0.905057 88.5014 0.454459 87.9062 0.371455 86.7749C-0.202464 79.0768 3.28611 73.3993 9.20791 68.9289C9.5257 68.687 9.92649 68.5566 10.4767 68.2767Z" fill="url(#paint5_linear_148_5296)"/>
<path d="M61.569 78.4251C61.569 75.6717 61.5595 72.9183 61.5738 70.1649C61.5785 69.0195 62.3042 68.3697 63.3074 68.5926C64.0449 68.7562 64.4102 69.259 64.4102 70.0013C64.4149 75.686 64.422 81.3682 64.4054 87.0529C64.403 87.9683 63.7983 88.5043 62.9422 88.4758C62.1002 88.4497 61.5832 87.9043 61.5785 86.9509C61.5595 84.1098 61.569 81.2662 61.569 78.4251Z" fill="url(#paint6_linear_148_5296)"/>
<path d="M41.6492 83.4121C41.6492 82.288 41.6326 81.1639 41.654 80.0421C41.6706 79.0887 42.1804 78.5504 43.0271 78.5291C43.9141 78.5053 44.4785 79.0603 44.488 80.0445C44.507 82.3496 44.507 84.6572 44.488 86.9623C44.4809 87.9442 43.9093 88.5038 43.0271 88.4778C42.1828 88.454 41.6729 87.9133 41.6563 86.96C41.635 85.7766 41.6492 84.5931 41.6492 83.4121Z" fill="url(#paint7_linear_148_5296)"/>
<defs>
<linearGradient id="paint0_linear_148_5296" x1="61.6581" y1="71.3965" x2="12.0327" y2="68.2221" gradientUnits="userSpaceOnUse">
<stop stop-color="#BBD2C5"/>
<stop offset="0.993949" stop-color="#1FB9B3"/>
</linearGradient>
<linearGradient id="paint1_linear_148_5296" x1="55.7937" y1="51.4457" x2="20.819" y2="48.8162" gradientUnits="userSpaceOnUse">
<stop stop-color="#BBD2C5"/>
<stop offset="0.993949" stop-color="#1FB9B3"/>
</linearGradient>
<linearGradient id="paint2_linear_148_5296" x1="76.9209" y1="88.4652" x2="8.18606" y2="74.0832" gradientUnits="userSpaceOnUse">
<stop stop-color="#BBD2C5"/>
<stop offset="0.993949" stop-color="#1FB9B3"/>
</linearGradient>
<linearGradient id="paint3_linear_148_5296" x1="69.9637" y1="65.8397" x2="20.5669" y2="53.0925" gradientUnits="userSpaceOnUse">
<stop stop-color="#BBD2C5"/>
<stop offset="0.993949" stop-color="#1FB9B3"/>
</linearGradient>
<linearGradient id="paint4_linear_148_5296" x1="52.5539" y1="25.2308" x2="28.8726" y2="16.1699" gradientUnits="userSpaceOnUse">
<stop stop-color="#BBD2C5"/>
<stop offset="0.993949" stop-color="#1FB9B3"/>
</linearGradient>
<linearGradient id="paint5_linear_148_5296" x1="10.7694" y1="88.4715" x2="-0.97909" y2="87.8455" gradientUnits="userSpaceOnUse">
<stop stop-color="#BBD2C5"/>
<stop offset="0.993949" stop-color="#1FB9B3"/>
</linearGradient>
<linearGradient id="paint6_linear_148_5296" x1="64.1705" y1="88.47" x2="61.2371" y2="88.4306" gradientUnits="userSpaceOnUse">
<stop stop-color="#BBD2C5"/>
<stop offset="0.993949" stop-color="#1FB9B3"/>
</linearGradient>
<linearGradient id="paint7_linear_148_5296" x1="44.2561" y1="88.4752" x2="41.3148" y2="88.3957" gradientUnits="userSpaceOnUse">
<stop stop-color="#BBD2C5"/>
<stop offset="0.993949" stop-color="#1FB9B3"/>
</linearGradient>
</defs>
</svg>
