<svg width="76" height="76" viewBox="0 0 76 76" fill="none" xmlns="http://www.w3.org/2000/svg">
<path d="M36.8755 0.727539C37.8035 0.727539 38.7314 0.727539 39.6594 0.727539C39.7747 0.766612 39.886 0.825222 40.0033 0.840851C45.4579 1.59691 49.3554 4.4766 51.7447 9.42715C51.8658 9.67918 52.0573 9.92338 52.2742 10.0973C55.5055 12.6898 56.6757 15.9973 55.7985 20.0472C55.7399 20.3168 55.822 20.647 55.9294 20.9146C56.4354 22.1728 57.004 23.4075 57.4767 24.6774C57.6076 25.0271 57.6995 25.24 58.0785 25.3729C65.0139 27.8013 69.228 33.7443 69.2358 41.0881C69.2416 45.7768 69.2436 50.4636 69.226 55.1524C69.224 55.6506 69.3608 55.9124 69.8277 56.1585C72.5902 57.6199 74.4364 59.8705 75.3702 62.8517C75.5793 63.5199 75.6906 64.2193 75.845 64.905C75.845 68.5193 75.845 72.1336 75.845 75.7478C70.2771 75.7478 64.7092 75.7478 59.1412 75.7478C58.8736 75.4782 58.5298 75.2496 58.3539 74.9292C57.7991 73.9192 58.563 72.8251 59.8192 72.8212C63.9199 72.8115 68.0186 72.8173 72.1194 72.8173C72.3753 72.8173 72.6312 72.8173 72.9028 72.8173C72.9028 70.3127 72.9868 67.9195 72.8832 65.5341C72.7094 61.4764 69.3686 58.0887 65.3167 57.8563C63.1755 57.7332 61.0226 57.8152 58.8775 57.782C58.4633 57.7762 58.3617 57.9832 58.2406 58.3154C57.4142 60.6226 55.3492 62.0937 53.0126 62.0722C50.6741 62.0488 48.6775 60.6089 47.8589 58.3212C47.7261 57.952 47.5854 57.7722 47.1517 57.7801C45.2723 57.8074 43.3929 57.7586 41.5134 57.7996C37.1841 57.8953 33.8981 60.7164 33.2768 64.9461C33.101 66.1436 33.1987 67.3803 33.1889 68.5994C33.1772 69.9826 33.187 71.3658 33.187 72.8193C33.525 72.8193 33.7887 72.8193 34.0505 72.8193C38.1024 72.8193 42.1523 72.8251 46.2042 72.8154C46.9329 72.8134 47.5053 73.0479 47.7983 73.7394C48.1285 74.517 47.7944 75.1813 46.8293 75.7498C31.4932 75.7498 16.157 75.7498 0.820801 75.7498C0.820801 72.0769 0.820801 68.4197 0.820801 64.7605C0.865735 64.6257 0.930205 64.4948 0.955603 64.3561C1.71167 60.2163 4.02675 57.319 7.89302 55.6701C8.48498 55.4181 9.11796 55.2579 9.81542 55.0274C7.78167 52.8725 7.33233 50.2956 7.41829 47.5214C7.48666 45.3255 7.41438 43.1257 7.44173 40.9298C7.4515 40.0546 7.48276 39.1637 7.63905 38.3061C8.80538 31.8942 12.49 27.5981 18.5951 25.3455C18.8276 25.2596 19.0425 24.9704 19.15 24.7262C19.6814 23.5032 20.1874 22.2705 20.668 21.0279C20.7969 20.6978 20.918 20.2953 20.8497 19.9671C20.0194 16.0012 21.172 12.7562 24.2881 10.1793C24.5909 9.92924 24.8429 9.57368 25.0168 9.21616C26.82 5.53352 29.6176 2.9508 33.4917 1.59496C34.5916 1.20814 35.7482 1.01082 36.8755 0.727539ZM47.5659 54.834C47.5659 54.4647 47.5385 54.1736 47.5717 53.8903C47.6616 53.1323 47.4135 52.6166 46.7863 52.1008C45.157 50.7567 44.0161 48.9984 43.7797 46.8963C43.5355 44.7258 43.5784 42.5181 43.5784 40.3261C43.5784 39.4724 44.2329 39.0113 45.2019 39.0016C46.6418 38.9859 48.0816 38.9996 49.5215 38.9957C52.0417 38.9898 53.4659 37.6926 53.712 35.1841C53.7961 34.3284 54.39 33.7599 55.1851 33.7697C56.0076 33.7814 56.6484 34.4183 56.6171 35.2974C56.5956 35.9011 56.4882 36.5106 56.3417 37.0987C56.0877 38.1185 56.1346 38.308 57.129 38.7105C57.5256 38.8707 57.973 38.9547 58.4028 38.9801C59.1569 39.023 59.9149 38.9937 60.6729 38.9957C62.0737 39.0016 62.5484 39.4841 62.5543 40.9044C62.5582 42.1743 62.5445 43.4422 62.5562 44.7121C62.5855 47.8692 61.3762 50.4421 58.9459 52.4505C58.7876 52.5814 58.5845 52.7709 58.5708 52.9448C58.5258 53.566 58.5532 54.1932 58.5532 54.8027C61.1867 54.8027 63.7128 54.8027 66.2584 54.8027C66.2779 54.6562 66.3033 54.5644 66.3033 54.4706C66.3033 49.7349 66.3971 44.9973 66.2721 40.2656C66.1002 33.6642 60.8995 28.1744 54.429 27.559C46.5265 26.8069 39.8353 32.8573 39.8079 40.7989C39.7923 45.2415 39.804 49.6841 39.804 54.1267C39.804 54.3573 39.804 54.5878 39.804 54.834C42.4356 54.834 44.946 54.834 47.5659 54.834ZM33.5933 57.7918C32.2238 57.7918 30.7898 57.7781 29.3559 57.8094C29.1878 57.8133 28.9456 58.0321 28.8753 58.2079C27.8672 60.6851 26.0171 62.0625 23.6434 62.0703C21.2775 62.0801 19.3512 60.6558 18.3861 58.2353C18.3079 58.0379 17.9895 57.8113 17.7805 57.8094C15.8288 57.7801 13.8732 57.7312 11.9254 57.8094C7.11156 58.0028 3.77668 61.5272 3.76496 66.3546C3.76105 68.2829 3.763 70.2112 3.76691 72.1375C3.76691 72.3484 3.79231 72.5594 3.80598 72.7548C12.6502 72.7548 21.4416 72.7548 30.2702 72.7548C30.2702 70.5003 30.2799 68.3063 30.2663 66.1104C30.2565 64.5241 30.4968 62.9709 31.2236 61.5721C31.8995 60.271 32.7787 59.0714 33.5933 57.7918ZM18.1302 54.8164C18.1302 54.453 18.1009 54.1599 18.136 53.8747C18.2298 53.1128 17.9661 52.6009 17.3468 52.0852C15.7018 50.7157 14.5667 48.93 14.3362 46.8005C14.1037 44.6515 14.1643 42.4673 14.1603 40.2988C14.1584 39.529 14.7972 39.0328 15.6627 39.0055C16.5399 38.9781 17.4308 39.0758 18.2962 38.9664C18.9468 38.8843 19.5798 38.5854 20.1991 38.3314C20.5566 38.183 20.6094 37.8997 20.4765 37.4914C20.2753 36.8721 20.1366 36.2176 20.0701 35.569C19.9646 34.5355 20.5507 33.8166 21.4455 33.7736C22.3129 33.7325 22.8893 34.3265 22.9772 35.356C23.1667 37.548 24.6847 38.9683 26.8903 38.9918C28.379 39.0074 29.8697 38.9898 31.3583 38.9976C32.6009 39.0055 33.1342 39.5368 33.1459 40.7891C33.1596 42.1079 33.1518 43.4266 33.1479 44.7433C33.1401 47.8887 31.9464 50.4734 29.4965 52.47C29.3402 52.599 29.1468 52.7924 29.1351 52.9682C29.0902 53.568 29.1175 54.1736 29.1175 54.8418C29.8736 54.8418 30.5515 54.8711 31.2275 54.8359C34.5291 54.6679 36.8559 52.2395 36.8716 48.9378C36.8852 46.1793 36.8911 43.4207 36.8716 40.6622C36.8169 33.4219 31.0184 27.5981 23.7919 27.5082C16.958 27.4223 11.0794 32.533 10.5168 39.318C10.2374 42.6881 10.3644 46.0992 10.4171 49.4888C10.4425 51.1494 11.2631 52.515 12.5525 53.5817C14.174 54.9258 16.0847 54.9434 18.1302 54.8164ZM54.5541 24.4996C54.0696 23.6673 53.6866 22.8175 53.1259 22.1083C52.5594 21.3894 52.4422 20.7427 52.7548 19.887C53.798 17.0249 52.7723 14.0143 50.2892 12.26C49.8419 11.9435 49.4355 11.4472 49.2186 10.9432C47.3099 6.50449 43.0607 3.6463 38.3036 3.65997C33.5777 3.67365 29.3422 6.53966 27.4589 10.9412C27.244 11.4453 26.8376 11.9435 26.3922 12.2619C23.868 14.0573 22.8756 17.0405 23.9442 19.9554C24.2373 20.7525 24.1611 21.3952 23.5867 22.0419C22.9459 22.7647 22.4868 23.6048 22.2407 24.6324C25.0148 24.4117 27.5976 24.8512 29.9986 25.8593C29.6509 24.6891 29.1253 23.5696 29.014 22.4111C28.8303 20.4731 28.8792 18.5097 28.8967 16.558C28.9046 15.6593 29.5063 15.1338 30.4128 15.1064C31.2919 15.081 32.1808 15.1807 33.0463 15.0693C33.6969 14.9853 34.3377 14.6962 34.9355 14.4031C35.1035 14.3211 35.1914 13.8873 35.1621 13.6334C35.0898 12.9828 34.8691 12.3479 34.8183 11.6993C34.7343 10.6365 35.2403 9.99176 36.1077 9.92338C37.0298 9.84914 37.6237 10.4294 37.7253 11.5019C37.9363 13.733 39.4074 15.0849 41.6482 15.0986C43.1369 15.1064 44.6276 15.0908 46.1162 15.1045C47.1947 15.1123 47.7788 15.6437 47.7964 16.7026C47.8218 18.2889 47.8101 19.8772 47.7749 21.4636C47.7456 22.8761 47.3646 24.2065 46.7082 25.4569C46.6476 25.5721 46.6086 25.6991 46.5714 25.7929C47.8687 25.4491 49.1171 25.0154 50.4006 24.8044C51.6939 24.5914 53.0224 24.6012 54.5541 24.4996ZM17.083 41.9144C17.083 43.2039 17.0283 44.3956 17.0928 45.5834C17.296 49.2387 20.9727 52.1711 24.5694 51.4873C29.7642 50.4988 30.7117 46.189 30.0768 41.9379C27.4335 41.8558 24.6534 42.395 22.4145 40.3125C20.875 41.7054 19.0679 42.059 17.083 41.9144ZM54.2513 40.2988C51.9792 42.4283 49.1815 41.8246 46.5109 41.9457C46.5109 43.2058 46.4386 44.4014 46.5246 45.5854C46.7531 48.7346 49.3085 51.2646 52.4656 51.5518C55.6266 51.839 58.7095 49.7564 59.3776 46.6599C59.7019 45.1614 59.614 43.5731 59.7195 41.9008C57.6135 42.0688 55.8103 41.6995 54.2513 40.2988ZM31.8526 18.0154C31.8526 19.3068 31.7784 20.479 31.8663 21.6394C32.0949 24.6227 34.3572 27.0198 37.3111 27.5063C40.1947 27.981 43.1057 26.3966 44.3091 23.6986C45.1179 21.8836 44.8307 19.9788 44.8679 18.0389C42.1367 17.9568 39.3547 18.4882 37.1275 16.4154C35.6036 17.8122 33.82 18.1561 31.8526 18.0154ZM21.0802 54.3573C21.0802 55.1211 21.0157 56.0022 21.0958 56.8677C21.213 58.1513 22.2914 59.0929 23.5633 59.1359C24.8078 59.1789 26.0014 58.2489 26.1362 56.9966C26.2359 56.0843 26.1558 55.1544 26.1558 54.3553C24.4522 54.3573 22.7896 54.3573 21.0802 54.3573ZM55.6051 54.2557C54.6869 54.3436 53.8664 54.4862 53.0458 54.4842C52.2116 54.4823 51.3794 54.3377 50.4983 54.2518C50.4983 55.0606 50.4827 55.8381 50.5022 56.6157C50.5374 58.0008 51.5865 59.0675 52.9501 59.1379C54.2708 59.2043 55.4781 58.1825 55.5915 56.8169C55.6637 55.9729 55.6051 55.1172 55.6051 54.2557ZM38.3427 33.8126C39.0929 32.6405 39.8333 31.4819 40.5308 30.3938C39.089 30.3938 37.5866 30.3938 36.1487 30.3938C36.8579 31.4995 37.6003 32.6561 38.3427 33.8126Z" fill="url(#paint0_linear_148_5318)"/>
<path d="M52.552 75.7481C52.4446 75.6602 52.3391 75.5684 52.2297 75.4844C51.6494 75.0311 51.4326 74.3786 51.6983 73.7495C51.9601 73.1302 52.4504 72.7942 53.1244 72.8333C53.7945 72.8723 54.2576 73.2416 54.4451 73.8941C54.6366 74.5623 54.3631 75.1777 53.7379 75.5664C53.6363 75.6289 53.5328 75.6876 53.4292 75.7481C53.1381 75.7481 52.8451 75.7481 52.552 75.7481Z" fill="url(#paint1_linear_148_5318)"/>
<defs>
<linearGradient id="paint0_linear_148_5318" x1="69.3867" y1="75.724" x2="-7.17162" y2="68.5238" gradientUnits="userSpaceOnUse">
<stop stop-color="#BBD2C5"/>
<stop offset="0.993949" stop-color="#1FB9B3"/>
</linearGradient>
<linearGradient id="paint1_linear_148_5318" x1="54.254" y1="75.7471" x2="51.275" y2="75.4668" gradientUnits="userSpaceOnUse">
<stop stop-color="#BBD2C5"/>
<stop offset="0.993949" stop-color="#1FB9B3"/>
</linearGradient>
</defs>
</svg>
