<svg width="88" height="48" viewBox="0 0 88 48" fill="none" xmlns="http://www.w3.org/2000/svg">
<path d="M0.197888 32.5043C0.596428 31.8137 1.1965 31.6234 1.97773 31.6348C4.7494 31.671 7.52333 31.6484 10.2973 31.6484C11.7442 31.6484 11.7442 31.6484 11.7442 30.1606C11.7442 27.2169 11.7442 24.2754 11.7442 21.3316C11.7442 21.1618 11.7442 20.9919 11.7442 20.8221C11.7465 19.5404 12.1767 18.9132 13.0395 18.9313C13.8773 18.9494 14.2917 19.5608 14.2917 20.7836C14.294 22.3959 14.2894 24.0104 14.294 25.6227C14.294 25.899 14.3166 26.173 14.3325 26.5353C15.5032 26.5353 16.6286 26.5534 17.7518 26.5149C17.9171 26.5081 18.1095 26.2499 18.2296 26.0665C18.7391 25.2966 19.1399 24.4384 19.7399 23.75C20.9288 22.3868 22.2172 21.1097 23.474 19.8054C26.386 16.7801 30.539 17.5545 32.1853 21.4244C32.2056 21.4743 32.2555 21.5105 32.3257 21.592C34.6331 20.3398 36.893 20.3443 38.8178 22.2917C40.6067 24.101 40.6791 26.2454 39.5469 28.5302C40.9803 28.9967 42.1397 29.7893 42.8507 31.1366C43.5459 32.459 43.564 33.8403 43.1496 35.2873C44.4517 35.6926 45.371 36.4874 46.1025 37.6038C46.3176 37.9322 47.0558 38.0952 47.5223 38.0454C48.3805 37.9525 49.0055 37.4 49.3134 36.5531C49.6169 35.7198 49.019 35.3099 48.5186 34.8548C48.2061 34.5695 47.8914 34.2819 47.5811 33.992C46.7999 33.2629 46.6618 32.5337 47.1962 31.9405C47.7668 31.3042 48.4824 31.3721 49.3338 32.1443C49.8569 32.6198 50.3732 33.1044 50.9053 33.5709C51.879 34.4291 53.1199 34.3476 53.9895 33.3806C54.6348 32.6628 54.6009 31.9858 53.8876 31.3359C52.5674 30.138 51.245 28.9424 49.9293 27.7399C49.1889 27.0606 49.0757 26.3405 49.5987 25.7472C50.1173 25.1608 50.8849 25.1766 51.6141 25.831C53.1516 27.2123 54.6733 28.6095 56.2018 29.9976C57.214 30.9169 58.4051 30.7381 59.0912 29.5379C59.4671 28.8812 59.4626 28.2676 58.8399 27.7128C57.4246 26.4515 56.0229 25.1743 54.6348 23.8836C53.9781 23.2745 53.9193 22.5838 54.4152 22.0109C54.9156 21.4358 55.681 21.4403 56.3717 22.029C56.4803 22.1196 56.5777 22.2215 56.6819 22.3166C58.2104 23.707 59.6958 25.1472 61.2877 26.4605C61.9331 26.9927 62.7777 27.4116 63.5929 27.5724C64.1296 27.6788 64.8723 27.3663 65.3524 27.0085C66.1042 26.4492 66.0544 25.6068 65.3524 24.966C61.5776 21.506 57.8005 18.0459 53.9985 14.613C53.3962 14.0696 52.6942 13.6099 51.9787 13.2249C50.4388 12.3962 48.9104 12.4075 47.4204 13.4355C45.208 14.964 42.8507 16.1211 40.0904 16.2864C36.6462 16.4925 33.7681 14.8961 32.2555 11.8527C31.5037 10.3378 31.635 9.312 32.9574 8.24545C34.6059 6.91623 36.3495 5.70249 38.0524 4.43894C38.2924 4.26005 38.5325 4.08116 38.7725 3.90227C38.7612 3.8049 38.7498 3.70753 38.7363 3.61016C37.1172 3.48561 35.4981 3.29314 33.8745 3.25238C30.9036 3.17992 28.1251 4.02002 25.4463 5.24055C25.3942 5.26319 25.3421 5.28584 25.2946 5.31528C22.2285 7.0453 18.9564 7.81747 15.4353 7.46875C15.1001 7.43478 14.7605 7.46422 14.2917 7.46422C14.2917 8.23413 14.2917 8.95648 14.2917 9.6811C14.2917 11.0964 14.2985 12.5116 14.2894 13.9246C14.2849 14.9119 13.8049 15.503 13.0259 15.5097C12.2447 15.5165 11.7488 14.9255 11.7465 13.945C11.7397 10.7182 11.7465 7.49366 11.742 4.26684C11.742 3.19577 11.6537 3.10972 10.5713 3.10972C7.71354 3.10745 4.85582 3.08934 1.99811 3.12104C1.22368 3.13236 0.619073 2.93762 0.197888 2.27414C0.197888 1.99109 0.197888 1.70803 0.197888 1.42498C0.591899 0.7298 1.19424 0.539587 1.9732 0.548645C4.85809 0.582612 7.74524 0.559968 10.6301 0.562233C13.0757 0.564497 14.2623 1.74427 14.2917 4.19665C14.294 4.39365 14.3098 4.58839 14.3234 4.90541C17.0226 4.83974 19.6924 5.22243 22.2897 3.94076C24.4545 2.87195 26.737 1.95486 29.0603 1.30723C33.0525 0.195393 37.0719 0.605257 41.0392 1.66954C41.5487 1.80541 42.0967 1.93901 42.613 1.90051C46.4489 1.61746 50.2894 1.36158 54.1118 0.951714C57.1506 0.625636 59.8747 1.36837 62.463 2.87422C63.9779 3.75508 65.5018 4.61783 67.0281 5.47605C68.9075 6.53127 70.9478 6.31615 73.0537 6.27992C73.0537 5.47831 73.0515 4.74917 73.0537 4.02002C73.0628 1.85522 74.3218 0.571289 76.4617 0.564496C79.4598 0.555438 82.4602 0.582612 85.4583 0.548645C86.2191 0.539587 86.7671 0.781882 87.1498 1.42498C87.1498 1.70803 87.1498 1.99109 87.1498 2.27414C86.7264 2.93536 86.124 3.13236 85.3496 3.1233C82.4624 3.08934 79.5753 3.12783 76.6904 3.0984C75.8911 3.08934 75.5763 3.3588 75.5899 4.17853C75.6261 6.38635 75.6035 8.59417 75.6035 10.7997C75.6035 11.9319 75.6623 13.0687 75.5695 14.1918C75.5355 14.5972 75.214 15.118 74.8675 15.3173C74.5596 15.4962 73.9187 15.4531 73.6402 15.2335C73.3232 14.9844 73.099 14.4364 73.0832 14.0107C73.022 12.3214 73.0583 10.6299 73.0583 8.85232C72.3857 8.85232 71.797 8.81835 71.2127 8.85911C68.9279 9.01309 66.856 8.36094 64.9018 7.24004C63.4548 6.409 62.0214 5.55757 60.5609 4.7537C58.8195 3.79358 56.9785 3.27502 54.9496 3.45844C50.8917 3.82528 46.8293 4.12871 42.7715 4.46838C42.5564 4.48649 42.3095 4.53631 42.142 4.65859C39.6941 6.43843 37.2598 8.23639 34.8143 10.0185C34.4384 10.2925 34.427 10.5461 34.6354 10.9447C35.3056 12.2127 36.2997 13.0777 37.6765 13.474C39.2548 13.9269 40.8512 13.8454 42.339 13.2317C43.6614 12.6883 44.9317 11.9772 46.1432 11.2119C48.2627 9.87584 50.4547 9.64034 52.667 10.759C53.9125 11.3885 55.1013 12.2105 56.1475 13.1366C59.4535 16.0623 62.669 19.0876 65.9434 22.0494C67.1164 23.1114 68.3482 24.1101 69.5688 25.1177C70.5832 25.9533 71.7698 26.0009 73.0537 25.822C73.0537 23.9697 73.0401 22.1626 73.0583 20.3556C73.0696 19.2868 73.9142 18.6641 74.7951 19.0355C75.4359 19.3072 75.6035 19.8348 75.6035 20.4824C75.5944 23.7659 75.5989 27.047 75.5989 30.3305C75.5989 31.5872 75.6556 31.6438 76.8761 31.6461C79.7066 31.6484 82.5372 31.6687 85.3654 31.6325C86.1467 31.6234 86.7467 31.8137 87.1453 32.502C87.1453 32.7851 87.1453 33.0682 87.1453 33.3512C86.7264 34.0169 86.124 34.2162 85.3496 34.2072C82.4353 34.1755 79.5209 34.1981 76.6066 34.1936C74.306 34.189 73.0537 32.9232 73.0492 30.6135C73.0469 29.9342 73.0492 29.2571 73.0492 28.5099C72.1887 28.451 71.335 28.4872 70.5289 28.3083C69.7431 28.1362 69.0049 27.7445 68.1535 27.4116C67.6463 28.5189 66.7903 29.4156 65.5494 29.8844C64.304 30.3531 63.054 30.258 61.8289 29.8345C60.3661 32.4228 59.5622 32.9798 56.9785 33.2199C55.7965 35.7198 54.6416 36.5418 52.0783 36.7637C51.6594 37.4996 51.3401 38.2628 50.8419 38.8855C49.9135 40.0494 48.6454 40.6495 47.1418 40.6381C46.6935 40.6359 46.5485 40.7921 46.3674 41.1884C46.03 41.9198 45.6201 42.6444 45.1129 43.2649C44.3973 44.139 43.5482 44.8998 42.7873 45.7354C41.4241 47.2299 39.787 47.8164 37.8169 47.2503C36.0461 46.7408 34.9615 45.3278 34.5833 43.0656C33.1182 43.1539 31.7573 42.7848 30.6386 41.7568C29.5381 40.7446 29.0218 39.4652 28.9788 37.9163C25.6524 37.751 23.7684 36.0323 23.4513 32.8326C22.4459 32.527 21.4134 32.4069 20.6095 31.911C19.8056 31.4151 19.1127 30.6226 18.6009 29.8142C18.2409 29.2458 17.9239 29.0443 17.3011 29.0692C16.341 29.1077 15.3809 29.0805 14.2872 29.0805C14.2872 29.667 14.2917 30.2195 14.2872 30.772C14.2713 32.8553 12.9738 34.1777 10.9019 34.1868C7.93092 34.2004 4.95999 34.1709 1.98905 34.2026C1.21235 34.2117 0.610015 34.0169 0.193359 33.3467C0.197888 33.0704 0.197888 32.7874 0.197888 32.5043ZM37.8916 25.8922C37.7263 24.7826 37.1195 23.861 36.1593 23.4964C35.0633 23.082 34.101 23.3379 33.2994 24.1757C31.1481 26.4243 28.9947 28.6729 26.8616 30.9373C25.7837 32.0831 25.7792 33.5844 26.8072 34.5808C27.8466 35.5862 29.4091 35.5251 30.5118 34.3838C32.6744 32.1443 34.8346 29.9025 36.9428 27.6154C37.3731 27.1489 37.5814 26.4741 37.8916 25.8922ZM23.3585 30.0859C23.6665 29.9455 24.2869 29.8345 24.656 29.4677C26.2819 27.8532 27.8828 26.2092 29.3932 24.4905C30.2514 23.5145 30.0318 22.0675 29.0898 21.1935C28.1659 20.3353 26.6849 20.2492 25.7679 21.1482C24.1737 22.7129 22.6294 24.332 21.1303 25.9895C20.4283 26.764 20.3694 27.7377 20.845 28.6887C21.3069 29.6149 22.1085 30.0157 23.3585 30.0859ZM34.1372 40.6585C34.6603 40.4117 35.2966 40.2804 35.6838 39.8977C37.2734 38.3284 38.8246 36.7139 40.3191 35.0518C41.1818 34.0894 41.046 32.6311 40.1515 31.7321C39.2231 30.7969 37.7354 30.6611 36.7775 31.594C35.1562 33.1723 33.6028 34.8231 32.0856 36.501C31.4018 37.2574 31.3791 38.222 31.8184 39.1323C32.2577 40.0562 33.0412 40.5068 34.1372 40.6585ZM44.0554 40.1377C44.0146 39.0327 43.7112 38.3556 42.9662 37.9616C42.1352 37.5246 41.3788 37.8529 40.7878 38.4077C39.7349 39.3927 38.7408 40.4434 37.7648 41.5054C36.9723 42.3659 37.0062 43.5751 37.7693 44.3337C38.571 45.1285 39.796 45.1217 40.6542 44.2658C41.6166 43.3056 42.5654 42.3319 43.4553 41.3062C43.7882 40.9257 43.9354 40.3845 44.0554 40.1377Z" fill="url(#paint0_linear_148_5308)"/>
<defs>
<linearGradient id="paint0_linear_148_5308" x1="79.6643" y1="47.4465" x2="-7.21514" y2="32.3019" gradientUnits="userSpaceOnUse">
<stop stop-color="#BBD2C5"/>
<stop offset="0.993949" stop-color="#1FB9B3"/>
</linearGradient>
</defs>
</svg>
