<svg width="68" height="78" viewBox="0 0 68 78" fill="none" xmlns="http://www.w3.org/2000/svg">
<path d="M21.6056 50.654C20.133 51.1441 18.8518 51.5081 17.6196 51.9936C15.2113 52.941 12.8285 53.9562 10.4342 54.941C7.54969 56.1266 6.00477 58.3016 5.33733 61.3307C4.27082 66.1615 3.79008 71.0506 3.46569 75.9701C3.45403 76.1451 3.46103 76.3201 3.44469 76.4952C3.36068 77.319 2.77492 77.8931 2.03513 77.8861C1.25334 77.8767 0.623236 77.2536 0.662909 76.3855C0.739921 74.6679 0.78893 72.9409 1.0223 71.2397C1.50538 67.7228 2.07714 64.2152 2.65356 60.7123C3.36535 56.3879 6.07245 53.7672 9.94874 52.0309C14.0537 50.1919 18.2801 48.7287 22.5834 47.4568C22.9405 47.3518 23.2976 47.2398 23.6313 46.9761C23.0899 47.0321 22.5414 47.0484 22.0094 47.1534C20.3781 47.4708 19.0222 46.9364 17.8343 45.8652C16.0397 44.248 14.2684 42.6027 12.4621 40.9994C9.92307 38.7451 9.42832 35.7789 9.82505 32.6798C11.0246 23.2866 14.4061 14.7615 20.5414 7.46637C23.1645 4.3462 26.4037 2.05916 30.4901 1.19102C33.5682 0.535252 36.5717 0.698612 39.4655 2.03349C39.6755 2.12918 39.9019 2.22953 40.1259 2.24819C44.1446 2.59358 46.9287 4.9833 49.2624 7.95411C51.2624 10.5002 52.3826 13.5387 53.4701 16.5538C54.7723 20.1688 55.9648 23.8233 57.2577 27.4406C58.4152 30.6798 58.1819 33.7556 56.5599 36.7988C54.7793 40.143 52.3639 42.8664 49.2227 44.9761C47.1084 46.395 45.0104 46.7754 42.854 45.0928C42.791 45.0438 42.6954 45.0344 42.6183 45.0088C42.1096 45.8746 42.5623 46.7824 43.5658 47.0811C47.6358 48.2993 51.7315 49.4405 55.7455 50.8197C57.7361 51.5035 59.6031 52.584 61.4677 53.5968C63.6171 54.7637 64.5972 56.801 65.2227 59.0577C66.3195 63.0133 66.7092 67.0716 66.9613 71.1486C67.0663 72.8359 67.1106 74.5278 67.148 76.2198C67.1713 77.2396 66.6089 77.8884 65.7711 77.8977C64.9356 77.9094 64.3779 77.2723 64.3545 76.2501C64.2402 71.319 63.9508 66.4065 62.966 61.5594C62.9029 61.2467 62.8189 60.9363 62.7629 60.6213C62.2868 57.9562 60.8283 56.1219 58.3499 54.955C54.5646 53.1721 50.623 51.8722 46.6043 50.7614C46.5296 50.7403 46.4433 50.752 46.2543 50.7427C46.4456 51.0764 46.5927 51.3471 46.7537 51.6108C48.5413 54.514 50.3243 57.4194 52.1259 60.3156C52.4993 60.9177 52.7793 61.5128 52.3592 62.1825C51.9695 62.8056 51.3488 62.8943 50.672 62.85C49.4795 62.773 48.2823 62.7589 47.0921 62.6539C46.518 62.6026 46.1983 62.7986 45.8832 63.2654C42.7817 67.8534 39.6569 72.4252 36.5344 77.0016C35.7246 78.1894 35.0478 78.2945 33.9486 77.424C32.5927 78.2991 32.0816 78.1988 31.1715 76.8639C28.1027 72.3598 25.0245 67.8604 21.9767 63.3424C21.6266 62.8243 21.2719 62.5979 20.6325 62.6563C19.4143 62.7683 18.1844 62.871 16.9662 62.815C16.4341 62.7893 15.7153 62.4906 15.4586 62.0798C15.2299 61.7134 15.3536 60.9223 15.6103 60.4883C17.3629 57.5314 19.1926 54.619 20.9965 51.6902C21.1599 51.4171 21.3162 51.1464 21.6056 50.654ZM42.5553 41.8466C43.1108 42.1033 43.7339 42.29 44.2379 42.6447C45.6125 43.6132 45.9999 43.6715 47.4608 42.7544C50.4526 40.8781 52.6533 38.3087 54.2449 35.1582C55.3557 32.9598 55.4514 30.7708 54.6486 28.4791C53.4258 24.9902 52.2892 21.471 51.0057 18.0054C50.1982 15.8257 49.2344 13.6997 48.2613 11.5877C47.1667 9.20732 45.3348 7.45704 43.1248 6.12215C42.3453 5.65074 41.4258 5.38937 40.546 5.11166C39.6382 4.82461 38.658 4.73826 37.7829 4.38587C35.0665 3.28903 32.35 3.43372 29.6593 4.3392C26.3361 5.45938 23.8647 7.76042 21.7433 10.4559C17.9184 15.3146 15.489 20.8689 13.783 26.7662C13.0269 29.3752 12.4738 32.0263 12.5555 34.7684C12.6045 36.479 13.1786 37.9306 14.5065 39.0881C16.1961 40.5584 17.7947 42.1313 19.5053 43.5759C20.021 44.0099 20.7702 44.367 21.4259 44.395C22.7328 44.4487 24.049 44.2503 25.4726 44.1476C25.909 43.2771 25.8576 42.395 25.0455 41.3472C23.2579 39.0438 22.1774 36.367 21.594 33.4966C21.5076 33.0765 21.2369 32.6518 20.9452 32.3227C19.3279 30.4861 18.3338 28.3997 18.3338 25.919C18.3338 25.1022 18.5601 24.3251 19.4749 24.0474C23.9277 22.7008 26.7071 19.7674 27.874 15.275C28.1167 14.3415 28.7701 13.8444 29.5939 14.0521C30.0607 14.1711 30.5227 14.5188 30.8681 14.8759C34.2287 18.3625 38.2823 20.4721 43.0968 21.0556C44.8074 21.2633 46.4993 21.464 48.0722 22.2621C49.1364 22.8012 49.7058 23.625 49.8622 24.7755C50.1609 26.9669 49.6218 29.0462 48.3243 30.7241C47.0244 32.4044 46.2729 34.2574 45.6078 36.199C45.5331 36.4184 45.4351 36.6331 45.3231 36.8361C44.3896 38.5327 43.4491 40.2293 42.5553 41.8466ZM29.9813 17.9727C28.315 21.9354 25.5846 24.6938 21.6873 26.2947C21.4866 26.3764 21.2719 26.7661 21.2929 26.9902C21.4399 28.4137 22.0887 29.6203 23.1949 30.5118C23.867 31.0532 24.126 31.7089 24.2661 32.5187C25.0478 37.1068 27.3465 40.7731 31.0992 43.5105C33.2952 45.1138 34.7444 45.0741 36.8704 43.3775C40.5857 40.416 42.8797 36.5514 44.0769 31.9843C44.2076 31.4849 44.5227 30.9715 44.8937 30.6074C46.2729 29.2539 46.9497 27.5969 47.1831 25.7206C47.2531 25.1536 47.0664 24.7498 46.469 24.6051C45.6218 24.4021 44.7887 24.0871 43.9299 24.0054C39.6919 23.6016 35.7922 22.2924 32.322 19.8C31.5449 19.2423 30.8121 18.6238 29.9813 17.9727ZM39.1715 45.1674C37.5239 46.577 35.7736 47.5758 33.6499 47.4218C31.5752 47.2701 29.8063 46.2666 28.2987 44.9387C27.7409 46.2946 27.2089 47.5525 26.7141 48.822C26.5998 49.1138 26.4924 49.4825 26.5694 49.7649C27.4072 52.822 28.2964 55.8652 29.1342 58.9223C29.2719 59.4241 29.4936 59.5501 29.979 59.5454C32.6021 59.5244 35.2228 59.5244 37.8459 59.5454C38.343 59.5501 38.5437 59.3961 38.679 58.906C39.3908 56.2969 40.1376 53.6972 40.8914 51.0997C41.1481 50.2176 41.5542 49.3635 40.5623 48.6307C40.336 48.465 40.266 48.0753 40.1516 47.7765C39.8249 46.9411 39.5192 46.1009 39.1715 45.1674ZM33.7876 75.3493C33.8599 75.3563 33.9323 75.3633 34.007 75.3727C35.2275 71.0576 36.448 66.7449 37.6825 62.3832C35.1295 62.3832 32.6697 62.3832 30.1213 62.3832C31.3559 66.7473 32.5717 71.0483 33.7876 75.3493ZM38.9614 68.1615C39.0081 68.1848 39.0548 68.2105 39.1014 68.2338C39.2788 67.9865 39.4585 67.7438 39.6289 67.4917C41.1551 65.2537 42.7 63.0297 44.1913 60.7706C44.7047 59.9935 45.3324 59.6971 46.2473 59.7928C46.959 59.8675 47.6848 59.8068 48.5226 59.8068C46.8867 57.1557 45.2788 54.549 43.5868 51.8045C42.0116 57.3774 40.4853 62.7683 38.9614 68.1615ZM28.7001 68.2385C28.7491 68.2128 28.7981 68.1895 28.8471 68.1638C27.3209 62.7706 25.7946 57.3798 24.217 51.8069C22.5041 54.5863 20.9078 57.1744 19.2789 59.8185C20.0887 59.8185 20.7865 59.8932 21.4633 59.8021C22.4994 59.6621 23.1552 60.0542 23.713 60.9107C25.0992 63.0297 26.5508 65.1043 27.979 67.1977C28.2147 67.5454 28.4574 67.8908 28.7001 68.2385Z" fill="url(#paint0_linear_148_5313)"/>
<defs>
<linearGradient id="paint0_linear_148_5313" x1="61.4252" y1="77.9709" x2="-6.57564" y2="72.4616" gradientUnits="userSpaceOnUse">
<stop stop-color="#BBD2C5"/>
<stop offset="0.993949" stop-color="#1FB9B3"/>
</linearGradient>
</defs>
</svg>
