<svg width="112" height="112" viewBox="0 0 112 112" fill="none" xmlns="http://www.w3.org/2000/svg">
<path d="M53.1536 111.994C51.0508 111.221 49.4583 109.947 49.0821 107.605C48.9509 106.794 49.0617 105.942 49.0617 105.05C47.2389 104.895 45.8039 104.23 44.7511 102.833C43.6866 101.419 43.7011 99.7769 43.7478 98.0825C42.7212 97.8404 41.9687 97.3358 42.0096 96.1809C42.0475 95.1368 42.7095 94.638 43.7011 94.4368C43.7011 93.346 43.7011 92.2611 43.7011 91.1703C41.7471 90.237 41.7412 89.8404 42.7124 87.6938C43.0041 87.0522 42.4558 86.0285 42.2662 85.0573C40.3792 86.0606 38.7606 86.9618 37.1098 87.7901C33.8783 89.4117 30.5564 90.8291 26.937 91.2899C25.5458 91.4678 24.0788 91.4882 22.7051 91.2432C19.3045 90.6366 17.2629 88.1488 17.05 84.6956C16.8459 81.4117 17.6596 78.3114 18.937 75.357C20.1182 72.6242 21.5181 69.9818 22.8831 67.3307C23.478 66.1729 24.4638 65.8841 25.4058 66.4295C26.3654 66.9866 26.552 67.9082 25.8929 69.0748C23.8105 72.7613 21.8506 76.5032 20.9232 80.6738C20.6578 81.8695 20.5498 83.1266 20.5732 84.3544C20.6111 86.6176 21.8798 87.933 24.1284 87.9097C25.7121 87.8922 27.3307 87.6851 28.8648 87.2943C32.8459 86.2793 36.4274 84.3311 40.0497 82.2341C38.2502 80.0234 36.4886 77.9031 34.7737 75.7507C30.3377 70.1831 27.7274 63.9271 28.0599 56.7117C28.1736 54.2589 28.7219 51.8149 29.1827 49.3912C29.314 48.7088 29.2644 48.2538 28.8386 47.7084C24.1809 41.7558 19.8995 35.564 16.7584 28.6519C15.4868 25.8579 14.4018 22.988 14.1277 19.9082C14.0081 18.5491 14.0373 17.1171 14.326 15.7901C15.0318 12.5352 17.7004 10.5899 21.3286 10.5141C24.9859 10.4383 28.3544 11.6136 31.6443 13.0398C37.5969 15.6209 42.9603 19.1878 48.1663 23.0084C49.1054 23.6997 49.2659 24.6329 48.6796 25.4787C48.0438 26.3974 47.0726 26.5287 46.011 25.7558C41.7383 22.638 37.3461 19.7128 32.6009 17.3533C29.629 15.8717 26.5812 14.5972 23.2535 14.1102C18.9137 13.4744 16.9334 15.4372 17.6071 19.7536C18.2808 24.073 20.0132 28.019 22.2589 31.688C24.878 35.9694 27.7974 40.0671 30.5856 44.2436C30.6672 44.3661 30.7431 44.4886 30.8743 44.6956C36.3457 34.6541 44.8298 29.7981 55.9738 29.7893C67.1383 29.7806 75.6341 34.622 81.1259 44.6898C82.587 42.6599 84.0424 40.7117 85.419 38.7051C88.5601 34.132 91.4649 29.4102 93.2352 24.1196C93.8856 22.1772 94.3085 20.0978 94.4368 18.0562C94.606 15.3643 93.1419 14.0343 90.4237 14.0168C87.4839 13.9993 84.7657 14.9589 82.1146 16.1021C76.6986 18.4353 71.7726 21.6056 67.0041 25.0354C66.59 25.3329 66.1875 25.6508 65.7558 25.922C64.84 26.4937 63.933 26.3333 63.3439 25.5225C62.7576 24.7175 62.8714 23.7726 63.7143 23.1134C64.6009 22.4164 65.5283 21.766 66.4558 21.1215C71.9155 17.3358 77.5036 13.7573 83.8907 11.7303C85.9469 11.077 88.1488 10.6308 90.2983 10.5608C95.093 10.4091 97.9833 13.4102 97.9862 18.2312C97.9892 21.5385 96.9742 24.6184 95.6909 27.6107C92.5615 34.8991 88.1051 41.3737 83.2491 47.5888C82.7358 48.245 82.66 48.7788 82.8758 49.5662C85.5181 59.2899 83.4182 68.0074 77.1886 75.812C75.4882 77.941 73.7471 80.0351 71.9534 82.2341C76.3544 84.7627 80.735 87.1514 85.766 87.8834C90.2575 88.5338 92.1211 86.501 91.3512 81.9891C90.6016 77.6114 88.6592 73.7062 86.5477 69.8681C86.3027 69.4219 86.011 68.9931 85.8273 68.5207C85.4948 67.6778 85.8506 66.7882 86.6614 66.3974C87.4751 66.0037 88.3267 66.0504 88.7992 66.8524C91.7157 71.7959 94.4106 76.8531 94.9268 82.7066C95.478 88.9654 91.6224 92.2611 85.1973 91.3424C80.1692 90.622 75.7186 88.3559 71.3468 85.9177C70.9093 85.6727 70.4718 85.4219 69.9352 85.1156C69.5065 86.2618 68.6286 87.1339 69.734 88.42C70.5535 89.3737 69.8273 90.552 68.2932 91.0828C68.2932 92.159 68.2932 93.2469 68.2932 94.4047C69.2469 94.6555 70.0227 95.1339 69.9964 96.2888C69.9731 97.3883 69.2323 97.852 68.3078 98.0737C68.0045 102.906 66.8087 104.505 63.0056 105.056C63.0056 105.531 63.0085 106.027 63.0056 106.523C62.9822 109.127 61.6931 110.912 59.2112 111.79C59.0828 111.837 58.9691 111.927 58.8495 111.997C56.945 111.994 55.0493 111.994 53.1536 111.994ZM55.9155 70.638C56.0701 70.571 56.1488 70.5593 56.2013 70.5156C64.2013 63.7872 71.5393 56.4055 78.1598 48.3121C78.3814 48.0409 78.4222 47.4197 78.2735 47.0784C76.6986 43.4678 74.3479 40.4346 71.1718 38.0927C65.0238 33.5575 58.0854 32.3705 50.727 33.7704C42.8758 35.2636 37.1623 39.7084 33.7646 46.9968C33.5954 47.3584 33.6217 48.038 33.855 48.3267C40.493 56.4492 47.863 63.8513 55.9155 70.638ZM68.824 80.4113C70.3872 78.5535 71.8426 76.8386 73.2804 75.1061C77.0194 70.606 79.9009 65.7062 80.4026 59.704C80.6184 57.1171 80.4696 54.5622 79.8193 51.8382C73.3154 59.5232 66.3479 66.4849 58.6629 73.0208C62.0985 75.5203 65.4408 77.9498 68.824 80.4113ZM32.2159 51.8819C32.0992 52.2203 32.0176 52.3836 31.9855 52.5557C31.2972 56.2188 31.3176 59.8615 32.2509 63.4897C34.0008 70.2939 38.8014 75.1091 43.1762 80.4084C46.5652 77.941 49.8987 75.5115 53.3227 73.0179C45.6494 66.4908 38.7022 59.5524 32.2159 51.8819ZM56.0001 75.3686C52.3749 78.0198 48.77 80.6563 45.2148 83.2578C45.6902 84.6432 46.1685 86.0372 46.6468 87.4343C52.9027 87.4343 59.1878 87.4343 65.3504 87.4343C65.855 85.9789 66.3275 84.6169 66.7941 83.2695C63.236 80.665 59.6282 78.0256 56.0001 75.3686ZM47.3089 91.0449C47.3089 92.2494 47.3089 93.3285 47.3089 94.4281C53.1361 94.4281 58.9049 94.4281 64.6651 94.4281C64.6651 93.2527 64.6651 92.1503 64.6651 91.0449C58.8437 91.0449 53.104 91.0449 47.3089 91.0449ZM47.2476 98.0387C47.2476 98.5549 47.2418 98.9866 47.2476 99.4153C47.271 100.847 47.8834 101.486 49.3125 101.489C53.7894 101.501 58.2662 101.504 62.7431 101.486C64.0963 101.48 64.7146 100.827 64.7438 99.4561C64.7525 98.9953 64.7467 98.5374 64.7467 98.0358C58.8816 98.0387 53.1448 98.0387 47.2476 98.0387ZM52.4973 105.038C52.4973 105.557 52.4915 105.986 52.4973 106.418C52.5207 107.847 53.1361 108.471 54.5593 108.491C55.5393 108.506 56.5221 108.509 57.5021 108.491C58.8087 108.465 59.4503 107.838 59.4941 106.567C59.5116 106.071 59.497 105.575 59.497 105.038C57.1317 105.038 54.8918 105.038 52.4973 105.038Z" fill="url(#paint0_linear_343_17263)"/>
<path d="M0 97.3387C0.580386 96.9363 1.11411 96.4346 1.74699 96.1459C6.10135 94.151 8.72038 90.6803 10.2661 86.2735C10.3274 86.1014 10.3886 85.9293 10.4295 85.7543C10.6511 84.7802 11.1411 84.0336 12.2319 84.0249C13.3197 84.0161 13.7776 84.754 14.0693 85.7164C15.1455 89.2542 16.9887 92.3019 20.0219 94.501C20.9843 95.198 22.0809 95.723 23.1542 96.2451C23.9417 96.6271 24.5104 97.0996 24.4929 98.0329C24.4754 98.9166 23.9388 99.4066 23.1717 99.7186C18.482 101.635 15.7696 105.28 14.1655 109.932C13.9089 110.676 13.3343 111.309 12.9056 111.991C12.4681 111.991 12.0306 111.991 11.5931 111.991C11.1819 111.338 10.6278 110.731 10.3857 110.023C8.76704 105.286 6.00219 101.606 1.22494 99.6603C0.755377 99.4707 0.405396 98.9924 0 98.6512C0 98.2137 0 97.7762 0 97.3387ZM5.62304 97.995C8.63872 99.8528 10.6161 102.411 12.2756 105.505C13.8826 102.361 15.9883 99.879 18.9107 97.9687C15.8483 96.1401 13.8505 93.5648 12.2319 90.4616C10.6424 93.6348 8.56872 96.0788 5.62304 97.995Z" fill="url(#paint1_linear_343_17263)"/>
<path d="M99.0886 111.994C98.6628 111.309 98.0941 110.67 97.8374 109.926C96.21 105.237 93.4597 101.582 88.7146 99.6835C87.9767 99.3889 87.5159 98.8668 87.5013 98.0386C87.4867 97.1549 87.9767 96.6211 88.7525 96.3091C93.4218 94.4396 96.1429 90.8289 97.7587 86.2325C97.8549 85.9584 97.9249 85.6755 98.0124 85.3984C98.2807 84.5438 98.8378 84.0101 99.7565 84.0247C100.675 84.0364 101.206 84.6022 101.471 85.448C101.623 85.9321 101.76 86.425 101.944 86.9004C103.606 91.1847 106.298 94.5067 110.664 96.2974C111.166 96.5045 111.554 96.9886 111.994 97.3444C111.994 97.7819 111.994 98.2194 111.994 98.6569C111.586 98.9952 111.23 99.4647 110.76 99.6572C105.945 101.626 103.189 105.359 101.579 110.139C101.352 110.816 100.801 111.385 100.401 112C99.9636 111.994 99.5261 111.994 99.0886 111.994ZM93.0981 98.0036C96.1458 99.8351 98.0882 102.448 99.7711 105.484C101.396 102.32 103.49 99.8643 106.403 97.9802C103.332 96.137 101.337 93.5588 99.704 90.4644C98.1349 93.6463 96.0438 96.0728 93.0981 98.0036Z" fill="url(#paint2_linear_343_17263)"/>
<path d="M111.994 47.0287C111.417 47.437 110.883 47.9358 110.253 48.2333C107.611 49.4786 105.98 51.5756 105.07 54.2734C104.752 55.2183 104.332 55.9737 103.233 55.9737C102.13 55.9737 101.725 55.2008 101.404 54.2617C100.427 51.4093 98.686 49.219 95.7957 48.0845C95.0141 47.7783 94.5066 47.2475 94.5095 46.3725C94.5095 45.4946 95.0258 44.9726 95.8045 44.6664C98.6889 43.526 100.427 41.3328 101.395 38.4775C101.713 37.5384 102.13 36.7684 103.23 36.7684C104.327 36.7684 104.747 37.5326 105.064 38.4746C106.05 41.3707 107.832 43.5552 110.755 44.7218C111.224 44.9084 111.58 45.378 111.988 45.7163C111.994 46.1538 111.994 46.5913 111.994 47.0287ZM100.147 46.3754C101.183 47.4954 102.23 48.627 103.25 49.7323C104.271 48.6182 105.309 47.4866 106.327 46.3784C105.283 45.238 104.245 44.1064 103.247 43.0156C102.224 44.1181 101.2 45.2322 100.147 46.3754Z" fill="url(#paint3_linear_343_17263)"/>
<path d="M0 45.7163C0.545388 45.3255 1.04703 44.8413 1.64491 44.5613C4.1327 43.4035 5.7397 41.4757 6.73715 38.9733C6.85673 38.67 6.92964 38.3462 7.04338 38.04C7.33795 37.2467 7.88626 36.7567 8.75538 36.7655C9.62741 36.7742 10.1349 37.2963 10.4499 38.0779C10.8174 38.985 11.144 39.9241 11.6311 40.767C12.6606 42.5519 14.1393 43.8789 16.0846 44.6255C16.907 44.9405 17.4758 45.448 17.4758 46.3725C17.4758 47.297 16.9012 47.7958 16.0846 48.1224C13.2497 49.2598 11.5377 51.4385 10.5782 54.2529C10.2574 55.192 9.85782 55.962 8.75829 55.9737C7.65585 55.9853 7.23296 55.227 6.91214 54.285C5.92927 51.3918 4.14728 49.2044 1.23077 48.032C0.76121 47.8424 0.408312 47.3699 0 47.0287C0 46.5912 0 46.1538 0 45.7163ZM8.74954 43.0185C7.68502 44.1676 6.63799 45.2992 5.64346 46.3754C6.70215 47.5216 7.74626 48.6532 8.74371 49.7323C9.78782 48.5949 10.829 47.4604 11.8236 46.3725C10.7794 45.2292 9.75574 44.1151 8.74954 43.0185Z" fill="url(#paint4_linear_343_17263)"/>
<path d="M8.53081 0C8.93912 0.615385 9.47576 1.18119 9.73241 1.8549C10.6307 4.20561 12.0481 6.0401 14.4309 7.02005C15.2009 7.33503 15.7258 7.83959 15.7375 8.72038C15.7492 9.59825 15.2475 10.1349 14.4747 10.447C12.0394 11.4298 10.5899 13.2964 9.74116 15.7054C9.66825 15.9125 9.60408 16.1196 9.52534 16.3237C9.22494 17.0791 8.65913 17.4962 7.84834 17.4845C7.03463 17.4728 6.53591 17.012 6.19176 16.28C5.64054 15.1046 5.17973 13.833 4.38935 12.8327C3.67189 11.9256 2.56945 11.319 1.62742 10.5957C1.09661 10.1874 0.542472 9.80241 0 9.40868C0 8.9712 0 8.53372 0 8.09625C0.440394 7.74043 0.82829 7.26212 1.32701 7.0463C3.65148 6.03719 5.0689 4.26686 5.97302 1.9599C6.25301 1.24827 6.79548 0.647466 7.21837 0C7.65585 0 8.09333 0 8.53081 0ZM5.4568 8.75246C6.30259 9.66533 7.10463 10.5286 7.88334 11.3686C8.71163 10.4645 9.49034 9.61283 10.2836 8.74663C9.47284 7.86584 8.67663 6.99672 7.87459 6.12468C7.06672 7.00255 6.28509 7.85126 5.4568 8.75246Z" fill="url(#paint5_linear_343_17263)"/>
<path d="M111.994 9.40576C111.554 9.76157 111.16 10.2311 110.661 10.4499C108.334 11.459 106.876 13.2206 106.053 15.5567C105.715 16.5162 105.388 17.467 104.149 17.4845C102.909 17.502 102.545 16.5804 102.2 15.6092C101.97 14.9617 101.678 14.3288 101.331 13.7368C100.48 12.2844 99.2955 11.1732 97.7206 10.5315C96.8807 10.1874 96.2478 9.70908 96.2594 8.71746C96.2711 7.78126 96.8661 7.31753 97.6681 6.97922C99.9605 6.01385 101.334 4.22311 102.224 1.95406C102.501 1.24827 103.046 0.647466 103.466 0C103.904 0 104.341 0 104.779 0C105.199 0.650383 105.744 1.25118 106.018 1.95698C106.919 4.26686 108.343 6.03427 110.667 7.04338C111.169 7.26212 111.557 7.73751 111.997 8.09333C111.994 8.53081 111.994 8.96828 111.994 9.40576ZM106.528 8.74954C105.712 7.86292 104.913 6.9938 104.111 6.12468C103.282 7.03463 102.486 7.90667 101.705 8.76413C102.55 9.67408 103.349 10.5374 104.128 11.3715C104.962 10.4586 105.741 9.607 106.528 8.74954Z" fill="url(#paint6_linear_343_17263)"/>
<path d="M34.3508 34.479C34.0387 34.8582 33.7296 35.5261 33.2192 35.7652C32.7584 35.9781 31.9038 35.9344 31.5276 35.6311C30.4572 34.7678 29.4919 33.7557 28.5761 32.7204C27.9899 32.0583 28.1299 31.2825 28.7102 30.6351C29.2411 30.043 30.0081 29.6405 30.6439 30.1772C31.8834 31.2242 32.98 32.4433 34.1116 33.6128C34.24 33.747 34.2283 34.0211 34.3508 34.479Z" fill="url(#paint7_linear_343_17263)"/>
<path d="M79.2648 36.1152C78.8769 35.7915 78.2149 35.4794 77.9787 34.969C77.7657 34.5082 77.8095 33.6624 78.1099 33.2833C78.9674 32.2158 79.9765 31.2621 81.0002 30.3463C81.6505 29.7659 82.4205 29.8534 83.0738 30.4309C83.6979 30.9821 84.115 31.7637 83.5492 32.4433C82.5372 33.6566 81.3501 34.724 80.2098 35.8265C80.0523 35.981 79.7402 35.9781 79.2648 36.1152Z" fill="url(#paint8_linear_343_17263)"/>
<path d="M57.7439 22.7546C57.7439 23.3379 57.7701 23.9212 57.7381 24.5045C57.6797 25.5749 57.0148 26.2311 56.0202 26.2427C55.0228 26.2544 54.3053 25.604 54.2645 24.5512C54.2178 23.3496 54.2178 22.145 54.2645 20.9463C54.3053 19.8964 55.0345 19.2431 56.029 19.2606C57.0206 19.2781 57.6797 19.9372 57.7381 21.0105C57.7672 21.588 57.7439 22.1713 57.7439 22.7546Z" fill="url(#paint9_linear_343_17263)"/>
<path d="M21.0455 59.4853C20.3893 59.4853 19.7301 59.529 19.0797 59.4736C18.1027 59.3919 17.4698 58.6686 17.5107 57.7149C17.5544 56.7466 18.0677 56.0933 19.0389 56.035C20.3455 55.9563 21.6638 55.9563 22.9704 56.0379C23.9416 56.0992 24.449 56.7641 24.487 57.7295C24.5249 58.6832 23.8862 59.3948 22.9033 59.4765C22.2879 59.5261 21.6667 59.4853 21.0455 59.4853Z" fill="url(#paint10_linear_343_17263)"/>
<path d="M90.9864 59.4882C90.3681 59.4882 89.7439 59.5261 89.1286 59.4794C88.1311 59.4065 87.5128 58.727 87.5011 57.7704C87.4895 56.8137 88.1019 56.0729 89.0877 56.0263C90.3593 55.965 91.6397 55.965 92.9113 56.0263C93.8912 56.0729 94.5066 56.8283 94.4891 57.782C94.4716 58.7357 93.8446 59.4094 92.8471 59.4823C92.2259 59.5232 91.6047 59.4882 90.9864 59.4882Z" fill="url(#paint11_linear_343_17263)"/>
<path d="M26.8463 82.3157C26.5197 82.0444 25.8401 81.7382 25.6302 81.2337C25.4202 80.732 25.4435 79.7958 25.7789 79.4633C26.8026 78.4455 27.9838 77.5705 29.1796 76.7451C29.8649 76.2727 30.5911 76.5381 31.1394 77.1418C31.679 77.7368 31.9677 78.5709 31.3903 79.1192C30.2149 80.2391 28.8646 81.1753 27.5784 82.1728C27.4734 82.2515 27.2955 82.2311 26.8463 82.3157Z" fill="url(#paint12_linear_343_17263)"/>
<path d="M81.9249 76.334C82.5461 76.6315 82.9369 76.751 83.2461 76.9785C84.1531 77.6464 85.0485 78.3376 85.9118 79.0609C86.778 79.79 86.8742 80.7612 86.2238 81.5604C85.5822 82.3478 84.7043 82.4732 83.806 81.8199C82.8348 81.1142 81.8257 80.4229 81.0091 79.5596C80.6212 79.1484 80.3908 78.2676 80.5541 77.7485C80.7349 77.1827 81.4553 76.789 81.9249 76.334Z" fill="url(#paint13_linear_343_17263)"/>
<path d="M57.7586 38.4718C57.7732 39.4897 57.152 40.2159 56.0875 40.2334C52.3748 40.2917 49.0033 41.365 45.9205 43.4269C44.9726 44.0598 44.0248 43.7915 43.4648 42.8874C42.9369 42.0329 43.109 41.1404 44.0189 40.5104C47.6267 38.0139 51.6398 36.7685 56.0262 36.7656C57.0966 36.7656 57.7441 37.4627 57.7586 38.4718Z" fill="url(#paint14_linear_343_17263)"/>
<path d="M41.9892 47.2417C41.995 48.1896 41.2046 48.9858 40.2568 48.9916C39.306 48.9975 38.5127 48.2129 38.5069 47.2592C38.501 46.3084 39.2856 45.5151 40.2393 45.5093C41.1842 45.5035 41.9834 46.2939 41.9892 47.2417Z" fill="url(#paint15_linear_343_17263)"/>
<defs>
<linearGradient id="paint0_linear_343_17263" x1="90.7618" y1="111.962" x2="4.88285" y2="105.283" gradientUnits="userSpaceOnUse">
<stop stop-color="#BBD2C5"/>
<stop offset="0.993949" stop-color="#1FB9B3"/>
</linearGradient>
<linearGradient id="paint1_linear_343_17263" x1="22.3848" y1="111.982" x2="-2.66047" y2="109.919" gradientUnits="userSpaceOnUse">
<stop stop-color="#BBD2C5"/>
<stop offset="0.993949" stop-color="#1FB9B3"/>
</linearGradient>
<linearGradient id="paint2_linear_343_17263" x1="109.886" y1="111.99" x2="84.8404" y2="109.928" gradientUnits="userSpaceOnUse">
<stop stop-color="#BBD2C5"/>
<stop offset="0.993949" stop-color="#1FB9B3"/>
</linearGradient>
<linearGradient id="paint3_linear_343_17263" x1="110.489" y1="55.9671" x2="92.6201" y2="54.4372" gradientUnits="userSpaceOnUse">
<stop stop-color="#BBD2C5"/>
<stop offset="0.993949" stop-color="#1FB9B3"/>
</linearGradient>
<linearGradient id="paint4_linear_343_17263" x1="15.9714" y1="55.9672" x2="-1.8887" y2="54.439" gradientUnits="userSpaceOnUse">
<stop stop-color="#BBD2C5"/>
<stop offset="0.993949" stop-color="#1FB9B3"/>
</linearGradient>
<linearGradient id="paint5_linear_343_17263" x1="14.383" y1="17.4787" x2="-1.70334" y2="16.117" gradientUnits="userSpaceOnUse">
<stop stop-color="#BBD2C5"/>
<stop offset="0.993949" stop-color="#1FB9B3"/>
</linearGradient>
<linearGradient id="paint6_linear_343_17263" x1="110.642" y1="17.4787" x2="94.5559" y2="16.1171" gradientUnits="userSpaceOnUse">
<stop stop-color="#BBD2C5"/>
<stop offset="0.993949" stop-color="#1FB9B3"/>
</linearGradient>
<linearGradient id="paint7_linear_343_17263" x1="33.8213" y1="35.8954" x2="27.5478" y2="35.2877" gradientUnits="userSpaceOnUse">
<stop stop-color="#BBD2C5"/>
<stop offset="0.993949" stop-color="#1FB9B3"/>
</linearGradient>
<linearGradient id="paint8_linear_343_17263" x1="83.3022" y1="36.1131" x2="77.2069" y2="35.5578" gradientUnits="userSpaceOnUse">
<stop stop-color="#BBD2C5"/>
<stop offset="0.993949" stop-color="#1FB9B3"/>
</linearGradient>
<linearGradient id="paint9_linear_343_17263" x1="57.4506" y1="26.2405" x2="53.8304" y2="26.0686" gradientUnits="userSpaceOnUse">
<stop stop-color="#BBD2C5"/>
<stop offset="0.993949" stop-color="#1FB9B3"/>
</linearGradient>
<linearGradient id="paint10_linear_343_17263" x1="23.8877" y1="59.5004" x2="16.943" y2="58.2073" gradientUnits="userSpaceOnUse">
<stop stop-color="#BBD2C5"/>
<stop offset="0.993949" stop-color="#1FB9B3"/>
</linearGradient>
<linearGradient id="paint11_linear_343_17263" x1="93.8879" y1="59.5015" x2="86.9355" y2="58.2042" gradientUnits="userSpaceOnUse">
<stop stop-color="#BBD2C5"/>
<stop offset="0.993949" stop-color="#1FB9B3"/>
</linearGradient>
<linearGradient id="paint12_linear_343_17263" x1="31.1724" y1="82.3137" x2="24.841" y2="81.6773" gradientUnits="userSpaceOnUse">
<stop stop-color="#BBD2C5"/>
<stop offset="0.993949" stop-color="#1FB9B3"/>
</linearGradient>
<linearGradient id="paint13_linear_343_17263" x1="86.1178" y1="82.238" x2="79.8508" y2="81.6247" gradientUnits="userSpaceOnUse">
<stop stop-color="#BBD2C5"/>
<stop offset="0.993949" stop-color="#1FB9B3"/>
</linearGradient>
<linearGradient id="paint14_linear_343_17263" x1="56.5029" y1="43.7704" x2="42.0369" y2="40.9375" gradientUnits="userSpaceOnUse">
<stop stop-color="#BBD2C5"/>
<stop offset="0.993949" stop-color="#1FB9B3"/>
</linearGradient>
<linearGradient id="paint15_linear_343_17263" x1="41.6894" y1="48.9905" x2="38.1359" y2="48.6563" gradientUnits="userSpaceOnUse">
<stop stop-color="#BBD2C5"/>
<stop offset="0.993949" stop-color="#1FB9B3"/>
</linearGradient>
</defs>
</svg>
