<svg width="112" height="112" viewBox="0 0 112 112" fill="none" xmlns="http://www.w3.org/2000/svg">
<path d="M100.728 41.1074C99.5024 41.1074 98.3517 41.1074 97.0578 41.1074C97.0578 41.5616 97.0578 41.9754 97.0578 42.3891C97.0578 49.7776 97.0578 57.166 97.0578 64.5545C97.0578 66.6264 96.4949 67.1957 94.4453 67.1957C66.3386 67.1957 38.2288 67.1957 10.1221 67.1957C8.0538 67.1957 7.48774 66.6357 7.48774 64.5763C7.48774 47.6622 7.48774 30.7449 7.48774 13.8308C7.48774 11.7558 8.03825 11.2021 10.1034 11.2021C23.6327 11.2021 37.162 11.2021 50.6913 11.2021C51.1578 11.2021 51.6212 11.2021 52.1841 11.2021C52.1841 9.98882 52.1841 8.80978 52.1841 7.46897C51.8016 7.46897 51.3911 7.46897 50.9805 7.46897C36.1294 7.46897 21.2783 7.46897 6.42717 7.46897C4.26249 7.46897 3.75864 7.97605 3.75864 10.1444C3.75864 15.9369 3.75553 21.7326 3.76175 27.5251C3.76175 28.3775 3.67777 29.1646 2.83491 29.6343C1.46643 30.3965 0.0388612 29.4601 0.0326408 27.7522C0.0139797 23.7858 0.0264203 19.8194 0.0264203 15.8529C0.0264203 13.8308 0.0233101 11.8087 0.0264203 9.78661C0.0357508 6.07216 2.35906 3.73585 6.06328 3.73585C21.1072 3.73274 36.1543 3.72652 51.1982 3.75452C52.1313 3.75763 52.7067 3.58031 53.2043 2.68436C54.1809 0.926685 55.82 0.0214047 57.8229 0.0182938C74.0332 -0.00348274 90.2465 -0.00970453 106.457 0.0214048C109.573 0.0276266 111.974 2.50081 111.98 5.63041C112.005 15.5449 112.002 25.4626 111.98 35.3771C111.974 38.6218 109.53 41.0141 106.276 41.0608C105.738 41.0701 105.2 41.0608 104.522 41.0608C104.522 41.5554 104.522 41.9692 104.522 42.3798C104.522 51.0531 104.525 59.7232 104.522 68.3934C104.522 72.4096 102.264 74.6557 98.221 74.6557C67.5858 74.6588 36.9505 74.6588 6.3152 74.6557C2.27819 74.6557 0.0233101 72.4065 0.0233101 68.384C0.0201999 60.6845 0.0264204 52.985 0.0170898 45.2854C0.0170898 44.3366 0.132166 43.4873 1.12742 43.0611C2.39638 42.5167 3.6871 43.338 3.73998 44.7721C3.78974 46.1689 3.75553 47.5719 3.75553 48.9719C3.75553 55.4644 3.75242 61.96 3.75864 68.4525C3.75864 70.3159 4.34646 70.9226 6.17214 70.9226C36.9225 70.9257 67.6759 70.9257 98.4263 70.9226C100.1 70.9226 100.784 70.3066 100.787 68.7511C100.796 59.6921 100.79 50.63 100.787 41.571C100.784 41.4621 100.756 41.347 100.728 41.1074ZM93.2665 41.123C93.0395 41.0981 92.8902 41.0701 92.7409 41.0701C87.183 41.067 81.622 41.0514 76.0641 41.0919C75.5851 41.095 75.0253 41.375 74.6459 41.6954C70.8452 44.909 67.0726 48.1506 63.303 51.3984C62.5628 52.0361 61.8257 52.565 60.7962 52.0672C59.829 51.6006 59.7077 50.7575 59.7232 49.8118C59.7481 48.0635 59.7294 46.312 59.7294 44.5637C59.7294 43.4126 59.7294 42.2647 59.7294 41.067C59.2878 41.067 59.0172 41.0421 58.7497 41.0701C55.1761 41.4465 52.1095 38.768 52.2277 34.5092C52.3987 28.4086 52.2712 22.3019 52.2712 16.1951C52.2712 15.7876 52.2712 15.3801 52.2712 14.9974C38.4931 14.9974 24.9016 14.9974 11.2915 14.9974C11.2915 31.1742 11.2915 47.2826 11.2915 63.3755C12.5542 63.3755 13.733 63.3755 14.9242 63.3755C15.089 59.941 16.3704 57.1194 18.9301 54.92C21.5209 52.6925 24.6248 52.089 28.0087 52.2819C28.0087 50.8882 28.0678 49.6469 27.9807 48.415C27.9434 47.8955 27.7132 47.2951 27.368 46.9093C25.8503 45.2139 24.7866 43.31 24.4755 41.0452C24.3138 39.8568 24.2827 38.6529 24.1894 37.4396C22.6405 36.7832 22.4166 36.4566 22.4166 34.758C22.4166 33.0097 22.3855 31.2582 22.4322 29.5099C22.5783 24.2306 26.463 19.6825 31.6756 18.8985C33.6568 18.5999 35.7033 18.6528 37.7187 18.6932C42.9718 18.8021 47.5469 22.7405 48.2995 27.9544C48.6137 30.129 48.4333 32.3719 48.5483 34.5838C48.623 36.0273 48.2684 37.1254 46.7009 37.4117C46.6885 37.6667 46.6698 37.8192 46.676 37.9747C46.8409 41.5243 45.858 44.6477 43.2828 47.1924C43.1086 47.3635 42.9625 47.6528 42.9562 47.8924C42.9251 49.3203 42.9407 50.7482 42.9407 52.2974C46.3806 52.0735 49.4659 52.733 52.0566 54.9635C54.6381 57.1847 55.8635 60.0685 56.0501 63.4097C68.5095 63.4097 80.8569 63.4097 93.2634 63.4097C93.2665 55.9808 93.2665 48.6079 93.2665 41.123ZM63.4648 46.2778C63.978 45.8672 64.3107 45.6152 64.6249 45.3476C67.3401 43.0207 70.077 40.7186 72.7549 38.3449C73.6008 37.5952 74.481 37.3121 75.6007 37.3152C85.631 37.3463 95.6614 37.3339 105.692 37.3339C107.695 37.3339 108.261 36.7739 108.261 34.7829C108.264 25.2946 108.264 15.8063 108.261 6.31792C108.261 4.29582 107.71 3.72963 105.732 3.72963C89.9884 3.72652 74.2415 3.72652 58.4978 3.72963C56.5788 3.72963 56.0128 4.30515 56.0128 6.24326C56.0097 11.9207 56.0128 17.5981 56.0128 23.2756C56.0128 27.2016 56.0066 31.1307 56.0159 35.0567C56.019 36.6806 56.6628 37.3152 58.2739 37.3308C59.2443 37.3401 60.2177 37.3245 61.1881 37.3339C62.7899 37.3525 63.4554 38.0058 63.4648 39.6049C63.4741 41.7421 63.4648 43.8824 63.4648 46.2778ZM52.2059 63.4003C52.2992 60.0405 49.9355 56.9607 46.6294 56.2483C45.5066 56.0057 44.3154 55.9995 43.1615 56.0306C42.723 56.043 42.1569 56.351 41.8895 56.7087C39.1121 60.3983 32.7766 60.8805 29.7597 57.3963C28.7209 56.1985 27.7226 55.8408 26.3199 55.9932C26.0897 56.0181 25.8534 55.9963 25.6201 56.0088C21.7106 56.2297 18.3858 59.829 18.8181 63.4003C29.9464 63.4003 41.0777 63.4003 52.2059 63.4003ZM26.2017 33.467C31.0754 34.1483 35.3923 32.8604 39.4666 30.5241C41.1586 29.5534 41.6002 29.6126 42.9998 31.0249C43.5316 31.56 44.0261 32.1293 44.5393 32.683C44.7788 31.3982 44.8566 30.2814 44.7664 29.1739C44.4989 25.8919 42.1818 23.1107 38.9348 22.6472C36.6986 22.3299 34.3504 22.3237 32.111 22.6254C28.9107 23.0578 26.6029 25.6275 26.2297 28.8442C26.0555 30.3654 26.2017 31.9271 26.2017 33.467ZM28.0118 37.309C28.0118 38.0338 28.0056 38.6094 28.0118 39.1818C28.0678 43.1855 30.9945 46.3587 34.8915 46.6449C38.8415 46.9342 42.244 44.3086 42.8287 40.3421C43.1802 37.9685 43.429 35.4984 40.6112 34.1918C36.7608 36.2793 32.6709 37.589 28.0118 37.309ZM39.2924 49.7465C36.6923 50.5895 34.2571 50.5958 31.6601 49.7278C32.0768 51.8059 30.8141 54.0893 33.1561 55.4053C34.7174 56.2825 36.3782 56.2763 37.9209 55.3213C40.1384 53.9493 38.8477 51.7375 39.2924 49.7465Z" fill="url(#paint0_linear_343_17228)"/>
<path d="M9.37575 95.1628C7.22972 92.363 7.11465 89.0934 7.72424 85.7802C8.5671 81.2072 12.9525 78.0278 17.6395 78.4229C22.2301 78.8087 25.9188 82.6818 26.1427 87.2922C26.2796 90.1355 26.0494 92.8763 24.146 95.3121C26.8145 95.8534 28.9761 96.9827 30.6929 98.8897C32.5342 100.93 33.5045 103.332 33.5947 106.076C33.6383 107.358 33.6289 108.639 33.6041 109.921C33.5761 111.29 32.8763 111.99 31.4922 111.993C21.7045 112.002 11.9168 112.002 2.12903 111.993C0.94094 111.993 0.0700894 111.399 0.07942 110.372C0.101191 108.092 -0.0232159 105.74 0.483743 103.55C1.42924 99.4528 4.20352 96.8552 8.23431 95.6326C8.5671 95.533 8.90611 95.449 9.2389 95.3526C9.26378 95.3401 9.27933 95.2935 9.37575 95.1628ZM29.8781 108.216C29.8781 107.796 29.8781 107.488 29.8781 107.183C29.9061 101.951 26.8985 98.9301 21.6579 98.9301C18.2771 98.9301 14.8932 98.9239 11.5124 98.9333C6.35576 98.9488 2.94701 103.083 3.8925 108.219C12.5015 108.216 21.1136 108.216 29.8781 108.216ZM22.4105 88.6267C22.4105 88.3561 22.4136 88.0823 22.4105 87.8117C22.3514 84.511 19.9535 82.1031 16.7562 82.128C13.6243 82.1529 11.2574 84.5763 11.217 87.8086C11.2076 88.5054 11.1921 89.2054 11.2263 89.9022C11.3911 93.3274 14.6288 95.7974 17.963 95.057C20.9301 94.4037 22.4136 92.2603 22.4105 88.6267Z" fill="url(#paint1_linear_343_17228)"/>
<path d="M48.648 95.2655C46.4335 92.3692 46.3184 89.1338 46.9 85.858C47.7211 81.2601 52.0349 78.0776 56.7531 78.4167C61.3748 78.7496 65.135 82.6818 65.331 87.3326C65.4492 90.1356 65.2594 92.8514 63.3653 95.2468C64.2455 95.5237 65.0168 95.7166 65.754 96.009C69.9371 97.6671 72.7208 101.718 72.7954 106.235C72.8141 107.479 72.8234 108.723 72.7923 109.965C72.7612 111.271 72.0645 111.987 70.7551 111.987C60.927 111.999 51.0988 111.999 41.2706 111.987C40.095 111.987 39.2739 111.368 39.2459 110.329C39.1961 108.506 39.0779 106.648 39.3578 104.863C40.1727 99.6363 43.4197 96.597 48.648 95.2655ZM43.0061 108.176C51.727 108.176 60.3671 108.176 69.0663 108.176C69.0663 107.747 69.0663 107.398 69.0663 107.053C69.0756 101.966 66.0494 98.9302 60.9549 98.927C57.4964 98.9239 54.0348 98.899 50.5763 98.9457C49.6961 98.9582 48.7848 99.0888 47.9513 99.3626C44.3901 100.532 42.6515 103.653 43.0061 108.176ZM61.5956 88.6454C61.5956 88.3312 61.6081 87.9424 61.5925 87.5566C61.493 84.7101 59.403 82.4422 56.6194 82.1529C53.758 81.8543 51.105 83.6275 50.6043 86.4616C50.3399 87.9517 50.3772 89.5725 50.6602 91.0626C51.1174 93.4705 53.3412 95.085 55.7951 95.1877C58.557 95.3028 61.9067 93.2278 61.5956 88.6454Z" fill="url(#paint2_linear_343_17228)"/>
<path d="M87.8579 95.2844C85.6279 92.3788 85.5097 89.1465 86.0913 85.8676C86.903 81.2697 91.2137 78.081 95.9319 78.417C100.554 78.7467 104.339 82.6758 104.513 87.3266C104.656 91.0909 104.5 91.7722 102.65 95.3C103.088 95.4244 103.518 95.5457 103.941 95.667C108.581 97.0141 111.875 101.285 111.977 106.107C112.005 107.389 112.008 108.674 111.98 109.956C111.952 111.265 111.259 111.987 109.956 111.99C100.128 112.003 90.2993 112.003 80.4681 111.993C79.2364 111.993 78.4496 111.346 78.4216 110.232C78.378 108.487 78.2816 106.717 78.5118 104.997C79.1773 100.004 82.3995 96.6781 87.8579 95.2844ZM82.1942 108.179C90.9152 108.179 99.5584 108.179 108.261 108.179C108.261 107.79 108.261 107.482 108.261 107.174C108.286 101.936 105.287 98.9304 100.037 98.9273C96.6161 98.9273 93.1949 98.8993 89.7768 98.946C88.8967 98.9584 87.9854 99.0891 87.1518 99.3597C83.5845 100.533 81.8521 103.637 82.1942 108.179ZM89.5933 88.5648C89.5933 92.077 90.9525 94.2267 93.6397 94.9671C96.697 95.8101 99.9005 94.1427 100.538 91.1033C101.421 86.8911 100.557 83.5904 96.7996 82.3709C96.3642 82.2309 95.8915 82.1718 95.4311 82.1407C92.7315 81.9603 89.2854 84.0228 89.5933 88.5648Z" fill="url(#paint3_linear_343_17228)"/>
<path d="M3.78356 36.5533C3.74624 37.0137 3.78667 37.499 3.65294 37.9314C3.36369 38.8709 2.64835 39.2784 1.6873 39.1913C0.766689 39.1073 0.172644 38.5754 0.0606779 37.6607C-0.0264072 36.9359 -0.00463595 36.1924 0.0326862 35.4582C0.0886695 34.3383 0.825782 33.6103 1.85214 33.5916C2.92515 33.573 3.67782 34.3227 3.74624 35.5049C3.76801 35.8533 3.74935 36.2017 3.74935 36.5501C3.75868 36.5501 3.77112 36.5533 3.78356 36.5533Z" fill="url(#paint4_linear_343_17228)"/>
<path d="M72.7986 20.4788C72.7986 17.5265 72.7893 14.5742 72.8017 11.622C72.8111 9.53764 74.2075 8.72258 75.9617 9.8114C80.742 12.7761 85.513 15.7564 90.2685 18.7615C91.9076 19.7975 91.8796 21.3001 90.2219 22.3422C85.4913 25.3163 80.7451 28.2623 76.0114 31.2301C75.2712 31.6937 74.4284 32.0452 73.7597 31.4137C73.2651 30.9439 72.8608 30.1258 72.839 29.4507C72.7457 26.4642 72.7986 23.4715 72.7986 20.4788ZM86.0698 20.5317C82.8041 18.4909 79.7405 16.5746 76.6086 14.6178C76.6086 18.6402 76.6086 22.4604 76.6086 26.4393C79.781 24.4577 82.8258 22.5569 86.0698 20.5317Z" fill="url(#paint5_linear_343_17228)"/>
<defs>
<linearGradient id="paint0_linear_343_17228" x1="102.358" y1="74.6324" x2="-10.674" y2="58.6878" gradientUnits="userSpaceOnUse">
<stop stop-color="#BBD2C5"/>
<stop offset="0.993949" stop-color="#1FB9B3"/>
</linearGradient>
<linearGradient id="paint1_linear_343_17228" x1="30.7373" y1="111.988" x2="-3.49549" y2="108.775" gradientUnits="userSpaceOnUse">
<stop stop-color="#BBD2C5"/>
<stop offset="0.993949" stop-color="#1FB9B3"/>
</linearGradient>
<linearGradient id="paint2_linear_343_17228" x1="69.9172" y1="111.985" x2="35.5956" y2="108.754" gradientUnits="userSpaceOnUse">
<stop stop-color="#BBD2C5"/>
<stop offset="0.993949" stop-color="#1FB9B3"/>
</linearGradient>
<linearGradient id="paint3_linear_343_17228" x1="109.104" y1="111.988" x2="74.7812" y2="108.758" gradientUnits="userSpaceOnUse">
<stop stop-color="#BBD2C5"/>
<stop offset="0.993949" stop-color="#1FB9B3"/>
</linearGradient>
<linearGradient id="paint4_linear_343_17228" x1="3.45786" y1="39.2009" x2="-0.421619" y2="38.9549" gradientUnits="userSpaceOnUse">
<stop stop-color="#BBD2C5"/>
<stop offset="0.993949" stop-color="#1FB9B3"/>
</linearGradient>
<linearGradient id="paint5_linear_343_17228" x1="89.8721" y1="31.748" x2="70.7406" y2="30.2479" gradientUnits="userSpaceOnUse">
<stop stop-color="#BBD2C5"/>
<stop offset="0.993949" stop-color="#1FB9B3"/>
</linearGradient>
</defs>
</svg>
