<svg width="112" height="112" viewBox="0 0 112 112" fill="none" xmlns="http://www.w3.org/2000/svg">
<path d="M36.3724 22.6511C36.2247 26.8075 34.1306 30.8762 29.9755 33.8265C29.421 34.2225 29.192 34.6154 29.1981 35.2956C29.2101 37.3722 29.2824 39.461 29.0806 41.5195C28.7099 45.3374 25.4407 48.1425 21.5929 48.1365C17.7421 48.1304 14.4999 45.3253 14.1233 41.4984C13.9304 39.5154 13.9877 37.4992 14.0148 35.5011C14.0269 34.7001 13.7948 34.2255 13.1199 33.7539C7.5064 29.8182 5.33995 22.7539 7.75047 16.409C10.1911 9.97643 16.6182 6.04979 23.4098 6.84177C30.8011 7.70025 36.4417 14.1721 36.3724 22.6511ZM25.6215 34.3252C25.2207 32.4602 26.4531 31.7891 27.7035 30.9699C30.8704 28.8962 32.5547 25.8916 32.7476 22.0889C33.0218 16.7294 29.3487 11.8536 24.1782 10.6747C18.878 9.46859 13.5116 12.2284 11.3271 17.2856C9.19377 22.2249 10.8902 28.0287 15.4219 30.9276C16.7116 31.7528 17.9861 32.4269 17.6035 34.3222C20.3002 34.3252 22.8433 34.3252 25.6215 34.3252ZM17.6667 38.0735C17.5522 40.4253 17.3353 42.6591 19.6705 44.0103C21.0204 44.7933 22.8072 44.6572 24.0275 43.696C25.9198 42.2027 25.6426 40.1502 25.5311 38.0735C22.8735 38.0735 20.3243 38.0735 17.6667 38.0735Z" fill="url(#paint0_linear_343_17280)"/>
<path d="M47.2784 14.922C47.0373 13.7552 46.8114 12.6579 46.5884 11.5636C72.5376 5.16432 102.051 25.6621 101.172 57.5981C102.244 57.5981 103.32 57.586 104.393 57.6012C106.321 57.6314 107.101 58.9796 106.122 60.6512C104.462 63.4805 102.781 66.2948 101.078 69.1C100.102 70.7051 98.5923 70.7142 97.6221 69.1151C95.9167 66.3129 94.2353 63.4987 92.5721 60.6693C91.5596 58.9463 92.3551 57.6223 94.38 57.6012C95.3863 57.5921 96.3927 57.5981 97.3871 57.5981C99.0082 32.7687 76.1323 9.26629 47.2784 14.922ZM99.3456 64.9527C100.135 63.6287 100.807 62.4981 101.527 61.286C99.9844 61.286 98.6526 61.286 97.1611 61.286C97.8963 62.5193 98.5592 63.6347 99.3456 64.9527Z" fill="url(#paint1_linear_343_17280)"/>
<path d="M57.7616 101.125C27.5789 101.875 8.30379 75.5733 11.0427 52.0437C12.1486 52.1253 13.2574 52.21 14.4114 52.2946C13.7847 67.6868 19.2445 80.1892 31.5081 89.4722C40.0383 95.929 50.8495 98.0329 57.7647 97.3225C57.7647 96.2947 57.7496 95.2488 57.7677 94.2029C57.8008 92.3258 59.1356 91.5278 60.7386 92.4709C63.5951 94.1516 66.4305 95.8625 69.2568 97.5915C70.8056 98.5407 70.8327 100.055 69.305 100.995C66.4516 102.751 63.583 104.481 60.6934 106.176C59.1567 107.077 57.8098 106.27 57.7707 104.474C57.7436 103.389 57.7616 102.301 57.7616 101.125ZM65.0987 99.3115C63.7879 98.5256 62.652 97.8454 61.4377 97.1169C61.4377 98.6586 61.4377 99.9977 61.4377 101.5C62.6701 100.762 63.7879 100.097 65.0987 99.3115Z" fill="url(#paint2_linear_343_17280)"/>
<path d="M93.9906 75.7354C103.838 75.7293 111.985 83.8879 112 93.7695C112.015 103.826 103.925 112.006 93.9665 112C83.9417 111.994 75.8635 103.905 75.8484 93.8541C75.8303 83.8577 83.9568 75.7414 93.9906 75.7354ZM93.9092 108.382C101.789 108.403 108.339 101.904 108.381 94.0234C108.427 85.9525 101.96 79.3688 93.9846 79.3658C85.9455 79.3627 79.4642 85.8437 79.4582 93.8904C79.4552 101.859 85.9395 108.361 93.9092 108.382Z" fill="url(#paint3_linear_343_17280)"/>
<path d="M48.7759 46.6358C48.7759 45.4418 48.7759 44.3264 48.7759 43.1475C55.9622 43.1475 63.0974 43.1475 70.3259 43.1475C70.3259 44.2629 70.3259 45.4085 70.3259 46.6358C63.1968 46.6358 56.0346 46.6358 48.7759 46.6358Z" fill="url(#paint4_linear_343_17280)"/>
<path d="M70.3681 55.8625C70.3681 57.0535 70.3681 58.172 70.3681 59.3479C63.1546 59.3479 55.9924 59.3479 48.7759 59.3479C48.7759 58.178 48.7759 57.0596 48.7759 55.8625C55.9472 55.8625 63.1094 55.8625 70.3681 55.8625Z" fill="url(#paint5_linear_343_17280)"/>
<path d="M70.3503 72.0539C63.17 72.0539 56.0349 72.0539 48.8093 72.0539C48.8093 70.9203 48.8093 69.7747 48.8093 68.5535C55.9565 68.5535 63.1188 68.5535 70.3503 68.5535C70.3503 69.7112 70.3503 70.8538 70.3503 72.0539Z" fill="url(#paint6_linear_343_17280)"/>
<path d="M35.6925 5.22681C36.4849 6.01274 37.2804 6.80472 38.0729 7.59065C37.1177 8.55191 36.1444 9.52828 35.1622 10.5167C34.3576 9.70058 33.5531 8.88139 32.7366 8.05314C33.7038 7.12816 34.7042 6.17295 35.6925 5.22681Z" fill="url(#paint7_linear_343_17280)"/>
<path d="M19.8584 0C21.0215 0 22.1333 0 23.3295 0C23.3295 1.37538 23.3295 2.75076 23.3295 4.21079C22.2026 4.21079 21.0637 4.21079 19.8584 4.21079C19.8584 2.8082 19.8584 1.43584 19.8584 0Z" fill="url(#paint8_linear_343_17280)"/>
<path d="M0 19.9385C1.41618 19.9385 2.75402 19.9385 4.16116 19.9385C4.16116 21.0992 4.16116 22.2086 4.16116 23.4177C2.80826 23.4177 1.44933 23.4177 0 23.4177C0 22.3053 0 21.1718 0 19.9385Z" fill="url(#paint9_linear_343_17280)"/>
<path d="M43.2395 23.4673C41.8173 23.4673 40.4824 23.4673 39.0632 23.4673C39.0632 22.2915 39.0632 21.1579 39.0632 19.9548C40.4553 19.9548 41.8173 19.9548 43.2395 19.9548C43.2395 21.1186 43.2395 22.231 43.2395 23.4673Z" fill="url(#paint10_linear_343_17280)"/>
<path d="M7.95746 10.515C7.01735 9.53867 6.08328 8.56532 5.104 7.54663C5.91755 6.79395 6.76124 6.01406 7.56876 5.2644C8.44257 6.15311 9.41281 7.13855 10.4132 8.15724C9.68701 8.85551 8.8614 9.64749 7.95746 10.515Z" fill="url(#paint11_linear_343_17280)"/>
<path d="M10.2425 35.4485C9.45004 36.2647 8.48583 37.2562 7.50354 38.2658C6.70506 37.4648 5.9126 36.6698 5.08398 35.8385C6.11749 34.8984 7.13293 33.9734 8.20862 32.994C8.77811 33.6862 9.51332 34.5719 10.2425 35.4485Z" fill="url(#paint12_linear_343_17280)"/>
<path d="M35.1904 32.8634C36.1787 33.8398 37.1369 34.7889 38.1493 35.7895C37.2936 36.5905 36.4529 37.3765 35.5972 38.1775C34.7083 37.2556 33.7471 36.258 32.7588 35.2333C33.5121 34.4987 34.3317 33.7007 35.1904 32.8634Z" fill="url(#paint13_linear_343_17280)"/>
<path d="M41.575 43.134C42.7561 43.134 43.868 43.134 45.0431 43.134C45.0431 44.322 45.0431 45.4646 45.0431 46.6617C43.886 46.6617 42.7712 46.6617 41.575 46.6617C41.575 45.5251 41.575 44.3825 41.575 43.134Z" fill="url(#paint14_linear_343_17280)"/>
<path d="M45.0521 55.8599C45.0521 57.069 45.0521 58.1844 45.0521 59.3542C43.886 59.3542 42.7742 59.3542 41.575 59.3542C41.575 58.2237 41.575 57.0811 41.575 55.8599C42.6958 55.8599 43.8348 55.8599 45.0521 55.8599Z" fill="url(#paint15_linear_343_17280)"/>
<path d="M41.5833 68.5037C42.7614 68.5037 43.8491 68.5037 45.0182 68.5037C45.0182 69.6674 45.0182 70.8101 45.0182 72.0313C43.8974 72.0313 42.7584 72.0313 41.5833 72.0313C41.5833 70.8494 41.5833 69.6795 41.5833 68.5037Z" fill="url(#paint16_linear_343_17280)"/>
<path d="M95.738 102.976C95.738 103.554 95.738 104.077 95.738 104.678C94.5357 104.678 93.3907 104.678 92.1583 104.678C92.1312 104.125 92.1041 103.575 92.077 103.04C88.3075 101.879 86.9335 100.482 86.7377 97.5715C87.8887 97.5715 89.0397 97.5715 90.257 97.5715C90.6879 99.0103 91.7726 99.4335 93.2129 99.3277C94.0355 99.2673 94.8702 99.3489 95.6958 99.3247C96.7413 99.2945 97.4946 98.5388 97.5217 97.5503C97.5519 96.5195 96.7715 95.7034 95.6777 95.6792C94.6231 95.655 93.5685 95.6943 92.5169 95.6852C89.4344 95.661 86.9817 93.5118 86.7075 90.6069C86.4635 88.0163 88.4732 85.5678 91.3659 84.93C91.5858 84.8817 91.8058 84.8303 92.0649 84.7728C92.092 84.2136 92.1222 83.6604 92.1523 83.0529C93.3184 83.0529 94.4363 83.0529 95.6686 83.0529C95.6988 83.5818 95.7319 84.129 95.7711 84.7638C98.8174 85.2625 100.761 86.916 101.162 90.2502C100.059 90.2502 99.0464 90.2774 98.037 90.229C97.817 90.2169 97.5157 89.9751 97.4133 89.7635C96.9462 88.7841 96.1839 88.4063 95.1383 88.4335C94.1591 88.4607 93.1798 88.4123 92.2035 88.4305C91.0917 88.4516 90.3143 89.2224 90.3143 90.2562C90.3173 91.29 91.0947 92.0578 92.2096 92.076C93.225 92.0941 94.2434 92.0639 95.2589 92.0669C98.3654 92.082 100.797 94.1647 101.122 97.0848C101.415 99.6935 99.3748 102.187 96.4159 102.834C96.2351 102.864 96.0513 102.907 95.738 102.976Z" fill="url(#paint17_linear_343_17280)"/>
<defs>
<linearGradient id="paint0_linear_343_17280" x1="33.8253" y1="48.1223" x2="3.49366" y2="46.0828" gradientUnits="userSpaceOnUse">
<stop stop-color="#BBD2C5"/>
<stop offset="0.993949" stop-color="#1FB9B3"/>
</linearGradient>
<linearGradient id="paint1_linear_343_17280" x1="101.384" y1="70.2885" x2="40.2018" y2="64.5306" gradientUnits="userSpaceOnUse">
<stop stop-color="#BBD2C5"/>
<stop offset="0.993949" stop-color="#1FB9B3"/>
</linearGradient>
<linearGradient id="paint2_linear_343_17280" x1="65.2999" y1="106.528" x2="4.53514" y2="100.274" gradientUnits="userSpaceOnUse">
<stop stop-color="#BBD2C5"/>
<stop offset="0.993949" stop-color="#1FB9B3"/>
</linearGradient>
<linearGradient id="paint3_linear_343_17280" x1="108.888" y1="111.988" x2="71.9951" y2="108.529" gradientUnits="userSpaceOnUse">
<stop stop-color="#BBD2C5"/>
<stop offset="0.993949" stop-color="#1FB9B3"/>
</linearGradient>
<linearGradient id="paint4_linear_343_17280" x1="68.4708" y1="46.6346" x2="51.8844" y2="36.998" gradientUnits="userSpaceOnUse">
<stop stop-color="#BBD2C5"/>
<stop offset="0.993949" stop-color="#1FB9B3"/>
</linearGradient>
<linearGradient id="paint5_linear_343_17280" x1="68.5094" y1="59.3467" x2="51.9142" y2="49.6777" gradientUnits="userSpaceOnUse">
<stop stop-color="#BBD2C5"/>
<stop offset="0.993949" stop-color="#1FB9B3"/>
</linearGradient>
<linearGradient id="paint6_linear_343_17280" x1="68.496" y1="72.0527" x2="51.8842" y2="62.4387" gradientUnits="userSpaceOnUse">
<stop stop-color="#BBD2C5"/>
<stop offset="0.993949" stop-color="#1FB9B3"/>
</linearGradient>
<linearGradient id="paint7_linear_343_17280" x1="37.6135" y1="10.5149" x2="32.1689" y2="9.99839" gradientUnits="userSpaceOnUse">
<stop stop-color="#BBD2C5"/>
<stop offset="0.993949" stop-color="#1FB9B3"/>
</linearGradient>
<linearGradient id="paint8_linear_343_17280" x1="23.0307" y1="4.20934" x2="19.4786" y2="3.93396" gradientUnits="userSpaceOnUse">
<stop stop-color="#BBD2C5"/>
<stop offset="0.993949" stop-color="#1FB9B3"/>
</linearGradient>
<linearGradient id="paint9_linear_343_17280" x1="3.80296" y1="23.4165" x2="-0.427333" y2="22.9407" gradientUnits="userSpaceOnUse">
<stop stop-color="#BBD2C5"/>
<stop offset="0.993949" stop-color="#1FB9B3"/>
</linearGradient>
<linearGradient id="paint10_linear_343_17280" x1="42.88" y1="23.4661" x2="38.6337" y2="22.9913" gradientUnits="userSpaceOnUse">
<stop stop-color="#BBD2C5"/>
<stop offset="0.993949" stop-color="#1FB9B3"/>
</linearGradient>
<linearGradient id="paint11_linear_343_17280" x1="9.95615" y1="10.5132" x2="4.53947" y2="9.99814" gradientUnits="userSpaceOnUse">
<stop stop-color="#BBD2C5"/>
<stop offset="0.993949" stop-color="#1FB9B3"/>
</linearGradient>
<linearGradient id="paint12_linear_343_17280" x1="9.79844" y1="38.264" x2="4.53248" y2="37.7794" gradientUnits="userSpaceOnUse">
<stop stop-color="#BBD2C5"/>
<stop offset="0.993949" stop-color="#1FB9B3"/>
</linearGradient>
<linearGradient id="paint13_linear_343_17280" x1="37.6853" y1="38.1757" x2="32.1859" y2="37.6511" gradientUnits="userSpaceOnUse">
<stop stop-color="#BBD2C5"/>
<stop offset="0.993949" stop-color="#1FB9B3"/>
</linearGradient>
<linearGradient id="paint14_linear_343_17280" x1="44.7445" y1="46.6605" x2="41.2044" y2="46.3331" gradientUnits="userSpaceOnUse">
<stop stop-color="#BBD2C5"/>
<stop offset="0.993949" stop-color="#1FB9B3"/>
</linearGradient>
<linearGradient id="paint15_linear_343_17280" x1="44.7528" y1="59.353" x2="41.2042" y2="59.021" gradientUnits="userSpaceOnUse">
<stop stop-color="#BBD2C5"/>
<stop offset="0.993949" stop-color="#1FB9B3"/>
</linearGradient>
<linearGradient id="paint16_linear_343_17280" x1="44.7226" y1="72.0301" x2="41.2157" y2="71.7089" gradientUnits="userSpaceOnUse">
<stop stop-color="#BBD2C5"/>
<stop offset="0.993949" stop-color="#1FB9B3"/>
</linearGradient>
<linearGradient id="paint17_linear_343_17280" x1="99.9156" y1="104.671" x2="85.0737" y2="103.736" gradientUnits="userSpaceOnUse">
<stop stop-color="#BBD2C5"/>
<stop offset="0.993949" stop-color="#1FB9B3"/>
</linearGradient>
</defs>
</svg>
