<svg width="477" height="296" viewBox="0 0 477 296" fill="none" xmlns="http://www.w3.org/2000/svg">
<g clip-path="url(#clip0_1244_79497)">
<path d="M97.1964 25.2949H15.875V171.347H97.1964V25.2949Z" fill="#EBEBEB"/>
<path d="M93.1147 29.5098H19.1367V166.995H93.1147V29.5098Z" fill="#FAFAFA"/>
<path d="M93.1147 31.1416L19.1367 125.246V29.5098H93.1147V31.1416Z" fill="#F5F5F5"/>
<path d="M94.7466 69.0801H19.1367V70.576H94.7466V69.0801Z" fill="#EBEBEB"/>
<path d="M94.7466 101.857H19.1367V103.353H94.7466V101.857Z" fill="#EBEBEB"/>
<path d="M94.7466 134.561H19.1367V136.056H94.7466V134.561Z" fill="#EBEBEB"/>
<path d="M54.2852 69.7946L54.2852 170.902H58.0249L58.0249 69.7946H54.2852Z" fill="#EBEBEB"/>
<path d="M35.1178 29.5098H33.418V69.7625H35.1178V29.5098Z" fill="#EBEBEB"/>
<path d="M49.6647 29.5098H47.9648V69.7625H49.6647V29.5098Z" fill="#EBEBEB"/>
<path d="M64.2858 29.5098H62.5859V69.7625H64.2858V29.5098Z" fill="#EBEBEB"/>
<path d="M78.9108 29.5098H77.2109V69.7625H78.9108V29.5098Z" fill="#EBEBEB"/>
<path d="M15.9443 22.8438H12.4766V172.296H15.9443V22.8438Z" fill="#F5F5F5"/>
<path d="M100.659 172.704L97.1914 171.344V22.8438H100.659V172.704Z" fill="#E0E0E0"/>
<path d="M100.665 21.3516H12.4766V25.3632H100.665V21.3516Z" fill="#E0E0E0"/>
<path d="M102.976 173.184H10.0273V176.923H102.976V173.184Z" fill="#E0E0E0"/>
<path d="M97.1962 171.346L102.976 173.182H10.0273L15.8749 171.346H97.1962Z" fill="#EBEBEB"/>
<path d="M446.955 116.333C446.955 116.333 441.176 115.925 441.72 128.844C442.264 141.763 443.556 148.631 443.556 148.631C443.556 148.631 443.42 151.487 441.176 150.943C438.932 150.399 434.784 147.611 432.745 149.651C430.637 151.827 431.385 155.09 434.172 159.034C437.028 162.91 442.876 171.681 443.42 172.497C443.964 173.245 444.168 174.741 442.604 174.605C441.04 174.469 430.433 170.865 429.005 176.033C427.577 181.132 437.3 190.719 438.32 191.807C439.34 192.895 439.408 193.575 439 194.187C438.592 194.799 435.124 193.303 432.065 192.419C429.005 191.535 425.333 190.991 424.721 194.051C424.177 197.111 428.393 205.95 444.372 215.265L452.123 218.937L459.398 214.314C474.357 203.434 477.689 194.187 476.805 191.263C475.921 188.34 472.317 189.156 469.394 190.379C466.47 191.603 463.138 193.439 462.662 192.827C462.186 192.215 462.186 191.535 463.07 190.379C464.022 189.224 472.657 178.752 470.753 173.789C468.85 168.825 458.65 173.449 457.087 173.789C455.523 174.061 455.591 172.633 456.067 171.749C456.543 170.933 461.506 161.618 463.886 157.47C466.334 153.322 466.742 149.923 464.43 148.019C462.186 146.183 458.31 149.311 456.135 150.127C453.959 150.875 453.551 148.087 453.551 148.087C453.551 148.087 454.163 141.151 453.415 128.233C452.667 115.382 446.819 116.401 446.819 116.401" fill="#EBEBEB"/>
<path d="M447.434 127.896C447.434 127.896 447.434 127.964 447.434 128.168C447.434 128.372 447.502 128.644 447.502 128.984C447.57 129.664 447.638 130.684 447.706 132.044C447.91 134.696 448.114 138.504 448.386 143.263C448.929 152.714 449.541 165.769 450.153 180.252C450.765 194.667 451.377 207.79 451.853 217.241C452.125 221.933 452.261 225.809 452.397 228.46C452.465 229.752 452.533 230.772 452.533 231.52C452.533 231.86 452.533 232.132 452.533 232.336C452.533 232.54 452.533 232.608 452.533 232.608C452.533 232.608 452.533 232.54 452.533 232.336C452.533 232.132 452.465 231.86 452.465 231.52C452.397 230.84 452.329 229.82 452.261 228.46C452.057 225.809 451.853 222.001 451.581 217.241C451.037 207.79 450.425 194.735 449.813 180.252C449.201 165.837 448.589 152.714 448.114 143.263C447.842 138.572 447.706 134.696 447.57 132.044C447.502 130.752 447.434 129.732 447.434 128.984C447.434 128.644 447.434 128.372 447.434 128.168C447.434 127.964 447.434 127.896 447.434 127.896Z" fill="#E0E0E0"/>
<path d="M438.447 153.736C438.447 153.736 438.651 153.872 438.923 154.144C439.195 154.416 439.603 154.824 440.147 155.3C441.167 156.32 442.526 157.748 444.022 159.312C445.45 160.876 446.742 162.304 447.762 163.392C448.238 163.868 448.578 164.275 448.918 164.615C449.19 164.887 449.326 165.091 449.326 165.091C449.326 165.091 449.122 164.955 448.85 164.683C448.578 164.411 448.17 164.003 447.626 163.528C446.606 162.508 445.314 161.08 443.818 159.448C442.39 157.884 441.031 156.456 440.011 155.368C439.535 154.892 439.195 154.484 438.855 154.144C438.583 153.94 438.379 153.804 438.447 153.736Z" fill="#E0E0E0"/>
<path d="M450.009 164.883C449.941 164.815 452.729 161.892 456.264 158.356C459.8 154.82 462.656 151.964 462.724 152.032C462.792 152.1 460.004 155.024 456.469 158.56C453.001 162.096 450.077 164.951 450.009 164.883Z" fill="#E0E0E0"/>
<path d="M450.008 187.123C450.008 187.123 450.212 186.987 450.552 186.783C450.96 186.579 451.436 186.239 452.048 185.967C453.34 185.287 455.039 184.267 456.943 183.111C458.847 181.956 460.479 180.868 461.703 180.052C462.247 179.644 462.723 179.372 463.131 179.1C463.471 178.896 463.675 178.76 463.675 178.76C463.675 178.76 463.539 178.896 463.199 179.168C462.859 179.44 462.383 179.78 461.839 180.188C460.683 181.072 458.983 182.159 457.079 183.315C455.175 184.471 453.408 185.423 452.116 186.103C451.436 186.443 450.96 186.715 450.552 186.851C450.212 187.055 450.008 187.191 450.008 187.123Z" fill="#E0E0E0"/>
<path d="M437.301 179.367C437.301 179.367 437.505 179.435 437.845 179.639C438.185 179.843 438.661 180.047 439.205 180.387C440.361 181.067 441.992 181.951 443.76 183.039C445.528 184.059 447.092 185.079 448.248 185.759C448.792 186.099 449.268 186.439 449.608 186.643C449.948 186.847 450.084 186.983 450.084 186.983C450.084 186.983 449.88 186.915 449.54 186.711C449.2 186.507 448.724 186.303 448.18 185.963C447.024 185.283 445.392 184.399 443.624 183.311C441.856 182.291 440.293 181.271 439.137 180.591C438.593 180.251 438.117 179.911 437.777 179.707C437.437 179.503 437.301 179.367 437.301 179.367Z" fill="#E0E0E0"/>
<path d="M434.777 198.943C434.777 198.943 435.049 199.011 435.457 199.283C435.933 199.555 436.545 199.895 437.225 200.235C438.721 201.051 440.761 202.275 443.073 203.567C445.316 204.859 447.356 206.083 448.852 206.967C449.532 207.375 450.144 207.783 450.62 208.055C451.028 208.327 451.232 208.463 451.232 208.463C451.232 208.463 450.96 208.395 450.552 208.123C450.076 207.851 449.464 207.511 448.784 207.171C447.288 206.355 445.248 205.131 442.937 203.839C440.693 202.547 438.653 201.323 437.157 200.439C436.477 200.031 435.865 199.623 435.389 199.351C434.981 199.147 434.777 199.011 434.777 198.943Z" fill="#E0E0E0"/>
<path d="M450.895 208.196C450.895 208.196 451.099 207.992 451.574 207.72C452.05 207.448 452.662 207.04 453.41 206.564C454.974 205.612 457.15 204.252 459.53 202.756C461.91 201.192 464.017 199.765 465.513 198.745C466.261 198.269 466.805 197.793 467.281 197.521C467.689 197.249 467.961 197.045 467.961 197.113C467.961 197.113 467.757 197.317 467.349 197.657C466.941 197.997 466.329 198.405 465.581 198.949C464.085 200.037 462.046 201.532 459.666 203.028C457.286 204.592 455.11 205.884 453.546 206.768C452.73 207.244 452.118 207.584 451.642 207.856C451.166 208.128 450.895 208.196 450.895 208.196Z" fill="#E0E0E0"/>
<path d="M462.378 221.453H441.164L448.099 273.877H455.443L462.378 221.453Z" fill="#E0E0E0"/>
<path d="M442.27 227.912C442.27 227.912 442.27 227.98 442.406 228.116C442.474 228.252 442.677 228.388 442.949 228.456C443.425 228.66 444.309 228.66 445.193 228.184C446.077 227.708 446.825 226.756 447.913 226.348C449.069 225.94 450.429 226.008 451.789 226.416C453.149 226.824 454.373 227.504 455.392 228.184C456.48 228.796 457.432 229.408 458.316 229.748C459.2 230.156 459.948 230.292 460.492 230.36C460.764 230.428 460.968 230.428 461.104 230.428C461.24 230.428 461.308 230.428 461.308 230.428C461.308 230.36 460.084 230.36 458.384 229.544C457.5 229.136 456.548 228.592 455.46 227.912C454.373 227.232 453.149 226.552 451.789 226.076C450.361 225.6 448.865 225.532 447.641 226.008C447.029 226.212 446.485 226.62 446.077 226.96C445.669 227.3 445.261 227.64 444.853 227.912C444.105 228.388 443.289 228.456 442.813 228.252C442.474 228.116 442.338 227.844 442.27 227.912Z" fill="#F5F5F5"/>
<path d="M443.086 237.571C443.086 237.571 443.222 237.367 443.562 237.027C443.902 236.687 444.446 236.28 445.262 235.94C446.078 235.668 447.098 235.464 448.186 235.464C449.341 235.532 450.565 235.736 451.857 235.94C453.149 236.144 454.441 236.28 455.665 236.076C456.821 235.94 457.841 235.6 458.657 235.26C459.473 234.92 460.085 234.512 460.425 234.172C460.832 233.9 461.036 233.696 460.968 233.696C460.9 233.628 460.085 234.376 458.521 235.056C457.705 235.396 456.753 235.668 455.597 235.804C454.441 235.94 453.217 235.872 451.925 235.6C450.633 235.396 449.341 235.124 448.186 235.124C447.03 235.124 445.942 235.328 445.126 235.668C444.31 236.008 443.766 236.483 443.426 236.891C443.29 237.095 443.154 237.231 443.086 237.367C443.086 237.503 443.086 237.503 443.086 237.571Z" fill="#F5F5F5"/>
<path d="M460.009 242.738C460.009 242.738 459.805 242.602 459.397 242.466C458.989 242.33 458.377 242.126 457.629 242.058C456.881 241.99 455.929 242.058 454.977 242.194C453.958 242.33 452.938 242.602 451.782 242.874C450.694 243.078 449.606 243.282 448.654 243.214C447.702 243.214 446.818 242.942 446.138 242.67C444.778 242.058 444.302 241.174 444.234 241.242C444.234 241.242 444.302 241.446 444.574 241.786C444.846 242.126 445.322 242.534 446.002 242.874C446.682 243.214 447.566 243.486 448.586 243.486C449.606 243.554 450.694 243.418 451.85 243.146C453.006 242.874 454.026 242.602 454.977 242.466C455.929 242.262 456.813 242.194 457.561 242.262C459.125 242.33 460.009 242.806 460.009 242.738Z" fill="#F5F5F5"/>
<path d="M444.906 250.006C444.906 250.074 445.654 249.53 446.946 249.802C447.558 249.938 448.306 250.21 449.122 250.618C449.938 250.958 450.89 251.298 451.91 251.366C454.018 251.57 455.853 250.89 457.009 250.21C457.621 249.87 458.029 249.462 458.301 249.258C458.573 248.987 458.709 248.851 458.641 248.783C458.573 248.715 458.029 249.326 456.873 250.006C455.717 250.618 453.949 251.23 451.978 251.026C449.938 250.89 448.442 249.734 447.014 249.53C446.334 249.462 445.79 249.53 445.382 249.666C445.042 249.802 444.906 249.938 444.906 250.006Z" fill="#F5F5F5"/>
<path d="M446.137 260.076C446.137 260.144 446.817 260.144 447.905 259.736C448.992 259.396 450.284 258.58 451.848 257.968C452.596 257.696 453.412 257.492 454.092 257.492C454.772 257.492 455.452 257.696 455.928 257.9C456.88 258.376 457.152 259.056 457.22 259.056C457.22 259.056 457.22 258.852 457.016 258.58C456.812 258.308 456.54 257.968 455.996 257.696C455.52 257.424 454.84 257.22 454.092 257.152C453.344 257.152 452.528 257.288 451.712 257.628C450.148 258.24 448.856 259.124 447.837 259.532C446.817 259.872 446.137 260.008 446.137 260.076Z" fill="#F5F5F5"/>
<path d="M447.156 264.702C447.156 264.77 447.632 264.906 448.516 265.11C449.332 265.314 450.556 265.518 451.848 265.654C453.208 265.79 454.364 265.79 455.248 265.722C456.131 265.654 456.675 265.586 456.675 265.586C456.675 265.45 454.5 265.586 451.916 265.314C449.264 265.11 447.156 264.634 447.156 264.702Z" fill="#F5F5F5"/>
<path d="M450.426 31.3438H384.879V74.4522H450.426V31.3438Z" fill="#E0E0E0"/>
<path d="M448.044 33.0469H387.121V72.4157H448.044V33.0469Z" fill="#FAFAFA"/>
<path d="M427.511 47.459H407.656V58.2701H427.511V47.459Z" fill="#E0E0E0"/>
<path d="M468.783 274.561C468.783 274.629 364.003 274.765 234.746 274.765C105.42 274.765 0.640625 274.629 0.640625 274.561C0.640625 274.493 105.42 274.357 234.746 274.357C364.003 274.357 468.783 274.493 468.783 274.561Z" fill="#263238"/>
<path d="M306.283 144.692H176.957V0H317.298V133.609C317.298 139.729 312.334 144.692 306.283 144.692Z" fill="#EBEBEB"/>
<path d="M305.728 43.042C305.728 43.314 280.366 43.586 249.089 43.586C217.811 43.586 192.449 43.382 192.449 43.042C192.449 42.77 217.811 42.498 249.089 42.498C280.366 42.498 305.728 42.77 305.728 43.042Z" fill="#455A64"/>
<path d="M249.774 52.835C249.774 53.1069 237.263 53.3789 221.76 53.3789C206.325 53.3789 193.746 53.1749 193.746 52.835C193.746 52.563 206.257 52.291 221.76 52.291C237.195 52.359 249.774 52.563 249.774 52.835Z" fill="#455A64"/>
<path d="M272.143 51.9502C272.143 52.2222 268.811 52.4942 264.732 52.4942C260.652 52.4942 257.32 52.2902 257.32 51.9502C257.32 51.6782 260.652 51.4062 264.732 51.4062C268.811 51.4062 272.143 51.6782 272.143 51.9502Z" fill="#455A64"/>
<path d="M308.721 51.333C308.721 51.605 302.126 51.877 294.034 51.877C285.943 51.877 279.348 51.673 279.348 51.333C279.348 51.061 285.943 50.7891 294.034 50.7891C302.126 50.7891 308.721 51.061 308.721 51.333Z" fill="#455A64"/>
<path d="M245.077 62.2158C245.077 62.4878 233.314 62.7598 218.763 62.7598C204.212 62.7598 192.449 62.5558 192.449 62.2158C192.449 61.9439 204.212 61.6719 218.763 61.6719C233.246 61.6719 245.077 61.9439 245.077 62.2158Z" fill="#455A64"/>
<path d="M308.726 61.9443C308.726 62.2163 295.875 62.4883 279.965 62.4883C264.122 62.4883 251.203 62.2843 251.203 61.9443C251.203 61.6724 264.054 61.4004 279.965 61.4004C295.875 61.4004 308.726 61.6724 308.726 61.9443Z" fill="#455A64"/>
<path d="M308.722 71.3936C308.722 71.6655 303.011 71.9375 295.939 71.9375C288.868 71.9375 283.156 71.7335 283.156 71.3936C283.156 71.1216 288.868 70.8496 295.939 70.8496C303.011 70.8496 308.722 71.1216 308.722 71.3936Z" fill="#455A64"/>
<path d="M255.761 32.5674C255.761 32.8394 241.89 33.1114 224.755 33.1114C207.621 33.1114 193.75 32.9074 193.75 32.5674C193.75 32.2954 207.621 32.0234 224.755 32.0234C241.89 32.0234 255.761 32.2274 255.761 32.5674Z" fill="#1CABA5"/>
<path d="M342.049 273.741H70.4116C64.972 273.741 60.4844 269.321 60.4844 263.814V90.9038C60.4844 85.4642 64.904 80.9766 70.4116 80.9766H342.049C347.489 80.9766 351.977 85.3962 351.977 90.9038V263.814C351.977 269.321 347.557 273.741 342.049 273.741Z" fill="#263238"/>
<path d="M352.386 276.392H60.8257C54.1622 276.392 48.7227 270.952 48.7227 264.289V259.529H364.489V264.289C364.489 270.952 359.049 276.392 352.386 276.392Z" fill="#263238"/>
<path d="M343.749 88.6602H68.7109V251.439H343.749V88.6602Z" fill="#455A64"/>
<path d="M177.922 259.54C177.922 259.54 177.99 259.54 178.194 259.54C178.398 259.54 178.738 259.54 179.146 259.54C179.962 259.54 181.186 259.54 182.749 259.54C185.877 259.54 190.433 259.54 196.076 259.472C207.431 259.472 223.138 259.404 240.613 259.404H240.953L240.817 259.676C240.273 260.628 239.661 261.648 239.049 262.736C238.437 263.824 237.757 264.911 237.145 265.931L237.077 265.999H236.941C212.735 265.931 191.997 265.931 181.798 265.863H181.73V265.795C180.506 263.756 179.486 262.192 178.874 261.104C178.534 260.56 178.33 260.22 178.126 259.948C177.99 259.676 177.922 259.54 177.922 259.54C177.922 259.54 177.99 259.676 178.194 259.948C178.398 260.22 178.602 260.628 178.942 261.172C179.622 262.192 180.574 263.756 181.866 265.727L181.798 265.659C191.997 265.659 212.735 265.591 236.941 265.523L236.805 265.591C237.417 264.572 238.029 263.484 238.641 262.396C239.253 261.376 239.865 260.356 240.409 259.336L240.545 259.608C223.07 259.54 207.499 259.54 196.144 259.54C190.501 259.54 185.945 259.472 182.749 259.472C181.186 259.472 179.962 259.472 179.078 259.472C178.67 259.472 178.33 259.472 178.126 259.472C178.058 259.54 177.922 259.54 177.922 259.54Z" fill="#455A64"/>
<path d="M351.984 259.538C351.984 259.606 286.71 259.742 206.272 259.742C125.767 259.674 60.4922 259.606 60.4922 259.538C60.4922 259.47 125.699 259.334 206.204 259.334C286.71 259.334 351.984 259.402 351.984 259.538Z" fill="#455A64"/>
<path d="M277.585 56.1602C282.073 56.1602 285.744 59.8319 285.744 64.3195V81.0461H261.402V65.6114C261.402 60.3758 265.618 56.1602 270.854 56.1602H277.585Z" fill="#263238"/>
<path d="M277.58 56.1649C277.58 56.2329 254.598 56.3009 226.312 56.3009C197.959 56.3009 174.977 56.1649 174.977 56.0969C174.977 56.0289 197.959 55.9609 226.312 55.9609C254.598 55.9609 277.58 56.0969 277.58 56.1649Z" fill="#263238"/>
<path d="M277.377 56.1637L267.178 56.0957L252.423 56.1637H144.108C134.929 56.1637 127.449 63.6431 127.449 72.8223V248.724V251.784H267.79V65.3429C268.198 56.1637 277.377 56.1637 277.377 56.1637Z" fill="#FAFAFA"/>
<path d="M277.381 56.1626L192.796 56.3666H150.503H145.2C144.316 56.3666 143.432 56.4346 142.548 56.4346C141.664 56.5706 140.848 56.6386 139.964 56.9105C136.565 57.7265 133.573 59.7663 131.329 62.4861C130.241 63.846 129.357 65.3419 128.745 66.9737C128.609 67.3817 128.405 67.7897 128.337 68.1976L127.997 69.4895C127.861 70.3734 127.725 71.1894 127.725 72.0733C127.657 75.609 127.725 79.1447 127.725 82.6125L127.861 251.851L127.521 251.511L267.862 251.579L267.59 251.851L267.658 151.219L267.726 100.903L267.794 75.745V69.4895V66.3618C267.794 65.8178 267.794 65.3419 267.862 64.7979C267.93 64.2539 267.93 63.778 268.134 63.234C268.61 61.1942 269.766 59.2904 271.534 58.1344C272.417 57.5225 273.369 57.0465 274.321 56.7746C275.273 56.3666 276.293 56.1626 277.381 56.1626ZM277.381 56.1626C276.361 56.2306 275.273 56.4346 274.321 56.7066C273.301 56.9785 272.349 57.4545 271.534 58.0665C269.766 59.2224 268.61 61.1262 268.202 63.166C268.066 63.642 267.998 64.186 267.93 64.7299C267.862 65.2739 267.862 65.7498 267.862 66.2938V69.4215V75.745L267.93 100.903L267.998 151.219L268.066 251.851V252.123H267.794L127.453 252.191H127.113V251.851L127.249 82.6125C127.249 79.0767 127.181 75.541 127.317 72.0053C127.317 71.1214 127.521 70.2375 127.657 69.3535L127.997 68.0616C128.065 67.6537 128.269 67.2457 128.405 66.7697C129.017 65.1379 129.901 63.506 131.057 62.1461C133.301 59.4263 136.429 57.3185 139.896 56.4346C140.78 56.1626 141.664 56.0946 142.548 55.9586C143.432 55.8906 144.316 55.8906 145.2 55.8906H150.503H192.796L277.381 56.1626Z" fill="#263238"/>
<path d="M148.598 88.3945H173.076L173.144 96.6219H171.988C171.58 93.6981 170.492 91.7263 168.724 90.6384C167.704 90.0944 166.208 89.7544 164.168 89.6864V111.105C164.168 112.601 164.44 113.62 164.984 114.096C165.528 114.572 166.616 114.844 168.248 114.844V115.864H153.629V114.844C155.193 114.844 156.281 114.572 156.825 114.096C157.369 113.62 157.641 112.601 157.641 111.105V89.6864C155.669 89.7544 154.105 90.0264 153.085 90.6384C151.113 91.7263 150.026 93.6981 149.822 96.6219H148.666L148.598 88.3945Z" fill="#1CABA5"/>
<path d="M248.477 90.2276C248.477 90.4995 234.946 90.7715 218.287 90.7715C201.629 90.7715 188.098 90.5675 188.098 90.2276C188.098 89.9556 201.629 89.6836 218.287 89.6836C235.014 89.6836 248.477 89.9556 248.477 90.2276Z" fill="#1CABA5"/>
<path d="M212.714 99.8838C212.714 100.156 207.479 100.428 201.019 100.428C194.56 100.428 189.324 100.224 189.324 99.8838C189.324 99.6118 194.56 99.3398 201.019 99.3398C207.479 99.3398 212.714 99.6118 212.714 99.8838Z" fill="#455A64"/>
<path d="M183.336 129.255C183.336 129.527 173.409 129.799 161.17 129.799C148.931 129.799 139.004 129.595 139.004 129.255C139.004 128.983 148.931 128.711 161.17 128.711C173.409 128.711 183.336 128.983 183.336 129.255Z" fill="#455A64"/>
<path d="M233.457 129.255C233.457 129.527 223.53 129.799 211.291 129.799C199.052 129.799 189.125 129.595 189.125 129.255C189.125 128.983 199.052 128.711 211.291 128.711C223.598 128.711 233.457 128.983 233.457 129.255Z" fill="#1CABA5"/>
<path d="M183.348 137.144C183.348 137.416 173.421 137.688 161.182 137.688C148.943 137.688 139.016 137.484 139.016 137.144C139.016 136.872 148.943 136.6 161.182 136.6C173.421 136.6 183.348 136.804 183.348 137.144Z" fill="#455A64"/>
<path d="M183.348 144.96C183.348 145.232 173.421 145.504 161.182 145.504C148.943 145.504 139.016 145.3 139.016 144.96C139.016 144.688 148.943 144.416 161.182 144.416C173.421 144.416 183.348 144.688 183.348 144.96Z" fill="#1CABA5"/>
<path d="M212.714 115.858C212.714 116.13 207.479 116.402 201.019 116.402C194.56 116.402 189.324 116.198 189.324 115.858C189.324 115.586 194.56 115.314 201.019 115.314C207.479 115.314 212.714 115.586 212.714 115.858Z" fill="#455A64"/>
<path d="M253.167 129.255C253.167 129.527 249.699 129.799 245.415 129.799C241.132 129.799 237.664 129.595 237.664 129.255C237.664 128.983 241.132 128.711 245.415 128.711C249.699 128.711 253.167 128.983 253.167 129.255Z" fill="#455A64"/>
<path d="M257.324 99.8838C257.324 100.156 248.349 100.428 237.334 100.428C226.251 100.428 217.344 100.224 217.344 99.8838C217.344 99.6118 226.319 99.3398 237.334 99.3398C248.349 99.3398 257.324 99.6118 257.324 99.8838Z" fill="#455A64"/>
<path d="M255.548 107.495C255.548 107.767 240.725 108.039 222.502 108.039C204.212 108.039 189.457 107.835 189.457 107.495C189.457 107.223 204.28 106.951 222.502 106.951C240.725 107.019 255.548 107.223 255.548 107.495Z" fill="#455A64"/>
<path d="M253.176 137.144C253.176 137.416 238.829 137.688 221.15 137.688C203.472 137.688 189.125 137.484 189.125 137.144C189.125 136.872 203.472 136.6 221.15 136.6C238.829 136.6 253.176 136.804 253.176 137.144Z" fill="#455A64"/>
<path d="M253.166 159.853C253.166 160.125 239.703 160.396 223.112 160.396C206.522 160.396 193.059 160.193 193.059 159.853C193.059 159.581 206.522 159.309 223.112 159.309C239.703 159.309 253.166 159.581 253.166 159.853Z" fill="#1CABA5"/>
<path d="M253.166 167.536C253.166 167.808 239.703 168.08 223.112 168.08C206.522 168.08 193.059 167.876 193.059 167.536C193.059 167.264 206.522 166.992 223.112 166.992C239.703 166.992 253.166 167.196 253.166 167.536Z" fill="#455A64"/>
<path d="M253.166 175.151C253.166 175.423 239.703 175.695 223.112 175.695C206.522 175.695 193.059 175.491 193.059 175.151C193.059 174.879 206.522 174.607 223.112 174.607C239.703 174.607 253.166 174.879 253.166 175.151Z" fill="#455A64"/>
<path d="M253.166 182.763C253.166 183.035 239.703 183.307 223.112 183.307C206.522 183.307 193.059 183.103 193.059 182.763C193.059 182.491 206.522 182.219 223.112 182.219C239.703 182.287 253.166 182.491 253.166 182.763Z" fill="#455A64"/>
<path d="M227.674 190.452C227.674 190.588 225.77 190.724 222.642 190.86C219.515 190.928 215.163 190.996 210.403 190.996C205.644 190.996 201.292 190.928 198.164 190.86C195.037 190.792 193.133 190.656 193.133 190.452C193.133 190.316 195.037 190.18 198.164 190.044C201.292 189.976 205.644 189.908 210.403 189.908C215.163 189.908 219.515 189.976 222.642 190.044C225.77 190.18 227.674 190.316 227.674 190.452Z" fill="#455A64"/>
<path d="M242.297 145.374C242.297 145.646 230.738 145.918 216.459 145.918C202.18 145.918 190.621 145.714 190.621 145.374C190.621 145.102 202.18 144.83 216.459 144.83C230.738 144.898 242.297 145.102 242.297 145.374Z" fill="#455A64"/>
<path d="M182.25 160.731L185.446 219.683L127.787 226.958L127.719 160.188L182.25 160.731Z" fill="#E0E0E0"/>
<path d="M107.578 156.676L107.176 219.23L185.437 219.733L185.839 157.178L107.578 156.676Z" fill="#F5F5F5"/>
<path d="M110.23 160.651L109.879 215.318L182.633 215.786L182.984 161.118L110.23 160.651Z" fill="#1CABA5"/>
<g opacity="0.2">
<path d="M109.91 215.268L135.544 181.475L151.183 202.825L161.926 191.538L182.664 215.744L109.91 215.268Z" fill="black"/>
</g>
<g opacity="0.2">
<path d="M157.979 177.469C157.979 180.665 155.396 183.181 152.2 183.181C149.004 183.181 146.488 180.597 146.488 177.401C146.488 174.205 149.072 171.689 152.268 171.689C155.464 171.689 158.047 174.273 157.979 177.469Z" fill="black"/>
</g>
<path d="M193.006 234.515C193.006 235.195 192.462 235.739 191.783 235.739C191.103 235.739 190.559 235.195 190.559 234.515C190.559 233.835 191.103 233.291 191.783 233.291C192.462 233.291 193.006 233.835 193.006 234.515Z" fill="#263238"/>
<path d="M200.213 234.515C200.213 235.195 199.669 235.739 198.99 235.739C198.31 235.739 197.766 235.195 197.766 234.515C197.766 233.835 198.31 233.291 198.99 233.291C199.669 233.291 200.213 233.835 200.213 234.515Z" fill="#263238"/>
<path d="M207.35 234.515C207.35 235.195 206.806 235.739 206.126 235.739C205.446 235.739 204.902 235.195 204.902 234.515C204.902 233.835 205.446 233.291 206.126 233.291C206.806 233.291 207.35 233.835 207.35 234.515Z" fill="#263238"/>
<path d="M233.789 206.366C233.789 206.638 223.862 206.91 211.623 206.91C199.384 206.91 189.457 206.706 189.457 206.366C189.457 206.094 199.384 205.822 211.623 205.822C223.862 205.822 233.789 206.094 233.789 206.366Z" fill="#1CABA5"/>
<path d="M253.508 214.181C253.508 214.453 239.161 214.725 221.482 214.725C203.804 214.725 189.457 214.521 189.457 214.181C189.457 213.909 203.804 213.637 221.482 213.637C239.161 213.705 253.508 213.909 253.508 214.181Z" fill="#455A64"/>
<path d="M394.332 227.325L394.09 264.994L441.21 265.297L441.452 227.628L394.332 227.325Z" fill="#F5F5F5"/>
<path d="M395.915 229.616L395.703 262.594L439.56 262.876L439.771 229.898L395.915 229.616Z" fill="#1CABA5"/>
<path opacity="0.2" d="M395.688 262.596L411.122 242.266L420.505 255.117L427.033 248.317L439.544 262.936L395.688 262.596Z" fill="black"/>
<g opacity="0.2">
<path d="M424.655 239.818C424.655 241.721 423.091 243.285 421.187 243.217C419.283 243.149 417.719 241.653 417.787 239.75C417.787 237.846 419.351 236.282 421.255 236.35C423.159 236.418 424.655 237.914 424.655 239.818Z" fill="black"/>
</g>
<path d="M387.394 223.407L387.152 261.076L434.273 261.379L434.515 223.71L387.394 223.407Z" fill="#F5F5F5"/>
<path d="M388.997 225.697L388.785 258.674L432.642 258.956L432.853 225.978L388.997 225.697Z" fill="#1CABA5"/>
<path opacity="0.2" d="M388.75 258.717L404.185 238.318L413.636 251.169L420.095 244.37L432.606 258.989L388.75 258.717Z" fill="black"/>
<g opacity="0.2">
<path d="M417.717 235.87C417.717 237.774 416.153 239.338 414.25 239.27C412.346 239.202 410.782 237.706 410.85 235.802C410.85 233.898 412.414 232.335 414.318 232.403C416.221 232.403 417.785 233.966 417.717 235.87Z" fill="black"/>
</g>
<path d="M381.238 220.118L380.996 257.787L428.116 258.09L428.358 220.421L381.238 220.118Z" fill="#F5F5F5"/>
<path d="M382.829 222.476L382.617 255.453L426.474 255.735L426.685 222.757L382.829 222.476Z" fill="#1CABA5"/>
<path opacity="0.2" d="M382.637 255.455L398.071 235.057L407.455 247.908L413.914 241.108L426.425 255.727L382.637 255.455Z" fill="black"/>
<g opacity="0.2">
<path d="M411.604 232.609C411.604 234.512 410.04 236.076 408.136 236.008C406.232 236.008 404.669 234.444 404.737 232.541C404.737 230.637 406.3 229.073 408.204 229.141C410.04 229.141 411.604 230.705 411.604 232.609Z" fill="black"/>
</g>
<path d="M374.269 224.175L374.027 261.844L421.148 262.146L421.389 224.477L374.269 224.175Z" fill="#F5F5F5"/>
<path d="M375.938 226.474L375.727 259.451L419.583 259.733L419.795 226.756L375.938 226.474Z" fill="#455A64"/>
<path opacity="0.2" d="M375.695 259.463L391.13 239.064L400.513 251.983L407.041 245.184L419.552 259.735L375.695 259.463Z" fill="black"/>
<g opacity="0.2">
<path d="M404.67 236.685C404.67 238.589 403.106 240.152 401.203 240.084C399.299 240.084 397.735 238.521 397.803 236.617C397.803 234.713 399.367 233.149 401.271 233.217C403.175 233.217 404.67 234.781 404.67 236.685Z" fill="black"/>
</g>
<path d="M448.659 238.182H421.461V274.559H448.659V238.182Z" fill="#263238"/>
<path d="M369.309 238.182V274.559H423.772V238.182H369.309ZM402.354 246.749H390.795C389.435 246.749 388.279 245.661 388.279 244.233C388.279 242.873 389.367 241.717 390.795 241.717H402.354C403.714 241.717 404.87 242.805 404.87 244.233C404.87 245.661 403.714 246.749 402.354 246.749Z" fill="#1CABA5"/>
<path d="M334.028 270.749L283.372 267.621C283.032 266.873 282.828 266.465 282.828 266.465L269.094 266.737L264.606 266.465C264.606 266.465 264.538 266.601 264.402 266.805L218.37 267.689C209.19 267.689 199.535 273.264 199.535 280.472C199.399 287.271 202.731 294.683 210.958 294.547L273.717 294.343L336.476 294.547C344.703 294.683 346.879 289.719 346.879 283.871C347.899 272.924 341.032 270.817 334.028 270.749Z" fill="#455A64"/>
<path d="M216.797 294.616C216.797 294.616 216.933 294.616 217.069 294.616C217.273 294.616 217.545 294.616 217.953 294.616C218.769 294.616 219.925 294.616 221.353 294.616C224.344 294.616 228.628 294.616 233.999 294.548C244.675 294.548 259.565 294.548 276.156 294.48L275.952 294.684C275.884 293.324 275.748 291.828 275.68 290.332C275.476 287.272 275.272 284.281 275.136 281.493L275.272 281.629C259.837 279.929 246.238 278.365 236.447 277.277C231.552 276.733 227.676 276.257 224.956 275.985C223.596 275.849 222.576 275.713 221.828 275.645C221.488 275.577 221.217 275.577 221.013 275.509C220.809 275.509 220.741 275.441 220.741 275.441C220.741 275.441 220.809 275.441 221.013 275.441C221.217 275.441 221.488 275.509 221.828 275.509C222.576 275.577 223.596 275.713 224.956 275.849C227.676 276.121 231.62 276.529 236.447 277.073C246.238 278.161 259.837 279.589 275.272 281.289H275.408V281.425C275.612 284.281 275.748 287.272 275.952 290.264C276.02 291.76 276.156 293.188 276.224 294.616V294.82H276.02C259.429 294.82 244.607 294.752 233.863 294.752C228.56 294.752 224.208 294.684 221.217 294.684C219.721 294.684 218.565 294.684 217.817 294.684C217.409 294.684 217.137 294.684 216.933 294.684C216.865 294.616 216.797 294.616 216.797 294.616Z" fill="#263238"/>
<path d="M229.725 276.595C229.657 276.663 229.045 276.119 227.957 275.439C226.869 274.759 225.237 273.943 223.333 273.399C221.429 272.855 219.661 272.651 218.37 272.651C217.078 272.651 216.262 272.719 216.262 272.651C216.262 272.651 216.466 272.583 216.806 272.515C217.146 272.447 217.69 272.379 218.37 272.379C219.661 272.311 221.497 272.447 223.469 272.991C225.373 273.535 227.005 274.419 228.093 275.167C228.637 275.507 229.045 275.847 229.317 276.119C229.589 276.459 229.725 276.595 229.725 276.595Z" fill="#263238"/>
<path d="M330.079 273.875C330.079 273.943 320.083 276.39 307.776 279.246C295.401 282.102 285.406 284.414 285.406 284.278C285.406 284.21 295.333 281.762 307.708 278.906C320.083 276.05 330.079 273.807 330.079 273.875Z" fill="#263238"/>
<path d="M321.646 272.925C321.646 273.061 319.742 273.401 317.702 274.829C315.73 276.189 314.642 277.821 314.506 277.753C314.438 277.753 314.71 277.277 315.186 276.665C315.662 276.053 316.478 275.237 317.498 274.557C318.518 273.877 319.538 273.401 320.354 273.197C321.17 272.925 321.646 272.857 321.646 272.925Z" fill="#263238"/>
<path d="M302.815 215.473L318.862 243.418C320.834 246.886 320.97 251.102 319.202 254.637C317.162 258.785 312.878 261.301 308.255 261.165L283.641 260.485L282.961 251.51L304.651 247.362L290.032 222.068L302.815 215.473Z" fill="#FFBE9D"/>
<path d="M243.045 263.202L265.687 269.186L266.163 262.387L245.288 250.284L260.519 221.998L247.736 215.402L231.69 243.348C227.814 250.555 231.418 259.531 239.237 261.979L243.045 263.202Z" fill="#FFBE9D"/>
<path d="M296.012 233.352L311.515 225.193C311.515 225.193 308.931 219.753 304.851 214.11C300.024 207.514 292.612 202.823 284.181 201.055L266.366 201.259C263.851 201.531 261.743 202.007 260.043 202.687V202.619C250.388 204.726 239.645 225.805 239.645 225.805L253.719 233.216L254.059 235.46C254.467 238.384 255.759 241.103 257.731 243.347L253.651 270.341L299.344 271.293L293.496 251.983L296.012 233.352Z" fill="#1CABA5"/>
<path d="M258.145 243.618C258.145 243.618 257.873 243.482 257.465 243.074C257.057 242.734 256.513 242.123 255.901 241.307C254.745 239.743 253.726 237.023 253.998 233.963C254.202 232.467 254.609 231.107 255.017 229.884C255.425 228.66 255.833 227.572 256.173 226.688C256.513 225.804 256.853 225.056 257.057 224.58C257.261 224.104 257.397 223.832 257.465 223.832C257.465 223.832 257.397 224.104 257.193 224.648C256.989 225.26 256.717 225.94 256.377 226.824C256.037 227.708 255.629 228.864 255.289 230.088C254.881 231.311 254.473 232.671 254.269 234.099C254.134 235.527 254.337 236.955 254.677 238.179C255.017 239.403 255.561 240.423 256.037 241.239C257.193 242.802 258.213 243.55 258.145 243.618Z" fill="#263238"/>
<path d="M251.271 276.942L248.688 246.889H304.375L300.703 277.35L251.271 276.942Z" fill="#263238"/>
<path d="M280.099 262.934C280.099 264.906 278.535 266.47 276.563 266.47C274.591 266.47 273.027 264.906 273.027 262.934C273.027 260.962 274.591 259.398 276.563 259.398C278.467 259.398 280.099 260.962 280.099 262.934Z" fill="#FAFAFA"/>
<path d="M275.535 282.854L284.986 284.145V294.413L276.283 294.209L275.535 282.854Z" fill="#FFBE9D"/>
<path d="M284.984 284.148H289.268C290.084 284.148 290.9 284.352 291.648 284.76L293.892 286.052C294.64 286.46 297.019 287.684 297.835 287.888C300.419 288.704 304.771 289.86 305.655 290.54C308.238 292.58 307.491 294.96 306.063 295.164C304.771 295.368 285.052 294.348 285.052 294.348V284.148H284.984Z" fill="#1CABA5"/>
<path d="M291.987 293.598C291.919 293.598 291.579 292.442 291.511 290.946C291.443 289.45 291.715 288.227 291.783 288.227C291.851 288.227 291.783 289.45 291.851 290.878C291.919 292.374 292.055 293.53 291.987 293.598Z" fill="#263238"/>
<path d="M294.027 293.53C293.959 293.53 293.891 292.442 293.891 291.083C293.891 289.723 293.959 288.635 294.095 288.635C294.163 288.635 294.231 289.723 294.231 291.083C294.163 292.442 294.095 293.53 294.027 293.53Z" fill="#263238"/>
<path d="M296.411 293.938C296.343 293.938 296.139 292.85 296.071 291.422C295.935 289.994 295.935 288.906 296.071 288.906C296.139 288.906 296.343 289.994 296.411 291.422C296.479 292.782 296.479 293.938 296.411 293.938Z" fill="#263238"/>
<path d="M290.151 290.806C290.151 290.806 289.811 290.737 289.267 290.534C288.723 290.33 287.975 289.922 287.159 289.242C286.955 289.038 286.751 288.902 286.547 288.698C286.343 288.494 286.139 288.222 286.003 287.95C285.867 287.61 285.867 287.202 286.139 286.862C286.275 286.726 286.479 286.59 286.683 286.59C286.887 286.59 287.091 286.59 287.227 286.658C288.587 287.134 289.811 288.494 290.015 290.126C290.219 291.825 289.335 293.389 288.111 294.137C287.839 294.341 287.499 294.477 287.159 294.545C286.955 294.545 286.819 294.613 286.615 294.545C286.411 294.477 286.275 294.341 286.207 294.137C286.071 293.797 286.207 293.389 286.343 293.185C286.479 292.913 286.683 292.709 286.887 292.505C287.635 291.757 288.451 291.349 288.995 291.145C289.539 290.941 289.879 290.873 289.879 290.873C289.879 290.873 289.607 291.009 289.063 291.281C288.519 291.553 287.839 291.961 287.091 292.709C286.887 292.913 286.751 293.117 286.615 293.321C286.479 293.525 286.411 293.865 286.547 294.069C286.683 294.273 286.955 294.341 287.227 294.273C287.499 294.205 287.771 294.069 288.043 293.865C289.131 293.117 289.947 291.689 289.743 290.126C289.539 288.63 288.451 287.338 287.227 286.93C286.955 286.794 286.615 286.862 286.479 287.066C286.343 287.27 286.275 287.542 286.411 287.814C286.615 288.29 287.091 288.698 287.431 289.038C288.859 290.466 290.219 290.738 290.151 290.806Z" fill="#263238"/>
<path d="M305.997 295.226C305.997 295.226 306.269 295.09 306.541 294.614C306.813 294.138 306.745 293.323 306.269 292.439C305.793 291.623 304.841 290.875 303.617 290.467C302.393 290.059 300.965 289.855 299.537 289.379C296.614 288.495 294.166 287.271 292.534 286.183C291.718 285.639 291.038 285.163 290.63 284.823C290.222 284.483 289.95 284.279 290.018 284.279C290.018 284.279 290.29 284.415 290.766 284.755C291.242 285.027 291.854 285.503 292.738 285.979C294.438 286.999 296.886 288.223 299.741 289.039C301.169 289.515 302.597 289.719 303.821 290.195C305.045 290.671 306.065 291.419 306.541 292.371C307.017 293.255 307.017 294.206 306.745 294.682C306.609 294.954 306.405 295.09 306.337 295.158C306.065 295.226 305.997 295.226 305.997 295.226Z" fill="#263238"/>
<path d="M299.555 208.537C299.555 208.537 299.555 208.605 299.555 208.673C299.555 208.809 299.555 208.945 299.555 209.081C299.487 209.489 299.487 210.033 299.419 210.713C299.283 212.141 299.079 214.248 298.807 216.9V217.036L298.671 216.968C296.427 215.744 293.639 214.316 290.444 212.617L290.648 212.549C289.288 214.86 287.792 217.376 286.16 220.096L286.092 220.232L285.956 220.096C283.576 218.328 281.06 216.356 278.477 214.316H278.681C277.661 215.132 276.505 216.016 275.417 216.9C273.921 218.056 272.425 219.28 270.929 220.368L270.793 220.504L270.725 220.3C269.229 217.58 267.802 214.928 266.51 212.413L266.714 212.481C263.45 213.908 260.39 215.268 257.738 216.492L257.602 216.56V216.356C257.058 213.296 256.65 210.577 256.242 208.333L256.378 208.401C254.203 209.217 252.435 209.897 251.211 210.373C250.599 210.577 250.191 210.781 249.851 210.849C249.715 210.917 249.579 210.917 249.511 210.985C249.443 210.985 249.375 211.053 249.375 210.985C249.375 210.985 249.443 210.985 249.511 210.917C249.579 210.849 249.715 210.849 249.851 210.781C250.191 210.645 250.599 210.441 251.211 210.237C252.435 209.761 254.135 209.081 256.31 208.197L256.446 208.129V208.265C256.854 210.509 257.33 213.16 257.874 216.288L257.67 216.152C260.39 214.928 263.382 213.568 266.646 212.073L266.782 212.005L266.85 212.141C268.209 214.656 269.637 217.24 271.133 219.96L270.861 219.892C272.289 218.736 273.785 217.58 275.349 216.424C276.437 215.54 277.593 214.656 278.613 213.84L278.749 213.772L278.885 213.84C281.536 215.88 284.052 217.784 286.364 219.62L286.092 219.688C287.724 216.968 289.22 214.452 290.58 212.209L290.648 212.073L290.784 212.141C293.911 213.84 296.699 215.336 298.943 216.56L298.807 216.628C299.079 213.976 299.351 211.937 299.555 210.441C299.623 209.761 299.691 209.217 299.759 208.809C299.759 208.605 299.827 208.469 299.827 208.401C299.555 208.605 299.555 208.537 299.555 208.537Z" fill="#F5F5F5"/>
<path d="M306.209 216.079C306.209 216.079 306.209 216.147 306.141 216.283C306.073 216.419 306.073 216.623 306.005 216.827C305.869 217.371 305.665 218.119 305.393 219.071C304.849 221.043 304.101 223.83 303.149 227.366L303.081 227.502L302.945 227.434C300.225 226.142 296.962 224.578 293.358 222.811L293.562 222.743C291.114 226.21 288.394 230.154 285.47 234.234L285.335 234.37L285.199 234.234C282.751 231.718 280.099 229.066 277.447 226.346C276.903 225.802 276.359 225.258 275.815 224.714H276.019C272.348 227.026 268.88 229.202 265.548 231.242L265.412 231.31L265.344 231.174C263.304 227.638 261.4 224.238 259.701 221.179L259.905 221.247C255.757 222.675 252.153 223.898 249.161 224.918L249.025 224.986L248.957 224.918C247.938 221.995 247.122 219.615 246.578 217.983C246.306 217.167 246.102 216.555 245.966 216.147C245.898 215.943 245.83 215.807 245.83 215.671C245.83 215.535 245.762 215.535 245.762 215.535C245.762 215.535 245.762 215.603 245.83 215.671C245.898 215.807 245.966 215.943 246.034 216.147C246.17 216.555 246.442 217.167 246.714 217.983C247.326 219.615 248.142 221.927 249.161 224.85L249.025 224.782C252.017 223.762 255.621 222.471 259.769 220.975L259.905 220.907L259.973 221.043C261.74 224.102 263.644 227.434 265.616 230.97L265.412 230.902C268.744 228.794 272.212 226.618 275.883 224.306L276.019 224.238L276.087 224.306C276.631 224.85 277.175 225.394 277.719 225.938C280.371 228.658 283.023 231.31 285.47 233.826H285.199C288.122 229.678 290.842 225.802 293.29 222.335L293.358 222.199L293.494 222.267C297.098 224.034 300.361 225.598 303.081 226.958L302.945 227.026C303.965 223.559 304.713 220.703 305.257 218.799C305.529 217.847 305.733 217.099 305.869 216.623C305.937 216.419 306.005 216.215 306.073 216.079C306.141 216.147 306.209 216.079 306.209 216.079Z" fill="#F5F5F5"/>
<path d="M299.34 168.691C296.621 168.963 293.765 168.079 291.725 166.312C294.173 167.535 297.505 165.836 298.388 163.184C299.272 160.532 298.524 155.636 296.349 153.937C294.309 152.305 291.453 151.625 288.869 152.305C286.285 152.985 283.634 156.86 282.75 159.376L282.818 159.444C282.41 159.308 282.002 159.172 281.662 159.036C278.806 158.084 275.814 157.608 272.891 157.948C269.899 158.288 267.043 159.444 264.867 161.484L282.138 189.294C285.266 189.022 288.053 186.914 289.685 184.194C291.317 181.474 291.929 178.279 292.133 175.151C292.201 174.335 292.201 173.587 292.133 172.771C293.969 173.043 295.873 173.383 297.709 173.655C296.689 172.295 295.465 171.207 294.037 170.323C295.873 171.071 298.184 170.323 299.34 168.691Z" fill="#263238"/>
<path d="M277.407 211.776C282.099 211.708 285.839 207.9 285.907 203.208L286.315 168.667C286.315 167.239 285.295 166.015 283.867 165.879L269.248 162.208C264.557 161.732 261.429 167.443 261.157 172.135C260.817 177.37 260.613 183.762 261.225 187.638C262.449 195.457 268.432 196.477 268.432 196.477C268.432 196.477 268.432 199.537 268.432 203.208C268.568 207.968 272.58 211.844 277.407 211.776Z" fill="#FFBE9D"/>
<path d="M264.242 177.177C264.242 177.72 264.65 178.128 265.194 178.196C265.738 178.196 266.214 177.788 266.214 177.312C266.214 176.769 265.806 176.361 265.262 176.293C264.718 176.225 264.242 176.633 264.242 177.177Z" fill="#263238"/>
<path d="M262.599 175.412C262.735 175.548 263.483 175.005 264.571 175.005C265.659 175.005 266.475 175.548 266.543 175.412C266.611 175.345 266.475 175.141 266.135 174.869C265.795 174.597 265.183 174.393 264.571 174.393C263.891 174.393 263.347 174.665 263.007 174.869C262.667 175.141 262.531 175.345 262.599 175.412Z" fill="#263238"/>
<path d="M274.492 177.178C274.492 177.722 274.9 178.13 275.444 178.198C275.988 178.198 276.464 177.79 276.464 177.314C276.464 176.77 276.056 176.363 275.512 176.295C274.968 176.227 274.492 176.635 274.492 177.178Z" fill="#263238"/>
<path d="M273.204 175.616C273.34 175.752 274.088 175.208 275.176 175.208C276.264 175.208 277.08 175.752 277.148 175.616C277.216 175.548 277.08 175.344 276.74 175.072C276.4 174.8 275.788 174.596 275.176 174.596C274.496 174.596 273.952 174.868 273.612 175.072C273.272 175.344 273.137 175.548 273.204 175.616Z" fill="#263238"/>
<path d="M269.251 183.635C269.251 183.567 268.571 183.431 267.483 183.295C267.211 183.295 266.939 183.227 266.871 183.023C266.803 182.819 266.939 182.547 267.075 182.207C267.347 181.527 267.619 180.847 267.891 180.099C269.047 177.107 269.863 174.659 269.727 174.591C269.591 174.523 268.571 176.903 267.483 179.895C267.211 180.643 266.939 181.323 266.735 182.003C266.599 182.343 266.463 182.683 266.599 183.091C266.667 183.295 266.871 183.431 267.075 183.499C267.279 183.567 267.415 183.567 267.551 183.567C268.571 183.703 269.251 183.703 269.251 183.635Z" fill="#263238"/>
<path d="M268.508 196.424C268.508 196.424 273.743 196.764 278.979 193.637C278.979 193.637 276.463 199.008 268.576 198.26L268.508 196.424Z" fill="#EB996E"/>
<path d="M269.738 186.213C270.146 185.669 270.826 185.397 271.506 185.465C271.981 185.533 272.457 185.737 272.729 186.145C273.001 186.553 273.069 187.097 272.797 187.437C272.525 187.845 271.913 187.913 271.37 187.777C270.826 187.641 270.418 187.301 270.01 186.961C269.874 186.893 269.806 186.757 269.67 186.621C269.602 186.553 269.602 186.349 269.738 186.213Z" fill="#EB996E"/>
<path d="M272.474 184.375C272.27 184.375 272.27 185.531 271.318 186.347C270.298 187.163 269.074 187.027 269.074 187.231C269.074 187.299 269.346 187.435 269.89 187.503C270.434 187.503 271.182 187.367 271.794 186.823C272.406 186.279 272.678 185.599 272.678 185.123C272.678 184.647 272.542 184.375 272.474 184.375Z" fill="#263238"/>
<path d="M272.729 173.715C272.865 173.987 273.885 173.851 275.177 174.055C276.469 174.191 277.489 174.531 277.625 174.259C277.693 174.123 277.489 173.851 277.081 173.579C276.673 173.307 275.993 173.035 275.245 172.967C274.497 172.899 273.817 173.035 273.341 173.171C272.933 173.375 272.661 173.579 272.729 173.715Z" fill="#263238"/>
<path d="M262.715 173.443C262.919 173.715 263.667 173.443 264.551 173.443C265.435 173.375 266.183 173.579 266.387 173.375C266.455 173.239 266.319 173.035 265.979 172.763C265.639 172.559 265.095 172.355 264.483 172.355C263.871 172.355 263.327 172.627 263.055 172.831C262.715 173.035 262.647 173.307 262.715 173.443Z" fill="#263238"/>
<path d="M285.528 178.336C286.14 177.928 286.956 178.064 287.568 178.472C288.996 179.288 289.744 181.192 289.2 182.756C288.656 184.32 286.956 185.408 285.324 185.204" fill="#FFBE9D"/>
<path d="M286.073 182.827C286.073 182.759 286.345 182.895 286.753 182.691C287.093 182.555 287.433 182.011 287.433 181.331C287.433 180.651 287.025 180.243 286.617 180.107C286.209 179.971 285.938 180.039 285.938 179.971C285.938 179.903 286.209 179.699 286.753 179.835C287.025 179.903 287.297 180.039 287.501 180.311C287.705 180.583 287.841 180.923 287.909 181.331C287.977 182.147 287.501 182.827 286.957 182.963C286.277 183.167 286.005 182.895 286.073 182.827Z" fill="#EB996E"/>
<path d="M288.189 184.464C288.189 184.464 288.325 184.532 288.529 184.736C288.801 184.939 289.141 185.211 289.481 185.551C290.365 186.299 291.52 187.251 292.88 188.407L293.016 188.475L292.948 188.611C291.724 190.107 290.297 192.011 288.733 193.983C288.393 194.459 288.053 194.867 287.645 195.275L287.373 195.615V195.139C287.237 191.943 287.101 189.155 287.033 187.115C287.033 186.163 286.965 185.347 286.965 184.736C286.965 184.192 286.965 183.852 286.965 183.852C286.965 183.852 287.033 184.124 287.101 184.736C287.169 185.347 287.169 186.163 287.237 187.115C287.373 189.155 287.509 191.943 287.645 195.139L287.305 195.003C287.645 194.595 287.985 194.187 288.325 193.711C289.889 191.739 291.316 189.835 292.608 188.339V188.543C291.248 187.319 290.161 186.367 289.345 185.551C289.005 185.211 288.665 184.939 288.461 184.736C288.257 184.532 288.189 184.464 288.189 184.464Z" fill="#455A64"/>
<path d="M272.343 158.695C270.439 158.763 268.467 158.831 266.632 159.307C264.796 159.783 262.96 160.667 261.668 162.095C260.376 163.523 259.764 165.563 260.308 167.399C260.852 169.234 262.756 170.662 264.66 170.39C266.088 170.186 267.515 169.098 268.875 169.574C270.167 169.982 270.915 171.546 272.275 171.818C273.635 172.09 274.791 170.866 276.151 170.73C277.647 170.594 278.939 171.818 279.618 173.178C280.298 174.538 280.502 176.034 281.182 177.394C281.59 178.278 282.27 179.094 283.222 179.298C284.106 179.502 284.99 179.162 285.67 178.618C286.35 178.074 286.758 177.258 287.098 176.442C288.526 172.974 288.186 168.894 286.282 165.631C284.378 162.435 280.91 160.191 277.239 159.783" fill="#263238"/>
<path d="M291.447 167.055C291.379 167.055 291.175 166.443 290.699 165.491C290.223 164.539 289.407 163.316 288.183 162.228C286.959 161.14 285.667 160.46 284.648 160.052C283.628 159.644 283.016 159.576 283.016 159.508C283.016 159.508 283.22 159.508 283.492 159.508C283.764 159.508 284.24 159.644 284.783 159.78C285.803 160.12 287.231 160.8 288.455 161.956C289.679 163.112 290.563 164.403 290.971 165.423C291.175 165.899 291.311 166.375 291.379 166.647C291.447 166.851 291.447 167.055 291.447 167.055Z" fill="#1CABA5"/>
<path d="M297.435 155.57C297.435 155.638 296.755 155.23 295.531 154.958C294.375 154.754 292.607 154.822 290.975 155.638C289.343 156.454 288.119 157.745 287.439 158.697C286.692 159.649 286.352 160.397 286.352 160.329C286.352 160.329 286.42 160.125 286.556 159.853C286.692 159.513 286.964 159.105 287.303 158.561C287.983 157.541 289.139 156.182 290.907 155.298C292.675 154.414 294.511 154.346 295.735 154.686C296.347 154.822 296.823 155.026 297.095 155.23C297.299 155.434 297.435 155.57 297.435 155.57Z" fill="#455A64"/>
<path d="M289.884 164.746C289.952 164.746 290.02 165.358 289.884 166.378C289.816 167.398 289.476 168.758 288.932 170.118C288.32 171.546 287.504 172.633 286.892 173.381C286.212 174.129 285.736 174.537 285.736 174.469C285.668 174.401 287.504 172.701 288.66 169.914C289.816 167.262 289.748 164.746 289.884 164.746Z" fill="#455A64"/>
<path d="M290.089 164.955C290.089 164.955 290.157 165.091 290.293 165.431C290.429 165.703 290.497 166.179 290.633 166.723C290.837 167.811 290.837 169.443 290.429 171.075C290.021 172.774 289.205 174.134 288.525 175.018C288.185 175.494 287.845 175.766 287.641 176.038C287.437 176.242 287.301 176.378 287.233 176.31C287.165 176.242 287.641 175.766 288.321 174.882C288.933 173.998 289.681 172.638 290.089 171.007C290.497 169.375 290.497 167.879 290.429 166.791C290.225 165.635 290.089 164.955 290.089 164.955Z" fill="#455A64"/>
<path d="M310.703 166.724C308.731 167.336 307.847 170.192 309.139 171.755C310.431 173.387 313.354 173.183 314.442 171.348C315.462 169.58 314.238 166.928 312.199 166.588" fill="#EBEBEB"/>
<path d="M319.876 153.327C317.632 154.075 316.612 157.271 318.108 159.107C319.604 160.942 322.936 160.738 324.159 158.631C325.383 156.591 323.888 153.531 321.576 153.123" fill="#EBEBEB"/>
<path d="M339.529 94.4435C333.41 93.8995 327.154 95.3274 322.939 99.815C318.723 104.303 316.683 110.83 317.635 116.882C311.108 119.601 307.504 127.897 310.088 134.56C312.604 141.156 320.831 144.963 327.562 142.584C330.554 150.199 337.762 155.978 345.853 157.27C353.944 158.562 362.58 155.299 367.815 148.975C374.207 150.403 381.414 150.335 386.854 146.527C392.225 142.788 394.673 134.492 390.593 129.325C398.005 127.557 401.744 118.31 399.569 111.034C397.393 103.759 390.797 98.5231 383.794 95.5314C379.17 93.5595 373.391 92.5396 369.447 95.6674C366.251 90.7718 360.676 87.576 354.896 87.372C348.913 87.1681 343.065 89.8878 339.529 94.4435Z" fill="#F5F5F5"/>
<path d="M339.538 94.4415C339.538 94.4415 339.674 94.3055 339.878 93.9655C340.15 93.6255 340.49 93.2176 341.102 92.6736C342.19 91.5857 344.025 90.0898 346.813 88.8659C348.173 88.254 349.805 87.778 351.641 87.506C353.477 87.2341 355.448 87.2341 357.556 87.71C359.664 88.118 361.84 89.0019 363.948 90.2938C365.988 91.5857 367.959 93.4216 369.455 95.7334H369.251C370.815 94.5095 372.923 93.7615 375.099 93.7615C377.275 93.6935 379.45 94.1015 381.626 94.7814C383.802 95.5294 385.978 96.4813 388.018 97.7052C390.126 98.9291 392.165 100.425 394.001 102.193C395.837 103.961 397.469 106.069 398.625 108.516C399.169 109.74 399.645 111.032 399.917 112.392C400.189 113.752 400.325 115.112 400.189 116.54C399.985 119.327 399.169 122.115 397.537 124.563C396.721 125.719 395.769 126.875 394.545 127.759C393.321 128.643 391.961 129.323 390.534 129.663L390.602 129.391C391.486 130.547 392.097 131.838 392.437 133.266C392.777 134.694 392.777 136.19 392.573 137.618C392.097 140.542 390.67 143.329 388.494 145.437C386.318 147.613 383.394 148.905 380.402 149.585C377.343 150.265 374.215 150.265 371.087 149.857C369.931 149.721 368.843 149.517 367.755 149.245L367.959 149.177C362.316 155.976 353.069 158.968 344.977 157.336C340.898 156.52 337.226 154.617 334.166 152.033C331.174 149.449 328.795 146.253 327.435 142.718L327.639 142.786C323.763 144.145 319.547 143.465 316.216 141.562C312.884 139.726 310.368 136.598 309.552 133.13C308.736 129.663 309.416 126.059 310.912 123.135C312.476 120.211 314.856 117.968 317.644 116.812L317.508 116.948C317.1 114.092 317.304 111.372 317.916 108.856C318.527 106.341 319.615 104.165 320.839 102.261C321.451 101.309 322.199 100.493 322.879 99.677C323.627 98.9291 324.375 98.2492 325.123 97.7052C326.687 96.5493 328.319 95.8694 329.815 95.3254C332.806 94.3735 335.322 94.2375 336.954 94.2375C338.654 94.3735 339.538 94.4415 339.538 94.4415C339.538 94.4415 339.334 94.4415 338.926 94.4415C338.518 94.4415 337.906 94.3735 337.022 94.3735C335.39 94.3735 332.874 94.5095 329.951 95.5294C328.455 96.0053 326.823 96.7533 325.327 97.9092C324.511 98.4531 323.831 99.1331 323.083 99.881C322.403 100.629 321.723 101.445 321.111 102.397C319.887 104.233 318.867 106.476 318.255 108.924C317.644 111.372 317.44 114.092 317.848 116.88V116.948L317.78 117.016C315.06 118.172 312.68 120.347 311.184 123.271C309.688 126.127 309.008 129.663 309.824 133.062C310.64 136.462 313.088 139.522 316.352 141.358C319.615 143.194 323.763 143.805 327.503 142.514L327.639 142.446L327.707 142.582C329.067 146.049 331.378 149.245 334.37 151.761C337.362 154.277 341.034 156.18 344.977 156.996C352.933 158.628 362.044 155.637 367.619 148.973L367.687 148.905H367.823C368.911 149.109 369.999 149.381 371.155 149.517C374.215 149.925 377.343 149.925 380.334 149.245C383.326 148.565 386.114 147.273 388.29 145.233C390.398 143.126 391.826 140.406 392.233 137.618C392.709 134.762 392.097 131.838 390.398 129.663L390.262 129.459L390.534 129.391C391.961 129.051 393.253 128.371 394.409 127.555C395.565 126.739 396.517 125.583 397.333 124.427C398.897 122.047 399.781 119.327 399.917 116.608C400.053 115.248 399.917 113.888 399.645 112.528C399.373 111.236 398.897 109.944 398.353 108.72C397.197 106.341 395.633 104.233 393.797 102.465C392.029 100.697 389.99 99.2011 387.882 97.9772C385.842 96.7533 383.666 95.7334 381.49 95.0534C379.314 94.3055 377.139 93.9655 375.031 94.0335C372.923 94.1015 370.883 94.7814 369.319 95.9374L369.183 96.0053L369.115 95.8694C367.619 93.6255 365.716 91.8577 363.676 90.4978C361.636 89.2059 359.46 88.322 357.42 87.914C355.312 87.438 353.341 87.506 351.505 87.71C349.669 87.982 348.105 88.458 346.745 89.0019C344.025 90.1578 342.19 91.6537 341.034 92.7416C340.49 93.2856 340.082 93.6935 339.81 94.0335C339.674 94.3055 339.538 94.4415 339.538 94.4415Z" fill="#263238"/>
<path d="M381.559 115.657C381.559 115.929 369.524 116.201 354.633 116.201C339.742 116.201 327.707 115.997 327.707 115.657C327.707 115.385 339.742 115.113 354.633 115.113C369.524 115.113 381.559 115.385 381.559 115.657Z" fill="#455A64"/>
<path d="M381.559 121.503C381.559 121.775 369.524 122.047 354.633 122.047C339.742 122.047 327.707 121.843 327.707 121.503C327.707 121.231 339.742 120.959 354.633 120.959C369.524 120.959 381.559 121.231 381.559 121.503Z" fill="#455A64"/>
<path d="M381.559 127.349C381.559 127.621 369.524 127.893 354.633 127.893C339.742 127.893 327.707 127.689 327.707 127.349C327.707 127.077 339.742 126.805 354.633 126.805C369.524 126.805 381.559 127.077 381.559 127.349Z" fill="#455A64"/>
<path d="M381.559 133.2C381.559 133.472 369.524 133.744 354.633 133.744C339.742 133.744 327.707 133.54 327.707 133.2C327.707 132.928 339.742 132.656 354.633 132.656C369.524 132.656 381.559 132.928 381.559 133.2Z" fill="#455A64"/>
</g>
<defs>
<clipPath id="clip0_1244_79497">
<rect width="476.301" height="295.3" fill="white" transform="translate(0.644531)"/>
</clipPath>
</defs>
</svg>
