<svg width="560" height="512" viewBox="0 0 560 512" fill="none" xmlns="http://www.w3.org/2000/svg">
<path opacity="0.1" d="M17.2636 224.065C38.6055 184.937 81.8141 155.068 92.5725 150.264C162.196 119.084 226.134 59.7806 296.807 34.4523C367.481 9.12397 448.3 21.1768 525.62 122.839C567.08 177.426 570.054 231.926 537.866 265.377C417.686 390.534 275.028 431.408 124.41 378.655C94.6717 368.262 64.4957 354.113 34.2322 325.903C-2.85376 291.491 0.469979 254.983 17.2636 224.065Z" fill="#1FB9B3"/>
<path opacity="0.1" d="M19.268 184.17C46.3831 148.802 93.6157 125.835 104.987 122.691C178.547 102.431 250.795 53.527 324.531 39.2925C398.266 25.058 476.287 49.1606 537.253 161.377C569.966 221.634 564.542 275.952 527.631 304.072C389.607 409.477 242.399 428.252 101.575 353.237C73.7605 338.392 46.0332 319.878 20.4926 287.392C-10.9083 247.745 -2.0741 212.115 19.268 184.17Z" fill="#1FB9B3"/>
<path d="M84.0043 249.206C83.4636 249.206 83.4636 242.089 81.3009 233.329C79.6789 227.854 79.1382 224.569 75.8941 221.831C71.5686 217.451 66.1618 216.904 63.999 216.904C66.1618 216.356 68.8652 214.714 71.5686 211.976C75.3534 208.144 76.4347 203.216 77.5161 198.289C78.0568 195.004 79.1382 190.076 78.5975 184.054C78.5975 182.959 79.1382 198.836 87.7891 206.501C92.1146 210.334 96.9807 211.429 100.225 211.429C97.5214 212.524 92.1145 214.714 88.8704 219.094C87.2484 221.284 86.7077 223.474 85.6264 228.949C85.0857 240.994 84.545 249.206 84.0043 249.206Z" fill="white"/>
<path d="M64.0454 326.433C64.0454 326.433 62.8738 321.45 59.3995 316.258C57.8509 312.866 56.637 310.898 53.9995 309.265C50.4829 307.087 46.7565 307.212 45.3329 307.547C46.5892 306.5 48.5572 305.287 49.4787 302.816C51.6564 299.3 51.6988 296.285 51.5738 292.559C51.7835 290.256 51.1141 287.409 50.1099 283.138C49.9425 282.426 53.1648 292.936 60.0307 296.58C63.38 298.046 67.1064 297.921 68.6973 298.298C66.7293 299.512 64.2168 301.605 62.7509 304.954C62.3738 306.545 61.9967 308.136 62.1217 311.862C63.4183 320.571 64.7572 326.266 64.0454 326.433Z" fill="white"/>
<mask id="mask0_561_31959" style="mask-type:alpha" maskUnits="userSpaceOnUse" x="24" y="246" width="85" height="58">
<path d="M73.6926 249.544C88.6126 245.58 103.921 254.462 107.885 269.382C111.849 284.302 102.967 299.61 88.0473 303.574C73.1273 307.538 28.2887 268.611 24.3248 253.691C20.3609 238.771 58.7726 253.508 73.6926 249.544Z" fill="#FFCB3C"/>
</mask>
<g mask="url(#mask0_561_31959)">
<path fill-rule="evenodd" clip-rule="evenodd" d="M78.5681 281.052C78.3815 282.966 78.8023 284.971 80.0048 286.997C84.1109 293.913 90.3291 295.612 96.8304 294.422C105.968 292.749 115.656 285.159 119.926 279.462C120.425 278.796 120.291 277.79 119.628 277.215C118.965 276.642 118.022 276.715 117.523 277.381C113.563 282.663 104.599 289.732 96.1265 291.283C90.8862 292.243 85.8291 291.01 82.5187 285.435C81.8029 284.23 81.5198 283.04 81.5662 281.895C82.3033 282.079 83.0374 282.248 83.7667 282.399C86.6864 283.003 94.3429 283.082 99.3903 281.078C103.384 279.49 105.763 276.633 104.424 272.3C103.658 269.818 101.739 268.325 99.1329 267.792C95.9197 267.136 91.5399 268.031 87.6613 270.026C84.4357 271.683 81.5705 274.089 79.969 276.86C79.7445 277.248 79.5435 277.644 79.3672 278.045C65.3644 273.76 50.5724 263.409 42.0482 251.117C41.542 250.387 40.5985 250.191 39.9403 250.679C39.2835 251.167 39.1625 252.157 39.6686 252.887C48.5593 265.708 63.955 276.525 78.5681 281.052ZM82.4333 278.889C83.0067 279.028 83.5789 279.157 84.1476 279.274C86.7683 279.817 93.64 279.886 98.171 278.087C100.569 277.134 102.375 275.702 101.572 273.1C101.178 271.824 100.098 271.191 98.7582 270.918C96.9824 270.554 94.7869 270.816 92.5643 271.499C89.1168 272.561 85.6073 274.658 83.4639 277.342C83.068 277.837 82.7197 278.354 82.4333 278.889Z" fill="white"/>
<path fill-rule="evenodd" clip-rule="evenodd" d="M62.808 258.431C55.8967 258.861 47.599 255.963 41.3498 252.182C40.6066 251.733 39.6986 251.983 39.3219 252.743C38.9467 253.502 39.245 254.485 39.9883 254.935C46.7419 259.019 55.7173 262.089 63.1843 261.624C64.0107 261.572 64.5967 260.815 64.4924 259.934C64.3882 259.053 63.6344 258.379 62.808 258.431Z" fill="white"/>
<path fill-rule="evenodd" clip-rule="evenodd" d="M39.5556 255.162C43.5343 259.442 45.9686 266.947 46.1678 272.82C46.1975 273.673 46.8711 274.379 47.6705 274.396C48.4699 274.413 49.0959 273.737 49.0676 272.884C48.8414 266.281 46.033 257.867 41.5593 253.054C40.9815 252.431 40.0617 252.398 39.5094 252.98C38.957 253.562 38.9779 254.54 39.5556 255.162Z" fill="white"/>
</g>
<path d="M402.873 221.575C437.932 262.145 451.176 301.154 456.63 324.56C463.642 354.207 472.991 391.656 452.734 415.062C434.815 434.566 405.21 433.786 387.291 433.006C322.626 429.885 276.66 386.195 259.52 366.69L402.873 221.575Z" fill="#1C9792"/>
<path d="M159.019 215.334C123.959 255.904 110.715 294.913 105.261 318.319C98.2494 347.966 88.9003 385.415 109.157 408.82C127.076 428.325 156.681 427.545 174.6 426.765C239.265 423.644 285.232 379.953 302.372 360.449L159.019 215.334Z" fill="#1C9792"/>
<path d="M206.541 83.4815C206.541 92.8438 207.32 97.5249 208.099 102.986C214.332 130.293 237.704 157.599 257.182 154.479C264.973 152.918 269.647 146.677 269.647 146.677C279.775 133.414 261.856 114.689 259.519 88.1626C257.182 39.0108 278.217 14.8249 265.752 4.68248C255.624 -3.89959 230.693 5.46267 216.669 20.2862C204.203 34.3296 205.762 55.3947 206.541 83.4815Z" fill="#414042"/>
<path d="M166.029 224.696C242.38 223.915 318.731 223.915 395.082 223.135C393.524 215.333 390.408 205.191 381.838 196.609C364.698 180.225 344.441 187.247 326.522 175.544C316.394 168.522 303.929 154.479 299.254 121.711C299.254 113.129 295.359 106.107 291.463 106.107C287.568 106.107 282.114 112.348 281.335 122.491C275.881 122.491 271.207 123.271 265.753 123.271C264.195 123.271 261.858 123.271 260.299 124.051C258.741 124.051 257.962 124.051 257.183 124.051C256.404 137.314 254.067 147.457 251.729 155.259C247.834 165.401 242.38 170.863 237.706 174.764C220.566 187.247 199.53 179.445 182.39 195.829C171.483 205.971 167.587 216.894 166.029 224.696Z" fill="#FC8872"/>
<path d="M250.952 156.039C253.289 157.6 255.627 158.38 258.743 158.38C267.313 158.38 274.325 150.578 274.325 140.435C274.325 133.414 271.209 127.172 265.755 124.052C264.197 124.052 261.859 124.052 260.301 124.832C258.743 124.832 257.964 124.832 257.185 124.832C256.406 138.095 254.069 148.237 250.952 156.039Z" fill="#414042"/>
<path d="M212.775 220.015C211.996 220.015 211.216 220.015 210.437 220.795C208.879 221.575 208.879 223.915 209.658 226.256C261.078 226.256 311.719 226.256 363.139 226.256C363.919 224.696 363.139 223.135 362.36 221.575C360.802 220.795 359.244 220.795 359.244 220.795C338.988 215.333 322.627 215.333 311.719 216.894C303.149 217.674 300.812 219.234 290.684 219.234C273.544 220.015 265.753 216.894 251.729 216.114C242.38 215.333 229.136 215.333 212.775 220.015Z" fill="white"/>
<path d="M290.684 188.027C288.346 190.367 285.23 191.928 282.114 191.148C277.439 190.367 275.881 185.686 275.881 185.686L290.684 188.027Z" fill="#414042"/>
<path d="M274.324 195.829C273.545 196.609 271.208 197.389 269.649 198.169C262.638 200.51 256.405 199.73 251.73 199.73C236.148 198.169 222.125 196.609 217.45 195.829C228.357 195.829 240.044 196.609 250.951 196.609L274.324 195.829Z" fill="#414042"/>
<path d="M288.347 195.829C289.126 196.609 291.463 197.389 293.021 198.169C300.033 200.51 306.266 199.73 310.94 199.73C326.522 198.169 340.546 196.609 345.22 195.829C334.313 195.829 322.627 196.609 311.719 196.609L288.347 195.829Z" fill="#414042"/>
<path d="M351.452 299.594C345.998 329.241 339.766 358.888 334.312 387.755C342.882 397.117 353.01 408.82 361.58 423.644C375.604 447.05 381.837 469.675 384.953 487.619C381.837 489.18 377.941 489.96 374.825 491.52C365.476 494.641 356.126 497.762 347.556 500.883C342.882 502.443 338.207 504.003 333.533 506.344C329.637 507.904 324.963 510.245 321.067 511.025C317.172 512.585 312.497 511.805 307.823 511.805C303.148 511.805 299.253 511.025 294.578 510.245C289.904 509.465 286.008 509.465 281.334 508.684C276.659 508.684 271.984 508.684 267.31 508.684C257.961 508.684 247.833 509.465 238.483 510.245C229.134 511.025 219.785 511.805 210.436 510.245C201.087 509.465 192.517 506.344 183.947 504.003C182.389 503.223 180.831 503.223 179.272 502.443C181.61 482.938 187.063 454.071 204.983 422.864C213.553 408.04 223.681 395.557 232.251 386.975C226.797 357.328 220.564 327.681 215.111 298.814C204.203 293.352 196.413 282.43 196.413 269.947C196.413 261.365 199.529 254.343 204.983 248.102C203.424 240.3 201.866 232.498 200.308 224.696C204.203 220.015 211.215 213.773 219.785 209.092C247.833 195.049 277.438 208.312 282.113 210.652C287.566 208.312 317.172 195.049 345.219 209.092C353.789 213.773 360.801 219.235 364.696 224.696C363.138 232.498 361.58 240.3 360.022 248.102C365.476 253.563 368.592 261.365 368.592 269.947C369.371 282.43 362.359 294.133 351.452 299.594Z" fill="#1C9792"/>
<path d="M212.773 99.0854C212.773 107.667 216.669 113.909 220.564 121.711C221.343 123.271 230.693 139.655 240.042 142.776C243.158 143.556 247.054 144.336 247.054 144.336C249.391 144.336 251.728 144.336 254.065 143.556C257.182 142.776 278.217 137.315 293.02 120.15C311.718 99.0854 325.742 54.6146 303.148 28.0882C289.124 12.4844 266.531 10.9241 257.961 10.9241C257.182 10.9241 255.624 10.9241 254.844 10.9241C254.844 10.9241 250.17 11.7043 246.274 12.4844C230.693 16.3854 222.902 24.9675 222.902 24.9675C215.111 33.5495 213.553 45.2524 213.553 54.6146C213.553 56.175 213.553 58.5156 213.553 60.0759C213.553 61.6363 213.553 63.1967 213.553 63.9769V64.7571C213.553 66.3174 213.553 67.8778 214.332 69.4382C214.332 71.7788 215.111 74.1193 215.111 78.0203C214.332 89.7231 212.773 92.0637 212.773 99.0854Z" fill="#FC8872"/>
<path d="M264.977 90.5033C262.639 90.5033 260.302 90.5033 257.965 88.9429C257.186 88.9429 256.407 88.1627 255.627 87.3825L251.732 83.4816C251.732 83.4816 250.953 82.7014 251.732 81.9212C251.732 81.9212 252.511 81.141 253.29 81.9212L257.186 85.8222C257.965 85.8222 258.744 86.6023 259.523 86.6023C267.314 89.7231 275.105 85.8222 279 83.4816C279.779 83.4816 279.779 83.4816 280.558 83.4816C280.558 84.2618 280.558 84.2618 280.558 85.042C275.884 88.1627 270.43 90.5033 264.977 90.5033Z" fill="#414042"/>
<path d="M222.903 91.2836C220.565 91.2836 219.007 91.2836 216.67 89.7233C215.112 88.9431 212.774 87.3827 211.995 85.8223L208.879 81.1412C208.879 80.361 208.879 80.361 208.879 79.5808C209.658 79.5808 209.658 79.5808 210.437 79.5808L213.553 84.2619C214.333 85.8223 215.891 86.6025 217.449 87.3827C223.682 90.5034 231.473 86.6025 232.252 85.8223C233.031 85.8223 233.031 85.8223 233.81 85.8223C233.81 86.6025 233.81 86.6025 233.81 87.3827C232.252 88.9431 228.356 91.2836 222.903 91.2836Z" fill="#414042"/>
<path d="M278.997 67.8781C275.102 67.0979 268.869 66.3178 261.857 66.3178C255.625 66.3178 250.95 67.8781 247.055 68.6583C247.055 67.8781 247.055 67.0979 247.055 66.3178C247.834 63.9772 248.613 62.4168 249.392 60.8564C254.067 60.8564 257.962 60.8564 261.078 60.8564C268.09 60.8564 270.427 61.6366 271.207 62.4168C275.881 63.9772 278.218 66.3178 278.997 67.8781Z" fill="#414042"/>
<path d="M247.835 60.8564C247.056 61.6366 247.056 62.4167 246.277 63.9771C245.498 66.3177 245.498 68.6582 246.277 68.6582C246.277 68.6582 247.056 65.5375 247.835 64.7573C247.835 63.1969 248.614 62.4167 249.393 60.8564C249.393 60.8564 249.393 60.0762 250.172 60.0762L247.835 60.8564Z" fill="#414042"/>
<path d="M213.555 68.6581V69.4383C213.555 70.9987 213.555 72.5591 214.334 74.1194H215.113C221.346 74.1194 226.02 74.8996 229.916 75.6798C229.916 74.8996 229.916 74.1194 229.137 73.3392C228.357 70.9987 227.578 69.4383 226.02 67.8779C221.346 67.8779 217.45 68.6581 214.334 68.6581H213.555Z" fill="#414042"/>
<path d="M229.137 67.0976C229.916 67.8778 229.916 68.6579 230.695 70.2183C231.475 72.5589 231.475 74.8995 231.475 74.8995C231.475 74.8995 229.916 71.7787 229.916 70.9985C229.916 69.4381 229.137 68.658 228.358 67.0976L227.579 66.3174L229.137 67.0976Z" fill="#414042"/>
<path d="M243.159 105.327C241.6 104.547 240.042 104.547 238.484 104.547C236.926 104.547 235.368 104.547 233.81 105.327C235.368 106.107 236.926 106.107 238.484 106.107C240.042 106.107 241.6 106.107 243.159 105.327Z" fill="#414042"/>
<path d="M240.823 126.392H240.044C238.486 126.392 237.706 126.392 236.148 125.612C235.369 125.612 235.369 124.832 235.369 124.832C235.369 124.051 236.148 124.051 236.148 124.051C236.927 124.051 238.486 124.051 239.265 124.832C241.602 124.832 243.939 124.832 247.056 123.271C247.835 123.271 247.835 123.271 248.614 124.051C248.614 124.832 248.614 124.832 247.835 125.612C245.497 125.612 243.16 126.392 240.823 126.392Z" fill="#414042"/>
<path d="M227.577 115.47C228.356 116.25 232.252 123.272 240.043 124.832C247.054 125.612 254.845 120.931 257.962 113.129C254.845 111.569 248.613 109.228 240.043 110.789C234.589 111.569 229.914 113.909 227.577 115.47Z" fill="#F04E4E"/>
<path d="M238.486 118.59C235.369 118.59 232.253 117.81 229.137 117.03C228.357 117.03 228.357 116.25 228.357 115.469C228.357 114.689 229.137 114.689 229.916 114.689C233.032 115.469 238.486 116.25 244.718 115.469C249.393 114.689 253.288 113.129 257.184 110.008C257.963 110.008 257.963 110.008 258.742 110.008C258.742 110.788 258.742 110.788 258.742 111.568C254.847 113.909 250.172 116.25 246.277 117.03C242.381 118.59 240.044 118.59 238.486 118.59Z" fill="#414042"/>
<path d="M247.054 5.46292C246.275 6.2431 237.705 13.2648 238.484 19.5063C240.042 29.6488 263.415 28.0884 275.88 46.0327C279.775 51.494 281.334 56.9553 282.113 60.8563C282.892 65.5374 282.892 70.2185 282.892 74.8997C283.671 101.426 276.659 124.052 269.647 140.435C278.996 138.875 289.125 137.315 298.474 134.974C305.486 133.414 310.16 130.293 313.276 127.952C324.963 121.711 334.312 116.25 339.766 106.887C346.777 95.9648 343.661 83.4817 341.324 69.4383C338.987 57.7355 335.091 39.011 319.509 23.4072C299.253 3.12235 264.194 -7.02009 247.054 5.46292Z" fill="#414042"/>
<path d="M259.521 10.9242C260.3 14.8251 240.044 17.9459 226.02 35.11C210.438 54.6147 214.334 79.5807 210.438 79.5807C208.101 79.5807 204.206 65.5373 206.543 50.7138C206.543 49.1534 211.997 18.7261 236.148 10.9242C247.056 7.02323 258.742 7.80342 259.521 10.9242Z" fill="#414042"/>
<path d="M211.997 387.755C259.522 388.535 306.267 389.315 353.792 390.876C367.816 335.482 381.06 279.309 395.084 223.915C395.084 212.993 390.409 205.971 388.072 202.85C380.281 192.708 368.595 188.807 362.362 186.466C354.571 184.126 351.455 184.906 342.885 181.005C335.873 178.665 330.419 175.544 327.303 173.203C297.697 171.643 268.871 170.863 239.266 169.302C236.928 171.643 233.812 173.983 229.916 177.104C217.451 184.906 211.218 181.005 197.974 186.466C195.636 187.247 180.055 193.488 170.705 209.092C166.81 216.114 165.252 222.355 164.473 227.036C179.275 280.869 195.636 333.922 211.997 387.755Z" fill="#1C9792"/>
<path d="M271.985 134.974C269.647 136.535 267.31 138.875 263.415 140.436C257.182 143.556 251.728 144.337 248.612 144.337C247.833 145.117 247.054 146.677 246.275 148.237C240.821 157.6 237.705 163.841 238.484 168.522C239.263 173.984 245.496 177.885 250.17 180.225C265.752 188.027 281.334 186.467 299.253 183.346C313.277 181.005 320.288 180.225 324.184 176.324C332.754 166.962 327.3 151.358 319.509 128.733C318.73 127.172 317.951 124.832 315.614 124.052C311.718 122.491 307.044 127.953 303.927 130.293C299.253 134.194 289.904 138.095 271.985 134.974Z" fill="#414042"/>
<path d="M384.175 197.389C381.838 208.312 360.803 231.717 352.233 241.08C319.511 278.529 287.568 279.309 286.01 301.934C285.231 312.077 289.905 323 296.138 324.56C303.15 326.9 307.045 314.417 323.406 305.835C331.197 301.934 332.755 303.495 368.594 297.253C388.071 293.352 391.187 292.572 393.525 289.451C400.536 278.529 385.734 260.584 391.966 255.123C395.083 252.002 399.757 256.684 408.327 253.563C414.56 251.222 421.572 244.981 421.572 238.739C421.572 231.717 412.223 230.937 412.223 224.696C412.223 220.795 415.339 220.015 425.467 209.872C434.037 201.29 434.037 199.73 434.037 198.169C433.258 195.829 427.805 195.049 417.676 193.488C408.327 191.928 409.885 193.488 399.757 191.928C393.525 191.148 389.629 190.368 386.513 192.708C384.954 194.268 384.175 196.609 384.175 197.389Z" fill="#C97841"/>
<path d="M184.728 197.389C187.065 208.312 208.101 231.717 216.671 241.08C249.393 278.529 281.336 279.309 282.894 301.934C283.673 312.077 278.998 323 272.766 324.56C265.754 326.9 261.858 314.417 245.497 305.835C237.706 301.934 236.148 303.495 200.31 297.253C180.833 293.352 177.716 292.572 175.379 289.451C168.367 278.529 183.17 260.584 176.937 255.123C173.821 252.002 169.146 256.684 160.576 253.563C154.344 251.222 147.332 244.981 147.332 238.739C147.332 231.717 156.681 230.937 156.681 224.696C156.681 220.795 153.564 220.015 143.436 209.872C134.866 201.29 134.866 199.73 134.866 198.169C135.645 195.829 141.099 195.049 151.227 193.488C160.576 191.928 159.018 193.488 169.146 191.928C175.379 191.148 179.274 190.368 182.391 192.708C183.949 194.268 184.728 196.609 184.728 197.389Z" fill="#C97841"/>
<path d="M241.6 160.72C236.147 166.182 230.693 171.643 225.239 177.104C225.239 178.665 226.018 181.005 226.797 183.346C233.809 200.51 257.182 205.191 266.531 206.751C282.892 209.872 302.369 206.751 339.766 200.51C363.139 196.609 372.488 193.488 372.488 190.367C372.488 187.247 364.697 186.466 352.231 181.005C339.766 175.544 330.417 168.522 324.184 163.061L241.6 160.72Z" fill="#414042"/>
<path d="M294.58 408.82C279.778 398.678 273.545 380.733 268.87 364.349C264.196 347.965 260.3 333.142 250.951 319.098C243.16 305.835 233.032 294.132 222.904 281.649C212.776 269.947 201.868 258.244 187.845 251.222C184.728 249.662 181.612 254.343 184.728 255.903C199.531 263.705 210.438 275.408 220.567 288.671C231.474 301.934 242.381 315.978 250.172 330.801C264.196 358.108 262.638 393.996 289.906 413.501C295.359 415.842 297.697 411.161 294.58 408.82Z" fill="#5A7A5D"/>
<path d="M281.334 409.601C272.764 401.799 264.973 388.535 261.078 377.613C257.962 367.47 261.078 356.548 256.403 345.625C249.392 326.901 235.368 308.956 219.786 296.473C203.425 283.99 184.727 275.408 168.366 262.145C154.342 250.442 138.76 234.838 118.504 242.64C115.388 244.201 116.167 249.662 120.062 248.102C141.098 240.3 159.017 262.925 174.599 273.848C190.96 284.77 209.658 293.353 224.461 307.396C232.251 314.418 238.484 323 243.938 332.362C247.054 337.043 250.171 342.504 251.729 347.966C253.287 353.427 253.287 358.108 253.287 363.569C253.287 372.932 256.403 381.514 260.299 389.316C264.973 397.898 270.427 407.26 277.439 413.502C279.776 415.842 283.672 411.941 281.334 409.601Z" fill="#5A7A5D"/>
<path d="M272.767 417.402C261.081 401.798 250.174 386.975 244.72 368.25C242.383 359.668 239.266 350.306 235.371 342.504C231.475 334.702 228.359 326.12 222.126 319.879C216.673 313.637 208.882 308.956 201.87 305.055C195.637 301.154 187.067 295.693 179.276 295.693C172.264 295.693 166.032 303.495 162.136 308.176C156.682 312.857 152.008 319.879 148.112 327.681C146.554 330.801 151.229 333.922 152.787 330.801C156.682 323.78 160.578 316.758 166.032 311.297C168.369 308.956 170.706 305.055 173.822 303.495C179.276 299.594 184.73 302.715 189.404 305.055C196.416 308.176 202.649 312.857 208.882 317.538C215.893 322.999 220.568 328.461 224.464 336.263C228.359 344.065 232.254 351.866 234.592 359.668C237.708 367.47 239.266 376.052 242.383 383.854C248.615 397.898 257.185 409.6 266.534 422.083C269.651 422.864 275.105 420.523 272.767 417.402Z" fill="#5A7A5D"/>
<path d="M264.195 425.204C254.846 411.941 245.497 397.117 240.823 381.514C238.485 373.712 236.927 365.13 234.59 357.328C232.253 349.526 228.357 342.504 223.683 336.263C219.787 330.801 215.892 323.78 210.438 319.879C204.984 315.978 197.973 315.978 190.961 315.978C176.158 315.978 169.146 326.12 164.472 339.383C162.913 343.284 169.146 344.065 169.925 340.944C172.263 335.482 174.6 329.241 179.274 325.34C184.728 320.659 194.856 321.439 201.089 322.999C208.101 324.56 211.996 330.801 215.892 336.263C219.787 341.724 223.683 347.966 226.799 354.207C232.253 366.69 233.032 380.733 238.485 393.997C243.16 406.48 250.951 417.402 258.742 428.325C261.079 431.446 266.533 428.325 264.195 425.204Z" fill="#5A7A5D"/>
<path d="M296.916 397.117C281.334 372.931 270.427 346.405 263.415 318.318C260.298 307.396 257.961 296.473 251.728 286.331C244.716 275.408 234.588 267.606 227.576 256.683C211.995 233.278 201.087 206.751 187.064 182.565C183.168 175.544 176.935 160.72 169.145 157.599C162.133 155.259 159.795 164.621 157.458 168.522C155.9 171.643 160.575 174.764 162.133 171.643C162.912 170.863 164.47 165.401 166.028 164.621C166.807 162.281 167.586 163.061 168.365 165.401C169.145 166.182 169.924 166.962 170.703 167.742C174.598 172.423 177.715 177.884 180.831 182.565C187.064 194.268 193.296 205.191 199.529 216.894C210.436 236.398 219.006 257.464 233.809 274.628C242.379 283.99 249.391 291.792 254.066 304.275C257.182 314.417 259.519 325.34 262.636 336.263C269.647 358.888 279.776 379.953 292.241 399.458C293.799 403.359 298.474 400.238 296.916 397.117Z" fill="#5A7A5D"/>
<path d="M300.032 407.26C290.683 397.897 288.345 383.854 284.45 371.371C280.554 357.328 275.88 344.064 271.984 330.021C268.089 315.978 264.193 301.154 261.856 286.331C261.077 280.089 260.298 273.067 261.856 267.606C265.752 254.343 278.217 262.145 284.45 269.166C286.787 272.287 290.683 267.606 288.345 265.265C281.333 255.903 265.752 248.101 257.961 261.365C254.065 267.606 254.844 275.408 255.623 282.43C256.403 291.792 257.961 301.154 260.298 309.736C264.973 328.461 271.205 347.185 276.659 365.91C281.333 381.514 283.671 399.458 295.357 411.161C298.474 414.281 302.369 410.38 300.032 407.26Z" fill="#5A7A5D"/>
<path d="M281.338 418.962C265.756 401.798 259.523 378.393 251.732 357.328C247.837 347.185 243.162 337.043 238.488 326.9C233.813 315.978 228.359 304.275 222.127 294.913C216.673 287.111 206.545 289.451 198.754 289.451C186.288 289.451 173.823 290.231 161.357 290.231C152.787 290.231 139.543 288.671 132.531 293.352C125.519 298.033 124.74 306.615 120.845 312.077C118.507 315.197 123.961 318.318 125.519 315.197C130.973 307.396 130.973 298.033 141.88 297.253C152.008 296.473 162.136 296.473 173.044 296.473C183.951 296.473 195.637 294.913 207.324 295.693C215.894 296.473 218.231 300.374 221.347 306.615C223.685 311.296 226.022 315.978 228.359 320.659C237.708 339.383 245.499 358.108 252.511 377.613C258.744 393.996 264.977 409.6 276.663 422.863C279.779 425.984 283.675 422.083 281.338 418.962Z" fill="#5A7A5D"/>
<path d="M177.716 225.476C184.728 240.3 197.193 251.222 208.88 262.145C223.682 276.188 236.148 291.792 243.939 311.297C250.951 330.021 258.742 347.966 266.533 365.91C270.428 375.272 272.765 384.634 274.323 393.997C275.882 401.798 277.44 409.6 282.114 416.622C284.452 419.743 289.126 416.622 286.789 413.501C281.335 405.699 280.556 397.117 278.998 387.755C277.44 378.393 274.323 369.031 270.428 360.449C266.533 351.086 261.858 341.724 257.963 332.362C254.067 322.999 251.73 313.637 247.834 305.055C240.822 288.671 230.694 274.628 218.229 262.145C205.763 249.662 190.181 238.739 182.391 221.575C181.611 219.234 176.158 222.355 177.716 225.476Z" fill="#5A7A5D"/>
<path d="M251.727 418.962C240.82 404.139 230.692 386.975 223.68 369.81C218.226 357.327 215.11 337.823 199.528 335.482C191.737 333.922 183.167 337.823 176.934 341.724C169.922 345.625 163.69 350.306 158.236 355.767C147.329 369.03 145.771 386.194 145.771 402.578C145.771 406.479 151.224 406.479 152.003 402.578C152.782 386.975 152.782 370.591 163.69 358.108C168.364 352.646 174.597 348.745 181.609 345.625C188.621 342.504 197.97 337.823 204.982 343.284C210.435 347.185 212.772 354.207 215.11 360.448C217.447 367.47 220.563 374.492 223.68 380.733C230.692 395.557 238.482 408.82 248.611 422.083C248.611 425.204 253.285 422.083 251.727 418.962Z" fill="#5A7A5D"/>
<path d="M271.206 415.062C258.741 383.854 243.938 354.207 226.798 326.12C219.007 312.857 211.216 298.033 199.53 287.891C189.402 278.529 175.378 273.067 162.133 269.167C161.354 269.167 159.796 269.166 159.017 269.947C156.68 273.067 154.342 275.408 152.784 279.309C151.226 282.43 155.901 285.55 157.459 282.43C159.017 279.309 160.575 276.968 162.913 274.628C162.133 274.628 161.354 275.408 159.796 275.408C173.82 279.309 187.064 284.77 197.193 294.913C208.1 305.835 215.891 321.439 223.682 334.702C239.264 361.229 253.287 389.315 264.974 418.182C267.311 420.523 272.765 418.963 271.206 415.062Z" fill="#5A7A5D"/>
<path d="M294.58 408.82C298.476 418.963 306.267 426.764 313.278 434.566C321.848 443.148 329.639 452.511 336.651 462.653C338.989 465.774 343.663 462.653 341.326 459.532C334.314 450.17 326.523 440.808 318.732 433.006C311.72 425.204 303.15 418.182 299.255 408.04C298.476 404.139 293.022 405.699 294.58 408.82Z" fill="#5A7A5D"/>
<path d="M286.79 410.38C299.256 433.006 311.721 454.851 324.966 476.696C326.524 479.817 331.978 476.696 329.64 473.576C316.396 451.73 303.93 429.885 291.465 407.26C290.686 404.139 285.232 406.479 286.79 410.38Z" fill="#5A7A5D"/>
<path d="M276.66 396.337C282.114 415.842 288.346 434.566 299.254 450.95C304.707 458.752 310.161 466.554 314.835 475.136C318.731 482.938 320.289 491.52 327.301 497.762C330.417 500.102 334.313 496.201 331.196 493.861C324.964 488.399 323.405 479.037 319.51 472.015C315.615 464.214 309.382 456.412 304.707 448.61C293.8 432.226 287.567 414.282 282.114 395.557C281.334 390.876 275.881 392.436 276.66 396.337Z" fill="#5A7A5D"/>
<path d="M320.292 493.08C311.722 477.477 302.372 462.653 293.802 447.049C286.012 433.006 285.232 415.062 273.546 404.139C270.43 401.798 266.534 405.699 269.651 408.04C275.883 413.501 278.221 421.303 280.558 429.105C282.895 436.907 286.012 443.929 289.907 450.95C298.477 465.774 307.826 480.597 315.617 496.201C317.175 499.322 322.629 496.201 320.292 493.08Z" fill="#5A7A5D"/>
<path d="M305.489 498.542C296.919 482.158 292.244 464.994 289.128 446.269C286.012 429.885 282.116 413.501 271.209 401.018C268.872 397.898 264.976 402.579 267.313 404.919C278.221 418.183 281.337 436.127 284.453 453.291C287.57 470.455 293.024 486.059 300.814 500.883C302.373 504.783 307.047 501.663 305.489 498.542Z" fill="#5A7A5D"/>
<path d="M289.906 502.443C283.673 484.499 279.778 466.554 277.441 448.61C275.103 431.446 272.766 414.282 264.975 398.678C263.417 395.557 257.963 397.898 260.301 401.799C268.092 417.402 269.65 434.567 271.987 451.731C274.324 469.675 278.999 486.839 284.452 504.003C285.232 507.904 291.464 506.344 289.906 502.443Z" fill="#5A7A5D"/>
<path d="M276.661 493.861C275.882 486.059 275.882 478.257 275.103 470.455C275.103 463.433 275.103 456.412 273.545 449.39C272.766 443.149 268.87 437.687 264.975 432.226C261.079 425.984 258.742 419.743 257.184 412.721C256.405 408.82 250.951 410.381 251.73 414.282C253.288 420.523 254.847 425.984 257.963 431.446C261.079 437.687 265.754 443.149 267.312 449.39C268.87 456.412 268.091 464.214 268.87 470.455C269.649 478.257 269.649 485.279 270.428 493.081C271.208 497.762 277.44 497.762 276.661 493.861Z" fill="#5A7A5D"/>
<path d="M260.301 485.278C259.522 482.158 260.301 478.257 260.301 474.356C260.301 470.455 260.301 466.554 261.08 462.653C261.08 455.631 261.859 448.61 261.08 441.588C261.08 436.127 260.301 429.105 257.964 423.644C254.847 417.402 250.173 411.941 246.277 406.479C243.94 403.359 239.266 406.479 241.603 409.6C245.498 415.062 250.173 420.523 253.289 425.984C256.406 432.226 256.406 440.028 256.406 446.269C256.406 453.291 256.406 460.312 255.626 467.334C255.626 473.576 254.068 480.597 255.626 486.059C255.626 490.74 261.08 489.179 260.301 485.278Z" fill="#5A7A5D"/>
<path d="M245.494 377.612C246.273 372.931 247.052 367.47 247.831 362.789C282.891 358.888 328.078 358.888 378.719 372.151C390.405 375.272 402.092 379.173 412.22 383.074C409.104 395.557 405.208 408.04 402.092 421.303C389.626 420.523 380.277 418.962 374.823 417.402C328.857 408.04 310.938 386.975 266.53 379.953C256.401 377.612 249.39 377.612 245.494 377.612Z" fill="#FC8872"/>
<path d="M331.196 306.616C328.079 302.715 325.742 298.034 322.626 294.133C310.939 293.352 300.032 293.352 288.346 292.572C261.856 310.517 233.809 330.802 206.541 354.207C197.192 362.009 188.622 369.811 180.052 377.613C187.843 387.755 196.413 397.898 204.204 408.04C215.111 402.579 223.681 397.118 228.355 393.997C267.31 367.47 275.101 341.724 313.277 316.758C321.067 312.077 327.3 308.956 331.196 306.616Z" fill="#FC8872"/>
<path d="M300.813 349.526C314.837 343.284 348.338 331.582 385.734 343.284C397.421 347.185 416.898 353.427 427.805 372.151C435.596 385.415 441.05 408.04 429.363 422.083C420.793 432.226 407.549 433.006 390.409 433.786C361.582 434.566 320.29 436.127 302.371 407.26C289.906 385.415 298.476 358.108 300.813 349.526Z" fill="#1C9792"/>
<path d="M258.742 294.913C252.51 283.21 247.056 270.727 243.161 257.464C240.044 245.761 237.707 234.058 233.032 222.355C224.462 201.29 208.88 183.346 196.415 163.841C195.636 162.281 193.299 163.841 194.078 165.402C206.543 185.686 222.904 204.411 231.474 227.036C236.149 238.739 237.707 251.222 241.602 263.705C245.498 275.408 250.172 286.331 255.626 297.253C257.184 297.253 259.521 296.473 258.742 294.913Z" fill="#5A7A5D"/>
<path d="M258.744 288.671C247.837 275.408 240.046 259.024 232.255 243.42C228.359 235.618 225.243 227.816 221.347 220.795C218.231 213.773 213.557 207.532 207.324 203.631C205.766 202.85 204.987 205.191 205.766 205.971C212.777 210.652 216.673 218.454 220.568 226.256C224.464 234.058 227.58 241.86 231.476 249.662C238.487 264.485 245.499 279.309 256.407 291.792C257.965 291.792 259.523 290.232 258.744 288.671Z" fill="#5A7A5D"/>
<path d="M258.741 294.133C252.509 284.77 248.613 273.848 246.276 262.925C245.497 257.464 244.718 251.222 244.718 245.761C244.718 238.739 246.276 233.278 252.509 229.377C271.207 216.114 297.696 222.355 310.162 241.08C310.941 242.64 313.278 241.08 312.499 239.519C299.254 220.015 271.986 213.773 251.73 227.036C247.055 230.157 243.939 234.838 243.16 240.3C242.381 246.541 243.16 252.783 243.939 259.024C245.497 272.287 250.951 284.77 257.183 296.473C257.962 296.473 259.521 294.913 258.741 294.133Z" fill="#5A7A5D"/>
<path d="M233.811 299.594C211.218 287.891 196.415 265.266 171.484 257.464C168.368 256.684 163.693 255.123 161.356 252.003C159.019 248.882 160.577 244.201 159.798 240.3C159.019 235.619 156.681 230.937 152.786 227.037C142.658 217.674 128.634 216.894 115.389 217.674C113.831 217.674 113.831 220.015 115.389 220.015C130.192 220.015 151.228 220.795 156.681 237.959C158.239 243.42 155.902 250.442 159.798 255.123C162.135 258.244 166.809 259.024 169.926 260.585C194.857 268.387 209.66 290.232 232.253 301.935C233.811 301.935 234.59 300.374 233.811 299.594Z" fill="#5A7A5D"/>
<path d="M207.322 315.198C197.973 308.956 182.391 308.956 173.042 315.198C167.589 319.099 163.693 324.56 159.019 329.241C152.007 335.483 144.216 338.603 137.204 343.284C131.75 346.405 126.297 350.306 122.401 356.548C118.506 362.789 116.948 369.811 116.169 376.052C114.61 393.217 116.169 410.381 114.61 427.545C115.389 429.105 117.727 429.105 117.727 427.545C118.506 413.501 117.727 399.458 118.506 385.415C118.506 378.393 119.285 370.591 121.622 363.569C124.739 354.987 130.971 350.306 137.983 345.625C148.111 339.384 158.24 333.922 166.81 325.34C171.484 320.659 176.159 315.198 183.17 314.418C190.182 312.857 200.311 314.418 206.543 318.318C207.322 318.318 208.101 315.978 207.322 315.198Z" fill="#5A7A5D"/>
<path d="M306.267 337.823C294.58 359.668 273.545 390.876 237.707 408.82C212.776 421.303 199.531 418.963 195.636 417.402C175.379 411.941 159.797 390.096 161.355 369.031C162.135 354.987 170.705 345.625 183.17 334.702C204.206 314.418 234.59 286.331 266.533 295.693C290.685 304.275 302.371 330.021 306.267 337.823Z" fill="#1C9792"/>
<path d="M335.874 266.046C342.107 264.486 351.456 262.925 363.142 262.145C377.945 261.365 396.643 261.365 396.643 263.705C396.643 264.486 391.969 266.826 370.154 271.507C388.852 266.826 398.201 266.046 398.981 267.606C399.76 269.947 384.178 277.749 351.456 291.012C364.7 286.331 375.608 283.21 382.62 280.87C388.852 278.529 396.643 276.188 398.201 277.749C398.201 278.529 397.422 279.309 397.422 280.089C391.969 287.111 360.805 301.155 354.572 303.495C377.945 297.254 389.631 295.693 389.631 297.254C390.411 298.814 377.945 305.055 351.456 315.978C334.316 318.319 317.955 320.659 300.815 323C296.14 313.638 292.245 303.495 287.57 294.133C303.931 283.99 320.292 274.628 335.874 266.046Z" fill="#FC8872"/>
<path d="M327.304 265.266C333.537 265.266 336.653 266.046 336.653 267.606C337.432 269.947 332.758 273.848 322.629 279.309C312.501 283.99 302.373 288.672 292.245 293.353C290.687 293.353 289.128 293.353 287.57 292.572C290.687 287.111 299.257 271.507 317.176 266.826C321.071 266.046 324.188 265.266 327.304 265.266Z" fill="#FC8872"/>
<path d="M368.594 270.727C367.814 270.727 367.814 270.727 367.814 269.947C367.814 269.167 367.814 269.167 368.594 269.167L386.513 266.046C387.292 266.046 387.292 266.046 387.292 266.826C387.292 267.606 387.292 267.606 386.513 267.606L368.594 270.727C369.373 270.727 369.373 270.727 368.594 270.727Z" fill="#414042"/>
<path d="M344.443 280.089C344.443 280.089 343.664 280.089 343.664 279.309C343.664 278.529 343.664 278.529 344.443 277.748L362.362 269.166C363.141 269.166 363.141 269.166 363.92 269.946C363.92 270.727 363.92 270.727 363.141 271.507L344.443 280.089Z" fill="#414042"/>
<path d="M305.487 282.43C305.487 282.43 304.708 282.43 304.708 281.649C304.708 280.869 304.708 280.869 305.487 280.089L333.534 266.046C334.314 266.046 334.314 266.046 335.093 266.826C335.093 267.606 335.093 267.606 334.314 268.386L305.487 282.43C306.266 282.43 306.266 282.43 305.487 282.43Z" fill="#414042"/>
<path d="M431.698 341.724C431.698 341.724 430.919 341.724 430.919 340.944C427.024 334.702 418.454 323.78 403.651 318.318C396.639 315.978 388.848 314.417 381.057 315.198C380.278 315.198 380.278 315.198 380.278 314.417C380.278 313.637 380.278 313.637 381.057 313.637C388.848 312.857 396.639 314.417 404.43 316.758C420.012 322.219 428.582 333.922 432.478 340.944C433.257 340.164 432.477 340.944 431.698 341.724C432.477 341.724 431.698 341.724 431.698 341.724Z" fill="#414042"/>
<path d="M304.71 352.647C303.931 352.647 303.931 352.647 304.71 352.647C303.931 351.867 303.931 351.086 303.931 351.086C310.163 344.065 317.175 337.823 324.966 333.142C339.769 323 357.688 316.758 375.607 314.417C376.386 314.417 376.386 314.417 376.386 315.198C376.386 315.978 376.386 315.978 375.607 315.978C357.688 318.318 339.769 324.56 325.745 334.702C317.954 340.164 310.942 345.625 304.71 352.647Z" fill="#414042"/>
<path d="M384.177 312.077C384.177 312.077 383.397 312.077 383.397 311.296C383.397 310.516 383.397 310.516 383.397 309.736C389.63 305.835 396.642 303.495 403.654 302.714C407.549 302.714 410.666 302.714 414.561 302.714C415.34 302.714 415.34 303.495 415.34 303.495C415.34 304.275 414.561 304.275 414.561 304.275C410.666 303.495 407.549 303.495 403.654 304.275C397.421 305.835 390.409 308.176 384.177 312.077C384.956 312.077 384.177 312.077 384.177 312.077Z" fill="#414042"/>
<path d="M360.022 432.226C352.231 431.446 344.44 429.105 336.649 426.765C324.183 422.083 312.497 415.062 302.369 404.919C302.369 404.919 301.59 404.139 302.369 403.359C302.369 403.359 303.148 402.579 303.927 403.359C314.055 412.721 324.962 419.743 337.428 424.424C344.44 426.765 352.231 429.105 360.022 429.885C360.801 429.885 360.801 430.666 360.801 430.666C360.801 432.226 360.801 432.226 360.022 432.226Z" fill="#414042"/>
<path d="M133.307 388.535C132.528 388.535 132.528 387.755 132.528 386.975C135.645 374.492 141.098 363.569 149.668 354.207C153.564 350.306 157.459 347.185 161.355 344.064C162.134 344.064 162.134 344.064 162.913 344.064C162.913 344.845 162.913 344.845 162.913 345.625C159.017 348.746 155.122 351.866 151.227 355.767C143.436 364.349 137.203 375.272 134.866 387.755C134.087 387.755 134.087 388.535 133.307 388.535Z" fill="#414042"/>
<path d="M159.795 342.505C159.016 342.505 159.016 341.724 159.016 341.724V335.483C159.016 334.703 159.795 334.703 159.795 334.703C160.574 334.703 160.574 335.483 160.574 335.483V341.724C160.574 342.505 160.574 342.505 159.795 342.505Z" fill="#414042"/>
<path d="M162.133 323C161.354 323 161.354 322.22 161.354 322.22V314.418C161.354 313.637 162.133 313.637 162.133 313.637C162.912 313.637 162.912 314.418 162.912 314.418V322.22C162.912 322.22 162.912 323 162.133 323Z" fill="#414042"/>
<path d="M161.356 303.495C160.577 303.495 160.577 302.714 160.577 302.714V298.033C160.577 297.253 161.356 297.253 161.356 297.253C162.135 297.253 162.135 298.033 162.135 298.033V302.714C162.135 302.714 162.135 303.495 161.356 303.495Z" fill="#414042"/>
<path d="M210.439 422.083C210.439 422.083 209.66 422.083 209.66 421.303C209.66 420.523 209.66 420.523 210.439 419.743L233.033 410.381C233.812 410.381 233.812 410.381 234.591 411.161C234.591 411.941 234.591 411.941 233.812 412.721L210.439 422.083Z" fill="#414042"/>
<path d="M286.787 237.179C286.787 246.541 293.02 253.563 301.59 253.563C309.381 253.563 316.393 246.541 316.393 237.179C316.393 227.817 310.16 220.795 301.59 220.795C293.02 220.795 286.787 227.817 286.787 237.179Z" fill="#FFBC00"/>
<path d="M188.623 165.402C188.623 173.984 194.856 181.005 202.647 181.005C210.438 181.005 216.67 173.984 216.67 165.402C216.67 156.82 210.438 149.798 202.647 149.798C194.856 149.798 188.623 156.82 188.623 165.402Z" fill="#FFBC00"/>
<path d="M95.1328 223.916C95.1328 231.718 101.366 237.959 109.156 237.959C116.947 237.959 123.18 231.718 123.18 223.916C123.18 216.114 116.947 209.873 109.156 209.873C101.366 209.873 95.1328 216.114 95.1328 223.916Z" fill="#FFBC00"/>
<path d="M106.039 325.34C106.039 332.362 111.493 337.823 118.505 337.823C125.516 337.823 130.97 332.362 130.97 325.34C130.97 318.318 124.737 312.857 117.725 312.857C111.493 312.857 106.039 318.318 106.039 325.34Z" fill="#FFBC00"/>
<path d="M131.749 177.104C130.191 174.764 129.412 172.423 129.412 170.083C129.412 163.061 135.645 157.6 142.657 157.6C144.215 157.6 144.994 157.599 146.552 158.38C148.889 154.479 153.564 152.138 158.239 152.138C165.25 152.138 171.483 157.6 171.483 163.841C173.041 163.061 174.6 163.061 176.158 163.061C182.39 163.061 187.065 166.962 187.065 172.423C187.065 175.544 184.728 178.665 182.39 180.225C183.17 181.005 183.949 182.566 183.949 184.126C183.949 185.686 183.17 187.247 182.39 188.027C183.17 190.367 183.949 192.708 183.949 195.049C183.949 202.07 178.495 208.312 171.483 208.312C168.367 208.312 166.03 206.751 163.692 205.191C161.355 208.312 157.46 210.652 153.564 210.652C146.552 210.652 141.099 205.191 141.099 198.169C140.319 198.169 139.54 198.169 139.54 198.169C133.308 198.169 127.854 193.488 127.854 187.247C127.075 182.566 129.412 179.445 131.749 177.104Z" fill="#FFBC00"/>
<path d="M158.239 191.928C163.832 191.928 168.367 187.038 168.367 181.005C168.367 174.973 163.832 170.083 158.239 170.083C152.645 170.083 148.11 174.973 148.11 181.005C148.11 187.038 152.645 191.928 158.239 191.928Z" fill="#414042"/>
<path d="M168.368 184.906C168.368 185.686 169.147 186.466 169.926 186.466C170.705 186.466 171.485 185.686 171.485 184.906C171.485 184.126 170.705 183.346 169.926 183.346C168.368 183.346 168.368 184.126 168.368 184.906Z" fill="#414042"/>
<path d="M170.702 177.884C170.702 177.884 170.702 178.664 170.702 177.884C171.481 178.664 172.26 178.664 172.26 177.884C172.26 177.104 171.481 177.104 170.702 177.884C170.702 177.104 170.702 177.104 170.702 177.884Z" fill="#414042"/>
<path d="M162.135 169.303C162.135 170.083 162.914 170.863 163.693 170.863C164.472 170.863 165.251 170.083 165.251 169.303C165.251 168.522 164.472 168.522 163.693 168.522C162.914 168.522 162.135 168.522 162.135 169.303Z" fill="#414042"/>
<path d="M160.576 190.367C160.576 191.928 162.134 193.488 163.693 193.488C165.251 193.488 166.809 191.928 166.809 190.367C166.809 188.807 165.251 187.247 163.693 187.247C162.134 187.247 160.576 188.807 160.576 190.367Z" fill="#414042"/>
<path d="M151.226 185.686C151.226 187.247 152.005 188.027 153.563 188.027C155.9 188.807 156.679 187.247 156.679 185.686C156.679 184.126 155.9 183.346 154.342 183.346C152.784 183.346 151.226 184.126 151.226 185.686Z" fill="#414042"/>
<path d="M141.099 182.566C141.099 184.906 142.657 186.467 144.994 186.467C147.331 186.467 148.89 184.906 148.89 182.566C148.89 180.225 147.331 178.665 144.994 178.665C143.436 178.665 141.099 180.225 141.099 182.566Z" fill="#414042"/>
<path d="M148.891 174.764C148.891 175.544 149.67 176.324 150.449 176.324C151.228 176.324 152.007 175.544 152.007 174.764C152.007 173.984 151.228 173.203 150.449 173.203C149.67 173.203 148.891 173.984 148.891 174.764Z" fill="#414042"/>
<path d="M147.331 170.863C147.331 172.423 148.889 174.764 151.227 174.764C152.785 174.764 155.122 173.203 155.122 170.863C155.122 169.302 153.564 166.962 151.227 166.962C148.889 167.742 147.331 169.302 147.331 170.863Z" fill="#414042"/>
<path d="M94.3555 266.046C94.3555 260.585 99.8091 255.904 106.821 255.123C107.6 250.442 113.054 246.541 119.286 246.541C122.403 246.541 124.74 247.321 127.077 248.882C128.636 246.541 130.973 244.201 133.31 244.201C137.206 244.201 140.322 248.102 140.322 252.783C141.101 252.783 141.88 253.563 143.438 253.563C145.776 252.783 148.113 252.003 150.45 252.003C157.462 252.003 162.916 255.904 162.916 261.365C162.916 264.486 160.578 267.606 156.683 269.167C161.357 270.727 163.695 273.848 163.695 276.969C163.695 279.309 162.916 280.87 160.578 282.43C162.916 285.551 164.474 288.671 164.474 292.572C164.474 300.374 158.241 307.396 149.671 307.396C148.113 307.396 145.776 306.616 144.217 306.616C142.659 308.956 139.543 309.737 136.426 309.737C132.531 309.737 128.636 307.396 127.077 304.275C125.519 305.055 123.182 305.836 120.845 305.836C114.612 305.836 109.158 301.935 108.379 297.253C101.367 295.693 96.6927 290.232 96.6927 283.21C96.6927 280.089 97.4718 276.969 99.8091 274.628C96.6927 272.287 94.3555 269.167 94.3555 266.046Z" fill="#FFBC00"/>
<path d="M118.506 277.749C118.506 283.21 123.96 287.891 130.971 287.891C137.983 287.891 143.437 283.21 143.437 277.749C143.437 272.288 137.983 267.606 130.971 267.606C123.96 267.606 118.506 271.507 118.506 277.749Z" fill="#414042"/>
<path d="M136.427 284.77C136.427 287.111 137.985 288.671 140.322 288.671C142.659 288.671 144.218 287.111 144.218 284.77C144.218 282.429 142.659 280.869 140.322 280.869C137.985 280.089 136.427 282.429 136.427 284.77Z" fill="#414042"/>
<path d="M135.648 291.792L136.428 292.572C136.428 292.572 137.207 292.572 137.207 291.792C137.207 291.012 136.428 291.012 136.428 291.012L135.648 291.792Z" fill="#414042"/>
<path d="M135.648 269.167C135.648 269.947 136.428 270.727 137.986 270.727C139.544 270.727 140.323 269.947 140.323 269.167C140.323 268.387 139.544 267.606 137.986 267.606C136.428 267.606 135.648 268.387 135.648 269.167Z" fill="#414042"/>
<path d="M127.077 285.55C127.077 287.891 128.635 289.451 130.194 289.451C131.752 289.451 133.31 287.891 133.31 285.55C133.31 283.21 131.752 281.649 130.194 281.649C127.856 281.649 127.077 283.21 127.077 285.55Z" fill="#414042"/>
<path d="M118.506 283.99C118.506 285.55 120.064 286.331 121.622 286.331C123.18 286.331 124.739 285.55 124.739 283.99C124.739 282.43 123.18 281.649 121.622 281.649C119.285 281.649 118.506 282.43 118.506 283.99Z" fill="#414042"/>
<path d="M121.623 265.266C121.623 266.046 122.402 267.606 123.181 267.606C123.96 267.606 124.739 266.826 124.739 265.266C124.739 263.705 123.96 262.925 123.181 262.925C122.402 263.705 121.623 264.486 121.623 265.266Z" fill="#414042"/>
<path d="M129.415 262.145C129.415 262.925 129.415 262.925 130.194 262.925C130.194 262.925 130.973 262.925 130.973 262.145C130.973 261.365 130.973 261.365 130.194 261.365C129.415 261.365 129.415 262.145 129.415 262.145Z" fill="#414042"/>
<path d="M139.542 273.848C139.542 275.408 141.1 276.969 142.658 276.969C144.217 276.969 145.775 275.408 145.775 273.848C145.775 272.287 144.217 270.727 142.658 270.727C140.321 270.727 139.542 272.287 139.542 273.848Z" fill="#414042"/>
<path d="M138.76 127.172C138.76 138.875 148.109 148.237 159.016 148.237C170.703 148.237 179.273 138.875 179.273 127.172C179.273 115.469 169.923 106.107 159.016 106.107C147.33 105.327 138.76 115.469 138.76 127.172Z" fill="#FFBC00"/>
<path d="M155.122 133.414C155.122 140.435 162.134 145.897 171.483 145.897C180.832 145.897 187.844 140.435 187.844 133.414C187.844 126.392 180.832 120.931 171.483 120.931C162.913 120.15 155.122 126.392 155.122 133.414Z" fill="#FFBC00"/>
<path d="M161.355 117.03C161.355 124.051 166.809 129.513 173.821 129.513C180.833 129.513 186.286 124.051 186.286 117.03C186.286 110.008 180.833 104.547 173.821 104.547C166.809 103.766 161.355 109.228 161.355 117.03Z" fill="#FFBC00"/>
<path d="M152.004 111.569C152.004 116.25 155.899 119.37 159.795 119.37C164.469 119.37 167.586 115.469 167.586 111.569C167.586 106.887 163.69 103.767 159.795 103.767C155.899 102.986 152.004 106.887 152.004 111.569Z" fill="#FFBC00"/>
<path d="M157.458 144.337C157.458 148.238 161.353 151.358 166.028 151.358C170.703 151.358 174.598 148.238 174.598 144.337C174.598 140.436 170.703 137.315 166.028 137.315C161.353 137.315 157.458 140.436 157.458 144.337Z" fill="#FFBC00"/>
<path d="M159.796 126.392C159.796 132.634 163.691 137.315 167.587 137.315C171.482 137.315 175.378 132.634 175.378 126.392C175.378 120.151 171.482 115.469 167.587 115.469C163.691 115.469 159.796 120.931 159.796 126.392Z" fill="#414042"/>
<path d="M154.344 131.073C154.344 133.414 156.681 135.755 159.018 135.755C161.356 135.755 163.693 133.414 163.693 131.073C163.693 128.733 161.356 126.392 159.018 126.392C156.681 126.392 154.344 128.733 154.344 131.073Z" fill="#414042"/>
<path d="M157.458 120.151C157.458 120.931 158.237 121.711 159.795 121.711C160.574 121.711 162.133 120.931 162.133 120.151C162.133 119.371 161.353 118.59 159.795 118.59C158.237 119.371 157.458 120.151 157.458 120.151Z" fill="#414042"/>
<path d="M159.796 114.689C159.796 115.469 160.575 116.25 160.575 116.25C161.354 116.25 161.354 115.469 161.354 114.689C161.354 113.909 160.575 113.129 160.575 113.129C160.575 112.349 159.796 113.129 159.796 114.689Z" fill="#414042"/>
<path d="M166.029 115.469C166.029 117.03 167.587 118.59 169.146 118.59C170.704 118.59 172.262 117.03 172.262 115.469C172.262 113.909 170.704 112.349 169.146 112.349C167.587 112.349 166.029 113.909 166.029 115.469Z" fill="#414042"/>
<path d="M169.923 120.93C169.923 123.271 171.481 124.831 173.818 124.831C176.156 124.831 177.714 123.271 177.714 120.93C177.714 118.59 176.156 117.03 173.818 117.03C171.481 117.03 169.923 119.37 169.923 120.93Z" fill="#414042"/>
<path d="M173.038 132.634C174.329 132.634 175.376 131.586 175.376 130.293C175.376 129 174.329 127.952 173.038 127.952C171.748 127.952 170.701 129 170.701 130.293C170.701 131.586 171.748 132.634 173.038 132.634Z" fill="#414042"/>
<path d="M197.974 202.851C197.974 207.532 201.869 212.213 207.323 212.213C212.776 212.213 216.672 208.312 216.672 202.851C216.672 198.169 212.776 193.488 207.323 193.488C201.869 193.488 197.974 197.389 197.974 202.851Z" fill="#5A7A5D"/>
<path d="M289.905 280.869C295.068 280.869 299.254 276.677 299.254 271.507C299.254 266.336 295.068 262.145 289.905 262.145C284.741 262.145 280.556 266.336 280.556 271.507C280.556 276.677 284.741 280.869 289.905 280.869Z" fill="#5A7A5D"/>
<path d="M235.369 255.903C235.369 262.925 240.823 268.386 247.835 268.386C254.846 268.386 260.3 262.925 260.3 255.903C260.3 248.882 254.846 243.42 247.835 243.42C240.823 243.42 235.369 248.882 235.369 255.903Z" fill="#5A7A5D"/>
<path d="M133.307 326.12C133.307 333.142 138.76 338.603 145.772 338.603C152.784 338.603 158.238 333.142 158.238 326.12C158.238 319.099 152.784 313.637 145.772 313.637C138.76 313.637 133.307 319.099 133.307 326.12Z" fill="#5A7A5D"/>
<path d="M123.178 429.105C120.062 425.204 114.608 423.644 111.492 425.984C107.596 428.325 106.817 433.786 109.934 438.467C113.05 442.368 118.504 443.929 121.62 441.588C125.516 438.467 126.295 433.006 123.178 429.105Z" fill="#5A7A5D"/>
<path d="M155.9 410.381C155.121 401.799 148.888 395.557 141.098 396.337C134.086 397.118 128.632 404.139 129.411 412.721C130.19 421.303 136.423 427.545 144.214 426.765C151.226 425.984 156.679 418.183 155.9 410.381Z" fill="#5A7A5D"/>
<path fill-rule="evenodd" clip-rule="evenodd" d="M510.085 285.186C508.414 286.246 505.597 286.026 503.78 283.162L500.6 278.152C499.086 275.766 496.529 274.375 493.561 273.916C487.145 273.302 481.97 269.892 478.638 264.643C473.123 255.424 475.977 243.571 484.654 237.73C489.187 234.853 494.542 233.798 499.613 234.931C504.683 236.064 509.318 239.148 512.195 243.681C515.375 248.692 516.256 254.827 514.168 260.504C513.081 263.537 513.553 266.919 515.067 269.305L515.498 269.983C515.506 269.995 515.514 270.008 515.522 270.02C515.53 270.033 515.538 270.046 515.546 270.059L518.551 274.793C519.762 276.702 519.152 279.432 517.243 280.643L510.085 285.186ZM506.164 281.648C506.467 282.126 507.375 283.557 508.569 282.8L515.727 278.257C516.443 277.803 516.617 277.023 516.163 276.307L513.892 272.728L504.347 278.785L506.164 281.648ZM512.39 270.334C510.67 267.269 510.326 263.122 511.523 259.503C513.198 254.759 512.533 249.491 509.807 245.196C507.384 241.378 503.681 238.708 499 237.662C494.71 236.703 490.222 237.543 486.405 239.965C478.769 244.811 476.415 255.342 481.022 263.129C483.899 267.663 488.534 270.746 493.779 271.099C497.664 271.569 500.848 273.436 502.83 276.401L512.39 270.334ZM518.394 241.421C517.678 241.875 516.898 241.701 516.444 240.985C515.989 240.269 516.164 239.489 516.88 239.035L521.652 236.006C522.368 235.552 523.148 235.726 523.602 236.442C524.056 237.158 523.882 237.938 523.166 238.392L518.394 241.421ZM503.842 248.982C500.965 244.448 494.725 243.053 490.191 245.93C489.475 246.384 488.695 246.21 488.241 245.495C487.786 244.779 487.961 243.999 488.677 243.544C494.642 239.759 502.443 241.502 506.228 247.467C506.683 248.183 506.508 248.963 505.793 249.418C505.076 249.872 504.297 249.698 503.842 248.982ZM469.331 272.557C468.615 273.012 467.835 272.837 467.381 272.122C466.927 271.405 467.101 270.626 467.817 270.171L472.589 267.143C473.305 266.688 474.085 266.863 474.539 267.579C474.994 268.294 474.819 269.074 474.104 269.528L469.331 272.557ZM500.793 230.564C500.012 230.389 499.558 229.674 499.733 228.894L500.953 223.433C501.128 222.653 501.843 222.198 502.624 222.373C503.404 222.547 503.858 223.263 503.684 224.043L502.463 229.504C502.463 229.504 502.137 230.045 501.899 230.197C501.66 230.348 501.183 230.651 500.793 230.564ZM469.865 250.192L464.252 248.732C463.473 248.558 463.018 247.842 463.192 247.062C463.367 246.282 464.083 245.827 464.863 246.002L470.323 247.222C471.103 247.397 471.557 248.113 471.383 248.893C471.296 249.283 471.209 249.673 470.971 249.824C470.732 249.976 470.255 250.279 469.865 250.192ZM480.244 232.893L477.215 228.121C476.761 227.405 476.935 226.625 477.651 226.171C478.367 225.717 479.147 225.891 479.601 226.607L482.63 231.379C483.084 232.095 482.91 232.875 482.194 233.33C481.478 233.784 480.698 233.609 480.244 232.893Z" fill="white"/>
<path fill-rule="evenodd" clip-rule="evenodd" d="M362.651 169.799C360.893 169.119 359.466 166.833 360.634 163.817L362.677 158.541C363.649 156.029 363.269 153.281 361.939 150.744C358.779 145.475 358.463 139.574 360.603 134.047C364.551 124.596 375.259 120.074 384.652 123.422C389.426 125.27 393.268 128.78 395.269 133.311C397.271 137.842 397.53 143.143 395.682 147.917C393.639 153.193 389.432 157.343 383.896 158.956C380.954 159.839 378.627 162.117 377.655 164.629L377.378 165.343C377.373 165.356 377.368 165.37 377.363 165.383C377.358 165.397 377.353 165.41 377.347 165.423L375.417 170.408C374.639 172.418 372.199 173.496 370.189 172.718L362.651 169.799ZM363.146 164.789C362.951 165.292 362.368 166.799 363.624 167.286L371.162 170.204C371.916 170.496 372.613 170.188 372.905 169.435L374.364 165.666L364.313 161.775L363.146 164.789ZM375.352 163.158C376.728 160.104 379.715 157.491 383.169 156.361C387.756 154.959 391.42 151.466 393.171 146.943C394.728 142.923 394.679 138.571 392.831 134.388C391.138 130.554 387.952 127.588 383.932 126.031C375.892 122.918 366.481 127.076 363.117 135.018C361.269 139.792 361.528 145.093 364.227 149.316C366.066 152.562 366.437 156.062 365.285 159.26L375.352 163.158ZM400.926 151.391C400.172 151.099 399.864 150.402 400.156 149.648C400.448 148.895 401.145 148.587 401.899 148.879L406.924 150.824C407.678 151.116 407.986 151.813 407.694 152.567C407.402 153.321 406.705 153.628 405.951 153.337L400.926 151.391ZM386.887 144.512C388.736 139.738 386.272 134.161 381.498 132.313C380.745 132.021 380.436 131.324 380.728 130.57C381.02 129.816 381.717 129.509 382.471 129.8C388.753 132.232 391.832 139.203 389.4 145.484C389.108 146.239 388.411 146.546 387.657 146.254C386.903 145.962 386.596 145.266 386.887 144.512ZM349.265 131.389C348.511 131.097 348.203 130.4 348.495 129.647C348.787 128.893 349.484 128.585 350.238 128.877L355.263 130.822C356.016 131.114 356.324 131.811 356.032 132.565C355.741 133.319 355.044 133.627 354.29 133.335L349.265 131.389ZM399.289 131.744C398.981 131.046 399.273 130.293 399.97 129.985L404.849 127.829C405.547 127.521 406.3 127.813 406.608 128.51C406.916 129.207 406.625 129.961 405.927 130.269L401.047 132.425C401.047 132.425 400.448 132.481 400.197 132.384C399.945 132.287 399.443 132.092 399.289 131.744ZM366.72 119.135L364.662 114.003C364.354 113.307 364.646 112.553 365.343 112.245C366.04 111.937 366.794 112.229 367.102 112.926L369.258 117.805C369.565 118.502 369.274 119.256 368.576 119.564C368.228 119.718 367.88 119.872 367.628 119.775C367.377 119.678 366.874 119.483 366.72 119.135ZM385.867 117.302L387.812 112.277C388.104 111.523 388.801 111.215 389.555 111.506C390.309 111.798 390.616 112.496 390.325 113.249L388.379 118.275C388.087 119.028 387.39 119.336 386.636 119.045C385.883 118.753 385.575 118.055 385.867 117.302Z" fill="white"/>
</svg>
