<svg width="138" height="128" viewBox="0 0 138 128" fill="none" xmlns="http://www.w3.org/2000/svg">
<path d="M138 7.90671C138 45.2817 138 82.6567 138 120.032C136.311 126.105 132.106 127.974 126.536 127.938C88.8016 127.83 51.1031 127.866 13.3688 127.866C11.9313 127.866 10.4938 128.01 9.05625 127.83C7.69063 127.65 6.28906 127.363 5.06719 126.788C2.22813 125.458 0.790625 122.943 0 120.032C0 82.6567 0 45.2817 0 7.90671C1.58125 2.01296 5.78594 -0.0354739 11.3203 0.000463587C48.1922 0.108276 85.0641 0.0723385 121.936 0.0723385C124.236 0.0723385 126.536 0.000463656 128.8 0.108276C132.717 0.252026 135.484 2.19265 137.173 5.67859C137.533 6.3614 137.748 7.15203 138 7.90671ZM135.844 23.5395C91.2094 23.5395 46.7188 23.5395 2.15625 23.5395C2.15625 24.1145 2.15625 24.6177 2.15625 25.1208C2.15625 55.9192 2.15625 86.7536 2.15625 117.552C2.15625 122.871 4.99531 125.746 10.2781 125.746C49.45 125.746 88.5859 125.71 127.758 125.782C132.789 125.782 135.916 122.188 135.916 117.66C135.808 86.8255 135.88 55.9552 135.88 25.0848C135.844 24.6177 135.844 24.1505 135.844 23.5395ZM135.844 21.2036C135.844 20.7005 135.844 20.2333 135.844 19.802C135.844 16.7114 135.7 13.5848 135.88 10.4942C136.167 5.64265 132.753 2.12078 127.614 2.12078C88.8734 2.22859 50.0969 2.19265 11.3562 2.19265C10.6734 2.19265 10.0266 2.19265 9.34375 2.19265C5.67812 2.30046 2.51562 4.78015 2.3 8.3739C2.0125 12.6145 2.22812 16.8911 2.22812 21.2036C46.7547 21.2036 91.2453 21.2036 135.844 21.2036Z" fill="white"/>
<path d="M69.0717 32.3809C87.0404 32.3809 105.009 32.3809 122.978 32.3809C126.608 32.3809 128.225 34.034 128.225 37.6637C128.225 41.6168 128.225 45.5699 128.225 49.523C128.225 52.9371 126.5 54.698 123.122 54.698C87.0764 54.698 50.9951 54.698 14.9498 54.698C11.5357 54.698 9.84668 52.973 9.84668 49.523C9.84668 45.6059 9.84668 41.7246 9.84668 37.8074C9.84668 33.9621 11.4279 32.3809 15.2373 32.3809C33.1342 32.3809 51.1029 32.3809 69.0717 32.3809ZM33.5654 52.5777C33.9967 52.6137 34.3201 52.6137 34.6436 52.6137C64.1482 52.6137 93.6529 52.6137 123.158 52.6137C125.206 52.6137 126.033 51.823 126.033 49.7746C126.069 45.7855 126.033 41.7965 126.033 37.7715C126.033 35.184 125.35 34.5012 122.762 34.5012C93.5451 34.5012 64.292 34.5012 35.0748 34.5012C34.6076 34.5012 34.1404 34.5012 33.6014 34.5012C33.5654 40.6465 33.5654 46.5402 33.5654 52.5777ZM31.2654 34.609C30.7982 34.573 30.367 34.5371 29.8998 34.5371C24.9045 34.5371 19.9451 34.5371 14.9498 34.5371C12.6857 34.5371 11.9311 35.2559 11.9311 37.484C11.9311 41.473 11.9311 45.4621 11.9311 49.4871C11.9311 51.7871 12.6857 52.5418 15.0217 52.5418C20.017 52.5418 24.9764 52.5418 29.9717 52.5418C30.367 52.5418 30.7623 52.5059 31.2295 52.4699C31.2654 46.5043 31.2654 40.6105 31.2654 34.609Z" fill="white"/>
<path d="M46.4668 62.3523C58.0027 62.3523 69.5387 62.3523 81.1105 62.3523C83.0152 62.3523 83.123 62.4602 83.123 64.293C83.123 81.6148 83.123 98.9727 83.123 116.295C83.123 118.163 82.9793 118.307 81.1465 118.307C58.0746 118.307 34.9668 118.307 11.8949 118.307C10.134 118.307 9.81055 118.02 9.81055 116.295C9.81055 98.9008 9.81055 81.543 9.81055 64.1492C9.81055 62.532 10.0262 62.3164 11.7152 62.3164C23.2871 62.3523 34.859 62.3523 46.4668 62.3523ZM12.0387 64.5805C12.0387 81.7586 12.0387 98.8648 12.0387 115.971C35.0027 115.971 57.8949 115.971 80.859 115.971C80.859 98.8289 80.859 81.7586 80.859 64.5805C57.9309 64.5805 35.0387 64.5805 12.0387 64.5805Z" fill="white"/>
<path d="M109.466 62.3516C115.036 62.3516 120.606 62.3516 126.177 62.3516C127.938 62.3516 128.046 62.4594 128.046 64.1484C128.046 70.9766 128.046 77.8047 128.046 84.6328C128.046 86.3219 127.866 86.5016 126.213 86.5375C115.036 86.5375 103.86 86.5375 92.683 86.5375C90.958 86.5375 90.7783 86.3578 90.7783 84.7047C90.7783 77.8766 90.7783 71.0484 90.7783 64.2203C90.7783 62.4953 90.9221 62.3516 92.6111 62.3516C98.2533 62.3516 103.86 62.3516 109.466 62.3516ZM93.0424 64.5438C93.0424 71.1922 93.0424 77.7328 93.0424 84.2734C104.039 84.2734 114.892 84.2734 125.781 84.2734C125.781 77.6609 125.781 71.1203 125.781 64.5438C114.856 64.5438 104.003 64.5438 93.0424 64.5438Z" fill="white"/>
<path d="M109.43 94.157C115.036 94.157 120.642 94.157 126.285 94.157C127.902 94.157 128.046 94.3008 128.046 95.918C128.046 102.782 128.046 109.646 128.046 116.546C128.046 118.127 127.83 118.307 126.249 118.307C115.036 118.307 103.788 118.307 92.5752 118.307C90.9939 118.307 90.7783 118.091 90.7783 116.51C90.7783 109.646 90.7783 102.782 90.7783 95.882C90.7783 94.2648 90.958 94.1211 92.5752 94.1211C98.2174 94.157 103.824 94.157 109.43 94.157ZM93.0064 116.079C104.039 116.079 114.928 116.079 125.817 116.079C125.817 109.466 125.817 102.926 125.817 96.4211C114.821 96.4211 103.931 96.4211 93.0064 96.4211C93.0064 102.962 93.0064 109.466 93.0064 116.079Z" fill="white"/>
<path d="M93.0062 16.6035C82.764 16.6035 72.5218 16.6035 62.2796 16.6035C58.9374 16.6035 56.853 14.4113 57.1046 11.2848C57.2843 9.20039 58.7937 7.47539 60.8421 7.04414C61.4531 6.93633 62.0999 6.90039 62.7109 6.90039C83.0156 6.90039 103.32 6.90039 123.589 6.90039C127.039 6.90039 129.195 8.84101 129.123 11.8957C129.087 14.3395 127.219 16.352 124.775 16.5676C124.236 16.6035 123.697 16.6035 123.158 16.6035C113.095 16.6035 103.033 16.6035 93.0062 16.6035ZM93.0781 14.4473C103.105 14.4473 113.095 14.4473 123.122 14.4473C123.697 14.4473 124.308 14.4473 124.883 14.3754C126.105 14.1957 126.931 13.1895 127.003 11.9316C127.075 10.6738 126.356 9.55977 125.206 9.23633C124.667 9.09258 124.056 9.05664 123.481 9.05664C103.248 9.05664 82.9796 9.05664 62.7468 9.05664C62.3156 9.05664 61.8484 9.05664 61.4171 9.16445C60.0515 9.45195 59.2609 10.4941 59.2968 11.8598C59.3327 13.5129 60.4827 14.4473 62.5671 14.4473C72.6656 14.4473 82.8718 14.4473 93.0781 14.4473Z" fill="white"/>
<path d="M8.87643 11.7165C8.91236 9.02114 11.1046 6.8649 13.7639 6.90083C16.3514 6.97271 18.5436 9.1649 18.5436 11.7524C18.5436 14.4118 16.3514 16.604 13.6561 16.568C10.9608 16.604 8.84049 14.4836 8.87643 11.7165ZM13.728 14.4477C15.2374 14.4118 16.4592 13.154 16.3874 11.6805C16.3155 10.243 15.0936 9.09302 13.6561 9.12896C12.1467 9.1649 10.9967 10.3868 11.0327 11.9321C11.0686 13.3696 12.2186 14.4477 13.728 14.4477Z" fill="white"/>
<path d="M31.8769 11.7876C31.8769 14.5188 29.7566 16.6391 27.0254 16.6032C24.33 16.6032 22.1379 14.411 22.2097 11.7157C22.2457 9.09224 24.4019 6.93599 27.0254 6.93599C29.7207 6.90005 31.8769 9.0563 31.8769 11.7876ZM27.0254 14.4469C28.5347 14.4469 29.6488 13.3688 29.7207 11.8954C29.7566 10.3501 28.6066 9.12818 27.0972 9.12818C25.5879 9.12818 24.366 10.3501 24.4019 11.8594C24.4019 13.2969 25.5519 14.411 27.0254 14.4469Z" fill="white"/>
<path d="M40.5375 16.6032C37.8063 16.6032 35.65 14.411 35.686 11.7516C35.7219 9.12818 37.8422 6.97193 40.4656 6.93599C43.161 6.90005 45.3172 9.0563 45.3531 11.7516C45.3531 14.4829 43.2688 16.6032 40.5375 16.6032ZM43.1969 11.7876C43.1969 10.3141 42.0828 9.12818 40.6094 9.12818C39.1 9.09224 37.8781 10.3141 37.8781 11.8235C37.8781 13.3329 39.1 14.5188 40.6453 14.4829C42.0828 14.411 43.1969 13.261 43.1969 11.7876Z" fill="white"/>
<path d="M20.8801 37.7347C24.366 37.6987 26.8098 41.0768 25.5879 44.3112C25.2285 45.2456 25.4082 45.7847 26.091 46.3597C26.5582 46.755 27.0973 47.1862 27.3848 47.7253C27.5644 48.0847 27.5644 48.8034 27.3129 49.1268C27.1332 49.3784 26.1629 49.4143 26.0551 49.2347C24.6894 47.1503 22.8926 47.3659 20.7004 47.6175C18.0051 47.905 15.8488 45.3175 15.9207 42.5503C15.9926 39.855 18.1488 37.7706 20.8801 37.7347ZM20.8801 45.4253C22.4613 45.4253 23.7191 44.1675 23.6832 42.6222C23.6473 41.1128 22.4613 39.9268 20.9519 39.8909C19.3348 39.855 18.1129 41.0409 18.0769 42.6222C18.041 44.2034 19.2629 45.4253 20.8801 45.4253Z" fill="white"/>
<path d="M65.5858 95.1262C67.2748 96.7433 68.8561 98.2527 70.4373 99.7621C71.6952 100.984 72.953 102.206 74.2467 103.356C75.1092 104.146 75.1092 104.829 74.2827 105.62C73.0967 106.806 71.9467 107.992 70.8327 109.214C70.042 110.112 69.3592 110.112 68.4608 109.286C65.6577 106.554 62.8186 103.895 59.8358 101.056C59.0092 102.853 58.1827 104.506 57.392 106.195C57.2123 106.59 57.0686 107.057 56.817 107.417C56.4936 107.812 55.9905 108.387 55.667 108.315C55.2358 108.207 54.6967 107.668 54.517 107.237C53.5827 104.398 52.7202 101.487 51.8577 98.648C50.528 94.3355 49.1983 89.9871 47.9045 85.6746C47.4014 84.0574 47.9764 83.4824 49.6295 83.9137C56.7811 85.7465 63.9686 87.5793 71.1202 89.484C71.6952 89.6277 72.1623 90.2746 72.6655 90.7058C72.2342 91.173 71.9108 91.784 71.3717 92.0715C69.5389 93.0777 67.6342 94.048 65.5858 95.1262ZM55.8827 104.111C56.0983 103.895 56.2061 103.859 56.242 103.787C56.853 102.457 57.4998 101.092 58.1108 99.7621C59.0452 97.7496 59.4764 97.6777 61.0577 99.223C63.8608 101.918 66.6639 104.614 69.2873 107.165C70.3655 106.267 71.3358 105.44 72.4139 104.578C69.3233 101.631 66.3764 98.7918 63.4295 95.9887C62.2795 94.8746 62.3514 94.2996 63.753 93.5808C65.2983 92.7902 66.8436 91.9996 68.6764 91.0293C62.4592 89.4121 56.6014 87.8668 50.492 86.2855C52.3248 92.3949 54.0858 98.2168 55.8827 104.111Z" fill="white"/>
</svg>
