<svg width="111" height="96" viewBox="0 0 111 96" fill="none" xmlns="http://www.w3.org/2000/svg">
<path d="M91.3671 82.8208L89.3951 75.8275C89.2689 75.3817 89.0435 74.9634 88.7326 74.5978C88.4216 74.2322 88.0315 73.9269 87.5858 73.7003C87.1378 73.4702 86.6432 73.3227 86.1309 73.2662C85.6187 73.2098 85.099 73.2456 84.6024 73.3717L61.4671 79.2329L45.742 73.2804L65.6398 68.7019C66.9982 67.6135 67.9821 66.1992 68.4758 64.6255L66.9155 59.5859L25.4122 64.1508H0V91.5396H25.4122L48.0545 95.9401C49.2854 96.0407 50.5251 96.0146 51.7495 95.8625L88.648 86.9429C89.6159 86.7101 90.4441 86.1465 90.9554 85.3726C91.2079 84.9917 91.3742 84.5699 91.4449 84.1313C91.5155 83.6926 91.4891 83.2457 91.3671 82.8163V82.8208ZM15.2473 86.9748H5.08245V68.7156H15.2473V86.9748ZM50.428 91.4575C50.199 91.5111 49.9633 91.5387 49.7267 91.5396C49.5302 91.5403 49.3342 91.5219 49.1422 91.4849L25.4122 86.8059V68.8069L62.6615 64.662L35.5771 73.2804L59.5713 83.469L61.1825 84.0488L62.8495 83.6243L84.7854 78.0689L86.1271 82.8254L50.428 91.4575Z" fill="white"/>
<path d="M54.4338 0L50.9989 3.03373L56.1098 7.55196L59.5398 4.51823L54.4314 0H54.4338ZM99.2607 0L94.1498 4.51823L97.5823 7.55196L102.691 3.03589L99.2583 0H99.2607ZM76.846 1.34641C76.041 1.35504 75.2262 1.39603 74.4065 1.4845C74.3821 1.4845 74.3577 1.48019 74.3333 1.4845C64.4384 2.48783 56.5635 9.55863 55.1949 18.2714C54.102 25.284 57.371 31.6427 62.8186 35.738C65.0469 37.4201 66.5541 39.7282 67.0878 42.2759V55.2221H72.65C73.499 56.5103 75.0481 57.3798 76.846 57.3798C78.644 57.3798 80.1931 56.5103 81.0421 55.2221H86.6043V46.5913H86.8336V44.028C86.8336 40.8648 88.6926 37.6757 91.7127 35.1965C95.7526 31.619 98.8021 26.5376 98.8021 20.701C98.8021 10.042 88.8828 1.24715 76.846 1.34641ZM76.846 5.66182C86.2749 5.5453 93.923 12.3723 93.923 20.701C93.923 25.2192 91.5566 29.198 88.2803 32.0937L88.3583 32.1627C85.1024 34.8182 82.9971 38.3959 82.4058 42.278H71.7352C71.1985 38.5797 69.4054 35.0001 66.0168 32.4324C61.7061 29.1959 59.1373 24.3195 59.996 18.813C61.0621 12.0163 67.2976 6.55079 74.9383 5.80207C75.5691 5.72428 76.2044 5.67817 76.8412 5.66397L76.846 5.66182ZM42.6922 20.701V25.0164H50.0109V20.701H42.6922ZM103.681 20.701V25.0164H111V20.701H103.681ZM56.1098 38.1655L51.0013 42.6815L54.4338 45.7174L59.5374 41.1992L56.1098 38.1655ZM97.5823 38.1655L94.1523 41.1992L99.2583 45.7174L102.691 42.6815L97.5823 38.1655ZM71.9669 46.5935H81.7252V50.9089H71.9669V46.5935Z" fill="white"/>
</svg>
