<svg width="96" height="96" viewBox="0 0 96 96" fill="none" xmlns="http://www.w3.org/2000/svg">
<path d="M50.8244 95.9993C44.7819 94.5608 38.7395 93.1421 32.697 91.7036C30.5486 91.1913 28.4001 90.6592 26.2517 90.1272C24.5733 89.7134 22.9619 89.871 21.4178 90.5804C20.7911 90.876 20.1869 91.2307 19.5379 91.4671C18.3965 91.881 17.5685 92.3933 17.6804 93.6938C17.7475 94.5806 16.9419 95.1126 15.9348 95.0929C11.2575 95.0141 6.58018 94.9155 1.90287 94.7776C0.560107 94.7382 -0.0217588 94.0879 0.00062066 92.8465C0.224415 85.4768 0.470589 78.1071 0.694383 70.7374C0.739142 69.2004 0.783902 67.6831 0.828661 66.1461C0.873419 64.7668 1.52242 64.2347 3.08898 64.2544C7.45298 64.3333 11.817 64.4318 16.181 64.55C18.128 64.5894 18.6651 65.1412 18.5979 66.8752C18.5756 67.4664 18.5979 68.0575 18.5979 68.6487C20.1197 68.1757 21.6192 67.624 23.1857 67.2496C28.7806 65.89 34.2636 66.2446 39.4108 68.5895C42.723 70.1068 46.1023 70.8556 49.7949 70.8359C53.0623 70.8162 56.3297 70.9936 59.5747 71.0527C63.9163 71.1118 67.2733 72.7079 69.6007 75.9593C69.6679 76.0578 69.7574 76.1563 69.8916 76.3139C70.854 75.9198 71.8163 75.5257 72.7562 75.1316C76.5607 73.5552 80.3652 71.9197 84.1921 70.3827C88.2204 68.7669 92.9425 69.9689 95.3818 73.1611C96.3665 74.442 96.1875 75.2302 94.7328 76.0578C84.4159 81.9496 74.0766 87.8414 63.7373 93.6938C61.4994 94.9549 58.9033 95.4476 56.3073 95.8023C55.9716 95.8417 55.6136 95.9205 55.2779 95.9993C53.8008 95.9993 52.3238 95.9993 50.8244 95.9993ZM67.4075 79.7032C66.6914 76.6489 63.7821 74.4025 60.4251 74.2449C58.1648 74.1464 55.8821 74.1267 53.6218 74.0479C51.0258 73.969 48.4521 73.9493 45.8561 73.8114C42.902 73.634 40.3284 72.4123 37.6652 71.3483C31.4438 68.826 25.3118 69.1019 19.3141 72.0379C18.6427 72.3532 18.3741 72.7276 18.3518 73.4173C18.2175 78.2844 18.0608 83.1516 17.9042 88.0188C17.9042 88.1567 17.9266 88.3143 17.9713 88.5902C18.3965 88.4129 18.7546 88.2749 19.0679 88.1173C21.843 86.6591 24.7747 86.4226 27.863 87.2306C31.2647 88.1173 34.6664 88.9646 38.0904 89.7725C42.2978 90.7775 46.4604 91.9598 50.7348 92.6495C54.7184 93.2997 58.7243 92.7677 62.2155 90.8169C71.7268 85.4965 81.1485 80.0579 90.615 74.6587C90.9283 74.4814 91.2193 74.304 91.555 74.0873C89.7198 72.6882 87.6162 72.432 85.423 73.3385C81.4171 74.9937 77.4111 76.6686 73.4276 78.3436C72.6443 78.6785 71.8387 78.9938 71.1001 79.3091C71.1673 79.9397 71.2344 80.4717 71.2344 81.0037C71.2568 82.2452 70.563 82.8954 69.1755 82.856C62.2603 82.6984 55.345 82.5408 48.4298 82.3634C47.1317 82.324 46.3708 81.6737 46.3932 80.7476C46.438 79.8214 47.2436 79.2303 48.5417 79.25C50.7796 79.2894 53.0175 79.3485 55.2331 79.3879C59.2614 79.5062 63.3121 79.6047 67.4075 79.7032ZM4.36461 67.624C4.11844 75.5849 3.87227 83.6048 3.60371 91.7824C7.2068 91.7824 10.6756 91.7824 14.2116 91.7824C14.4577 83.8019 14.7039 75.8016 14.9725 67.624C11.4365 67.624 7.99009 67.624 4.36461 67.624Z" fill="#2C98B3"/>
<path d="M49.0999 66.6192C34.777 66.6192 23.1621 56.3923 23.1621 43.8008C23.1621 31.2289 34.8218 20.9823 49.1223 21.002C63.4451 21.002 75.0601 31.2289 75.0377 43.8205C75.0601 56.412 63.4227 66.6192 49.0999 66.6192ZM49.0775 63.4861C61.3415 63.5255 71.3898 54.7568 71.4793 43.9584C71.5465 33.0418 61.6324 24.1942 49.2342 24.1351C36.9255 24.076 26.8323 32.8644 26.7876 43.6825C26.7204 54.5991 36.6793 63.4467 49.0775 63.4861Z" fill="#2C98B3"/>
<path d="M47.3544 9.11883C47.3544 6.6557 47.332 4.19256 47.3544 1.70972C47.3768 0.369779 48.8091 -0.438129 49.9504 0.251549C50.398 0.52742 50.8232 1.13828 50.8232 1.6112C50.8904 6.57688 50.868 11.5426 50.8456 16.5082C50.8456 17.4541 50.1071 18.0649 49.1448 18.1043C48.1377 18.1241 47.3544 17.4935 47.332 16.5082C47.332 14.0451 47.3544 11.582 47.3544 9.11883Z" fill="#2C98B3"/>
<path d="M64.2962 12.9611C64.2962 14.1237 64.3185 15.2666 64.2962 16.4292C64.2738 17.4342 63.58 18.0844 62.5953 18.1238C61.5435 18.1435 60.7826 17.4933 60.7826 16.4292C60.7602 14.1434 60.7602 11.8773 60.7826 9.59154C60.805 8.54718 61.5659 7.8772 62.5953 7.89691C63.6024 7.91661 64.2738 8.56688 64.2962 9.59154C64.3185 10.7147 64.2962 11.8379 64.2962 12.9611Z" fill="#2C98B3"/>
<path d="M33.9279 13.0196C33.9279 11.8964 33.9055 10.7733 33.9279 9.65006C33.9503 8.56628 34.6441 7.91602 35.6959 7.91602C36.7477 7.91602 37.4415 8.56628 37.4639 9.65006C37.4862 11.8964 37.4862 14.1428 37.4639 16.3892C37.4415 17.4533 36.7253 18.1232 35.6959 18.1232C34.6664 18.1232 33.9503 17.4533 33.9279 16.3892C33.9279 15.266 33.9279 14.1428 33.9279 13.0196Z" fill="#2C98B3"/>
<path d="M56.7559 48.8624C56.7336 51.7197 54.697 54.2222 51.5415 55.168C50.8478 55.3848 50.5568 55.641 50.6463 56.2912C50.6911 56.5671 50.6687 56.8627 50.624 57.1386C50.4673 57.9662 49.8631 58.38 48.9679 58.4588C48.1175 58.5376 47.1328 57.9268 47.2223 57.1583C47.3789 55.6804 46.5285 55.1286 45.1858 54.5178C42.9031 53.4537 41.7841 51.5817 41.5155 49.3353C41.3813 48.1924 42.0303 47.3648 43.1268 47.2663C44.2011 47.1678 44.9843 47.8575 45.0962 49.0398C45.2977 51.0694 46.9985 52.4093 49.2812 52.3699C51.3401 52.3502 53.0633 50.8723 53.1752 49.0595C53.3095 47.1481 51.8325 45.5126 49.5945 45.3155C47.9608 45.1579 46.3719 45.0002 44.962 44.1529C42.5226 42.6947 41.3365 40.6454 41.5379 38.0837C41.7617 35.4433 43.2835 33.4925 46.0809 32.4284C46.9537 32.0934 47.2447 31.6993 47.1552 30.9111C47.0656 30.182 47.2894 29.5317 48.0727 29.1573C49.1469 28.6253 50.4673 29.2165 50.6463 30.3002C50.6911 30.5761 50.7135 30.8717 50.6687 31.1476C50.6016 31.7387 50.8478 31.9949 51.5191 32.1919C54.6299 33.1575 56.3307 35.1477 56.7559 38.0049C56.8678 38.8128 56.6664 39.5025 55.7936 39.936C54.5851 40.5272 53.3319 39.7784 53.1752 38.399C52.929 36.1132 50.7806 34.6354 48.2965 35.0689C46.3719 35.4039 45.0291 36.9014 45.0739 38.6355C45.1186 40.3301 46.5061 41.7686 48.386 42.0445C49.3036 42.1824 50.2211 42.1824 51.1163 42.3794C54.4509 43.1282 56.7783 45.8278 56.7559 48.8624Z" fill="#2C98B3"/>
</svg>
