<svg width="112" height="112" viewBox="0 0 112 112" fill="none" xmlns="http://www.w3.org/2000/svg">
<path d="M40.9612 77.5556C41.4835 78.2994 41.9038 78.9055 42.3333 79.5057C46.6847 85.5902 51.0329 91.6777 55.3966 97.7534C56.7471 99.6332 57.5042 101.668 57.223 103.949C56.7193 108.034 54.1728 110.772 50.0656 111.758C46.388 112.64 42.2932 111.067 39.9104 107.761C34.7092 100.544 29.5451 93.3027 24.3625 86.0734C24.0596 85.6517 23.7444 85.2418 23.559 84.9929C21.5657 85.6341 19.733 86.4774 17.8015 86.8054C6.97575 88.6442 -0.351648 79.6521 0.0130228 72.1417C0.241714 67.3924 2.40501 63.6562 6.49674 60.9477C9.56553 58.9156 12.7116 56.9919 15.7742 54.954C16.4325 54.5177 17.0567 53.8852 17.409 53.2088C23.3272 41.9212 29.2052 30.613 35.0832 19.3049C36.5264 16.5291 38.9462 15.0973 42.1077 14.7635C46.0357 14.3477 49.5742 15.5862 52.9428 17.3167C59.1545 20.5083 64.1734 25.0351 68.5896 30.1797C74.9095 37.5437 79.8573 45.6281 82.4563 54.8691C83.5689 58.819 84.1623 62.8304 83.2815 66.9122C82.7407 69.4156 81.6065 71.6117 79.437 73.2368C77.9969 74.3172 76.3589 74.815 74.5263 74.9497C63.6356 75.749 52.7481 76.5865 41.8574 77.4122C41.638 77.4297 41.4186 77.4824 40.9612 77.5556ZM37.673 27.0672C37.8244 28.3584 37.9326 29.597 38.1273 30.8239C38.2694 31.7257 38.4734 32.6246 38.7361 33.5001C42.63 46.4099 50.2108 57.0329 61.1015 65.5448C64.1208 67.9048 67.4801 69.7641 71.3833 70.5986C73.4447 71.0407 75.1104 70.4112 76.5629 69.1111C77.7558 68.0453 78.3584 66.6603 78.6644 65.1582C79.2299 62.3766 78.9487 59.6184 78.3214 56.8836C77.0296 51.2412 74.3934 46.1347 71.2257 41.2565C66.9671 34.6977 61.9452 28.7537 55.4429 24.0425C52.5163 21.9196 49.4011 20.1072 45.7544 19.2873C41.5978 18.3562 38.6619 20.1774 37.9511 24.1596C37.778 25.1346 37.7564 26.1302 37.673 27.0672ZM61.8865 71.5765C47.3893 61.5538 37.9418 48.4303 33.5565 32.0302C33.4823 32.1356 33.3804 32.244 33.3124 32.3728C29.4215 39.8833 25.5461 47.4025 21.6275 54.9013C21.2968 55.5367 21.5471 55.9114 21.8809 56.377C25.8088 61.8495 29.7491 67.3162 33.6369 72.8151C34.119 73.4974 34.6134 73.6701 35.4324 73.6057C42.2808 73.0669 49.1323 72.5692 55.9807 72.0538C57.9276 71.9045 59.8715 71.7405 61.8865 71.5765ZM29.9871 75.3801C25.9695 69.7758 22.0354 64.2886 18.0549 58.7399C14.8656 60.8101 11.7288 62.7455 8.7033 64.8244C4.38598 67.7935 3.33523 73.3158 6.14752 77.6435C9.24413 82.4074 14.8594 84.2667 19.6681 81.7574C23.2345 79.8981 26.5134 77.5527 29.9871 75.3801ZM27.2119 82.3459C27.7187 83.0662 28.1792 83.7338 28.652 84.3927C33.6554 91.379 38.6681 98.3595 43.6591 105.355C44.6017 106.678 45.8224 107.548 47.5252 107.653C49.5124 107.779 51.0731 107.009 52.0651 105.369C53.1097 103.639 52.8902 101.938 51.7282 100.315C46.595 93.1475 41.4649 85.9767 36.3317 78.8059C35.6858 77.9041 34.6629 77.6025 33.6925 78.1969C31.5261 79.5233 29.4153 80.9288 27.2119 82.3459Z" fill="url(#paint0_linear_390_21330)"/>
<path d="M87.8275 30.4344C86.375 30.4373 85.624 29.9396 85.2439 28.9909C84.8669 28.051 85.2439 27.073 86.2545 26.4347C88.4981 25.0146 90.7603 23.6267 93.0132 22.2241C95.8781 20.441 98.7429 18.6548 101.611 16.8746C103.039 15.9874 104.38 16.1221 105.177 17.2142C105.999 18.3386 105.613 19.627 104.148 20.5405C99.1601 23.6501 94.1691 26.7538 89.1657 29.84C88.665 30.1504 88.0778 30.3261 87.8275 30.4344Z" fill="url(#paint1_linear_390_21330)"/>
<path d="M109.337 47.8913C106.871 47.4755 104.25 47.0333 101.632 46.5912C98.1773 46.0056 94.7253 45.417 91.2702 44.8314C89.5643 44.5416 88.6155 43.4465 88.9431 42.1493C89.2552 40.9078 90.3832 40.2637 91.9006 40.5184C95.8502 41.1802 99.7936 41.8653 103.74 42.5358C105.789 42.8843 107.838 43.2298 109.89 43.5724C111.231 43.7949 112.112 44.7699 111.988 45.9119C111.862 47.0743 110.811 47.9118 109.337 47.8913Z" fill="url(#paint2_linear_390_21330)"/>
<path d="M79.9657 2.29868C79.4929 6.65563 79.0231 11.0126 78.5503 15.3666C78.4359 16.4207 78.3339 17.4748 78.1949 18.523C78.0187 19.8582 77.002 20.6459 75.6607 20.5229C74.4153 20.4087 73.5623 19.4307 73.6983 18.1248C74.2577 12.7138 74.8356 7.30273 75.4413 1.89461C75.5835 0.641397 76.6775 -0.11697 77.9662 0.0147926C79.1684 0.137771 79.9997 1.08061 79.9657 2.29868Z" fill="url(#paint3_linear_390_21330)"/>
<path d="M54.2655 35.8541C59.6429 35.8716 64.297 38.9783 66.0462 43.7159C67.78 48.4067 66.1884 53.6186 62.0596 56.7428C61.6702 57.0356 61.2561 57.3314 60.8018 57.5071C59.8067 57.8936 58.6385 57.4895 58.0698 56.6316C57.5321 55.8234 57.6464 54.7049 58.3727 54.0022C58.6663 53.7182 59.0248 53.4898 59.3493 53.2321C62.3995 50.793 63.0176 46.5532 60.774 43.4231C58.5612 40.3311 54.2284 39.2799 50.727 40.9899C50.35 41.1744 50.0007 41.4086 49.6175 41.5784C48.471 42.0908 47.2163 41.719 46.6198 40.7117C46.0326 39.722 46.354 38.5303 47.3986 37.8247C49.2158 36.6007 51.8426 35.8453 54.2655 35.8541Z" fill="url(#paint4_linear_390_21330)"/>
<defs>
<linearGradient id="paint0_linear_390_21330" x1="76.5006" y1="111.967" x2="-9.11265" y2="105.041" gradientUnits="userSpaceOnUse">
<stop stop-color="#BBD2C5"/>
<stop offset="0.993949" stop-color="#1FB9B3"/>
</linearGradient>
<linearGradient id="paint1_linear_390_21330" x1="103.837" y1="30.4296" x2="83.1166" y2="27.6048" gradientUnits="userSpaceOnUse">
<stop stop-color="#BBD2C5"/>
<stop offset="0.993949" stop-color="#1FB9B3"/>
</linearGradient>
<linearGradient id="paint2_linear_390_21330" x1="110.01" y1="47.8891" x2="88.0857" y2="41.4713" gradientUnits="userSpaceOnUse">
<stop stop-color="#BBD2C5"/>
<stop offset="0.993949" stop-color="#1FB9B3"/>
</linearGradient>
<linearGradient id="paint3_linear_390_21330" x1="79.4259" y1="20.5284" x2="72.9634" y2="20.3425" gradientUnits="userSpaceOnUse">
<stop stop-color="#BBD2C5"/>
<stop offset="0.993949" stop-color="#1FB9B3"/>
</linearGradient>
<linearGradient id="paint4_linear_390_21330" x1="64.9819" y1="57.6466" x2="44.1317" y2="55.8108" gradientUnits="userSpaceOnUse">
<stop stop-color="#BBD2C5"/>
<stop offset="0.993949" stop-color="#1FB9B3"/>
</linearGradient>
</defs>
</svg>
