<svg width="112" height="112" viewBox="0 0 112 112" fill="none" xmlns="http://www.w3.org/2000/svg">
<path d="M45.3695 0C45.4641 6.195 45.5645 12.3929 45.6472 18.5879C45.662 19.8187 45.2573 20.1862 43.9813 20.2475C43.6564 20.2621 43.3314 20.2854 42.9445 20.3058C42.9445 22.4321 42.9061 24.5029 42.9593 26.5708C42.9918 27.7783 42.7821 28.8254 41.6774 29.4992C42.3035 30.7125 42.8973 31.8646 43.553 33.1362C49.6407 30.6337 55.752 28.1196 62.0346 25.5354C59.7513 24.0946 58.2124 22.2396 57.5124 19.7662C56.8094 17.2871 57.1195 14.9217 58.3424 12.6817C60.3125 9.07958 64.5275 7.11958 68.5476 7.93625C71.2414 8.48167 73.3563 9.905 74.845 12.2062C76.316 14.4783 76.2332 17.0363 76.1299 19.7225C81.9753 17.3133 87.679 14.9654 93.4772 12.5767C93.687 13.0171 93.8848 13.3904 94.0473 13.7783C99.7864 27.3438 105.526 40.9121 111.262 54.4775C112.889 58.3275 111.844 60.8767 107.948 62.5654C107.815 62.6237 107.688 62.6967 107.454 62.8192C107.818 63.9829 108.219 65.1408 108.527 66.3221C108.657 66.8237 108.719 67.41 108.592 67.9029C107.469 72.2021 106.347 76.5013 105.109 80.7683C104.707 82.1479 103.963 83.4283 103.496 84.4725C103.759 85.7033 104.123 86.7504 104.179 87.815C104.285 89.7721 104.208 91.7408 104.208 93.5987C104.415 93.7446 104.468 93.8175 104.527 93.8204C107.088 93.9925 107.115 94.0275 107.15 96.6058C107.215 101.235 107.286 105.863 107.351 110.492C107.357 110.883 107.351 111.274 107.351 111.72C106.453 111.72 105.658 111.72 104.592 111.72C104.592 109.197 104.592 106.695 104.592 104.192C104.592 101.678 104.592 99.1637 104.592 96.6612C92.8245 96.6612 81.1926 96.6612 69.546 96.6612C69.546 101.789 69.546 106.727 69.546 111.714C68.7662 111.714 68.0012 111.714 67.0944 111.714C67.0737 111.352 67.0353 110.97 67.0294 110.588C66.9555 105.849 66.8846 101.112 66.8167 96.3725C66.7872 94.3658 66.9733 94.1762 68.967 94.1062C69.1118 94.1004 69.2565 94.0742 69.4839 94.0508C69.4839 92.0121 69.5312 89.9821 69.4662 87.9521C69.4249 86.6746 69.5991 85.5488 70.5975 84.9246C69.7882 82.9179 69.0173 81.0104 68.1548 78.8667C67.3838 79.345 66.5125 79.8846 65.6441 80.4242C65.1183 80.7508 64.6221 81.1504 64.0609 81.4012C59.2935 83.5333 54.5084 85.6275 49.7411 87.7596C48.8668 88.1504 48.0574 88.3371 47.2895 87.6167C46.4831 86.8612 46.6544 86.0358 47.0354 85.1142C48.2258 82.2325 47.4313 79.1583 45.0594 77.2012C42.8057 75.3404 39.5447 75.1129 36.9927 76.6354C34.482 78.1317 33.2178 81.0892 33.847 83.9883C34.2339 85.7675 35.4361 86.9954 36.7505 88.1358C37.2763 88.5937 37.8522 88.9933 38.3957 89.4279C39.7958 90.5421 39.6452 92.1667 38.0088 92.9221C35.4715 94.0946 32.9018 95.1942 30.3438 96.3258C26.9145 97.8425 23.4852 99.3562 19.9555 100.917C19.7783 100.558 19.6099 100.246 19.4652 99.925C13.2593 86.24 7.05056 72.555 0.850639 58.8671C-0.930471 54.9354 0.0619884 52.3717 4.04955 50.5546C4.21201 50.4817 4.37151 50.3942 4.51033 50.3271C4.5251 50.2104 4.5635 50.1258 4.53987 50.0733C3.55037 48.125 3.78076 46.2 4.40991 44.1729C5.40237 40.9733 6.13489 37.6979 7.09782 34.4867C7.597 32.83 8.35611 31.2492 9.06206 29.47C8.26455 28.77 8.21433 27.5829 8.22615 26.3667C8.24387 24.4737 8.23206 22.5837 8.23206 20.7229C8.01939 20.6267 7.92782 20.5537 7.8333 20.5479C5.38169 20.3992 5.32557 20.3379 5.29603 17.9229C5.21923 11.9525 5.13357 5.97625 5.05087 0C5.93699 0 6.82312 0 7.70924 0C7.7949 5.95583 7.88351 11.9146 7.96622 17.7362C19.7044 17.7362 31.2802 17.7362 42.9947 17.7362C42.9947 17.2025 43.0006 16.8496 42.9947 16.4996C42.9002 10.9987 42.8057 5.50083 42.7112 0C43.5973 0 44.4834 0 45.3695 0ZM5.45258 52.8996C2.73808 53.7367 2.02918 55.2038 3.10435 57.5779C8.99117 70.5658 14.8809 83.5508 20.7707 96.5358C20.9155 96.8538 21.0868 97.1629 21.264 97.5129C26.2263 95.3137 31.0793 93.1642 36.0032 90.9825C29.7619 86.1117 30.4383 81.3312 32.2401 77.9829C34.2634 74.2204 38.6468 72.3275 42.8677 73.3308C44.9383 73.8237 46.681 74.8796 48.025 76.5246C49.9685 78.9046 50.5711 81.6346 49.9803 84.7962C50.4736 84.5863 50.8015 84.4521 51.1264 84.3092C54.9604 82.6117 58.7943 80.9142 62.6253 79.2167C64.3769 78.4408 64.6043 77.8371 63.8009 76.0667C61.8455 71.7471 59.8931 67.4275 57.92 63.1167C57.5213 62.2417 57.2731 61.3812 57.9023 60.5383C58.5373 59.6925 59.453 59.7042 60.413 59.8062C61.2548 59.8937 62.1114 59.9375 62.9532 59.885C64.4744 59.7917 65.9454 59.5292 67.1682 58.4821C69.3126 56.6446 70.1308 53.76 69.1915 51.1437C68.2345 48.4837 65.7002 46.6871 62.8557 46.6579C59.9729 46.6287 57.282 48.4108 56.2334 51.1117C55.879 52.0246 55.433 52.7975 54.346 52.8354C53.2442 52.8762 52.7687 52.1208 52.3758 51.2225C50.255 46.3779 48.1077 41.5479 45.9603 36.715C45.3725 35.3908 45.083 35.28 43.7745 35.8575C36.6767 38.9929 29.5788 42.1312 22.4898 45.2871C22.1058 45.4592 21.7661 45.7596 21.4501 46.0454C20.2893 47.0983 19.1225 48.1483 18.009 49.2479C17.7549 49.4987 17.5216 49.9625 17.5689 50.2863C17.9115 52.6283 18.2837 54.9675 18.7297 57.2921C19.2702 60.1096 19.4061 62.8629 17.8997 65.4704C16.7566 67.4508 14.9016 68.1333 12.7572 68.0079C10.8166 67.8942 9.84185 66.5992 9.29541 64.8288C8.06665 60.8563 6.75518 56.9187 5.45258 52.8996ZM106.577 60.1942C109.111 59.5846 109.924 58.0533 108.961 55.7783C104.421 45.0333 99.8721 34.2912 95.3233 23.5492C94.26 21.0379 93.1937 18.5296 92.1067 15.9717C91.5809 16.1787 91.1408 16.3421 90.7066 16.52C85.9806 18.4654 81.2192 20.3379 76.5434 22.4C74.5319 23.2867 73.0078 21.7029 73.3652 20.0258C73.6133 18.8708 73.5572 17.6283 73.4892 16.4354C73.2825 12.8158 69.8591 10.01 66.1964 10.3892C62.7878 10.7421 60.3066 13.0696 59.8193 16.3713C59.3614 19.4717 61.2105 22.4758 64.368 23.695C65.2601 24.0392 65.9631 24.4912 65.9601 25.5383C65.9572 26.5737 65.2837 27.0608 64.3917 27.4137C61.9312 28.3908 59.4855 29.4058 57.0339 30.4062C53.9147 31.6779 50.7956 32.9525 47.7148 34.2096C49.9213 39.0775 52.0864 43.8521 54.2633 48.6558C58.1859 43.9483 62.1557 42.595 66.5568 44.4325C70.4498 46.0571 72.8305 50.0208 72.352 54.1975C72.101 56.3792 71.271 58.3363 69.7616 59.9987C67.372 62.6267 64.2263 63.0671 60.7349 62.9067C62.8351 67.6229 64.8554 72.1583 66.8728 76.6879C67.1859 76.5858 67.3631 76.5392 67.5345 76.4692C75.929 73.0012 84.3265 69.5362 92.7152 66.0537C93.3207 65.8029 93.9114 65.4762 94.4283 65.0825C94.6794 64.8929 94.9039 64.4408 94.8625 64.1433C94.6085 62.3058 94.2393 60.4829 93.9823 58.6425C93.6663 56.3821 92.9899 54.1596 93.43 51.8204C94.0503 48.5246 96.2508 46.3838 99.2016 46.3312C100.941 46.2992 102.341 47.2675 102.897 48.9008C103.154 49.6592 103.387 50.4262 103.635 51.1875C104.619 54.1946 105.599 57.1987 106.577 60.1942ZM89.7939 70.2042C89.4838 70.2537 89.3686 70.2479 89.274 70.2887C83.4197 72.6921 77.5713 75.1071 71.7111 77.49C71.0878 77.7437 70.9992 78.1171 71.0908 78.6712C71.4216 80.6546 72.1689 82.46 73.5513 83.9533C73.8319 84.2567 74.3517 84.5046 74.7623 84.5075C82.9944 84.5396 91.2294 84.5367 99.4615 84.5162C99.7864 84.5162 100.271 84.3879 100.407 84.1575C101.154 82.9121 102.049 81.6842 102.463 80.3221C103.7 76.2446 104.755 72.1146 105.839 67.9933C105.969 67.5004 105.972 66.9025 105.815 66.4212C104.087 61.0079 102.315 55.6062 100.554 50.2017C100.15 48.9592 99.3936 48.5421 98.2209 49.1225C97.5741 49.4433 96.9508 50.0237 96.5875 50.645C95.852 51.9079 95.7221 53.34 95.9613 54.7808C96.5491 58.3392 97.1251 61.9004 97.7631 65.4471C97.8901 66.1442 97.6716 66.3979 97.066 66.6517C95.022 67.5092 93.4949 68.9412 92.4611 70.8838C92.0358 71.6858 91.5986 72.4792 91.1201 73.3629C90.3256 72.9925 89.5812 72.6454 88.7955 72.2808C89.1411 71.5721 89.4365 70.9567 89.7939 70.2042ZM41.252 34.1425C40.4072 32.7921 39.6511 31.5292 38.824 30.3129C38.6882 30.1117 38.2421 30.0329 37.9409 30.0358C29.5256 30.0883 21.1104 30.1583 12.6981 30.2429C12.4057 30.2458 11.9715 30.3537 11.8474 30.5579C11.171 31.675 10.3499 32.7746 9.98363 33.9996C8.76078 38.08 7.69447 42.2071 6.61636 46.3283C6.47753 46.8533 6.47753 47.4892 6.63999 48.0025C8.35316 53.3808 10.1136 58.7446 11.8652 64.1142C12.2994 65.4471 13.0201 65.8408 14.2695 65.2079C14.9105 64.8842 15.5278 64.295 15.8793 63.6737C16.8511 61.9529 16.5941 60.095 16.2663 58.2371C15.6725 54.8712 15.1379 51.4967 14.5915 48.2154C15.646 47.5679 16.7034 47.0808 17.5452 46.3546C18.4225 45.6021 19.0782 44.6046 19.8639 43.7442C20.0736 43.5167 20.3985 43.3767 20.6939 43.2454C24.2916 41.65 27.8922 40.0662 31.4899 38.4738C34.6474 37.0737 37.7991 35.6737 41.252 34.1425ZM40.2832 27.4575C40.2832 25.305 40.2359 23.3771 40.3039 21.4521C40.3393 20.5071 39.9849 20.3058 39.0958 20.3175C34.1158 20.3875 29.1357 20.3992 24.1528 20.44C20.0589 20.4721 15.962 20.51 11.8681 20.5596C11.4339 20.5654 10.8254 20.3729 10.8254 21.1517C10.8225 23.2575 10.8254 25.3604 10.8254 27.4575C20.7589 27.4575 30.4767 27.4575 40.2832 27.4575ZM72.1778 87.1354C72.1778 89.1421 72.228 91.0263 72.1571 92.9075C72.1216 93.8613 72.4968 94.0683 73.377 94.0508C76.6231 93.9808 79.8723 93.9662 83.1184 93.94C88.9137 93.8962 94.7089 93.8438 100.501 93.8467C101.438 93.8467 101.715 93.5608 101.662 92.6596C101.579 91.2042 101.544 89.7429 101.618 88.2875C101.668 87.2842 101.284 87.0917 100.348 87.0975C91.3417 87.1354 82.3357 87.1296 73.3297 87.1354C72.9694 87.1354 72.609 87.1354 72.1778 87.1354Z" fill="url(#paint0_linear_390_21354)"/>
<path d="M19.8935 112C19.5745 111.924 19.2584 111.845 18.9424 111.77C18.9424 109.678 18.9424 107.593 18.9424 105.44C19.8669 105.44 20.6556 105.44 21.4442 105.44C21.4442 107.663 21.4442 109.833 21.4442 112C20.9273 112 20.4104 112 19.8935 112Z" fill="url(#paint1_linear_390_21354)"/>
<path d="M32.4025 107.316C31.5843 107.733 30.8754 108.095 30.072 108.506C29.0559 106.558 28.0693 104.671 27.0503 102.725C27.8744 102.305 28.5803 101.944 29.3719 101.541C30.3792 103.46 31.3569 105.324 32.4025 107.316Z" fill="url(#paint2_linear_390_21354)"/>
<path d="M84.8847 3.66357C85.9155 5.63816 86.8873 7.50482 87.9064 9.46191C87.1236 9.85857 86.4147 10.2144 85.5847 10.6344C84.5657 8.68899 83.5762 6.80774 82.5571 4.86524C83.3428 4.46274 84.0517 4.09524 84.8847 3.66357Z" fill="url(#paint3_linear_390_21354)"/>
<path d="M11.1325 101.628C11.9596 102.051 12.6685 102.413 13.4571 102.816C12.444 104.761 11.4722 106.622 10.4384 108.602C9.65272 108.206 8.91724 107.835 8.10791 107.424C9.124 105.478 10.0958 103.615 11.1325 101.628Z" fill="url(#paint4_linear_390_21354)"/>
<path d="M104.533 3.74219C105.366 4.17385 106.045 4.52385 106.849 4.94094C105.839 6.8776 104.855 8.76469 103.833 10.7218C103.053 10.328 102.347 9.96927 101.502 9.54344C102.516 7.60385 103.499 5.7226 104.533 3.74219Z" fill="url(#paint5_linear_390_21354)"/>
<path d="M93.3677 0.370605C94.2981 0.370605 95.0868 0.370605 95.8606 0.370605C95.8606 2.54644 95.8606 4.63186 95.8606 6.77269C94.9509 6.77269 94.1593 6.77269 93.3677 6.77269C93.3677 4.61436 93.3677 2.50269 93.3677 0.370605Z" fill="url(#paint6_linear_390_21354)"/>
<defs>
<linearGradient id="paint0_linear_390_21354" x1="102.359" y1="111.682" x2="-11.9265" y2="100.907" gradientUnits="userSpaceOnUse">
<stop stop-color="#BBD2C5"/>
<stop offset="0.993949" stop-color="#1FB9B3"/>
</linearGradient>
<linearGradient id="paint1_linear_390_21354" x1="21.2288" y1="111.998" x2="18.6566" y2="111.905" gradientUnits="userSpaceOnUse">
<stop stop-color="#BBD2C5"/>
<stop offset="0.993949" stop-color="#1FB9B3"/>
</linearGradient>
<linearGradient id="paint2_linear_390_21354" x1="31.9418" y1="108.504" x2="26.4604" y2="108.107" gradientUnits="userSpaceOnUse">
<stop stop-color="#BBD2C5"/>
<stop offset="0.993949" stop-color="#1FB9B3"/>
</linearGradient>
<linearGradient id="paint3_linear_390_21354" x1="87.4459" y1="10.632" x2="81.9675" y2="10.2366" gradientUnits="userSpaceOnUse">
<stop stop-color="#BBD2C5"/>
<stop offset="0.993949" stop-color="#1FB9B3"/>
</linearGradient>
<linearGradient id="paint4_linear_390_21354" x1="12.9967" y1="108.6" x2="7.51828" y2="108.205" gradientUnits="userSpaceOnUse">
<stop stop-color="#BBD2C5"/>
<stop offset="0.993949" stop-color="#1FB9B3"/>
</linearGradient>
<linearGradient id="paint5_linear_390_21354" x1="106.388" y1="10.7194" x2="100.913" y2="10.3249" gradientUnits="userSpaceOnUse">
<stop stop-color="#BBD2C5"/>
<stop offset="0.993949" stop-color="#1FB9B3"/>
</linearGradient>
<linearGradient id="paint6_linear_390_21354" x1="95.646" y1="6.77049" x2="93.083" y2="6.67663" gradientUnits="userSpaceOnUse">
<stop stop-color="#BBD2C5"/>
<stop offset="0.993949" stop-color="#1FB9B3"/>
</linearGradient>
</defs>
</svg>
