<svg width="326" height="229" viewBox="0 0 326 229" fill="none" xmlns="http://www.w3.org/2000/svg">
<g clip-path="url(#clip0_235_9767)">
<path opacity="0.1" d="M10.0271 125.456C22.4226 102.73 47.5185 85.3813 53.767 82.5913C94.2049 64.4817 131.341 30.0379 172.388 15.327C213.436 0.61615 260.376 7.6165 305.285 66.6629C329.364 98.3674 331.092 130.021 312.397 149.45C242.596 222.142 159.739 245.882 72.2587 215.243C54.9863 209.206 37.4598 200.989 19.8825 184.604C-1.65726 164.617 0.273192 143.413 10.0271 125.456Z" fill="#1FB9B3"/>
<path opacity="0.1" d="M11.191 102.284C26.9396 81.7422 54.3727 68.4027 60.977 66.5767C103.701 54.8095 145.664 26.4057 188.49 18.1382C231.316 9.87074 276.631 23.8697 312.04 89.0461C331.04 124.043 327.891 155.592 306.452 171.924C226.287 233.144 140.787 244.049 58.9957 200.48C42.8407 191.857 26.7364 181.104 11.9023 162.236C-6.33565 139.209 -1.20465 118.515 11.191 102.284V102.284Z" fill="#1FB9B3"/>
<path d="M232.664 53.8321C232.664 60.9147 226.915 70.0597 219.832 70.0597C212.749 70.0597 207 60.9147 207 53.8321C207 46.7494 212.729 41 219.832 41C226.936 41 232.664 46.7494 232.664 53.8321Z" fill="#FFBE55"/>
<path fill-rule="evenodd" clip-rule="evenodd" d="M220.227 75.8716C218.915 75.8716 217.686 74.955 216.602 73.1427C215.832 71.8512 216.415 67.9557 217.04 63.8311C217.207 62.7479 217.352 61.6855 217.498 60.7273C216.582 57.8734 216.79 56.0194 217.186 55.4778C217.332 55.2694 217.54 55.207 217.727 55.2903C218.102 55.4778 218.311 56.2693 218.311 57.5401C218.311 58.3733 218.207 59.4357 218.061 60.6231C218.123 60.8314 218.207 61.0397 218.29 61.2689C219.04 63.2687 219.79 62.8312 220.04 62.6646C220.644 62.3104 221.227 61.3105 221.665 60.1648C221.498 57.5817 221.685 55.7277 221.977 55.1861C222.123 54.8945 222.31 54.8736 222.394 54.8736C222.685 54.8945 222.831 55.2903 222.873 55.4153C223.248 56.4152 222.914 58.5191 222.227 60.3106C222.435 63.3312 223.143 67.4766 224.893 71.8303L224.977 72.0178L224.873 72.1845C224.789 72.3303 222.852 75.7674 220.29 75.8091C220.269 75.8716 220.248 75.8716 220.227 75.8716L220.227 75.8716ZM217.874 61.8313C217.77 62.5188 217.665 63.227 217.561 63.9561C217.02 67.5808 216.395 71.6637 217.02 72.7053C218.02 74.3509 219.103 75.1842 220.248 75.1634C222.228 75.1217 223.873 72.6636 224.29 71.997C222.769 68.164 222.019 64.4144 221.727 61.4147C221.29 62.2896 220.769 62.9979 220.228 63.3103C219.728 63.6436 218.728 63.852 217.874 61.8313ZM217.54 55.9985C217.394 56.2693 217.207 57.3734 217.644 59.269C217.707 58.6233 217.748 58.04 217.748 57.5609C217.748 56.5818 217.603 56.1444 217.54 55.9985ZM222.352 55.7486C222.227 56.1652 222.102 57.2068 222.123 58.7066C222.457 57.4984 222.582 56.3319 222.352 55.7486Z" fill="white"/>
<path d="M219.832 77.6211C217.248 77.6211 215.103 75.663 214.894 73.1007L214.457 68.1845L215.769 68.6845C218.457 69.7052 221.415 69.6844 224.081 68.622L225.185 68.1846L224.748 73.1007C224.539 75.663 222.394 77.6211 219.832 77.6211L219.832 77.6211Z" fill="#003C43"/>
<path d="M96.1974 100.217C98.8689 105.166 98.3014 113.724 93.3527 116.396C88.4041 119.067 80.9376 114.846 78.266 109.898C75.5945 104.949 77.4283 98.7713 82.3914 96.0919C87.3546 93.4124 93.5258 95.2687 96.1974 100.217Z" fill="#FFBE55"/>
<path fill-rule="evenodd" clip-rule="evenodd" d="M95.8195 120.307C94.9026 120.802 93.6982 120.625 92.2577 119.768C91.232 119.156 90.1702 116.214 89.051 113.097C88.7588 112.277 88.46 111.48 88.2004 110.755C86.4835 109.107 85.9297 107.733 86.002 107.205C86.0253 107.005 86.1473 106.883 86.3096 106.87C86.6424 106.86 87.0865 107.334 87.5658 108.222C87.8801 108.804 88.2081 109.586 88.5541 110.47C88.6764 110.592 88.8131 110.706 88.9578 110.835C90.236 111.95 90.595 111.361 90.7068 111.15C90.9953 110.675 91.0257 109.756 90.8992 108.791C89.8084 107.049 89.2401 105.683 89.2395 105.194C89.2314 104.936 89.3546 104.85 89.4128 104.819C89.6244 104.723 89.8755 104.945 89.9518 105.017C90.591 105.574 91.1517 107.17 91.3472 108.681C92.6321 110.712 94.6905 113.342 97.5554 115.723L97.6844 115.823L97.6744 115.979C97.6712 116.112 97.6141 119.244 95.8396 120.24C95.8486 120.291 95.8341 120.299 95.8195 120.307L95.8195 120.307ZM88.8789 111.385C89.0654 111.905 89.2599 112.439 89.4621 112.987C90.4509 115.724 91.5543 118.813 92.3839 119.305C93.7033 120.077 94.7743 120.251 95.567 119.804C96.934 119.029 97.1566 116.69 97.1963 116.068C94.688 113.963 92.7497 111.626 91.4144 109.64C91.4387 110.417 91.3421 111.108 91.0815 111.531C90.8579 111.952 90.2378 112.475 88.8789 111.385ZM86.4455 107.436C86.4458 107.68 86.7312 108.522 87.7519 109.681C87.552 109.207 87.361 108.783 87.1803 108.449C86.811 107.765 86.5442 107.514 86.4455 107.436ZM89.7141 105.446C89.784 105.784 90.0895 106.559 90.6698 107.599C90.4469 106.629 90.0942 105.767 89.7141 105.446Z" fill="white"/>
<path d="M96.2052 121.679C94.4004 122.653 92.1626 122.094 91.0506 120.383L88.8906 117.113L89.9962 116.967C92.2587 116.667 94.3176 115.536 95.7799 113.788L96.3863 113.066L97.935 116.666C98.7559 118.535 97.9954 120.712 96.2052 121.679L96.2052 121.679Z" fill="#003C43"/>
<path d="M218.411 169.399C220.506 173.028 220.143 179.485 216.363 181.667C212.583 183.85 206.809 180.936 204.714 177.307C202.619 173.678 203.975 168.967 207.767 166.778C211.558 164.589 216.316 165.77 218.411 169.399Z" fill="#FFBE55"/>
<path fill-rule="evenodd" clip-rule="evenodd" d="M218.29 184.523C217.589 184.928 216.662 184.837 215.548 184.242C214.755 183.818 213.913 181.642 213.027 179.336C212.795 178.73 212.559 178.141 212.353 177.605C211.02 176.425 210.583 175.411 210.634 175.011C210.65 174.86 210.743 174.764 210.867 174.749C211.123 174.729 211.468 175.07 211.844 175.721C212.091 176.148 212.349 176.725 212.623 177.378C212.718 177.466 212.824 177.547 212.936 177.638C213.928 178.432 214.199 177.977 214.283 177.814C214.5 177.447 214.516 176.755 214.411 176.033C213.558 174.761 213.109 173.753 213.105 173.386C213.096 173.191 213.19 173.123 213.235 173.097C213.396 173.018 213.591 173.176 213.65 173.227C214.146 173.624 214.591 174.804 214.754 175.934C215.759 177.418 217.363 179.323 219.585 181.015L219.685 181.085L219.678 181.203C219.677 181.303 219.66 183.661 218.305 184.472C218.312 184.51 218.301 184.517 218.29 184.523L218.29 184.523ZM212.883 178.055C213.031 178.439 213.185 178.834 213.345 179.24C214.128 181.264 215.002 183.549 215.644 183.89C216.664 184.425 217.489 184.518 218.094 184.154C219.138 183.523 219.289 181.756 219.315 181.286C217.369 179.791 215.86 178.101 214.817 176.654C214.842 177.237 214.774 177.761 214.577 178.088C214.409 178.412 213.937 178.827 212.883 178.055ZM210.979 175.17C210.981 175.353 211.208 175.977 212.002 176.813C211.844 176.463 211.694 176.151 211.552 175.906C211.263 175.404 211.055 175.225 210.979 175.17ZM213.474 173.558C213.53 173.81 213.771 174.382 214.226 175.144C214.047 174.423 213.768 173.787 213.474 173.558Z" fill="white"/>
<path d="M218.599 185.541C217.221 186.337 215.496 185.995 214.627 184.747L212.939 182.363L213.788 182.214C215.524 181.909 217.097 180.987 218.205 179.621L218.665 179.057L219.886 181.71C220.533 183.087 219.967 184.752 218.599 185.541L218.599 185.541Z" fill="#003C43"/>
<circle cx="142.872" cy="162.829" r="2.39138" fill="#003C43"/>
<circle cx="143.024" cy="188.389" r="2.39138" fill="#003C43"/>
<path d="M22.1481 149.484H19.2988V146.634H18.1286V149.484H15.2793V150.654H18.1286V153.503H19.2988V150.654H22.1481V149.484Z" fill="#1FB9B3"/>
<path d="M128.218 228.673C127.564 228.002 125.594 229.389 123.545 231.165C121.495 232.941 120.143 234.434 120.797 235.105C121.451 235.768 123.642 234.876 125.691 233.091C127.732 231.324 128.872 229.345 128.218 228.673Z" fill="#FFCD9C"/>
<path d="M116.176 217.992C119.383 220.404 130.047 227.233 127.741 230.864C125.682 234.116 118.552 235.096 113.154 220.289L116.176 217.992Z" fill="#FFCD9C"/>
<path d="M151.623 98.6931C141.586 85.8559 75.854 157.958 74.6348 161.201C74.6348 161.201 78.5928 172.907 82.3742 171.334C92.1545 167.288 156.102 104.427 151.623 98.6931Z" fill="#56453F"/>
<path d="M151.623 98.693C151.287 98.269 150.89 97.9421 150.439 97.6947C143.079 112.476 92.9321 162.57 80.0684 170.831C80.8193 171.414 81.5968 171.661 82.3743 171.343C92.1546 167.288 156.102 104.427 151.623 98.693Z" fill="#44332E"/>
<path d="M113.335 220.147C124.732 215.209 86.3971 159.354 84.2148 157.852C84.2148 157.852 74.7791 158.559 75.2473 161.616C76.4489 169.514 108.246 222.347 113.335 220.147Z" fill="#56453F"/>
<path d="M89.5215 164.947C97.685 179.834 111.247 207.54 110.867 219.087C111.936 219.971 112.793 220.386 113.332 220.157C122.352 216.234 100.229 180.443 89.5215 164.947Z" fill="#44332E"/>
<path d="M115.204 221.243L111.432 222.339L102.217 211.852C102.217 211.852 107.951 208.415 109.665 208.556C111.379 208.698 115.204 221.243 115.204 221.243Z" fill="#D8BEB8"/>
<path d="M114.984 221.411L118.006 218.866L114.675 204.589C114.675 204.589 109.144 208.53 108.323 210.04C107.501 211.542 114.984 221.411 114.984 221.411Z" fill="#D8BEB8"/>
<path d="M258.353 64.6988C258.793 61.7907 262.344 57.7028 263.049 58.762C263.78 60.1005 261.232 61.3518 260.834 64.3533C260.424 67.5263 261.63 70.1425 260.35 70.3241C259.112 70.4991 257.881 67.7698 258.353 64.6988Z" fill="#F4AD7D"/>
<path d="M263.165 60.5773C264.994 57.2407 270.51 54.4306 270.496 56.2706C270.483 58.7141 267.524 58.2906 265.699 61.6222C263.88 64.9678 263.85 68.2534 262.623 67.8814C261.4 67.5139 261.341 63.9279 263.165 60.5773Z" fill="#FFCD9C"/>
<path d="M259.529 88.5339C263.794 82.2918 253.784 68.1066 261.719 67.7055C266.607 67.4026 274.911 74.149 264.208 89.8366L259.529 88.5339Z" fill="#FFCD9C"/>
<path d="M267.983 80.8532C259.348 81.5591 258.097 71.4634 258.464 68.0688C258.856 64.3404 270.412 61.5122 268.854 64.058C267.906 65.6041 266.816 69.466 270.685 70.0229C274.586 70.5832 268.912 80.7766 267.983 80.8532Z" fill="#FFCD9C"/>
<path d="M268.64 69.585C273.325 71.6147 275.793 65.6897 276.803 66.218C278.664 67.1816 275.321 70.3387 272.636 74.1386C270.505 77.1693 269.208 79.9371 267.416 79.1276C265.619 78.3229 263.591 67.3945 268.64 69.585Z" fill="#FFCD9C"/>
<path d="M271.418 59.6741C275.435 59.2363 278.369 64.6563 276.313 65.3929C275.292 65.7585 275.315 62.1928 271.303 62.6353C267.286 63.0731 268.248 68.7225 265.673 67.0376C263.597 65.6837 267.405 60.1166 271.418 59.6741Z" fill="#FFCD9C"/>
<path d="M262.461 85.6661C275.955 91.3449 252.083 152.019 249.562 153.859C249.562 153.859 238.489 153.197 238.946 149.53C240.165 140.053 256.444 83.1218 262.461 85.6661Z" fill="#5B4B43"/>
<path opacity="0.5" d="M245.89 153.423C247.898 153.758 249.572 153.858 249.572 153.858C252.084 152.019 275.956 91.3449 262.462 85.6661C262.119 85.5187 261.733 85.5899 261.325 85.819C267.711 98.5619 250.95 143.635 245.89 153.423Z" fill="#6D4D44"/>
<path d="M167.47 105.403C152.907 117.031 243.92 156.884 248.284 153.512C248.284 153.512 247.602 140.703 244.85 136.889C236.52 125.369 173.973 100.213 167.47 105.403Z" fill="#5B4B43"/>
<path opacity="0.5" d="M252.778 147.539C249.824 149.825 200.846 133.343 174.038 118.855C194.201 134.747 245.044 156.004 248.283 153.512C248.283 153.512 251.414 150.556 252.882 147.44C252.813 147.506 252.778 147.539 252.778 147.539Z" fill="#6D4D44"/>
<path d="M264.49 81.0603L260.261 80.8106L253.185 94.9598C253.185 94.9598 261.311 97.3525 263.061 96.7343C264.802 96.1267 264.49 81.0603 264.49 81.0603Z" fill="#82675F"/>
<path d="M264.206 80.9259L268.039 83.0175L268.221 99.4496C268.221 99.4496 260.75 97.5982 259.492 96.1112C258.224 94.6157 264.206 80.9259 264.206 80.9259Z" fill="#82675F"/>
<path d="M92.4121 452.57C114.694 449.292 139.308 459.072 170.257 452.676C191.514 448.285 200.641 451.598 219.662 453.833C220.299 384.319 217.144 263.978 198.741 228.894C180.144 193.439 173.888 181.424 196.126 140.748C196.126 140.748 196.117 140.695 196.108 140.642C195.843 138.901 190.807 106.468 175.346 90.7504C163.958 79.1678 149.177 78.7083 138.557 93.1359C125.72 110.585 122.919 143.107 122.919 143.107C141.764 173.366 158.047 171.352 127.248 219.6C108.236 249.374 94.3381 378.064 92.4121 452.57Z" fill="#56453F"/>
<path d="M130.738 110.17C130.738 110.17 121.585 125.428 127.107 145.333L153.409 150.713C153.409 149.989 147.595 132.99 146.721 124.412C146.721 124.412 185.374 129.209 186.098 107.122L130.738 110.17Z" fill="#44332E"/>
<path d="M198.741 228.894C180.356 193.855 174.065 181.689 195.375 142.144C184.181 145.015 171.503 146.641 158.056 146.641C145.493 146.641 133.601 145.227 122.963 142.7C122.937 142.956 122.928 143.098 122.928 143.098C141.773 173.358 158.056 171.343 127.257 219.591C108.236 249.374 94.3381 378.064 92.4121 452.57C94.2233 452.305 96.061 452.146 97.9075 452.04C98.6584 366.773 130.606 182.396 162.694 182.396C194.951 182.396 215.236 368.62 215.581 453.321C216.897 453.497 218.24 453.665 219.662 453.833C220.307 384.319 217.144 263.978 198.741 228.894Z" fill="#44332E"/>
<path d="M169.41 181.512C169.41 181.512 180.516 224.441 185.499 251.026C185.499 251.026 182.91 216.87 177.22 180.452L169.41 181.512Z" fill="#44332E"/>
<path d="M133.927 96.7583C123.033 104.586 136.657 122.654 156.924 122.521C177.731 122.38 193.457 110.073 183.359 97.8538C177.448 90.7063 173.782 95.8748 178.72 74.2202C183.191 54.5977 132.257 54.156 132.363 57.849C132.805 73.1688 149.494 85.5643 133.927 96.7583Z" fill="#2BCDC7"/>
<path d="M173.631 119.464C184.817 115.038 190.453 106.424 183.359 97.8448C177.448 90.6973 173.782 95.8658 178.72 74.2113C183.191 54.5888 132.257 54.147 132.363 57.84C132.805 73.1599 149.494 85.5554 133.927 96.7493C123.033 104.577 136.657 122.645 156.924 122.512C157.949 122.503 158.965 122.459 159.964 122.397C159.955 122.397 159.946 122.397 159.937 122.397C147.498 122.397 137.417 116.045 137.417 108.217C137.417 100.38 147.498 94.037 159.937 94.037C172.377 94.037 182.458 100.389 182.458 108.217C182.466 112.811 178.994 116.875 173.631 119.464Z" fill="#1FB9B3"/>
<path d="M183.042 11.2091C173.721 -2.66183 143.956 -5.46252 130.81 14.9375C118.998 33.2789 125.527 65.6149 138.894 83.0287C144.107 89.814 169.693 94.7085 176.513 85.2021C186.771 70.9071 197.037 32.042 183.042 11.2091Z" fill="#1FB9B3"/>
<path d="M177.17 59.3023C177.87 56.0166 177.245 53.3096 180.157 53.935C183.069 54.5604 184.871 57.7248 184.171 61.0105C183.471 64.2869 180.53 66.4524 177.618 65.8177C174.706 65.1923 176.47 62.5787 177.17 59.3023Z" fill="#FFC08D"/>
<path d="M179.495 60.4411C179.906 58.5369 179.654 56.978 181.054 57.2768C182.463 57.5755 183.275 59.377 182.865 61.2812C182.454 63.1854 180.979 64.4922 179.579 64.1842C178.17 63.8948 179.084 62.3547 179.495 60.4411Z" fill="#EF8F6F"/>
<path d="M180.315 63.4654C179.382 64.4642 179.148 65.6497 177.963 64.5389C176.777 63.4281 176.572 61.7199 177.515 60.7211C178.448 59.7317 180.166 59.8157 181.351 60.9265C182.537 62.0373 181.248 62.4666 180.315 63.4654Z" fill="#FFC08D"/>
<path d="M139.152 59.3023C138.452 56.0166 139.078 53.3096 136.165 53.935C133.244 54.5604 131.451 57.7248 132.152 61.0105C132.852 64.2869 135.792 66.4524 138.704 65.8177C141.626 65.1923 139.862 62.5787 139.152 59.3023Z" fill="#FFC08D"/>
<path d="M136.838 60.4411C136.427 58.5369 136.679 56.978 135.27 57.2768C133.869 57.5848 133.057 59.377 133.468 61.2905C133.879 63.1948 135.354 64.5016 136.754 64.1935C138.163 63.8948 137.248 62.3547 136.838 60.4411Z" fill="#EF8F6F"/>
<path d="M136.016 63.4654C136.949 64.4642 137.183 65.6497 138.368 64.5389C139.554 63.4281 139.759 61.7199 138.816 60.7211C137.883 59.7317 136.156 59.8157 134.97 60.9265C133.794 62.0373 135.082 62.4666 136.016 63.4654Z" fill="#FFC08D"/>
<path d="M158.156 86.12C144.63 83.049 129.985 61.9345 138.04 27.0892C139.674 20.0511 146.068 16 158.156 16C171.448 16 177.534 20.3031 178.505 26.0064C185.347 66.3217 170.421 84.2718 158.156 86.12Z" fill="#FFC08D"/>
<path d="M155.496 66.471C155.505 66.6484 157.419 67.6098 158.091 67.6098C159.239 67.6098 160.639 66.667 160.686 66.359C160.798 65.6029 159.78 57.9487 158.137 57.8647C156.494 57.79 155.449 65.3789 155.496 66.471Z" fill="#EF8F6F"/>
<path d="M156.578 65.1736C156.578 65.3323 157.736 65.5936 158.137 65.5936C158.828 65.5936 159.668 65.3603 159.696 65.0709C159.771 64.3708 160.322 56.4646 158.221 56.5393C155.934 56.6139 156.55 64.1561 156.578 65.1736Z" fill="#FFC08D"/>
<path d="M162.545 49.8745C165.756 49.2491 169.294 48.9691 173.167 52.7775C173.167 52.7775 172.915 49.6318 169.014 48.4744C165.112 47.3076 162.545 49.8745 162.545 49.8745Z" fill="#543732"/>
<path d="M171.439 54.8871C172.382 52.7215 171.495 50.1919 169.479 49.2585C167.444 48.325 165.054 49.3238 164.102 51.4894C163.178 53.655 164.055 56.1753 166.072 57.1087C168.106 58.0515 170.515 57.0527 171.439 54.8871Z" fill="#543732"/>
<path d="M140.943 52.7029C143.669 50.3973 146.852 48.2224 151.995 49.4545C151.995 49.4545 150.483 46.8222 146.385 47.933C142.288 49.0438 140.943 52.7029 140.943 52.7029Z" fill="#543732"/>
<path d="M151.052 52.3014C150.735 49.9865 148.719 48.3156 146.562 48.577C144.397 48.8477 142.903 50.9292 143.202 53.2535C143.519 55.5591 145.536 57.2299 147.692 56.9593C149.867 56.7072 151.37 54.607 151.052 52.3014Z" fill="#543732"/>
<path d="M153.5 43.0324C149.085 42.295 144.221 42.1177 138.994 48.4557C138.994 48.4557 139.265 43.4618 144.595 41.3149C149.925 39.1587 153.5 43.0324 153.5 43.0324Z" fill="#A0444B"/>
<path d="M161.77 43.0138C166.213 42.2857 171.104 42.1177 176.359 48.4651C176.359 48.4651 176.088 43.4712 170.721 41.3149C165.363 39.1587 161.77 43.0138 161.77 43.0138Z" fill="#A0444B"/>
<path d="M151.93 74.9C153.124 75.6374 155.822 74.5266 157.717 74.3306C159.761 74.1253 163.579 75.3481 163.952 74.452C163.952 74.452 164.279 70.5222 157.437 71.1476C152.695 71.4743 151.93 74.9 151.93 74.9Z" fill="#4F252D"/>
<path d="M162.572 72.3984C161.862 71.9317 160.537 71.2876 158.11 71.3996C155.711 71.5116 154.133 72.2397 153.424 72.8745C155.561 73.2572 160.023 73.3505 162.572 72.3984Z" fill="#FFEADC"/>
<path d="M164.458 74.76C164.458 74.452 164.244 74.2093 163.992 74.2093C163.73 74.2093 163.516 74.452 163.516 74.76C163.516 75.0587 163.73 75.3108 163.992 75.3108C164.244 75.3108 164.458 75.0587 164.458 74.76Z" fill="#4F252D"/>
<path d="M152.341 74.9374C152.341 74.6107 152.108 74.34 151.828 74.34C151.548 74.34 151.314 74.6107 151.314 74.9374C151.314 75.2641 151.548 75.5348 151.828 75.5348C152.108 75.5348 152.341 75.2641 152.341 74.9374Z" fill="#4F252D"/>
<g clip-path="url(#clip1_235_9767)">
<path d="M176.159 58.9931C176.828 55.8067 176.221 53.1816 179.013 53.788C181.805 54.3945 183.517 57.4632 182.848 60.6496C182.179 63.8269 179.37 65.927 176.587 65.3115C173.804 64.705 175.49 62.1704 176.159 58.9931Z" fill="#FFC08D"/>
<path d="M178.379 60.0974C178.772 58.2508 178.531 56.7391 179.869 57.0287C181.215 57.3184 181.991 59.0655 181.599 60.9121C181.206 62.7588 179.797 64.0261 178.459 63.7273C177.113 63.4467 177.987 61.9531 178.379 60.0974Z" fill="#EF8F6F"/>
<path d="M179.165 63.0303C178.273 63.9989 178.041 65.1485 176.909 64.0713C175.776 62.9941 175.58 61.3376 176.48 60.369C177.381 59.4095 179.022 59.4909 180.155 60.5681C181.288 61.6453 180.057 62.0617 179.165 63.0303Z" fill="#FFC08D"/>
<path d="M139.832 58.9931C139.163 55.8067 139.761 53.1816 136.978 53.788C134.186 54.3945 132.474 57.4632 133.143 60.6496C133.812 63.8269 136.612 65.927 139.404 65.3115C142.196 64.705 140.51 62.1704 139.832 58.9931Z" fill="#FFC08D"/>
<path d="M137.62 60.0974C137.227 58.2508 137.468 56.7391 136.121 57.0287C134.783 57.3274 134.007 59.0655 134.391 60.9212C134.783 62.7678 136.184 64.0351 137.53 63.7364C138.886 63.4467 138.012 61.9531 137.62 60.0974Z" fill="#EF8F6F"/>
<path d="M136.835 63.0303C137.727 63.9989 137.95 65.1485 139.083 64.0713C140.215 62.9941 140.412 61.3376 139.511 60.369C138.61 59.4095 136.969 59.4909 135.836 60.5681C134.712 61.6453 135.943 62.0617 136.835 63.0303Z" fill="#FFC08D"/>
<path d="M157.99 85C145.067 82.0218 131.073 61.5458 138.77 27.754C140.331 20.9286 146.44 17 157.99 17C170.7 17 176.506 21.173 177.434 26.7039C183.971 65.8003 169.71 83.2076 157.99 85Z" fill="#FFC08D"/>
<path d="M155.449 65.9451C155.458 66.1171 157.286 67.0495 157.928 67.0495C159.025 67.0495 160.363 66.1352 160.408 65.8365C160.524 65.1033 159.543 57.6805 157.973 57.599C156.403 57.5266 155.404 64.886 155.449 65.9451Z" fill="#EF8F6F"/>
<path d="M156.484 64.6869C156.493 64.8408 157.59 65.0942 157.974 65.0942C158.634 65.0942 159.437 64.8679 159.463 64.5873C159.526 63.9084 160.061 56.2412 158.054 56.3136C155.869 56.386 156.458 63.7002 156.484 64.6869Z" fill="#FFC08D"/>
<path d="M162.184 49.8503C165.243 49.2438 168.632 48.9723 172.333 52.6656C172.333 52.6656 172.093 49.615 168.364 48.4925C164.636 47.361 162.184 49.8503 162.184 49.8503Z" fill="#543732"/>
<path d="M170.683 54.7114C171.583 52.6113 170.736 50.1581 168.81 49.2529C166.865 48.3477 164.582 49.3163 163.681 51.4164C162.789 53.5165 163.637 55.9606 165.563 56.8658C167.499 57.7801 169.8 56.8115 170.683 54.7114Z" fill="#543732"/>
<path d="M141.545 52.5931C144.149 50.3573 147.191 48.2481 152.105 49.443C152.105 49.443 150.66 46.8903 146.745 47.9675C142.829 49.0447 141.545 52.5931 141.545 52.5931Z" fill="#543732"/>
<path d="M151.203 52.2039C150.9 49.959 148.973 48.3386 146.913 48.5921C144.844 48.8546 143.417 50.8732 143.702 53.1272C144.006 55.3631 145.932 56.9835 147.992 56.721C150.071 56.4765 151.506 54.4398 151.203 52.2039Z" fill="#543732"/>
<path d="M140.42 44.0026C144.389 45.2247 148.893 46.1571 155.074 42.9073C155.074 42.9073 153.798 46.1118 148.385 46.6097C142.971 47.1166 140.42 44.0026 140.42 44.0026Z" fill="#A0444B"/>
<path d="M174.572 44.1927C170.611 45.5777 166.107 46.664 159.811 43.3056C159.811 43.3056 161.184 46.7092 166.634 47.1437C172.101 47.5782 174.572 44.1927 174.572 44.1927Z" fill="#A0444B"/>
<path d="M151.57 72.6256C152.596 71.8109 155.646 72.2997 157.457 72.2183C159.419 72.1368 163.165 71.8924 163.745 72.001C162.978 74.6714 159.91 74.2641 158.001 74.4089C155.967 74.5628 153.399 75.984 151.57 72.6256Z" fill="#5B2A35"/>
<path d="M162.397 72.4355C161.63 71.9829 159.89 72.345 157.277 72.4446C154.682 72.5532 154.12 72.2636 153.076 72.6256C155.038 73.5037 160.238 74.1826 162.397 72.4355Z" fill="#FFEADC"/>
<path d="M164.19 72.1187C164.19 71.82 163.985 71.5846 163.744 71.5846C163.494 71.5846 163.289 71.82 163.289 72.1187C163.289 72.4174 163.494 72.6528 163.744 72.6528C163.994 72.6528 164.19 72.4084 164.19 72.1187Z" fill="#5B2A35"/>
<path d="M152.131 72.4808C152.131 72.164 151.909 71.9015 151.641 71.9015C151.373 71.9015 151.15 72.164 151.15 72.4808C151.15 72.7976 151.373 73.0601 151.641 73.0601C151.909 73.0601 152.131 72.8067 152.131 72.4808Z" fill="#5B2A35"/>
</g>
<g clip-path="url(#clip2_235_9767)">
<path d="M176.885 57.6106C177.581 54.3774 176.96 51.7136 179.854 52.329C182.757 52.9445 184.538 56.0583 183.842 59.2915C183.146 62.5155 180.234 64.6465 177.331 64.0219C174.437 63.4065 176.19 60.8346 176.885 57.6106Z" fill="#FFC08D"/>
<path d="M179.196 58.7312C179.604 56.8574 179.354 55.3234 180.745 55.6174C182.146 55.9113 182.953 57.6841 182.544 59.5579C182.136 61.4317 180.671 62.7176 179.279 62.4145C177.879 62.1298 178.788 60.6142 179.196 58.7312Z" fill="#EF8F6F"/>
<path d="M180.01 61.7072C179.074 62.6901 178.851 63.8566 177.673 62.7635C176.495 61.6705 176.291 59.9896 177.228 59.0068C178.155 58.0331 179.871 58.1158 181.049 59.2088C182.218 60.3019 180.938 60.7244 180.01 61.7072Z" fill="#FFC08D"/>
<path d="M139.105 57.6106C138.41 54.3774 139.031 51.7136 136.137 52.329C133.234 52.9445 131.453 56.0583 132.149 59.2915C132.844 62.5155 135.766 64.6465 138.66 64.0219C141.564 63.4065 139.81 60.8346 139.105 57.6106Z" fill="#FFC08D"/>
<path d="M136.804 58.7312C136.396 56.8574 136.646 55.3234 135.246 55.6174C133.854 55.9205 133.047 57.6841 133.456 59.5671C133.864 61.4409 135.32 62.7268 136.721 62.4237C138.121 62.1298 137.212 60.6142 136.804 58.7312Z" fill="#EF8F6F"/>
<path d="M135.989 61.7072C136.916 62.6901 137.148 63.8566 138.326 62.7635C139.504 61.6705 139.699 59.9896 138.771 59.0068C137.844 58.0331 136.128 58.1158 134.95 59.2088C133.781 60.3019 135.061 60.7244 135.989 61.7072Z" fill="#FFC08D"/>
<path d="M157.992 84C144.551 80.978 129.997 60.2009 138.002 25.9121C139.626 18.9864 145.98 15 157.992 15C171.2 15 177.248 19.2344 178.204 24.8466C185.012 64.5179 170.18 82.1813 157.992 84Z" fill="#FFC08D"/>
<path d="M155.347 64.6649C155.356 64.8394 157.258 65.7855 157.926 65.7855C159.067 65.7855 160.449 64.8578 160.505 64.5547C160.616 63.8107 159.605 56.2787 157.972 56.196C156.34 56.1226 155.301 63.5902 155.347 64.6649Z" fill="#EF8F6F"/>
<path d="M156.424 63.3881C156.424 63.5443 157.565 63.8015 157.973 63.8015C158.659 63.8015 159.494 63.5718 159.522 63.2871C159.596 62.5982 160.143 54.8183 158.056 54.8917C155.775 54.9652 156.396 62.3869 156.424 63.3881Z" fill="#FFC08D"/>
<path d="M162.35 48.3334C165.531 47.718 169.056 47.4425 172.905 51.1901C172.905 51.1901 172.655 48.0946 168.778 46.9556C164.891 45.8075 162.35 48.3334 162.35 48.3334Z" fill="#543732"/>
<path d="M171.19 53.2659C172.127 51.135 171.245 48.6457 169.242 47.7272C167.22 46.8087 164.845 47.7915 163.908 49.9225C162.99 52.0535 163.862 54.5335 165.865 55.4521C167.878 56.3798 170.271 55.3969 171.19 53.2659Z" fill="#543732"/>
<path d="M140.887 51.1166C143.586 48.8478 146.758 46.7076 151.869 47.9201C151.869 47.9201 150.367 45.3298 146.294 46.4229C142.222 47.5159 140.887 51.1166 140.887 51.1166Z" fill="#543732"/>
<path d="M150.932 50.7216C150.617 48.4437 148.623 46.7995 146.471 47.0567C144.319 47.3231 142.835 49.3714 143.132 51.6585C143.447 53.9273 145.45 55.5715 147.593 55.3051C149.754 55.0571 151.248 52.9904 150.932 50.7216Z" fill="#543732"/>
<path d="M138.967 42.6753C143.354 43.4009 148.187 43.5754 153.381 37.3386C153.381 37.3386 153.112 42.2528 147.816 44.3562C142.519 46.4872 138.967 42.6753 138.967 42.6753Z" fill="#A0444B"/>
<path d="M176.783 42.4916C172.526 43.8235 167.73 44.6777 161.654 39.2216C161.654 39.2216 162.628 44.0531 168.212 45.3941C173.796 46.7628 176.783 42.4916 176.783 42.4916Z" fill="#A0444B"/>
<path d="M149.439 69.5607C149.494 69.2392 149.299 68.9453 149.021 68.9085C148.743 68.8626 148.483 69.0922 148.437 69.4137C148.39 69.7352 148.576 70.0291 148.854 70.0659C149.132 70.121 149.392 69.8822 149.439 69.5607Z" fill="#562631"/>
<path d="M167.36 66.2264C167.406 65.9049 167.221 65.611 166.943 65.5742C166.664 65.5375 166.395 65.758 166.349 66.0794C166.303 66.4009 166.488 66.6949 166.776 66.7316C167.045 66.7775 167.314 66.5479 167.36 66.2264Z" fill="#562631"/>
<path d="M148.789 69.478L149.021 69.1565C150.96 70.571 159.67 74.1717 166.803 65.9233L166.997 66.1713C164.317 69.2667 161.284 71.6641 157.48 71.9856C154.614 72.2244 151.822 71.6917 148.789 69.478Z" fill="#562631"/>
</g>
<path d="M137.48 27.2622C137.48 27.2622 157.695 21.2809 178.448 27.9337C178.448 27.9337 174.623 11.5448 157.147 11.5448C139.663 11.5448 137.48 27.2622 137.48 27.2622Z" fill="#F4E4C9"/>
<path d="M157.685 8.26697C142.303 8.26697 129.828 26.6084 129.828 49.2348C129.828 71.8612 142.303 90.2026 157.685 90.2026C173.075 90.2026 185.542 71.8612 185.542 49.2348C185.55 26.6084 173.075 8.26697 157.685 8.26697ZM157.685 84.7426C146.146 84.7426 136.79 68.8485 136.79 49.2348C136.79 29.6211 146.146 13.727 157.685 13.727C169.223 13.727 178.58 29.6211 178.58 49.2348C178.58 68.8485 169.223 84.7426 157.685 84.7426Z" fill="#2BCDC7"/>
<path d="M142.162 103.862L133.495 101.741C129.086 108.244 126.639 133.591 129.767 145.978L149.628 149.697C145.157 140.721 142.162 103.862 142.162 103.862Z" fill="#2BCDC7"/>
<path d="M131.324 132.407C131.324 119.871 136.448 106.618 141.086 100.478L131.677 98.967C127.268 105.47 126.65 133.6 129.777 145.987L132.728 146.535C131.827 142.214 131.324 137.435 131.324 132.407Z" fill="#1FB9B3"/>
<path d="M142.25 94.841L135.164 103.27C135.164 103.27 136.039 112.211 148.028 116.999C148.028 116.999 137.823 102.916 142.25 94.841Z" fill="#1FB9B3"/>
<path d="M173.308 86.9781L177.028 94.9826C177.028 94.9826 172.221 101.582 157.617 102.545C157.617 102.545 174.412 94.1167 173.308 86.9781Z" fill="#1FB9B3"/>
</g>
<defs>
<clipPath id="clip0_235_9767">
<rect width="325.053" height="228.314" fill="white"/>
</clipPath>
<clipPath id="clip1_235_9767">
<rect width="50" height="68" fill="white" transform="translate(133 17)"/>
</clipPath>
<clipPath id="clip2_235_9767">
<rect width="52" height="69" fill="white" transform="translate(132 15)"/>
</clipPath>
</defs>
</svg>
