<svg width="326" height="229" viewBox="0 0 326 229" fill="none" xmlns="http://www.w3.org/2000/svg">
<g clip-path="url(#clip0_235_8637)">
<path opacity="0.1" d="M10.0271 125.456C22.4226 102.73 47.5185 85.3812 53.767 82.5912C94.2049 64.4816 131.341 30.0378 172.388 15.327C213.436 0.616074 260.376 7.61643 305.285 66.6628C329.364 98.3673 331.092 130.021 312.397 149.45C242.596 222.142 159.739 245.882 72.2587 215.243C54.9863 209.206 37.4598 200.988 19.8825 184.604C-1.65726 164.617 0.273192 143.413 10.0271 125.456Z" fill="#1FB9B3"/>
<path opacity="0.1" d="M11.191 102.284C26.9396 81.7423 54.3727 68.4027 60.977 66.5768C103.701 54.8095 145.664 26.4058 188.49 18.1383C231.316 9.87081 276.631 23.8698 312.04 89.0461C331.04 124.044 327.891 155.592 306.452 171.924C226.287 233.144 140.787 244.049 58.9957 200.48C42.8407 191.857 26.7364 181.105 11.9023 162.236C-6.33565 139.209 -1.20465 118.515 11.191 102.284V102.284Z" fill="#1FB9B3"/>
<g filter="url(#filter0_d_235_8637)">
<path d="M222.872 72.2739C226.507 71.2035 229.747 71.3666 232.592 72.7632C235.437 74.1597 237.368 76.5836 238.384 80.0349C239.52 83.89 239.17 87.1052 237.335 89.6805C235.489 92.2191 232.528 94.0884 228.453 95.2886L229.828 100.569L225.477 101.85L222.695 93.2137L224.292 92.7433C227.927 91.673 230.61 90.2843 232.342 88.5774C234.073 86.8704 234.49 84.4933 233.593 81.4459C232.944 79.2429 231.77 77.6935 230.07 76.7977C228.37 75.9019 226.4 75.7837 224.16 76.4433C221.884 77.1136 220.268 78.2676 219.314 79.9051C218.386 81.4952 218.235 83.3549 218.862 85.4844L214.126 86.8792C213.477 84.6763 213.405 82.6027 213.91 80.6586C214.404 78.6777 215.416 76.9635 216.944 75.5158C218.51 74.0573 220.486 72.9767 222.872 72.2739ZM230.95 112.508C229.995 112.789 229.09 112.697 228.235 112.23C227.379 111.764 226.811 111.054 226.53 110.099C226.249 109.144 226.341 108.239 226.808 107.384C227.274 106.528 227.984 105.96 228.939 105.679C229.857 105.409 230.725 105.512 231.544 105.989C232.399 106.455 232.968 107.166 233.249 108.12C233.53 109.075 233.437 109.98 232.971 110.835C232.541 111.68 231.868 112.238 230.95 112.508Z" fill="#FFBC00"/>
</g>
<g filter="url(#filter1_d_235_8637)">
<path d="M246.33 53.5938C248.244 53.0302 249.95 53.1161 251.449 53.8515C252.947 54.5868 253.964 55.8632 254.499 57.6806C255.096 59.7106 254.912 61.4037 253.946 62.7597C252.974 64.0965 251.415 65.0808 249.269 65.7128L249.993 68.4934L247.702 69.1681L246.237 64.6202L247.078 64.3725C248.992 63.8089 250.405 63.0777 251.317 62.1788C252.229 61.28 252.448 60.0282 251.976 58.4236C251.634 57.2635 251.016 56.4477 250.12 55.976C249.225 55.5042 248.188 55.442 247.008 55.7893C245.81 56.1423 244.959 56.7499 244.457 57.6123C243.968 58.4495 243.889 59.4288 244.219 60.5502L241.725 61.2846C241.383 60.1246 241.345 59.0327 241.611 58.009C241.871 56.9659 242.404 56.0632 243.209 55.3009C244.033 54.5329 245.074 53.9639 246.33 53.5938ZM250.584 74.7801C250.081 74.9281 249.605 74.8794 249.154 74.6339C248.704 74.3883 248.404 74.0142 248.256 73.5116C248.108 73.0089 248.157 72.5323 248.403 72.0818C248.648 71.6314 249.022 71.3321 249.525 71.1841C250.008 71.0417 250.465 71.0962 250.897 71.3474C251.347 71.5929 251.646 71.967 251.794 72.4697C251.942 72.9724 251.894 73.449 251.648 73.8994C251.422 74.3442 251.067 74.6378 250.584 74.7801Z" fill="#FFBC00"/>
</g>
<g filter="url(#filter2_d_235_8637)">
<path d="M251.36 143.902C252.274 143.633 253.089 143.674 253.805 144.025C254.521 144.377 255.007 144.987 255.262 145.855C255.548 146.825 255.46 147.634 254.998 148.282C254.534 148.92 253.789 149.391 252.764 149.692L253.11 151.021L252.015 151.343L251.315 149.17L251.717 149.052C252.631 148.783 253.307 148.433 253.742 148.004C254.178 147.575 254.283 146.976 254.057 146.21C253.894 145.656 253.598 145.266 253.171 145.04C252.743 144.815 252.247 144.785 251.684 144.951C251.111 145.12 250.705 145.41 250.465 145.822C250.231 146.222 250.193 146.69 250.351 147.226L249.159 147.577C248.996 147.023 248.978 146.501 249.105 146.012C249.229 145.513 249.484 145.082 249.868 144.718C250.262 144.351 250.759 144.079 251.36 143.902ZM253.392 154.025C253.152 154.095 252.924 154.072 252.709 153.955C252.494 153.837 252.351 153.659 252.28 153.419C252.209 153.178 252.233 152.951 252.35 152.735C252.467 152.52 252.646 152.377 252.886 152.307C253.117 152.239 253.335 152.265 253.541 152.385C253.757 152.502 253.9 152.681 253.97 152.921C254.041 153.161 254.018 153.389 253.901 153.604C253.792 153.816 253.623 153.957 253.392 154.025Z" fill="#FFBC00"/>
</g>
<g filter="url(#filter3_d_235_8637)">
<path d="M61.7329 176.788C62.6474 176.518 63.4625 176.559 64.1783 176.911C64.8941 177.262 65.3799 177.872 65.6355 178.74C65.9212 179.71 65.8331 180.519 65.3714 181.167C64.907 181.805 64.1622 182.276 63.1368 182.578L63.4829 183.906L62.3883 184.229L61.6882 182.056L62.09 181.937C63.0045 181.668 63.6796 181.319 64.1152 180.889C64.5509 180.46 64.6559 179.862 64.4301 179.095C64.2669 178.541 63.9714 178.151 63.5437 177.926C63.1159 177.7 62.6203 177.671 62.0568 177.836C61.4841 178.005 61.0778 178.295 60.8377 178.707C60.6042 179.107 60.5663 179.575 60.7241 180.111L59.5325 180.462C59.3692 179.908 59.3511 179.386 59.4781 178.897C59.6024 178.399 59.8569 177.967 60.2415 177.603C60.6353 177.236 61.1325 176.964 61.7329 176.788ZM63.7651 186.91C63.5249 186.981 63.2972 186.957 63.082 186.84C62.8668 186.723 62.7238 186.544 62.6531 186.304C62.5823 186.064 62.6056 185.836 62.7229 185.621C62.8402 185.405 63.019 185.262 63.2591 185.192C63.4901 185.124 63.7085 185.15 63.9145 185.27C64.1298 185.387 64.2727 185.566 64.3435 185.806C64.4142 186.046 64.3909 186.274 64.2736 186.489C64.1655 186.702 63.996 186.842 63.7651 186.91Z" fill="#FFBC00"/>
</g>
<g filter="url(#filter4_d_235_8637)">
<path d="M95.9145 93.2086C96.4947 93.0377 97.0119 93.0637 97.4661 93.2867C97.9203 93.5096 98.2285 93.8966 98.3908 94.4475C98.572 95.0629 98.5161 95.5762 98.2232 95.9873C97.9285 96.3926 97.4559 96.691 96.8053 96.8826L97.0249 97.7255L96.3303 97.9301L95.8861 96.5513L96.1411 96.4762C96.7213 96.3054 97.1497 96.0837 97.4261 95.8112C97.7026 95.5387 97.7692 95.1592 97.6259 94.6727C97.5223 94.3211 97.3349 94.0737 97.0634 93.9307C96.792 93.7877 96.4776 93.7689 96.12 93.8741C95.7566 93.9812 95.4988 94.1654 95.3465 94.4268C95.1983 94.6806 95.1742 94.9775 95.2743 95.3175L94.5182 95.5401C94.4147 95.1884 94.4032 94.8574 94.4838 94.5471C94.5626 94.2309 94.7241 93.9572 94.9681 93.7261C95.218 93.4933 95.5335 93.3207 95.9145 93.2086ZM97.2039 99.6314C97.0515 99.6763 96.9071 99.6615 96.7705 99.5871C96.6339 99.5126 96.5432 99.3992 96.4983 99.2468C96.4535 99.0945 96.4682 98.95 96.5427 98.8134C96.6171 98.6768 96.7305 98.5861 96.8829 98.5412C97.0294 98.4981 97.1681 98.5146 97.2988 98.5908C97.4353 98.6652 97.5261 98.7786 97.5709 98.931C97.6158 99.0834 97.601 99.2279 97.5266 99.3644C97.458 99.4993 97.3505 99.5883 97.2039 99.6314Z" fill="#FFBC00"/>
</g>
<g filter="url(#filter5_d_235_8637)">
<path d="M60.3717 99.9444L65.9612 120.591L62.8431 121.509L56.3511 101.128L60.3717 99.9444ZM67.0188 129.33C66.3077 129.539 65.6335 129.47 64.9962 129.123C64.3589 128.776 63.9355 128.246 63.7261 127.535C63.5167 126.824 63.5856 126.15 63.933 125.513C64.2803 124.875 64.8096 124.452 65.5207 124.243C66.2045 124.041 66.8513 124.118 67.4613 124.474C68.0986 124.821 68.522 125.35 68.7314 126.061C68.9408 126.773 68.8718 127.447 68.5245 128.084C68.2045 128.713 67.7026 129.129 67.0188 129.33ZM72.5916 96.3459L78.1811 116.992L75.063 117.91L68.571 97.5299L72.5916 96.3459ZM79.2387 125.731C78.5276 125.941 77.8534 125.872 77.2161 125.525C76.5788 125.177 76.1554 124.648 75.946 123.937C75.7366 123.226 75.8056 122.552 76.1529 121.914C76.5002 121.277 77.0295 120.854 77.7406 120.644C78.4244 120.443 79.0713 120.52 79.6812 120.875C80.3185 121.223 80.7419 121.752 80.9513 122.463C81.1607 123.174 81.0917 123.848 80.7444 124.486C80.4244 125.115 79.9225 125.53 79.2387 125.731Z" fill="#FFBC00"/>
</g>
<g filter="url(#filter6_d_235_8637)">
<path d="M200.111 24.4126L202.232 32.2498L201.049 32.5983L198.585 24.8621L200.111 24.4126ZM202.634 35.5671C202.364 35.6466 202.108 35.6204 201.866 35.4886C201.624 35.3567 201.463 35.1558 201.384 34.8859C201.305 34.616 201.331 34.36 201.463 34.1181C201.594 33.8762 201.795 33.7155 202.065 33.636C202.325 33.5596 202.57 33.5888 202.802 33.7237C203.044 33.8556 203.204 34.0565 203.284 34.3264C203.363 34.5963 203.337 34.8523 203.205 35.0942C203.084 35.333 202.893 35.4907 202.634 35.5671ZM204.749 23.0467L206.871 30.8838L205.687 31.2324L203.223 23.4961L204.749 23.0467ZM207.272 34.2012C207.003 34.2807 206.747 34.2545 206.505 34.1226C206.263 33.9908 206.102 33.7899 206.023 33.5199C205.943 33.25 205.969 32.9941 206.101 32.7522C206.233 32.5103 206.434 32.3495 206.704 32.2701C206.963 32.1936 207.209 32.2229 207.44 32.3578C207.682 32.4896 207.843 32.6905 207.923 32.9605C208.002 33.2304 207.976 33.4863 207.844 33.7282C207.723 33.9671 207.532 34.1247 207.272 34.2012Z" fill="#FFBC00"/>
</g>
<circle cx="142.872" cy="162.829" r="2.39138" fill="#003C43"/>
<circle cx="143.024" cy="188.389" r="2.39138" fill="#003C43"/>
<path d="M22.1481 149.484H19.2988V146.635H18.1286V149.484H15.2793V150.654H18.1286V153.503H19.2988V150.654H22.1481V149.484Z" fill="#1FB9B3"/>
<path d="M128.218 228.673C127.564 228.002 125.594 229.389 123.545 231.165C121.495 232.94 120.143 234.433 120.797 235.105C121.451 235.768 123.642 234.875 125.691 233.091C127.732 231.324 128.872 229.345 128.218 228.673Z" fill="#FFCD9C"/>
<path d="M116.176 217.992C119.383 220.404 130.047 227.233 127.741 230.864C125.682 234.116 118.552 235.096 113.154 220.289L116.176 217.992Z" fill="#FFCD9C"/>
<path d="M151.623 98.693C141.586 85.8557 75.854 157.958 74.6348 161.2C74.6348 161.2 78.5928 172.907 82.3742 171.334C92.1545 167.288 156.102 104.427 151.623 98.693Z" fill="#56453F"/>
<path d="M151.623 98.6929C151.287 98.2689 150.89 97.942 150.439 97.6946C143.079 112.476 92.9321 162.57 80.0684 170.831C80.8193 171.414 81.5968 171.661 82.3743 171.343C92.1546 167.288 156.102 104.427 151.623 98.6929Z" fill="#44332E"/>
<path d="M113.335 220.147C124.732 215.209 86.3971 159.354 84.2148 157.852C84.2148 157.852 74.7791 158.559 75.2473 161.616C76.4489 169.514 108.246 222.347 113.335 220.147Z" fill="#56453F"/>
<path d="M89.5215 164.947C97.685 179.833 111.247 207.54 110.867 219.087C111.936 219.971 112.793 220.386 113.332 220.156C122.352 216.234 100.229 180.443 89.5215 164.947Z" fill="#44332E"/>
<path d="M115.204 221.243L111.432 222.339L102.217 211.851C102.217 211.851 107.951 208.415 109.665 208.556C111.379 208.697 115.204 221.243 115.204 221.243Z" fill="#D8BEB8"/>
<path d="M114.984 221.411L118.006 218.866L114.675 204.589C114.675 204.589 109.144 208.529 108.323 210.04C107.501 211.542 114.984 221.411 114.984 221.411Z" fill="#D8BEB8"/>
<path d="M208.362 219.75C205.172 222.162 194.553 228.991 196.85 232.622C198.9 235.874 205.994 236.854 211.375 222.047L208.362 219.75Z" fill="#FFCD9C"/>
<path d="M173.075 100.46C183.068 87.6226 248.508 159.725 249.719 162.967C249.719 162.967 245.778 174.674 242.015 173.11C232.287 169.055 168.614 106.194 173.075 100.46Z" fill="#56453F"/>
<path d="M173.075 100.46C173.411 100.036 173.808 99.7088 174.259 99.4614C181.583 114.242 231.519 164.337 244.32 172.597C243.57 173.181 242.792 173.428 242.023 173.11C232.287 169.055 168.614 106.194 173.075 100.46Z" fill="#44332E"/>
<path d="M211.199 221.906C199.846 216.967 238.013 161.112 240.186 159.61C240.186 159.61 249.578 160.317 249.118 163.374C247.917 171.281 216.27 224.114 211.199 221.906Z" fill="#56453F"/>
<path d="M234.902 166.705C226.773 181.592 213.274 209.298 213.653 220.845C212.584 221.729 211.736 222.144 211.206 221.906C202.212 218.001 224.247 182.21 234.902 166.705Z" fill="#44332E"/>
<path d="M209.332 223.001L213.087 224.097L222.258 213.61C222.258 213.61 216.55 210.173 214.845 210.314C213.14 210.464 209.332 223.001 209.332 223.001Z" fill="#D8BEB8"/>
<path d="M209.555 223.178L206.551 220.633L209.864 206.356C209.864 206.356 215.368 210.296 216.181 211.807C217.003 213.309 209.555 223.178 209.555 223.178Z" fill="#D8BEB8"/>
<path d="M92.4121 452.569C114.694 449.292 139.308 459.072 170.257 452.675C191.514 448.284 200.641 451.598 219.662 453.833C220.299 384.319 217.144 263.978 198.741 228.894C180.144 193.439 173.888 181.424 196.126 140.747C196.126 140.747 196.117 140.694 196.108 140.641C195.843 138.901 190.807 106.468 175.346 90.7503C163.958 79.1676 149.177 78.7082 138.557 93.1357C125.72 110.585 122.919 143.106 122.919 143.106C141.764 173.366 158.047 171.352 127.248 219.6C108.236 249.374 94.3381 378.064 92.4121 452.569Z" fill="#56453F"/>
<path d="M130.738 110.17C130.738 110.17 121.585 125.428 127.107 145.333L153.409 150.713C153.409 149.989 147.595 132.99 146.721 124.412C146.721 124.412 185.374 129.209 186.098 107.122L130.738 110.17Z" fill="#44332E"/>
<path d="M198.741 228.894C180.356 193.855 174.065 181.689 195.375 142.144C184.181 145.015 171.503 146.641 158.056 146.641C145.493 146.641 133.601 145.227 122.963 142.7C122.937 142.956 122.928 143.098 122.928 143.098C141.773 173.358 158.056 171.343 127.257 219.591C108.236 249.374 94.3381 378.064 92.4121 452.57C94.2233 452.305 96.061 452.146 97.9075 452.04C98.6584 366.773 130.606 182.396 162.694 182.396C194.951 182.396 215.236 368.62 215.581 453.321C216.897 453.497 218.24 453.665 219.662 453.833C220.307 384.319 217.144 263.978 198.741 228.894Z" fill="#44332E"/>
<path d="M169.41 181.512C169.41 181.512 180.516 224.441 185.499 251.026C185.499 251.026 182.91 216.87 177.22 180.452L169.41 181.512Z" fill="#44332E"/>
<path d="M133.927 96.7583C123.033 104.586 136.657 122.654 156.924 122.521C177.731 122.38 193.457 110.073 183.359 97.8538C177.448 90.7063 173.782 95.8748 178.72 74.2202C183.191 54.5977 132.257 54.156 132.363 57.849C132.805 73.1689 149.494 85.5643 133.927 96.7583Z" fill="#2BCDC7"/>
<path d="M173.631 119.464C184.817 115.038 190.453 106.424 183.359 97.8448C177.448 90.6973 173.782 95.8657 178.72 74.2112C183.191 54.5887 132.257 54.1469 132.363 57.84C132.805 73.1598 149.494 85.5553 133.927 96.7492C123.033 104.577 136.657 122.645 156.924 122.512C157.949 122.503 158.965 122.459 159.964 122.397C159.955 122.397 159.946 122.397 159.937 122.397C147.498 122.397 137.417 116.045 137.417 108.217C137.417 100.38 147.498 94.0369 159.937 94.0369C172.377 94.0369 182.458 100.389 182.458 108.217C182.466 112.811 178.994 116.875 173.631 119.464Z" fill="#1FB9B3"/>
<path d="M183.042 11.209C173.721 -2.66192 143.956 -5.46261 130.81 14.9374C118.998 33.2788 125.527 65.6148 138.894 83.0286C144.107 89.8139 169.693 94.7085 176.513 85.202C186.771 70.907 197.037 32.0419 183.042 11.209Z" fill="#1FB9B3"/>
<path d="M177.17 59.3022C177.87 56.0165 177.245 53.3095 180.157 53.9349C183.069 54.5603 184.871 57.7247 184.171 61.0104C183.471 64.2868 180.53 66.4524 177.618 65.8176C174.706 65.1922 176.47 62.5786 177.17 59.3022Z" fill="#FFC08D"/>
<path d="M179.495 60.441C179.906 58.5367 179.654 56.9779 181.054 57.2766C182.463 57.5753 183.275 59.3768 182.865 61.2811C182.454 63.1853 180.979 64.4921 179.579 64.1841C178.17 63.8947 179.084 62.3545 179.495 60.441Z" fill="#EF8F6F"/>
<path d="M180.315 63.4654C179.382 64.4642 179.148 65.6497 177.963 64.5389C176.777 63.4281 176.572 61.7199 177.515 60.7211C178.448 59.7317 180.166 59.8157 181.351 60.9265C182.537 62.0373 181.248 62.4666 180.315 63.4654Z" fill="#FFC08D"/>
<path d="M139.152 59.3022C138.452 56.0165 139.078 53.3095 136.165 53.9349C133.244 54.5603 131.451 57.7247 132.152 61.0104C132.852 64.2868 135.792 66.4524 138.704 65.8176C141.626 65.1922 139.862 62.5786 139.152 59.3022Z" fill="#FFC08D"/>
<path d="M136.838 60.441C136.427 58.5367 136.679 56.9779 135.27 57.2766C133.869 57.5846 133.057 59.3768 133.468 61.2904C133.879 63.1946 135.354 64.5014 136.754 64.1934C138.163 63.8947 137.248 62.3545 136.838 60.441Z" fill="#EF8F6F"/>
<path d="M136.016 63.4654C136.949 64.4642 137.183 65.6497 138.368 64.5389C139.554 63.4281 139.759 61.7199 138.816 60.7211C137.883 59.7317 136.156 59.8157 134.97 60.9265C133.794 62.0373 135.082 62.4666 136.016 63.4654Z" fill="#FFC08D"/>
<path d="M158.156 86.12C144.63 83.049 129.985 61.9346 138.04 27.0893C139.674 20.0511 146.068 16 158.156 16C171.448 16 177.534 20.3032 178.505 26.0065C185.347 66.3217 170.421 84.2718 158.156 86.12Z" fill="#FFC08D"/>
<path d="M155.496 66.4711C155.505 66.6485 157.419 67.6099 158.091 67.6099C159.239 67.6099 160.639 66.6671 160.686 66.3591C160.798 65.603 159.78 57.9488 158.137 57.8648C156.494 57.7901 155.449 65.379 155.496 66.4711Z" fill="#EF8F6F"/>
<path d="M156.578 65.1737C156.578 65.3323 157.736 65.5937 158.137 65.5937C158.828 65.5937 159.668 65.3603 159.696 65.071C159.771 64.3709 160.322 56.4647 158.221 56.5393C155.934 56.614 156.55 64.1562 156.578 65.1737Z" fill="#FFC08D"/>
<path d="M162.545 49.8747C165.756 49.2493 169.294 48.9692 173.167 52.7777C173.167 52.7777 172.915 49.632 169.014 48.4745C165.112 47.3077 162.545 49.8747 162.545 49.8747Z" fill="#543732"/>
<path d="M171.439 54.8872C172.382 52.7216 171.495 50.192 169.479 49.2585C167.444 48.3251 165.054 49.3239 164.102 51.4895C163.178 53.655 164.055 56.1753 166.072 57.1088C168.106 58.0515 170.515 57.0528 171.439 54.8872Z" fill="#543732"/>
<path d="M140.943 52.703C143.669 50.3974 146.852 48.2225 151.995 49.4546C151.995 49.4546 150.483 46.8223 146.385 47.9331C142.288 49.0439 140.943 52.703 140.943 52.703Z" fill="#543732"/>
<path d="M151.052 52.3014C150.735 49.9865 148.719 48.3156 146.562 48.577C144.397 48.8477 142.903 50.9292 143.202 53.2535C143.519 55.5591 145.536 57.23 147.692 56.9593C149.867 56.7072 151.37 54.607 151.052 52.3014Z" fill="#543732"/>
<path d="M153.5 43.0325C149.085 42.2951 144.221 42.1177 138.994 48.4558C138.994 48.4558 139.265 43.4619 144.595 41.3149C149.925 39.1587 153.5 43.0325 153.5 43.0325Z" fill="#A0444B"/>
<path d="M161.77 43.0139C166.213 42.2858 171.104 42.1178 176.359 48.4652C176.359 48.4652 176.088 43.4713 170.721 41.315C165.363 39.1588 161.77 43.0139 161.77 43.0139Z" fill="#A0444B"/>
<path d="M151.93 74.8999C153.124 75.6374 155.822 74.5266 157.717 74.3306C159.761 74.1252 163.579 75.348 163.952 74.4519C163.952 74.4519 164.279 70.5221 157.437 71.1475C152.695 71.4742 151.93 74.8999 151.93 74.8999Z" fill="#4F252D"/>
<path d="M162.572 72.3984C161.862 71.9316 160.537 71.2876 158.11 71.3996C155.711 71.5116 154.133 72.2397 153.424 72.8744C155.561 73.2571 160.023 73.3505 162.572 72.3984Z" fill="#FFEADC"/>
<path d="M164.458 74.76C164.458 74.4519 164.244 74.2092 163.992 74.2092C163.73 74.2092 163.516 74.4519 163.516 74.76C163.516 75.0587 163.73 75.3107 163.992 75.3107C164.244 75.3107 164.458 75.0587 164.458 74.76Z" fill="#4F252D"/>
<path d="M152.341 74.9375C152.341 74.6108 152.108 74.3401 151.828 74.3401C151.548 74.3401 151.314 74.6108 151.314 74.9375C151.314 75.2642 151.548 75.5349 151.828 75.5349C152.108 75.5349 152.341 75.2642 152.341 74.9375Z" fill="#4F252D"/>
<path d="M137.48 27.2621C137.48 27.2621 157.695 21.2808 178.448 27.9336C178.448 27.9336 174.623 11.5447 157.147 11.5447C139.663 11.5447 137.48 27.2621 137.48 27.2621Z" fill="#F4E4C9"/>
<path d="M157.685 8.26685C142.303 8.26685 129.828 26.6083 129.828 49.2347C129.828 71.8611 142.303 90.2025 157.685 90.2025C173.075 90.2025 185.542 71.8611 185.542 49.2347C185.55 26.6083 173.075 8.26685 157.685 8.26685ZM157.685 84.7425C146.146 84.7425 136.79 68.8483 136.79 49.2347C136.79 29.621 146.146 13.7269 157.685 13.7269C169.223 13.7269 178.58 29.621 178.58 49.2347C178.58 68.8483 169.223 84.7425 157.685 84.7425Z" fill="#2BCDC7"/>
<path d="M142.162 103.861L133.495 101.741C129.086 108.244 126.639 133.591 129.767 145.978L149.628 149.697C145.157 140.721 142.162 103.861 142.162 103.861Z" fill="#2BCDC7"/>
<path d="M131.324 132.407C131.324 119.871 136.448 106.618 141.086 100.478L131.677 98.967C127.268 105.47 126.65 133.6 129.777 145.987L132.728 146.535C131.827 142.214 131.324 137.435 131.324 132.407Z" fill="#1FB9B3"/>
<path d="M142.25 94.8408L135.164 103.269C135.164 103.269 136.039 112.21 148.028 116.999C148.028 116.999 137.823 102.916 142.25 94.8408Z" fill="#1FB9B3"/>
<path d="M173.308 86.978L177.028 94.9825C177.028 94.9825 172.221 101.582 157.617 102.545C157.617 102.545 174.412 94.1167 173.308 86.978Z" fill="#1FB9B3"/>
</g>
<defs>
<filter id="filter0_d_235_8637" x="206.867" y="68.6897" width="43.7227" height="54.332" filterUnits="userSpaceOnUse" color-interpolation-filters="sRGB">
<feFlood flood-opacity="0" result="BackgroundImageFix"/>
<feColorMatrix in="SourceAlpha" type="matrix" values="0 0 0 0 0 0 0 0 0 0 0 0 0 0 0 0 0 0 127 0" result="hardAlpha"/>
<feOffset dy="4"/>
<feGaussianBlur stdDeviation="2"/>
<feComposite in2="hardAlpha" operator="out"/>
<feColorMatrix type="matrix" values="0 0 0 0 0 0 0 0 0 0 0 0 0 0 0 0 0 0 0.25 0"/>
<feBlend mode="normal" in2="BackgroundImageFix" result="effect1_dropShadow_235_8637"/>
<feBlend mode="normal" in="SourceGraphic" in2="effect1_dropShadow_235_8637" result="shape"/>
</filter>
<filter id="filter1_d_235_8637" x="237.902" y="51.7065" width="23.0251" height="28.6098" filterUnits="userSpaceOnUse" color-interpolation-filters="sRGB">
<feFlood flood-opacity="0" result="BackgroundImageFix"/>
<feColorMatrix in="SourceAlpha" type="matrix" values="0 0 0 0 0 0 0 0 0 0 0 0 0 0 0 0 0 0 127 0" result="hardAlpha"/>
<feOffset dy="2.1063"/>
<feGaussianBlur stdDeviation="1.05315"/>
<feComposite in2="hardAlpha" operator="out"/>
<feColorMatrix type="matrix" values="0 0 0 0 0 0 0 0 0 0 0 0 0 0 0 0 0 0 0.25 0"/>
<feBlend mode="normal" in2="BackgroundImageFix" result="effect1_dropShadow_235_8637"/>
<feBlend mode="normal" in="SourceGraphic" in2="effect1_dropShadow_235_8637" result="shape"/>
</filter>
<filter id="filter2_d_235_8637" x="247.333" y="143" width="10.999" height="13.6692" filterUnits="userSpaceOnUse" color-interpolation-filters="sRGB">
<feFlood flood-opacity="0" result="BackgroundImageFix"/>
<feColorMatrix in="SourceAlpha" type="matrix" values="0 0 0 0 0 0 0 0 0 0 0 0 0 0 0 0 0 0 127 0" result="hardAlpha"/>
<feOffset dy="1.00635"/>
<feGaussianBlur stdDeviation="0.503174"/>
<feComposite in2="hardAlpha" operator="out"/>
<feColorMatrix type="matrix" values="0 0 0 0 0 0 0 0 0 0 0 0 0 0 0 0 0 0 0.25 0"/>
<feBlend mode="normal" in2="BackgroundImageFix" result="effect1_dropShadow_235_8637"/>
<feBlend mode="normal" in="SourceGraphic" in2="effect1_dropShadow_235_8637" result="shape"/>
</filter>
<filter id="filter3_d_235_8637" x="57.7065" y="175.886" width="10.999" height="13.6692" filterUnits="userSpaceOnUse" color-interpolation-filters="sRGB">
<feFlood flood-opacity="0" result="BackgroundImageFix"/>
<feColorMatrix in="SourceAlpha" type="matrix" values="0 0 0 0 0 0 0 0 0 0 0 0 0 0 0 0 0 0 127 0" result="hardAlpha"/>
<feOffset dy="1.00635"/>
<feGaussianBlur stdDeviation="0.503174"/>
<feComposite in2="hardAlpha" operator="out"/>
<feColorMatrix type="matrix" values="0 0 0 0 0 0 0 0 0 0 0 0 0 0 0 0 0 0 0.25 0"/>
<feBlend mode="normal" in2="BackgroundImageFix" result="effect1_dropShadow_235_8637"/>
<feBlend mode="normal" in="SourceGraphic" in2="effect1_dropShadow_235_8637" result="shape"/>
</filter>
<filter id="filter4_d_235_8637" x="93.3595" y="92.6365" width="6.98022" height="8.67334" filterUnits="userSpaceOnUse" color-interpolation-filters="sRGB">
<feFlood flood-opacity="0" result="BackgroundImageFix"/>
<feColorMatrix in="SourceAlpha" type="matrix" values="0 0 0 0 0 0 0 0 0 0 0 0 0 0 0 0 0 0 127 0" result="hardAlpha"/>
<feOffset dy="0.63855"/>
<feGaussianBlur stdDeviation="0.319275"/>
<feComposite in2="hardAlpha" operator="out"/>
<feColorMatrix type="matrix" values="0 0 0 0 0 0 0 0 0 0 0 0 0 0 0 0 0 0 0.25 0"/>
<feBlend mode="normal" in2="BackgroundImageFix" result="effect1_dropShadow_235_8637"/>
<feBlend mode="normal" in="SourceGraphic" in2="effect1_dropShadow_235_8637" result="shape"/>
</filter>
<filter id="filter5_d_235_8637" x="53.0026" y="96.1648" width="31.6783" height="39.8739" filterUnits="userSpaceOnUse" color-interpolation-filters="sRGB">
<feFlood flood-opacity="0" result="BackgroundImageFix"/>
<feColorMatrix in="SourceAlpha" type="matrix" values="0 0 0 0 0 0 0 0 0 0 0 0 0 0 0 0 0 0 127 0" result="hardAlpha"/>
<feOffset dy="2.97979"/>
<feGaussianBlur stdDeviation="1.48989"/>
<feComposite in2="hardAlpha" operator="out"/>
<feColorMatrix type="matrix" values="0 0 0 0 0 0 0 0 0 0 0 0 0 0 0 0 0 0 0.25 0"/>
<feBlend mode="normal" in2="BackgroundImageFix" result="effect1_dropShadow_235_8637"/>
<feBlend mode="normal" in="SourceGraphic" in2="effect1_dropShadow_235_8637" result="shape"/>
</filter>
<filter id="filter6_d_235_8637" x="197.314" y="22.9778" width="12.0239" height="15.136" filterUnits="userSpaceOnUse" color-interpolation-filters="sRGB">
<feFlood flood-opacity="0" result="BackgroundImageFix"/>
<feColorMatrix in="SourceAlpha" type="matrix" values="0 0 0 0 0 0 0 0 0 0 0 0 0 0 0 0 0 0 127 0" result="hardAlpha"/>
<feOffset dy="1.1311"/>
<feGaussianBlur stdDeviation="0.565551"/>
<feComposite in2="hardAlpha" operator="out"/>
<feColorMatrix type="matrix" values="0 0 0 0 0 0 0 0 0 0 0 0 0 0 0 0 0 0 0.25 0"/>
<feBlend mode="normal" in2="BackgroundImageFix" result="effect1_dropShadow_235_8637"/>
<feBlend mode="normal" in="SourceGraphic" in2="effect1_dropShadow_235_8637" result="shape"/>
</filter>
<clipPath id="clip0_235_8637">
<rect width="325.053" height="228.314" fill="white"/>
</clipPath>
</defs>
</svg>
