<svg width="421" height="427" viewBox="0 0 421 427" fill="none" xmlns="http://www.w3.org/2000/svg">
<g clip-path="url(#clip0_1227_73653)">
<path d="M39.0012 109.1L56.5012 141.4L41.7012 149.4L24.2012 117.1L39.0012 109.1Z" fill="#EBEBEB"/>
<path d="M3.76685 128.124L0.951172 129.645L18.4349 162.025L21.2505 160.505L3.76685 128.124Z" fill="#EBEBEB"/>
<path d="M154.702 107.3L146.902 92.8L63.0016 137.9L45.6016 105.6L129.402 60.5L121.602 46L191.202 48L154.702 107.3Z" fill="#EBEBEB"/>
<path d="M18.4008 120.199L35.8008 152.599L26.3008 157.799L8.80078 125.399L18.4008 120.199Z" fill="#EBEBEB"/>
<path d="M234.501 142.301L252.001 174.601L237.201 182.601L219.801 150.201L234.501 142.301Z" fill="#EBEBEB"/>
<path d="M199.279 161.337L196.463 162.857L213.947 195.238L216.762 193.717L199.279 161.337Z" fill="#EBEBEB"/>
<path d="M321.902 155.601L314.102 141.101L258.602 171.101L241.102 138.701L296.602 108.801L288.802 94.3008L358.402 96.3008L321.902 155.601Z" fill="#EBEBEB"/>
<path d="M213.901 153.4L231.401 185.8L221.801 190.9L204.301 158.6L213.901 153.4Z" fill="#EBEBEB"/>
<path d="M357.7 38.3C357.7 26.5 348.1 17 336.3 17C324.5 17 315 26.6 315 38.4C315 46.9 320 54.3 327.3 57.7C327.3 60.2 327.3 63.1 327.3 63.1H346C346 63.1 346.1 60.1 346.1 57.4C353 53.7 357.7 46.5 357.7 38.3Z" fill="#F5F5F5"/>
<path d="M339.199 62.9004C339.199 62.9004 339.199 62.8004 339.199 62.6004C339.199 62.4004 339.199 62.2004 339.299 61.8004C339.399 61.1004 339.499 60.1004 339.699 58.8004C339.899 57.5004 340.099 56.0004 340.499 54.2004C340.899 52.4004 341.499 50.4004 342.399 48.3004C342.899 47.2004 343.399 46.2004 344.199 45.1004C344.599 44.6004 344.999 44.1004 345.699 43.8004C346.299 43.5004 347.099 43.5004 347.699 43.9004C347.999 44.1004 348.299 44.4004 348.399 44.7004C348.499 45.1004 348.499 45.5004 348.299 45.8004C347.999 46.5004 347.299 46.9004 346.699 47.2004C345.299 47.7004 343.699 47.6004 342.299 46.9004C340.899 46.2004 339.799 44.9004 339.299 43.3004C339.099 42.5004 338.899 41.7004 339.199 40.8004C339.399 40.0004 340.199 39.2004 341.099 39.3004C341.599 39.3004 341.999 39.6004 342.199 40.1004C342.399 40.5004 342.499 41.0004 342.399 41.4004C342.199 42.3004 341.599 43.0004 340.899 43.5004C339.599 44.6004 337.699 45.2004 335.899 44.9004C334.099 44.6004 332.499 43.4004 331.799 41.8004C331.399 41.0004 331.299 40.0004 331.699 39.2004C331.899 38.8004 332.199 38.4004 332.599 38.3004C332.999 38.1004 333.499 38.2004 333.899 38.4004C334.299 38.6004 334.599 38.9004 334.799 39.3004C334.999 39.7004 335.099 40.1004 335.099 40.5004C335.199 41.3004 334.999 42.2004 334.799 42.9004C334.299 44.4004 333.199 45.8004 331.799 46.5004C330.399 47.2004 328.799 47.4004 327.399 47.1004C326.699 46.9004 325.999 46.7004 325.499 46.1004C324.999 45.5004 324.899 44.6004 325.399 44.0004C325.599 43.7004 325.999 43.6004 326.399 43.5004C326.799 43.5004 327.099 43.5004 327.399 43.7004C327.999 44.0004 328.399 44.6004 328.699 45.2004C329.199 46.4004 329.699 47.5004 330.099 48.6004C331.799 52.9004 332.999 56.4004 333.799 58.9004C334.199 60.1004 334.499 61.1004 334.699 61.7004C334.799 62.0004 334.899 62.3004 334.899 62.4004C334.899 62.6004 334.999 62.7004 334.999 62.7004C334.999 62.7004 334.999 62.6004 334.899 62.5004C334.799 62.3004 334.799 62.1004 334.699 61.8004C334.499 61.1004 334.199 60.2004 333.699 59.0004C332.899 56.6004 331.599 53.0004 329.899 48.7004C329.499 47.6004 328.999 46.5004 328.499 45.4004C328.199 44.9004 327.799 44.3004 327.299 44.0004C326.799 43.7004 325.999 43.7004 325.599 44.2004C325.199 44.7004 325.299 45.5004 325.699 46.0004C326.099 46.5004 326.799 46.8004 327.499 46.9004C328.899 47.2004 330.399 47.0004 331.799 46.3004C333.099 45.6004 334.199 44.3004 334.699 42.9004C334.999 42.2004 335.099 41.4004 334.999 40.6004C334.899 39.8004 334.599 39.0004 333.899 38.6004C333.599 38.4004 333.199 38.4004 332.799 38.5004C332.399 38.6004 332.199 38.9004 331.999 39.3004C331.699 40.0004 331.799 40.9004 332.099 41.7004C332.799 43.2004 334.299 44.4004 335.999 44.6004C337.699 44.9004 339.499 44.3004 340.799 43.2004C341.399 42.7004 341.999 42.0004 342.199 41.2004C342.299 40.8004 342.199 40.4004 342.099 40.1004C341.899 39.8004 341.599 39.5004 341.199 39.5004C340.799 39.5004 340.399 39.6004 340.099 39.8004C339.799 40.0004 339.599 40.4004 339.499 40.8004C339.299 41.6004 339.399 42.4004 339.599 43.1004C340.099 44.6004 341.099 45.9004 342.499 46.5004C343.799 47.2004 345.399 47.3004 346.699 46.8004C347.299 46.5004 347.899 46.1004 348.199 45.5004C348.499 44.9004 348.299 44.1004 347.699 43.8004C347.099 43.5004 346.399 43.5004 345.899 43.7004C345.299 44.0004 344.899 44.4004 344.499 44.9004C343.799 45.9004 343.199 47.0004 342.799 48.1004C341.799 50.2004 341.299 52.2004 340.799 54.0004C340.399 55.8004 340.099 57.3004 339.899 58.6004C339.699 59.9004 339.599 60.9004 339.499 61.5004C339.499 61.8004 339.399 62.1004 339.399 62.3004C339.199 62.8004 339.199 62.9004 339.199 62.9004Z" fill="#E0E0E0"/>
<path d="M344.601 66.4H328.501C327.801 66.4 327.301 65.9 327.301 65.2C327.301 64.5 327.801 64 328.501 64H344.601C345.301 64 345.801 64.5 345.801 65.2C345.801 65.9 345.201 66.4 344.601 66.4Z" fill="#E0E0E0"/>
<path d="M344.601 67.5H328.501C327.801 67.5 327.301 68 327.301 68.7C327.301 69.4 327.801 69.9 328.501 69.9H330.301L332.601 74.3C332.901 74.8 333.401 75.1 334.001 75.1H339.701C340.301 75.1 340.801 74.8 341.101 74.3L343.401 69.9H344.601C345.301 69.9 345.801 69.4 345.801 68.7C345.801 68 345.201 67.5 344.601 67.5Z" fill="#E0E0E0"/>
<path d="M330.2 20.9006C329.4 21.0006 328.2 21.3006 326.9 21.9006C325.6 22.5006 324.1 23.4006 322.6 24.7006C321 26.3006 319.7 27.9006 318.9 29.8006C318 31.9006 317.5 34.0006 317.4 36.0006C317.3 38.0006 317.6 39.7006 318 41.1006C318.4 42.5006 318.9 43.6006 319.4 44.2006C319.9 44.9006 320.2 45.2006 320.4 45.1006C320.8 44.9006 320.1 43.3006 319.9 40.7006C319.6 38.1006 319.7 34.4006 321.4 30.9006C323 27.4006 325.8 24.9006 327.9 23.5006C330.1 22.0006 331.7 21.5006 331.6 21.1006C331.5 20.9006 331 20.8006 330.2 20.9006Z" fill="#FAFAFA"/>
<path d="M338.7 19.9004C338.2 19.6004 337.5 19.4004 336.7 19.4004C335.9 19.4004 335.2 19.6004 334.7 19.9004C334.2 20.2004 334 20.6004 334 20.9004C334.1 21.6004 335.3 22.0004 336.7 22.0004C337.8 22.0004 339 21.7004 339.4 20.9004C339.4 20.6004 339.1 20.2004 338.7 19.9004Z" fill="#FAFAFA"/>
<path d="M340.799 74.7008C340.799 74.7008 340.399 74.6008 339.699 74.4008C338.999 74.2008 338.099 74.0008 336.999 74.1008C335.899 74.1008 334.999 74.4008 334.299 74.6008C333.599 74.8008 333.199 75.0008 333.199 75.0008C333.199 75.0008 333.499 74.7008 334.199 74.4008C334.899 74.1008 335.799 73.8008 336.999 73.8008C338.099 73.8008 339.099 74.0008 339.799 74.2008C340.399 74.5008 340.799 74.7008 340.799 74.7008Z" fill="#EBEBEB"/>
<path d="M343.4 70.0008C343.4 70.1008 340.5 70.1008 336.9 70.1008C333.3 70.1008 330.4 70.0008 330.4 70.0008C330.4 69.9008 333.3 69.9008 336.9 69.9008C340.5 69.8008 343.4 69.9008 343.4 70.0008Z" fill="#EBEBEB"/>
<path d="M342.4 71.8992C342.4 71.8992 341.8 71.9992 340.8 72.0992C339.8 72.1992 338.5 72.1992 337 72.1992C335.5 72.1992 334.1 72.1992 333.2 72.1992C332.2 72.1992 331.6 72.0992 331.6 72.0992C331.6 72.0992 332.2 71.9992 333.2 71.9992C334.3 71.9992 335.6 71.9992 337 71.9992C338.5 71.9992 339.8 71.9992 340.8 71.8992C341.8 71.7992 342.4 71.7992 342.4 71.8992Z" fill="#EBEBEB"/>
<path d="M17 281.7L9.4 293.9L13.1 296.2C14.2 296.9 14.8 298.1 14.7 299.4C14.6 300.1 14.6 300.8 14.6 301.5C14.6 302.8 14 304 12.8 304.6L9 306.7L15.8 319.3L19.7 317.2C20.8 316.6 22.2 316.7 23.3 317.4C23.9 317.8 24.5 318.2 25.1 318.5C26.2 319.1 26.9 320.3 26.9 321.6L26.8 326L41.1 326.4L41.2 322C41.2 320.7 42 319.6 43.2 319C43.5 318.9 43.8 318.7 44.1 318.5C44.4 318.3 44.7 318.2 45 318C46.1 317.3 47.5 317.3 48.6 318L52.4 320.3L60 308.1L56.3 305.8C55.2 305.1 54.6 303.9 54.7 302.6C54.8 301.9 54.8 301.2 54.8 300.5C54.8 299.2 55.4 298 56.6 297.4L60.5 295.3L53.7 282.7L49.8 284.8C48.7 285.4 47.3 285.3 46.2 284.6C45.6 284.2 45 283.8 44.4 283.5C43.3 282.9 42.6 281.7 42.6 280.4L42.7 276L28.4 275.6L28.3 280C28.3 281.3 27.5 282.4 26.3 283C26 283.2 25.7 283.3 25.4 283.5C25.1 283.7 24.8 283.8 24.5 284C23.4 284.7 22 284.7 20.9 284L17 281.7ZM29.1 290.7C34.8 287.6 41.9 289.8 45 295.5C48.1 301.2 45.9 308.3 40.2 311.4C34.5 314.5 27.4 312.3 24.3 306.6C21.3 300.9 23.4 293.8 29.1 290.7Z" fill="#EBEBEB"/>
<path d="M375.4 110.5L380.4 119.2L383.1 117.7C383.9 117.2 384.8 117.3 385.6 117.8C386 118.1 386.5 118.3 386.9 118.6C387.7 119 388.2 119.8 388.2 120.7L388.2 123.8L398.2 123.8L398.2 120.7C398.2 119.8 398.7 119 399.5 118.6C399.9 118.4 400.4 118.1 400.8 117.8C401.6 117.3 402.5 117.3 403.3 117.7L406 119.2L411 110.5L408.3 109C407.5 108.5 407.1 107.7 407.1 106.8C407.1 106.6 407.1 106.3 407.1 106.1C407.1 105.9 407.1 105.6 407.1 105.4C407.1 104.5 407.5 103.6 408.3 103.2L411 101.7L406 93L403.3 94.5C402.5 95 401.6 94.9 400.8 94.4C400.4 94.1 400 93.9 399.5 93.7C398.7 93.3 398.2 92.5 398.2 91.6L398.2 88.5L388.2 88.5L388.2 91.6C388.2 92.5 387.7 93.3 386.9 93.7C386.5 93.9 386 94.2 385.6 94.4C384.8 94.9 383.9 94.9 383.1 94.5L380.4 93L375.4 101.7L378.1 103.2C378.9 103.7 379.3 104.5 379.3 105.4C379.3 105.6 379.3 105.9 379.3 106.1C379.3 106.3 379.3 106.6 379.3 106.8C379.3 107.7 378.9 108.6 378.1 109L375.4 110.5ZM385 106C385 101.5 388.7 97.8 393.2 97.8C397.7 97.8 401.4 101.5 401.4 106C401.4 110.5 397.7 114.2 393.2 114.2C388.6 114.2 385 110.5 385 106Z" fill="#EBEBEB"/>
<path d="M119.7 200.801C118.9 195.601 117 190.801 114.3 186.501L120.7 179.001L111.2 169.501L104.1 175.501C99.9 172.401 95 170.101 89.8 169.001L89.1 159.801L75.8 159.801L75.1 168.501C69.6 169.301 64.4 171.401 59.9 174.301L53.2 168.601L43.7 178.101L49.2 184.501C46 188.901 43.8 194.001 42.7 199.501L34 200.201L34 213.601L42.6 214.301C43.6 219.701 45.7 224.801 48.7 229.201L42.7 236.201L52.2 245.701L59.2 239.701C63.5 242.601 68.3 244.701 73.6 245.701L74.4 255.401L87.8 255.401L88.6 245.701C93.7 244.701 98.4 242.801 102.6 240.001L110.4 246.601L119.9 237.101L113.4 229.501C116.2 225.401 118.3 220.801 119.4 215.801L129.7 215.001L129.7 201.601L119.7 200.801ZM99.4 207.101C99.4 217.201 91.2 225.401 81.1 225.401C71 225.401 62.8 217.201 62.8 207.101C62.8 197.001 71 188.801 81.1 188.801C91.2 188.901 99.4 197.101 99.4 207.101Z" stroke="#EBEBEB" stroke-miterlimit="10"/>
<path d="M276.8 18.3017C276.8 28.3017 268.7 36.4017 258.7 36.4017C254.7 36.4017 250.9 35.1017 247.9 32.8017L239 35.1017L242.7 26.9017C241.3 24.4017 240.6 21.4017 240.6 18.4017C240.6 8.4017 248.7 0.301697 258.7 0.301697C268.7 0.201697 276.8 8.3017 276.8 18.3017Z" fill="white"/>
<path d="M276.801 18.3009C277.001 28.7009 267.501 37.5009 257.101 36.6009C253.701 36.4009 250.401 35.1009 247.701 33.2009L248.001 33.3009C245.101 34.1009 242.101 34.9009 239.201 35.6009L238.301 35.8009L238.701 35.0009L242.301 26.7009L242.301 27.1009C236.501 16.8009 242.701 3.10093 254.201 0.600932C265.501 -2.29907 277.001 6.70093 276.801 18.3009ZM276.801 18.3009C276.901 6.80093 265.501 -1.99907 254.401 1.10093C243.401 3.90093 237.701 17.0009 243.301 26.9009L243.201 27.1009L239.501 35.3009L239.001 34.7009C242.001 33.9009 245.001 33.2009 248.001 32.5009C250.601 34.5009 253.801 35.8009 257.201 36.1009C267.501 37.3009 276.901 28.7009 276.801 18.3009Z" fill="#414042"/>
<path d="M255.801 29.1016L247.701 20.9016L250.401 18.2016L255.201 23.0016L265.001 7.60156L268.201 9.60156L255.801 29.1016Z" fill="#1FB9B3"/>
<path d="M357.699 146.101L416.899 118.301L411.399 183.501L357.699 146.101Z" fill="#FFBC00"/>
<path d="M399.999 164.2L305.099 294.2L157.499 255L3.19922 388.2L3.19922 356.1L151.399 228.3L295.299 266.5L380.399 149.9L399.999 164.2Z" fill="#FFBC00"/>
<path d="M394.599 296.699L306.699 296.699L306.699 458.499L394.599 458.499L394.599 296.699Z" fill="#353436"/>
<path d="M394.598 458.502L416.898 458.502L416.898 296.702L394.598 296.702L394.598 458.502Z" fill="#FFBC00"/>
<path d="M394.598 458.502L416.898 458.502L416.898 296.702L394.598 296.702L394.598 458.502Z" fill="#414042"/>
<path d="M91.0992 356.1L3.19922 356.1L3.19922 458.6L91.0992 458.6L91.0992 356.1Z" fill="#353436"/>
<path d="M91.0086 458.551L113.309 458.551L113.309 356.051L91.0086 356.051L91.0086 458.551Z" fill="#FFBC00"/>
<path d="M91.0086 458.551L113.309 458.551L113.309 356.051L91.0086 356.051L91.0086 458.551Z" fill="#414042"/>
<path d="M210.8 43.3007C210.3 43.5007 209.8 43.7007 209.4 44.1007C207.6 45.7007 207.3 48.3007 207.4 50.6007C207.6 53.0007 208.3 55.6007 207.7 58.0007C207.4 58.9007 207 59.9007 206.1 60.4007C205.2 61.0007 204 60.9007 203 60.6007C201.9 60.3007 200.7 59.7007 199.6 60.2007C198.7 60.6007 198.1 61.5007 197.9 62.5007C197.3 64.9007 198.9 67.3007 199.3 69.7007C199.7 72.2007 199.3 74.8007 198.3 77.1007C197.3 79.3007 195.6 81.1007 193.6 82.3007C192.6 82.9007 191.5 83.4007 190.4 83.7007C189.1 84.0007 187.8 84.1007 186.6 84.4007C185.4 84.7007 184.2 85.2007 183.5 86.3007C183 87.1007 183.2 90.7007 186 94.1007C186.2 94.3007 185.7 94.7007 185.5 94.5007C184.9 94.2007 184.4 93.8007 183.9 93.4007C179.6 90.2007 177 84.9007 177.1 79.5007C177.2 76.6007 178 73.8007 179.4 71.3007C180.2 69.9007 181.1 68.6007 181.6 67.0007C182.1 65.7007 182.1 64.2007 182 62.8007C181.6 60.1007 180.6 57.5007 180.8 54.8007C180.9 52.4007 181.7 50.0007 182.9 47.9007C185.5 43.5007 190 40.6007 195 39.7007C199.8 38.9007 211 43.2007 210.8 43.3007Z" fill="#414042"/>
<path d="M210.599 43.4003C209.699 43.9003 208.699 44.4003 208.099 45.3003C207.499 46.1003 207.199 47.0003 206.999 47.9003C206.699 50.0003 207.199 52.1003 207.699 54.1003C208.099 56.0003 208.499 58.1003 207.699 60.0003C207.399 60.8003 206.899 61.6003 206.199 62.1003C205.399 62.7003 204.399 62.8003 203.499 62.6003C201.799 62.3003 199.599 61.4003 198.099 62.8003C196.599 64.1003 196.999 66.5003 197.299 68.2003C197.999 72.4003 199.499 77.7003 196.199 81.1003C194.499 82.9003 191.999 84.0003 189.699 84.7003C187.999 85.2003 185.899 85.9003 185.199 87.7003C185.199 87.8003 185.299 87.8003 185.299 87.7003C186.099 85.8003 188.299 85.5003 189.999 85.1003C191.999 84.5003 193.999 83.7003 195.699 82.4003C197.399 81.1003 198.399 79.2003 198.699 77.1003C198.999 74.9003 198.699 72.8003 198.299 70.7003C198.099 69.6003 197.899 68.5003 197.699 67.4003C197.499 66.4003 197.399 65.4003 197.699 64.4003C197.999 63.4003 198.799 62.8003 199.899 62.7003C200.899 62.6003 201.899 63.0003 202.999 63.1003C203.899 63.3003 204.799 63.3003 205.699 62.9003C206.399 62.6003 206.999 62.1003 207.399 61.5003C208.499 60.1003 208.799 58.4003 208.699 56.7003C208.499 54.3003 207.499 52.1003 207.399 49.7003C207.299 48.5003 207.399 47.2003 207.999 46.1003C208.599 44.9003 209.599 44.3003 210.699 43.6003C210.899 43.5003 210.799 43.3003 210.599 43.4003Z" fill="#414042"/>
<path d="M192.9 38.6001C187.8 39.4001 183.7 43.2001 182 47.9001C181 50.5001 180.8 53.4001 181.1 56.2001C181.4 58.8001 182.1 61.4001 181.8 64.1001C181.5 67.0001 179.7 69.2001 178.2 71.7001C177 73.7001 176.3 75.8001 176 78.1001C175.5 82.5001 176.8 87.0001 179.6 90.4001C180 90.8001 180.3 91.3001 180.7 91.7001C180.7 91.8001 180.8 91.7001 180.8 91.6001C177.7 88.4001 176.3 83.9001 176.5 79.5001C176.6 77.3001 177.1 75.2001 178.1 73.3001C179.3 70.9001 181.2 68.9001 182 66.3001C182.8 63.9001 182.5 61.3001 182.1 58.9001C181.7 56.2001 181.3 53.6001 181.8 50.9001C182.7 45.9001 186.1 41.4001 190.9 39.7001C196.3 37.8001 202 39.7001 207 42.0001C207.7 42.3001 208.3 42.6001 209 42.9001C209.1 42.9001 209.1 42.8001 209.1 42.8001C204.1 40.3001 198.6 37.7001 192.9 38.6001Z" fill="#414042"/>
<path d="M212.399 40.7995C211.699 40.1995 210.499 39.9995 209.999 40.3995C209.499 40.6995 208.299 45.0995 208.999 46.0995C209.599 46.9995 211.499 46.1995 211.499 46.1995L212.399 40.7995Z" fill="#FFBC00"/>
<path d="M207.499 346.501C206.399 346.701 190.999 349.501 175.099 346.601C160.099 343.901 143.499 339.801 142.599 338.901C141.799 338.201 155.899 280.801 155.899 280.801L194.899 288.501L184.999 326.001L184.899 326.701C184.899 326.701 187.999 329.101 194.499 333.301C195.699 334.001 207.699 337.501 208.599 338.501C210.599 340.601 209.699 346.101 207.499 346.501Z" fill="#D3766A"/>
<path d="M207.5 346.5C206.4 346.7 191 349.5 175.1 346.6C160.1 343.9 143.5 339.8 142.6 338.9C142.4 338.7 143.5 333.1 145.3 325.5C154.9 329 184.4 338.1 188.8 338.7C193.8 339.3 201.5 340 200.9 338.1C200.4 336.4 196 334 194.9 333.4C197 334.3 207.9 337.5 208.7 338.4C210.6 340.6 209.7 346.1 207.5 346.5Z" fill="#414042"/>
<path d="M220.799 106.5C220.799 106.5 223.599 133.5 217.999 139.6C217.999 139.6 211.899 208.7 209.899 226.9C207.099 252.6 191.299 317.7 191.299 317.7L148.699 306.8C148.699 306.8 167.499 226.1 167.599 224.5C168.199 219.4 175.399 144.6 174.899 143C168.299 123.6 177.599 105.9 177.599 105.9L220.799 106.5Z" fill="#414042"/>
<path d="M187.8 306.901C182.2 305.301 183.8 305.601 178.2 304.101C175.5 303.301 157.4 298.401 154.7 298.301C154.6 298.301 154.6 298.401 154.7 298.501C157.1 299.701 175.3 304.201 178 304.901C183.6 306.301 182 305.801 187.7 307.101C187.9 307.201 187.9 307.001 187.8 306.901Z" fill="#37474F"/>
<path d="M174.1 298.4C179.1 275.7 184.8 253 188.5 230.1C189.4 213.5 190.7 196.9 192.1 180.3C193.2 167.4 194.3 152.8 195.6 140.7C192.6 136.1 192 130.5 192.3 125.2C192.6 119.9 193.7 114.7 195.4 109.6C193.8 114.6 192.8 119.9 192.6 125.2C192.4 130.4 193.1 136 196.1 140.4C195 153.7 192.3 187.4 191.3 200.2C190.6 209.3 189.7 218.5 189.4 227.6C188.4 238.4 185.5 248.9 183.3 259.5C180.5 272.5 177.3 285.5 174.1 298.4Z" fill="#37474F"/>
<path d="M212.2 203.3L177.6 106L220.8 106.5C220.8 106.5 223.6 133.5 218 139.6C217.9 139.6 215 178.2 212.2 203.3Z" fill="#37474F"/>
<path d="M306.398 296.999C304.298 297.699 244.098 296.499 241.798 294.999C240.898 294.399 242.298 243.899 242.298 243.899L280.098 243.199L279.298 275.699C279.298 275.699 302.098 286.499 304.398 288.399C306.798 290.299 308.498 296.399 306.398 296.999Z" fill="#D3766A"/>
<path d="M306.398 296.999C305.498 297.299 293.298 297.199 279.798 296.899C278.898 296.899 277.998 296.899 277.098 296.799C274.798 296.799 272.498 296.699 270.198 296.599C269.298 296.599 268.398 296.499 267.498 296.499C266.598 296.499 265.698 296.399 264.898 296.399C263.598 296.399 262.198 296.299 260.998 296.299C260.198 296.299 259.298 296.199 258.498 296.199C257.698 296.199 256.898 296.099 256.098 296.099C254.898 296.099 253.798 295.999 252.798 295.899C252.098 295.899 251.398 295.799 250.698 295.799C249.398 295.699 248.198 295.699 247.098 295.599C246.598 295.599 246.098 295.499 245.598 295.499C244.398 295.399 243.498 295.299 242.898 295.199C242.398 295.099 241.998 294.999 241.898 294.899C241.598 294.699 241.798 287.799 241.798 279.699C247.598 281.099 258.798 283.399 274.998 285.899C301.698 290.099 293.798 282.799 289.298 280.299C289.298 280.299 289.198 280.299 289.198 280.199C289.498 280.299 289.798 280.499 289.998 280.599C289.998 280.599 290.098 280.599 290.098 280.699C290.598 280.999 291.098 281.199 291.598 281.499C292.198 281.799 292.698 282.099 293.298 282.299C294.198 282.799 295.198 283.199 296.098 283.699C296.998 284.099 297.898 284.599 298.698 284.999C299.198 285.299 299.698 285.499 300.098 285.699C300.298 285.799 300.498 285.899 300.798 285.999C301.098 286.199 301.398 286.299 301.598 286.499C302.198 286.799 302.698 287.099 303.198 287.399C303.298 287.499 303.398 287.499 303.498 287.599C303.998 287.899 304.298 288.099 304.598 288.299C306.798 290.299 308.498 296.399 306.398 296.999Z" fill="#414042"/>
<path d="M281.298 267.6L240.798 267C240.798 267 243.298 183 242.398 179.7C241.998 178.4 207.598 160.2 188.198 145.6C172.698 134 177.598 106 177.598 106L220.798 106.5C220.798 106.5 220.498 109.5 222.498 112.3C225.798 116.8 275.498 149.5 280.398 163C286.498 179.9 281.298 267.6 281.298 267.6Z" fill="#414042"/>
<path d="M177.499 120.799C177.599 125.799 177.599 130.999 179.899 135.499C184.399 144.599 193.999 149.699 202.099 155.299C206.399 157.999 210.699 160.599 214.999 163.199C210.499 160.899 205.999 158.499 201.699 155.899C193.299 150.499 183.499 145.299 179.099 135.799C177.099 131.199 177.199 125.899 177.499 120.799Z" fill="#37474F"/>
<path d="M213.898 109.699C214.398 113.199 214.798 116.799 216.098 120.199C217.698 123.399 220.598 125.699 223.198 128.099C233.898 137.499 245.598 145.799 256.798 154.799C259.598 156.999 262.398 159.299 264.998 161.699C267.298 163.899 269.898 165.999 271.198 168.899C272.198 172.899 272.098 176.999 272.298 180.999C272.698 205.999 271.398 231.099 270.098 256.099C270.798 234.699 271.498 213.199 271.598 191.799C271.498 184.699 271.698 177.499 270.698 170.499C270.098 167.099 266.698 164.799 264.398 162.399C256.398 155.299 247.798 148.899 239.398 142.199C233.798 137.699 228.198 133.299 222.898 128.399C220.398 125.899 217.598 123.499 215.998 120.199C214.698 116.799 214.398 113.199 213.898 109.699Z" fill="#37474F"/>
<path d="M278.198 258.5C272.698 258.3 274.298 258.2 268.698 258.1C265.998 258 248.198 257.6 245.598 258.1C245.498 258.1 245.498 258.2 245.598 258.3C248.098 258.9 265.998 258.9 268.698 258.9C274.198 258.9 272.698 258.8 278.198 258.7C278.298 258.7 278.298 258.5 278.198 258.5Z" fill="#37474F"/>
<path d="M225.3 112.302L176.6 108.802C176.6 108.802 189.9 70.3018 202.1 60.2018C207.7 55.6018 212.3 57.0018 215.9 60.9018C216.8 61.9018 227.3 79.3018 227.6 85.0018C227.9 90.0018 223.2 94.9018 223.2 94.9018L225.3 112.302Z" fill="#EBEBEB"/>
<path d="M214.4 71.002L216.6 67.502L219.3 70.702L218.7 73.702L215.7 73.702L214.4 71.002Z" fill="#414042"/>
<path d="M215.7 73.7012L214.4 100.101L222.6 110.601L223.4 97.7012L218.7 73.7012L215.7 73.7012Z" fill="#414042"/>
<path d="M215.8 60.7015C215.8 60.7015 221.8 75.2015 221.8 79.2015C221.7 83.4015 220.9 95.9015 220.9 95.9015C220.9 95.9015 212 80.9015 210.6 75.9015C208.5 68.1015 208.8 57.3015 208.8 57.3015C208.8 57.3015 205.3 56.1015 198.3 63.7015C192.2 70.5015 180.3 94.6015 175.1 109.602L220.2 118.202L222.9 111.802L224.6 116.702L227.1 113.202L223.3 95.0015C223.3 95.0015 228.8 90.8015 227.7 83.9015C226.6 76.4015 215.8 60.7015 215.8 60.7015Z" fill="#FFBC00"/>
<path d="M220.9 95.9027L225.7 80.7027L222.6 75.8027L225.9 75.6027C225.9 75.6027 216.6 61.9027 215.9 60.8027C216 61.4027 222 75.6027 221.9 79.3027C221.7 82.9027 221 95.2027 220.9 95.9027Z" fill="#FFBC00"/>
<path opacity="0.2" d="M220.9 95.9027L225.7 80.7027L222.6 75.8027L225.9 75.6027C225.9 75.6027 216.6 61.9027 215.9 60.8027C216 61.4027 222 75.6027 221.9 79.3027C221.7 82.9027 221 95.2027 220.9 95.9027Z" fill="black"/>
<path d="M209.1 75.2023L206.8 80.6023L220.8 96.0023C220.6 95.5023 211.9 80.9023 210.5 76.0023C208.4 68.2023 208.7 57.4023 208.7 57.4023L205.5 73.7023L209.1 75.2023Z" fill="#FFBC00"/>
<path opacity="0.2" d="M209.1 75.2023L206.8 80.6023L220.8 96.0023C220.6 95.5023 211.9 80.9023 210.5 76.0023C208.4 68.2023 208.7 57.4023 208.7 57.4023L205.5 73.7023L209.1 75.2023Z" fill="black"/>
<path d="M220.9 95.9023C222.1 101.202 222.8 106.502 222.9 111.902C221.7 106.602 221 101.302 220.9 95.9023Z" fill="#414042"/>
<path d="M217.7 101.403C217.8 102.503 219.3 102.303 219.3 101.303C219.3 100.303 217.7 100.303 217.7 101.403ZM217.7 101.403C217.6 99.9027 219.9 99.7027 220 101.303C220.1 102.903 217.8 102.903 217.7 101.403Z" fill="#414042"/>
<path d="M218.3 107.403C218.4 108.503 219.9 108.303 219.9 107.303C219.9 106.403 218.3 106.303 218.3 107.403ZM218.3 107.403C218.2 105.903 220.5 105.703 220.6 107.303C220.7 108.903 218.4 108.903 218.3 107.403Z" fill="#414042"/>
<path opacity="0.1" d="M204.7 102.301L192 98.3008L191.4 99.9008L204.1 103.901L204.7 102.301Z" fill="black"/>
<g opacity="0.1">
<path d="M221.999 94.502C220.299 94.902 218.699 95.402 217.099 96.102C216.299 96.502 215.499 96.902 214.799 97.302C214.399 97.502 213.999 97.702 213.599 97.902C213.199 98.102 212.799 98.302 212.299 98.402L212.299 98.502C212.699 98.502 213.099 98.502 213.499 98.402C213.899 98.302 214.299 98.102 214.699 98.002C215.499 97.602 216.299 97.202 217.099 96.902C218.699 96.102 220.299 95.402 221.999 94.802C222.099 94.702 222.099 94.502 221.999 94.502Z" fill="black"/>
<path d="M223.299 95.8012C222.599 95.7012 221.899 95.7012 221.199 95.7012C220.899 95.7012 220.499 95.9012 220.199 96.0012C219.999 96.1012 219.899 96.1012 219.699 96.2012C219.499 96.3012 219.399 96.4012 219.199 96.5012L219.199 96.6012C219.399 96.5012 219.499 96.6012 219.699 96.5012C219.899 96.5012 219.999 96.4012 220.199 96.4012C220.499 96.3012 220.899 96.3012 221.199 96.2012C221.899 96.1012 222.599 95.9012 223.299 95.9012C223.299 96.0012 223.299 95.8012 223.299 95.8012Z" fill="black"/>
</g>
<path d="M208.799 59.1C208.899 60.1 212.199 66.9 216.499 67.5C217.899 67.7 219.199 60.1 219.199 60.1L219.399 59.6L222.599 52.1L214.399 44.5L213.199 43.5C213.199 43.5 212.499 45.6 211.599 48.3C211.599 48.4 211.499 48.5 211.499 48.7C211.399 48.8 211.399 49 211.299 49.1C211.199 49.5 210.999 49.9 210.899 50.3C210.799 50.6 210.699 50.9 210.599 51.2C210.499 51.5 210.399 51.8 210.299 52.2C209.399 55.3 208.699 58.7 208.799 59.1Z" fill="#D3766A"/>
<path d="M211.598 48.2C212.698 54.8 217.298 58.3 219.398 59.6L222.598 52.1L214.398 44.5L213.198 43.5C213.198 43.5 212.498 45.6 211.598 48.2Z" fill="#414042"/>
<path d="M234.5 39.7006C237.2 53.8006 229 57.0006 226 57.5006C223.2 58.0006 213.8 59.4006 209.7 45.7006C205.6 32.0006 211.3 26.3006 217.5 24.8006C223.8 23.3006 231.9 25.6006 234.5 39.7006Z" fill="#D3766A"/>
<path d="M232.199 37.1008C231.899 37.1008 231.499 37.1008 231.199 37.1008C230.799 37.1008 230.499 37.1008 230.199 36.9008C229.999 36.8008 229.999 36.5008 230.099 36.3008C230.299 35.9008 230.799 35.8008 231.299 35.8008C231.799 35.8008 232.199 35.9008 232.599 36.2008C232.899 36.5008 232.599 37.1008 232.199 37.1008Z" fill="#414042"/>
<path d="M222.999 40.4013C223.299 40.4013 223.599 40.3013 223.999 40.2013C224.399 40.1013 224.699 40.1013 224.999 39.8013C225.099 39.6013 225.099 39.3013 224.999 39.2013C224.699 38.8013 224.199 38.8013 223.799 38.9013C223.299 39.0013 222.999 39.2013 222.599 39.6013C222.199 39.9013 222.599 40.4013 222.999 40.4013Z" fill="#414042"/>
<path d="M225.5 41.7007C225.5 41.6007 225.5 41.7007 225.5 41.7007C225.6 42.8007 225.7 43.9007 224.9 44.3007L224.9 44.4007C225.9 44.0007 225.9 42.5007 225.5 41.7007Z" fill="#414042"/>
<path d="M224.5 40.8012C222.9 40.9012 223.3 44.1012 224.8 43.9012C226.2 43.8012 225.8 40.7012 224.5 40.8012Z" fill="#414042"/>
<path d="M223.899 41.0007C223.599 41.2007 223.399 41.6007 223.099 41.6007C222.699 41.7007 222.399 41.4007 222.099 41.1007C222.099 41.1007 221.999 41.1007 222.099 41.1007C222.199 41.7007 222.499 42.3007 223.099 42.3007C223.699 42.3007 224.099 41.7007 224.099 41.1007C224.099 41.1007 223.999 40.9007 223.899 41.0007Z" fill="#414042"/>
<path d="M230.898 40.8023C230.898 40.7023 230.998 40.8023 230.898 40.8023C231.098 41.8023 231.398 42.9023 232.298 43.1023L232.298 43.2023C231.298 43.1023 230.898 41.7023 230.898 40.8023Z" fill="#414042"/>
<path d="M231.599 39.6019C233.099 39.2019 233.799 42.3019 232.299 42.7019C230.999 43.0019 230.299 39.9019 231.599 39.6019Z" fill="#414042"/>
<path d="M232.299 39.7012C232.599 39.8012 232.899 40.1012 233.199 40.0012C233.499 40.0012 233.699 39.6012 233.899 39.2012C233.899 39.2012 233.899 39.2012 233.999 39.2012C234.099 39.8012 234.099 40.4012 233.499 40.7012C232.999 40.9012 232.499 40.5012 232.299 39.9012C232.099 39.8012 232.199 39.6012 232.299 39.7012Z" fill="#414042"/>
<path d="M226.298 49.4012C226.498 49.6012 226.798 49.9012 227.098 50.0012C227.398 50.0012 227.798 49.9012 228.198 49.8012C228.198 49.8012 228.298 49.8012 228.198 49.9012C227.898 50.3012 227.398 50.5012 226.998 50.4012C226.498 50.2012 226.298 49.8012 226.298 49.4012C226.198 49.3012 226.298 49.3012 226.298 49.4012Z" fill="#414042"/>
<path d="M230.199 45.6016C230.199 45.6016 230.499 47.0016 230.499 47.7016C230.499 47.8016 230.299 47.8016 230.099 47.8016C228.899 48.1016 227.699 47.7016 226.899 46.8016C226.799 46.7016 226.899 46.7016 226.999 46.7016C227.899 47.3016 228.999 47.4016 229.999 47.4016C229.999 47.2016 229.399 44.9016 229.499 44.9016C229.899 44.8016 230.599 45.1016 231.099 45.2016C230.599 42.2016 229.599 39.2016 229.199 36.2016C229.199 36.1016 229.299 36.1016 229.399 36.1016C230.599 39.1016 231.299 42.6016 231.899 45.7016C231.899 46.2016 230.499 45.7016 230.199 45.6016Z" fill="#414042"/>
<path d="M210.2 46.6007C212.6 46.5007 212.4 41.4007 212.4 41.4007C212.4 41.4007 217.2 40.7007 217.8 33.6007C217.8 33.6007 218.1 36.8007 216.5 39.6007C216.5 39.6007 224.9 37.5007 227.4 29.9007C227.4 29.9007 226.5 33.7007 225.3 35.2007C225.3 35.2007 228.7 33.7007 230 30.6007C230 30.6007 232.2 34.6007 233.5 35.6007C233.5 35.6007 233.8 18.4007 217.4 24.2007C217.4 24.2007 208.7 24.7007 206.6 31.9007C204.6 39.1007 210.2 46.6007 210.2 46.6007Z" fill="#414042"/>
<path d="M213.4 44.6005C213.4 44.6005 210 40.3005 208.1 41.5005C206.1 42.7005 208.8 49.1005 211.2 49.8005C213.6 50.6005 214.4 48.3005 214.4 48.3005L213.4 44.6005Z" fill="#D3766A"/>
<path d="M208.899 43.3008C208.799 43.3008 208.799 43.4008 208.899 43.3008C210.599 44.0008 211.599 45.5008 212.299 47.0008C211.799 46.4008 211.099 46.1008 210.299 46.7008C210.299 46.7008 210.299 46.8008 210.399 46.8008C211.099 46.6008 211.599 46.7008 212.099 47.2008C212.399 47.6008 212.699 48.0008 212.999 48.5008C213.099 48.6008 213.399 48.6008 213.299 48.4008C212.999 46.3008 211.199 43.4008 208.899 43.3008Z" fill="#414042"/>
<path d="M213.5 50.2996C213.5 50.9996 213 51.4996 212.3 51.4996C211.6 51.4996 211.1 50.9996 211.1 50.2996C211.1 49.5996 211.6 49.0996 212.3 49.0996C213 49.0996 213.5 49.5996 213.5 50.2996Z" fill="#FFBC00"/>
<path d="M219.4 59.7008L216.4 66.0008L208.9 57.3008L206.4 59.8008C206.4 59.8008 213.4 73.3008 213.5 72.7008L216.5 67.3008L220.1 71.4008L220.4 61.6008L219.4 59.7008Z" fill="#EBEBEB"/>
<path d="M220.601 66.6015C220.601 65.0015 220.601 63.4015 220.601 61.8015C220.601 61.7015 220.501 61.7015 220.501 61.8015C220.101 63.3015 220.101 69.5015 220.001 71.0015C219.901 70.8015 216.701 67.4015 216.601 67.4015C216.001 68.2015 213.701 72.2015 213.601 72.5015C212.501 70.4015 208.201 62.5015 206.901 60.5015C206.901 60.4015 206.801 60.5015 206.801 60.5015C207.801 62.8015 213.401 73.3015 213.501 73.3015C213.601 73.4015 216.301 68.5015 216.701 67.6015C217.201 68.3015 220.401 72.2015 220.501 72.0015C220.601 70.3015 220.601 68.2015 220.601 66.6015Z" fill="#414042"/>
<path d="M257.8 112.702L243.7 138.802C243.3 139.502 242.4 139.802 241.7 139.402L229 132.502C228.3 132.102 228 131.202 228.4 130.502L242.5 104.402C242.9 103.702 243.8 103.402 244.5 103.802L257.2 110.702C257.9 111.102 258.2 112.002 257.8 112.702Z" fill="#37474F"/>
<path d="M244.801 106.802C244.601 107.202 244.101 107.302 243.701 107.102C243.301 106.902 243.201 106.402 243.401 106.002C243.601 105.602 244.101 105.502 244.501 105.702C244.901 105.902 245.001 106.402 244.801 106.802Z" fill="#414042"/>
<path d="M243.699 108.802C243.499 109.202 242.999 109.302 242.599 109.102C242.199 108.902 242.099 108.402 242.299 108.002C242.499 107.602 242.999 107.502 243.399 107.702C243.699 107.902 243.899 108.402 243.699 108.802Z" fill="#414042"/>
<path d="M247.299 117.402C246.799 118.202 245.799 118.502 244.999 118.102C244.199 117.602 243.899 116.602 244.299 115.802C244.799 115.002 245.799 114.702 246.599 115.102C247.499 115.502 247.799 116.502 247.299 117.402Z" fill="#414042"/>
<path d="M177.8 184.702L223.6 190.002C236 191.402 235.1 181.302 233.4 170.602C231.6 159.902 229.1 143.602 218 142.302C206.9 141.002 206.1 140.902 206.1 140.902C206.1 140.902 205.3 140.802 194.2 139.502C183.1 138.202 176.9 153.502 172.7 163.502C168.5 173.602 165.4 183.302 177.8 184.702Z" fill="#139893"/>
<path d="M214.301 147.502C214.101 149.602 215.601 151.502 217.701 151.702C219.801 151.902 221.701 150.402 221.901 148.302C222.101 146.202 220.601 144.302 218.501 144.102C216.401 143.902 214.501 145.402 214.301 147.502Z" fill="#FFBC00"/>
<path d="M189 144.502C188.8 146.602 190.3 148.502 192.4 148.702C194.5 148.902 196.4 147.402 196.6 145.302C196.8 143.202 195.3 141.302 193.2 141.102C191.1 140.902 189.2 142.402 189 144.502Z" fill="#FFBC00"/>
<path d="M215.5 147.602C215.3 149.002 216.4 150.302 217.8 150.502C219.2 150.702 220.5 149.602 220.7 148.202C220.9 146.802 219.8 145.502 218.4 145.302C217 145.202 215.7 146.202 215.5 147.602Z" fill="#1EA29C"/>
<path d="M190.199 144.702C189.999 146.102 191.099 147.402 192.499 147.602C193.899 147.802 195.199 146.702 195.399 145.302C195.599 143.902 194.499 142.602 193.099 142.402C191.699 142.202 190.399 143.202 190.199 144.702Z" fill="#1EA29C"/>
<path d="M218.599 149.401C218.499 149.401 218.399 149.401 218.299 149.401C217.499 149.301 216.899 148.401 216.999 147.601C218.799 137.401 221.999 109.601 216.099 103.501C215.299 102.701 214.399 102.301 213.199 102.501C212.299 102.601 211.599 102.001 211.499 101.201C211.399 100.301 211.999 99.6014 212.799 99.5014C214.899 99.2014 216.899 99.9014 218.299 101.501C221.799 105.201 223.199 114.301 222.299 128.401C221.699 138.701 219.999 148.201 219.999 148.301C219.899 148.901 219.299 149.401 218.599 149.401Z" fill="#139893"/>
<path d="M198.499 67.1012C188.499 87.9012 182.899 106.701 186.599 112.701C191.599 120.801 210.199 132.701 219.499 135.601C222.799 136.601 235.499 114.801 232.199 113.201C228.199 111.201 207.499 101.501 207.099 101.201C206.399 100.501 206.799 77.5012 207.099 71.2012C207.799 60.6012 202.899 57.9012 198.499 67.1012Z" fill="#D3766A"/>
<path d="M253.1 130.202C252.5 132.902 249.6 133.002 249.6 133.002C249.6 133.002 250.3 135.002 249.5 137.002C248.5 139.202 244.7 138.602 244.7 138.602C244.7 138.602 245 140.802 243.9 142.802C242.7 144.802 238.8 144.802 238.8 144.802C238.8 144.802 238 147.002 235.8 148.002C232.1 149.702 227 146.202 223.7 144.102C220.4 142.002 213.1 132.802 211.5 131.202L225.1 110.002C225.1 110.002 242.6 115.402 246.1 118.502C249 121.002 253.8 127.202 253.1 130.202Z" fill="#D3766A"/>
<path d="M249.7 132.601C247.2 129.101 243.8 126.501 240.6 123.801C240.5 123.701 240.4 123.901 240.5 123.901C243.7 126.601 246.4 129.901 249.5 132.801C249.7 132.801 249.8 132.701 249.7 132.601Z" fill="#414042"/>
<path d="M244.801 138.302C244.201 137.502 243.401 136.902 242.601 136.402C241.801 135.802 240.901 135.102 240.101 134.502C238.401 133.302 236.701 132.102 235.001 131.002C234.901 131.002 234.801 131.102 234.901 131.102C236.601 132.302 238.201 133.602 239.901 134.802C240.701 135.402 241.501 136.102 242.301 136.702C243.001 137.302 243.801 138.002 244.701 138.402C244.701 138.602 244.901 138.402 244.801 138.302Z" fill="#414042"/>
<path d="M238.7 144.702C238.2 144.002 237.3 143.502 236.6 143.102C235.8 142.602 235 142.002 234.3 141.502C232.8 140.402 231.2 139.302 229.7 138.202C229.6 138.102 229.5 138.302 229.6 138.302C231.1 139.502 232.6 140.702 234.2 141.802C235 142.402 235.7 142.902 236.5 143.502C237.1 143.902 237.9 144.502 238.7 144.702C238.7 144.802 238.7 144.702 238.7 144.702Z" fill="#414042"/>
<path d="M217.899 105.801L202.599 129.201C202.599 129.201 187.199 117.201 185.699 111.001C184.199 104.801 188.899 84.7014 196.199 70.4014C203.499 56.1014 208.499 58.8014 207.799 75.1014C207.099 91.4014 207.599 100.301 207.999 100.601C208.399 100.801 217.899 105.801 217.899 105.801Z" fill="#FFBC00"/>
<path d="M211.8 104.102C211.8 104.002 211.7 103.902 211.7 104.002C207 110.302 202.6 117.002 198.6 123.802C198.6 123.902 198.7 124.002 198.7 123.902C203.3 117.502 207.8 110.902 211.8 104.102Z" fill="#414042"/>
<path d="M217.899 105.802C215.299 104.502 210.399 102.002 207.799 100.702C207.199 91.5019 206.999 82.202 208.099 73.002C207.499 82.202 207.799 91.402 208.299 100.502L208.199 100.302C210.599 101.702 215.499 104.402 217.899 105.802Z" fill="#414042"/>
<path d="M195.499 70.8008C193.199 77.2008 190.899 83.9008 188.999 90.3008C187.999 93.6008 187.099 96.9008 186.299 100.201C185.699 103.501 184.599 107.001 185.599 110.301C182.999 102.501 192.099 79.0008 195.499 70.8008Z" fill="#414042"/>
<path d="M194.399 71.502C193.999 72.902 193.799 74.202 193.499 75.602C193.399 74.202 193.699 72.702 194.399 71.502Z" fill="#414042"/>
<path d="M192.9 146.402C192.8 146.402 192.7 146.402 192.6 146.402C191.8 146.302 191.2 145.502 191.3 144.602C191.3 144.502 192.9 133.802 196.2 123.102C200.8 108.202 206.4 100.202 212.8 99.4015C213.7 99.3015 214.4 99.9015 214.5 100.702C214.6 101.602 214 102.302 213.2 102.402C202.7 103.702 196 133.602 194.3 145.002C194.2 145.802 193.6 146.302 192.9 146.402Z" fill="#169691"/>
<path d="M217.3 419.099C217.3 420.699 217.2 422.699 217.2 425.199C217.2 425.399 217.2 425.699 217.2 425.899C217.1 432.599 216.9 442.099 216.6 453.799C216.6 454.199 216.6 454.499 216.6 454.899C216.6 456.099 216.5 457.399 216.5 458.699L108.6 458.699C107.6 446.299 106.7 435.699 106 427.499C105.6 422.699 105.3 418.699 105 415.599C104.7 412.699 104.5 410.599 104.4 409.399C102.5 394.599 217.7 397.499 217.3 419.099Z" fill="#F7A9A0"/>
<path d="M105.1 415.7C101.5 398.3 100.5 367.2 112.3 352.7C119 344.5 145.8 331.9 164.7 317.2C198.6 290.7 208.6 293.3 210.7 301.1C213.9 313.1 188.6 342.1 188.6 342.1C188.6 342.1 264.8 316.8 285.8 302.4C301.4 291.7 315.9 297.3 303.9 315C303.9 315 293.7 308 297 305.5C316.2 291.3 331.7 300.3 326.7 309.5C315.6 329.6 284.8 349.3 273.3 356.5C247.2 373 229.1 388.1 227.5 390.6C220.4 401.8 215.1 438.4 215.1 438.4L105.1 415.7Z" fill="#F7A9A0"/>
<path d="M306.6 300C309.6 307.6 303.4 316.4 298.7 322C288 334.2 273.7 342.4 260 350.7C253.1 354.8 246.2 358.8 239.1 362.6C251.9 353 265.5 344.4 278.7 335.5C288.3 328.7 309.5 313.2 306.6 300Z" fill="#414042"/>
<path d="M188.6 342.1C186.8 346 184.3 349.3 182.1 352.8C181.2 354.7 179.9 356.3 178.6 357.8C174.4 362.5 169.7 366.5 164.4 369.9C168.2 365 172.5 360.6 176.4 355.8C177.5 354.4 178.6 353.1 179.3 351.7C179.5 351.4 179.7 351 179.9 350.8C182.3 347.5 185.2 344.6 188.6 342.1Z" fill="#414042"/>
<path d="M145.003 168.55C156.282 163.971 161.713 151.116 157.134 139.837C152.555 128.559 139.7 123.128 128.421 127.707C117.143 132.286 111.712 145.141 116.291 156.419C120.87 167.698 133.725 173.129 145.003 168.55Z" fill="#E0E0E0"/>
<path d="M145.011 166.134C156.29 161.555 161.721 148.7 157.142 137.421C152.563 126.143 139.708 120.712 128.429 125.291C117.151 129.87 111.72 142.725 116.299 154.003C120.878 165.282 133.733 170.713 145.011 166.134Z" fill="#EBEBEB"/>
<path d="M141.361 159.743C149.116 157.164 153.312 148.788 150.733 141.034C148.155 133.28 139.779 129.084 132.025 131.662C124.27 134.24 120.074 142.616 122.653 150.37C125.231 158.125 133.607 162.321 141.361 159.743Z" fill="white"/>
<path d="M143.938 145.719C143.938 149.691 140.667 152.962 136.696 152.962C132.724 152.962 129.453 149.691 129.453 145.719C129.453 141.747 132.724 138.477 136.696 138.477C140.667 138.477 143.938 141.747 143.938 145.719Z" fill="#EBEBEB"/>
<path d="M151.568 129.91L150.945 125.159L155.774 120.02L156.085 125.159L151.568 129.91Z" fill="#EBEBEB"/>
<path d="M161.848 126.094L156.942 125.705L152.113 130.456L156.942 130.923L161.848 126.094Z" fill="#EBEBEB"/>
<path d="M155.931 124.849C153.75 127.029 151.57 129.288 149.311 131.468C145.807 134.973 142.381 138.477 138.876 141.981C138.097 142.76 137.241 143.617 136.462 144.396C135.683 145.174 136.851 146.342 137.63 145.564C139.811 143.383 141.991 141.125 144.25 138.944C147.754 135.44 151.181 131.935 154.685 128.431C155.464 127.652 156.32 126.796 157.099 126.017C157.878 125.238 156.71 124.07 155.931 124.849Z" fill="#E0E0E0"/>
</g>
<defs>
<clipPath id="clip0_1227_73653">
<rect width="420.1" height="459" fill="white"/>
</clipPath>
</defs>
</svg>
