<svg width="285" height="254" viewBox="0 0 285 254" fill="none" xmlns="http://www.w3.org/2000/svg">
<g clip-path="url(#clip0_1079_60906)">
<path d="M41.7341 70.6183C30.8291 85.8265 22.5766 102.744 17.9787 120.546C14.383 134.339 -2.23987 213.799 111.35 232.131C234.194 251.996 259.836 198.237 267.322 150.962C280.467 67.9068 241.268 19.8655 185.21 7.19201C160.275 1.53316 133.749 3.59628 110.701 13.9119C83.704 26.0549 59.3002 46.0966 41.7341 70.6183Z" fill="#F6F8F9" fill-opacity="0.2"/>
<path d="M202.068 57.2402C202.068 57.2402 211.028 58.0655 219.988 61.6023C228.948 65.1391 234.312 73.0968 244.981 75.4547C244.981 75.4547 258.362 91.9597 244.981 117.071L226.236 114.241C223.466 113.829 220.695 113.888 217.984 114.536C214.27 115.42 207.668 116.246 198.413 114.772L202.068 57.2402Z" fill="#FFA8A7"/>
<path d="M135.754 124.969L149.96 133.221V190.517L135.695 182.088L135.754 124.969Z" fill="#158681"/>
<path opacity="0.2" d="M135.754 124.969L149.96 133.221V190.517L135.695 182.088L135.754 124.969Z" fill="#414042"/>
<path d="M139.231 134.222L144.537 116.538C148.368 111.174 150.844 104.513 150.844 98.6771C150.844 89.0099 144.065 85.1194 135.695 89.953C127.324 94.7866 120.545 106.517 120.545 116.184C120.545 120.9 122.196 124.26 124.848 125.91C124.907 125.969 125.025 126.028 125.084 126.028L139.231 134.222Z" fill="#158681"/>
<path d="M135.754 32.7773L149.96 41.0888V98.3257L135.695 89.9554L135.754 32.7773Z" fill="#158681"/>
<path opacity="0.2" d="M135.754 32.7773L149.96 41.0888V98.3257L135.695 89.9554L135.754 32.7773Z" fill="#414042"/>
<path d="M196.468 36.9636L196.233 36.8457C196.292 36.9046 196.35 36.9636 196.468 36.9636Z" fill="#FFA8A7"/>
<path d="M195.407 36.3726L182.439 28.8275C170.65 21.5181 154.145 22.2844 135.813 32.8358C135.813 32.8358 135.754 32.8358 135.754 32.8948L150.019 41.1473C167.703 30.8906 183.677 29.8295 195.407 36.3726Z" fill="#158681"/>
<path d="M195.407 36.373L196.233 36.8446C195.938 36.6678 195.643 36.5499 195.407 36.373Z" fill="#FFA8A7"/>
<path d="M196.409 36.9629C196.351 36.904 196.292 36.904 196.174 36.845L195.348 36.3734C183.677 29.8304 167.644 30.8914 149.96 41.0891V52.3479V58.4783V66.6719V72.8023V80.9958V87.1263V98.3261C141.589 103.16 134.869 114.89 134.869 124.498C134.869 134.107 141.648 138.056 149.96 133.222V144.422V150.553V158.746V164.877V172.186V173.07V179.201V190.459C185.681 169.828 214.683 119.665 214.683 78.4022C214.683 58.2425 207.727 43.9186 196.409 36.9629Z" fill="#158681"/>
<path opacity="0.3" d="M196.409 36.9629C196.351 36.904 196.292 36.904 196.174 36.845L195.348 36.3734C183.677 29.8304 167.644 30.8914 149.96 41.0891V52.3479V58.4783V66.6719V72.8023V80.9958V87.1263V98.3261C141.589 103.16 134.869 114.89 134.869 124.498C134.869 134.107 141.648 138.056 149.96 133.222V144.422V150.553V158.746V164.877V172.186V173.07V179.201V190.459C185.681 169.828 214.683 119.665 214.683 78.4022C214.683 58.2425 207.727 43.9186 196.409 36.9629Z" fill="white"/>
<path d="M200.123 62.3117C197.294 56.7118 193.344 52.3498 188.334 49.4614C177.9 43.4489 164.343 44.5099 150.019 52.3498V58.4802C150.431 58.1855 150.903 57.9497 151.374 57.7139C159.214 53.175 166.7 50.935 173.42 50.935C177.959 50.935 182.085 51.9961 185.74 54.0592C194.228 58.9518 199.18 69.2674 199.71 83.1198C199.769 83.945 199.769 84.7703 199.769 85.6545C199.769 117.603 177.605 156.449 150.136 173.131V179.202C150.549 178.967 151.021 178.731 151.492 178.436C181.083 161.342 205.133 119.725 205.133 85.5366C204.957 76.5178 203.247 68.619 200.123 62.3117Z" fill="white"/>
<path d="M192.519 92.7253C192.519 79.4034 187.921 69.4414 179.492 64.6078C171.416 59.9511 160.983 60.7174 149.96 66.671V72.8014C150.372 72.5066 150.844 72.2709 151.315 71.9761C157.21 68.5572 162.81 66.8478 167.82 66.8478C171.18 66.8478 174.246 67.6141 176.898 69.1467C183.559 72.9782 187.273 81.3486 187.273 92.6663C187.273 116.716 170.709 145.954 150.019 158.686V164.817C150.431 164.581 150.903 164.345 151.374 164.05C174.069 151.023 192.519 119.015 192.519 92.7253Z" fill="white"/>
<path d="M180.14 99.9179C180.14 90.4275 176.78 83.295 170.768 79.8172C165.05 76.5162 157.682 76.9288 150.019 80.9961V87.1266C150.431 86.8318 150.903 86.596 151.374 86.3013C155.324 84.0613 159.037 82.8824 162.338 82.8824C164.519 82.8824 166.465 83.354 168.174 84.3561C172.536 86.8908 174.894 92.3728 174.894 99.859C174.894 116.01 163.871 135.639 150.019 144.422V150.553C150.431 150.317 150.903 150.081 151.374 149.845C167.231 140.65 180.14 118.25 180.14 99.9179Z" fill="white"/>
<path d="M160.701 122.04C166.61 111.806 166.6 100.739 160.68 97.3202C154.759 93.9019 145.17 99.4272 139.261 109.661C133.352 119.895 133.362 130.962 139.282 134.381C145.203 137.799 154.792 132.274 160.701 122.04Z" fill="white"/>
<path d="M155.393 118.797C158.388 113.609 158.393 108.005 155.405 106.28C152.416 104.555 147.566 107.361 144.571 112.549C141.576 117.736 141.57 123.34 144.559 125.066C147.547 126.791 152.398 123.984 155.393 118.797Z" fill="#158681"/>
<path opacity="0.3" d="M155.393 118.797C158.388 113.609 158.393 108.005 155.405 106.28C152.416 104.555 147.566 107.361 144.571 112.549C141.576 117.736 141.57 123.34 144.559 125.066C147.547 126.791 152.398 123.984 155.393 118.797Z" fill="white"/>
<path d="M217.571 72.0359L210.615 70.0907C208.965 69.6191 207.197 69.5012 205.487 69.737C200.536 70.4444 190.102 71.8591 187.744 72.1538C184.561 72.5665 182.97 76.7517 185.151 80.2295C187.332 83.7073 192.519 88.3641 208.493 87.1852C208.493 87.1852 216.333 107.522 235.786 96.2629C241.503 92.903 237.495 78.52 217.571 72.0359Z" fill="#FFA8A7"/>
<path d="M222.228 73.8024C220.813 73.154 219.222 72.5646 217.571 72.034L213.622 70.9141" stroke="#F28F8F" stroke-width="1.76839" stroke-miterlimit="10" stroke-linecap="round" stroke-linejoin="round"/>
<path d="M211.971 92.959C215.39 97.2031 221.52 101.742 230.893 98.5" stroke="#F28F8F" stroke-width="1.76839" stroke-miterlimit="10" stroke-linecap="round" stroke-linejoin="round"/>
<path d="M245.63 77.5731C247.339 83.5267 251.288 101.093 242.505 114.12C241.562 115.594 239.794 116.301 238.084 116.065L235.373 115.652C235.373 116.89 236.198 117.951 237.436 118.187L265.2 124.259V72.209L239.853 73.8595L241.503 74.5668C241.975 74.7437 242.447 74.9205 242.918 75.0384C244.215 75.2742 245.276 76.2763 245.63 77.5731Z" fill="#158681"/>
<path d="M256.24 76.0985C258.539 83.0541 262.429 100.149 253.352 118.127C252.408 120.014 250.286 120.957 248.282 120.544L246.396 120.131C246.219 121.664 247.339 123.079 248.872 123.256L279.701 126.439C279.701 126.439 284.122 119.483 284.122 96.9065C284.122 74.3301 277.755 70.0859 277.755 70.0859L252.467 70.9701C251.288 71.0291 250.404 71.9722 250.404 73.1511L251.76 73.0922C253.705 72.9154 255.592 74.1532 256.24 76.0985Z" fill="#414042"/>
<path d="M267.499 117.776C267.499 119.839 265.848 121.49 263.785 121.49C261.722 121.49 260.071 119.839 260.071 117.776C260.071 115.713 261.722 114.062 263.785 114.062C265.848 114.062 267.499 115.713 267.499 117.776Z" fill="white"/>
<path d="M219.575 72.0923C219.929 70.7366 219.693 69.3219 219.045 68.084" stroke="#F28F8F" stroke-width="1.76839" stroke-miterlimit="10" stroke-linecap="round" stroke-linejoin="round"/>
<path d="M228.123 106.34C227.828 109.228 226 111.94 223.407 113.354" stroke="#F28F8F" stroke-width="1.76839" stroke-miterlimit="10" stroke-linecap="round" stroke-linejoin="round"/>
<path d="M197.706 72.1504C198.119 72.8577 198.414 73.683 198.59 74.5082C198.649 74.8619 198.708 75.2745 198.59 75.5693C198.355 76.1587 197.706 76.3356 197.117 76.5124C195.348 76.984 193.58 77.4556 191.753 77.3377C189.925 77.2198 188.098 76.3356 187.273 74.744" stroke="#F28F8F" stroke-width="1.17893" stroke-miterlimit="10" stroke-linecap="round" stroke-linejoin="round"/>
<path d="M64.6052 134.811C64.6052 134.811 50.3991 140.587 47.6286 145.067C44.8581 149.547 41.0856 165.227 39.2582 176.014C37.4309 186.801 30.1805 195.407 30.1805 195.407L41.3213 206.195L67.9651 153.497L64.6052 134.811Z" fill="#FFA8A7"/>
<path d="M76.5713 157.503C76.5713 116.24 105.514 66.0771 141.294 45.4459L127.029 37.1934C91.3079 57.8246 62.4242 107.988 62.4242 149.192C62.4242 170.707 70.2641 185.502 82.8786 191.869L95.4342 199.237C83.7628 192.517 76.5713 178.016 76.5713 157.503Z" fill="#158681"/>
<path opacity="0.3" d="M76.5713 157.503C76.5713 116.24 105.514 66.0771 141.294 45.4459L127.029 37.1934C91.3079 57.8246 62.4242 107.988 62.4242 149.192C62.4242 170.707 70.2641 185.502 82.8786 191.869L95.4342 199.237C83.7628 192.517 76.5713 178.016 76.5713 157.503Z" fill="white"/>
<path d="M76.5714 157.504C76.5714 178.077 83.7628 192.519 95.3753 199.297C107.106 206.135 123.316 205.192 141.236 194.817V183.559V177.428V176.544V169.235V163.104V154.911V148.78V137.58C132.865 142.414 126.145 138.465 126.145 128.856C126.145 119.248 132.924 107.518 141.236 102.684V91.4844V85.354V77.1604V71.03V62.8365V56.706V45.4473C105.514 66.0785 76.5714 116.242 76.5714 157.504Z" fill="#158681"/>
<path d="M141.294 62.8355V56.7051C140.882 56.9409 140.41 57.1767 139.998 57.4714C110.407 74.5658 86.3564 116.182 86.3564 150.371C86.3564 167.465 92.251 180.316 102.979 186.505C107.459 189.099 112.47 190.337 117.952 190.337C118.541 190.337 119.19 190.337 119.838 190.278C126.558 189.924 133.867 187.684 141.353 183.558V177.427C140.941 177.722 140.469 177.958 140.057 178.194C139.231 178.665 138.406 179.137 137.581 179.549C125.438 185.916 114.179 186.741 105.75 181.848C96.7309 176.661 91.7795 165.402 91.7795 150.312C91.6026 118.363 113.766 79.5173 141.294 62.8355Z" fill="white"/>
<path d="M139.939 163.929C130.154 169.588 121.076 170.59 114.356 166.699C107.695 162.868 103.981 154.497 103.981 143.18C103.981 119.13 120.545 89.8921 141.235 77.1597V71.0293C140.823 71.2651 140.351 71.5009 139.939 71.7956C117.185 84.9406 98.7351 116.949 98.7351 143.18C98.7351 156.502 103.333 166.464 111.762 171.297C115.24 173.301 119.248 174.303 123.493 174.303C129.034 174.303 135.105 172.594 141.294 169.234V163.104C140.823 163.398 140.41 163.634 139.939 163.929Z" fill="white"/>
<path d="M139.939 149.603C133.455 153.376 127.501 154.024 123.139 151.548C118.777 149.014 116.419 143.532 116.419 136.045C116.419 119.894 127.442 100.265 141.294 91.482V85.3516C140.882 85.5873 140.41 85.8231 139.998 86.0589C124.082 95.2546 111.173 117.654 111.173 135.987C111.173 145.477 114.533 152.609 120.545 156.087C123.08 157.561 125.968 158.268 129.034 158.268C132.865 158.268 137.05 157.089 141.353 154.849V148.719C140.823 149.073 140.41 149.308 139.939 149.603Z" fill="white"/>
<path opacity="0.5" d="M76.5714 157.504C76.5714 178.077 83.7628 192.519 95.3753 199.297C107.106 206.135 123.316 205.192 141.236 194.817V183.559V177.428V176.544V169.235V163.104V154.911V148.78V137.58C132.865 142.414 126.145 138.465 126.145 128.856C126.145 119.248 132.924 107.518 141.236 102.684V91.4844V85.354V77.1604V71.03V62.8365V56.706V45.4473C105.514 66.0785 76.5714 116.242 76.5714 157.504Z" fill="white"/>
<path d="M88.7732 181.259C95.1984 179.668 100.445 171.651 100.445 171.651C100.445 171.651 106.103 148.839 114.71 149.134C116.478 149.193 117.775 150.784 117.657 152.494C117.303 156.266 113.354 171.18 111.232 178.371C108.697 187.095 93.371 200.476 93.371 200.476C93.371 200.476 82.2891 182.792 88.7732 181.259Z" fill="#FFA8A7"/>
<path d="M85.1186 170.589C91.4849 168.761 96.3774 160.509 96.3774 160.509C96.3774 160.509 101.093 137.461 109.758 137.461C111.527 137.461 112.941 138.935 112.823 140.703C112.588 144.476 109.228 159.507 107.459 166.816C105.278 175.658 90.4828 189.629 90.4828 189.629C90.4828 189.629 78.6935 172.416 85.1186 170.589Z" fill="#FFA8A7"/>
<path d="M110.819 151.609C109.699 156.973 108.343 162.927 107.341 166.759C106.103 171.769 102.272 179.137 97.9099 183.971" stroke="#F28F8F" stroke-width="1.92189" stroke-miterlimit="10" stroke-linecap="round" stroke-linejoin="round"/>
<path d="M80.1671 161.395C86.5333 159.568 91.4259 151.316 91.4259 151.316C91.4259 151.316 96.1416 128.268 104.807 128.268C106.575 128.268 107.99 129.741 107.872 131.51C107.636 135.282 104.276 150.314 102.508 157.623C100.327 166.465 85.5312 180.435 85.5312 180.435C85.5312 180.435 73.8009 163.223 80.1671 161.395Z" fill="#FFA8A7"/>
<path d="M59.8895 156.68C59.8895 156.68 64.5463 162.221 70.9125 160.394C77.2787 158.566 82.1712 150.314 82.1712 150.314C82.1712 150.314 86.887 127.266 95.5521 127.266C97.3205 127.266 98.7352 128.739 98.6173 130.508C98.3815 134.28 95.0216 149.312 93.2532 156.621C91.0721 165.463 76.2766 179.433 76.2766 179.433L55.8222 167.113L59.8895 156.68Z" fill="#FFA8A7"/>
<path d="M93.3122 200.475C93.3122 200.475 80.6977 214.151 54.997 223.288L41.3215 206.193L55.7633 165.107L78.9882 168.055C78.9882 168.114 100.15 179.372 93.3122 200.475Z" fill="#FFA8A7"/>
<path d="M98.5583 130.506C98.3225 134.278 94.9626 149.31 93.1942 156.619C91.9563 161.512 86.8869 167.996 82.5839 172.829" stroke="#F28F8F" stroke-width="1.92189" stroke-miterlimit="10" stroke-linecap="round" stroke-linejoin="round"/>
<path d="M106.811 137.992C105.632 144.123 103.687 152.67 102.449 157.621C100.975 163.398 95.2574 172.888 90.7185 177.722" stroke="#F28F8F" stroke-width="1.92189" stroke-miterlimit="10" stroke-linecap="round" stroke-linejoin="round"/>
<path d="M21.6334 202.42L30.8879 193.578C30.8879 193.578 56.0581 201.064 57.4138 224.584L49.2203 230.479L21.6334 202.42Z" fill="#158681"/>
<path opacity="0.3" d="M21.6334 202.42L30.8879 193.578C30.8879 193.578 56.0581 201.064 57.4138 224.584L49.2203 230.479L21.6334 202.42Z" fill="white"/>
<path d="M21.6922 198.413C27.0564 199.828 49.3381 207.196 51.9317 234.135C51.9907 234.901 51.7549 235.667 51.2244 236.198L34.1299 253.941C34.1299 253.941 -5.24626 241.798 0.648378 212.383L19.6291 198.767C20.2186 198.413 20.9849 198.236 21.6922 198.413Z" fill="#414042"/>
<path d="M46.2729 232.598C46.2729 234.485 44.7403 235.958 42.913 235.958C41.0267 235.958 39.553 234.426 39.553 232.598C39.553 230.712 41.0856 229.238 42.913 229.238C44.7403 229.238 46.2729 230.712 46.2729 232.598Z" fill="white"/>
<path d="M58.4158 151.609C59.3 155.677 62.5421 159.155 66.5504 160.392" stroke="#F28F8F" stroke-width="1.92189" stroke-miterlimit="10" stroke-linecap="round" stroke-linejoin="round"/>
<path d="M86.2976 47.2149C88.2835 47.2149 89.8934 45.605 89.8934 43.6192C89.8934 41.6333 88.2835 40.0234 86.2976 40.0234C84.3118 40.0234 82.7019 41.6333 82.7019 43.6192C82.7019 45.605 84.3118 47.2149 86.2976 47.2149Z" fill="#FAFAFA"/>
<path d="M192.519 204.072C194.505 204.072 196.115 202.462 196.115 200.477C196.115 198.491 194.505 196.881 192.519 196.881C190.533 196.881 188.923 198.491 188.923 200.477C188.923 202.462 190.533 204.072 192.519 204.072Z" fill="#FAFAFA"/>
<path d="M42.0878 123.49C42.0878 124.905 40.9678 126.084 39.4942 126.084C38.0794 126.084 36.9005 124.964 36.9005 123.49C36.9005 122.075 38.0205 120.896 39.4942 120.896C40.9089 120.955 42.0878 122.075 42.0878 123.49Z" fill="#FAFAFA"/>
<path d="M209.024 32.3006C210.456 32.3006 211.618 31.1394 211.618 29.7069C211.618 28.2745 210.456 27.1133 209.024 27.1133C207.592 27.1133 206.43 28.2745 206.43 29.7069C206.43 31.1394 207.592 32.3006 209.024 32.3006Z" fill="#FAFAFA"/>
<path d="M70.2641 76.923C70.2641 77.9251 69.4389 78.7504 68.4368 78.7504C67.4347 78.7504 66.6094 77.9251 66.6094 76.923C66.6094 75.921 67.4347 75.0957 68.4368 75.0957C69.4389 75.0957 70.2641 75.921 70.2641 76.923Z" fill="#FAFAFA"/>
<path d="M181.968 194.226C181.968 195.228 181.142 196.053 180.14 196.053C179.138 196.053 178.313 195.228 178.313 194.226C178.313 193.224 179.138 192.398 180.14 192.398C181.142 192.457 181.968 193.224 181.968 194.226Z" fill="#FAFAFA"/>
<path d="M97.8511 45.4465C97.8511 46.4486 97.0258 47.2738 96.0237 47.2738C95.0217 47.2738 94.1964 46.4486 94.1964 45.4465C94.1964 44.4444 95.0217 43.6191 96.0237 43.6191C97.0258 43.6191 97.8511 44.4444 97.8511 45.4465Z" fill="#FAFAFA"/>
<path d="M208.081 183.972C208.081 184.974 207.256 185.799 206.253 185.799C205.251 185.799 204.426 184.974 204.426 183.972C204.426 182.97 205.251 182.145 206.253 182.145C207.256 182.203 208.081 182.97 208.081 183.972Z" fill="#FFBC00"/>
<path d="M57.5908 123.491C57.5908 124.493 56.7655 125.319 55.7634 125.319C54.7613 125.319 53.9361 124.493 53.9361 123.491C53.9361 122.489 54.7613 121.664 55.7634 121.664C56.7655 121.664 57.5908 122.548 57.5908 123.491Z" fill="#FFBC00"/>
<path d="M222.994 47.8605C222.994 48.8626 222.169 49.6879 221.167 49.6879C220.165 49.6879 219.34 48.8626 219.34 47.8605C219.34 46.8585 220.165 46.0332 221.167 46.0332C222.169 46.0332 222.994 46.8585 222.994 47.8605Z" fill="#FAFAFA"/>
<path d="M49.5739 100.741L53.9949 103.158L49.5739 105.575L47.1571 109.996L44.7403 105.575L40.3193 103.158L44.7403 100.741L47.1571 96.3203L49.5739 100.741Z" fill="#FFBC00"/>
<path d="M167.997 208.081L172.418 210.498L167.997 212.915L165.521 217.395L163.105 212.915L158.684 210.498L163.105 208.081L165.521 203.66L167.997 208.081Z" fill="#FFBC00"/>
<path d="M182.557 4.42098L186.978 6.83778L182.557 9.25458L180.14 13.6756L177.723 9.25458L173.302 6.83778L177.723 4.42098L180.14 0L182.557 4.42098Z" fill="#FFBC00"/>
<path d="M194.169 15.9177L196.35 17.0966L194.169 18.3345L192.932 20.5745L191.753 18.3345L189.513 17.0966L191.753 15.9177L192.932 13.6777L194.169 15.9177Z" fill="#158681"/>
<path d="M136.52 14.2657L139.526 15.9162L136.52 17.5667L134.869 20.5729L133.219 17.5667L130.272 15.9162L133.219 14.2657L134.869 11.3184L136.52 14.2657Z" fill="#158681"/>
<path d="M136.107 209.318L138.288 210.497L136.107 211.735L134.87 213.916L133.691 211.735L131.451 210.497L133.691 209.318L134.87 207.078L136.107 209.318Z" fill="#158681"/>
<path d="M229.36 127.915L231.542 129.153L229.36 130.332L228.123 132.572L226.944 130.332L224.704 129.153L226.944 127.915L228.123 125.734L229.36 127.915Z" fill="#158681"/>
<path d="M240.737 149.078L206.018 129.154L182.026 134.283L189.689 157.566L224.468 177.49L216.805 154.207L240.737 149.078Z" fill="#158681"/>
<path opacity="0.3" d="M240.737 149.078L206.018 129.154L182.026 134.283L189.689 157.566L224.468 177.49L216.805 154.207L240.737 149.078Z" fill="#414042"/>
<path d="M195.113 157.74C194.877 157.74 194.641 157.563 194.582 157.327L188.511 138.818L196.586 137.109C196.881 137.05 197.235 137.227 197.294 137.58C197.353 137.875 197.176 138.229 196.822 138.288L190.043 139.761L195.702 156.974C195.82 157.268 195.643 157.622 195.348 157.74C195.23 157.74 195.172 157.74 195.113 157.74Z" fill="#158681"/>
<path d="M201.42 137.288C201.125 137.288 200.889 137.111 200.83 136.816C200.771 136.522 200.948 136.168 201.302 136.109L208.906 134.458C209.201 134.399 209.554 134.576 209.613 134.93C209.672 135.225 209.495 135.578 209.142 135.637L201.538 137.288C201.538 137.288 201.479 137.288 201.42 137.288Z" fill="#158681"/>
<path d="M195.938 141.885C195.643 141.885 195.407 141.709 195.348 141.414C195.289 141.119 195.466 140.765 195.82 140.707L209.672 137.759C209.967 137.7 210.321 137.877 210.38 138.231C210.439 138.526 210.262 138.879 209.908 138.938L196.056 141.885C195.997 141.885 195.997 141.885 195.938 141.885Z" fill="#158681"/>
<path d="M199.593 160.276C199.357 160.276 199.121 160.099 199.062 159.864L196.822 153.026C196.704 152.731 196.881 152.377 197.176 152.26C197.47 152.142 197.824 152.319 197.942 152.613L200.182 159.451C200.3 159.746 200.123 160.099 199.828 160.217C199.71 160.276 199.652 160.276 199.593 160.276Z" fill="#158681"/>
<path d="M218.455 147.131C218.161 147.131 217.925 146.955 217.866 146.66C217.807 146.365 217.984 146.011 218.337 145.953L224.291 144.656C224.586 144.597 224.939 144.774 224.998 145.127C225.057 145.422 224.881 145.776 224.527 145.835L218.573 147.131C218.514 147.131 218.455 147.131 218.455 147.131Z" fill="#158681"/>
<path d="M207.727 165.405C207.491 165.405 207.256 165.228 207.197 164.992L202.186 149.725C202.068 149.43 202.245 149.077 202.54 148.959C202.835 148.841 203.188 149.018 203.306 149.312L208.317 164.58C208.434 164.874 208.258 165.228 207.963 165.346C207.904 165.405 207.845 165.405 207.727 165.405Z" fill="#158681"/>
<path d="M215.921 151.731C215.626 151.731 215.39 151.554 215.331 151.259C215.272 150.964 215.449 150.611 215.803 150.552L230.775 147.369C231.07 147.31 231.423 147.486 231.482 147.84C231.541 148.135 231.365 148.489 231.011 148.548L216.038 151.731C216.038 151.731 215.98 151.731 215.921 151.731Z" fill="#158681"/>
<path d="M212.384 167.822C212.148 167.822 211.912 167.645 211.853 167.409L209.378 159.805C209.26 159.51 209.437 159.157 209.731 159.039C210.026 158.921 210.38 159.098 210.498 159.393L212.973 166.997C213.091 167.291 212.914 167.645 212.62 167.763C212.502 167.822 212.443 167.822 212.384 167.822Z" fill="#158681"/>
<path d="M196.645 145.364C196.292 145.364 195.938 145.246 195.643 145.069L149.075 118.19C148.073 117.6 147.779 116.362 148.309 115.36C148.899 114.358 150.136 114.063 151.139 114.594L197.706 141.473C198.708 142.063 199.003 143.301 198.473 144.303C198.06 145.01 197.353 145.364 196.645 145.364Z" fill="#414042"/>
</g>
<defs>
<clipPath id="clip0_1079_60906">
<rect width="284.063" height="254" fill="white"/>
</clipPath>
</defs>
</svg>
