<svg width="20" height="24" viewBox="0 0 20 24" fill="none" xmlns="http://www.w3.org/2000/svg">
<path fill-rule="evenodd" clip-rule="evenodd" d="M12.1212 3.99961C12.1212 1.79161 13.8859 1.15221e-05 16.06 1.15221e-05C16.5762 -0.00125068 17.0875 0.101201 17.5649 0.301517C18.0422 0.501832 18.4762 0.796089 18.8421 1.16749C19.208 1.53888 19.4985 1.98015 19.6972 2.46608C19.8959 2.95202 19.9988 3.47311 20 3.99961C20 6.20881 18.2353 8.0004 16.06 8.0004C15.5383 8.00106 15.0217 7.89595 14.5403 7.69118C14.0588 7.48641 13.622 7.18607 13.2553 6.80761L7.80235 10.5948C7.95422 11.3664 7.87974 12.1665 7.58824 12.8952L13.5671 16.9032C14.2713 16.3174 15.1525 15.9981 16.0612 15.9996C16.5774 15.9985 17.0887 16.1011 17.566 16.3016C18.0433 16.502 18.4772 16.7964 18.8429 17.1679C19.2087 17.5394 19.4991 17.9808 19.6977 18.4668C19.8962 18.9528 19.9989 19.4739 20 20.0004C20 22.2084 18.2353 24 16.06 24C15.0177 24.0022 14.0173 23.5821 13.2787 22.8321C12.54 22.0821 12.1237 21.0635 12.1212 20.0004C12.1203 19.4396 12.2362 18.8849 12.4612 18.3732L6.52941 14.4C5.81107 15.0371 4.89073 15.3871 3.93882 15.3852C3.42261 15.3865 2.91121 15.284 2.43384 15.0836C1.95648 14.8832 1.5225 14.5888 1.15672 14.2172C0.790935 13.8457 0.500508 13.4043 0.302033 12.9182C0.103558 12.4321 0.000925853 11.9109 0 11.3844C0.0010802 10.858 0.103827 10.3369 0.30237 9.85097C0.500914 9.36504 0.791365 8.92377 1.15713 8.55235C1.5229 8.18094 1.95683 7.88666 2.43411 7.68633C2.9114 7.486 3.42271 7.38354 3.93882 7.38481C5.19059 7.38481 6.30353 7.9764 7.02471 8.898L12.3106 5.22721C12.1848 4.83065 12.1209 4.4164 12.1212 3.99961Z" fill="#414042"/>
</svg>
