<svg width="112" height="96" viewBox="0 0 112 96" fill="none" xmlns="http://www.w3.org/2000/svg">
<path d="M97.1735 80.5057L95.0762 72.2839C94.9419 71.7597 94.7023 71.2679 94.3715 70.8381C94.0408 70.4083 93.6259 70.0494 93.1519 69.783C92.6754 69.5125 92.1493 69.339 91.6045 69.2726C91.0597 69.2063 90.5071 69.2484 89.9789 69.3966L65.3733 76.2874L48.6489 69.2893L69.8112 63.9065C71.2559 62.6269 72.3023 60.9641 72.8274 59.114L71.168 53.1892L27.0272 58.5559H0V90.756H27.0272L51.1084 95.9295C52.4175 96.0477 53.736 96.0171 55.0381 95.8383L94.2816 85.3518C95.311 85.0781 96.1918 84.4155 96.7357 83.5056C97.0042 83.0579 97.1811 82.562 97.2562 82.0463C97.3313 81.5306 97.3032 81.0052 97.1735 80.5003V80.5057ZM16.2163 85.3893H5.40543V63.9226H16.2163V85.3893ZM53.6327 90.6594C53.3891 90.7225 53.1385 90.7549 52.8868 90.756C52.6778 90.7568 52.4694 90.7352 52.2651 90.6916L27.0272 85.1908V64.0299L66.6436 59.157L37.838 69.2893L63.3571 81.2677L65.0706 81.9493L66.8436 81.4502L90.1735 74.9189L91.6005 80.511L53.6327 90.6594Z" fill="white"/>
<path d="M111.478 1.60211C111.478 0.700924 110.852 0 110.047 0H73.9012C73.096 0 72.4697 0.700924 72.4697 1.60211V27.6364L67.0121 21.5284C66.4753 20.9276 65.4911 20.9276 64.9543 21.5284L61.3756 25.5336C60.8388 26.1344 60.8388 27.2359 61.3756 27.8367L75.5117 43.6575C76.0485 44.2583 77.0326 44.2583 77.5694 43.6575L91.7055 27.8367C92.2423 27.2359 92.2423 26.1344 91.7055 25.5336L88.1267 21.5284C87.5899 20.9276 86.6058 20.9276 86.069 21.5284L80.6114 27.6364V9.01187H110.136C110.941 9.01187 111.568 8.31095 111.568 7.40976L111.478 1.60211Z" fill="white"/>
</svg>
