<svg width="78" height="90" viewBox="0 0 78 90" fill="none" xmlns="http://www.w3.org/2000/svg">
<path d="M35.1999 89.5978C33.4183 89.4819 31.6345 89.3965 29.855 89.2412C25.7743 88.8868 21.6829 88.552 17.7906 87.1321C16.8554 86.7908 15.9418 86.3029 15.1257 85.7253C13.435 84.5307 13.4025 82.5857 15.1777 81.5049C16.6086 80.6319 18.2084 79.9121 19.8277 79.5161C22.3128 78.9101 24.8781 78.6388 27.4088 78.2253C27.6036 78.1925 27.8006 78.164 28.0409 78.129C27.8158 76.0549 27.0516 74.2237 25.9605 72.5237C25.8285 72.3202 25.5665 72.1912 25.3479 72.0555C16.9853 66.8878 11.0429 59.5781 6.8735 50.7085C3.42498 43.3726 1.39007 35.6406 0.628057 27.5608C0.498169 26.1934 0.783923 25.7121 2.09363 25.303C4.49872 24.5481 6.79124 23.5483 8.94738 22.2246C9.39765 21.949 9.57517 21.6777 9.52538 21.1219C9.2721 18.2165 12.0365 15.847 14.8313 16.5799C15.4245 16.7353 15.7665 16.5931 16.1518 16.1445C19.057 12.7774 21.4318 9.09523 23.0164 4.8989C23.629 3.27331 25.1119 2.54257 26.6078 1.95403C30.5412 0.407206 34.6717 0.00901416 38.8411 0.000262691C43.0689 -0.0106766 47.2556 0.361261 51.2584 1.90152C53.1547 2.63008 54.5878 3.7087 55.3758 5.79592C56.85 9.69252 59.1837 13.1034 61.9286 16.2233C62.2858 16.6302 62.6019 16.7243 63.1128 16.5974C66.0071 15.8754 68.7088 18.1618 68.4858 21.1482C68.449 21.6514 68.5486 21.9752 69.0184 22.1874C71.2221 23.1829 73.3913 24.2637 75.6275 25.1717C77.2684 25.8368 77.5238 26.0906 77.355 27.8474C76.5605 36.1373 74.4 44.0486 70.761 51.5202C66.6739 59.9085 60.9545 66.8746 53.0032 71.817C52.1871 72.3246 51.6935 73.016 51.293 73.8233C50.9834 74.4468 50.7042 75.0901 50.4898 75.753C50.2496 76.4947 50.1002 77.2648 49.8859 78.1181C51.4965 78.3347 53.027 78.5185 54.551 78.7526C56.9474 79.1223 59.3266 79.584 61.5325 80.6626C62.0715 80.9273 62.5954 81.2533 63.0673 81.6296C64.4939 82.7673 64.5502 84.6248 63.0197 85.605C61.6775 86.4626 60.1838 87.1912 58.6598 87.6244C53.9665 88.9568 49.1195 89.239 44.2726 89.4666C43.7855 89.4884 43.3027 89.5541 42.8178 89.6C40.2807 89.5978 37.7392 89.5978 35.1999 89.5978ZM38.9991 40.7996C37.0097 43.0072 34.6132 43.8189 31.8444 42.959C29.0648 42.0948 27.6274 39.977 27.1945 37.124C25.2656 37.5178 23.5706 37.2093 22.0639 36.0148C20.5615 34.8267 19.9099 33.2012 19.767 31.2999C18.046 31.4465 16.6021 30.9827 15.4245 29.81C14.2208 28.611 13.8009 27.1058 13.8961 25.5502C13.093 25.2548 12.331 25.0667 11.6664 24.6991C11.1988 24.4409 10.9173 24.5328 10.4952 24.7407C8.45597 25.7493 6.41023 26.7469 4.33203 27.6724C3.76485 27.924 3.6328 28.1931 3.70423 28.7707C4.68705 36.8877 6.91247 44.6131 10.7442 51.8374C16.089 61.9147 23.8585 69.2332 34.5634 73.2107C37.408 74.2674 40.2655 74.344 43.1165 73.3288C50.728 70.6159 57.1185 66.0979 62.1408 59.7225C69.3128 50.6188 72.9518 40.0623 74.3308 28.6176C74.3892 28.1275 74.242 27.9284 73.7852 27.7205C71.6378 26.7404 69.5206 25.6902 67.3861 24.6816C67.1718 24.581 66.8774 24.4694 66.6825 24.5394C65.8339 24.8501 65.0091 25.2242 64.1346 25.5939C64.0242 29.3483 62.5175 30.8645 58.229 31.3918C58.1186 33.2712 57.4194 34.8727 55.904 36.0563C54.3951 37.2356 52.6871 37.5047 50.8579 37.1437C50.0417 43.3463 42.9001 45.2957 38.9991 40.7996ZM24.1984 25.513C28.0084 24.9835 30.4482 26.585 31.5717 30.2694C34.5288 29.3352 36.9837 30.1469 39.0164 32.3676C41.1076 30.0178 43.5798 29.3811 46.459 30.2519C47.6063 26.55 50.0612 24.9704 53.8063 25.5064C54.6874 22.2312 56.0577 21.1526 59.6534 20.8769C59.7617 20.4043 59.8028 19.8967 59.9976 19.4592C60.2206 18.956 60.1665 18.6146 59.7833 18.2252C59.2768 17.7089 58.7854 17.1619 58.3762 16.5668C56.666 14.0858 54.9883 11.5828 53.3885 9.21994C43.8201 12.9196 34.1803 12.9437 24.4365 9.13899C22.7848 12.412 20.6763 15.5669 18.1131 18.4046C17.9789 18.5534 17.8534 18.8247 17.8923 19.0019C18.0309 19.6451 18.243 20.273 18.4249 20.9053C21.7413 20.9819 23.4602 22.3384 24.1984 25.513ZM17.0372 83.6206C19.4055 84.7998 21.7067 85.2024 24.0057 85.5612C30.184 86.5261 36.4078 86.7449 42.6468 86.5458C47.8683 86.3795 53.0768 86.0229 58.1619 84.6883C59.0581 84.4542 59.9197 84.0844 60.7965 83.7759C60.7813 83.684 60.7661 83.5921 60.7532 83.5002C57.322 81.9797 53.6461 81.6209 49.8621 81.1702C50.0158 81.9272 50.1565 82.5463 50.2604 83.1721C50.4271 84.1588 49.9941 84.8961 49.178 85.0624C48.3207 85.2374 47.5457 84.7976 47.4029 83.8284C47.1604 82.1678 46.9417 80.4832 46.9526 78.8095C46.9634 77.4683 47.3292 76.1293 47.5587 74.6613C41.8675 77.8184 36.1546 77.8227 30.3291 74.5869C30.433 75.0288 30.4741 75.2476 30.5347 75.462C31.3054 78.1531 31.3552 80.8595 30.6971 83.579C30.4178 84.732 29.7684 85.2527 28.8397 85.0602C27.9478 84.8764 27.5603 84.0625 27.8049 82.9095C27.9218 82.3604 28.0214 81.8068 28.1491 81.1548C24.3391 81.6515 20.6719 81.9687 17.0372 83.6206ZM25.6986 5.73904C25.7159 5.85937 25.7332 5.98189 25.7505 6.10223C26.8568 7.08239 28.2379 7.49371 29.6255 7.85033C34.4119 9.07991 39.2675 9.15868 44.147 8.63578C46.5023 8.38417 48.8251 7.93566 50.9942 6.91393C51.4618 6.69295 51.8645 6.33852 52.4815 5.92063C51.8104 5.50713 51.3796 5.17238 50.8947 4.9536C48.1129 3.69557 45.145 3.28206 42.1446 3.09391C37.3972 2.79636 32.6844 2.98014 28.1253 4.54665C27.2811 4.83983 26.5061 5.33866 25.6986 5.73904ZM33.8079 32.8664C31.7665 32.8795 30.1537 34.5358 30.1646 36.6055C30.1754 38.6686 31.8141 40.2986 33.8642 40.2855C35.9099 40.2723 37.5205 38.6183 37.5054 36.5486C37.4924 34.4745 35.8623 32.8533 33.8079 32.8664ZM47.8553 36.6405C47.8791 34.5642 46.2858 32.8949 44.2509 32.8664C42.1965 32.838 40.5491 34.4439 40.5145 36.5092C40.4798 38.5811 42.0774 40.2527 44.121 40.2833C46.1689 40.3139 47.8315 38.6949 47.8553 36.6405ZM28.6427 31.3568C28.647 29.694 27.3049 28.3353 25.6769 28.3572C24.0966 28.3791 22.7588 29.74 22.7523 31.3349C22.7458 32.9474 24.0533 34.2863 25.6553 34.3082C27.3265 34.3345 28.6384 33.0371 28.6427 31.3568ZM52.3039 34.3126C53.9492 34.317 55.2914 32.9561 55.2676 31.3108C55.2437 29.7137 53.8972 28.3638 52.3191 28.3594C50.7236 28.355 49.401 29.6765 49.3793 31.2955C49.3555 32.978 50.6457 34.3082 52.3039 34.3126ZM21.2672 26.1125C21.2629 24.9223 20.2368 23.8983 19.0505 23.9027C17.8663 23.9071 16.8424 24.942 16.8467 26.1278C16.8511 27.3136 17.8837 28.3441 19.0635 28.3419C20.239 28.3397 21.2716 27.2939 21.2672 26.1125ZM58.9715 23.9027C57.7852 23.8983 56.7569 24.9201 56.7526 26.1103C56.7461 27.2895 57.7809 28.3397 58.9542 28.3419C60.134 28.3463 61.1688 27.3158 61.1753 26.13C61.1796 24.9441 60.1557 23.9071 58.9715 23.9027ZM15.327 20.9382C15.3487 20.1046 14.6971 19.4198 13.8853 19.4198C13.1124 19.4198 12.4587 20.0652 12.4349 20.8506C12.4111 21.6667 13.0821 22.3712 13.8831 22.3734C14.6559 22.3734 15.3076 21.7258 15.327 20.9382ZM64.1887 19.4176C63.4115 19.3848 62.7469 19.9974 62.6971 20.7938C62.6452 21.6295 63.2643 22.3384 64.0761 22.3712C64.8425 22.404 65.52 21.7805 65.5742 20.9907C65.6326 20.168 65.0005 19.4526 64.1887 19.4176Z" fill="url(#paint0_linear_561_33098)"/>
<defs>
<linearGradient id="paint0_linear_561_33098" x1="70.7884" y1="89.5693" x2="-7.76474" y2="83.237" gradientUnits="userSpaceOnUse">
<stop stop-color="#BBD2C5"/>
<stop offset="0.993949" stop-color="#1FB9B3"/>
</linearGradient>
</defs>
</svg>
