<svg width="310" height="295" viewBox="0 0 310 295" fill="none" xmlns="http://www.w3.org/2000/svg">
<g clip-path="url(#clip0_913_71791)">
<path d="M154.582 241.622C202.611 241.622 241.699 202.534 241.699 154.506C241.699 106.477 202.611 67.3887 154.582 67.3887C106.554 67.3887 67.4654 106.477 67.4654 154.506C67.4654 202.534 106.554 241.622 154.582 241.622ZM154.582 68.2015C202.168 68.2015 240.886 106.92 240.886 154.506C240.886 202.091 202.168 240.81 154.582 240.81C106.997 240.81 68.2043 202.165 68.2043 154.506C68.2043 106.92 106.923 68.2015 154.582 68.2015Z" fill="#EBEBEB"/>
<path d="M154.579 232.164C197.436 232.164 232.238 197.288 232.238 154.506C232.238 111.649 197.362 76.8467 154.579 76.8467C111.797 76.8467 76.9205 111.723 76.9205 154.506C76.9205 197.362 111.723 232.164 154.579 232.164ZM154.579 77.6595C196.993 77.6595 231.499 112.166 231.499 154.579C231.499 196.993 196.993 231.499 154.579 231.499C112.166 231.499 77.6594 196.993 77.6594 154.579C77.6594 112.166 112.166 77.6595 154.579 77.6595Z" fill="#EBEBEB"/>
<path d="M207.852 21.4104L208.605 21.7148L203.236 35.006L202.482 34.7016L207.852 21.4104Z" fill="#EBEBEB"/>
<path d="M200.127 40.6877L200.881 40.9922L191.996 62.9843L191.242 62.6798L200.127 40.6877Z" fill="#EBEBEB"/>
<path d="M286.382 98.1356L286.699 98.8838L273.504 104.484L273.187 103.736L286.382 98.1356Z" fill="#EBEBEB"/>
<path d="M267.292 106.196L267.609 106.944L245.776 116.211L245.459 115.463L267.292 106.196Z" fill="#EBEBEB"/>
<path d="M274.379 202.477L287.67 207.847L287.365 208.6L274.074 203.231L274.379 202.477Z" fill="#EBEBEB"/>
<path d="M246.404 191.236L268.396 200.121L268.092 200.875L246.1 191.99L246.404 191.236Z" fill="#EBEBEB"/>
<path d="M205.323 273.15L210.924 286.345L210.176 286.662L204.575 273.467L205.323 273.15Z" fill="#EBEBEB"/>
<path d="M193.596 245.423L202.863 267.256L202.115 267.573L192.848 245.74L193.596 245.423Z" fill="#EBEBEB"/>
<path d="M105.881 274.001L106.635 274.306L101.265 287.597L100.511 287.292L105.881 274.001Z" fill="#EBEBEB"/>
<path d="M117.094 246.096L117.848 246.4L108.963 268.393L108.209 268.088L117.094 246.096Z" fill="#EBEBEB"/>
<path d="M35.657 204.515L35.9746 205.263L22.7795 210.863L22.4619 210.115L35.657 204.515Z" fill="#EBEBEB"/>
<path d="M63.3192 192.815L63.6367 193.563L41.8035 202.83L41.486 202.082L63.3192 192.815Z" fill="#EBEBEB"/>
<path d="M21.7889 100.503L35.0801 105.873L34.7756 106.627L21.4844 101.257L21.7889 100.503Z" fill="#EBEBEB"/>
<path d="M40.9942 108.203L62.9863 117.088L62.6819 117.842L40.6897 108.956L40.9942 108.203Z" fill="#EBEBEB"/>
<path d="M98.9443 22.4289L104.545 35.624L103.797 35.9416L98.1962 22.7464L98.9443 22.4289Z" fill="#EBEBEB"/>
<path d="M106.975 41.4529L116.242 63.2861L115.494 63.6037L106.227 41.7705L106.975 41.4529Z" fill="#EBEBEB"/>
<path d="M154.136 0.000976562H154.949V35.3206H154.136V0.000976562Z" fill="#EBEBEB"/>
<path d="M154.136 43.3008H154.949V55.5666H154.136V43.3008Z" fill="#EBEBEB"/>
<path d="M263.572 44.9555L264.146 45.5303L239.172 70.5048L238.597 69.9301L263.572 44.9555Z" fill="#EBEBEB"/>
<path d="M232.91 75.6255L233.484 76.2002L224.811 84.8734L224.236 84.2986L232.91 75.6255Z" fill="#EBEBEB"/>
<path d="M273.766 154.135H309.086V154.948H273.766V154.135Z" fill="#EBEBEB"/>
<path d="M253.521 154.135H265.787V154.948H253.521V154.135Z" fill="#EBEBEB"/>
<path d="M239.135 238.584L264.109 263.559L263.535 264.133L238.56 239.159L239.135 238.584Z" fill="#EBEBEB"/>
<path d="M224.764 224.222L233.438 232.896L232.863 233.47L224.19 224.797L224.764 224.222Z" fill="#EBEBEB"/>
<path d="M154.136 273.691H154.949V309.011H154.136V273.691Z" fill="#EBEBEB"/>
<path d="M154.136 253.445H154.949V265.711H154.136V253.445Z" fill="#EBEBEB"/>
<path d="M69.9624 238.496L70.5371 239.07L45.5626 264.045L44.9879 263.47L69.9624 238.496Z" fill="#EBEBEB"/>
<path d="M84.271 224.181L84.8457 224.756L76.1725 233.429L75.5978 232.854L84.271 224.181Z" fill="#EBEBEB"/>
<path d="M0.0729141 154.135H35.3926V154.948H0.0729141V154.135Z" fill="#EBEBEB"/>
<path d="M43.3728 154.135H55.6387V154.948H43.3728V154.135Z" fill="#EBEBEB"/>
<path d="M45.5958 44.9718L70.5703 69.9463L69.9956 70.521L45.0211 45.5465L45.5958 44.9718Z" fill="#EBEBEB"/>
<path d="M76.2136 75.5798L84.8867 84.2529L84.312 84.8277L75.6388 76.1545L76.2136 75.5798Z" fill="#EBEBEB"/>
<path d="M152.809 154.506C152.809 155.466 153.622 156.279 154.582 156.279C155.543 156.279 156.355 155.466 156.355 154.506C156.355 153.545 155.543 152.732 154.582 152.732C153.548 152.732 152.809 153.545 152.809 154.506Z" fill="#EBEBEB"/>
<path d="M287.362 235.785C285.219 236.229 283.741 238.889 284.923 240.884C285.736 242.14 286.844 242.879 288.322 242.731C290.465 242.583 292.017 240.588 291.5 238.445C291.204 236.672 289.283 235.416 287.362 235.785Z" fill="#EBEBEB"/>
<path d="M92.8831 292.977C90.7403 293.42 89.2625 296.08 90.4448 298.076C91.2576 299.332 92.3659 300.071 93.8437 299.923C95.9866 299.775 97.5382 297.78 97.021 295.637C96.7255 293.79 94.8043 292.534 92.8831 292.977Z" fill="#EBEBEB"/>
<path d="M250.121 38.5706C247.979 39.0139 246.501 41.674 247.683 43.669C248.496 44.9251 249.604 45.664 251.082 45.5163C253.225 45.3685 254.777 43.3734 254.259 41.2306C253.964 39.4572 252.043 38.2011 250.121 38.5706Z" fill="#EBEBEB"/>
<path d="M38.721 230.834C36.5782 231.277 35.1004 233.937 36.2826 235.932C37.0954 237.188 38.2038 237.927 39.6816 237.779C41.8244 237.631 43.3761 235.636 42.8589 233.494C42.5633 231.646 40.6422 230.39 38.721 230.834Z" fill="#EBEBEB"/>
<path d="M98.7953 29.0396C96.6524 29.4829 95.1746 32.143 96.3569 34.138C97.1697 35.3942 98.278 36.1331 99.7558 35.9853C101.899 35.8375 103.45 33.8425 102.933 31.6996C102.638 29.8524 100.716 28.5962 98.7953 29.0396Z" fill="#EBEBEB"/>
<path d="M201.871 133.668C199.729 134.112 198.251 136.772 199.433 138.767C200.246 140.023 201.354 140.762 202.832 140.614C204.975 140.466 206.527 138.471 206.009 136.329C205.714 134.481 203.793 133.225 201.871 133.668Z" fill="#EBEBEB"/>
<path d="M280.415 252.632C279.233 252.854 278.42 254.332 279.085 255.44C279.529 256.105 280.12 256.549 281.007 256.475C282.189 256.401 283.002 255.293 282.78 254.11C282.484 253.076 281.45 252.411 280.415 252.632Z" fill="#EBEBEB"/>
<path d="M35.8393 74.3346C34.657 74.5563 33.8442 76.0341 34.5092 77.1425C34.9526 77.8075 35.5437 78.2508 36.4304 78.1769C37.6126 78.103 38.4254 76.9947 38.2037 75.8124C37.9821 74.778 36.8737 74.113 35.8393 74.3346Z" fill="#EBEBEB"/>
<path d="M26.7494 226.992C25.5671 227.214 24.7544 228.691 25.4194 229.8C25.8627 230.465 26.4538 230.908 27.3405 230.834C28.5228 230.76 29.3356 229.652 29.1139 228.47C28.8922 227.435 27.7839 226.77 26.7494 226.992Z" fill="#EBEBEB"/>
<path d="M136.329 211.548C135.147 211.77 134.334 213.248 134.999 214.356C135.443 215.021 136.034 215.465 136.921 215.391C138.103 215.317 138.916 214.208 138.694 213.026C138.398 212.066 137.364 211.327 136.329 211.548Z" fill="#EBEBEB"/>
<path d="M124.285 115.491C123.103 115.417 121.921 116.674 122.29 117.93C122.512 118.743 123.029 119.26 123.842 119.408C125.024 119.629 126.059 118.743 126.132 117.56C126.206 116.452 125.32 115.491 124.285 115.491Z" fill="#EBEBEB"/>
<path d="M86.3803 47.8814C85.198 48.1031 84.3852 49.5809 85.0502 50.6892C85.4936 51.3542 86.0847 51.7976 86.9714 51.7237C88.1536 51.6498 88.9664 50.5414 88.7448 49.3592C88.5231 48.3986 87.4147 47.6597 86.3803 47.8814Z" fill="#EBEBEB"/>
<path d="M18.3256 196.402C17.1433 196.624 16.3305 198.102 16.9955 199.21C17.4389 199.875 18.03 200.318 18.9167 200.244C20.0989 200.17 20.9117 199.062 20.6901 197.88C20.3945 196.845 19.36 196.18 18.3256 196.402Z" fill="#EBEBEB"/>
<path d="M270.96 100.493C269.778 100.715 268.965 102.192 269.63 103.301C270.074 103.966 270.665 104.409 271.551 104.335C272.734 104.261 273.547 103.153 273.325 101.971C273.029 100.936 271.995 100.271 270.96 100.493Z" fill="#EBEBEB"/>
<path d="M293.422 247.829C292.609 247.977 292.092 248.938 292.535 249.677C292.83 250.12 293.2 250.415 293.791 250.342C294.53 250.268 295.121 249.529 294.973 248.79C294.826 248.125 294.087 247.681 293.422 247.829Z" fill="#EBEBEB"/>
<path d="M6.94894 134.259C6.13614 134.407 5.6189 135.367 6.06224 136.106C6.3578 136.55 6.72726 136.845 7.31839 136.771C8.05729 136.697 8.64842 135.958 8.50064 135.22C8.35286 134.555 7.61395 134.111 6.94894 134.259Z" fill="#EBEBEB"/>
<path d="M84.3142 287.212C83.5014 287.36 82.9842 288.32 83.4275 289.059C83.7231 289.503 84.0925 289.798 84.6836 289.724C85.4225 289.65 86.0137 288.912 85.8659 288.173C85.6442 287.508 84.9792 287.064 84.3142 287.212Z" fill="#EBEBEB"/>
<path d="M284.258 97.9796C283.445 98.1274 282.928 99.088 283.371 99.8269C283.666 100.27 284.036 100.566 284.627 100.492C285.366 100.418 285.957 99.6791 285.809 98.9402C285.661 98.2752 284.923 97.8319 284.258 97.9796Z" fill="#EBEBEB"/>
<path d="M41.2321 64.2111C40.4193 64.3589 39.9021 65.3195 40.3454 66.0584C40.641 66.5017 41.0105 66.7973 41.6016 66.7234C42.3405 66.6495 42.9316 65.9106 42.7838 65.1717C42.6361 64.5067 41.8972 64.0633 41.2321 64.2111Z" fill="#EBEBEB"/>
<path d="M144.236 219.973C143.423 220.121 142.906 221.081 143.349 221.82C143.645 222.263 144.014 222.559 144.605 222.485C145.344 222.411 145.936 221.672 145.788 220.933C145.64 220.342 144.975 219.825 144.236 219.973Z" fill="#EBEBEB"/>
<path d="M205.121 40.9357C204.308 41.0835 203.791 42.0441 204.234 42.783C204.53 43.2263 204.899 43.5219 205.49 43.448C206.229 43.3741 206.82 42.6352 206.673 41.8963C206.525 41.2313 205.786 40.7879 205.121 40.9357Z" fill="#EBEBEB"/>
<path d="M138.842 160.048C186.871 187.166 238.151 216.353 251.969 203.274C267.338 188.644 235.787 150.96 232.683 150.073C229.21 149.112 186.132 139.137 146.896 137.585C103.966 135.812 126.946 153.324 138.842 160.048Z" fill="#414042"/>
<path opacity="0.1" d="M138.841 160.049C157.387 170.541 176.451 181.329 193.594 189.9L141.87 137.512C105.886 137.29 127.462 153.546 138.841 160.049Z" fill="black"/>
<path d="M196.404 310.636L185.395 232.607C185.395 232.607 195.148 216.647 190.936 204.455C186.06 190.49 169.213 156.722 155.026 143.569C137.07 126.944 115.864 137.215 108.77 147.633C94.5832 168.322 68.3521 231.72 57.1207 310.636H196.404Z" fill="#178B87"/>
<path opacity="0.6" d="M196.404 310.636L185.395 232.607C185.395 232.607 195.148 216.647 190.936 204.455C186.06 190.49 169.213 156.722 155.026 143.569C137.07 126.944 115.864 137.215 108.77 147.633C94.5832 168.322 68.3521 231.72 57.1207 310.636H196.404Z" fill="white"/>
<path d="M139.806 227.509C146.012 227.435 152.219 227.583 158.426 228.396C161.455 228.839 164.485 229.356 167.515 230.021C168.992 230.317 170.544 230.612 172.022 230.834C173.574 231.13 175.273 231.277 176.825 231.204C176.972 231.204 176.972 231.425 176.825 231.425C175.273 231.647 173.869 231.869 172.317 231.869C170.84 231.869 169.362 231.721 167.884 231.573C164.781 231.204 161.677 230.612 158.574 230.243C152.293 229.356 146.086 228.543 139.732 228.1C139.51 228.026 139.51 227.509 139.806 227.509Z" fill="#414042"/>
<path d="M125.25 234.676C130.2 233.568 135.373 232.681 140.397 232.164C142.983 231.868 145.496 231.795 148.082 231.721C149.338 231.721 150.52 231.721 151.776 231.721C153.106 231.721 154.436 231.942 155.84 231.942C155.988 231.942 155.988 232.164 155.84 232.164C154.584 232.238 153.328 232.46 152.072 232.607C150.816 232.755 149.56 232.829 148.23 232.977C145.717 233.198 143.131 233.494 140.619 233.642C135.52 234.085 130.422 234.529 125.324 235.12C125.028 235.12 124.954 234.75 125.25 234.676Z" fill="#414042"/>
<path d="M170.836 212.138C171.649 220.414 170.836 310.634 170.836 310.634H196.402L185.393 232.68C185.393 232.68 195.146 216.719 190.934 204.528C186.058 190.562 169.211 156.794 155.024 143.642C153.841 142.533 152.585 141.499 151.329 140.612C153.176 147.115 170.097 204.38 170.836 212.138Z" fill="#414042"/>
<path d="M57.1173 310.634H129.382C129.382 310.634 139.431 222.852 139.579 212.138C139.727 201.424 123.249 136.844 123.249 136.844C116.895 139.208 111.648 143.42 108.767 147.632C94.5059 168.321 68.2748 231.719 57.1173 310.634Z" fill="#414042"/>
<path d="M121.624 310.708C122.067 306.939 133.077 217.606 132.633 211.03C132.116 204.453 120.737 143.789 120.22 141.203L118.742 141.499C118.89 142.164 130.638 204.601 131.082 211.177C131.599 217.68 120.22 309.673 120.072 310.56L121.624 310.708Z" fill="#1FB9B3"/>
<path d="M177.118 310.634H178.596C178.596 309.747 178.005 223.517 177.635 213.542C177.266 203.493 158.128 149.627 157.315 147.336L155.911 147.853C156.133 148.444 175.788 203.788 176.157 213.616C176.527 223.517 177.118 309.747 177.118 310.634Z" fill="#1FB9B3"/>
<path d="M99.9051 249.233C100.422 244.061 111.801 178.964 114.683 158.496C117.269 140.171 112.688 133.743 100.57 147.265C78.329 172.092 24.9062 267.706 40.571 284.479C62.2948 307.829 99.9051 249.233 99.9051 249.233Z" fill="#414042"/>
<path d="M110.324 186.058C105.891 206.969 102.344 228.027 99.9057 249.234C104.339 228.397 107.812 207.264 110.324 186.058Z" fill="#1FB9B3"/>
<path d="M111.58 190.86C110.176 194.038 108.994 197.289 107.959 200.614C109.881 197.658 111.211 194.333 111.58 190.86Z" fill="#1FB9B3"/>
<path d="M118.372 143.938C118.889 146.45 129.16 162.263 140.465 160.194C148.445 158.716 146.081 142.608 146.081 142.608L151.992 120.219L124.209 101.155C124.209 101.155 118.15 142.83 118.372 143.938Z" fill="#EB9481"/>
<path d="M122.14 115.786C127.904 131.672 140.391 138.766 146.45 141.352L151.992 120.219L124.209 101.155C124.209 101.155 123.323 107.732 122.14 115.786Z" fill="#414042"/>
<path d="M175.413 79.1376C189.674 114.309 170.166 126.797 162.556 129.9C155.684 132.708 131.817 141.28 113.936 107.733C96.1282 74.1869 107.951 56.4532 123.468 49.2858C138.911 42.1185 161.152 43.9657 175.413 79.1376Z" fill="#EB9481"/>
<path d="M167.288 77.5859C166.401 77.7337 165.589 77.8076 164.628 77.8814C163.594 77.9553 162.855 78.177 161.894 77.6598C161.377 77.3642 161.155 76.5514 161.377 76.1081C161.894 74.9258 163.076 74.4825 164.333 74.3347C165.663 74.1869 166.697 74.3347 167.805 75.0736C168.988 75.6647 168.47 77.3642 167.288 77.5859Z" fill="#414042"/>
<path d="M143.494 86.3788C144.307 86.0094 145.046 85.4922 145.785 85.0488C146.672 84.5316 147.411 84.236 147.854 83.2754C148.076 82.7582 147.854 82.0193 147.337 81.7237C146.228 81.0587 145.046 81.4282 143.938 82.0193C142.755 82.6104 142.017 83.4232 141.499 84.6055C141.056 85.7877 142.386 86.8961 143.494 86.3788Z" fill="#414042"/>
<path d="M157.904 112.609C158.643 113.052 159.456 113.717 160.416 113.57C161.303 113.422 162.264 112.757 163.003 112.24C163.077 112.166 163.15 112.24 163.15 112.313C162.707 113.422 161.525 114.382 160.269 114.456C159.086 114.53 158.274 113.717 157.756 112.757C157.609 112.683 157.756 112.535 157.904 112.609Z" fill="#414042"/>
<path d="M165.44 100.417C165.44 100.417 167.14 103.964 167.657 105.663C167.731 105.811 167.287 106.033 166.696 106.254H166.622C163.667 107.732 160.268 107.584 157.608 105.663C157.46 105.515 157.608 105.294 157.756 105.368C160.563 106.328 163.297 105.959 166.031 105.146C166.031 104.629 162.928 99.1609 163.223 99.087C164.184 98.7176 166.253 98.7915 167.509 98.7176C164.258 91.2546 159.751 84.3828 156.647 76.846C156.573 76.5504 156.943 76.4026 157.091 76.6243C162.263 83.4961 166.253 91.9935 169.8 99.6781C170.243 100.639 166.253 100.491 165.44 100.417Z" fill="#414042"/>
<path d="M165.441 106.034C165.441 106.034 164.702 108.546 162.929 109.95C162.264 110.468 161.525 110.837 160.639 110.911C158.791 111.059 158.2 109.507 157.978 108.103C157.831 106.921 157.978 105.812 157.978 105.812C157.978 105.812 161.377 107.216 165.441 106.034Z" fill="#414042"/>
<path d="M162.93 109.95C162.265 110.467 161.526 110.837 160.639 110.911C158.792 111.058 158.201 109.507 157.979 108.103C159.9 107.659 162.117 108.251 162.93 109.95Z" fill="#FF9CBD"/>
<path d="M147.189 94.5077C147.116 94.8033 146.968 95.0989 146.82 95.3205C146.524 95.7639 146.155 95.9856 145.638 96.0594C144.16 96.2811 143.125 94.9511 142.608 93.4733C142.534 93.3994 142.608 93.3255 142.682 93.3255C143.495 93.9166 144.382 94.5077 145.194 94.1383C145.712 93.9166 146.081 93.2516 146.377 92.7344C146.598 93.3994 146.894 93.9905 147.189 94.5077Z" fill="#414042"/>
<path d="M146.302 94.3595C146.228 93.6945 146.228 93.0295 146.523 92.2906C146.819 91.5517 147.484 91.0345 148.223 90.8128C148.962 90.5911 149.922 90.7389 150.44 91.1822C151.031 91.6256 151.474 92.1428 151.77 92.7339C151.991 93.1034 152.065 93.4728 152.213 93.9162C152.435 94.729 152.582 95.6157 152.435 96.4285C152.287 95.8373 152.065 95.2462 151.77 94.729C151.548 94.2117 151.252 93.7684 150.883 93.2512C150.218 92.2906 149.331 91.6256 148.518 91.995C147.632 92.2906 147.188 93.1773 147.188 94.2856C147.188 95.394 147.336 96.5762 147.632 97.8324C146.967 96.7979 146.523 95.6157 146.302 94.3595Z" fill="#414042"/>
<path d="M169.356 86.7492C169.578 86.9709 169.874 87.1187 170.169 87.1926C170.613 87.3404 171.13 87.3404 171.573 87.1187C172.903 86.3798 172.903 84.6803 172.386 83.2764C172.386 83.2025 172.238 83.1286 172.238 83.2025C171.943 84.1631 171.573 85.1975 170.76 85.4192C170.169 85.567 169.578 85.2714 168.987 84.9759C169.209 85.4931 169.283 86.1581 169.356 86.7492Z" fill="#414042"/>
<path d="M169.948 86.0843C169.653 85.4932 169.135 84.976 168.544 84.6065C167.879 84.2371 166.993 84.1632 166.328 84.4587C165.589 84.6804 164.998 85.4193 164.776 86.1582C164.554 86.8971 164.554 87.5621 164.702 88.2272C164.776 88.6705 164.924 89.04 165.072 89.4094C165.367 90.2222 165.81 90.9611 166.402 91.5522C166.18 90.9611 165.958 90.37 165.884 89.7789C165.737 89.1877 165.737 88.6705 165.663 88.0794C165.589 86.971 165.884 85.8627 166.771 85.641C167.658 85.3454 168.544 85.7888 169.209 86.6755C169.874 87.5621 170.466 88.5966 171.057 89.705C170.909 88.4488 170.613 87.1927 169.948 86.0843Z" fill="#414042"/>
<path d="M121.472 105.292C121.472 105.292 110.019 96.4251 105.807 100.785C101.521 105.218 112.531 119.774 119.255 120.144C125.979 120.513 126.496 114.307 126.496 114.307L121.472 105.292Z" fill="#EB9481"/>
<path d="M109.057 104.922C108.983 104.922 108.983 105.07 109.057 105.07C113.86 105.513 117.259 108.69 120.066 112.311C118.293 111.129 116.372 110.833 114.672 112.976C114.598 113.124 114.746 113.198 114.82 113.198C116.446 112.311 117.776 112.237 119.401 113.272C120.51 114.011 121.47 115.045 122.431 116.006C122.726 116.301 123.391 115.932 123.096 115.488L123.022 115.414C121.544 109.947 114.968 103.666 109.057 104.922Z" fill="#414042"/>
<path d="M170.832 69.3098C170.832 69.3098 157.162 68.1276 150.882 70.3443C137.434 75.2211 113.419 104.703 113.419 104.703C113.419 104.703 86.7447 68.2015 121.621 48.7683C136.842 40.2709 160.34 45.8865 170.832 69.3098Z" fill="#178B87"/>
<path opacity="0.6" d="M170.832 69.3098C170.832 69.3098 157.162 68.1276 150.882 70.3443C137.434 75.2211 113.419 104.703 113.419 104.703C113.419 104.703 86.7447 68.2015 121.621 48.7683C136.842 40.2709 160.34 45.8865 170.832 69.3098Z" fill="white"/>
<path d="M64.7995 188.863C67.3118 183.839 92.4345 152.657 94.6513 147.189C96.868 141.721 102.484 128.642 102.484 128.642C100.193 125.096 104.922 98.1256 102.927 84.2341C100.932 70.3427 104.7 54.1607 123.912 46.6239C143.123 39.0871 161.079 48.6189 171.867 67.9782C182.655 87.3375 188.049 108.618 186.275 116.007C184.502 123.47 177.852 132.928 177.852 132.928C177.852 132.928 181.842 133.593 183.468 134.406C185.241 135.292 188.714 139.504 189.009 140.539C189.379 141.573 179.551 153.174 169.724 160.341C159.97 167.509 126.35 166.4 126.35 166.4C126.35 166.4 128.124 195.661 121.474 208.518C121.474 208.518 104.479 211.621 95.3163 212.139C86.1539 212.656 59.1838 213.025 59.1838 213.025C59.1838 213.025 62.0656 194.257 64.7995 188.863ZM124.799 102.263C128.567 117.854 145.266 137.14 165.438 128.051C185.093 119.184 180.069 89.5543 175.709 80.9091C165.069 59.9242 144.453 59.1853 143.345 59.2592C142.237 59.4808 118.961 77.9534 124.799 102.263Z" fill="#178B87"/>
<g opacity="0.1">
<path d="M126.5 166.399C126.426 159.675 119.037 152.36 115.195 147.114C110.466 141.277 106.032 135.218 102.486 128.567C104.924 135.735 109.357 142.089 114.013 148.001C116.377 150.956 118.815 153.764 121.18 156.72C123.397 159.675 125.835 162.631 126.5 166.399Z" fill="black"/>
<path d="M177.854 132.927C166.918 142.754 155.021 148 140.169 145.784C130.637 144.306 121.475 140.833 112.904 136.621C109.874 135.143 106.919 133.518 103.963 131.818C113.643 138.616 124.578 143.936 136.179 146.523C152.731 150.217 166.4 145.119 177.854 132.927Z" fill="black"/>
<path d="M175.783 134.923C171.941 143.125 164.995 155.317 154.872 155.686C149.774 155.317 144.897 152.878 140.316 150.735C135.587 148.371 131.006 145.785 126.498 143.125C132.853 147.854 139.651 152.139 146.966 155.169C150.143 156.351 153.542 157.607 156.941 156.942C166.99 154.652 172.68 143.864 175.783 134.923Z" fill="black"/>
<path d="M130.414 73.2979C121.695 81.4997 119.404 94.4305 120.882 105.884C121.178 103.002 121.326 100.12 121.695 97.2384C122.656 88.6671 125.316 80.3174 130.414 73.2979Z" fill="black"/>
</g>
<path d="M92.8784 110.317C93.0262 110.022 96.5729 102.115 92.2134 96.1304C90.0706 93.1747 87.4105 90.0713 84.8244 87.1896C79.7998 81.4261 74.5536 75.441 75.6619 72.4115C76.6964 69.6776 81.1298 63.988 96.499 52.7566C105.735 45.9587 114.676 40.343 114.75 40.2691L113.568 38.4219C112.09 39.3825 77.5092 61.254 73.593 71.6726C71.9674 75.8844 77.1397 81.8695 83.1988 88.6674C85.711 91.5491 88.3711 94.5786 90.44 97.4604C94.0607 102.411 90.8834 109.357 90.8834 109.357L92.8784 110.317Z" fill="#178B87"/>
<path d="M81.2778 125.538C81.2778 125.464 84.2334 116.598 86.6718 113.494C89.0362 110.465 92.2874 109.209 92.3613 109.209L91.5485 107.14C91.4007 107.214 87.7062 108.617 84.9723 112.164C82.2383 115.563 79.2827 124.504 79.2088 124.873L81.2778 125.538Z" fill="#178B87"/>
<path d="M95.3915 129.898C95.6871 128.79 98.421 119.036 97.4605 115.711C96.5738 112.534 94.0615 108.396 93.9876 108.248L92.0664 109.43C92.0664 109.504 94.5048 113.494 95.3176 116.376C95.9088 118.371 94.3571 125.391 93.2487 129.307L95.3915 129.898Z" fill="#178B87"/>
<path d="M83.6446 129.971C83.6446 129.898 86.6741 120.661 87.5608 118.149C88.2258 116.154 91.9203 110.908 93.3242 109.06L91.5509 107.73C91.0336 108.469 86.3785 114.75 85.4918 117.41C84.6051 119.922 81.5756 129.159 81.5756 129.233L83.6446 129.971Z" fill="#178B87"/>
<path d="M90.8087 131.006C90.8087 130.932 92.2126 123.839 93.0254 121.548C93.9121 119.11 93.9121 109.652 93.9121 108.617H91.6954C91.6954 112.681 91.4737 119.257 90.9565 120.809C90.1437 123.248 88.7398 130.267 88.6659 130.563L90.8087 131.006Z" fill="#178B87"/>
<path d="M130.121 63.7665L178.814 16.6982L111.279 24.5306L62.8803 70.1211L130.121 63.7665Z" fill="#414042"/>
<path d="M163.666 54.3828L157.09 35.2451C157.09 35.2451 134.627 35.6146 120.366 42.4125C106.105 49.2843 92.0661 64.6535 92.0661 64.6535L102.632 83.6434C102.632 83.6434 119.849 70.4909 131.45 65.1708C143.051 59.8506 163.666 54.3828 163.666 54.3828Z" fill="#178B87"/>
<path d="M163.666 54.3821C163.666 54.3821 163.592 54.3821 163.666 54.3821C162.336 54.7516 142.681 60.0717 131.376 65.244C119.923 70.4163 103.076 83.2733 102.559 83.7166L91.9923 64.7268C91.9923 64.7268 106.031 49.2837 120.292 42.4857C134.553 35.6139 157.016 35.3184 157.016 35.3184L163.666 54.3821Z" fill="#414042"/>
<path d="M125.613 41.1562C125.538 41.2313 125.538 41.2313 125.613 41.1562C125.538 41.2313 125.613 41.2313 125.613 41.1562Z" fill="#414042"/>
<path d="M113.272 75.5159C112.163 76.2548 111.129 77.1415 110.168 78.0282V78.1021L110.242 78.0282C113.198 75.9593 116.745 73.5209 120.365 71.3042C123.099 69.6047 125.907 67.9791 128.567 66.5752C129.528 66.058 130.414 65.6146 131.301 65.2452C132.631 64.654 134.035 64.0629 135.513 63.4718C135.513 63.4718 135.587 63.4718 135.587 63.3979L134.848 61.6984C131.227 63.0284 127.754 64.4324 124.207 65.9841C124.503 65.7624 124.872 65.6146 125.168 65.3929C126.646 64.654 128.198 63.9151 129.749 63.2501C131.892 62.2895 133.961 61.329 136.104 60.4423H136.178L135.217 57.93H135.143C134.183 58.2995 133.148 58.6689 132.188 59.0384L131.818 57.265C130.636 57.4867 129.601 57.7083 128.493 57.93H128.419L127.606 55.2699C127.089 55.4177 126.646 55.5655 126.129 55.7133C127.902 54.9005 129.675 54.1616 131.449 53.4966L130.414 50.4671C130.34 50.4671 130.266 50.541 130.119 50.541C128.641 51.0582 127.163 51.6493 125.685 52.2404L125.02 50.4671C125.464 50.3193 125.981 50.0976 126.424 49.9498L125.611 47.4376C125.611 47.4376 125.611 47.4376 125.538 47.4376C125.464 47.4376 125.464 47.4376 125.39 47.5114C121.769 48.6937 118.296 50.0976 114.897 51.7232C118.222 49.0631 121.991 47.0681 125.907 45.5164C125.907 45.5164 125.907 45.4425 125.833 45.2947V45.2208L125.759 45.0731V44.9992C125.759 44.9253 125.759 44.9253 125.685 44.8514V44.7775L125.611 44.4819C125.538 44.1864 125.39 43.8908 125.316 43.743L125.242 43.6691C125.242 43.5952 125.168 43.5214 125.168 43.5214C124.207 43.8908 123.173 44.2603 122.212 44.7036C119.183 45.9597 116.227 47.2159 113.346 48.7676C117.114 45.9597 121.104 43.5214 125.242 41.2308C125.242 41.2308 125.316 41.2308 125.316 41.1569C125.316 41.1569 125.39 41.1569 125.39 41.083C125.39 41.083 125.39 41.083 125.464 41.0091C126.055 41.083 125.685 40.5657 125.316 40.1963C125.02 40.2702 124.725 40.418 124.429 40.4918C123.764 40.7135 123.099 41.0091 122.434 41.2308C122.36 41.2308 122.286 41.3046 122.212 41.3046C120.956 41.9697 119.7 42.7086 118.444 43.4475C115.415 45.1469 112.385 46.9203 109.429 48.6937C107.656 50.0237 105.883 51.3538 104.257 52.6838C105.883 51.7232 107.508 50.7626 109.134 49.8021C107.36 51.206 105.587 52.7577 103.961 54.3833L103.888 54.4571L105.07 55.7133C106.843 54.4572 108.617 53.2749 110.464 52.2404C109.873 52.8316 109.282 53.4227 108.69 54.0877C107.287 55.4916 104.479 59.925 103.296 61.5506L105.661 59.925L107.287 61.5506L108.912 63.6935C109.134 63.5457 109.282 63.3979 109.503 63.324L110.168 63.989C108.912 64.8757 107.656 65.9102 106.474 66.8708L108.395 69.383C111.277 67.6097 114.306 65.9841 117.483 64.654C114.75 66.5752 112.089 68.6441 109.503 70.787L111.351 73.0776C111.72 72.782 112.089 72.4864 112.533 72.1909C110.021 75.1465 107.213 78.841 105.661 80.6883L114.011 73.9642C115.341 72.8559 116.966 71.8953 118.518 71.0086C116.966 72.6342 115.119 74.0381 113.272 75.5159C113.272 75.5159 113.272 75.442 113.272 75.5159Z" fill="#979797" fill-opacity="0.5"/>
<path d="M245.835 203.936C232.905 195.882 215.393 165.661 200.688 107.213C198.619 99.1593 257.658 90.8096 260.318 99.3809C263.643 110.095 271.697 149.331 270.958 160.193C269.333 183.468 254.628 209.33 245.835 203.936Z" fill="#EB9481"/>
<path d="M264.531 118.22C264.531 118.22 264.31 114.673 262.61 95.4617C261.428 82.1614 250.049 50.5363 214.064 40.0438C200.247 35.9798 191.454 43.96 204.976 50.6841C214.507 55.413 221.601 57.8514 224.261 60.2898C224.261 60.2898 208.301 63.7627 204.532 72.4079C202.833 76.3241 198.547 87.0382 196.404 95.8311C196.404 95.8311 198.178 96.7917 200.69 97.7523C200.69 97.7523 196.33 108.836 205.862 118.294L264.531 118.22Z" fill="#EB9481"/>
<path d="M259.432 82.9757C254.407 78.1729 243.545 68.0499 231.723 62.8775C218.644 57.188 191.97 49.6511 187.832 59.3308C184.802 66.4243 194.777 70.1927 194.777 70.1927C194.777 70.1927 183.103 69.4538 181.773 76.3995C180.59 82.7541 188.423 85.2663 188.423 85.2663C188.423 85.2663 181.256 86.0053 181.256 92.3598C181.256 100.044 196.329 97.2366 203.053 104.921C204.605 106.768 259.432 82.9757 259.432 82.9757Z" fill="#EB9481"/>
<path d="M228.028 77.7297C222.56 73.9613 207.856 68.5673 195.073 70.0451C194.777 70.0451 194.629 70.3406 194.925 70.3406C209.407 71.7445 222.56 75.8085 228.028 77.8036C228.028 77.8775 228.102 77.7297 228.028 77.7297Z" fill="#414042"/>
<path d="M221.893 90.7348C216.795 88.0008 201.426 83.124 188.495 85.0452C188.199 85.1191 188.125 85.3407 188.347 85.3407C203.494 86.1535 216.204 89.1092 221.819 90.8086C221.893 90.8825 221.967 90.7348 221.893 90.7348Z" fill="#414042"/>
<path d="M245.835 203.937C232.904 195.883 219.16 179.627 203.422 126.278L264.898 114.751C267.263 125.982 271.622 149.332 270.884 160.12C269.332 183.469 254.628 209.331 245.835 203.937Z" fill="#178B87"/>
<path opacity="0.6" d="M245.835 203.937C232.904 195.883 219.16 179.627 203.422 126.278L264.898 114.751C267.263 125.982 271.622 149.332 270.884 160.12C269.332 183.469 254.628 209.331 245.835 203.937Z" fill="white"/>
<path d="M267.338 121.475L211.698 160.858C211.698 160.858 236.082 205.931 247.831 205.266C259.653 204.675 270.959 176.301 271.402 158.789C271.771 141.277 267.338 121.475 267.338 121.475Z" fill="#414042"/>
<path d="M217.758 171.425C218.792 173.124 219.901 174.971 221.083 176.893L270.516 141.647C270.22 139.135 269.925 136.696 269.629 134.479L217.758 171.425Z" fill="#1FB9B3"/>
<path d="M217.168 157.016C215.173 158.198 213.252 159.528 211.257 160.784C212.956 164.405 214.803 167.951 216.798 171.35C222.636 181.399 229.507 190.931 237.783 199.133C233.054 193.074 228.473 186.793 224.261 180.365C219.976 173.937 215.912 167.36 212.069 160.71L211.922 161.153C213.621 159.75 215.394 158.42 217.168 157.016Z" fill="#1FB9B3"/>
<path d="M244.947 193.594C244.947 193.594 225.514 198.693 223.223 181.402C223.297 181.328 238.667 177.043 244.947 193.594Z" fill="#DBDBDB"/>
<path d="M182.141 240.368C181.181 240.59 172.757 215.836 176.895 210.812C181.033 205.787 194.112 210.59 195.959 217.831C197.585 224.186 185.023 239.629 182.141 240.368Z" fill="#178B87"/>
<path opacity="0.1" d="M183.176 239.186C182.659 239.777 186.28 215.245 193.152 215.097C195.442 215.023 199.876 220.787 183.176 239.186Z" fill="black"/>
<path d="M182.881 238.814C182.66 237.854 156.65 240.883 153.916 246.72C151.108 252.558 161.084 262.385 168.399 260.907C174.827 259.577 183.473 241.622 182.881 238.814Z" fill="#178B87"/>
<path opacity="0.1" d="M182.29 240.218C182.585 239.479 161.896 253.297 164.778 259.503C165.664 261.572 172.832 263.124 182.29 240.218Z" fill="black"/>
<path d="M144.973 295.046C144.973 295.046 146.082 313.593 164.333 308.051L244.947 193.594C244.947 193.594 241.622 179.999 223.223 181.402L144.973 295.046Z" fill="#EBEBEB"/>
<path d="M185.557 234.136L207.064 248.764L201.08 257.562L179.573 242.934L185.557 234.136Z" fill="#178B87"/>
<path d="M41.8955 285.883C53.3485 294.233 71.5256 290.981 127.091 283.445C134.776 282.41 142.017 226.105 133.741 226.77C123.323 227.657 83.0525 233.273 80.1708 234.086C55.7869 240.662 34.137 280.193 41.8955 285.883Z" fill="#EB9481"/>
<path d="M125.613 230.243C125.613 230.243 145.268 220.342 157.238 218.273C173.198 215.539 188.124 219.824 194.257 221.967C207.114 226.474 234.971 246.203 230.685 255.292C226.769 263.494 199.282 241.844 199.282 241.844C199.282 241.844 230.981 259.282 224.478 268.223C217.976 277.237 187.533 250.267 187.533 250.267C187.533 250.267 219.676 268.888 211.474 277.089C205.341 283.296 176.302 260.464 176.302 260.464C176.302 260.464 203.789 276.646 197.73 283.296C191.006 290.611 162.928 271.252 162.928 271.252C144.677 285.587 130.12 284.922 119.85 283.222C117.485 282.853 125.613 230.243 125.613 230.243Z" fill="#EB9481"/>
<path d="M188.717 235.047C192.485 236.968 196.401 238.889 199.948 241.106C203.569 243.323 207.115 245.687 210.514 248.273C218.79 254.554 223.002 259.8 222.706 259.505C215.687 252.485 202.903 244.283 199.283 242.066C195.662 239.85 192.189 237.411 188.569 235.195C188.569 235.195 188.643 235.047 188.717 235.047Z" fill="#414042"/>
<path d="M180.367 247.978C185.096 250.638 189.899 253.076 194.554 255.958C199.135 258.84 203.273 261.943 207.632 265.046C208.002 265.268 207.706 265.416 207.411 265.194C202.903 262.239 198.47 259.8 193.963 256.845C189.455 253.963 184.948 250.786 180.367 248.052C180.219 248.052 180.293 247.904 180.367 247.978Z" fill="#414042"/>
<path d="M171.204 257.731C178.667 261.425 185.391 266.45 191.967 271.548C192.263 271.77 191.967 271.918 191.598 271.622C184.8 266.893 179.48 263.125 171.056 257.952C170.982 257.952 171.056 257.657 171.204 257.731Z" fill="#414042"/>
<path d="M41.8968 285.883C53.3499 294.232 68.3496 296.006 123.989 288.469L130.787 225.884C120.369 226.77 83.1277 233.273 80.246 234.086C55.7883 240.662 34.1383 280.193 41.8968 285.883Z" fill="#178B87"/>
<path opacity="0.6" d="M41.8968 285.883C53.3499 294.232 68.3496 296.006 123.989 288.469L130.787 225.884C120.369 226.77 83.1277 233.273 80.246 234.086C55.7883 240.662 34.1383 280.193 41.8968 285.883Z" fill="white"/>
<path d="M116.82 226.771L106.476 305.094C106.476 305.094 47.6588 297.04 40.2698 284.553C36.4275 278.051 52.9051 245.021 75.3678 235.785C83.8652 232.312 116.82 226.771 116.82 226.771Z" fill="#414042"/>
<path d="M116.82 226.771C105.22 228.544 93.6926 230.539 82.3135 233.199C79.4317 233.938 76.4761 234.455 73.8161 235.711C65.762 239.554 59.3335 246.056 53.9395 253.002C56.0085 250.933 58.0774 248.864 60.2941 246.943C64.5797 243.174 69.2349 239.48 74.4811 237.041C77.0672 235.859 79.949 235.268 82.7568 234.529C93.9882 231.869 105.441 229.431 116.82 226.771Z" fill="#1FB9B3"/>
<path d="M87.0443 301.769C89.261 302.213 91.3299 302.582 93.325 302.952L104.482 228.987C102.34 229.357 100.123 229.8 97.8323 230.243L87.0443 301.769Z" fill="#1FB9B3"/>
<path d="M108.988 285.884C107.806 292.238 106.845 298.593 105.885 304.948L106.55 304.43C102.116 303.691 97.683 302.879 93.2496 302.14C80.0232 299.627 66.649 297.263 53.866 292.903C66.2796 298.445 79.7276 301.105 93.0279 303.544C97.683 304.356 102.338 305.095 106.993 305.686C107.732 299.11 108.471 292.534 108.988 285.884Z" fill="#1FB9B3"/>
<path d="M251.156 29.0389L246.871 28.3L245.91 23.7188L244.949 28.3L240.664 29.0389L244.949 30.0733L245.91 34.359L246.871 30.0733L251.156 29.0389Z" fill="#178B87"/>
<path d="M256.254 202.164L251.968 201.425L251.008 196.844L250.047 201.425L245.688 202.164L249.973 203.272L251.008 207.484L251.968 203.272L256.254 202.164Z" fill="#178B87"/>
<path d="M42.8613 179.996L38.5757 179.183L37.6151 174.676L36.6545 179.183L32.295 179.996L36.5806 181.03L37.6151 185.316L38.5757 181.03L42.8613 179.996Z" fill="#178B87"/>
<path d="M99.9043 38.4949L95.5448 37.756L94.5842 33.1748L93.6236 37.756L89.338 38.4949L93.6236 39.6033L94.5842 43.815L95.6187 39.6033L99.9043 38.4949Z" fill="#178B87"/>
<path d="M292.389 223.667L289.95 223.223L289.433 220.711L288.916 223.223L286.477 223.667L288.916 224.258L289.433 226.622L289.95 224.258L292.389 223.667Z" fill="#178B87"/>
<path d="M271.33 97.8293L268.966 97.386L268.448 94.7998L267.857 97.386L265.493 97.8293L267.857 98.4204L268.448 100.785L268.966 98.4204L271.33 97.8293Z" fill="#178B87"/>
<path d="M188.869 36.0562L186.505 35.6129L185.914 33.1006L185.396 35.6129L183.032 36.0562L185.396 36.6473L185.914 39.0118L186.505 36.6473L188.869 36.0562Z" fill="#178B87"/>
<path d="M60.7422 224.551L58.3038 224.108L57.7866 221.521L57.2693 224.108L54.8309 224.551L57.2693 225.142L57.7866 227.507L58.3038 225.142L60.7422 224.551Z" fill="#178B87"/>
<path d="M97.541 139.429L95.1765 138.986L94.5854 136.474L94.0682 138.986L91.7036 139.429L94.0682 140.02L94.5854 142.459L95.1765 140.02L97.541 139.429Z" fill="#178B87"/>
<path d="M22.6133 132.854L20.2488 132.411L19.6577 129.898L19.1404 132.411L16.7759 132.854L19.1404 133.445L19.6577 135.884L20.2488 133.445L22.6133 132.854Z" fill="#178B87"/>
<path d="M56.8242 73.815L54.3858 73.3717L53.8686 70.8594L53.3514 73.3717L50.913 73.815L53.3514 74.4061L53.8686 76.7706L54.3858 74.4061L56.8242 73.815Z" fill="#178B87"/>
<path d="M196.258 295.487L193.819 295.044L193.302 292.531L192.785 295.044L190.347 295.487L192.785 296.078L193.302 298.442L193.893 296.078L196.258 295.487Z" fill="#178B87"/>
<path d="M24.9053 182.361C24.0186 182.361 24.0186 180.957 24.9053 180.957C25.792 180.957 25.792 182.361 24.9053 182.361Z" fill="#178B87"/>
<path d="M202.538 198.986C201.651 198.986 201.651 197.582 202.538 197.582C203.425 197.582 203.425 198.986 202.538 198.986Z" fill="#178B87"/>
<path d="M288.769 105.071C287.882 105.071 287.882 103.667 288.769 103.667C289.655 103.667 289.655 105.071 288.769 105.071Z" fill="#178B87"/>
<path d="M52.8369 107.953C51.9503 107.953 51.9503 106.549 52.8369 106.549C53.7236 106.549 53.7236 107.953 52.8369 107.953Z" fill="#178B87"/>
<path d="M81.9466 146.745C81.2815 146.745 81.2815 145.784 81.9466 145.784C82.6116 145.784 82.6116 146.745 81.9466 146.745Z" fill="#178B87"/>
<path d="M143.277 13.6686C142.612 13.6686 142.612 12.708 143.277 12.708C143.942 12.708 143.942 13.6686 143.277 13.6686Z" fill="#178B87"/>
<path d="M101.085 19.9501C99.3853 19.9501 99.3853 17.29 101.085 17.29C102.784 17.29 102.784 19.9501 101.085 19.9501Z" fill="#178B87"/>
<path d="M200.838 157.606C199.138 157.606 199.138 154.946 200.838 154.946C202.611 154.946 202.611 157.606 200.838 157.606Z" fill="#178B87"/>
<path d="M6.05984 52.1677C8.12877 71.6748 25.5669 85.8618 45.1479 83.8668C53.0542 83.054 60.0738 79.655 65.4678 74.7043L83.2754 77.2905L74.4085 61.9213C76.5514 56.6751 77.5119 50.8377 76.8469 44.7787C74.778 25.2716 57.3398 11.0846 37.7588 13.0797C18.2518 15.1486 4.06479 32.6607 6.05984 52.1677Z" fill="white"/>
<path d="M6.05955 52.1673C6.79846 58.6696 9.16296 65.0242 13.2269 70.1965C14.1875 71.5266 15.3698 72.7088 16.4781 73.8911C17.7343 74.9994 18.8426 76.1817 20.2465 77.0684C22.8327 79.0634 25.7883 80.6151 28.8178 81.8712C31.8473 83.1274 35.0985 83.7924 38.4236 84.1618C40.0492 84.2357 41.7487 84.3835 43.3742 84.2357C44.9998 84.1618 46.6993 84.0141 48.3249 83.7185C54.8273 82.5363 60.9602 79.5067 65.9108 74.9994L65.4675 75.1472L83.2751 77.8812L84.5312 78.1028L83.8662 76.9945L74.9994 61.5514L75.0733 62.1425C79.3589 52.0195 78.3983 39.9014 72.8565 30.4435C70.1226 25.7145 66.2803 21.6505 61.6991 18.621C57.1918 15.5915 51.8717 13.6703 46.5515 12.9314C41.1575 12.1925 35.6157 12.7097 30.4434 14.4092C25.2711 16.1087 20.616 19.0643 16.6998 22.8327C8.86739 30.2218 4.9512 41.4531 6.05955 52.1673ZM6.05955 52.1673C4.9512 41.4531 9.01518 30.2957 16.8476 22.9805C20.7638 19.286 25.4928 16.4782 30.5912 14.9265C35.6896 13.3009 41.1575 12.9314 46.4038 13.7442C51.65 14.557 56.7484 16.4782 61.108 19.5816C65.4675 22.6111 69.0881 26.6011 71.7482 31.1824C74.4082 35.7636 75.8122 41.0098 76.2555 46.256C76.625 51.5022 75.7383 56.8224 73.7432 61.773L73.5954 62.0686L73.7432 62.3641L82.7579 77.5856L83.4229 76.625L65.6153 74.1127H65.3936L65.2458 74.2605C60.5168 78.6939 54.6056 81.7973 48.251 83.0535C46.6254 83.349 45.0737 83.5707 43.4481 83.6446C41.8225 83.7924 40.197 83.7185 38.5714 83.6446C35.3202 83.349 32.069 82.7579 29.0395 81.5757C26.01 80.4673 23.0544 78.9156 20.4682 76.9206C19.1382 76.0339 17.9559 74.8516 16.6998 73.8172C15.5914 72.6349 14.4092 71.4527 13.4486 70.1226C9.31074 64.9503 6.87235 58.6696 6.05955 52.1673Z" fill="#414042"/>
<path d="M26.3799 55.1968C33.1778 64.2114 41.3057 68.1276 41.3057 68.1276C41.3057 68.1276 49.4337 64.1375 56.2316 55.1968C61.4778 48.2511 61.2562 37.3153 53.7193 34.9508C45.3697 32.3646 41.3057 44.8521 41.3057 44.8521C41.3057 44.8521 37.1679 32.2169 28.8921 34.9508C21.4292 37.3892 21.1336 48.1772 26.3799 55.1968Z" fill="#178B87"/>
</g>
<defs>
<clipPath id="clip0_913_71791">
<rect width="309.084" height="310.709" fill="white" transform="matrix(-1 0 0 1 309.086 0)"/>
</clipPath>
</defs>
</svg>
