<svg width="26" height="20" viewBox="0 0 26 20" fill="none" xmlns="http://www.w3.org/2000/svg">
<path d="M24.4837 8.125H21.9872V5.625C21.9872 5.28125 21.7064 5 21.3631 5H20.1148C19.7715 5 19.4907 5.28125 19.4907 5.625V8.125H16.9942C16.6509 8.125 16.37 8.40625 16.37 8.75V10C16.37 10.3438 16.6509 10.625 16.9942 10.625H19.4907V13.125C19.4907 13.4688 19.7715 13.75 20.1148 13.75H21.3631C21.7064 13.75 21.9872 13.4688 21.9872 13.125V10.625H24.4837C24.827 10.625 25.1079 10.3438 25.1079 10V8.75C25.1079 8.40625 24.827 8.125 24.4837 8.125ZM8.88043 10C11.6383 10 13.8735 7.76172 13.8735 5C13.8735 2.23828 11.6383 0 8.88043 0C6.12255 0 3.88737 2.23828 3.88737 5C3.88737 7.76172 6.12255 10 8.88043 10ZM12.3756 11.25H11.7241C10.8582 11.6484 9.89465 11.875 8.88043 11.875C7.86622 11.875 6.90661 11.6484 6.03673 11.25H5.38529C2.49088 11.25 0.142578 13.6016 0.142578 16.5V18.125C0.142578 19.1602 0.981256 20 2.01498 20H15.7459C16.7796 20 17.6183 19.1602 17.6183 18.125V16.5C17.6183 13.6016 15.27 11.25 12.3756 11.25Z" fill="#414042"/>
</svg>
