<?xml version="1.0" encoding="utf-8"?>

<!-- Uploaded to: SVG Repo, www.svgrepo.com, Generator: SVG Repo Mixer Tools -->
<svg version="1.1" id="Icons" xmlns="http://www.w3.org/2000/svg" xmlns:xlink="http://www.w3.org/1999/xlink" 
	 viewBox="0 0 32 32" xml:space="preserve">
<style type="text/css">
	.st0{fill:none;stroke:#000000;stroke-width:2;stroke-linecap:round;stroke-linejoin:round;stroke-miterlimit:10;}
	.st1{fill:none;stroke:#000000;stroke-width:2;stroke-linecap:round;stroke-linejoin:round;}
	.st2{fill:none;stroke:#000000;stroke-width:2;stroke-linecap:round;stroke-linejoin:round;stroke-dasharray:5.2066,0;}
</style>
<circle class="st0" cx="16" cy="26" r="3"/>
<circle class="st0" cx="26" cy="26" r="3"/>
<circle class="st0" cx="6" cy="26" r="3"/>
<g>
	<g>
		<line class="st1" x1="16" y1="23" x2="16" y2="19.5"/>
		<line class="st1" x1="16" y1="19.5" x2="16" y2="19.5"/>
		<polyline class="st1" points="16,19.5 16,16 13.1,18 		"/>
		<line class="st2" x1="13.1" y1="18" x2="8.9" y2="21"/>
		<line class="st1" x1="8.9" y1="21" x2="6" y2="23"/>
	</g>
</g>
<g>
	<g>
		<line class="st1" x1="16" y1="16" x2="18.9" y2="18"/>
		<line class="st2" x1="18.9" y1="18" x2="23.1" y2="21"/>
		<line class="st1" x1="23.1" y1="21" x2="26" y2="23"/>
	</g>
</g>
<path class="st0" d="M17.3,8.6c0,1,0.6,1.8,1.6,2.1c1.1,0.3,1.9,1.2,2.2,2.3l-10,0c0.2-1.1,1.1-2,2.1-2.3c0.9-0.3,1.6-1.1,1.6-2.1v0
	"/>
<path class="st0" d="M16,9L16,9c-1.1,0-2-0.9-2-2V5c0-1.1,0.9-2,2-2h0c1.1,0,2,0.9,2,2v2C18,8.1,17.1,9,16,9z"/>
</svg>