<svg width="62" height="47" viewBox="0 0 62 47" fill="none" xmlns="http://www.w3.org/2000/svg">
<path d="M0 30.9135C0 39.4234 6.11624 46.5439 13.2519 46.5439C20.2176 46.5439 25.4844 41.1601 25.4844 34.2132C25.4844 26.7454 19.0283 21.7089 10.5335 21.1879C12.7422 15.6304 16.4799 9.72558 23.7854 2.25772L21.5768 0C7.47541 8.16254 0 20.4932 0 30.9135ZM36.3577 30.9135C36.3577 39.4234 42.4739 46.5439 49.6095 46.5439C56.5753 46.5439 61.842 41.1601 61.842 34.2132C61.842 26.7454 55.386 21.7089 46.8912 21.1879C49.0999 15.6304 52.8376 9.72558 60.1431 2.25772L57.9344 0C43.8331 8.16254 36.3577 20.4932 36.3577 30.9135Z" 
fill="currentColor"/>
</svg>
