<svg width="16" height="15" viewBox="0 0 16 15" fill="none" xmlns="http://www.w3.org/2000/svg">
<g clip-path="url(#clip0_16255_142575)">
<path d="M7.91191 2.96736C7.86829 2.92563 7.81026 2.90234 7.7499 2.90234C7.68954 2.90234 7.63151 2.92563 7.58789 2.96736L2.19434 8.11979C2.17143 8.14171 2.15321 8.16804 2.14077 8.19719C2.12833 8.22635 2.12194 8.25773 2.12197 8.28942L2.12109 13.1252C2.12109 13.3738 2.21987 13.6123 2.39568 13.7881C2.5715 13.9639 2.80995 14.0627 3.05859 14.0627H5.87402C5.99834 14.0627 6.11757 14.0133 6.20548 13.9254C6.29339 13.8375 6.34277 13.7182 6.34277 13.5939V9.60954C6.34277 9.54738 6.36747 9.48777 6.41142 9.44381C6.45537 9.39986 6.51499 9.37517 6.57715 9.37517H8.9209C8.98306 9.37517 9.04267 9.39986 9.08662 9.44381C9.13058 9.48777 9.15527 9.54738 9.15527 9.60954V13.5939C9.15527 13.7182 9.20466 13.8375 9.29256 13.9254C9.38047 14.0133 9.4997 14.0627 9.62402 14.0627H12.4383C12.6869 14.0627 12.9254 13.9639 13.1012 13.7881C13.277 13.6123 13.3758 13.3738 13.3758 13.1252V8.28942C13.3758 8.25773 13.3694 8.22635 13.357 8.19719C13.3445 8.16804 13.3263 8.14171 13.3034 8.11979L7.91191 2.96736Z" fill="blue"/>
<path d="M14.6321 7.15283L12.4407 5.05635V1.875C12.4407 1.75068 12.3913 1.63145 12.3034 1.54354C12.2155 1.45564 12.0963 1.40625 11.972 1.40625H10.5657C10.4414 1.40625 10.3222 1.45564 10.2343 1.54354C10.1464 1.63145 10.097 1.75068 10.097 1.875V2.8125L8.40011 1.19004C8.24132 1.02949 8.00518 0.9375 7.75001 0.9375C7.49571 0.9375 7.26016 1.02949 7.10138 1.19033L0.869933 7.15225C0.687706 7.32803 0.664855 7.61719 0.830675 7.80762C0.872315 7.85568 0.9233 7.89477 0.980528 7.92251C1.03776 7.95025 1.10003 7.96605 1.16356 7.96896C1.22709 7.97186 1.29054 7.96181 1.35006 7.93941C1.40958 7.91701 1.46392 7.88274 1.50978 7.83867L7.58888 2.02969C7.63249 1.98796 7.69053 1.96468 7.75089 1.96468C7.81125 1.96468 7.86928 1.98796 7.9129 2.02969L13.9926 7.83867C14.0821 7.92455 14.2021 7.97142 14.3262 7.96901C14.4502 7.96659 14.5683 7.91509 14.6544 7.82578C14.8343 7.63945 14.8193 7.33183 14.6321 7.15283Z" fill="blue"/>
</g>
<defs>
<clipPath id="clip0_16255_142575">
<rect width="15" height="15" fill="blue" transform="translate(0.25)"/>
</clipPath>
</defs>
</svg>
