<svg width="24" height="28" viewBox="0 0 24 28" fill="none" xmlns="http://www.w3.org/2000/svg">
<path d="M3.80286 23.1679C5.40674 21.6864 4.94882 19.5352 4.69417 17.4496C4.3629 14.7505 6.78849 12.663 9.13624 13.6301L11.6815 14.6779C8.34966 16.8914 11.1775 21.0314 10.1015 23.9503C9.6844 25.0809 8.49515 25.622 7.43367 25.2064C6.33333 24.7755 4.77191 24.1631 3.9102 23.826C3.65106 23.7232 3.59477 23.3598 3.80286 23.1679Z" fill="#1FB9B3" fill-opacity="0.5"/>
<path d="M20.6181 5.09819C19.0143 6.57975 19.4722 8.73094 19.7268 10.8166C20.0581 13.5156 17.6314 15.6019 15.2848 14.6361L12.7395 13.5882C16.0703 11.3735 13.2424 7.2335 14.3184 4.31466C14.7355 3.18404 15.9248 2.64292 16.9863 3.05848C18.0866 3.48946 19.648 4.10177 20.5097 4.43887C20.7689 4.54167 20.8262 4.9063 20.6181 5.09819Z" fill="#1FB9B3" fill-opacity="0.5"/>
<path d="M20.5225 23.2854C19.1456 21.528 17.1689 22.0073 15.2518 22.2652C12.772 22.6021 10.83 19.9463 11.6967 17.4037L12.637 14.646C14.7052 18.2878 18.4908 15.251 21.1856 16.4478C22.2299 16.9112 22.7386 18.2085 22.3647 19.3593C21.9791 20.55 21.4296 22.2413 21.1272 23.1747C21.036 23.4542 20.701 23.5132 20.5225 23.2854Z" fill="#1FB9B3" fill-opacity="0.5"/>
<path d="M3.90624 5.0126C5.28524 6.77009 7.25979 6.29065 9.17689 6.03274C11.6578 5.69708 13.5998 8.35291 12.732 10.8943L11.7906 13.6508C9.72243 10.0113 5.93787 13.047 3.24196 11.8513C2.19769 11.3879 1.68897 10.0907 2.06184 8.94092C2.44854 7.74907 2.99798 6.05782 3.30044 5.12445C3.39271 4.84378 3.72665 4.78589 3.90624 5.0126Z" fill="#1FB9B3" fill-opacity="0.5"/>
</svg>
