<svg width="345" height="308" viewBox="0 0 345 308" fill="none" xmlns="http://www.w3.org/2000/svg">
<g clip-path="url(#clip0_1111_64572)">
<path d="M51.3811 85.5256C38.2101 103.894 28.2428 124.327 22.6896 145.828C18.3467 162.487 -1.73031 258.458 135.462 280.6C283.833 304.592 314.802 239.663 323.844 182.564C339.721 82.2506 292.376 24.2267 224.67 8.91982C194.554 2.0851 162.516 4.57693 134.679 17.036C102.072 31.7022 72.5972 55.9085 51.3811 85.5256Z" fill="#F6F8F9" fill-opacity="0.2"/>
<path d="M245.031 69.3682C245.031 69.3682 255.853 70.3649 266.675 74.6366C277.496 78.9083 283.975 88.5196 296.861 91.3674C296.861 91.3674 313.022 111.302 296.861 141.631L274.221 138.214C270.875 137.715 267.529 137.787 264.254 138.57C259.769 139.638 251.795 140.634 240.617 138.854L245.031 69.3682Z" fill="#FFA8A7"/>
<path d="M164.936 151.171L182.094 161.138V230.34L164.865 220.159L164.936 151.171Z" fill="#158681"/>
<path opacity="0.2" d="M164.936 151.171L182.094 161.138V230.34L164.865 220.159L164.936 151.171Z" fill="#414042"/>
<path d="M169.137 162.346L175.545 140.987C180.172 134.509 183.163 126.464 183.163 119.415C183.163 107.739 174.975 103.041 164.865 108.879C154.756 114.717 146.568 128.884 146.568 140.56C146.568 146.256 148.562 150.314 151.766 152.307C151.837 152.379 151.979 152.45 152.05 152.45L169.137 162.346Z" fill="#158681"/>
<path d="M164.936 39.8223L182.094 49.8608V118.991L164.865 108.881L164.936 39.8223Z" fill="#158681"/>
<path opacity="0.2" d="M164.936 39.8223L182.094 49.8608V118.991L164.865 108.881L164.936 39.8223Z" fill="#414042"/>
<path d="M238.267 44.8788L237.982 44.7364C238.054 44.8076 238.125 44.8788 238.267 44.8788Z" fill="#FFA8A7"/>
<path d="M236.986 44.1654L221.323 35.0525C207.084 26.2243 187.149 27.1498 165.008 39.8937C165.008 39.8937 164.937 39.8937 164.937 39.9649L182.166 49.9322C203.524 37.5443 222.818 36.2628 236.986 44.1654Z" fill="#158681"/>
<path d="M236.985 44.1661L237.982 44.7356C237.626 44.5221 237.27 44.3797 236.985 44.1661Z" fill="#FFA8A7"/>
<path d="M238.197 44.8785C238.125 44.8073 238.054 44.8073 237.912 44.7361L236.915 44.1665C222.819 36.2639 203.454 37.5454 182.095 49.8621V63.4603V70.8646V80.7607V88.165V98.0611V105.465V118.992C171.985 124.83 163.869 138.998 163.869 150.603C163.869 162.208 172.057 166.978 182.095 161.14V174.667V182.071V191.967V199.371V208.2V209.268V216.672V230.27C225.239 205.352 260.267 144.765 260.267 94.9285C260.267 70.5798 251.866 53.2795 238.197 44.8785Z" fill="#158681"/>
<path opacity="0.3" d="M238.197 44.8785C238.125 44.8073 238.054 44.8073 237.912 44.7361L236.915 44.1665C222.819 36.2639 203.454 37.5454 182.095 49.8621V63.4603V70.8646V80.7607V88.165V98.0611V105.465V118.992C171.985 124.83 163.869 138.998 163.869 150.603C163.869 162.208 172.057 166.978 182.095 161.14V174.667V182.071V191.967V199.371V208.2V209.268V216.672V230.27C225.239 205.352 260.267 144.765 260.267 94.9285C260.267 70.5798 251.866 53.2795 238.197 44.8785Z" fill="white"/>
<path d="M242.682 75.4931C239.264 68.7296 234.494 63.4611 228.443 59.9726C215.841 52.7107 199.466 53.9922 182.166 63.4611V70.8654C182.664 70.5094 183.234 70.2246 183.803 69.9399C193.272 64.4579 202.314 61.7524 210.43 61.7524C215.912 61.7524 220.896 63.034 225.31 65.5258C235.562 71.435 241.543 83.8941 242.183 100.625C242.255 101.622 242.255 102.618 242.255 103.686C242.255 142.274 215.485 189.191 182.308 209.34V216.673C182.807 216.388 183.376 216.103 183.946 215.747C219.686 195.101 248.733 144.837 248.733 103.544C248.52 92.6511 246.455 83.1109 242.682 75.4931Z" fill="white"/>
<path d="M233.497 112.227C233.497 96.1372 227.943 84.1052 217.762 78.2672C208.009 72.6428 195.407 73.5684 182.094 80.759V88.1633C182.592 87.8073 183.162 87.5226 183.731 87.1666C190.851 83.0373 197.614 80.9726 203.666 80.9726C207.724 80.9726 211.426 81.8982 214.63 83.7492C222.675 88.3769 227.16 98.4866 227.16 112.156C227.16 141.204 207.154 176.516 182.165 191.894V199.299C182.663 199.014 183.233 198.729 183.802 198.373C211.212 182.639 233.497 143.98 233.497 112.227Z" fill="white"/>
<path d="M218.547 120.914C218.547 109.452 214.489 100.837 207.227 96.6369C200.321 92.65 191.421 93.1483 182.166 98.0608V105.465C182.664 105.109 183.234 104.824 183.803 104.468C188.574 101.763 193.059 100.339 197.046 100.339C199.68 100.339 202.029 100.909 204.094 102.119C209.362 105.18 212.21 111.801 212.21 120.843C212.21 140.351 198.897 164.058 182.166 174.667V182.071C182.664 181.786 183.234 181.501 183.803 181.216C202.955 170.11 218.547 143.056 218.547 120.914Z" fill="white"/>
<path d="M195.068 147.635C202.204 135.274 202.193 121.907 195.042 117.779C187.892 113.65 176.309 120.323 169.173 132.684C162.036 145.044 162.048 158.411 169.198 162.54C176.349 166.669 187.931 159.995 195.068 147.635Z" fill="white"/>
<path d="M188.656 143.718C192.273 137.452 192.28 130.684 188.67 128.6C185.061 126.516 179.203 129.906 175.585 136.171C171.968 142.436 171.961 149.205 175.571 151.289C179.18 153.373 185.038 149.983 188.656 143.718Z" fill="#158681"/>
<path opacity="0.3" d="M188.656 143.718C192.273 137.452 192.28 130.684 188.67 128.6C185.061 126.516 179.203 129.906 175.585 136.171C171.968 142.436 171.961 149.205 175.571 151.289C179.18 153.373 185.038 149.983 188.656 143.718Z" fill="white"/>
<path d="M263.755 87.2393L255.354 84.8899C253.361 84.3203 251.225 84.1779 249.161 84.4627C243.18 85.317 230.579 87.0257 227.731 87.3817C223.886 87.8801 221.964 92.9349 224.598 97.1354C227.232 101.336 233.498 106.96 252.791 105.536C252.791 105.536 262.26 130.099 285.755 116.5C292.661 112.442 287.819 95.0707 263.755 87.2393Z" fill="#FFA8A7"/>
<path d="M269.379 89.3725C267.67 88.5894 265.748 87.8774 263.754 87.2367L258.984 85.884" stroke="#F28F8F" stroke-width="1.85598" stroke-miterlimit="10" stroke-linecap="round" stroke-linejoin="round"/>
<path d="M256.992 112.51C261.121 117.636 268.526 123.118 279.846 119.202" stroke="#F28F8F" stroke-width="1.85598" stroke-miterlimit="10" stroke-linecap="round" stroke-linejoin="round"/>
<path d="M297.644 93.926C299.708 101.117 304.478 122.333 293.87 138.067C292.731 139.847 290.595 140.701 288.531 140.416L285.256 139.918C285.256 141.413 286.253 142.695 287.748 142.979L321.28 150.312V87.4473L290.667 89.4407L292.66 90.2951C293.23 90.5086 293.799 90.7222 294.369 90.8646C295.935 91.1494 297.217 92.3597 297.644 93.926Z" fill="#158681"/>
<path d="M310.46 92.1459C313.236 100.547 317.935 121.193 306.971 142.908C305.832 145.186 303.269 146.325 300.848 145.827L298.57 145.329C298.356 147.18 299.709 148.888 301.56 149.102L338.795 152.946C338.795 152.946 344.135 144.545 344.135 117.278C344.135 90.0101 336.446 84.884 336.446 84.884L305.903 85.952C304.479 86.0232 303.411 87.1623 303.411 88.5862L305.049 88.515C307.398 88.3014 309.676 89.7965 310.46 92.1459Z" fill="#414042"/>
<path d="M324.057 142.483C324.057 144.975 322.064 146.969 319.572 146.969C317.08 146.969 315.087 144.975 315.087 142.483C315.087 139.992 317.08 137.998 319.572 137.998C322.064 137.998 324.057 139.992 324.057 142.483Z" fill="white"/>
<path d="M266.176 87.3071C266.603 85.6697 266.318 83.961 265.535 82.4659" stroke="#F28F8F" stroke-width="1.85598" stroke-miterlimit="10" stroke-linecap="round" stroke-linejoin="round"/>
<path d="M276.499 128.67C276.143 132.159 273.936 135.434 270.804 137.142" stroke="#F28F8F" stroke-width="1.85598" stroke-miterlimit="10" stroke-linecap="round" stroke-linejoin="round"/>
<path d="M239.763 87.3779C240.261 88.2323 240.617 89.229 240.831 90.2257C240.902 90.6529 240.973 91.1513 240.831 91.5072C240.546 92.2192 239.763 92.4328 239.051 92.6464C236.915 93.2159 234.779 93.7855 232.572 93.6431C230.365 93.5007 228.158 92.4328 227.161 90.5105" stroke="#F28F8F" stroke-width="1.23732" stroke-miterlimit="10" stroke-linecap="round" stroke-linejoin="round"/>
<path d="M79.0046 163.057C79.0046 163.057 61.8466 170.034 58.5005 175.445C55.1543 180.855 50.5978 199.793 48.3908 212.822C46.1837 225.851 37.4268 236.245 37.4268 236.245L50.8826 249.274L83.0627 185.625L79.0046 163.057Z" fill="#FFA8A7"/>
<path d="M93.4569 190.464C93.4569 140.628 128.414 80.0407 171.629 55.1225L154.4 45.1552C111.256 70.0734 76.3701 130.66 76.3701 180.426C76.3701 206.412 85.839 224.282 101.075 231.971L116.239 240.87C102.143 232.754 93.4569 215.24 93.4569 190.464Z" fill="#158681"/>
<path opacity="0.3" d="M93.4569 190.464C93.4569 140.628 128.414 80.0407 171.629 55.1225L154.4 45.1552C111.256 70.0734 76.3701 130.66 76.3701 180.426C76.3701 206.412 85.839 224.282 101.075 231.971L116.239 240.87C102.143 232.754 93.4569 215.24 93.4569 190.464Z" fill="white"/>
<path d="M93.457 190.466C93.457 215.313 102.143 232.755 116.168 240.943C130.336 249.201 149.915 248.062 171.558 235.532V221.934V214.529V213.462V204.633V197.229V187.333V179.929V166.402C161.448 172.24 153.332 167.47 153.332 155.865C153.332 144.26 161.519 130.092 171.558 124.254V110.727V103.323V93.4268V86.0226V76.1265V68.7222V55.124C128.414 80.0422 93.457 140.629 93.457 190.466Z" fill="#158681"/>
<path d="M171.629 76.1239V68.7197C171.131 69.0044 170.561 69.2892 170.063 69.6452C134.323 90.2917 105.275 140.555 105.275 181.848C105.275 202.495 112.395 218.015 125.352 225.491C130.763 228.624 136.815 230.119 143.436 230.119C144.148 230.119 144.931 230.119 145.714 230.047C153.83 229.62 162.659 226.915 171.7 221.931V214.527C171.202 214.883 170.632 215.168 170.134 215.452C169.137 216.022 168.141 216.592 167.144 217.09C152.478 224.779 138.879 225.776 128.699 219.867C117.806 213.601 111.825 200.003 111.825 181.777C111.612 143.19 138.381 96.2721 171.629 76.1239Z" fill="white"/>
<path d="M169.991 198.226C158.172 205.06 147.208 206.271 139.092 201.572C131.047 196.944 126.562 186.834 126.562 173.165C126.562 144.117 146.568 108.805 171.557 93.4265V86.0223C171.059 86.3071 170.489 86.5918 169.991 86.9478C142.51 102.824 120.226 141.483 120.226 173.165C120.226 189.255 125.779 201.287 135.96 207.125C140.16 209.546 145.001 210.756 150.127 210.756C156.82 210.756 164.153 208.691 171.628 204.633V197.229C171.059 197.585 170.56 197.87 169.991 198.226Z" fill="white"/>
<path d="M169.991 180.923C162.16 185.479 154.969 186.262 149.701 183.272C144.432 180.211 141.584 173.59 141.584 164.548C141.584 145.041 154.898 121.333 171.629 110.725V103.32C171.13 103.605 170.561 103.89 170.062 104.175C150.84 115.281 135.248 142.335 135.248 164.477C135.248 175.939 139.306 184.554 146.568 188.754C149.629 190.534 153.118 191.389 156.82 191.389C161.448 191.389 166.503 189.965 171.7 187.259V179.855C171.059 180.282 170.561 180.567 169.991 180.923Z" fill="white"/>
<path opacity="0.5" d="M93.457 190.466C93.457 215.313 102.143 232.755 116.168 240.943C130.336 249.201 149.915 248.062 171.558 235.532V221.934V214.529V213.462V204.633V197.229V187.333V179.929V166.402C161.448 172.24 153.332 167.47 153.332 155.865C153.332 144.26 161.519 130.092 171.558 124.254V110.727V103.323V93.4268V86.0226V76.1265V68.7222V55.124C128.414 80.0422 93.457 140.629 93.457 190.466Z" fill="white"/>
<path d="M108.194 219.158C115.954 217.236 122.29 207.553 122.29 207.553C122.29 207.553 129.125 180.001 139.519 180.357C141.655 180.428 143.221 182.35 143.079 184.415C142.652 188.972 137.882 206.984 135.319 215.67C132.257 226.206 113.747 242.368 113.747 242.368C113.747 242.368 100.362 221.009 108.194 219.158Z" fill="#FFA8A7"/>
<path d="M103.781 206.269C111.47 204.062 117.379 194.095 117.379 194.095C117.379 194.095 123.074 166.258 133.54 166.258C135.676 166.258 137.385 168.038 137.242 170.174C136.957 174.73 132.899 192.885 130.764 201.713C128.129 212.392 110.259 229.265 110.259 229.265C110.259 229.265 96.0204 208.476 103.781 206.269Z" fill="#FFA8A7"/>
<path d="M134.82 183.346C133.468 189.824 131.83 197.015 130.62 201.643C129.125 207.694 124.497 216.594 119.229 222.432" stroke="#F28F8F" stroke-width="2.01708" stroke-miterlimit="10" stroke-linecap="round" stroke-linejoin="round"/>
<path d="M97.8002 195.166C105.489 192.959 111.398 182.992 111.398 182.992C111.398 182.992 117.094 155.154 127.56 155.154C129.696 155.154 131.404 156.934 131.262 159.07C130.977 163.626 126.919 181.781 124.783 190.609C122.149 201.289 104.279 218.162 104.279 218.162C104.279 218.162 90.1112 197.373 97.8002 195.166Z" fill="#FFA8A7"/>
<path d="M73.3089 189.471C73.3089 189.471 78.9333 196.163 86.6224 193.956C94.3114 191.749 100.221 181.782 100.221 181.782C100.221 181.782 105.916 153.944 116.382 153.944C118.518 153.944 120.226 155.724 120.084 157.86C119.799 162.417 115.741 180.571 113.605 189.399C110.971 200.079 93.1011 216.952 93.1011 216.952L68.3965 202.072L73.3089 189.471Z" fill="#FFA8A7"/>
<path d="M113.677 242.366C113.677 242.366 98.441 258.884 67.4 269.919L50.8828 249.272L68.3256 199.649L96.3764 203.209C96.3764 203.28 121.935 216.879 113.677 242.366Z" fill="#FFA8A7"/>
<path d="M120.013 157.858C119.728 162.415 115.67 180.57 113.534 189.398C112.039 195.307 105.916 203.138 100.719 208.976" stroke="#F28F8F" stroke-width="2.01708" stroke-miterlimit="10" stroke-linecap="round" stroke-linejoin="round"/>
<path d="M129.979 166.9C128.555 174.305 126.206 184.628 124.711 190.608C122.931 197.585 116.025 209.048 110.543 214.886" stroke="#F28F8F" stroke-width="2.01708" stroke-miterlimit="10" stroke-linecap="round" stroke-linejoin="round"/>
<path d="M27.1025 244.715L38.2801 234.036C38.2801 234.036 68.6804 243.078 70.3179 271.485L60.4218 278.604L27.1025 244.715Z" fill="#158681"/>
<path opacity="0.3" d="M27.1025 244.715L38.2801 234.036C38.2801 234.036 68.6804 243.078 70.3179 271.485L60.4218 278.604L27.1025 244.715Z" fill="white"/>
<path d="M27.1743 239.876C33.653 241.584 60.5647 250.484 63.6973 283.02C63.7685 283.945 63.4837 284.871 62.8429 285.512L42.1964 306.941C42.1964 306.941 -5.36183 292.275 1.75767 256.749L24.6824 240.303C25.3944 239.876 26.3199 239.662 27.1743 239.876Z" fill="#414042"/>
<path d="M56.8623 281.164C56.8623 283.442 55.0113 285.222 52.8042 285.222C50.526 285.222 48.7461 283.371 48.7461 281.164C48.7461 278.885 50.5972 277.106 52.8042 277.106C55.0113 277.106 56.8623 278.885 56.8623 281.164Z" fill="white"/>
<path d="M71.5293 183.346C72.5972 188.258 76.5129 192.459 81.3542 193.954" stroke="#F28F8F" stroke-width="2.01708" stroke-miterlimit="10" stroke-linecap="round" stroke-linejoin="round"/>
<path d="M105.203 57.2601C107.602 57.2601 109.546 55.3157 109.546 52.9172C109.546 50.5187 107.602 48.5743 105.203 48.5743C102.805 48.5743 100.86 50.5187 100.86 52.9172C100.86 55.3157 102.805 57.2601 105.203 57.2601Z" fill="#FAFAFA"/>
<path d="M233.496 246.711C235.895 246.711 237.839 244.767 237.839 242.368C237.839 239.97 235.895 238.025 233.496 238.025C231.098 238.025 229.153 239.97 229.153 242.368C229.153 244.767 231.098 246.711 233.496 246.711Z" fill="#FAFAFA"/>
<path d="M51.8071 149.385C51.8071 151.093 50.4544 152.517 48.6746 152.517C46.9659 152.517 45.542 151.164 45.542 149.385C45.542 147.676 46.8947 146.252 48.6746 146.252C50.3832 146.323 51.8071 147.676 51.8071 149.385Z" fill="#FAFAFA"/>
<path d="M253.431 39.2468C255.161 39.2468 256.564 37.8443 256.564 36.1142C256.564 34.3841 255.161 32.9816 253.431 32.9816C251.701 32.9816 250.299 34.3841 250.299 36.1142C250.299 37.8443 251.701 39.2468 253.431 39.2468Z" fill="#FAFAFA"/>
<path d="M85.8379 93.1427C85.8379 94.353 84.8412 95.3497 83.6309 95.3497C82.4206 95.3497 81.4238 94.353 81.4238 93.1427C81.4238 91.9323 82.4206 90.9356 83.6309 90.9356C84.8412 90.9356 85.8379 91.9323 85.8379 93.1427Z" fill="#FAFAFA"/>
<path d="M220.753 234.818C220.753 236.029 219.756 237.026 218.546 237.026C217.336 237.026 216.339 236.029 216.339 234.818C216.339 233.608 217.336 232.611 218.546 232.611C219.756 232.683 220.753 233.608 220.753 234.818Z" fill="#FAFAFA"/>
<path d="M119.157 55.1239C119.157 56.3342 118.161 57.331 116.95 57.331C115.74 57.331 114.743 56.3342 114.743 55.1239C114.743 53.9136 115.74 52.9169 116.95 52.9169C118.161 52.9169 119.157 53.9136 119.157 55.1239Z" fill="#FAFAFA"/>
<path d="M252.292 222.433C252.292 223.644 251.295 224.641 250.085 224.641C248.875 224.641 247.878 223.644 247.878 222.433C247.878 221.223 248.875 220.226 250.085 220.226C251.295 220.298 252.292 221.223 252.292 222.433Z" fill="#FFBC00"/>
<path d="M70.5313 149.387C70.5313 150.597 69.5345 151.594 68.3242 151.594C67.1139 151.594 66.1172 150.597 66.1172 149.387C66.1172 148.177 67.1139 147.18 68.3242 147.18C69.5345 147.18 70.5313 148.248 70.5313 149.387Z" fill="#FFBC00"/>
<path d="M270.305 58.0391C270.305 59.2494 269.308 60.2462 268.098 60.2462C266.887 60.2462 265.891 59.2494 265.891 58.0391C265.891 56.8288 266.887 55.8321 268.098 55.8321C269.308 55.8321 270.305 56.8288 270.305 58.0391Z" fill="#FAFAFA"/>
<path d="M60.8495 121.91L66.1891 124.829L60.8495 127.748L57.9305 133.088L55.0115 127.748L49.6719 124.829L55.0115 121.91L57.9305 116.571L60.8495 121.91Z" fill="#FFBC00"/>
<path d="M203.88 251.554L209.219 254.473L203.88 257.392L200.889 262.803L197.97 257.392L192.631 254.473L197.97 251.554L200.889 246.214L203.88 251.554Z" fill="#FFBC00"/>
<path d="M221.465 5.57418L226.804 8.49317L221.465 11.4122L218.546 16.7518L215.627 11.4122L210.287 8.49317L215.627 5.57418L218.546 0.234558L221.465 5.57418Z" fill="#FFBC00"/>
<path d="M235.491 19.4587L238.125 20.8826L235.491 22.3777L233.996 25.0831L232.572 22.3777L229.866 20.8826L232.572 19.4587L233.996 16.7533L235.491 19.4587Z" fill="#158681"/>
<path d="M165.862 17.4651L169.493 19.4586L165.862 21.4521L163.869 25.083L161.875 21.4521L158.315 19.4586L161.875 17.4651L163.869 13.9054L165.862 17.4651Z" fill="#158681"/>
<path d="M165.364 253.047L167.998 254.471L165.364 255.966L163.869 258.6L162.445 255.966L159.739 254.471L162.445 253.047L163.869 250.341L165.364 253.047Z" fill="#158681"/>
<path d="M277.994 154.729L280.628 156.224L277.994 157.648L276.498 160.353L275.075 157.648L272.369 156.224L275.075 154.729L276.498 152.095L277.994 154.729Z" fill="#158681"/>
<path d="M291.734 180.29L249.801 156.227L220.824 162.421L230.08 190.543L272.085 214.606L262.829 186.484L291.734 180.29Z" fill="#158681"/>
<path opacity="0.3" d="M291.734 180.29L249.801 156.227L220.824 162.421L230.08 190.543L272.085 214.606L262.829 186.484L291.734 180.29Z" fill="#414042"/>
<path d="M236.63 190.752C236.345 190.752 236.061 190.538 235.989 190.254L228.656 167.898L238.41 165.834C238.766 165.763 239.193 165.976 239.264 166.403C239.336 166.759 239.122 167.187 238.695 167.258L230.507 169.038L237.342 189.826C237.484 190.182 237.271 190.61 236.915 190.752C236.772 190.752 236.701 190.752 236.63 190.752Z" fill="#158681"/>
<path d="M244.248 166.05C243.892 166.05 243.607 165.836 243.536 165.48C243.465 165.124 243.678 164.697 244.106 164.626L253.29 162.633C253.646 162.561 254.073 162.775 254.144 163.202C254.215 163.558 254.002 163.985 253.574 164.057L244.39 166.05C244.39 166.05 244.319 166.05 244.248 166.05Z" fill="#158681"/>
<path d="M237.628 171.603C237.272 171.603 236.987 171.389 236.916 171.033C236.845 170.677 237.058 170.25 237.485 170.179L254.216 166.619C254.572 166.548 254.999 166.761 255.071 167.189C255.142 167.544 254.928 167.972 254.501 168.043L237.77 171.603C237.699 171.603 237.699 171.603 237.628 171.603Z" fill="#158681"/>
<path d="M242.041 193.815C241.756 193.815 241.472 193.601 241.4 193.317L238.695 185.058C238.553 184.702 238.766 184.275 239.122 184.132C239.478 183.99 239.905 184.204 240.048 184.56L242.753 192.818C242.896 193.174 242.682 193.601 242.326 193.744C242.184 193.815 242.112 193.815 242.041 193.815Z" fill="#158681"/>
<path d="M264.823 177.939C264.467 177.939 264.182 177.726 264.111 177.37C264.04 177.014 264.254 176.586 264.681 176.515L271.871 174.949C272.227 174.878 272.655 175.091 272.726 175.518C272.797 175.874 272.583 176.302 272.156 176.373L264.965 177.939C264.894 177.939 264.823 177.939 264.823 177.939Z" fill="#158681"/>
<path d="M251.866 200.01C251.581 200.01 251.296 199.796 251.225 199.511L245.174 181.072C245.031 180.716 245.245 180.289 245.601 180.146C245.957 180.004 246.384 180.217 246.526 180.573L252.578 199.013C252.72 199.369 252.507 199.796 252.151 199.938C252.079 200.01 252.008 200.01 251.866 200.01Z" fill="#158681"/>
<path d="M261.763 183.494C261.407 183.494 261.122 183.28 261.051 182.924C260.979 182.568 261.193 182.141 261.62 182.07L279.704 178.225C280.06 178.154 280.487 178.368 280.558 178.795C280.629 179.151 280.416 179.578 279.988 179.649L261.905 183.494C261.905 183.494 261.834 183.494 261.763 183.494Z" fill="#158681"/>
<path d="M257.49 202.93C257.205 202.93 256.92 202.716 256.849 202.432L253.859 193.247C253.717 192.892 253.93 192.464 254.286 192.322C254.642 192.18 255.069 192.393 255.212 192.749L258.202 201.933C258.344 202.289 258.131 202.716 257.775 202.859C257.632 202.93 257.561 202.93 257.49 202.93Z" fill="#158681"/>
<path d="M238.481 175.804C238.054 175.804 237.626 175.661 237.27 175.448L181.026 142.983C179.816 142.271 179.46 140.776 180.101 139.565C180.813 138.355 182.308 137.999 183.518 138.64L239.762 171.105C240.973 171.817 241.329 173.312 240.688 174.522C240.189 175.377 239.335 175.804 238.481 175.804Z" fill="#414042"/>
</g>
<defs>
<clipPath id="clip0_1111_64572">
<rect width="343.088" height="306.779" fill="white" transform="translate(0.974609 0.233337)"/>
</clipPath>
</defs>
</svg>
