<svg width="20" height="12" viewBox="0 0 20 12" fill="none" xmlns="http://www.w3.org/2000/svg">
<path d="M13.2183 0H10.6062C10.363 0 10.1288 0.0912235 9.94944 0.255426L6.96035 2.99213C6.95731 2.99517 6.95427 3.00125 6.95123 3.00429C6.44646 3.47866 6.45558 4.23581 6.88737 4.70713C7.27355 5.1298 8.08544 5.24231 8.59325 4.78923C8.59629 4.78619 8.60237 4.78619 8.60541 4.78315L11.035 2.5573C11.2327 2.37789 11.5428 2.39006 11.7222 2.58771C11.9047 2.78536 11.8895 3.09248 11.6918 3.27492L10.8982 4.00167L15.3255 7.59587C15.4137 7.66885 15.4928 7.74791 15.5658 7.83001V1.9461L13.9055 0.285834C13.7261 0.103387 13.4767 0 13.2183 0ZM16.5419 1.95218V8.76049C16.5419 9.29871 16.9767 9.73354 17.5149 9.73354H19.461V1.95218H16.5419ZM18.0014 8.76049C17.7338 8.76049 17.5149 8.54156 17.5149 8.27397C17.5149 8.00638 17.7338 7.78744 18.0014 7.78744C18.269 7.78744 18.488 8.00638 18.488 8.27397C18.488 8.54156 18.269 8.76049 18.0014 8.76049ZM0 9.7305H1.9461C2.48432 9.7305 2.91915 9.29567 2.91915 8.75745V1.95218H0V9.7305ZM1.45958 7.78744C1.72716 7.78744 1.9461 8.00638 1.9461 8.27397C1.9461 8.54156 1.72716 8.76049 1.45958 8.76049C1.19199 8.76049 0.97305 8.54156 0.97305 8.27397C0.97305 8.00334 1.19199 7.78744 1.45958 7.78744ZM14.7143 8.35303L10.1745 4.6676L9.26222 5.50382C8.35911 6.32787 6.97555 6.24881 6.16975 5.37002C5.35178 4.47603 5.41563 3.09248 6.30354 2.27755L8.7909 0H6.24273C5.98426 0 5.73796 0.103387 5.55551 0.285834L3.8922 1.9461V8.75441H4.44867L7.20057 11.2448C8.03375 11.9229 9.25918 11.7952 9.93728 10.962L9.94336 10.9559L10.4877 11.4273C10.9711 11.8226 11.6857 11.7465 12.078 11.2631L13.0328 10.0893L13.197 10.2231C13.6136 10.5606 14.2278 10.4998 14.5653 10.0802L14.8542 9.72442C15.1948 9.30479 15.1309 8.6936 14.7143 8.35303Z" fill="#2CB7B3"/>
</svg>
