<svg width="15" height="12" viewBox="0 0 15 12" fill="none" xmlns="http://www.w3.org/2000/svg">
<path d="M4.28541 3.57112H4.99964V0.714181H4.28541C3.4964 0.714181 2.85694 1.35364 2.85694 2.14265C2.85694 2.93166 3.4964 3.57112 4.28541 3.57112ZM0 9.28499C0 10.074 0.639463 10.7135 1.42847 10.7135H2.1427V7.85652H1.42847C0.639463 7.85652 0 8.49599 0 9.28499ZM7.53205 6.42806C6.75286 6.42806 5.83217 6.72089 5.19449 7.14229C4.64118 7.50789 4.20081 7.85652 2.85694 7.85652V10.7135L4.141 11.0699C4.726 11.2324 5.32417 11.3627 5.9335 11.4058C6.66314 11.4574 7.39768 11.4208 8.11147 11.2674C10.555 10.7425 11.4277 9.58006 11.4277 8.57076C11.4277 7.14229 9.54887 6.42806 7.53205 6.42806ZM10.9684 0.160426C10.2546 0.00708914 9.52007 -0.0297386 8.79044 0.0220434C8.18111 0.0651207 7.58294 0.195468 6.99793 0.357734L5.71387 0.714181V3.57112C7.05753 3.57112 7.49812 3.91975 8.05143 4.28535C8.68911 4.70675 9.6098 4.99959 10.389 4.99959C12.4058 4.99959 14.2847 4.28535 14.2847 2.85688C14.2847 1.84758 13.412 0.685165 10.9684 0.160426Z" fill="#2CB7B3"/>
</svg>
