<svg width="31" height="30" viewBox="0 0 31 30" fill="none" xmlns="http://www.w3.org/2000/svg">
<path fill-rule="evenodd" clip-rule="evenodd" d="M9.25 2.5C8.55964 2.5 8 3.05964 8 3.75V5H6.75C4.67893 5 3 6.67893 3 8.75V23.75C3 25.8211 4.67893 27.5 6.75 27.5H24.25C26.3211 27.5 28 25.8211 28 23.75V8.75C28 6.67893 26.3211 5 24.25 5H23V3.75C23 3.05964 22.4404 2.5 21.75 2.5C21.0596 2.5 20.5 3.05964 20.5 3.75V5H10.5V3.75C10.5 3.05964 9.94036 2.5 9.25 2.5ZM11.75 16.25C11.75 15.5596 12.3096 15 13 15H21.75C22.4404 15 23 15.5596 23 16.25C23 16.9404 22.4404 17.5 21.75 17.5H13C12.3096 17.5 11.75 16.9404 11.75 16.25ZM8 21.25C8 20.5596 8.55964 20 9.25 20H16.75C17.4404 20 18 20.5596 18 21.25C18 21.9404 17.4404 22.5 16.75 22.5H9.25C8.55964 22.5 8 21.9404 8 21.25Z" fill="#414042"/>
</svg>
