<svg width="81" height="91" viewBox="0 0 81 91" fill="none" xmlns="http://www.w3.org/2000/svg">
    <path d="M32.7665 0.00469313C33.0129 0.47166 33.4142 0.919854 33.4728 1.40794C33.5644 2.187 32.9097 2.64223 31.9077 2.64223C28.6225 2.64927 25.3373 2.64223 22.0545 2.64458C19.9144 2.64693 18.9218 3.62544 18.9194 5.75378C18.9147 13.5561 18.9171 21.3561 18.9171 29.1584C18.9171 29.4447 18.9171 29.731 18.9171 30.1088C19.3911 30.0736 19.7619 30.0384 20.135 30.0173C25.5813 29.7028 30.9761 29.9633 36.2512 31.512C36.4483 31.5707 36.6595 31.6035 36.8355 31.6998C37.523 32.0846 38.0721 31.9579 38.7338 31.5003C39.9939 30.6321 44.5932 30.6931 45.9049 31.4745C47.3692 32.3474 48.0896 34.0792 47.6719 35.7171C47.2636 37.3221 45.8674 38.4673 44.1802 38.5846C42.6784 38.6878 42.6761 38.6878 42.6761 40.1685C42.6761 41.3348 42.6761 42.4987 42.6761 43.7822C43.1501 43.7822 43.5208 43.7728 43.8916 43.7846C46.1349 43.8456 47.7634 45.4483 47.7681 47.5977C47.7728 49.7495 46.1725 51.3546 43.9174 51.4391C43.2439 51.4649 42.5681 51.432 41.8947 51.4531C40.4093 51.4977 38.9568 51.4485 37.7037 50.0405C37.7037 51.1411 37.7037 51.9764 37.7037 52.8118C37.7037 53.6214 37.7037 54.4309 37.7037 55.3578C39.9611 53.443 42.5095 53.9781 44.9311 54.2667C46.7708 54.4849 47.9183 56.4044 47.7494 58.3544C47.5921 60.1659 46.0457 61.6537 44.1873 61.7616C43.7226 61.7898 43.2557 61.7663 42.7347 61.7663C42.7347 62.6697 42.7347 63.5028 42.7347 64.4132C43.1853 64.4132 43.5912 64.4062 43.9948 64.4156C45.9918 64.4625 47.6179 65.9713 47.754 67.8979C47.9019 69.998 46.5737 71.6946 44.5181 72.0349C44.4031 72.0536 44.2788 72.1076 44.1708 72.0842C41.4864 71.4811 39.6701 73.4569 37.6005 74.2359C37.6005 76.0381 37.6005 77.7511 37.6005 79.558C38.0557 79.5861 38.3631 79.6213 38.6681 79.6213C50.8679 79.6237 63.0701 79.626 75.2699 79.6213C77.3677 79.6213 78.3509 78.6428 78.3509 76.5684C78.3533 71.8753 78.3509 67.1845 78.3533 62.4914C78.3533 62.2286 78.3275 61.9587 78.372 61.7006C78.4988 60.9755 78.9211 60.5297 79.6814 60.5367C80.4394 60.5414 80.8641 60.9849 80.9767 61.7147C81.0166 61.9728 80.9931 62.2427 80.9931 62.5055C80.9931 67.1399 80.9955 71.7744 80.9931 76.4065C80.9931 80.1751 78.8977 82.2776 75.1056 82.2823C67.7444 82.2917 60.3833 82.2847 53.0221 82.2847C48.3008 82.2847 43.5795 82.2847 38.8559 82.2847C38.5086 82.2847 38.1636 82.2847 37.7412 82.2847C37.8867 85.5206 35.6434 86.7619 33.2382 87.8061C30.2792 89.0921 27.123 89.5895 23.9387 89.9298C23.5938 89.9673 23.2536 90.0448 22.9133 90.1058C22.268 90.1058 21.6227 90.1058 20.9774 90.1058C20.4377 89.6177 19.9871 89.0827 20.3016 88.2919C20.6043 87.5386 21.2777 87.5105 21.9747 87.4283C24.1241 87.1773 26.2806 86.9426 28.4066 86.5507C30.3941 86.1823 32.3371 85.5793 34.0243 84.4036C34.449 84.1056 34.9488 83.6081 35.0051 83.1506C35.1459 82.0125 35.0521 80.8462 35.0521 79.8466C24.225 83.8592 13.4942 83.8545 2.67182 79.8513C2.67182 80.6468 2.71406 81.6042 2.65774 82.5545C2.61081 83.3571 2.91821 83.9531 3.5776 84.3098C4.62651 84.8776 5.68481 85.4643 6.80178 85.8655C9.57776 86.8628 12.4945 87.1843 15.416 87.4237C16.0684 87.4776 16.5588 87.7357 16.7348 88.381C16.9061 89.0099 16.6902 89.5332 16.1294 89.8969C16.0379 89.9579 15.9581 90.0377 15.8736 90.1081C15.5216 90.1081 15.1696 90.1081 14.8176 90.1081C12.9146 89.8125 10.9974 89.5801 9.10845 89.2094C6.68914 88.733 4.3285 88.0408 2.24709 86.6399C0.764064 85.6426 -0.0713133 84.3309 0.0108165 82.4442C0.099986 80.337 0.0624411 78.2228 0.0202029 76.1132C-0.00560928 74.778 0.451971 73.6563 1.48446 72.8796C2.45828 72.1475 3.56586 71.5961 4.61947 70.9766C4.83536 70.8499 5.07236 70.7654 5.13806 70.7349C4.92218 67.1892 4.87759 63.789 5.15918 60.4358C4.16189 59.8867 3.09655 59.3892 2.12507 58.7463C0.691321 57.7983 -0.0713133 56.4818 0.0108165 54.6703C0.099986 52.7109 0.111719 50.7398 0.00846984 48.7804C-0.0971256 46.7835 0.789876 45.4107 2.37615 44.39C2.98861 43.9958 3.62922 43.6109 4.30738 43.3598C4.89637 43.1416 5.01604 42.8154 5.00431 42.2499C4.97146 40.727 5.05359 39.1994 4.97615 37.6788C4.87994 35.8062 5.64257 34.3608 7.19835 33.4902C8.74239 32.6267 10.4014 31.9368 12.0745 31.3501C13.4097 30.8808 14.8388 30.6813 16.2772 30.3505C16.2772 29.975 16.2772 29.6277 16.2772 29.2781C16.2772 21.3936 16.2725 13.5068 16.2796 5.62237C16.2819 2.75956 17.6593 0.950359 20.4025 0.131408C20.4823 0.107942 20.5527 0.0445847 20.6254 0C24.6709 0.00469313 28.7187 0.00469313 32.7665 0.00469313ZM23.8871 41.3582C28.1766 41.2573 32.499 40.9663 36.6149 39.4129C37.638 39.0257 38.6118 38.4391 39.5012 37.7961C40.2521 37.2517 40.2403 36.5994 39.4871 36.055C38.6447 35.4449 37.7201 34.9005 36.7557 34.5133C33.792 33.3259 30.664 32.8566 27.4985 32.6618C22.2375 32.338 17.007 32.5117 11.9454 34.1566C10.6361 34.5813 9.39004 35.297 8.22614 36.0479C7.42127 36.5689 7.42362 37.233 8.17452 37.768C9.09203 38.4227 10.094 39.0163 11.1429 39.4153C15.2213 40.971 19.5155 41.2644 23.8871 41.3582ZM40.0291 41.0227C29.1833 45.0517 18.4525 45.047 7.63012 41.0039C7.63012 41.5929 7.71459 42.2968 7.61369 42.975C7.3673 44.5988 8.19329 45.5046 9.54491 46.1194C9.81007 46.2414 10.0705 46.3775 10.3381 46.4925C13.1164 47.6822 16.0472 48.1961 19.0321 48.4754C24.2321 48.9634 29.4039 48.7992 34.4701 47.4616C36.0588 47.0416 37.5676 46.2719 39.0483 45.5304C39.4894 45.3098 39.9189 44.6716 39.9846 44.1741C40.1277 43.1135 40.0291 42.0176 40.0291 41.0227ZM7.63012 65.9526C7.63012 66.7762 7.67001 67.7125 7.61838 68.6441C7.5738 69.4419 7.86477 70.0614 8.53354 70.4064C9.74906 71.0329 10.9622 71.7439 12.2646 72.117C19.1353 74.0787 26.0999 74.1139 33.0598 72.713C34.984 72.3258 36.8308 71.4975 38.6564 70.7325C39.2079 70.5026 39.8508 69.8596 39.947 69.3152C40.1465 68.1935 40.008 67.0109 40.008 65.9713C29.1904 69.9793 18.4783 69.9769 7.63012 65.9526ZM2.66948 52.0703C2.66948 52.8423 2.73049 53.7528 2.65305 54.6492C2.56857 55.6066 2.97218 56.2706 3.75124 56.6672C4.89402 57.2492 6.04384 57.8804 7.2664 58.2277C14.1653 60.1965 21.1581 60.2363 28.1438 58.8143C30.0914 58.4178 31.957 57.5519 33.8061 56.7681C34.3246 56.5475 34.9136 55.9022 34.9981 55.3766C35.1788 54.2526 35.0544 53.0793 35.0544 52.075C24.2297 56.0806 13.5223 56.097 2.66948 52.0703ZM18.8185 80.3065C21.4702 80.0507 24.1312 79.8818 26.7664 79.5087C29.1739 79.1684 31.544 78.5724 33.6606 77.2865C34.1463 76.9932 34.5523 76.5403 34.9207 76.1015C35.0427 75.9583 35.0239 75.5594 34.9042 75.3928C34.7987 75.245 34.449 75.1628 34.2402 75.2098C28.5967 76.4488 22.9086 76.5708 17.1971 75.8574C13.872 75.4421 10.6126 74.7545 7.66062 73.0415C7.49871 72.9477 7.23824 72.8515 7.09745 72.9172C5.80918 73.5249 4.47398 74.0693 3.28428 74.8367C2.38554 75.4139 2.42778 76.1085 3.33825 76.735C4.24402 77.3592 5.23662 77.913 6.26676 78.2908C10.3099 79.7738 14.5361 80.1235 18.8185 80.3065ZM23.7862 66.2342C24.3424 66.2342 24.9008 66.2482 25.457 66.2318C29.249 66.1168 33.0059 65.7156 36.5797 64.3639C37.6521 63.958 38.6376 63.2822 39.5974 62.6345C40.123 62.2802 40.1817 61.7076 39.6959 61.1914C38.6095 60.0369 37.1851 59.4338 35.7068 59.1123C35.1577 58.9927 34.4607 59.5535 33.8319 59.8069C33.6418 59.8844 33.4564 59.9712 33.2663 60.0486C29.7864 61.4965 26.114 62.0455 22.3924 62.2825C17.725 62.5782 13.0812 62.36 8.49834 61.3298C8.28481 61.2829 7.89997 61.3416 7.82488 61.4753C7.7099 61.6889 7.69347 62.062 7.8108 62.2708C7.98914 62.5876 8.27542 62.8997 8.58986 63.078C9.4534 63.5638 10.324 64.0706 11.2485 64.4085C15.2963 65.8892 19.5249 66.2177 23.7862 66.2342ZM5.27651 45.7956C4.86821 46.0091 4.4998 46.1851 4.15251 46.3916C3.87561 46.5559 3.6081 46.7389 3.36406 46.9454C2.46063 47.7127 2.38789 48.3651 3.38048 48.9822C4.58427 49.7308 5.87958 50.416 7.22885 50.8313C12.5133 52.4669 17.948 52.6405 23.4108 52.1595C25.41 51.9835 27.3929 51.5963 29.3828 51.3077C29.1904 51.1035 29.0238 51.0894 28.8618 51.1035C23.3075 51.6174 17.7954 51.4015 12.3796 49.9772C9.67163 49.2685 7.03878 48.351 5.27651 45.7956ZM39.243 57.5237C39.9963 58.047 40.4023 58.3919 40.8622 58.6289C41.301 58.8566 41.7867 59.0372 42.2725 59.1194C42.7559 59.2015 43.2651 59.1499 43.7602 59.1335C44.6143 59.1076 45.1001 58.6829 45.1188 57.9672C45.1376 57.2539 44.6566 56.754 43.8282 56.7282C42.8051 56.6954 41.775 56.6508 40.7613 56.754C40.2967 56.8033 39.8672 57.1928 39.243 57.5237ZM39.7945 48.3885C39.9447 48.4988 40.0972 48.71 40.2544 48.7124C41.6225 48.7382 43.0046 48.8344 44.3586 48.6889C45.2033 48.5997 45.4732 47.0604 44.7012 46.7741C43.8423 46.455 42.7254 46.3611 41.8712 46.6333C41.0898 46.8844 40.5078 47.755 39.7945 48.3885ZM40.9701 33.6122C40.9349 33.6779 40.8974 33.746 40.8622 33.8117C41.125 34.0276 41.416 34.22 41.6459 34.4687C41.8829 34.7245 42.0847 35.0178 42.2584 35.3205C42.7371 36.1488 44.3468 36.2427 44.9077 35.4613C45.4145 34.755 45.0344 33.7037 44.1685 33.6333C43.1102 33.5465 42.0378 33.6122 40.9701 33.6122ZM42.7254 69.4443C43.6124 69.4654 44.4829 69.693 44.9405 68.8318C45.1095 68.5127 45.0883 67.9307 44.903 67.6186C44.4031 66.7786 43.5373 67.0954 42.7254 67.0954C42.7254 67.8791 42.7254 68.6206 42.7254 69.4443Z" fill="#2C98B3"/>
    <path d="M76.7653 0.00494385C76.9178 0.0729943 77.068 0.157471 77.2276 0.209095C79.5718 0.983462 80.9844 2.89122 80.9891 5.36215C81.0008 11.6369 80.9938 17.9092 80.9938 24.184C80.9938 34.4455 80.9938 44.7047 80.9938 54.9662C80.9938 55.2595 81.0079 55.5529 80.9844 55.8462C80.9211 56.6041 80.3814 57.1297 79.6844 57.1368C78.9922 57.1415 78.436 56.6182 78.3633 55.8649C78.3351 55.574 78.3516 55.2783 78.3516 54.985C78.3516 38.6552 78.3516 22.3278 78.3516 5.99807C78.3516 3.54122 77.4669 2.64483 75.0382 2.64483C62.9299 2.64483 50.824 2.64483 38.7157 2.64483C37.404 2.64483 36.6813 1.96198 37.0027 0.969382C37.1201 0.610358 37.4556 0.324077 37.6926 0.00729041C50.7184 0.00494385 63.7419 0.00494385 76.7653 0.00494385Z" fill="#2C98B3"/>
    <path d="M48.5833 25.1128C41.0462 25.1128 33.5113 25.1128 25.9742 25.1128C24.226 25.1128 23.9022 24.7937 23.9022 23.076C23.8998 19.2042 23.8998 15.3347 23.9022 11.4628C23.9022 9.8179 24.226 9.48703 25.8334 9.48703C41.0532 9.48703 56.2707 9.48703 71.4905 9.48703C73.0252 9.48703 73.403 9.86717 73.403 11.4112C73.4053 15.3417 73.4053 19.2699 73.403 23.2004C73.403 24.7069 72.99 25.1128 71.4553 25.1128C63.8313 25.1152 56.2073 25.1128 48.5833 25.1128ZM70.7161 12.1738C55.9867 12.1738 41.316 12.1738 26.6007 12.1738C26.6007 15.6045 26.6007 18.9883 26.6007 22.4166C41.3277 22.4166 55.9985 22.4166 70.7161 22.4166C70.7161 19 70.7161 15.6397 70.7161 12.1738Z" fill="#2C98B3"/>
    <path d="M55.0046 61.7781C54.4485 61.7781 53.89 61.7898 53.3338 61.7757C51.2642 61.7288 49.6169 60.1754 49.4972 58.1667C49.3775 56.1557 50.8113 54.3536 52.8763 54.1517C54.2678 54.0156 55.6945 54.0133 57.086 54.1564C59.2096 54.377 60.5589 56.1416 60.4181 58.2747C60.2891 60.2317 58.6488 61.7335 56.5885 61.7757C56.0605 61.7875 55.5326 61.7781 55.0046 61.7781ZM55.0069 59.1335C55.5326 59.1335 56.0605 59.157 56.5838 59.1265C57.2901 59.0866 57.7407 58.7158 57.7759 57.9837C57.8111 57.2445 57.3746 56.7916 56.6847 56.7517C55.549 56.686 54.4062 56.6907 53.2705 56.7494C52.5712 56.7846 52.1254 57.2492 52.1559 57.9673C52.184 58.6736 52.6299 59.0842 53.3456 59.1241C53.897 59.1593 54.4531 59.1335 55.0069 59.1335Z" fill="#2C98B3"/>
    <path d="M54.9819 72.1616C54.1888 72.1123 53.3886 72.1311 52.6142 71.9997C50.7182 71.6806 49.383 69.9347 49.5003 68.0176C49.62 66.077 51.2204 64.486 53.1657 64.4273C54.3648 64.3898 55.5686 64.3921 56.77 64.4273C58.6989 64.4837 60.2992 66.0347 60.4213 67.9214C60.5527 69.9512 59.2855 71.6712 57.3426 71.9997C56.5682 72.1311 55.768 72.1123 54.9819 72.1616ZM55.0288 67.0602C54.4727 67.0602 53.9189 67.0414 53.3628 67.0649C52.6447 67.093 52.1965 67.4966 52.1543 68.2006C52.1121 68.9187 52.5509 69.395 53.2501 69.4349C54.3859 69.5006 55.5287 69.5006 56.6644 69.4396C57.3519 69.4021 57.8048 68.9656 57.7767 68.2241C57.7462 67.445 57.2675 67.0837 56.5189 67.0602C56.0214 67.0461 55.524 67.0578 55.0288 67.0602Z" fill="#2C98B3"/>
    <path d="M67.5887 61.85C66.6876 61.7678 65.7607 61.7983 64.8948 61.5801C63.1936 61.153 62.0813 59.5034 62.1634 57.7388C62.2432 55.9953 63.5221 54.3949 65.2703 54.2095C66.8308 54.0429 68.4382 54.0289 69.9939 54.2095C71.9604 54.4372 73.2111 56.2229 73.0844 58.2574C72.9694 60.1088 71.4206 61.6482 69.5293 61.7608C68.8864 61.7983 68.241 61.7678 67.5957 61.7678C67.5934 61.796 67.591 61.8241 67.5887 61.85ZM67.6403 59.1326C68.1965 59.1326 68.7526 59.1655 69.304 59.1233C69.9658 59.074 70.3952 58.7056 70.4398 58.0157C70.4867 57.2789 70.0714 56.8025 69.3791 56.7603C68.2152 56.6899 67.0419 56.6969 65.8781 56.7626C65.221 56.7978 64.8033 57.2601 64.8174 57.9406C64.8315 58.6539 65.2656 59.0716 65.9743 59.1233C66.5281 59.1631 67.0865 59.1303 67.6403 59.1326Z" fill="#2C98B3"/>
    <path d="M67.6256 64.4173C68.2122 64.4173 68.7989 64.4032 69.3832 64.4196C71.3214 64.4783 72.9406 65.9942 73.0814 67.8691C73.2386 69.9716 71.9339 71.7761 69.8807 72.0014C68.407 72.1633 66.8888 72.161 65.4151 72.0061C63.4041 71.7926 62.0314 69.974 62.1675 67.9817C62.3012 66.0083 63.9368 64.4666 65.9548 64.422C66.5133 64.4079 67.0695 64.4173 67.6256 64.4173ZM67.6021 69.4624C68.1583 69.4624 68.7168 69.5046 69.2659 69.453C69.9933 69.3826 70.4814 68.9884 70.4415 68.2023C70.4016 67.4232 69.9088 67.0713 69.1603 67.0619C68.1372 67.0501 67.114 67.0501 66.0933 67.0619C65.3354 67.0713 64.852 67.4678 64.8238 68.2234C64.7933 68.9931 65.2931 69.3967 66.0276 69.4577C66.5485 69.5 67.0765 69.4648 67.6021 69.4624Z" fill="#2C98B3"/>
    <path d="M67.6124 30.9505C68.199 30.9505 68.7857 30.9364 69.37 30.9528C71.4349 31.0115 73.0447 32.6072 73.094 34.6369C73.1456 36.7488 71.6391 38.4642 69.5483 38.5721C68.2624 38.6402 66.9694 38.6402 65.6835 38.5698C63.6584 38.4595 62.1191 36.7207 62.159 34.6862C62.1989 32.6611 63.8133 31.0232 65.8525 30.9552C66.4391 30.9341 67.0257 30.9505 67.6124 30.9505ZM67.6945 33.5951C67.1102 33.5951 66.5259 33.5739 65.944 33.5998C65.2564 33.6326 64.8505 34.0479 64.8223 34.7097C64.7918 35.4183 65.186 35.9041 65.9135 35.9299C67.0797 35.9745 68.2483 35.9768 69.4122 35.9229C70.0927 35.8924 70.4564 35.4207 70.4423 34.7402C70.4283 34.0573 70.0411 33.6514 69.3582 33.6021C68.8068 33.5646 68.2506 33.5951 67.6945 33.5951Z" fill="#2C98B3"/>
    <path d="M54.9755 30.951C55.5622 30.951 56.1488 30.9346 56.7331 30.9534C58.7887 31.0168 60.3891 32.6265 60.4313 34.6633C60.4759 36.7682 58.9577 38.4694 56.8598 38.575C55.6044 38.6384 54.3396 38.6384 53.0842 38.575C51.0075 38.4718 49.44 36.7236 49.4987 34.661C49.555 32.6359 51.1741 31.0191 53.2203 30.9557C53.8023 30.9346 54.3889 30.951 54.9755 30.951ZM55.0366 33.598C55.0366 33.6003 55.0366 33.6003 55.0366 33.6027C54.4241 33.6027 53.8093 33.5675 53.1992 33.6121C52.5562 33.6613 52.1878 34.0908 52.1573 34.7079C52.1268 35.3696 52.4788 35.8812 53.1593 35.9164C54.3514 35.9797 55.5505 35.975 56.7449 35.9258C57.4277 35.8976 57.7891 35.4283 57.7773 34.7478C57.7656 34.0649 57.3808 33.6543 56.6979 33.605C56.1465 33.5651 55.5903 33.598 55.0366 33.598Z" fill="#2C98B3"/>
    <path d="M54.9279 51.4351C54.3412 51.4351 53.7546 51.4633 53.1703 51.4304C51.0631 51.3155 49.4815 49.6541 49.4932 47.5915C49.505 45.5288 51.1124 43.8675 53.2149 43.7994C54.414 43.7595 55.6178 43.7548 56.8169 43.8041C58.8725 43.8886 60.4235 45.5406 60.4329 47.5915C60.4423 49.647 58.9194 51.2943 56.8614 51.4234C56.2185 51.4633 55.5732 51.4304 54.9279 51.4304C54.9279 51.4328 54.9279 51.4328 54.9279 51.4351ZM54.9654 48.7929C55.5192 48.7929 56.0753 48.814 56.6291 48.7882C57.3542 48.753 57.7743 48.3494 57.779 47.622C57.7836 46.8945 57.366 46.4674 56.6432 46.4463C55.5356 46.4135 54.4257 46.4182 53.3181 46.444C52.5907 46.4604 52.1636 46.9063 52.1589 47.6102C52.1566 48.3118 52.5719 48.753 53.3041 48.7882C53.8555 48.8117 54.4093 48.7905 54.9654 48.7929Z" fill="#2C98B3"/>
    <path d="M67.613 51.431C66.9982 51.431 66.3811 51.4638 65.7686 51.4263C63.6825 51.2996 62.1197 49.596 62.162 47.5263C62.2042 45.5035 63.7975 43.8727 65.8578 43.8023C67.0569 43.76 68.2607 43.7577 69.4598 43.8046C71.5201 43.8844 73.0805 45.527 73.0946 47.5732C73.111 49.6335 71.5952 51.2902 69.5443 51.4239C68.9037 51.4638 68.2583 51.4286 67.613 51.431ZM67.6154 48.7887C68.1997 48.7887 68.784 48.8216 69.3659 48.7794C70.0488 48.7301 70.4313 48.3171 70.443 47.6342C70.4524 46.9537 70.0863 46.4891 69.4058 46.4609C68.2419 46.4093 67.071 46.4164 65.9047 46.4539C65.2195 46.4774 64.8253 46.935 64.8206 47.5967C64.8159 48.303 65.2219 48.7442 65.954 48.784C66.5055 48.8145 67.0616 48.7887 67.6154 48.7887Z" fill="#2C98B3"/>
    <path d="M9.82753 21.9982C10.4986 21.9982 11.1721 21.9865 11.8432 22.0006C12.7396 22.0194 13.2958 22.5145 13.3145 23.2795C13.3333 24.0444 12.7748 24.6123 11.9066 24.6287C10.4752 24.6546 9.04378 24.6569 7.61472 24.6287C6.76526 24.6123 6.18801 24.0022 6.22321 23.256C6.2584 22.5333 6.81219 22.0264 7.63818 22.0029C8.36797 21.9818 9.09775 21.9982 9.82753 21.9982Z" fill="#2C98B3"/>
    <path d="M9.7445 28.7095C9.01472 28.7095 8.28259 28.7306 7.55516 28.7025C6.78783 28.672 6.25751 28.1557 6.22231 27.4611C6.18711 26.7525 6.73386 26.1142 7.52465 26.0908C9.01238 26.0485 10.5024 26.0509 11.9902 26.0884C12.7997 26.1072 13.3301 26.6985 13.3113 27.4306C13.2949 28.1768 12.7716 28.6767 11.9315 28.7048C11.2064 28.7283 10.4743 28.7095 9.7445 28.7095Z" fill="#2C98B3"/>
    <path d="M13.3135 18.8122C13.29 19.5607 12.6752 20.1192 11.9197 20.0723C11.2063 20.0277 10.6807 19.4481 10.7018 18.7277C10.7229 18.0261 11.3095 17.4488 12.0018 17.4511C12.7245 17.4511 13.337 18.0847 13.3135 18.8122Z" fill="#2C98B3"/>
    </svg>