<svg width="71" height="70" viewBox="0 0 71 70" fill="none" xmlns="http://www.w3.org/2000/svg">
<path d="M69.4062 59.0625H1.59375C1.30367 59.0625 1.02547 58.9473 0.820352 58.7421C0.615234 58.537 0.5 58.2588 0.5 57.9688V9.84375C0.5 9.55367 0.615234 9.27547 0.820352 9.07035C1.02547 8.86523 1.30367 8.75 1.59375 8.75H28.9375V10.9375H2.6875V56.875H68.3125V10.9375H65.0312V8.75H69.4062C69.6963 8.75 69.9745 8.86523 70.1796 9.07035C70.3848 9.27547 70.5 9.55367 70.5 9.84375V57.9688C70.5 58.2588 70.3848 58.537 70.1796 58.7421C69.9745 58.9473 69.6963 59.0625 69.4062 59.0625Z" fill="#1FB9B3"/>
<path d="M49.719 65.625H21.2815C21.1082 65.625 20.9374 65.5839 20.7831 65.505C20.6288 65.426 20.4955 65.3116 20.3941 65.171C20.2927 65.0304 20.2262 64.8678 20.2 64.6965C20.1739 64.5251 20.1888 64.35 20.2435 64.1856L22.431 57.6231C22.5036 57.4052 22.6429 57.2157 22.8292 57.0815C23.0155 56.9472 23.2394 56.8749 23.469 56.875H47.5315C47.7612 56.8749 47.985 56.9472 48.1713 57.0815C48.3576 57.2157 48.4969 57.4052 48.5695 57.6231L50.757 64.1856C50.8118 64.35 50.8267 64.5251 50.8005 64.6965C50.7743 64.8678 50.7078 65.0304 50.6064 65.171C50.5051 65.3116 50.3717 65.426 50.2174 65.505C50.0632 65.5839 49.8923 65.625 49.719 65.625ZM22.7985 63.4375H48.202L46.7429 59.0625H24.2576L22.7985 63.4375Z" fill="#1FB9B3"/>
<path d="M54.0938 70H16.9062C16.6162 70 16.338 69.8848 16.1329 69.6796C15.9277 69.4745 15.8125 69.1963 15.8125 68.9062C15.8142 67.4564 16.391 66.0664 17.4162 65.0412C18.4414 64.016 19.8314 63.4392 21.2812 63.4375H49.7188C51.1686 63.4392 52.5586 64.016 53.5838 65.0412C54.609 66.0664 55.1858 67.4564 55.1875 68.9062C55.1875 69.1963 55.0723 69.4745 54.8671 69.6796C54.662 69.8848 54.3838 70 54.0938 70ZM18.187 67.8125H52.813C52.5859 67.1732 52.1667 66.6198 51.6127 66.2281C51.0587 65.8365 50.3972 65.6258 49.7188 65.625H21.2812C20.6028 65.6258 19.9413 65.8365 19.3873 66.2281C18.8333 66.6198 18.4141 67.1732 18.187 67.8125ZM1.59375 48.125H69.4062V50.3125H1.59375V48.125ZM63.9375 43.75H66.125V45.9375H63.9375V43.75ZM63.9375 26.25H66.125V41.5625H63.9375V26.25Z" fill="#1FB9B3"/>
<path d="M42.6092 54.6875H28.3905C27.665 54.715 26.9416 54.5923 26.2656 54.3272C25.5897 54.0621 24.9758 53.6603 24.4624 53.1469C23.949 52.6335 23.5471 52.0196 23.282 51.3436C23.0169 50.6677 22.8943 49.9443 22.9217 49.2188H25.1092C25.0861 49.6558 25.1551 50.0927 25.3118 50.5013C25.4685 50.9099 25.7094 51.281 26.0188 51.5904C26.3283 51.8998 26.6993 52.1407 27.1079 52.2974C27.5165 52.4541 27.9535 52.5232 28.3905 52.5H42.6092C43.0462 52.5232 43.4832 52.4541 43.8918 52.2974C44.3004 52.1407 44.6715 51.8998 44.9809 51.5904C45.2903 51.281 45.5312 50.9099 45.6879 50.5013C45.8446 50.0927 45.9137 49.6558 45.8905 49.2188L48.078 49.2242C48.1047 49.9493 47.9815 50.6721 47.716 51.3474C47.4506 52.0227 47.0486 52.6359 46.5353 53.1487C46.022 53.6615 45.4083 54.0629 44.7328 54.3277C44.0572 54.5924 43.3343 54.7149 42.6092 54.6875ZM60.6561 41.5625H39.8749V39.375H59.5624V26.25H61.7499V40.4688C61.7499 40.7588 61.6346 41.037 61.4295 41.2422C61.2244 41.4473 60.9462 41.5625 60.6561 41.5625Z" fill="#1FB9B3"/>
<path d="M56.2804 41.5624H51.9054C51.6153 41.5624 51.3371 41.4472 51.132 41.2421C50.9269 41.037 50.8117 40.7588 50.8117 40.4687V28.4374C50.8117 28.1474 50.9269 27.8692 51.132 27.664C51.3371 27.4589 51.6153 27.3437 51.9054 27.3437H56.2804C56.5705 27.3437 56.8487 27.4589 57.0538 27.664C57.2589 27.8692 57.3742 28.1474 57.3742 28.4374V40.4687C57.3742 40.7588 57.2589 41.037 57.0538 41.2421C56.8487 41.4472 56.5705 41.5624 56.2804 41.5624ZM52.9992 39.3749H55.1867V29.5312H52.9992V39.3749ZM47.5304 41.5624H43.1554C42.8653 41.5624 42.5871 41.4472 42.382 41.2421C42.1769 41.037 42.0617 40.7588 42.0617 40.4687V31.7187C42.0617 31.4286 42.1769 31.1504 42.382 30.9453C42.5871 30.7402 42.8653 30.6249 43.1554 30.6249H47.5304C47.8205 30.6249 48.0987 30.7402 48.3038 30.9453C48.5089 31.1504 48.6242 31.4286 48.6242 31.7187V40.4687C48.6242 40.7588 48.5089 41.037 48.3038 41.2421C48.0987 41.4472 47.8205 41.5624 47.5304 41.5624ZM44.2492 39.3749H46.4367V32.8124H44.2492V39.3749ZM59.5617 43.7499H61.7492V45.9374H59.5617V43.7499ZM32.2179 43.7499H57.3742V45.9374H32.2179V43.7499ZM30.6003 37.4729C29.9512 37.4682 29.3181 37.2706 28.7816 36.9052C28.245 36.5399 27.8292 36.0233 27.587 35.421L21.031 19.321C20.7044 18.5291 20.7005 17.6407 21.0201 16.8459C21.1767 16.4518 21.4115 16.0936 21.7104 15.7928C22.0093 15.492 22.3661 15.2549 22.7592 15.0959L24.7049 14.3051C24.9732 14.1968 25.2734 14.1992 25.5399 14.3117C25.8063 14.4243 26.0174 14.6378 26.1268 14.9056L34.3212 35.0306C34.4295 35.2988 34.4271 35.599 34.3145 35.8655C34.202 36.132 33.9885 36.343 33.7207 36.4524L31.7804 37.2421C31.4057 37.3948 31.0049 37.4731 30.6003 37.4729ZM24.5157 16.7343L23.5828 17.1139C23.4614 17.1639 23.3516 17.2382 23.26 17.3323C23.1684 17.4263 23.097 17.5381 23.0501 17.6607C22.9437 17.9296 22.9465 18.2294 23.0578 18.4963L29.6126 34.5964C29.7089 34.8559 29.9039 35.0668 30.1552 35.183C30.4064 35.2992 30.6934 35.3112 30.9535 35.2165L31.8865 34.837L24.5157 16.7343Z" fill="#1FB9B3"/>
<path d="M16.2571 36.4314C16.0394 36.4315 15.8267 36.3668 15.6461 36.2454C15.4655 36.124 15.3252 35.9515 15.2432 35.75L11.9619 27.7C11.8778 27.4938 11.8586 27.2669 11.9069 27.0496C11.9552 26.8323 12.0686 26.6349 12.2321 26.4837L21.2982 18.1045L22.7824 19.7112L14.2807 27.5764L16.9866 34.2242L28.5727 33.9146L28.6318 36.1021L16.2888 36.4303L16.2571 36.4314Z" fill="#1FB9B3"/>
<path d="M8.67505 39.3545C8.23213 39.3531 7.79439 39.2592 7.38989 39.0788C6.60442 38.7332 5.98563 38.0936 5.66614 37.2971L4.02551 33.271C3.69884 32.4795 3.69452 31.5916 4.01348 30.797C4.17003 30.4027 4.40498 30.0443 4.7041 29.7435C5.00321 29.4427 5.36026 29.2057 5.75364 29.047L12.5644 26.2754L13.3891 28.3021L6.57942 31.0715C6.45813 31.1219 6.3483 31.1963 6.25657 31.2903C6.16483 31.3843 6.09309 31.4959 6.04567 31.6184C5.93935 31.8869 5.9421 32.1863 6.05333 32.4529L7.69395 36.479C7.80043 36.7475 8.00768 36.9638 8.27145 37.0816C8.39124 37.1362 8.52086 37.1659 8.65247 37.1689C8.78407 37.1719 8.91492 37.1482 9.03708 37.0991L15.849 34.3276L16.6736 36.3543L9.85739 39.1215C9.48207 39.2749 9.08052 39.354 8.67505 39.3545Z" fill="#1FB9B3"/>
<path d="M12.8789 44.8438C12.6613 44.8439 12.4486 44.7792 12.268 44.6578C12.0873 44.5364 11.947 44.3639 11.865 44.1623L9.40625 38.1248L11.433 37.2969L13.4794 42.3281L15.3453 41.5625L13.2978 36.5411L15.3245 35.7164L17.7822 41.7539C17.8905 42.0221 17.8881 42.3223 17.7755 42.5888C17.663 42.8553 17.4495 43.0663 17.1817 43.1758L13.2891 44.7584C13.1593 44.8136 13.0199 44.8426 12.8789 44.8438ZM17.5437 21.9089L19.5694 21.0842L25.3039 35.1695L23.2783 35.9942L17.5437 21.9089ZM38.7822 29.5312C38.4921 29.5312 38.2139 29.416 38.0088 29.2109C37.8037 29.0058 37.6884 28.7276 37.6884 28.4375V24.0625H34.4072C33.5369 24.0625 32.7023 23.7168 32.087 23.1014C31.4716 22.4861 31.1259 21.6515 31.1259 20.7812V3.28125C31.1259 2.41101 31.4716 1.57641 32.087 0.961056C32.7023 0.345702 33.5369 0 34.4072 0L62.8447 0C63.7149 0 64.5495 0.345702 65.1649 0.961056C65.7802 1.57641 66.1259 2.41101 66.1259 3.28125V20.7812C66.1259 21.6515 65.7802 22.4861 65.1649 23.1014C64.5495 23.7168 63.7149 24.0625 62.8447 24.0625H44.7038L39.5555 29.2108C39.3504 29.4159 39.0722 29.5312 38.7822 29.5312ZM34.4072 2.1875C34.1171 2.1875 33.8389 2.30273 33.6338 2.50785C33.4287 2.71297 33.3134 2.99117 33.3134 3.28125V20.7812C33.3134 21.0713 33.4287 21.3495 33.6338 21.5546C33.8389 21.7598 34.1171 21.875 34.4072 21.875H38.7822C39.0723 21.875 39.3505 21.9902 39.5556 22.1954C39.7607 22.4005 39.8759 22.6787 39.8759 22.9688V25.7972L43.4777 22.1955C43.6827 21.9903 43.9609 21.8751 44.2509 21.875H62.8447C63.1348 21.875 63.413 21.7598 63.6181 21.5546C63.8232 21.3495 63.9384 21.0713 63.9384 20.7812V3.28125C63.9384 2.99117 63.8232 2.71297 63.6181 2.50785C63.413 2.30273 63.1348 2.1875 62.8447 2.1875H34.4072Z" fill="#1FB9B3"/>
<path d="M39.875 15.3125C39.226 15.3125 38.5916 15.1201 38.052 14.7595C37.5124 14.399 37.0919 13.8865 36.8435 13.2869C36.5952 12.6874 36.5302 12.0276 36.6568 11.3911C36.7834 10.7546 37.0959 10.1699 37.5548 9.71106C38.0137 9.25217 38.5984 8.93966 39.2349 8.81305C39.8714 8.68644 40.5311 8.75142 41.1307 8.99977C41.7302 9.24812 42.2427 9.66869 42.6033 10.2083C42.9638 10.7479 43.1562 11.3823 43.1562 12.0313C43.1562 12.9015 42.8105 13.7361 42.1952 14.3514C41.5798 14.9668 40.7452 15.3125 39.875 15.3125ZM39.875 10.9375C39.6587 10.9375 39.4472 11.0016 39.2673 11.1218C39.0875 11.242 38.9473 11.4128 38.8645 11.6127C38.7817 11.8125 38.7601 12.0325 38.8023 12.2446C38.8445 12.4568 38.9486 12.6517 39.1016 12.8046C39.2546 12.9576 39.4495 13.0618 39.6616 13.104C39.8738 13.1462 40.0937 13.1245 40.2936 13.0417C40.4934 12.959 40.6642 12.8188 40.7844 12.6389C40.9046 12.459 40.9688 12.2476 40.9688 12.0313C40.9688 11.7412 40.8535 11.463 40.6484 11.2579C40.4433 11.0527 40.1651 10.9375 39.875 10.9375ZM48.625 15.3125C47.976 15.3125 47.3416 15.1201 46.802 14.7595C46.2624 14.399 45.8419 13.8865 45.5935 13.2869C45.3452 12.6874 45.2802 12.0276 45.4068 11.3911C45.5334 10.7546 45.8459 10.1699 46.3048 9.71106C46.7637 9.25217 47.3484 8.93966 47.9849 8.81305C48.6214 8.68644 49.2811 8.75142 49.8807 8.99977C50.4802 9.24812 50.9927 9.66869 51.3533 10.2083C51.7138 10.7479 51.9062 11.3823 51.9062 12.0313C51.9062 12.9015 51.5605 13.7361 50.9452 14.3514C50.3298 14.9668 49.4952 15.3125 48.625 15.3125ZM48.625 10.9375C48.4087 10.9375 48.1972 11.0016 48.0173 11.1218C47.8375 11.242 47.6973 11.4128 47.6145 11.6127C47.5317 11.8125 47.5101 12.0325 47.5523 12.2446C47.5945 12.4568 47.6986 12.6517 47.8516 12.8046C48.0046 12.9576 48.1995 13.0618 48.4116 13.104C48.6238 13.1462 48.8437 13.1245 49.0436 13.0417C49.2434 12.959 49.4142 12.8188 49.5344 12.6389C49.6546 12.459 49.7188 12.2476 49.7188 12.0313C49.7188 11.7412 49.6035 11.463 49.3984 11.2579C49.1933 11.0527 48.9151 10.9375 48.625 10.9375ZM57.375 15.3125C56.726 15.3125 56.0916 15.1201 55.552 14.7595C55.0124 14.399 54.5919 13.8865 54.3435 13.2869C54.0952 12.6874 54.0302 12.0276 54.1568 11.3911C54.2834 10.7546 54.5959 10.1699 55.0548 9.71106C55.5137 9.25217 56.0984 8.93966 56.7349 8.81305C57.3714 8.68644 58.0311 8.75142 58.6307 8.99977C59.2302 9.24812 59.7427 9.66869 60.1033 10.2083C60.4638 10.7479 60.6562 11.3823 60.6562 12.0313C60.6562 12.9015 60.3105 13.7361 59.6952 14.3514C59.0798 14.9668 58.2452 15.3125 57.375 15.3125ZM57.375 10.9375C57.1587 10.9375 56.9472 11.0016 56.7673 11.1218C56.5875 11.242 56.4473 11.4128 56.3645 11.6127C56.2817 11.8125 56.2601 12.0325 56.3023 12.2446C56.3445 12.4568 56.4486 12.6517 56.6016 12.8046C56.7546 12.9576 56.9495 13.0618 57.1616 13.104C57.3738 13.1462 57.5937 13.1245 57.7936 13.0417C57.9934 12.959 58.1642 12.8188 58.2844 12.6389C58.4046 12.459 58.4688 12.2476 58.4688 12.0313C58.4688 11.7412 58.3535 11.463 58.1484 11.2579C57.9433 11.0527 57.6651 10.9375 57.375 10.9375ZM7.0625 18.5938H4.875V14.2188C4.875 13.9287 4.99023 13.6505 5.19535 13.4454C5.40047 13.2402 5.67867 13.125 5.96875 13.125H10.3438V15.3125H7.0625V18.5938ZM4.875 20.7813H7.0625V22.9688H4.875V20.7813Z" fill="#1FB9B3"/>
</svg>
