<svg width="292" height="232" viewBox="0 0 292 232" fill="none" xmlns="http://www.w3.org/2000/svg">
<path d="M42.6675 205.499C99.5087 240.01 191.631 240.017 248.472 205.499C305.313 170.98 305.313 115.016 248.472 80.4966C191.631 45.9777 99.5087 45.9777 42.6675 80.4966C-14.1737 115.016 -14.1672 170.965 42.6675 205.499Z" fill="#F5F5F5"/>
<path d="M228.203 160.082C227.798 157.687 227.067 153.778 224.525 150.685C221.774 147.413 218.53 144.703 214.94 142.677C211.373 140.653 209.426 135.201 216.182 135.398C222.415 135.602 228.341 143.405 229.04 150.044L228.203 160.082Z" fill="#37474F"/>
<path d="M228.758 153.779C228.674 153.779 228.593 153.744 228.532 153.681C228.47 153.617 228.432 153.53 228.425 153.437C227.674 142.802 217.377 137.786 215.358 137.575C215.31 137.58 215.261 137.573 215.215 137.554C215.169 137.535 215.128 137.506 215.093 137.467C215.059 137.429 215.033 137.383 215.016 137.332C214.999 137.281 214.993 137.226 214.997 137.172C215.002 137.118 215.017 137.066 215.041 137.019C215.066 136.972 215.099 136.931 215.139 136.9C215.179 136.869 215.225 136.849 215.273 136.839C215.321 136.83 215.37 136.833 215.417 136.847C217.652 137.073 228.327 142.117 229.137 153.393C229.141 153.442 229.136 153.491 229.122 153.538C229.109 153.584 229.087 153.627 229.059 153.665C229.03 153.702 228.995 153.732 228.956 153.754C228.917 153.777 228.874 153.79 228.83 153.794L228.758 153.779Z" fill="white"/>
<path d="M233.672 160.083C234.057 158.409 235.593 155.592 237.592 154.806C239.591 154.019 243.962 155.155 245.935 151.639C247.908 148.123 246.157 143.275 246.484 141.288C246.811 139.3 248.065 137.648 250.554 135.741C253.044 133.834 254.239 130.157 252.828 128.403C251.417 126.649 248.875 126.43 245.537 128.993C242.198 131.555 242.087 130.893 239.147 130.594C236.207 130.296 233.587 133.717 233.123 138.478L233.672 160.083Z" fill="#455A64"/>
<path d="M233.45 151.661H233.371C233.328 151.651 233.288 151.631 233.252 151.603C233.216 151.575 233.186 151.539 233.163 151.498C233.14 151.456 233.124 151.41 233.117 151.362C233.11 151.314 233.112 151.264 233.123 151.217C235.259 140.684 246.04 130.944 249.973 129.291C250.059 129.257 250.155 129.262 250.238 129.305C250.322 129.349 250.386 129.428 250.417 129.524C250.448 129.621 250.444 129.727 250.405 129.82C250.365 129.913 250.295 129.985 250.208 130.019C246.373 131.635 235.834 141.128 233.776 151.414C233.753 151.488 233.708 151.553 233.649 151.597C233.591 151.642 233.521 151.664 233.45 151.661Z" fill="white"/>
<path d="M238.487 140.829C238.42 140.829 238.355 140.807 238.299 140.765C238.243 140.724 238.199 140.665 238.174 140.596C237.115 137.684 237.318 133.826 237.324 133.659C237.349 133.581 237.396 133.514 237.458 133.468C237.52 133.423 237.594 133.401 237.668 133.407C237.743 133.413 237.813 133.446 237.869 133.5C237.925 133.555 237.963 133.629 237.978 133.71C237.978 133.71 237.775 137.575 238.781 140.312C238.798 140.358 238.807 140.407 238.806 140.457C238.806 140.506 238.796 140.555 238.779 140.6C238.761 140.646 238.735 140.687 238.703 140.721C238.671 140.755 238.633 140.782 238.592 140.8C238.559 140.817 238.523 140.827 238.487 140.829Z" fill="white"/>
<path d="M243.57 148.152C242.093 148.152 238.304 147.926 235.338 145.757C235.263 145.703 235.211 145.618 235.193 145.521C235.174 145.424 235.191 145.323 235.24 145.24C235.288 145.157 235.365 145.099 235.452 145.078C235.539 145.058 235.629 145.077 235.704 145.131C239.199 147.686 244.099 147.395 244.152 147.387C244.196 147.384 244.24 147.391 244.282 147.408C244.324 147.424 244.362 147.45 244.395 147.483C244.428 147.516 244.455 147.557 244.473 147.601C244.492 147.646 244.503 147.695 244.504 147.744C244.507 147.793 244.501 147.842 244.487 147.888C244.472 147.934 244.45 147.977 244.421 148.013C244.392 148.05 244.356 148.079 244.317 148.101C244.277 148.122 244.235 148.134 244.191 148.137C244.112 148.144 243.89 148.152 243.57 148.152Z" fill="white"/>
<path d="M121.493 228.728C120.735 225.693 118.174 223.072 113.934 220.35C109.694 217.627 102.435 214.118 104.134 209.365C105.833 204.612 113.222 208.441 115.986 211.127C119.605 214.65 122.408 219.862 122.486 223.451L121.493 228.728Z" fill="#37474F"/>
<path d="M122.179 225.584C122.101 225.584 122.025 225.554 121.965 225.5C121.904 225.446 121.862 225.37 121.845 225.285C120.277 216.979 111.444 210.559 107.152 209.445C107.064 209.423 106.989 209.362 106.941 209.278C106.893 209.193 106.877 209.091 106.897 208.994C106.919 208.898 106.973 208.814 107.048 208.761C107.124 208.708 107.215 208.69 107.302 208.71C111.745 209.867 120.878 216.521 122.505 225.132C122.515 225.181 122.516 225.231 122.508 225.279C122.5 225.328 122.483 225.374 122.459 225.416C122.434 225.457 122.403 225.492 122.366 225.52C122.329 225.548 122.288 225.567 122.244 225.576L122.179 225.584Z" fill="white"/>
<path d="M126.96 228.728C127.3 225.423 129.763 223.458 132.762 222.672C135.761 221.886 138.427 221.354 138.642 217.685C138.858 214.017 135.846 210.996 138.263 207.844C140.681 204.692 144.365 201.394 144.111 195.862C143.856 190.329 139.243 189.754 137.447 193.241C135.65 196.728 135.277 199.145 132.749 198.81C130.221 198.475 126.17 200.317 125.66 208.739L126.96 228.728Z" fill="#455A64"/>
<path d="M126.51 222.06H126.464C126.376 222.046 126.297 221.993 126.243 221.914C126.189 221.835 126.165 221.736 126.177 221.638C127.176 213.39 132.364 206.351 136.153 201.212C137.78 199.028 139.185 197.099 139.792 195.701C139.811 195.657 139.837 195.617 139.869 195.583C139.901 195.55 139.939 195.524 139.98 195.507C140.022 195.49 140.066 195.483 140.11 195.485C140.154 195.487 140.197 195.499 140.237 195.519C140.317 195.563 140.378 195.64 140.409 195.734C140.439 195.828 140.436 195.931 140.4 196.022C139.747 197.478 138.329 199.443 136.669 201.692C132.932 206.788 127.816 213.696 126.869 221.74C126.858 221.834 126.814 221.92 126.747 221.98C126.68 222.04 126.595 222.068 126.51 222.06Z" fill="white"/>
<path d="M130.541 210.267C130.472 210.268 130.404 210.244 130.348 210.2C130.291 210.155 130.249 210.092 130.227 210.019C129.63 207.704 129.346 205.302 129.384 202.893C129.388 202.793 129.426 202.699 129.49 202.629C129.555 202.56 129.641 202.521 129.731 202.521C129.775 202.522 129.819 202.533 129.859 202.553C129.9 202.573 129.936 202.602 129.967 202.638C129.997 202.674 130.021 202.716 130.036 202.762C130.052 202.809 130.059 202.858 130.057 202.907C130.023 205.227 130.294 207.54 130.861 209.772C130.876 209.818 130.883 209.867 130.88 209.917C130.878 209.966 130.867 210.014 130.847 210.058C130.828 210.103 130.8 210.142 130.767 210.174C130.733 210.206 130.694 210.23 130.652 210.245C130.616 210.26 130.579 210.267 130.541 210.267Z" fill="white"/>
<path d="M135.174 217.488C132.707 217.334 130.279 216.729 127.988 215.698C127.946 215.681 127.908 215.655 127.876 215.621C127.844 215.588 127.819 215.547 127.801 215.502C127.783 215.458 127.774 215.409 127.773 215.36C127.773 215.311 127.781 215.263 127.798 215.217C127.813 215.171 127.837 215.129 127.867 215.093C127.897 215.057 127.933 215.028 127.973 215.008C128.013 214.988 128.056 214.976 128.1 214.975C128.144 214.973 128.188 214.981 128.229 214.999C130.447 215.995 132.794 216.59 135.181 216.761C135.225 216.761 135.269 216.772 135.31 216.792C135.35 216.812 135.387 216.841 135.417 216.877C135.447 216.913 135.471 216.955 135.487 217.001C135.502 217.048 135.509 217.097 135.508 217.146C135.503 217.24 135.465 217.328 135.403 217.392C135.341 217.456 135.259 217.491 135.174 217.488Z" fill="white"/>
<path d="M73.7851 174.169C73.9419 174.096 74.4385 162.413 69.9173 155.526C65.3961 148.64 59.9407 147.847 56.3473 149.521C52.7539 151.195 53.4856 155.308 57.9088 157.776C62.3319 160.243 67.8396 164.546 69.1529 172.407L73.7851 174.169Z" fill="#37474F"/>
<path d="M72.1253 170.741C72.0457 170.74 71.9686 170.709 71.9077 170.651C71.8468 170.594 71.8059 170.515 71.7921 170.428C70.1 158.562 63.8017 152.746 58.4769 151.261C58.4338 151.25 58.3931 151.229 58.3572 151.2C58.3214 151.172 58.291 151.135 58.2679 151.093C58.2448 151.051 58.2294 151.004 58.2226 150.956C58.2159 150.907 58.2179 150.857 58.2286 150.81C58.2373 150.756 58.2562 150.705 58.2842 150.66C58.3122 150.615 58.3485 150.578 58.3907 150.55C58.4329 150.523 58.48 150.505 58.5287 150.5C58.5774 150.494 58.6266 150.501 58.6729 150.518C64.2067 152.062 70.7468 158.067 72.4912 170.289C72.4986 170.338 72.4972 170.388 72.487 170.436C72.4769 170.485 72.4581 170.53 72.432 170.57C72.4058 170.61 72.3727 170.644 72.3346 170.669C72.2965 170.695 72.2543 170.712 72.2103 170.719L72.1253 170.741Z" fill="white"/>
<path d="M72.9747 195.862C72.3214 192.783 69.5055 190.766 66.2191 190.417C62.8021 190.075 58.8298 189.689 57.7713 186.486C56.7129 183.283 57.7713 178.923 57.2944 176.79C56.7129 174.205 55.8244 172.669 51.3359 171.097C47.3178 169.692 45.0964 165.412 49.1471 163.607C53.1979 161.801 57.2552 162.944 60.0123 164.335C62.7694 165.725 62.887 167.159 66.7679 166.788C70.6488 166.416 73.5431 169.132 73.7849 171.752L72.9747 195.862Z" fill="#455A64"/>
<path d="M72.9744 185.415C72.9049 185.415 72.8372 185.391 72.7801 185.346C72.723 185.302 72.6792 185.24 72.6543 185.168C69.4659 175.268 56.4251 166.307 52.0869 165.739C51.999 165.726 51.919 165.676 51.8641 165.598C51.8092 165.521 51.7836 165.422 51.7929 165.324C51.8028 165.225 51.8474 165.134 51.9172 165.071C51.9869 165.009 52.0761 164.979 52.1653 164.989C56.6211 165.579 70.0213 174.766 73.288 184.913C73.3035 184.959 73.3106 185.009 73.3088 185.058C73.307 185.107 73.2963 185.156 73.2774 185.201C73.2586 185.245 73.2319 185.286 73.1989 185.319C73.1659 185.352 73.1274 185.377 73.0855 185.393L72.9744 185.415Z" fill="white"/>
<path d="M69.9164 179.469H69.8446C69.7572 179.446 69.6814 179.386 69.6337 179.301C69.586 179.217 69.5702 179.115 69.5897 179.017C70.6612 173.856 69.5897 170.537 69.5897 170.5C69.5594 170.404 69.5648 170.298 69.6046 170.206C69.6444 170.113 69.7154 170.043 69.8021 170.009C69.8887 169.975 69.9839 169.981 70.0666 170.025C70.1493 170.07 70.2128 170.149 70.2431 170.246C70.2888 170.384 71.3734 173.798 70.2431 179.185C70.2244 179.266 70.1822 179.337 70.1231 179.389C70.064 179.44 69.9913 179.468 69.9164 179.469Z" fill="white"/>
<path d="M72.1247 183.275C72.07 183.275 72.0161 183.26 71.9679 183.231C69.3545 181.652 63.6704 182.78 63.6116 182.787C63.5675 182.8 63.5215 182.802 63.4765 182.795C63.4315 182.787 63.3884 182.768 63.35 182.741C63.3115 182.714 63.2785 182.678 63.2529 182.636C63.2273 182.594 63.2097 182.547 63.2012 182.497C63.1927 182.447 63.1934 182.396 63.2034 182.346C63.2134 182.297 63.2324 182.25 63.2592 182.209C63.2861 182.168 63.3202 182.134 63.3594 182.108C63.3987 182.082 63.4423 182.066 63.4875 182.059C63.7292 182.008 69.4591 180.873 72.288 182.576C72.3645 182.61 72.4274 182.674 72.4649 182.755C72.5024 182.837 72.5121 182.931 72.4922 183.02C72.4722 183.109 72.424 183.187 72.3564 183.239C72.2888 183.291 72.2065 183.314 72.1247 183.304V183.275Z" fill="white"/>
<path d="M130.938 49.8731C128.436 47.2525 123.908 46.2334 118.224 50.1133C112.54 53.9933 108.045 66.4046 106.634 75.1836C105.223 83.9626 104.334 95.4277 107.157 100.29C109.979 105.153 120.224 110.307 120.224 110.307L121.465 105.524L130.938 49.8731Z" fill="#1FB9B3"/>
<path opacity="0.4" d="M130.938 49.8731C128.436 47.2525 123.908 46.2334 118.224 50.1133C112.54 53.9933 108.045 66.4046 106.634 75.1836C105.223 83.9626 104.334 95.4277 107.157 100.29C109.979 105.153 120.224 110.307 120.224 110.307L121.465 105.524L130.938 49.8731Z" fill="white"/>
<path d="M109.967 98.8343C114.403 104.752 121.492 105.553 121.492 105.553L148.834 87.9152L137.884 80.876L109.967 98.8343Z" fill="#1FB9B3"/>
<path opacity="0.2" d="M109.967 98.8343C114.403 104.752 121.492 105.553 121.492 105.553L148.834 87.9152L137.884 80.876L109.967 98.8343Z" fill="black"/>
<path d="M109.967 98.8345C108.171 96.4614 107.805 90.354 108.778 80.9126C109.837 70.5468 113.28 54.5103 121.486 49.2254C131.11 43.0379 140.884 58.412 137.905 80.9126L109.967 98.8345Z" fill="#1FB9B3"/>
<path d="M174.022 149.004C179.072 155.381 182.77 156.648 184.122 158.009C185.475 159.37 184.939 162.311 181.921 163.25C178.902 164.189 175.511 163.636 173.388 161.605C171.265 159.574 169.69 156.801 167.56 155.359C165.43 153.918 164.372 153.576 163.941 151.72C163.509 149.863 164.659 144.076 164.659 144.076L174.022 149.004Z" fill="#263238"/>
<path d="M171.128 138.871C170.86 141.361 170.534 143.552 172.232 146.383C172.781 147.294 173.379 148.167 174.022 148.997C176.976 152.789 179.373 155.745 179.798 156.276C180.223 156.808 178.06 158.737 175.381 157.732C172.703 156.727 170.187 152.636 168.319 150.212C167.489 149.128 166.679 148.145 166.039 147.388C165.177 146.379 164.678 145.053 164.634 143.661L164.51 139.73L171.128 138.871Z" fill="#FFA8A7"/>
<path d="M158.687 159.436C163.738 165.82 167.429 167.079 168.788 168.44C170.147 169.801 169.605 172.75 166.586 173.689C163.568 174.628 160.177 174.074 158.047 172.036C155.917 169.998 154.356 167.239 152.226 165.798C150.096 164.356 149.031 164.014 148.606 162.158C148.182 160.302 149.325 154.515 149.325 154.515L158.687 159.436Z" fill="#263238"/>
<path d="M155.786 149.31C155.525 151.806 155.192 153.99 156.897 156.822C157.444 157.734 158.042 158.607 158.687 159.435C161.64 163.235 164.032 166.19 164.456 166.715C164.881 167.239 162.725 169.175 160.04 168.17C157.354 167.166 154.846 163.075 152.984 160.658C152.154 159.566 151.344 158.591 150.703 157.834C149.843 156.824 149.344 155.498 149.299 154.107L149.168 150.169L155.786 149.31Z" fill="#FFA8A7"/>
<path d="M135.362 14H139.243C140.759 13.9981 142.26 14.329 143.661 14.9737C145.062 15.6184 146.335 16.5644 147.408 17.7576C148.481 18.9507 149.332 20.3677 149.913 21.9275C150.494 23.4873 150.794 25.1593 150.794 26.8482V59.1396H123.824V26.8482C123.826 23.4399 125.042 20.172 127.206 17.7627C129.37 15.3534 132.303 14 135.362 14Z" fill="#263238"/>
<path d="M152.415 51.5179C147.9 46.233 145.594 45.6943 142.85 45.6943L148.076 62.8009C148.076 62.8009 156.674 69.134 161.705 72.6281L164.9 64.7809C164.9 64.7809 156.929 56.7809 152.415 51.5179Z" fill="#FFA8A7"/>
<path d="M121.905 90.0986C120.226 94.1314 118.063 98.419 120.252 102.568C122.44 106.718 140.218 102.568 140.218 102.568V90.0986H121.905Z" fill="#263238"/>
<path d="M141.139 45.6941C143.099 45.5122 145.32 45.5777 147.672 49.989C150.024 54.4003 151.344 56.8753 150.599 63.2957C149.854 69.7161 147.071 74.6661 146.869 77.0683C146.666 79.4705 147.182 91.0157 147.182 91.0157C147.182 91.0157 143.746 96.4825 135.2 96.7373C132.681 96.7987 130.18 96.2349 127.881 95.0867C125.581 93.9384 123.54 92.2345 121.904 90.0985L128.438 77.0392L126.765 50.4985L133.148 46.2401L141.139 45.6941Z" fill="#1FB9B3"/>
<path d="M141.139 45.6941C143.099 45.5122 145.32 45.5777 147.672 49.989C150.024 54.4003 151.344 56.8753 150.599 63.2957C149.854 69.7161 147.071 74.6661 146.869 77.0683C146.666 79.4705 147.182 91.0157 147.182 91.0157C147.182 91.0157 143.746 96.4825 135.2 96.7373C132.681 96.7987 130.18 96.2349 127.881 95.0867C125.581 93.9384 123.54 92.2345 121.904 90.0985L128.438 77.0392L126.765 50.4985L133.148 46.2401L141.139 45.6941Z" fill="#E0E0E0"/>
<path d="M133.154 55.0854C132.535 55.0854 131.922 54.9494 131.35 54.6852C130.778 54.421 130.258 54.0338 129.821 53.5456C129.383 53.0575 129.036 52.478 128.8 51.8404C128.564 51.2028 128.443 50.5196 128.443 49.8297V34.543H133.154V55.0854Z" fill="#263238"/>
<path d="M146.352 20.0713C147.77 21.0103 149.534 24.9994 149.358 33.3562C149.214 40.4463 147.149 42.1934 146.091 42.7029C145.032 43.2125 143.059 42.8995 141.112 42.5355V46.7939C141.112 46.7939 143.798 50.2662 143.628 52.2098C143.458 54.1534 139.753 54.6266 137.245 52.7194C135.617 51.4135 134.22 49.7849 133.122 47.915V37.6292C133.122 37.6292 131.815 39.5801 129.672 37.9932C127.529 36.4063 127.444 32.4827 128.692 31.0777C129.94 29.6728 132.612 30.1096 133.122 32.0605C133.122 32.0605 136.219 32.1842 140.309 29.6655C141.923 28.7099 143.312 27.3426 144.362 25.6754C145.413 24.0081 146.094 22.0879 146.352 20.0713Z" fill="#FFA8A7"/>
<path d="M142.255 31.5794C142.265 31.815 142.19 32.0451 142.047 32.2191C141.904 32.3932 141.705 32.4969 141.494 32.5076C141.283 32.5182 141.076 32.4348 140.92 32.2757C140.764 32.1167 140.67 31.895 140.661 31.6595C140.656 31.5429 140.672 31.4264 140.708 31.3166C140.744 31.2068 140.798 31.106 140.869 31.0198C140.94 30.9336 141.025 30.8638 141.12 30.8143C141.215 30.7648 141.317 30.7366 141.422 30.7314C141.527 30.7261 141.631 30.7439 141.73 30.7837C141.828 30.8234 141.919 30.8844 141.996 30.9632C142.074 31.0419 142.136 31.1369 142.181 31.2426C142.225 31.3484 142.25 31.4628 142.255 31.5794Z" fill="#263238"/>
<path d="M140.812 28.8501L139.153 29.9929C139.018 29.7397 138.976 29.4379 139.037 29.1514C139.098 28.8648 139.257 28.6158 139.479 28.457C139.589 28.3831 139.712 28.3346 139.839 28.3144C139.966 28.2942 140.096 28.3027 140.22 28.3393C140.345 28.376 140.461 28.4401 140.563 28.5278C140.664 28.6156 140.749 28.7251 140.812 28.8501Z" fill="#263238"/>
<path d="M142.471 37.585L144.326 38.2474C144.291 38.3845 144.232 38.5124 144.151 38.6236C144.071 38.7348 143.972 38.827 143.859 38.8949C143.747 38.9627 143.623 39.0047 143.496 39.0185C143.368 39.0324 143.24 39.0177 143.117 38.9753C142.871 38.8789 142.667 38.6813 142.547 38.423C142.427 38.1646 142.399 37.8649 142.471 37.585Z" fill="#F28F8F"/>
<path d="M148.835 28.843L147.215 27.5909C147.282 27.4687 147.372 27.3632 147.477 27.281C147.583 27.1988 147.702 27.1416 147.828 27.1129C147.954 27.0843 148.085 27.0848 148.211 27.1144C148.337 27.144 148.456 27.2022 148.561 27.2852C148.776 27.457 148.924 27.7139 148.975 28.0034C149.026 28.293 148.976 28.5933 148.835 28.843Z" fill="#263238"/>
<path d="M148.443 30.9321C148.445 31.1079 148.401 31.2805 148.316 31.4285C148.231 31.5766 148.109 31.6934 147.964 31.7645C147.82 31.8356 147.66 31.8577 147.505 31.8282C147.349 31.7987 147.205 31.7189 147.09 31.5986C146.975 31.4783 146.894 31.323 146.858 31.1519C146.821 30.9809 146.831 30.8017 146.885 30.6367C146.94 30.4716 147.037 30.3282 147.164 30.2241C147.291 30.12 147.443 30.0599 147.6 30.0513C147.708 30.0474 147.814 30.0671 147.915 30.1093C148.015 30.1514 148.107 30.2152 148.186 30.297C148.264 30.3788 148.327 30.477 148.371 30.586C148.415 30.695 148.44 30.8126 148.443 30.9321Z" fill="#263238"/>
<path d="M144.666 30.4229L144.797 35.7878L147.332 34.9143L144.666 30.4229Z" fill="#F28F8F"/>
<path d="M141.139 42.5348C139.526 42.331 136.285 41.2391 135.566 40.0234C135.705 40.8 136.093 41.4936 136.657 41.9743C137.716 43.1026 141.139 43.9179 141.139 43.9179V42.5348Z" fill="#F28F8F"/>
<path d="M124.223 163.607L72.2363 130.165L181.685 59.7588L233.672 93.2004L124.223 163.607Z" fill="#1FB9B3"/>
<path opacity="0.4" d="M124.223 163.607L72.2363 130.165L181.685 59.7588L233.672 93.2004L124.223 163.607Z" fill="white"/>
<path d="M72.2363 130.165V197.048L74.9739 198.81V153.044L121.492 182.963V228.728L124.223 230.49V163.607L72.2363 130.165Z" fill="#1FB9B3"/>
<path opacity="0.3" d="M72.2363 130.165V197.048L74.9739 198.81V153.044L121.492 182.963V228.728L124.223 230.49V163.607L72.2363 130.165Z" fill="black"/>
<path d="M74.9746 198.81L77.7121 197.048V154.806L74.9746 153.044V198.81Z" fill="#1FB9B3"/>
<path opacity="0.5" d="M74.9746 198.81L77.7121 197.048V154.806L74.9746 153.044V198.81Z" fill="black"/>
<path d="M124.225 230.49L126.962 228.728V182.963L230.936 116.079V161.845L233.673 160.083V93.2002L124.225 163.607V230.49Z" fill="#1FB9B3"/>
<path opacity="0.1" d="M124.225 230.49L126.962 228.728V182.963L230.936 116.079V161.845L233.673 160.083V93.2002L124.225 163.607V230.49Z" fill="black"/>
<path d="M126.961 179.446V165.368L159.798 144.243V158.322L126.961 179.446Z" fill="#1FB9B3"/>
<path opacity="0.3" d="M126.961 179.446V165.368L159.798 144.243V158.322L126.961 179.446Z" fill="black"/>
<path d="M162.529 156.567V142.482L195.367 121.364V135.443L162.529 156.567Z" fill="#1FB9B3"/>
<path opacity="0.3" d="M162.529 156.567C162.529 156.567 161.176 147.813 162.529 142.482C166.282 127.704 195.367 121.364 195.367 121.364V135.443L162.529 156.567Z" fill="black"/>
<path d="M198.104 133.681V119.602L230.934 98.4775V112.563L198.104 133.681Z" fill="#1FB9B3"/>
<path opacity="0.3" d="M198.104 133.681V119.602L230.934 98.4775V112.563L198.104 133.681Z" fill="black"/>
<path d="M148.835 151.282V152.411C148.835 153.029 147.528 154.376 145.914 155.41L140.805 158.7C139.191 159.734 137.885 160.076 137.885 159.428V158.307L148.835 151.282Z" fill="#263238"/>
<path d="M184.422 128.403V129.532C184.422 130.15 183.115 131.497 181.502 132.531L176.392 135.821C174.785 136.855 173.479 137.19 173.479 136.549V135.421L184.422 128.403Z" fill="#263238"/>
<path d="M219.991 105.524V106.645C219.991 107.271 218.684 108.611 217.077 109.652L211.961 112.935C210.354 113.976 209.047 114.311 209.047 113.663V112.534L219.991 105.524Z" fill="#263238"/>
<path d="M230.934 161.845L228.203 160.083V117.841L230.934 116.079V161.845Z" fill="#1FB9B3"/>
<path opacity="0.3" d="M230.934 161.845L228.203 160.083V117.841L230.934 116.079V161.845Z" fill="black"/>
<path d="M154.322 97.7279V97.4731C154.334 97.2477 154.393 97.0284 154.494 96.8326C154.595 96.6368 154.735 96.4698 154.904 96.3448L189.342 74.2154C189.523 74.1142 189.723 74.0615 189.926 74.0615C190.129 74.0615 190.33 74.1142 190.511 74.2154L197.554 78.7432C197.723 78.8682 197.864 79.0352 197.964 79.231C198.065 79.4268 198.124 79.6461 198.136 79.8715V80.1336C198.122 80.3584 198.062 80.5767 197.96 80.7712C197.858 80.9657 197.717 81.1312 197.548 81.2546L163.149 103.384C162.967 103.485 162.767 103.538 162.564 103.538C162.361 103.538 162.161 103.485 161.979 103.384L154.904 98.8344C154.737 98.7116 154.599 98.5481 154.498 98.3563C154.397 98.1645 154.337 97.9496 154.322 97.7279Z" fill="#1FB9B3"/>
<path opacity="0.7" d="M154.322 97.7279V97.4731C154.334 97.2477 154.393 97.0284 154.494 96.8326C154.595 96.6368 154.735 96.4698 154.904 96.3448L189.342 74.2154C189.523 74.1142 189.723 74.0615 189.926 74.0615C190.129 74.0615 190.33 74.1142 190.511 74.2154L197.554 78.7432C197.723 78.8682 197.864 79.0352 197.964 79.231C198.065 79.4268 198.124 79.6461 198.136 79.8715V80.1336C198.122 80.3584 198.062 80.5767 197.96 80.7712C197.858 80.9657 197.717 81.1312 197.548 81.2546L163.149 103.384C162.967 103.485 162.767 103.538 162.564 103.538C162.361 103.538 162.161 103.485 161.979 103.384L154.904 98.8344C154.737 98.7116 154.599 98.5481 154.498 98.3563C154.397 98.1645 154.337 97.9496 154.322 97.7279Z" fill="white"/>
<path d="M154.905 97.0938L161.948 101.629C162.13 101.73 162.33 101.783 162.533 101.783C162.736 101.783 162.936 101.73 163.118 101.629L197.516 79.4995C197.579 79.4675 197.632 79.4163 197.669 79.3517C197.706 79.2872 197.726 79.2122 197.726 79.1355C197.726 79.0588 197.706 78.9838 197.669 78.9193C197.632 78.8548 197.579 78.8035 197.516 78.7715L190.473 74.2437C190.292 74.1425 190.091 74.0898 189.888 74.0898C189.685 74.0898 189.485 74.1425 189.304 74.2437L154.898 96.3731C154.585 96.5551 154.585 96.89 154.905 97.0938Z" fill="#1FB9B3"/>
<path opacity="0.9" d="M154.905 97.0938L161.948 101.629C162.13 101.73 162.33 101.783 162.533 101.783C162.736 101.783 162.936 101.73 163.118 101.629L197.516 79.4995C197.579 79.4675 197.632 79.4163 197.669 79.3517C197.706 79.2872 197.726 79.2122 197.726 79.1355C197.726 79.0588 197.706 78.9838 197.669 78.9193C197.632 78.8548 197.579 78.8035 197.516 78.7715L190.473 74.2437C190.292 74.1425 190.091 74.0898 189.888 74.0898C189.685 74.0898 189.485 74.1425 189.304 74.2437L154.898 96.3731C154.585 96.5551 154.585 96.89 154.905 97.0938Z" fill="white"/>
<path d="M111.13 118.802L131.847 132.138C132.029 132.239 132.229 132.292 132.432 132.292C132.635 132.292 132.835 132.239 133.017 132.138L148.266 122.325C148.331 122.296 148.386 122.245 148.426 122.18C148.465 122.116 148.486 122.039 148.486 121.961C148.486 121.883 148.465 121.807 148.426 121.742C148.386 121.677 148.331 121.627 148.266 121.597L127.542 108.269C127.362 108.165 127.163 108.11 126.96 108.11C126.758 108.11 126.558 108.165 126.379 108.269L111.13 118.052C110.803 118.263 110.803 118.598 111.13 118.802Z" fill="#1FB9B3"/>
<path opacity="0.8" d="M111.13 118.802L131.847 132.138C132.029 132.239 132.229 132.292 132.432 132.292C132.635 132.292 132.835 132.239 133.017 132.138L148.266 122.325C148.331 122.296 148.386 122.245 148.426 122.18C148.465 122.116 148.486 122.039 148.486 121.961C148.486 121.883 148.465 121.807 148.426 121.742C148.386 121.677 148.331 121.627 148.266 121.597L127.542 108.269C127.362 108.165 127.163 108.11 126.96 108.11C126.758 108.11 126.558 108.165 126.379 108.269L111.13 118.052C110.803 118.263 110.803 118.598 111.13 118.802Z" fill="white"/>
<path d="M126.379 108.247L111.895 117.557L131.848 130.398C132.029 130.499 132.229 130.552 132.432 130.552C132.635 130.552 132.836 130.499 133.017 130.398L147.528 121.081L127.568 108.247C127.385 108.138 127.181 108.081 126.974 108.081C126.766 108.081 126.562 108.138 126.379 108.247Z" fill="#1FB9B3"/>
<path opacity="0.7" d="M126.379 108.247L111.895 117.557L131.848 130.398C132.029 130.499 132.229 130.552 132.432 130.552C132.635 130.552 132.836 130.499 133.017 130.398L147.528 121.081L127.568 108.247C127.385 108.138 127.181 108.081 126.974 108.081C126.766 108.081 126.562 108.138 126.379 108.247Z" fill="white"/>
<path d="M111.13 116.458L131.847 129.786C132.029 129.887 132.229 129.94 132.432 129.94C132.635 129.94 132.835 129.887 133.017 129.786L148.266 119.981C148.328 119.949 148.381 119.898 148.419 119.833C148.456 119.769 148.475 119.694 148.475 119.617C148.475 119.54 148.456 119.465 148.419 119.401C148.381 119.336 148.328 119.285 148.266 119.253L127.542 105.895C127.361 105.795 127.162 105.743 126.96 105.743C126.758 105.743 126.559 105.795 126.379 105.895L111.13 115.708C111.058 115.733 110.995 115.783 110.951 115.85C110.907 115.918 110.883 115.999 110.883 116.083C110.883 116.166 110.907 116.248 110.951 116.315C110.995 116.383 111.058 116.433 111.13 116.458Z" fill="#1FB9B3"/>
<path opacity="0.9" d="M111.13 116.458L131.847 129.786C132.029 129.887 132.229 129.94 132.432 129.94C132.635 129.94 132.835 129.887 133.017 129.786L148.266 119.981C148.328 119.949 148.381 119.898 148.419 119.833C148.456 119.769 148.475 119.694 148.475 119.617C148.475 119.54 148.456 119.465 148.419 119.401C148.381 119.336 148.328 119.285 148.266 119.253L127.542 105.895C127.361 105.795 127.162 105.743 126.96 105.743C126.758 105.743 126.559 105.795 126.379 105.895L111.13 115.708C111.058 115.733 110.995 115.783 110.951 115.85C110.907 115.918 110.883 115.999 110.883 116.083C110.883 116.166 110.907 116.248 110.951 116.315C110.995 116.383 111.058 116.433 111.13 116.458Z" fill="white"/>
<path d="M122.616 102.569C121.93 104.651 122.982 106.332 124.975 106.318C126.022 106.257 127.032 105.869 127.891 105.198C128.749 104.528 129.421 103.601 129.829 102.525C130.521 100.443 129.463 98.7619 127.47 98.7765C126.423 98.8373 125.413 99.2253 124.554 99.896C123.696 100.567 123.024 101.493 122.616 102.569Z" fill="#1FB9B3"/>
<path opacity="0.1" d="M122.616 102.569C121.93 104.651 122.982 106.332 124.975 106.318C126.022 106.257 127.032 105.869 127.891 105.198C128.749 104.528 129.421 103.601 129.829 102.525C130.521 100.443 129.463 98.7619 127.47 98.7765C126.423 98.8373 125.413 99.2253 124.554 99.896C123.696 100.567 123.024 101.493 122.616 102.569Z" fill="black"/>
<path d="M124.269 112.447C122.707 117.157 125.099 120.964 129.613 120.935C134.128 120.906 139.034 117.033 140.602 112.345C142.17 107.657 139.766 103.836 135.258 103.858C130.75 103.879 125.824 107.73 124.269 112.447Z" fill="#455A64"/>
<path d="M127.927 98.834L125.222 100.938L122.518 103.041C121.623 106.994 121.355 113.167 124.68 118.481L140.243 106.368C136.885 101.018 131.54 99.2271 127.927 98.834Z" fill="#455A64"/>
<path d="M129.488 99.1182C129.488 99.1182 129.972 103.886 126.764 106.048C126.764 106.048 129.782 105.124 130.684 102.758C131.585 100.392 129.488 99.1182 129.488 99.1182Z" fill="#263238"/>
<path d="M129.888 99.6566C128.683 97.7906 127.062 96.3076 125.184 95.3545L123.015 97.0724L122.773 97.2617L120.598 98.9796C120.786 101.26 121.502 103.447 122.675 105.327C122.946 105.71 123.296 106.014 123.696 106.212C124.095 106.41 124.532 106.496 124.969 106.463C126.071 106.396 127.135 105.984 128.037 105.274C128.94 104.565 129.645 103.587 130.071 102.452C130.247 102.001 130.321 101.51 130.287 101.02C130.253 100.53 130.111 100.057 129.875 99.642L129.888 99.6566Z" fill="#37474F"/>
<path d="M120.67 97.6845C120.539 97.9774 120.482 98.3044 120.505 98.6306C120.527 98.9568 120.629 99.2701 120.798 99.5372C120.968 99.8044 121.199 100.016 121.467 100.148C121.736 100.281 122.031 100.33 122.323 100.291C123.052 100.248 123.755 99.976 124.351 99.5072C124.948 99.0384 125.413 98.3914 125.694 97.6408C125.824 97.3484 125.881 97.0223 125.859 96.6968C125.837 96.3713 125.736 96.0586 125.567 95.7917C125.399 95.5248 125.168 95.3136 124.901 95.1803C124.634 95.0471 124.339 94.9968 124.048 95.0348C123.319 95.0823 122.617 95.3555 122.02 95.8236C121.423 96.2918 120.956 96.9362 120.67 97.6845Z" fill="#455A64"/>
<path d="M125.125 103.601C124.853 103.166 124.493 102.807 124.075 102.554C123.656 102.301 123.19 102.161 122.714 102.146C122.533 102.128 122.351 102.169 122.191 102.265C122.031 102.361 121.899 102.506 121.812 102.684L115.396 119.944C115.349 120.111 115.337 120.288 115.362 120.461C115.387 120.634 115.448 120.799 115.54 120.941C115.812 121.378 116.173 121.738 116.593 121.991C117.013 122.244 117.48 122.383 117.957 122.397C118.139 122.415 118.321 122.374 118.481 122.278C118.641 122.183 118.773 122.037 118.859 121.858L125.262 104.657C125.322 104.483 125.342 104.294 125.318 104.109C125.294 103.924 125.227 103.749 125.125 103.601Z" fill="#455A64"/>
<path d="M132.763 145.873C132.763 145.629 132.739 145.385 132.691 145.146C132.141 142.353 130.664 139.896 128.556 138.267H119.899C117.788 139.895 116.309 142.352 115.756 145.146C115.711 145.385 115.689 145.629 115.691 145.873C115.689 145.917 115.689 145.961 115.691 146.005C115.77 147.337 116.593 148.654 118.174 149.644C121.512 151.828 126.916 151.828 130.254 149.644C131.835 148.625 132.659 147.308 132.737 146.005C132.748 145.961 132.757 145.918 132.763 145.873Z" fill="#455A64"/>
<path d="M124.224 144.462C127.428 144.462 130.025 142.79 130.025 140.727C130.025 138.665 127.428 136.993 124.224 136.993C121.019 136.993 118.422 138.665 118.422 140.727C118.422 142.79 121.019 144.462 124.224 144.462Z" fill="#37474F"/>
<path d="M122.851 139.838C122.684 139.9 122.539 140.019 122.436 140.177C122.333 140.336 122.277 140.527 122.277 140.723C122.277 140.919 122.333 141.11 122.436 141.268C122.539 141.427 122.684 141.546 122.851 141.607C123.277 141.848 123.748 141.973 124.226 141.973C124.704 141.973 125.175 141.848 125.601 141.607C125.768 141.546 125.913 141.427 126.016 141.268C126.119 141.11 126.174 140.919 126.174 140.723C126.174 140.527 126.119 140.336 126.016 140.177C125.913 140.019 125.768 139.9 125.601 139.838C125.175 139.598 124.704 139.473 124.226 139.473C123.748 139.473 123.277 139.598 122.851 139.838Z" fill="#455A64"/>
<path d="M114.905 122.965C114.738 123.027 114.593 123.146 114.49 123.304C114.387 123.463 114.332 123.654 114.332 123.85C114.332 124.046 114.387 124.237 114.49 124.395C114.593 124.554 114.738 124.673 114.905 124.734C115.332 124.975 115.803 125.1 116.281 125.1C116.758 125.1 117.229 124.975 117.656 124.734C117.823 124.673 117.968 124.554 118.071 124.395C118.174 124.237 118.229 124.046 118.229 123.85C118.229 123.654 118.174 123.463 118.071 123.304C117.968 123.146 117.823 123.027 117.656 122.965C117.229 122.725 116.758 122.6 116.281 122.6C115.803 122.6 115.332 122.725 114.905 122.965Z" fill="#1FB9B3"/>
<path opacity="0.3" d="M114.905 122.965C114.738 123.027 114.593 123.146 114.49 123.304C114.387 123.463 114.332 123.654 114.332 123.85C114.332 124.046 114.387 124.237 114.49 124.395C114.593 124.554 114.738 124.673 114.905 124.734C115.332 124.975 115.803 125.1 116.281 125.1C116.758 125.1 117.229 124.975 117.656 124.734C117.823 124.673 117.968 124.554 118.071 124.395C118.174 124.237 118.229 124.046 118.229 123.85C118.229 123.654 118.174 123.463 118.071 123.304C117.968 123.146 117.823 123.027 117.656 122.965C117.229 122.725 116.758 122.6 116.281 122.6C115.803 122.6 115.332 122.725 114.905 122.965Z" fill="black"/>
<path d="M118.156 123.496L126.094 140.37L122.363 141.083L114.412 124.188L118.156 123.496Z" fill="#455A64"/>
<path d="M115.351 118.583C115.105 118.516 114.847 118.53 114.608 118.623C114.369 118.716 114.16 118.884 114.005 119.107C113.557 119.669 113.234 120.341 113.063 121.069C112.891 121.796 112.876 122.558 113.019 123.293C113.058 123.534 113.148 123.762 113.281 123.958C113.413 124.154 113.585 124.313 113.783 124.421L116.749 125.659L118.226 119.762L115.351 118.583Z" fill="#37474F"/>
<path d="M116.933 120.33C116.483 120.892 116.159 121.565 115.986 122.294C115.813 123.022 115.798 123.786 115.94 124.523C116.266 125.855 117.246 126.139 118.109 125.156C118.559 124.595 118.883 123.923 119.056 123.196C119.228 122.468 119.244 121.706 119.102 120.97C118.782 119.638 117.802 119.354 116.933 120.33Z" fill="#263238"/>
<path d="M102.016 134.954C104.774 131.824 106.387 123.999 103.702 121.517H90.0341C87.3488 123.999 88.9626 131.817 91.7197 134.954L91.7916 135.042L91.8896 135.144C91.9677 135.232 92.0506 135.314 92.1378 135.391L92.2032 135.449L92.4122 135.624C92.5253 135.717 92.6431 135.802 92.765 135.879C94.038 136.597 95.4447 136.971 96.8713 136.971C98.298 136.971 99.7047 136.597 100.978 135.879C101.095 135.806 101.213 135.719 101.337 135.624L101.526 135.457L101.611 135.391L101.847 135.151L101.958 135.027L102.016 134.954Z" fill="#1FB9B3"/>
<path opacity="0.7" d="M102.016 134.954C104.774 131.824 106.387 123.999 103.702 121.517H90.0341C87.3488 123.999 88.9626 131.817 91.7197 134.954L91.7916 135.042L91.8896 135.144C91.9677 135.232 92.0506 135.314 92.1378 135.391L92.2032 135.449L92.4122 135.624C92.5253 135.717 92.6431 135.802 92.765 135.879C94.038 136.597 95.4447 136.971 96.8713 136.971C98.298 136.971 99.7047 136.597 100.978 135.879C101.095 135.806 101.213 135.719 101.337 135.624L101.526 135.457L101.611 135.391L101.847 135.151L101.958 135.027L102.016 134.954Z" fill="white"/>
<path d="M96.8615 129.291C101.275 129.291 104.852 126.99 104.852 124.152C104.852 121.314 101.275 119.013 96.8615 119.013C92.4485 119.013 88.8711 121.314 88.8711 124.152C88.8711 126.99 92.4485 129.291 96.8615 129.291Z" fill="#1FB9B3"/>
<path opacity="0.9" d="M96.8615 129.291C101.275 129.291 104.852 126.99 104.852 124.152C104.852 121.314 101.275 119.013 96.8615 119.013C92.4485 119.013 88.8711 121.314 88.8711 124.152C88.8711 126.99 92.4485 129.291 96.8615 129.291Z" fill="white"/>
<path d="M93.4249 121.939C91.5302 123.162 91.5302 125.142 93.4249 126.365C94.4918 126.964 95.67 127.277 96.8648 127.277C98.0597 127.277 99.2379 126.964 100.305 126.365C102.199 125.142 102.199 123.162 100.305 121.939C99.2388 121.336 98.0602 121.021 96.8648 121.021C95.6694 121.021 94.4908 121.336 93.4249 121.939Z" fill="#1FB9B3"/>
<path opacity="0.7" d="M93.4249 121.939C91.5302 123.162 91.5302 125.142 93.4249 126.365C94.4918 126.964 95.67 127.277 96.8648 127.277C98.0597 127.277 99.2379 126.964 100.305 126.365C102.199 125.142 102.199 123.162 100.305 121.939C99.2388 121.336 98.0602 121.021 96.8648 121.021C95.6694 121.021 94.4908 121.336 93.4249 121.939Z" fill="white"/>
<path d="M100.304 124.036C99.2369 123.436 98.0587 123.124 96.8638 123.124C95.6689 123.124 94.4908 123.436 93.4239 124.036C92.9669 124.317 92.5771 124.717 92.2871 125.201C92.5771 125.685 92.9669 126.084 93.4239 126.365C94.4908 126.965 95.6689 127.277 96.8638 127.277C98.0587 127.277 99.2369 126.965 100.304 126.365C100.761 126.084 101.151 125.685 101.441 125.201C101.151 124.717 100.761 124.317 100.304 124.036Z" fill="#1FB9B3"/>
<path opacity="0.3" d="M100.304 124.036C99.2369 123.436 98.0587 123.124 96.8638 123.124C95.6689 123.124 94.4908 123.436 93.4239 124.036C92.9669 124.317 92.5771 124.717 92.2871 125.201C92.5771 125.685 92.9669 126.084 93.4239 126.365C94.4908 126.965 95.6689 127.277 96.8638 127.277C98.0587 127.277 99.2369 126.965 100.304 126.365C100.761 126.084 101.151 125.685 101.441 125.201C101.151 124.717 100.761 124.317 100.304 124.036Z" fill="black"/>
<path d="M98.1031 125.681C100.083 124.303 101.578 122.208 102.337 119.748C103.598 115.642 102.853 110.678 101.723 108.625C100.194 105.844 96.4958 106.157 97.5869 110.809C98.678 115.461 99.3575 120.491 97.6261 123.854L98.1031 125.681Z" fill="#37474F"/>
<path d="M98.2338 124.836C98.1934 124.837 98.1542 124.821 98.1228 124.793C98.1068 124.775 98.0941 124.754 98.0854 124.731C98.0767 124.708 98.0723 124.683 98.0723 124.658C98.0723 124.633 98.0767 124.608 98.0854 124.585C98.0941 124.562 98.1068 124.541 98.1228 124.523C99.2275 123.163 100.073 121.566 100.607 119.831C101.142 118.095 101.355 116.257 101.233 114.427C101.043 111.057 99.926 108.603 99.5013 108.232C99.4706 108.196 99.4534 108.148 99.4534 108.098C99.4534 108.047 99.4706 107.999 99.5013 107.963C99.533 107.929 99.5751 107.91 99.6189 107.91C99.6628 107.91 99.7049 107.929 99.7365 107.963C100.298 108.502 101.396 111.122 101.579 114.412C101.705 116.294 101.487 118.184 100.938 119.968C100.389 121.752 99.5199 123.394 98.3841 124.793C98.3646 124.814 98.3405 124.829 98.3142 124.837C98.2878 124.844 98.2601 124.844 98.2338 124.836Z" fill="white"/>
<path d="M94.9124 125.682C94.8067 125.276 94.5752 124.925 94.259 124.692C93.8686 124.449 93.4571 124.251 93.0307 124.102C92.2924 123.803 91.3516 123.374 91.2536 122.384C91.2305 122.029 91.2705 121.673 91.3712 121.336C91.5532 120.878 91.5967 120.367 91.4954 119.88C91.332 119.443 90.9139 119.21 90.5545 118.948C90.1582 118.687 89.8208 118.329 89.568 117.9C89.3548 117.519 89.2521 117.074 89.274 116.626C89.3458 115.709 90.1364 115.105 90.1625 114.195C90.1952 112.863 87.3989 111.057 88.8885 109.827C90.7963 108.218 93.7821 110.082 94.638 111.45C95.4938 112.819 95.4938 113.43 97.0553 114.588C98.362 115.549 99.8778 115.745 99.8778 117.638C99.8778 119.53 97.7022 119.618 99.4139 121.765C100.446 123.054 98.7606 124.167 98.1072 125.696C97.0423 125.682 95.9643 125.623 94.9124 125.682Z" fill="#455A64"/>
<path d="M96.639 125.848C96.6167 125.847 96.5947 125.841 96.5745 125.831C96.5542 125.821 96.5359 125.806 96.5207 125.788C96.5056 125.769 96.4938 125.748 96.486 125.725C96.4783 125.701 96.4748 125.676 96.4756 125.652C96.8546 114.652 91.8304 110.794 90.8242 110.489C90.7831 110.473 90.7489 110.44 90.7286 110.398C90.7083 110.355 90.7036 110.305 90.7153 110.258C90.727 110.212 90.7543 110.172 90.7916 110.147C90.8289 110.122 90.8733 110.114 90.9157 110.125C92.6144 110.641 97.1682 115.286 96.7958 125.666C96.7943 125.713 96.7775 125.757 96.7486 125.79C96.7196 125.824 96.6806 125.845 96.639 125.848Z" fill="white"/>
<path d="M95.8418 118.03C95.8014 118.03 95.7622 118.015 95.7307 117.986C94.2738 116.53 91.4252 116.589 91.3925 116.589C91.3486 116.589 91.3063 116.57 91.2747 116.536C91.243 116.502 91.2243 116.456 91.2227 116.407C91.2225 116.357 91.2393 116.309 91.2696 116.273C91.2999 116.236 91.3415 116.214 91.386 116.21C91.5101 116.21 94.3979 116.174 95.9594 117.666C95.984 117.692 96.0013 117.725 96.0089 117.761C96.0166 117.798 96.0143 117.836 96.0024 117.871C95.9905 117.906 95.9695 117.937 95.9421 117.959C95.9146 117.98 95.882 117.993 95.8483 117.994L95.8418 118.03Z" fill="white"/>
<path d="M211.921 87.8131L214.378 54.5899C214.403 54.0522 214.304 53.5162 214.088 53.0341C213.873 52.5519 213.55 52.14 213.149 51.8383C212.707 51.5997 212.22 51.4807 211.729 51.4908C211.237 51.5009 210.755 51.6399 210.32 51.8965L177.653 72.9049C177.221 73.2164 176.855 73.628 176.578 74.1117C176.302 74.5953 176.123 75.1396 176.052 75.7074L173.596 108.931C173.57 109.468 173.67 110.004 173.885 110.486C174.1 110.969 174.424 111.38 174.824 111.682C175.267 111.921 175.753 112.04 176.245 112.03C176.736 112.02 177.219 111.881 177.653 111.624L210.32 90.6157C210.752 90.3034 211.118 89.8916 211.394 89.4081C211.67 88.9246 211.85 88.3806 211.921 87.8131Z" fill="#1FB9B3"/>
<path opacity="0.8" d="M211.921 87.8131L214.378 54.5899C214.403 54.0522 214.304 53.5162 214.088 53.0341C213.873 52.5519 213.55 52.14 213.149 51.8383C212.707 51.5997 212.22 51.4807 211.729 51.4908C211.237 51.5009 210.755 51.6399 210.32 51.8965L177.653 72.9049C177.221 73.2164 176.855 73.628 176.578 74.1117C176.302 74.5953 176.123 75.1396 176.052 75.7074L173.596 108.931C173.57 109.468 173.67 110.004 173.885 110.486C174.1 110.969 174.424 111.38 174.824 111.682C175.267 111.921 175.753 112.04 176.245 112.03C176.736 112.02 177.219 111.881 177.653 111.624L210.32 90.6157C210.752 90.3034 211.118 89.8916 211.394 89.4081C211.67 88.9246 211.85 88.3806 211.921 87.8131Z" fill="white"/>
<path d="M211.923 87.8131L214.379 54.5899C214.405 54.0522 214.305 53.5162 214.09 53.0341C213.875 52.5519 213.551 52.14 213.151 51.8383C212.709 51.5997 212.222 51.4807 211.73 51.4908C211.239 51.5009 210.756 51.6399 210.322 51.8965L177.655 72.9049C177.221 73.2046 176.856 73.6135 176.59 74.0987L181.666 77.3599V109.025L210.303 90.6011C210.737 90.2934 211.106 89.8851 211.386 89.4039C211.665 88.9228 211.848 88.3802 211.923 87.8131Z" fill="#1FB9B3"/>
<path opacity="0.9" d="M211.923 87.8131L214.379 54.5899C214.405 54.0522 214.305 53.5162 214.09 53.0341C213.875 52.5519 213.551 52.14 213.151 51.8383C212.709 51.5997 212.222 51.4807 211.73 51.4908C211.239 51.5009 210.756 51.6399 210.322 51.8965L177.655 72.9049C177.221 73.2046 176.856 73.6135 176.59 74.0987L181.666 77.3599V109.025L210.303 90.6011C210.737 90.2934 211.106 89.8851 211.386 89.4039C211.665 88.9228 211.848 88.3802 211.923 87.8131Z" fill="white"/>
<path d="M176.355 110.693L178.811 77.4697C178.882 76.902 179.062 76.3577 179.336 75.8732C179.611 75.3887 179.976 74.975 180.405 74.6598L213.073 53.6587C213.883 53.1419 214.471 53.5568 214.379 54.5905L211.923 87.8137C211.852 88.3807 211.674 88.9242 211.399 89.4076C211.124 89.8911 210.759 90.3032 210.329 90.6163L177.661 111.625C176.864 112.141 176.276 111.727 176.355 110.693Z" fill="#1FB9B3"/>
<path opacity="0.7" d="M176.355 110.693L178.811 77.4697C178.882 76.902 179.062 76.3577 179.336 75.8732C179.611 75.3887 179.976 74.975 180.405 74.6598L213.073 53.6587C213.883 53.1419 214.471 53.5568 214.379 54.5905L211.923 87.8137C211.852 88.3807 211.674 88.9242 211.399 89.4076C211.124 89.8911 210.759 90.3032 210.329 90.6163L177.661 111.625C176.864 112.141 176.276 111.727 176.355 110.693Z" fill="white"/>
<path d="M193.204 84.0356C193.292 83.1425 193.552 82.2809 193.964 81.5087C194.377 80.7365 194.933 80.0717 195.595 79.5588C196.79 78.7871 197.653 79.5588 197.555 81.2476C197.465 82.1404 197.206 83.0017 196.793 83.7737C196.381 84.5458 195.825 85.2108 195.164 85.7244C193.916 86.4597 193.079 85.7317 193.204 84.0356Z" fill="#1FB9B3"/>
<path opacity="0.4" d="M193.204 84.0356C193.292 83.1425 193.552 82.2809 193.964 81.5087C194.377 80.7365 194.933 80.0717 195.595 79.5588C196.79 78.7871 197.653 79.5588 197.555 81.2476C197.465 82.1404 197.206 83.0017 196.793 83.7737C196.381 84.5458 195.825 85.2108 195.164 85.7244C193.916 86.4597 193.079 85.7317 193.204 84.0356Z" fill="white"/>
<path d="M192.629 94.962L203.573 87.9228L202.207 87.042L191.264 94.0812L192.629 94.962Z" fill="#1FB9B3"/>
<path opacity="0.9" d="M192.629 94.962L203.573 87.9228L202.207 87.042L191.264 94.0812L192.629 94.962Z" fill="white"/>
<path d="M205.721 104.134L195.921 110.423C195.721 110.543 195.495 110.598 195.268 110.583C195.084 110.574 194.903 110.522 194.739 110.43L190.433 107.664C190.269 107.538 190.134 107.373 190.037 107.18C189.939 106.987 189.883 106.771 189.871 106.55V106.296C189.871 105.881 190.132 105.706 190.453 105.917L193.066 107.584L193.647 107.963L193.517 107.235L191.256 94.1316L192.622 95.0125L203.572 87.915L206.185 103.013C206.216 103.23 206.188 103.452 206.105 103.651C206.023 103.851 205.889 104.018 205.721 104.134Z" fill="#1FB9B3"/>
<path opacity="0.7" d="M205.721 104.134L195.921 110.423C195.721 110.543 195.495 110.598 195.268 110.583C195.084 110.574 194.903 110.522 194.739 110.43L190.433 107.664C190.269 107.538 190.134 107.373 190.037 107.18C189.939 106.987 189.883 106.771 189.871 106.55V106.296C189.871 105.881 190.132 105.706 190.453 105.917L193.066 107.584L193.647 107.963L193.517 107.235L191.256 94.1316L192.622 95.0125L203.572 87.915L206.185 103.013C206.216 103.23 206.188 103.452 206.105 103.651C206.023 103.851 205.889 104.018 205.721 104.134Z" fill="white"/>
<path d="M190.074 105.844L193.406 103.696L194.086 108.697L190.074 105.844Z" fill="#1FB9B3"/>
<path opacity="0.7" d="M190.074 105.844L193.406 103.696L194.086 108.697L190.074 105.844Z" fill="white"/>
<path d="M192.61 94.9609L191.244 94.0801L193.505 107.183C193.583 107.583 193.374 107.751 193.054 107.54L190.441 105.873C190.121 105.662 189.859 105.873 189.859 106.251V106.506C189.871 106.727 189.927 106.942 190.025 107.135C190.122 107.328 190.258 107.494 190.421 107.62L194.727 110.386C194.892 110.478 195.072 110.53 195.256 110.539L192.61 94.9609Z" fill="#1FB9B3"/>
<path opacity="0.8" d="M192.61 94.9609L191.244 94.0801L193.505 107.183C193.583 107.583 193.374 107.751 193.054 107.54L190.441 105.873C190.121 105.662 189.859 105.873 189.859 106.251V106.506C189.871 106.727 189.927 106.942 190.025 107.135C190.122 107.328 190.258 107.494 190.421 107.62L194.727 110.386C194.892 110.478 195.072 110.53 195.256 110.539L192.61 94.9609Z" fill="white"/>
<path d="M157.329 112.563C159.335 112.396 159.982 111.573 160.308 110.583C160.635 109.593 160.753 108.508 159.975 106.215C159.198 103.922 154.748 100.916 150.129 102.015C145.51 103.114 144.87 107.045 145.118 108.101C145.366 109.156 148.143 111.835 151.743 112.294C153.594 112.563 155.464 112.653 157.329 112.563Z" fill="#1FB9B3"/>
<path opacity="0.7" d="M157.329 112.563C159.335 112.396 159.982 111.573 160.308 110.583C160.635 109.593 160.753 108.508 159.975 106.215C159.198 103.922 154.748 100.916 150.129 102.015C145.51 103.114 144.87 107.045 145.118 108.101C145.366 109.156 148.143 111.835 151.743 112.294C153.594 112.563 155.464 112.653 157.329 112.563Z" fill="white"/>
<path d="M154.984 105.385C155.25 105.152 155.578 105.025 155.915 105.025C156.253 105.025 156.581 105.152 156.846 105.385C157.458 105.771 157.946 106.359 158.245 107.067C158.447 107.657 158.349 108.181 158.12 108.181C157.892 108.181 157.722 107.642 156.846 106.827C155.971 106.011 154.788 105.691 154.984 105.385Z" fill="#1FB9B3"/>
<path opacity="0.9" d="M154.984 105.385C155.25 105.152 155.578 105.025 155.915 105.025C156.253 105.025 156.581 105.152 156.846 105.385C157.458 105.771 157.946 106.359 158.245 107.067C158.447 107.657 158.349 108.181 158.12 108.181C157.892 108.181 157.722 107.642 156.846 106.827C155.971 106.011 154.788 105.691 154.984 105.385Z" fill="white"/>
<path d="M126.766 50.5137C124.61 52.1297 122.055 54.0442 122.408 60.3481C122.761 66.6521 126.981 84.0426 127.269 86.1609C127.556 88.2792 139.029 98.5359 141.139 100.56C143.563 102.911 144.478 103.406 145.576 104.752C146.673 106.099 147.705 109.535 148.842 111.027C150.626 113.335 154.468 113.386 156.238 113.117C158.009 112.847 156.892 110.452 156.238 108.749C155.585 107.045 153.834 104.723 154.33 104.323C154.67 104.054 156.519 104.418 157.95 105.779C159.054 106.827 159.185 107.854 159.805 108.334C160.844 109.149 161.191 107.708 160.119 105.422C159.048 103.136 157.414 101.499 155.8 100.931C156.513 100.993 157.225 100.816 157.845 100.421C158.734 99.8098 159.048 98.4267 157.95 98.7907C157.297 99.0018 156.643 98.7907 155.337 98.7907C151.234 98.7907 149.999 100.45 145.249 95.3402C140.499 90.2301 134.142 83.2783 134.142 83.2783C134.142 83.2783 132.006 68.7922 131.045 62.3791C130.228 56.854 129.889 53.2362 126.766 50.5137Z" fill="#FFA8A7"/>
<path d="M164.9 64.7592L173.008 45.6289L177.581 47.7327C177.581 47.7327 170.858 70.4007 169.891 72.8612C169.323 74.3171 167.5 76.0859 164.861 74.6519C164.286 74.3389 163.142 73.5891 161.725 72.6064" fill="#FFA8A7"/>
<path d="M175.863 53.4332C176.425 51.5624 178.209 49.5678 178.477 48.7744C178.715 48.1477 178.794 47.4604 178.705 46.7871L176.621 47.0201L175.863 53.4332Z" fill="#FFA8A7"/>
<path d="M171.563 48.9701C171.903 48.1038 171.961 45.0683 171.563 43.3213C171.164 41.5742 172.125 39.3904 171.883 38.1602C171.641 36.93 172.347 36.5587 172.987 37.0028C173.379 37.28 173.704 37.6611 173.932 38.112C174.16 38.5628 174.284 39.0696 174.294 39.587C174.327 40.8609 174.398 44.1002 173.935 45.6798C173.471 47.2594 171.563 48.9701 171.563 48.9701Z" fill="#FFA8A7"/>
<path d="M172.643 45.9932C172.767 46.3862 173.238 46.9322 174.76 46.641L177.563 47.7329L178.706 47.6601C178.095 48.1419 177.347 48.3589 176.603 48.2704C175.858 48.182 175.168 47.7942 174.662 47.1797C174.662 47.1797 172.604 47.4636 172.643 45.9932Z" fill="#F28F8F"/>
<path d="M180.483 44.7114C178.726 46.24 178.974 48.2273 181.045 49.1591C182.193 49.5986 183.418 49.7301 184.62 49.5429C185.823 49.3557 186.968 48.8551 187.964 48.0817C189.722 46.5531 189.467 44.5585 187.402 43.6267C186.254 43.19 185.029 43.0607 183.827 43.2491C182.625 43.4375 181.479 43.9384 180.483 44.7114Z" fill="#1FB9B3"/>
<path opacity="0.7" d="M180.483 44.7114C178.726 46.24 178.974 48.2273 181.045 49.1591C182.193 49.5986 183.418 49.7301 184.62 49.5429C185.823 49.3557 186.968 48.8551 187.964 48.0817C189.722 46.5531 189.467 44.5585 187.402 43.6267C186.254 43.19 185.029 43.0607 183.827 43.2491C182.625 43.4375 181.479 43.9384 180.483 44.7114Z" fill="white"/>
<path d="M189.186 33.5527L182.737 34.5573L176.275 35.5619C176.419 40.2207 177.837 45.44 179.686 48.097L188.99 46.6411C190.12 43.511 190.192 38.0733 189.186 33.5527Z" fill="#1FB9B3"/>
<path opacity="0.7" d="M189.186 33.5527L182.737 34.5573L176.275 35.5619C176.419 40.2207 177.837 45.44 179.686 48.097L188.99 46.6411C190.12 43.511 190.192 38.0733 189.186 33.5527Z" fill="white"/>
<path d="M177.936 33.3851C175.571 34.9938 175.819 36.9738 178.491 37.7964C181.598 38.5543 184.846 38.0373 187.638 36.3405C190.003 34.7245 189.755 32.7518 187.083 31.9219C183.975 31.1669 180.727 31.6865 177.936 33.3851Z" fill="#1FB9B3"/>
<path opacity="0.9" d="M177.936 33.3851C175.571 34.9938 175.819 36.9738 178.491 37.7964C181.598 38.5543 184.846 38.0373 187.638 36.3405C190.003 34.7245 189.755 32.7518 187.083 31.9219C183.975 31.1669 180.727 31.6865 177.936 33.3851Z" fill="white"/>
<path d="M178.888 34.0476C176.928 35.1614 177.118 36.4499 179.248 36.9594C181.75 37.3815 184.309 36.9819 186.611 35.8093C188.538 34.6955 188.381 33.407 186.245 32.8975C183.745 32.476 181.188 32.8757 178.888 34.0476Z" fill="#1FB9B3"/>
<path opacity="0.4" d="M178.888 34.0476C176.928 35.1614 177.118 36.4499 179.248 36.9594C181.75 37.3815 184.309 36.9819 186.611 35.8093C188.538 34.6955 188.381 33.407 186.245 32.8975C183.745 32.476 181.188 32.8757 178.888 34.0476Z" fill="white"/>
<path d="M179.131 35.7511C178.785 35.9405 178.466 36.1858 178.184 36.479C178.527 36.675 178.895 36.8124 179.275 36.8867C181.777 37.3088 184.336 36.9091 186.638 35.7365C186.986 35.5502 187.305 35.3046 187.585 35.0086C187.242 34.8127 186.874 34.6752 186.494 34.601C183.992 34.1788 181.433 34.5785 179.131 35.7511Z" fill="#1FB9B3"/>
<path opacity="0.3" d="M179.131 35.7511C178.785 35.9405 178.466 36.1858 178.184 36.479C178.527 36.675 178.895 36.8124 179.275 36.8867C181.777 37.3088 184.336 36.9091 186.638 35.7365C186.986 35.5502 187.305 35.3046 187.585 35.0086C187.242 34.8127 186.874 34.6752 186.494 34.601C183.992 34.1788 181.433 34.5785 179.131 35.7511Z" fill="black"/>
<path d="M177.76 47.8783C177.218 47.9679 176.665 47.9382 176.133 47.791C175.402 47.5726 174.709 46.7864 174.023 45.3815C173.448 44.2022 172.462 41.5816 172.88 40.133C173.415 38.2913 175.33 38.0293 176.604 37.8546L177.042 37.7891L177.322 40.0238L176.852 40.0894C176.133 40.184 174.938 40.3514 174.801 40.8173C174.618 41.7199 175.99 45.2359 176.689 45.6217C177.319 45.7192 177.961 45.6025 178.531 45.2868L179.446 47.296C178.915 47.5872 178.346 47.7837 177.76 47.8783Z" fill="#1FB9B3"/>
<path opacity="0.7" d="M177.76 47.8783C177.218 47.9679 176.665 47.9382 176.133 47.791C175.402 47.5726 174.709 46.7864 174.023 45.3815C173.448 44.2022 172.462 41.5816 172.88 40.133C173.415 38.2913 175.33 38.0293 176.604 37.8546L177.042 37.7891L177.322 40.0238L176.852 40.0894C176.133 40.184 174.938 40.3514 174.801 40.8173C174.618 41.7199 175.99 45.2359 176.689 45.6217C177.319 45.7192 177.961 45.6025 178.531 45.2868L179.446 47.296C178.915 47.5872 178.346 47.7837 177.76 47.8783Z" fill="white"/>
<path d="M175.361 40.8242C174.113 40.8242 170.447 42.4475 170.369 43.918C170.291 45.3884 172.78 45.2792 172.78 45.2792C172.662 45.4977 172.618 45.7553 172.653 46.0068C172.689 46.2584 172.803 46.4879 172.976 46.6551C173.597 47.252 178.301 45.4321 178.301 45.4321C178.136 44.8315 177.887 44.2638 177.562 43.7506C177.328 43.4187 176.985 43.204 176.608 43.1536C176.608 43.1536 177.216 40.8242 175.361 40.8242Z" fill="#FFA8A7"/>
<path fill-rule="evenodd" clip-rule="evenodd" d="M228.939 39.7142C228.438 39.3221 228.024 38.7884 227.305 38.783C227.027 38.783 227.109 38.5597 227.125 38.4072L227.959 30.3419C227.959 30.1459 228.008 29.988 228.236 29.9008C230.415 29.084 231.504 27.1398 232.936 25.5442C233.672 24.7467 234.24 23.8091 234.606 22.7874C234.972 21.7657 235.128 20.6807 235.065 19.5973C235.065 18.9874 235.354 18.7423 235.909 18.677C236.193 18.6099 236.491 18.6362 236.759 18.7519C237.027 18.8677 237.251 19.0668 237.396 19.3196C237.871 20.4789 238.144 21.7112 238.202 22.9628C238.202 23.9975 237.745 24.9506 237.511 25.9472C237.342 26.6769 237.091 27.3903 236.873 28.1255C237.037 28.278 237.255 28.229 237.451 28.2507C239.72 28.494 241.991 28.7318 244.263 28.9642C245.222 29.0676 245.658 29.3889 245.728 30.0533C245.76 30.4528 245.66 30.8516 245.444 31.1889C245.227 31.5262 244.906 31.7834 244.53 31.9212C244.351 31.9866 244.056 31.8777 243.986 32.1445C243.915 32.4114 244.253 32.4168 244.4 32.5421C245.162 33.1956 244.89 34.3392 243.855 34.911C243.61 35.0526 243.174 34.911 243.131 35.265C243.087 35.619 243.512 35.5699 243.675 35.8096C244.269 36.5339 243.811 37.7211 242.766 38.1131C242.625 38.1403 242.487 38.1786 242.352 38.2275C242.232 38.2874 242.112 38.3637 242.314 38.5434C243.223 39.3439 243.103 40.3242 242.036 40.9341L241.72 41.1138C241.338 41.2941 240.907 41.342 240.495 41.25C236.933 40.8869 233.372 40.5238 229.81 40.1608C229.472 40.1322 229.159 39.9717 228.939 39.7142Z" fill="#EBEBEB"/>
<path fill-rule="evenodd" clip-rule="evenodd" d="M219.304 33.9309C219.484 32.2264 219.669 30.5164 219.849 28.8064C219.881 28.4578 219.936 28.2945 220.36 28.3435C222.448 28.5831 224.532 28.8009 226.612 28.997C227.021 29.0351 227.07 29.1821 227.032 29.5416C226.669 32.9797 226.305 36.4178 225.942 39.856C225.899 40.2971 225.768 40.4006 225.332 40.3515C223.31 40.1192 221.29 39.9104 219.271 39.7253C218.765 39.6817 218.727 39.4966 218.765 39.0554C218.966 37.3346 219.124 35.6246 219.304 33.9309Z" fill="#EBEBEB"/>
<path fill-rule="evenodd" clip-rule="evenodd" d="M215.058 16.9834C214.606 16.8091 214.187 16.515 213.664 16.6675C213.463 16.7274 213.474 16.5477 213.452 16.4388L212.276 10.3884C212.276 10.2414 212.232 10.1216 212.379 10.0072C213.768 8.91808 214.138 7.28433 214.83 5.78672C215.189 5.04458 215.394 4.23776 215.434 3.41439C215.475 2.59101 215.349 1.76797 215.064 0.994385C215.025 0.912385 215.005 0.822717 215.005 0.731919C215.005 0.641121 215.025 0.551487 215.064 0.469557C215.103 0.387628 215.16 0.31547 215.231 0.25835C215.302 0.20123 215.384 0.160586 215.472 0.139389C215.664 0.02848 215.887 -0.0181299 216.107 0.00636303C216.328 0.0308559 216.535 0.125169 216.698 0.275535C217.296 1.0157 217.766 1.85157 218.086 2.74794C218.229 3.51248 218.282 4.29105 218.244 5.06787C218.282 5.61245 218.244 6.2115 218.244 6.78876C218.397 6.865 218.544 6.78875 218.691 6.75608L223.804 5.77038C224.518 5.62879 224.894 5.77038 225.1 6.22783C225.217 6.51171 225.236 6.82629 225.154 7.12206C225.072 7.41782 224.894 7.67798 224.649 7.86158C224.534 7.94872 224.289 7.93783 224.311 8.13932C224.333 8.34082 224.572 8.28092 224.703 8.34082C225.4 8.64034 225.454 9.5389 224.839 10.1815C224.692 10.334 224.349 10.3394 224.387 10.5954C224.425 10.8513 224.736 10.737 224.904 10.8459C225.498 11.2434 225.449 12.2128 224.757 12.7247C224.66 12.7751 224.567 12.8334 224.48 12.899C224.403 12.9698 224.333 13.0515 224.518 13.1386C225.362 13.5198 225.487 14.2278 224.845 14.9357L224.654 15.1372C224.418 15.3514 224.117 15.4816 223.799 15.5075C221.123 16.0303 218.451 16.5477 215.783 17.0596C215.663 17.0953 215.537 17.1069 215.413 17.0938C215.289 17.0808 215.168 17.0432 215.058 16.9834Z" fill="#EBEBEB"/>
<path fill-rule="evenodd" clip-rule="evenodd" d="M206.775 14.8979C206.525 13.6181 206.285 12.3329 206.024 11.0531C205.975 10.7972 205.975 10.6611 206.296 10.6011C207.864 10.318 209.422 10.0184 210.985 9.69714C211.29 9.63723 211.355 9.72981 211.41 10.0021C211.9 12.5834 212.399 15.1629 212.907 17.7406C212.973 18.0674 212.907 18.1763 212.57 18.2362C211.05 18.5139 209.536 18.7808 208.022 19.1184C207.647 19.1947 207.57 19.0749 207.51 18.7427C207.282 17.4575 207.02 16.1777 206.775 14.8979Z" fill="#EBEBEB"/>
</svg>
