<svg width="136" height="40" viewBox="0 0 136 40" fill="none" xmlns="http://www.w3.org/2000/svg">
<g clip-path="url(#clip0_7636_137630)">
<rect width="1440" height="7869" transform="translate(-102 -7702)" fill="white"/>
<rect x="-102" y="-141" width="1440" height="299" fill="#F6F8F9"/>
<g clip-path="url(#clip1_7636_137630)">
<g clip-path="url(#clip2_7636_137630)">
<g clip-path="url(#clip3_7636_137630)">
<g clip-path="url(#clip4_7636_137630)">
<path d="M123.454 20.3023C123.475 18.6058 124.365 17.0388 125.81 16.1502C124.894 14.8421 123.415 14.0425 121.819 13.9925C120.14 13.8163 118.512 14.9974 117.656 14.9974C116.784 14.9974 115.466 14.01 114.048 14.0392C112.181 14.0995 110.483 15.1351 109.575 16.7671C107.641 20.1155 109.083 25.0366 110.936 27.7432C111.863 29.0686 112.946 30.549 114.363 30.4965C115.751 30.439 116.269 29.612 117.943 29.612C119.602 29.612 120.088 30.4965 121.534 30.4631C123.022 30.439 123.96 29.1319 124.854 27.794C125.52 26.8496 126.033 25.8059 126.373 24.7015C124.605 23.9538 123.456 22.2216 123.454 20.3023Z" fill="#414042"/>
<path d="M120.723 12.2113C121.535 11.2371 121.934 9.98493 121.838 8.7207C120.598 8.85092 119.453 9.44348 118.63 10.3803C117.818 11.3046 117.406 12.5139 117.486 13.7417C118.743 13.7546 119.936 13.1906 120.723 12.2113Z" fill="#414042"/>
</g>
</g>
<g clip-path="url(#clip5_7636_137630)">
<path fill-rule="evenodd" clip-rule="evenodd" d="M30.5859 27.1397H25.8525L24.7158 30.4961H22.7109L27.1943 18.0781H29.2773L33.7607 30.4961H31.7216L30.5859 27.1397ZM26.3428 25.5909H30.0948L28.2452 20.1436H28.1934L26.3428 25.5909Z" fill="#414042"/>
<path fill-rule="evenodd" clip-rule="evenodd" d="M43.4424 25.9694C43.4424 28.7829 41.9365 30.5905 39.664 30.5905C38.4894 30.6519 37.383 30.0367 36.8154 29.0065H36.7724V33.4909H34.9141V21.4421H36.7129V22.9479H36.747C37.3399 21.9242 38.4475 21.3092 39.6299 21.3474C41.9278 21.3474 43.4424 23.1638 43.4424 25.9694ZM41.5322 25.9694C41.5322 24.1364 40.5849 22.9313 39.1396 22.9313C37.7197 22.9313 36.7646 24.1618 36.7646 25.9694C36.7646 27.7936 37.7197 29.0153 39.1396 29.0153C40.5849 29.0153 41.5322 27.819 41.5322 25.9694H41.5322Z" fill="#414042"/>
<path fill-rule="evenodd" clip-rule="evenodd" d="M53.4112 25.9694C53.4112 28.7829 51.9054 30.5905 49.6329 30.5905C48.4583 30.6519 47.3519 30.0367 46.7843 29.0065H46.7413V33.4909H44.8828V21.4421H46.6816V22.948H46.7158C47.3086 21.9242 48.4162 21.3092 49.5986 21.3474C51.8965 21.3474 53.4112 23.1638 53.4112 25.9694ZM51.5011 25.9694C51.5011 24.1364 50.5538 22.9313 49.1085 22.9313C47.6886 22.9313 46.7335 24.1618 46.7335 25.9694C46.7335 27.7936 47.6886 29.0153 49.1085 29.0153C50.5537 29.0153 51.501 27.819 51.501 25.9694H51.5011Z" fill="#414042"/>
<path d="M59.9961 27.0361C60.1338 28.2676 61.3301 29.0761 62.9648 29.0761C64.5313 29.0761 65.6582 28.2675 65.6582 27.1572C65.6582 26.1933 64.9785 25.6162 63.3692 25.2206L61.7598 24.833C59.4795 24.2822 58.4209 23.2158 58.4209 21.4854C58.4209 19.3428 60.2881 17.8711 62.9395 17.8711C65.5635 17.8711 67.3623 19.3428 67.4229 21.4854H65.5469C65.4346 20.2461 64.4102 19.4981 62.9131 19.4981C61.416 19.4981 60.3916 20.2549 60.3916 21.3565C60.3916 22.2344 61.0459 22.751 62.6465 23.1465L64.0146 23.4824C66.5625 24.0849 67.6211 25.1084 67.6211 26.9248C67.6211 29.248 65.7705 30.7031 62.8271 30.7031C60.0732 30.7031 58.2139 29.2822 58.0938 27.0361L59.9961 27.0361Z" fill="#414042"/>
<path d="M71.6289 19.3008V21.4434H73.3506V22.915H71.6289V27.9063C71.6289 28.6816 71.9737 29.043 72.7305 29.043C72.9349 29.0394 73.1389 29.0251 73.3418 29V30.4629C73.0015 30.5264 72.6557 30.5552 72.3096 30.5488C70.4766 30.5488 69.7617 29.8603 69.7617 28.1045V22.9151H68.4453V21.4434H69.7617V19.3008L71.6289 19.3008Z" fill="#414042"/>
<path fill-rule="evenodd" clip-rule="evenodd" d="M74.3516 25.9707C74.3516 23.1221 76.0293 21.332 78.6455 21.332C81.2705 21.332 82.9404 23.122 82.9404 25.9707C82.9404 28.8272 81.2793 30.6094 78.6455 30.6094C76.0127 30.6094 74.3516 28.8272 74.3516 25.9707ZM81.0469 25.9707C81.0469 24.0166 80.1514 22.8633 78.6455 22.8633C77.1396 22.8633 76.2451 24.0254 76.2451 25.9707C76.2451 27.9326 77.1396 29.0772 78.6455 29.0772C80.1514 29.0772 81.0469 27.9326 81.0469 25.9707H81.0469Z" fill="#414042"/>
<path d="M84.4688 21.442H86.2412V22.983H86.2842C86.5314 21.991 87.4404 21.3083 88.462 21.3473C88.6761 21.3465 88.8897 21.3698 89.0987 21.4166L89.0987 23.1549C88.8283 23.0723 88.5463 23.0344 88.2637 23.0426C87.7173 23.0204 87.1886 23.2382 86.8163 23.6387C86.444 24.0391 86.2653 24.5823 86.3271 25.1256V30.4957H84.4688L84.4688 21.442Z" fill="#414042"/>
<path fill-rule="evenodd" clip-rule="evenodd" d="M97.667 27.8379C97.417 29.4814 95.8164 30.6094 93.7685 30.6094C91.1348 30.6094 89.5 28.8447 89.5 26.0137C89.5 23.1738 91.1436 21.332 93.6904 21.332C96.1953 21.332 97.7705 23.0527 97.7705 25.7979V26.4346H91.376V26.5469C91.3163 27.2209 91.549 27.8881 92.015 28.3788C92.481 28.8694 93.1353 29.1362 93.8115 29.1113C94.7134 29.1958 95.5637 28.678 95.9024 27.8379L97.667 27.8379ZM91.3848 25.1358H95.9112C95.978 23.9352 95.0589 22.9077 93.8583 22.8408C93.8024 22.8377 93.7464 22.8367 93.6905 22.8379C92.4246 22.8304 91.3924 23.8504 91.3848 25.1162C91.3848 25.1227 91.3848 25.1293 91.3848 25.1358H91.3848Z" fill="#414042"/>
</g>
<g clip-path="url(#clip6_7636_137630)">
<path fill-rule="evenodd" clip-rule="evenodd" d="M42.7039 14.5033C42.0769 14.5033 41.5879 14.3243 41.2369 13.9633C40.8859 13.6043 40.7109 13.0943 40.7109 12.4363C40.7109 12.2243 40.7239 12.0253 40.7519 11.8363C40.7779 11.6493 40.8369 11.3743 40.9249 11.0123L41.3289 11.1093C41.2459 11.4313 41.2049 11.6923 41.2049 11.8933C41.2049 12.4303 41.3399 12.8483 41.6079 13.1473C41.8769 13.4463 42.2509 13.5963 42.7299 13.5963C43.2749 13.5963 43.8169 13.4633 44.3579 13.1983C44.8989 12.9333 45.2599 12.6073 45.4429 12.2213C44.9629 11.1713 44.7229 10.4723 44.7229 10.1213C44.7229 9.9313 44.7769 9.7593 44.8839 9.6053C44.9919 9.4513 45.1779 9.2953 45.4429 9.1383C45.4749 9.3963 45.5589 9.8703 45.6949 10.5613L45.7009 10.6043C45.9439 10.7253 46.2109 10.7873 46.5019 10.7873C46.5619 10.7873 46.5919 10.8173 46.5919 10.8783V11.5333C46.5919 11.5943 46.5619 11.6253 46.5019 11.6253C46.2539 11.6253 46.0319 11.5803 45.8359 11.4903L45.8509 11.8073C45.8509 12.2583 45.7079 12.6903 45.4219 13.1023C45.1349 13.5133 44.7429 13.8503 44.2459 14.1113C43.7479 14.3723 43.2339 14.5033 42.7039 14.5033ZM43.5799 8.4933C43.4079 8.7403 43.1719 9.0093 42.8709 9.2993C42.5449 9.0413 42.2809 8.8033 42.0809 8.5843C42.4569 8.2083 42.7119 7.9403 42.8489 7.7793C43.0819 8.0333 43.3249 8.2713 43.5799 8.4933Z" fill="#414042"/>
<path d="M41.2369 13.9633L41.3086 13.8936L41.3084 13.8934L41.2369 13.9633ZM40.7519 11.8363L40.8509 11.851L40.851 11.8501L40.7519 11.8363ZM40.9249 11.0123L40.9483 10.9151L40.8513 10.8918L40.8278 10.9887L40.9249 11.0123ZM41.3289 11.1093L41.4258 11.1343L41.4512 11.0358L41.3523 11.0121L41.3289 11.1093ZM41.6079 13.1473L41.5335 13.214L41.5336 13.2142L41.6079 13.1473ZM45.4429 12.2213L45.5333 12.2641L45.5532 12.2221L45.5339 12.1797L45.4429 12.2213ZM44.8839 9.6053L44.8021 9.54788L44.8018 9.54824L44.8839 9.6053ZM45.4429 9.1383L45.5422 9.12599L45.5234 8.97441L45.392 9.05226L45.4429 9.1383ZM45.6949 10.5613L45.7941 10.5475L45.7931 10.542L45.6949 10.5613ZM45.7009 10.6043L45.6019 10.6181L45.6092 10.6703L45.6564 10.6938L45.7009 10.6043ZM45.8359 11.4903L45.8777 11.3994L45.7283 11.3308L45.736 11.495L45.8359 11.4903ZM45.8509 11.8073H45.951L45.9508 11.8026L45.8509 11.8073ZM45.4219 13.1023L45.5039 13.1595L45.5041 13.1593L45.4219 13.1023ZM44.2459 14.1113L44.2924 14.1999L44.2924 14.1998L44.2459 14.1113ZM43.5799 8.4933L43.662 8.55044L43.7133 8.4768L43.6456 8.41787L43.5799 8.4933ZM42.8709 9.2993L42.8089 9.37771L42.8774 9.43194L42.9403 9.37131L42.8709 9.2993ZM42.0809 8.5843L42.0102 8.51359L41.9426 8.58116L42.0071 8.65173L42.0809 8.5843ZM42.8489 7.7793L42.9226 7.7117L42.8461 7.6283L42.7728 7.71449L42.8489 7.7793ZM42.7039 14.4033C42.0967 14.4033 41.6363 14.2306 41.3086 13.8936L41.1652 14.033C41.5396 14.418 42.0572 14.6033 42.7039 14.6033V14.4033ZM41.3084 13.8934C40.9809 13.5584 40.8109 13.0767 40.8109 12.4363H40.6109C40.6109 13.1119 40.791 13.6502 41.1654 14.0332L41.3084 13.8934ZM40.8109 12.4363C40.8109 12.2284 40.8237 12.0343 40.8509 11.851L40.653 11.8216C40.6242 12.0163 40.6109 12.2202 40.6109 12.4363H40.8109ZM40.851 11.8501C40.8762 11.6685 40.9342 11.3977 41.0221 11.0359L40.8278 10.9887C40.7397 11.3509 40.6796 11.6301 40.6529 11.8225L40.851 11.8501ZM40.9016 11.1095L41.3056 11.2065L41.3523 11.0121L40.9483 10.9151L40.9016 11.1095ZM41.2321 11.0843C41.1481 11.41 41.1049 11.6803 41.1049 11.8933H41.3049C41.3049 11.7043 41.3437 11.4525 41.4258 11.1343L41.2321 11.0843ZM41.1049 11.8933C41.1049 12.4467 41.2442 12.8914 41.5335 13.214L41.6824 13.0806C41.4356 12.8052 41.3049 12.4139 41.3049 11.8933H41.1049ZM41.5336 13.2142C41.8251 13.5382 42.2284 13.6963 42.7299 13.6963V13.4963C42.2735 13.4963 41.9287 13.3544 41.6823 13.0804L41.5336 13.2142ZM42.7299 13.6963C43.2918 13.6963 43.8488 13.5591 44.4019 13.2881L44.3139 13.1085C43.7851 13.3675 43.2581 13.4963 42.7299 13.4963V13.6963ZM44.4019 13.2881C44.9552 13.0171 45.3374 12.6774 45.5333 12.2641L45.3526 12.1785C45.1825 12.5372 44.8426 12.8495 44.3139 13.1085L44.4019 13.2881ZM45.5339 12.1797C45.2946 11.6562 45.116 11.2223 44.9975 10.8767C44.878 10.5283 44.8229 10.2792 44.8229 10.1213H44.6229C44.6229 10.3144 44.6878 10.5902 44.8083 10.9416C44.9298 11.2958 45.1113 11.7364 45.352 12.2629L45.5339 12.1797ZM44.8229 10.1213C44.8229 9.95159 44.8708 9.79952 44.9661 9.66236L44.8018 9.54824C44.6831 9.71907 44.6229 9.911 44.6229 10.1213H44.8229ZM44.9658 9.66271C45.0622 9.52532 45.2345 9.37802 45.4939 9.22433L45.392 9.05226C45.1214 9.21257 44.9217 9.37727 44.8021 9.54788L44.9658 9.66271ZM45.3437 9.15061C45.3762 9.41262 45.4609 9.88994 45.5968 10.5806L45.7931 10.542C45.657 9.85066 45.5737 9.37997 45.5422 9.12599L45.3437 9.15061ZM45.5959 10.5751L45.6019 10.6181L45.8 10.5905L45.794 10.5475L45.5959 10.5751ZM45.6564 10.6938C45.9139 10.822 46.1962 10.8873 46.5019 10.8873V10.6873C46.2256 10.6873 45.974 10.6286 45.7455 10.5148L45.6564 10.6938ZM46.5019 10.8873C46.5089 10.8873 46.5109 10.8882 46.5096 10.8878C46.5078 10.8872 46.5032 10.8851 46.4984 10.8803C46.4937 10.8756 46.4918 10.8711 46.4913 10.8696C46.491 10.8686 46.4919 10.8709 46.4919 10.8783H46.6919C46.6919 10.8328 46.6807 10.7801 46.6404 10.7395C46.6 10.6987 46.5473 10.6873 46.5019 10.6873V10.8873ZM46.4919 10.8783V11.5333H46.6919V10.8783H46.4919ZM46.4919 11.5333C46.4919 11.5406 46.491 11.5431 46.4912 11.5424C46.4916 11.5411 46.4934 11.5369 46.4978 11.5323C46.5024 11.5277 46.5069 11.5256 46.5089 11.5249C46.5103 11.5244 46.5086 11.5253 46.5019 11.5253V11.7253C46.5482 11.7253 46.6008 11.7132 46.641 11.672C46.6807 11.6313 46.6919 11.5788 46.6919 11.5333H46.4919ZM46.5019 11.5253C46.2662 11.5253 46.0587 11.4826 45.8777 11.3994L45.7942 11.5812C46.0051 11.678 46.2417 11.7253 46.5019 11.7253V11.5253ZM45.736 11.495L45.751 11.812L45.9508 11.8026L45.9358 11.4856L45.736 11.495ZM45.7509 11.8073C45.7509 12.2357 45.6155 12.6481 45.3398 13.0453L45.5041 13.1593C45.8004 12.7325 45.9509 12.2809 45.9509 11.8073H45.7509ZM45.3399 13.045C45.0631 13.4415 44.6839 13.7683 44.1994 14.0228L44.2924 14.1998C44.802 13.9322 45.2068 13.5851 45.5039 13.1595L45.3399 13.045ZM44.1995 14.0227C43.7149 14.2767 43.2167 14.4033 42.7039 14.4033V14.6033C43.2512 14.6033 43.781 14.4679 44.2924 14.1999L44.1995 14.0227ZM43.4979 8.43615C43.3307 8.67627 43.0994 8.94031 42.8016 9.22728L42.9403 9.37131C43.2445 9.07828 43.4852 8.80432 43.662 8.55044L43.4979 8.43615ZM42.933 9.22088C42.6095 8.96486 42.3499 8.73055 42.1548 8.51686L42.0071 8.65173C42.2119 8.87604 42.4804 9.11773 42.8089 9.37771L42.933 9.22088ZM42.1516 8.65501C42.5277 8.27897 42.7852 8.00847 42.9251 7.8441L42.7728 7.71449C42.6386 7.87213 42.3862 8.13763 42.0102 8.51359L42.1516 8.65501ZM42.7752 7.8469C43.0106 8.1035 43.2563 8.34413 43.5143 8.56872L43.6456 8.41787C43.3936 8.19847 43.1532 7.9631 42.9226 7.7117L42.7752 7.8469Z" fill="#414042"/>
<path fill-rule="evenodd" clip-rule="evenodd" d="M46.5519 11.6257C46.4919 11.6257 46.4609 11.5947 46.4609 11.5337V10.8787C46.4609 10.8177 46.4919 10.7877 46.5519 10.7877C46.8319 10.7877 47.0669 10.7197 47.2579 10.5857C47.4499 10.4517 47.6159 10.2467 47.7549 9.97072L47.9759 9.53072C48.2579 8.92872 48.5349 8.50472 48.8049 8.25772C49.0759 8.01072 49.3729 7.88672 49.6949 7.88672C49.9099 7.88672 50.1239 8.01772 50.3359 8.27872C50.5489 8.54072 50.7209 8.87672 50.8519 9.28872C50.9829 9.70072 51.0479 10.0977 51.0479 10.4807C51.0479 10.7067 51.0059 10.9117 50.9239 11.0957C50.8419 11.2807 50.6969 11.4567 50.4899 11.6257C50.0479 11.6257 49.5809 11.5637 49.0849 11.4427C48.5889 11.3207 48.1739 11.1637 47.8409 10.9697C47.6699 11.2027 47.4819 11.3707 47.2769 11.4717C47.0739 11.5747 46.8319 11.6257 46.5519 11.6257H46.5519ZM50.2479 10.7877C50.2329 10.3327 50.1469 9.89772 49.9899 9.48172C49.8329 9.06672 49.6759 8.85872 49.5229 8.85872C49.3819 8.85872 49.2529 8.89972 49.1299 8.98272C49.0079 9.06472 48.8869 9.19172 48.7649 9.36372C48.6429 9.53572 48.4789 9.82572 48.2709 10.2337C48.7869 10.5167 49.4459 10.7017 50.2479 10.7877H50.2479Z" fill="#414042"/>
<path d="M47.2579 10.5857L47.2007 10.5037L47.2005 10.5039L47.2579 10.5857ZM47.7549 9.97072L47.8442 10.0157L47.8443 10.0156L47.7549 9.97072ZM47.9759 9.53072L48.0653 9.57562L48.0665 9.57314L47.9759 9.53072ZM48.8049 8.25772L48.7376 8.18381L48.7374 8.18394L48.8049 8.25772ZM50.3359 8.27872L50.2583 8.34177L50.2583 8.3418L50.3359 8.27872ZM50.9239 11.0957L50.8326 11.055L50.8325 11.0552L50.9239 11.0957ZM50.4899 11.6257V11.7257H50.5256L50.5532 11.7032L50.4899 11.6257ZM49.0849 11.4427L49.061 11.5398L49.0612 11.5399L49.0849 11.4427ZM47.8409 10.9697L47.8913 10.8833L47.8135 10.838L47.7603 10.9106L47.8409 10.9697ZM47.2769 11.4717L47.2327 11.382L47.2317 11.3825L47.2769 11.4717ZM50.2479 10.7877V10.8877H50.3513L50.3479 10.7844L50.2479 10.7877ZM49.9899 9.48172L50.0835 9.44641L50.0835 9.44633L49.9899 9.48172ZM49.1299 8.98272L49.1857 9.06571L49.1859 9.06561L49.1299 8.98272ZM48.2709 10.2337L48.1818 10.1883L48.1378 10.2747L48.2228 10.3214L48.2709 10.2337ZM50.2479 10.7877L50.2372 10.8877H50.2479V10.7877ZM46.5519 11.5257C46.5453 11.5257 46.5434 11.5248 46.5446 11.5253C46.5463 11.5258 46.5506 11.5278 46.5549 11.5322C46.5593 11.5366 46.5611 11.5407 46.5615 11.5421C46.5619 11.543 46.5609 11.5408 46.5609 11.5337H46.3609C46.3609 11.58 46.3728 11.6326 46.4129 11.673C46.4532 11.7136 46.5057 11.7257 46.5519 11.7257V11.5257ZM46.5609 11.5337V10.8787H46.3609V11.5337H46.5609ZM46.5609 10.8787C46.5609 10.8717 46.5619 10.8696 46.5615 10.8707C46.5609 10.8724 46.5589 10.8768 46.5544 10.8813C46.5498 10.8859 46.5454 10.8878 46.5439 10.8883C46.5428 10.8886 46.545 10.8877 46.5519 10.8877V10.6877C46.5065 10.6877 46.4541 10.6991 46.4135 10.7393C46.3728 10.7797 46.3609 10.8324 46.3609 10.8787H46.5609ZM46.5519 10.8877C46.8486 10.8877 47.1046 10.8154 47.3154 10.6676L47.2005 10.5039C47.0292 10.624 46.8152 10.6877 46.5519 10.6877V10.8877ZM47.3152 10.6677C47.5244 10.5217 47.7 10.302 47.8442 10.0157L47.6656 9.92574C47.5318 10.1914 47.3755 10.3817 47.2007 10.5037L47.3152 10.6677ZM47.8443 10.0156L48.0653 9.5756L47.8866 9.48584L47.6656 9.92584L47.8443 10.0156ZM48.0665 9.57314C48.3466 8.97508 48.617 8.56522 48.8724 8.3315L48.7374 8.18394C48.4529 8.44421 48.1692 8.88236 47.8854 9.4883L48.0665 9.57314ZM48.8723 8.33163C49.1277 8.09887 49.4014 7.98672 49.6949 7.98672V7.78672C49.3445 7.78672 49.0242 7.92256 48.7376 8.18381L48.8723 8.33163ZM49.6949 7.98672C49.8661 7.98672 50.0545 8.09085 50.2583 8.34177L50.4135 8.21567C50.1934 7.94459 49.9538 7.78672 49.6949 7.78672V7.98672ZM50.2583 8.3418C50.4616 8.59183 50.6284 8.91585 50.7566 9.31902L50.9472 9.25842C50.8134 8.83759 50.6363 8.48961 50.4135 8.21564L50.2583 8.3418ZM50.7566 9.31902C50.8849 9.7224 50.9479 10.1092 50.9479 10.4807H51.1479C51.1479 10.0863 51.081 9.67904 50.9472 9.25842L50.7566 9.31902ZM50.9479 10.4807C50.9479 10.6941 50.9084 10.885 50.8326 11.055L51.0153 11.1364C51.1035 10.9384 51.1479 10.7194 51.1479 10.4807H50.9479ZM50.8325 11.0552C50.7587 11.2218 50.6255 11.3859 50.4267 11.5483L50.5532 11.7032C50.7683 11.5275 50.9252 11.3397 51.0154 11.1362L50.8325 11.0552ZM50.4899 11.5257C50.0573 11.5257 49.5983 11.465 49.1086 11.3456L49.0612 11.5399C49.5636 11.6624 50.0386 11.7257 50.4899 11.7257V11.5257ZM49.1088 11.3456C48.6191 11.2252 48.2137 11.0712 47.8913 10.8833L47.7906 11.0561C48.1342 11.2563 48.5588 11.4163 49.061 11.5398L49.1088 11.3456ZM47.7603 10.9106C47.5962 11.1341 47.4198 11.2898 47.2327 11.382L47.3211 11.5614C47.544 11.4516 47.7436 11.2713 47.9215 11.0289L47.7603 10.9106ZM47.2317 11.3825C47.0457 11.4769 46.8199 11.5257 46.5519 11.5257V11.7257C46.8439 11.7257 47.1022 11.6725 47.3222 11.5609L47.2317 11.3825ZM46.5519 11.7257H46.5519V11.5257H46.5519V11.7257ZM50.3479 10.7844C50.3325 10.3187 50.2445 9.87289 50.0835 9.44641L49.8964 9.51703C50.0494 9.92255 50.1333 10.3467 50.148 10.791L50.3479 10.7844ZM50.0835 9.44633C50.0036 9.23522 49.9211 9.06939 49.8349 8.95455C49.7509 8.8427 49.6475 8.75872 49.5229 8.75872V8.95872C49.5514 8.95872 49.603 8.97874 49.675 9.07464C49.7447 9.16754 49.8193 9.31322 49.8964 9.5171L50.0835 9.44633ZM49.5229 8.75872C49.3607 8.75872 49.2124 8.80642 49.074 8.89982L49.1859 9.06561C49.2934 8.99302 49.4032 8.95872 49.5229 8.95872V8.75872ZM49.0741 8.89973C48.9386 8.99085 48.8094 9.12819 48.6834 9.30586L48.8465 9.42157C48.9645 9.25525 49.0773 9.13859 49.1857 9.06571L49.0741 8.89973ZM48.6834 9.30586C48.5568 9.4843 48.39 9.77999 48.1818 10.1883L48.36 10.2791C48.5679 9.87145 48.7291 9.58714 48.8465 9.42157L48.6834 9.30586ZM48.2228 10.3214C48.7538 10.6126 49.4266 10.8002 50.2373 10.8871L50.2586 10.6883C49.4652 10.6032 48.82 10.4208 48.319 10.146L48.2228 10.3214ZM50.2479 10.8877H50.2479V10.6877H50.2479V10.8877Z" fill="#414042"/>
<path fill-rule="evenodd" clip-rule="evenodd" d="M57.0622 11.1958C56.6622 11.1598 56.3862 11.1248 56.2362 11.0908C56.0862 11.0568 55.9282 11.0088 55.7652 10.9458C55.6022 10.8828 55.4352 10.8038 55.2632 10.7068C55.0912 10.6098 54.9622 10.5168 54.8742 10.4278C54.7862 10.3378 54.7422 10.2558 54.7422 10.1808C54.7422 10.0838 54.7922 9.91678 54.8902 9.68078C54.9892 9.44478 55.0702 9.27078 55.1342 9.15978C55.2462 8.95578 55.4882 8.72078 55.8622 8.45378C56.2362 8.18678 56.6332 7.96978 57.0522 7.80078L57.0142 7.50078C57.2682 7.27178 57.5352 7.07978 57.8142 6.92578L57.9172 10.4968C58.2502 10.6908 58.6312 10.7878 59.0602 10.7878C59.1222 10.7878 59.1522 10.8178 59.1522 10.8788V11.5338C59.1522 11.5948 59.1222 11.6258 59.0602 11.6258C58.6172 11.6258 58.2572 11.5418 57.9812 11.3758C57.7062 11.2088 57.5472 10.9738 57.5042 10.6688L57.4652 10.4388L57.0622 11.1958ZM55.2792 9.66978C55.5732 9.92078 55.8992 10.0868 56.2582 10.1698C56.6152 10.2518 57.0102 10.2968 57.4442 10.3038L57.1602 8.53178L57.1542 8.50978C56.2772 8.81078 55.6522 9.19778 55.2792 9.66978Z" fill="#414042"/>
<path d="M57.0622 11.1958L57.0532 11.2954L57.1193 11.3013L57.1505 11.2428L57.0622 11.1958ZM56.2362 11.0908L56.2141 11.1883L56.2141 11.1883L56.2362 11.0908ZM54.8742 10.4278L54.8027 10.4977L54.8031 10.4981L54.8742 10.4278ZM54.8902 9.68078L54.798 9.6421L54.7978 9.64243L54.8902 9.68078ZM55.1342 9.15978L55.2208 9.20974L55.2218 9.20791L55.1342 9.15978ZM57.0522 7.80078L57.0896 7.89352L57.1611 7.86469L57.1514 7.78822L57.0522 7.80078ZM57.0142 7.50078L56.9472 7.42651L56.9084 7.4615L56.915 7.51335L57.0142 7.50078ZM57.8142 6.92578L57.9141 6.9229L57.9094 6.75899L57.7659 6.83823L57.8142 6.92578ZM57.9172 10.4968L57.8172 10.4997L57.8188 10.5552L57.8668 10.5832L57.9172 10.4968ZM57.9812 11.3758L57.9293 11.4613L57.9296 11.4615L57.9812 11.3758ZM57.5042 10.6688L57.6032 10.6548L57.6028 10.6521L57.5042 10.6688ZM57.4652 10.4388L57.5638 10.4221L57.5147 10.1329L57.3769 10.3918L57.4652 10.4388ZM55.2792 9.66978L55.2007 9.60778L55.141 9.68332L55.2143 9.74583L55.2792 9.66978ZM56.2582 10.1698L56.2357 10.2672L56.2358 10.2672L56.2582 10.1698ZM57.4442 10.3038L57.4426 10.4038L57.5618 10.4057L57.5429 10.288L57.4442 10.3038ZM57.1602 8.53178L57.2595 8.51586L57.2567 8.50547L57.1602 8.53178ZM57.1542 8.50978L57.2507 8.48347L57.2226 8.38057L57.1217 8.4152L57.1542 8.50978ZM57.0712 11.0962C56.6707 11.0601 56.4009 11.0256 56.2583 10.9933L56.2141 11.1883C56.3714 11.224 56.6537 11.2594 57.0532 11.2954L57.0712 11.0962ZM56.2583 10.9933C56.1133 10.9604 55.9599 10.9138 55.8012 10.8525L55.7291 11.0391C55.8964 11.1037 56.0591 11.1532 56.2141 11.1883L56.2583 10.9933ZM55.8012 10.8525C55.6431 10.7914 55.4804 10.7145 55.3123 10.6197L55.2141 10.7939C55.39 10.8931 55.5613 10.9742 55.7291 11.0391L55.8012 10.8525ZM55.3123 10.6197C55.1446 10.5251 55.0243 10.4374 54.9453 10.3575L54.8031 10.4981C54.9001 10.5962 55.0378 10.6945 55.2141 10.7939L55.3123 10.6197ZM54.9457 10.3579C54.8642 10.2745 54.8422 10.2166 54.8422 10.1808H54.6422C54.6422 10.295 54.7082 10.4011 54.8027 10.4977L54.9457 10.3579ZM54.8422 10.1808C54.8422 10.1468 54.8514 10.0917 54.8753 10.0114C54.8987 9.93255 54.9343 9.83531 54.9825 9.71913L54.7978 9.64243C54.7481 9.76225 54.7097 9.86651 54.6836 9.95445C54.6579 10.0408 54.6422 10.1178 54.6422 10.1808H54.8422ZM54.9824 9.71946C55.0812 9.48403 55.1602 9.31494 55.2208 9.20973L55.0476 9.10983C54.9802 9.22662 54.8972 9.40553 54.798 9.6421L54.9824 9.71946ZM55.2218 9.20791C55.3225 9.02451 55.5489 8.80028 55.9203 8.53517L55.8041 8.37239C55.4274 8.64128 55.1699 8.88705 55.0465 9.11165L55.2218 9.20791ZM55.9203 8.53517C56.2878 8.27277 56.6779 8.05958 57.0896 7.89352L57.0148 7.70804C56.5885 7.87998 56.1845 8.10079 55.8041 8.37239L55.9203 8.53517ZM57.1514 7.78822L57.1134 7.48822L56.915 7.51335L56.953 7.81335L57.1514 7.78822ZM57.0811 7.57505C57.3299 7.35079 57.5907 7.16336 57.8625 7.01333L57.7659 6.83823C57.4797 6.9962 57.2065 7.19277 56.9472 7.42651L57.0811 7.57505ZM57.7142 6.92866L57.8172 10.4997L58.0171 10.4939L57.9141 6.9229L57.7142 6.92866ZM57.8668 10.5832C58.2168 10.7871 58.6156 10.8878 59.0602 10.8878V10.6878C58.6468 10.6878 58.2836 10.5945 57.9675 10.4104L57.8668 10.5832ZM59.0602 10.8878C59.068 10.8878 59.0705 10.8888 59.0697 10.8885C59.0683 10.888 59.0638 10.8862 59.059 10.8814C59.0542 10.8766 59.0522 10.872 59.0516 10.8703C59.0512 10.8692 59.0522 10.8714 59.0522 10.8788H59.2522C59.2522 10.8333 59.241 10.7802 59.1999 10.7394C59.1589 10.6988 59.1058 10.6878 59.0602 10.6878V10.8878ZM59.0522 10.8788V11.5338H59.2522V10.8788H59.0522ZM59.0522 11.5338C59.0522 11.5411 59.0512 11.5435 59.0515 11.5426C59.052 11.5412 59.0539 11.5369 59.0584 11.5322C59.063 11.5276 59.0674 11.5257 59.069 11.5252C59.07 11.5248 59.0677 11.5258 59.0602 11.5258V11.7258C59.1066 11.7258 59.1597 11.7141 59.2004 11.6731C59.241 11.6322 59.2522 11.5793 59.2522 11.5338H59.0522ZM59.0602 11.5258C58.629 11.5258 58.2885 11.4439 58.0327 11.2901L57.9296 11.4615C58.2259 11.6396 58.6054 11.7258 59.0602 11.7258V11.5258ZM58.0331 11.2903C57.7823 11.138 57.6418 10.9285 57.6032 10.6548L57.4052 10.6827C57.4526 11.0191 57.6301 11.2796 57.9293 11.4613L58.0331 11.2903ZM57.6028 10.6521L57.5638 10.4221L57.3666 10.4555L57.4056 10.6855L57.6028 10.6521ZM57.3769 10.3918L56.9739 11.1488L57.1505 11.2428L57.5535 10.4858L57.3769 10.3918ZM55.2143 9.74583C55.5199 10.0068 55.8604 10.1804 56.2357 10.2672L56.2807 10.0724C55.938 9.99312 55.6264 9.83475 55.3441 9.59373L55.2143 9.74583ZM56.2358 10.2672C56.6006 10.351 57.0027 10.3967 57.4426 10.4038L57.4458 10.2038C57.0177 10.1969 56.6297 10.1525 56.2806 10.0723L56.2358 10.2672ZM57.5429 10.288L57.2589 8.51596L57.0614 8.54761L57.3454 10.3196L57.5429 10.288ZM57.2567 8.50547L57.2507 8.48347L57.0577 8.53609L57.0637 8.55809L57.2567 8.50547ZM57.1217 8.4152C56.2356 8.71932 55.5904 9.11467 55.2007 9.60778L55.3576 9.73178C55.714 9.28089 56.3188 8.90224 57.1867 8.60437L57.1217 8.4152Z" fill="#414042"/>
<path fill-rule="evenodd" clip-rule="evenodd" d="M62.0524 9.12305C62.1534 9.12305 62.2434 9.15205 62.3224 9.20905C62.1894 9.52805 62.0734 9.79505 61.9724 10.01C61.8724 10.225 61.8114 10.345 61.7904 10.37C62.0374 10.527 62.2674 10.636 62.4804 10.697C62.6934 10.758 62.9244 10.789 63.1754 10.789C63.2364 10.789 63.2674 10.819 63.2674 10.88V11.535C63.2674 11.596 63.2364 11.627 63.1754 11.627C62.4994 11.627 61.9194 11.414 61.4354 10.987L61.2584 11.224C61.1834 11.306 60.9174 11.394 60.4614 11.487C60.0044 11.58 59.5554 11.627 59.1154 11.627C59.0544 11.627 59.0234 11.596 59.0234 11.535V10.88C59.0234 10.819 59.0544 10.789 59.1154 10.789C59.5704 10.789 59.9564 10.769 60.2724 10.73C60.5904 10.69 60.8134 10.624 60.9444 10.531C61.0754 10.438 61.2674 10.146 61.5214 9.65505L61.7154 9.30105C61.7794 9.18305 61.8924 9.12305 62.0524 9.12305ZM61.0704 13.018C60.9374 13.229 60.7204 13.48 60.4204 13.77C60.0904 13.504 59.8474 13.281 59.6894 13.098C59.8834 12.919 60.1194 12.672 60.3984 12.357C60.4634 12.425 60.6874 12.645 61.0704 13.018ZM62.7304 12.862C62.5974 13.069 62.3774 13.318 62.0694 13.608C61.7514 13.354 61.5084 13.13 61.3444 12.937C61.5084 12.787 61.7454 12.54 62.0524 12.196C62.1174 12.268 62.3434 12.489 62.7304 12.862H62.7304Z" fill="#414042"/>
<path d="M62.3224 9.20905L62.4147 9.24753L62.4453 9.17434L62.381 9.12795L62.3224 9.20905ZM61.9724 10.01L61.8819 9.96753L61.8818 9.96787L61.9724 10.01ZM61.7904 10.37L61.7139 10.3057L61.6404 10.3932L61.7368 10.4544L61.7904 10.37ZM62.4804 10.697L62.4529 10.7932L62.4529 10.7932L62.4804 10.697ZM61.4354 10.987L61.5016 10.9121L61.4202 10.8403L61.3553 10.9272L61.4354 10.987ZM61.2584 11.224L61.3326 11.2919L61.3386 11.2839L61.2584 11.224ZM60.4614 11.487L60.4814 11.585L60.4814 11.585L60.4614 11.487ZM60.2724 10.73L60.2847 10.8293L60.2849 10.8293L60.2724 10.73ZM61.5214 9.65505L61.4337 9.60697L61.4326 9.6091L61.5214 9.65505ZM61.7154 9.30105L61.8031 9.34911L61.8033 9.34872L61.7154 9.30105ZM61.0704 13.018L61.155 13.0714L61.1982 13.0029L61.1402 12.9464L61.0704 13.018ZM60.4204 13.77L60.3577 13.8479L60.4265 13.9033L60.4899 13.8419L60.4204 13.77ZM59.6894 13.098L59.6216 13.0246L59.5505 13.0902L59.6138 13.1634L59.6894 13.098ZM60.3984 12.357L60.4707 12.2879L60.3956 12.2094L60.3236 12.2907L60.3984 12.357ZM62.7304 12.862L62.8146 12.9161L62.9136 12.762H62.7304V12.862ZM62.0694 13.608L62.007 13.6862L62.0748 13.7403L62.138 13.6809L62.0694 13.608ZM61.3444 12.937L61.277 12.8633L61.2058 12.9283L61.2682 13.0018L61.3444 12.937ZM62.0524 12.196L62.1267 12.129L62.052 12.0463L61.9778 12.1295L62.0524 12.196ZM62.7304 12.862L62.661 12.934L62.6901 12.962H62.7304V12.862ZM62.0524 9.22305C62.1329 9.22305 62.2023 9.2457 62.2639 9.29015L62.381 9.12795C62.2845 9.05839 62.174 9.02305 62.0524 9.02305V9.22305ZM62.2301 9.17056C62.0974 9.48899 61.982 9.75446 61.8819 9.96753L62.063 10.0526C62.1649 9.83564 62.2815 9.5671 62.4147 9.24753L62.2301 9.17056ZM61.8818 9.96787C61.832 10.075 61.7923 10.1576 61.7626 10.2161C61.7477 10.2455 61.7358 10.268 61.7266 10.2843C61.7162 10.3028 61.7125 10.3074 61.7139 10.3057L61.867 10.4344C61.8789 10.4202 61.8907 10.4004 61.9008 10.3827C61.912 10.3627 61.9255 10.3371 61.941 10.3065C61.9721 10.245 62.0129 10.1601 62.0631 10.0522L61.8818 9.96787ZM61.7368 10.4544C61.9895 10.615 62.2283 10.7289 62.4529 10.7932L62.508 10.6009C62.3066 10.5432 62.0854 10.4391 61.8441 10.2857L61.7368 10.4544ZM62.4529 10.7932C62.6758 10.857 62.9161 10.889 63.1754 10.889V10.689C62.9327 10.689 62.7111 10.6591 62.508 10.6009L62.4529 10.7932ZM63.1754 10.889C63.1828 10.889 63.1852 10.89 63.1844 10.8897C63.1831 10.8893 63.1788 10.8875 63.1742 10.883C63.1695 10.8784 63.1675 10.8739 63.1669 10.8722C63.1665 10.8709 63.1674 10.873 63.1674 10.88H63.3674C63.3674 10.8337 63.3555 10.7808 63.3144 10.7404C63.2736 10.7002 63.2209 10.689 63.1754 10.689V10.889ZM63.1674 10.88V11.535H63.3674V10.88H63.1674ZM63.1674 11.535C63.1674 11.5421 63.1665 11.5443 63.1669 11.5433C63.1673 11.5418 63.1692 11.5376 63.1736 11.5332C63.178 11.5288 63.1822 11.527 63.1837 11.5265C63.1847 11.5261 63.1825 11.527 63.1754 11.527V11.727C63.2218 11.727 63.2745 11.7152 63.315 11.6746C63.3556 11.6341 63.3674 11.5814 63.3674 11.535H63.1674ZM63.1754 11.527C62.5225 11.527 61.9664 11.3221 61.5016 10.9121L61.3693 11.062C61.8725 11.506 62.4764 11.727 63.1754 11.727V11.527ZM61.3553 10.9272L61.1783 11.1642L61.3386 11.2839L61.5156 11.0469L61.3553 10.9272ZM61.1846 11.1566C61.1781 11.1637 61.1601 11.1781 61.1218 11.1972C61.0849 11.2155 61.0352 11.2354 60.9715 11.2565C60.8439 11.2986 60.6677 11.3429 60.4415 11.3891L60.4814 11.585C60.7111 11.5382 60.8959 11.492 61.0342 11.4464C61.1033 11.4236 61.1626 11.4003 61.211 11.3762C61.2579 11.3528 61.3013 11.3253 61.3322 11.2915L61.1846 11.1566ZM60.4415 11.3891C59.9906 11.4808 59.5483 11.527 59.1154 11.527V11.727C59.5626 11.727 60.0183 11.6793 60.4814 11.585L60.4415 11.3891ZM59.1154 11.527C59.1084 11.527 59.1062 11.5261 59.1072 11.5265C59.1087 11.527 59.1129 11.5288 59.1173 11.5332C59.1217 11.5376 59.1235 11.5418 59.124 11.5433C59.1244 11.5443 59.1234 11.5421 59.1234 11.535H58.9234C58.9234 11.5814 58.9353 11.6341 58.9759 11.6746C59.0164 11.7152 59.0691 11.727 59.1154 11.727V11.527ZM59.1234 11.535V10.88H58.9234V11.535H59.1234ZM59.1234 10.88C59.1234 10.873 59.1244 10.8709 59.1239 10.8722C59.1233 10.8739 59.1213 10.8784 59.1167 10.883C59.1121 10.8875 59.1078 10.8893 59.1065 10.8897C59.1056 10.89 59.1081 10.889 59.1154 10.889V10.689C59.0699 10.689 59.0172 10.7003 58.9764 10.7404C58.9353 10.7808 58.9234 10.8337 58.9234 10.88H59.1234ZM59.1154 10.889C59.573 10.889 59.9634 10.8689 60.2847 10.8293L60.2602 10.6308C59.9495 10.6691 59.5678 10.689 59.1154 10.689V10.889ZM60.2849 10.8293C60.606 10.7889 60.8501 10.7207 61.0023 10.6126L60.8865 10.4495C60.7768 10.5274 60.5748 10.5912 60.26 10.6308L60.2849 10.8293ZM61.0023 10.6126C61.0842 10.5545 61.1735 10.4443 61.2703 10.2973C61.3692 10.1472 61.4825 9.94802 61.6103 9.70099L61.4326 9.6091C61.3064 9.85307 61.1967 10.0454 61.1033 10.1873C61.0078 10.3323 60.9357 10.4146 60.8865 10.4495L61.0023 10.6126ZM61.6091 9.70311L61.8031 9.34911L61.6277 9.25299L61.4337 9.60699L61.6091 9.70311ZM61.8033 9.34872C61.8463 9.26955 61.921 9.22305 62.0524 9.22305V9.02305C61.8639 9.02305 61.7126 9.09654 61.6275 9.25337L61.8033 9.34872ZM60.9859 12.9647C60.859 13.1659 60.6485 13.4105 60.3509 13.6981L60.4899 13.8419C60.7924 13.5496 61.0159 13.2922 61.155 13.0714L60.9859 12.9647ZM60.4832 13.6922C60.1549 13.4275 59.9173 13.2089 59.7651 13.0327L59.6138 13.1634C59.7776 13.3532 60.026 13.5806 60.3577 13.8479L60.4832 13.6922ZM59.7573 13.1715C59.9548 12.9893 60.1933 12.7395 60.4733 12.4234L60.3236 12.2907C60.0456 12.6046 59.8121 12.8488 59.6216 13.0246L59.7573 13.1715ZM60.3262 12.4261C60.3927 12.4958 60.6185 12.7175 61.0007 13.0897L61.1402 12.9464C60.7564 12.5726 60.5341 12.3543 60.4707 12.2879L60.3262 12.4261ZM62.6463 12.808C62.5197 13.005 62.3064 13.2476 62.0009 13.5352L62.138 13.6809C62.4485 13.3885 62.6752 13.1331 62.8146 12.9161L62.6463 12.808ZM62.1319 13.5299C61.8161 13.2777 61.5787 13.0583 61.4207 12.8723L61.2682 13.0018C61.4382 13.2018 61.6868 13.4304 62.007 13.6862L62.1319 13.5299ZM61.4119 13.0108C61.5798 12.8573 61.8195 12.6073 62.1271 12.2626L61.9778 12.1295C61.6714 12.4728 61.4371 12.7168 61.277 12.8633L61.4119 13.0108ZM61.9782 12.2631C62.0462 12.3384 62.2758 12.5627 62.661 12.934L62.7998 12.79C62.4111 12.4154 62.1887 12.1977 62.1267 12.129L61.9782 12.2631ZM62.7304 12.962H62.7304V12.762H62.7304V12.962Z" fill="#414042"/>
<path d="M63.341 11.6261C63.281 11.6261 63.25 11.5951 63.25 11.5341V10.8791C63.25 10.8181 63.281 10.7881 63.341 10.7881C63.756 10.7881 64.158 10.6931 64.545 10.5031C64.448 9.72909 64.332 8.33609 64.195 6.32409L64.087 4.85809C64.306 4.63209 64.553 4.42809 64.83 4.24609C64.876 5.25209 64.914 6.83209 64.942 8.98809L64.98 10.4971C65.312 10.6911 65.694 10.7881 66.124 10.7881C66.188 10.7881 66.22 10.8181 66.22 10.8791V11.5341C66.22 11.5951 66.188 11.6261 66.124 11.6261C65.586 11.6261 65.166 11.4951 64.861 11.2331C64.593 11.3841 64.351 11.4871 64.136 11.5421C63.921 11.5981 63.657 11.6261 63.341 11.6261H63.341Z" fill="#414042" stroke="#414042" stroke-width="0.2"/>
<path d="M66.1779 11.6267C66.1179 11.6267 66.0859 11.5957 66.0859 11.5347V10.8797C66.0859 10.8187 66.1179 10.7887 66.1779 10.7887C66.6509 10.7887 67.1079 10.7777 67.5469 10.7557C67.3729 10.6417 67.2189 10.4837 67.0879 10.2837C66.9579 10.0827 66.8929 9.86972 66.8929 9.64472C66.8929 9.33272 66.9779 9.00472 67.1479 8.66172C67.3179 8.31772 67.5379 8.04072 67.8049 7.82872C68.0749 7.61772 68.3549 7.51172 68.6489 7.51172C68.9029 7.51172 69.1469 7.57572 69.3789 7.70272C69.6119 7.82972 69.8819 8.02772 70.1899 8.29572L69.9969 8.64472C69.7079 8.53472 69.4959 8.46472 69.3639 8.43572C69.2309 8.40672 69.0849 8.39272 68.9279 8.39272C68.4769 8.39272 68.0059 8.52672 67.5159 8.79572C67.5159 9.11072 67.5909 9.39772 67.7439 9.65772C67.8959 9.91672 68.1179 10.1257 68.4069 10.2837C68.6979 10.4407 69.0399 10.5307 69.4329 10.5517C69.7119 10.4947 69.9789 10.4257 70.2329 10.3447C70.4879 10.2647 70.8439 10.1347 71.3019 9.95572C71.4029 10.0487 71.4529 10.1797 71.4529 10.3477L71.4419 10.4607C71.3989 10.7077 71.2469 10.8637 70.9849 10.9277C70.1119 11.1457 69.4509 11.2957 69.0029 11.3767C68.5559 11.4577 68.0959 11.5187 67.6259 11.5617C67.1549 11.6047 66.6719 11.6267 66.1779 11.6267H66.1779Z" fill="#414042" stroke="#414042" stroke-width="0.2"/>
<path d="M79.6112 12.2221L79.3322 10.4441C79.0212 8.58209 78.8162 7.28509 78.7172 6.55209C78.6192 5.82009 78.5702 5.33809 78.5702 5.10509C78.5702 4.85809 78.6262 4.66609 78.7422 4.53009C78.8562 4.39409 79.0392 4.29909 79.2892 4.24609C79.3002 4.29209 79.3102 4.33509 79.3222 4.37509C79.3322 4.41409 79.4522 4.80609 79.6812 5.55109L79.4232 5.77609L79.4452 5.94809L79.8042 9.20809C79.8692 9.68409 79.9182 10.1411 79.9502 10.5781L79.9552 10.6001C80.1912 10.7251 80.4602 10.7881 80.7612 10.7881C80.8222 10.7881 80.8522 10.8181 80.8522 10.8791V11.5341C80.8522 11.5951 80.8222 11.6261 80.7612 11.6261C80.4962 11.6261 80.2462 11.5661 80.0092 11.4481L80.0192 11.8081C80.0192 12.2631 79.8782 12.6961 79.5952 13.1081C79.3122 13.5191 78.9232 13.8551 78.4292 14.1151C77.9352 14.3751 77.4252 14.5041 76.8992 14.5041C76.2722 14.5041 75.7842 14.3251 75.4332 13.9641C75.0822 13.6051 74.9062 13.0951 74.9062 12.4371C74.9062 12.2251 74.9192 12.0261 74.9472 11.8371C74.9732 11.6501 75.0323 11.3751 75.1212 11.0131L75.5242 11.1101C75.4422 11.4321 75.4002 11.6931 75.4002 11.8941C75.4002 12.4311 75.5352 12.8491 75.8032 13.1481C76.0722 13.4471 76.4462 13.5971 76.9252 13.5971C77.2732 13.5971 77.6342 13.5361 78.0112 13.4141C78.3862 13.2921 78.7182 13.1261 79.0042 12.9151C79.2912 12.7031 79.4942 12.4721 79.6112 12.2221H79.6112Z" fill="#414042" stroke="#414042" stroke-width="0.2"/>
<path fill-rule="evenodd" clip-rule="evenodd" d="M89.4656 11.6262C89.1546 11.6262 88.8446 11.5632 88.5376 11.4382C88.2286 11.3122 87.9766 11.1472 87.7796 10.9432C87.4536 11.1552 87.0546 11.3212 86.5846 11.4432C86.1136 11.5642 85.6436 11.6262 85.1736 11.6262C84.6446 11.6262 84.0996 11.5682 83.5416 11.4542C82.9826 11.3392 82.5396 11.1902 82.2096 11.0082L82.0216 11.2232C81.7786 11.4912 81.3776 11.6262 80.8186 11.6262C80.7576 11.6262 80.7266 11.5952 80.7266 11.5342V10.8792C80.7266 10.8182 80.7576 10.7882 80.8186 10.7882C81.1476 10.7882 81.4096 10.7282 81.6026 10.6082C81.7966 10.4882 81.9916 10.2562 82.1876 9.91222L82.3596 9.60622C82.4356 9.47722 82.5516 9.41322 82.7096 9.41322C82.8126 9.41322 82.8986 9.44722 82.9666 9.51522C82.8126 9.88722 82.7036 10.1412 82.6386 10.2772C82.8186 10.3632 83.0016 10.4352 83.1876 10.4922C84.5906 8.63022 85.7876 7.69922 86.7756 7.69922C86.9826 7.69922 87.2386 7.78322 87.5436 7.95222C87.8476 8.12022 88.1196 8.33622 88.3596 8.60122C88.5996 8.86722 88.7186 9.09922 88.7186 9.30022C88.7186 9.74422 88.5786 10.1402 88.2956 10.4872C88.6286 10.6882 89.0186 10.7882 89.4656 10.7882C89.5306 10.7882 89.5626 10.8182 89.5626 10.8792V11.5342C89.5626 11.5952 89.5306 11.6262 89.4656 11.6262H89.4656ZM85.2876 10.7882C86.2435 10.7882 87.2226 10.4742 88.2246 9.84822C88.0036 9.46122 87.7366 9.15922 87.4246 8.94322C87.1136 8.72622 86.8056 8.61822 86.5016 8.61822C86.1536 8.61822 85.7406 8.78722 85.2596 9.12622C84.7806 9.46322 84.2596 9.96422 83.6976 10.6262C84.2706 10.7342 84.7996 10.7882 85.2876 10.7882Z" fill="#414042"/>
<path d="M88.5376 11.4382L88.4998 11.5308L88.4999 11.5308L88.5376 11.4382ZM87.7796 10.9432L87.8515 10.8738L87.7942 10.8144L87.725 10.8594L87.7796 10.9432ZM86.5846 11.4432L86.6094 11.5401L86.6097 11.54L86.5846 11.4432ZM83.5416 11.4542L83.5214 11.5522L83.5215 11.5522L83.5416 11.4542ZM82.2096 11.0082L82.2579 10.9207L82.1873 10.8817L82.1343 10.9424L82.2096 11.0082ZM82.0216 11.2232L82.0957 11.2904L82.0968 11.289L82.0216 11.2232ZM81.6026 10.6082L81.55 10.5232L81.5498 10.5233L81.6026 10.6082ZM82.1876 9.91222L82.2745 9.96172L82.2747 9.96122L82.1876 9.91222ZM82.3596 9.60622L82.2734 9.55545L82.2724 9.55722L82.3596 9.60622ZM82.9666 9.51522L83.059 9.55347L83.0845 9.49175L83.0373 9.44451L82.9666 9.51522ZM82.6386 10.2772L82.5483 10.2341L82.5052 10.3243L82.5955 10.3674L82.6386 10.2772ZM83.1876 10.4922L83.1583 10.5878L83.2253 10.6084L83.2674 10.5524L83.1876 10.4922ZM87.5436 7.95222L87.4951 8.03969L87.4952 8.03974L87.5436 7.95222ZM88.3596 8.60122L88.4338 8.53423L88.4337 8.53409L88.3596 8.60122ZM88.2956 10.4872L88.2181 10.424L88.1453 10.5133L88.2439 10.5728L88.2956 10.4872ZM88.2246 9.84822L88.2775 9.93303L88.3591 9.8821L88.3114 9.79863L88.2246 9.84822ZM87.4246 8.94322L87.3673 9.02523L87.3676 9.02544L87.4246 8.94322ZM85.2596 9.12622L85.3171 9.20801L85.3172 9.20796L85.2596 9.12622ZM83.6976 10.6262L83.6213 10.5615L83.51 10.6926L83.679 10.7245L83.6976 10.6262ZM89.4656 11.5262C89.1684 11.5262 88.8712 11.4661 88.5753 11.3456L88.4999 11.5308C88.818 11.6604 89.1407 11.7262 89.4656 11.7262V11.5262ZM88.5753 11.3456C88.2771 11.224 88.0374 11.0662 87.8515 10.8738L87.7076 11.0127C87.9158 11.2282 88.18 11.4004 88.4998 11.5308L88.5753 11.3456ZM87.725 10.8594C87.4102 11.0642 87.0217 11.2264 86.5594 11.3464L86.6097 11.54C87.0874 11.416 87.497 11.2463 87.8341 11.0271L87.725 10.8594ZM86.5597 11.3464C86.0963 11.4654 85.6347 11.5262 85.1736 11.5262V11.7262C85.6525 11.7262 86.1308 11.663 86.6094 11.5401L86.5597 11.3464ZM85.1736 11.5262C84.6519 11.5262 84.1136 11.469 83.5616 11.3562L83.5215 11.5522C84.0855 11.6674 84.6373 11.7262 85.1736 11.7262V11.5262ZM83.5617 11.3563C83.0082 11.2424 82.5759 11.096 82.2579 10.9207L82.1613 11.0958C82.5033 11.2844 82.9569 11.436 83.5214 11.5522L83.5617 11.3563ZM82.1343 10.9424L81.9463 11.1574L82.0968 11.289L82.2848 11.074L82.1343 10.9424ZM81.9475 11.156C81.7316 11.3941 81.3644 11.5262 80.8186 11.5262V11.7262C81.3907 11.7262 81.8255 11.5883 82.0956 11.2904L81.9475 11.156ZM80.8186 11.5262C80.8115 11.5262 80.8093 11.5253 80.8103 11.5256C80.8118 11.5261 80.816 11.528 80.8204 11.5324C80.8248 11.5368 80.8267 11.541 80.8272 11.5425C80.8275 11.5435 80.8266 11.5413 80.8266 11.5342H80.6266C80.6266 11.5805 80.6384 11.6333 80.679 11.6738C80.7195 11.7143 80.7722 11.7262 80.8186 11.7262V11.5262ZM80.8266 11.5342V10.8792H80.6266V11.5342H80.8266ZM80.8266 10.8792C80.8266 10.8721 80.8275 10.8701 80.8271 10.8714C80.8265 10.8731 80.8245 10.8776 80.8198 10.8821C80.8152 10.8867 80.8109 10.8885 80.8096 10.8889C80.8088 10.8892 80.8112 10.8882 80.8186 10.8882V10.6882C80.7731 10.6882 80.7204 10.6994 80.6796 10.7396C80.6385 10.78 80.6266 10.8329 80.6266 10.8792H80.8266ZM80.8186 10.8882C81.1583 10.8882 81.4409 10.8265 81.6554 10.6931L81.5498 10.5233C81.3782 10.6299 81.1369 10.6882 80.8186 10.6882V10.8882ZM81.6552 10.6933C81.8703 10.5602 82.0755 10.311 82.2744 9.96172L82.1007 9.86271C81.9077 10.2015 81.7228 10.4163 81.55 10.5232L81.6552 10.6933ZM82.2747 9.96122L82.4467 9.65522L82.2724 9.55722L82.1004 9.86322L82.2747 9.96122ZM82.4457 9.65698C82.5026 9.56047 82.5846 9.51322 82.7096 9.51322V9.31322C82.5185 9.31322 82.3685 9.39396 82.2734 9.55546L82.4457 9.65698ZM82.7096 9.51322C82.7883 9.51322 82.8481 9.53821 82.8959 9.58593L83.0373 9.44451C82.949 9.35623 82.8368 9.31322 82.7096 9.31322V9.51322ZM82.8742 9.47697C82.72 9.84932 82.612 10.1009 82.5483 10.2341L82.7288 10.3203C82.7951 10.1816 82.9051 9.92512 83.059 9.55347L82.8742 9.47697ZM82.5955 10.3674C82.7797 10.4555 82.9673 10.5293 83.1583 10.5878L83.2169 10.3966C83.0359 10.3411 82.8575 10.271 82.6817 10.187L82.5955 10.3674ZM83.2674 10.5524C83.9661 9.6251 84.6101 8.93441 85.1986 8.47639C85.788 8.01765 86.3129 7.79922 86.7756 7.79922V7.59922C86.2502 7.59922 85.6826 7.84629 85.0758 8.31855C84.468 8.79153 83.812 9.49734 83.1077 10.432L83.2674 10.5524ZM86.7756 7.79922C86.9578 7.79922 87.1961 7.87403 87.4951 8.03969L87.592 7.86475C87.281 7.69241 87.0073 7.59922 86.7756 7.59922V7.79922ZM87.4952 8.03974C87.7893 8.20229 88.0527 8.41133 88.2855 8.66835L88.4337 8.53409C88.1865 8.2611 87.9058 8.03815 87.5919 7.86469L87.4952 8.03974ZM88.2853 8.66821C88.5204 8.92878 88.6186 9.13713 88.6186 9.30022H88.8186C88.8186 9.06131 88.6787 8.80566 88.4338 8.53423L88.2853 8.66821ZM88.6186 9.30022C88.6186 9.72124 88.4865 10.0949 88.2181 10.424L88.3731 10.5504C88.6707 10.1855 88.8186 9.7672 88.8186 9.30022H88.6186ZM88.2439 10.5728C88.5948 10.7846 89.0032 10.8882 89.4656 10.8882V10.6882C89.0339 10.6882 88.6624 10.5918 88.3472 10.4016L88.2439 10.5728ZM89.4656 10.8882C89.4745 10.8882 89.4782 10.8893 89.4785 10.8894C89.4786 10.8894 89.4776 10.8891 89.4759 10.8882C89.4743 10.8872 89.4722 10.8858 89.47 10.8838C89.4653 10.8794 89.463 10.8748 89.4622 10.8725C89.4616 10.8708 89.4626 10.8724 89.4626 10.8792H89.6626C89.6626 10.832 89.6499 10.7783 89.6069 10.7379C89.565 10.6987 89.5116 10.6882 89.4656 10.6882V10.8882ZM89.4626 10.8792V11.5342H89.6626V10.8792H89.4626ZM89.4626 11.5342C89.4626 11.541 89.4616 11.5428 89.4622 11.5413C89.4629 11.5393 89.465 11.535 89.4694 11.5307C89.4738 11.5266 89.4775 11.5252 89.4779 11.5251C89.4779 11.5251 89.477 11.5254 89.4749 11.5257C89.4728 11.526 89.4698 11.5262 89.4656 11.5262V11.7262C89.5123 11.7262 89.5658 11.7151 89.6075 11.6755C89.65 11.6349 89.6626 11.5814 89.6626 11.5342H89.4626ZM89.4656 11.5262H89.4656V11.7262H89.4656V11.5262ZM85.2876 10.8882C86.2663 10.8882 87.2635 10.5666 88.2775 9.93303L88.1716 9.76341C87.1817 10.3819 86.2208 10.6882 85.2876 10.6882V10.8882ZM88.3114 9.79863C88.0843 9.40089 87.8077 9.08686 87.4815 8.861L87.3676 9.02544C87.6654 9.23158 87.9228 9.52154 88.1377 9.89781L88.3114 9.79863ZM87.4818 8.86121C87.1581 8.63533 86.8305 8.51822 86.5016 8.51822V8.71822C86.7806 8.71822 87.0691 8.81711 87.3673 9.02523L87.4818 8.86121ZM86.5016 8.51822C86.123 8.51822 85.6893 8.70098 85.2019 9.04448L85.3172 9.20796C85.7918 8.87345 86.1841 8.71822 86.5016 8.71822V8.51822ZM85.202 9.04443C84.7136 9.38807 84.1864 9.89589 83.6213 10.5615L83.7738 10.6909C84.3327 10.0325 84.8475 9.53837 85.3171 9.20801L85.202 9.04443ZM83.679 10.7245C84.257 10.8334 84.7923 10.8882 85.2876 10.8882V10.6882C84.8069 10.6882 84.2841 10.635 83.7161 10.5279L83.679 10.7245Z" fill="#414042"/>
<path d="M89.5217 11.6257C89.4617 11.6257 89.4297 11.5947 89.4297 11.5337V10.8787C89.4297 10.8177 89.4617 10.7877 89.5217 10.7877C90.5997 10.7877 91.4467 10.6937 92.0627 10.5077L92.6737 10.2987C93.0897 10.1407 93.4597 10.0337 93.7817 9.97572C93.4947 9.83272 93.2117 9.65072 92.9317 9.42872C92.6347 9.19572 92.3947 9.03372 92.2107 8.94272C92.0257 8.85072 91.8367 8.80572 91.6427 8.80572C91.2927 8.80572 90.9767 8.89472 90.6977 9.07372L90.4397 9.23472C90.3327 9.12772 90.2797 8.98472 90.2797 8.80572C90.2797 8.52972 90.4007 8.30772 90.6447 8.13972C90.8877 7.97072 91.2087 7.88672 91.6057 7.88672C91.8387 7.88672 92.0737 7.93772 92.3117 8.03772C92.5497 8.13772 92.8267 8.30272 93.1417 8.53172C93.5247 8.81372 93.8507 9.02672 94.1197 9.16772C94.3877 9.30872 94.6607 9.41072 94.9357 9.47172C95.2117 9.53272 95.6127 9.56272 96.1387 9.56272L95.7197 10.3737C95.4907 10.3447 95.2857 10.3257 95.1017 10.3147L95.0647 10.3087L94.8387 10.3147C94.5857 10.3147 94.3417 10.3527 94.1117 10.4277C93.8807 10.5027 93.5217 10.6657 93.0347 10.9157C92.4867 11.1987 91.9917 11.3877 91.5487 11.4827C91.1067 11.5777 90.4307 11.6257 89.5217 11.6257H89.5217Z" fill="#414042" stroke="#414042" stroke-width="0.2"/>
<path d="M97.5344 7.96209V8.65009C97.5344 9.35909 97.5084 10.3201 97.4594 11.5341L96.9544 11.6261C96.9074 9.05509 96.8074 6.92009 96.6534 5.22309L96.6484 5.08309C96.6484 4.85109 96.7064 4.66609 96.8224 4.52809C96.9384 4.39009 97.1224 4.29609 97.3734 4.24609C97.3834 4.29209 97.3944 4.33509 97.4054 4.37509C97.4164 4.41409 97.5364 4.80609 97.7654 5.55109L97.4694 5.80309L97.4744 5.85709C97.5144 6.64409 97.5344 7.34709 97.5344 7.96209Z" fill="#414042" stroke="#414042" stroke-width="0.2"/>
</g>
</g>
<path fill-rule="evenodd" clip-rule="evenodd" d="M130.711 0.8C133.027 0.8 134.911 2.684 134.911 5V35C134.911 37.316 133.027 39.2 130.711 39.2H5.71094C3.39494 39.2 1.51094 37.316 1.51094 35V5C1.51094 2.684 3.39494 0.8 5.71094 0.8H130.711ZM130.711 0H5.71094C2.96094 0 0.710938 2.25 0.710938 5V35C0.710938 37.75 2.96094 40 5.71094 40H130.711C133.461 40 135.711 37.75 135.711 35V5C135.711 2.25 133.461 0 130.711 0Z" fill="#A6A6A6"/>
</g>
</g>
<defs>
<clipPath id="clip0_7636_137630">
<rect width="1440" height="7869" fill="white" transform="translate(-102 -7702)"/>
</clipPath>
<clipPath id="clip1_7636_137630">
<rect width="155" height="60" fill="white" transform="translate(-9 -10)"/>
</clipPath>
<clipPath id="clip2_7636_137630">
<rect width="112.873" height="38.252" fill="white" transform="translate(22.7109 0.875)"/>
</clipPath>
<clipPath id="clip3_7636_137630">
<rect width="17.7166" height="21.7763" fill="white" transform="translate(108.656 8.7207)"/>
</clipPath>
<clipPath id="clip4_7636_137630">
<rect width="17.7166" height="21.7763" fill="white" transform="translate(108.656 8.7207)"/>
</clipPath>
<clipPath id="clip5_7636_137630">
<rect width="75.0605" height="15.6202" fill="white" transform="translate(22.7109 17.8711)"/>
</clipPath>
<clipPath id="clip6_7636_137630">
<rect width="57.051" height="10.258" fill="white" transform="translate(40.7109 4.24609)"/>
</clipPath>
</defs>
</svg>
