<svg width="155" height="60" viewBox="0 0 155 60" fill="none" xmlns="http://www.w3.org/2000/svg">
<g clip-path="url(#clip0_7563_38115)">
<g clip-path="url(#clip1_7563_38115)">
<g clip-path="url(#clip2_7563_38115)">
<g clip-path="url(#clip3_7563_38115)">
<path d="M132.457 30.3003C132.479 28.6039 133.369 27.0368 134.814 26.1483C133.898 24.8402 132.419 24.0405 130.823 23.9906C129.144 23.8143 127.516 24.9954 126.66 24.9954C125.788 24.9954 124.47 24.0081 123.051 24.0373C121.185 24.0976 119.487 25.1332 118.579 26.7651C116.645 30.1136 118.087 35.0346 119.94 37.7413C120.867 39.0666 121.95 40.547 123.367 40.4945C124.754 40.437 125.272 39.6101 126.947 39.6101C128.606 39.6101 129.092 40.4946 130.538 40.4612C132.026 40.437 132.964 39.1299 133.858 37.792C134.524 36.8477 135.037 35.8039 135.377 34.6995C133.609 33.9518 132.46 32.2197 132.457 30.3003Z" fill="#414042"/>
<path d="M129.726 22.2103C130.537 21.2361 130.937 19.984 130.84 18.7197C129.6 18.8499 128.455 19.4425 127.633 20.3793C126.82 21.3036 126.409 22.5129 126.489 23.7407C127.745 23.7537 128.938 23.1896 129.726 22.2103Z" fill="#414042"/>
</g>
</g>
<g clip-path="url(#clip4_7563_38115)">
<path fill-rule="evenodd" clip-rule="evenodd" d="M39.5869 37.1397H34.8535L33.7168 40.4961H31.7119L36.1953 28.0781H38.2783L42.7617 40.4961H40.7226L39.5869 37.1397ZM35.3438 35.5909H39.0958L37.2461 30.1436H37.1944L35.3438 35.5909Z" fill="#414042"/>
<path fill-rule="evenodd" clip-rule="evenodd" d="M52.4443 35.9694C52.4443 38.7829 50.9385 40.5905 48.666 40.5905C47.4914 40.6519 46.385 40.0367 45.8174 39.0065H45.7744V43.4909H43.916V31.4421H45.7148V32.9479H45.749C46.3418 31.9242 47.4494 31.3092 48.6318 31.3474C50.9297 31.3474 52.4443 33.1638 52.4443 35.9694ZM50.5342 35.9694C50.5342 34.1364 49.5869 32.9313 48.1416 32.9313C46.7217 32.9313 45.7666 34.1618 45.7666 35.9694C45.7666 37.7936 46.7217 39.0153 48.1416 39.0153C49.5869 39.0153 50.5342 37.819 50.5342 35.9694H50.5342Z" fill="#414042"/>
<path fill-rule="evenodd" clip-rule="evenodd" d="M62.4093 35.9694C62.4093 38.7829 60.9034 40.5905 58.6309 40.5905C57.4563 40.6519 56.3499 40.0367 55.7823 39.0065H55.7393V43.4909H53.8809V31.4421H55.6797V32.948H55.7139C56.3067 31.9242 57.4143 31.3092 58.5967 31.3474C60.8946 31.3474 62.4093 33.1638 62.4093 35.9694ZM60.4991 35.9694C60.4991 34.1364 59.5518 32.9313 58.1065 32.9313C56.6866 32.9313 55.7315 34.1618 55.7315 35.9694C55.7315 37.7936 56.6866 39.0153 58.1065 39.0153C59.5518 39.0153 60.4991 37.819 60.4991 35.9694H60.4991Z" fill="#414042"/>
<path d="M68.9951 37.0361C69.1328 38.2676 70.3291 39.0761 71.9639 39.0761C73.5303 39.0761 74.6572 38.2675 74.6572 37.1572C74.6572 36.1933 73.9775 35.6162 72.3682 35.2206L70.7588 34.833C68.4786 34.2822 67.42 33.2158 67.42 31.4854C67.42 29.3428 69.2871 27.8711 71.9385 27.8711C74.5625 27.8711 76.3614 29.3428 76.4219 31.4854H74.5459C74.4336 30.2461 73.4092 29.4981 71.9121 29.4981C70.415 29.4981 69.3906 30.2549 69.3906 31.3565C69.3906 32.2344 70.0449 32.751 71.6455 33.1465L73.0137 33.4824C75.5615 34.0849 76.6201 35.1084 76.6201 36.9248C76.6201 39.248 74.7695 40.7031 71.8262 40.7031C69.0723 40.7031 67.2129 39.2822 67.0928 37.0361L68.9951 37.0361Z" fill="#414042"/>
<path d="M80.6304 29.2998V31.4424H82.3521V32.9141H80.6304V37.9053C80.6304 38.6807 80.9751 39.042 81.7319 39.042C81.9363 39.0384 82.1404 39.0241 82.3433 38.999V40.4619C82.003 40.5255 81.6571 40.5543 81.311 40.5478C79.478 40.5478 78.7632 39.8593 78.7632 38.1035V32.9141H77.4468V31.4424H78.7632V29.2998L80.6304 29.2998Z" fill="#414042"/>
<path fill-rule="evenodd" clip-rule="evenodd" d="M83.3501 35.9697C83.3501 33.1211 85.0278 31.3311 87.644 31.3311C90.269 31.3311 91.939 33.1211 91.939 35.9697C91.939 38.8262 90.2778 40.6084 87.644 40.6084C85.0112 40.6084 83.3501 38.8262 83.3501 35.9697ZM90.0454 35.9697C90.0454 34.0156 89.1499 32.8623 87.644 32.8623C86.1382 32.8623 85.2436 34.0244 85.2436 35.9697C85.2436 37.9316 86.1382 39.0762 87.644 39.0762C89.1499 39.0762 90.0454 37.9316 90.0454 35.9697H90.0454Z" fill="#414042"/>
<path d="M93.4707 31.442H95.2432V32.983H95.2862C95.5333 31.991 96.4423 31.3083 97.4639 31.3473C97.6781 31.3465 97.8916 31.3698 98.1006 31.4166L98.1006 33.1549C97.8303 33.0723 97.5482 33.0344 97.2656 33.0426C96.7193 33.0204 96.1905 33.2382 95.8182 33.6387C95.4459 34.0391 95.2672 34.5823 95.3291 35.1256V40.4957H93.4707L93.4707 31.442Z" fill="#414042"/>
<path fill-rule="evenodd" clip-rule="evenodd" d="M106.669 37.8369C106.419 39.4805 104.818 40.6084 102.771 40.6084C100.137 40.6084 98.502 38.8437 98.502 36.0127C98.502 33.1729 100.146 31.3311 102.692 31.3311C105.197 31.3311 106.772 33.0518 106.772 35.7969V36.4336H100.378V36.5459C100.318 37.2199 100.551 37.8871 101.017 38.3778C101.483 38.8684 102.137 39.1352 102.813 39.1103C103.715 39.1949 104.566 38.677 104.904 37.8369L106.669 37.8369ZM100.387 35.1348H104.913C104.98 33.9342 104.061 32.9067 102.86 32.8398C102.804 32.8367 102.748 32.8357 102.692 32.837C101.427 32.8294 100.394 33.8494 100.387 35.1152C100.387 35.1218 100.387 35.1283 100.387 35.1348H100.387Z" fill="#414042"/>
</g>
<g clip-path="url(#clip5_7563_38115)">
<path fill-rule="evenodd" clip-rule="evenodd" d="M51.7049 24.5052C51.0779 24.5052 50.5889 24.3262 50.2379 23.9653C49.8869 23.6062 49.7119 23.0963 49.7119 22.4383C49.7119 22.2263 49.7249 22.0272 49.7529 21.8383C49.7789 21.6512 49.8379 21.3762 49.9259 21.0142L50.3299 21.1112C50.2469 21.4332 50.2059 21.6943 50.2059 21.8953C50.2059 22.4323 50.3409 22.8502 50.6089 23.1493C50.8779 23.4482 51.2519 23.5983 51.7309 23.5983C52.2759 23.5983 52.8179 23.4653 53.3589 23.2002C53.8999 22.9352 54.2609 22.6093 54.4439 22.2232C53.9639 21.1732 53.7239 20.4742 53.7239 20.1233C53.7239 19.9332 53.7779 19.7613 53.8849 19.6072C53.9929 19.4532 54.1789 19.2973 54.4439 19.1402C54.4759 19.3982 54.5599 19.8723 54.6959 20.5633L54.7019 20.6062C54.9449 20.7272 55.2119 20.7892 55.5029 20.7892C55.5629 20.7892 55.5929 20.8192 55.5929 20.8802V21.5352C55.5929 21.5963 55.5629 21.6272 55.5029 21.6272C55.2549 21.6272 55.0329 21.5822 54.8369 21.4922L54.8519 21.8092C54.8519 22.2603 54.7089 22.6922 54.4229 23.1042C54.1359 23.5153 53.7439 23.8523 53.2469 24.1132C52.7489 24.3742 52.2349 24.5052 51.7049 24.5052ZM52.5809 18.4952C52.4089 18.7422 52.1729 19.0113 51.8719 19.3012C51.5459 19.0432 51.2819 18.8053 51.0819 18.5863C51.4579 18.2103 51.7129 17.9422 51.8499 17.7812C52.0829 18.0353 52.3259 18.2732 52.5809 18.4952Z" fill="#414042"/>
<path d="M50.2379 23.9653L50.3096 23.8955L50.3094 23.8953L50.2379 23.9653ZM49.7529 21.8383L49.8518 21.8529L49.852 21.852L49.7529 21.8383ZM49.9259 21.0142L49.9493 20.917L49.8523 20.8937L49.8287 20.9906L49.9259 21.0142ZM50.3299 21.1112L50.4267 21.1362L50.4521 21.0378L50.3533 21.014L50.3299 21.1112ZM50.6089 23.1493L50.5344 23.216L50.5346 23.2161L50.6089 23.1493ZM54.4439 22.2232L54.5343 22.2661L54.5542 22.224L54.5349 22.1817L54.4439 22.2232ZM53.8849 19.6072L53.803 19.5498L53.8028 19.5502L53.8849 19.6072ZM54.4439 19.1402L54.5432 19.1279L54.5244 18.9764L54.3929 19.0542L54.4439 19.1402ZM54.6959 20.5633L54.7951 20.5494L54.794 20.5439L54.6959 20.5633ZM54.7019 20.6062L54.6029 20.6201L54.6102 20.6723L54.6573 20.6958L54.7019 20.6062ZM54.8369 21.4922L54.8786 21.4014L54.7292 21.3328L54.737 21.497L54.8369 21.4922ZM54.8519 21.8092H54.952L54.9518 21.8045L54.8519 21.8092ZM54.4229 23.1042L54.5049 23.1615L54.5051 23.1613L54.4229 23.1042ZM53.2469 24.1132L53.2933 24.2018L53.2934 24.2018L53.2469 24.1132ZM52.5809 18.4952L52.663 18.5524L52.7143 18.4788L52.6466 18.4198L52.5809 18.4952ZM51.8719 19.3012L51.8099 19.3797L51.8784 19.4339L51.9413 19.3733L51.8719 19.3012ZM51.0819 18.5863L51.0112 18.5155L50.9436 18.5831L51.0081 18.6537L51.0819 18.5863ZM51.8499 17.7812L51.9236 17.7137L51.8471 17.6303L51.7738 17.7164L51.8499 17.7812ZM51.7049 24.4052C51.0977 24.4052 50.6373 24.2325 50.3096 23.8955L50.1662 24.035C50.5406 24.42 51.0582 24.6052 51.7049 24.6052V24.4052ZM50.3094 23.8953C49.9819 23.5604 49.8119 23.0787 49.8119 22.4383H49.6119C49.6119 23.1138 49.7919 23.6521 50.1664 24.0352L50.3094 23.8953ZM49.8119 22.4383C49.8119 22.2303 49.8247 22.0363 49.8518 21.8529L49.654 21.8236C49.6252 22.0182 49.6119 22.2222 49.6119 22.4383H49.8119ZM49.852 21.852C49.8772 21.6704 49.9351 21.3997 50.0231 21.0379L49.8287 20.9906C49.7407 21.3528 49.6806 21.6321 49.6539 21.8245L49.852 21.852ZM49.9026 21.1115L50.3066 21.2085L50.3533 21.014L49.9493 20.917L49.9026 21.1115ZM50.2331 21.0863C50.1491 21.412 50.1059 21.6822 50.1059 21.8953H50.3059C50.3059 21.7063 50.3447 21.4545 50.4267 21.1362L50.2331 21.0863ZM50.1059 21.8953C50.1059 22.4486 50.2452 22.8933 50.5344 23.216L50.6834 23.0825C50.4366 22.8072 50.3059 22.4159 50.3059 21.8953H50.1059ZM50.5346 23.2161C50.8261 23.5402 51.2294 23.6983 51.7309 23.6983V23.4983C51.2745 23.4983 50.9297 23.3563 50.6833 23.0824L50.5346 23.2161ZM51.7309 23.6983C52.2928 23.6983 52.8498 23.561 53.4029 23.2901L53.3149 23.1104C52.7861 23.3695 52.259 23.4983 51.7309 23.4983V23.6983ZM53.4029 23.2901C53.9562 23.019 54.3383 22.6794 54.5343 22.2661L54.3536 22.1804C54.1835 22.5391 53.8436 22.8515 53.3149 23.1104L53.4029 23.2901ZM54.5349 22.1817C54.2956 21.6582 54.117 21.2242 53.9985 20.8787C53.879 20.5303 53.8239 20.2811 53.8239 20.1233H53.6239C53.6239 20.3164 53.6888 20.5922 53.8093 20.9436C53.9308 21.2978 54.1123 21.7383 54.353 22.2648L54.5349 22.1817ZM53.8239 20.1233C53.8239 19.9535 53.8717 19.8015 53.967 19.6643L53.8028 19.5502C53.6841 19.721 53.6239 19.913 53.6239 20.1233H53.8239ZM53.9668 19.6647C54.0631 19.5273 54.2355 19.38 54.4949 19.2263L54.3929 19.0542C54.1224 19.2145 53.9227 19.3792 53.803 19.5498L53.9668 19.6647ZM54.3447 19.1526C54.3772 19.4146 54.4619 19.8919 54.5978 20.5826L54.794 20.5439C54.658 19.8526 54.5747 19.3819 54.5432 19.1279L54.3447 19.1526ZM54.5969 20.5771L54.6029 20.6201L54.801 20.5924L54.795 20.5494L54.5969 20.5771ZM54.6573 20.6958C54.9149 20.824 55.1972 20.8893 55.5029 20.8893V20.6892C55.2266 20.6892 54.975 20.6305 54.7465 20.5167L54.6573 20.6958ZM55.5029 20.8893C55.5099 20.8893 55.5119 20.8902 55.5105 20.8897C55.5087 20.8891 55.5041 20.8871 55.4994 20.8823C55.4947 20.8775 55.4928 20.8731 55.4923 20.8716C55.492 20.8706 55.4929 20.8729 55.4929 20.8802H55.6929C55.6929 20.8348 55.6817 20.7821 55.6414 20.7415C55.601 20.7007 55.5483 20.6892 55.5029 20.6892V20.8893ZM55.4929 20.8802V21.5352H55.6929V20.8802H55.4929ZM55.4929 21.5352C55.4929 21.5426 55.492 21.5451 55.4922 21.5443C55.4926 21.5431 55.4943 21.5389 55.4988 21.5343C55.5034 21.5296 55.5079 21.5275 55.5098 21.5269C55.5113 21.5264 55.5096 21.5273 55.5029 21.5273V21.7272C55.5492 21.7272 55.6018 21.7151 55.642 21.674C55.6817 21.6332 55.6929 21.5808 55.6929 21.5352H55.4929ZM55.5029 21.5273C55.2672 21.5273 55.0597 21.4845 54.8786 21.4014L54.7952 21.5831C55.0061 21.68 55.2427 21.7272 55.5029 21.7272V21.5273ZM54.737 21.497L54.752 21.814L54.9518 21.8045L54.9368 21.4875L54.737 21.497ZM54.7519 21.8092C54.7519 22.2376 54.6165 22.65 54.3408 23.0472L54.5051 23.1613C54.8013 22.7345 54.9519 22.2829 54.9519 21.8092H54.7519ZM54.3409 23.047C54.0641 23.4435 53.6849 23.7703 53.2004 24.0247L53.2934 24.2018C53.8029 23.9342 54.2077 23.587 54.5049 23.1615L54.3409 23.047ZM53.2005 24.0247C52.7159 24.2787 52.2177 24.4052 51.7049 24.4052V24.6052C52.2521 24.6052 52.782 24.4698 53.2933 24.2018L53.2005 24.0247ZM52.4989 18.4381C52.3316 18.6782 52.1004 18.9423 51.8025 19.2292L51.9413 19.3733C52.2454 19.0802 52.4862 18.8063 52.663 18.5524L52.4989 18.4381ZM51.934 19.2228C51.6105 18.9668 51.3509 18.7325 51.1558 18.5188L51.0081 18.6537C51.2129 18.878 51.4814 19.1197 51.8099 19.3797L51.934 19.2228ZM51.1526 18.657C51.5287 18.2809 51.7862 18.0104 51.9261 17.8461L51.7738 17.7164C51.6396 17.8741 51.3872 18.1396 51.0112 18.5155L51.1526 18.657ZM51.7762 17.8488C52.0116 18.1054 52.2573 18.3461 52.5153 18.5707L52.6466 18.4198C52.3946 18.2004 52.1542 17.9651 51.9236 17.7137L51.7762 17.8488Z" fill="#414042"/>
<path fill-rule="evenodd" clip-rule="evenodd" d="M55.5539 21.6267C55.4939 21.6267 55.4629 21.5957 55.4629 21.5347V20.8797C55.4629 20.8187 55.4939 20.7887 55.5539 20.7887C55.8339 20.7887 56.0689 20.7207 56.2599 20.5867C56.4519 20.4527 56.6179 20.2477 56.7569 19.9717L56.9779 19.5317C57.2599 18.9297 57.5369 18.5057 57.8069 18.2587C58.0779 18.0117 58.3749 17.8877 58.6969 17.8877C58.9119 17.8877 59.1259 18.0187 59.3379 18.2797C59.5509 18.5417 59.7229 18.8777 59.8539 19.2897C59.9849 19.7017 60.0499 20.0987 60.0499 20.4817C60.0499 20.7077 60.0079 20.9127 59.9259 21.0967C59.8439 21.2817 59.6989 21.4577 59.4919 21.6267C59.0499 21.6267 58.5829 21.5647 58.0869 21.4437C57.5909 21.3217 57.1759 21.1647 56.8429 20.9707C56.6719 21.2037 56.4839 21.3717 56.2789 21.4727C56.0759 21.5757 55.8339 21.6267 55.5539 21.6267H55.5539ZM59.2499 20.7887C59.2349 20.3337 59.1489 19.8987 58.9919 19.4827C58.8349 19.0677 58.6779 18.8597 58.5249 18.8597C58.3839 18.8597 58.2549 18.9007 58.1319 18.9837C58.0099 19.0657 57.8889 19.1927 57.7669 19.3647C57.6449 19.5367 57.4809 19.8267 57.2729 20.2347C57.7889 20.5177 58.4479 20.7027 59.2499 20.7887H59.2499Z" fill="#414042"/>
<path d="M56.2599 20.5867L56.2027 20.5047L56.2025 20.5048L56.2599 20.5867ZM56.7569 19.9717L56.8462 20.0167L56.8462 20.0166L56.7569 19.9717ZM56.9779 19.5317L57.0673 19.5766L57.0684 19.5741L56.9779 19.5317ZM57.8069 18.2587L57.7395 18.1848L57.7394 18.1849L57.8069 18.2587ZM59.3379 18.2797L59.2603 18.3427L59.2603 18.3428L59.3379 18.2797ZM59.9259 21.0967L59.8345 21.056L59.8345 21.0562L59.9259 21.0967ZM59.4919 21.6267V21.7267H59.5275L59.5551 21.7042L59.4919 21.6267ZM58.0869 21.4437L58.063 21.5408L58.0632 21.5408L58.0869 21.4437ZM56.8429 20.9707L56.8932 20.8843L56.8155 20.839L56.7623 20.9115L56.8429 20.9707ZM56.2789 21.4727L56.2347 21.383L56.2336 21.3835L56.2789 21.4727ZM59.2499 20.7887V20.8887H59.3532L59.3498 20.7854L59.2499 20.7887ZM58.9919 19.4827L59.0854 19.4474L59.0854 19.4473L58.9919 19.4827ZM58.1319 18.9837L58.1877 19.0667L58.1878 19.0666L58.1319 18.9837ZM57.2729 20.2347L57.1838 20.1893L57.1397 20.2757L57.2248 20.3224L57.2729 20.2347ZM59.2499 20.7887L59.2392 20.8887H59.2499V20.7887ZM55.5539 21.5267C55.5472 21.5267 55.5453 21.5258 55.5466 21.5262C55.5483 21.5268 55.5525 21.5287 55.5569 21.5331C55.5613 21.5376 55.563 21.5417 55.5635 21.5431C55.5638 21.544 55.5629 21.5417 55.5629 21.5347H55.3629C55.3629 21.581 55.3748 21.6335 55.4149 21.674C55.4552 21.7146 55.5076 21.7267 55.5539 21.7267V21.5267ZM55.5629 21.5347V20.8797H55.3629V21.5347H55.5629ZM55.5629 20.8797C55.5629 20.8726 55.5638 20.8705 55.5634 20.8717C55.5629 20.8734 55.5609 20.8778 55.5563 20.8823C55.5517 20.8869 55.5474 20.8887 55.5459 20.8892C55.5448 20.8896 55.5469 20.8887 55.5539 20.8887V20.6887C55.5085 20.6887 55.456 20.7001 55.4155 20.7403C55.3748 20.7807 55.3629 20.8334 55.3629 20.8797H55.5629ZM55.5539 20.8887C55.8506 20.8887 56.1066 20.8164 56.3173 20.6686L56.2025 20.5048C56.0312 20.625 55.8172 20.6887 55.5539 20.6887V20.8887ZM56.3171 20.6687C56.5263 20.5227 56.702 20.303 56.8462 20.0167L56.6676 19.9267C56.5338 20.1924 56.3775 20.3827 56.2027 20.5047L56.3171 20.6687ZM56.8462 20.0166L57.0672 19.5766L56.8885 19.4868L56.6675 19.9268L56.8462 20.0166ZM57.0684 19.5741C57.3486 18.9761 57.6189 18.5662 57.8744 18.3325L57.7394 18.1849C57.4549 18.4452 57.1712 18.8833 56.8873 19.4893L57.0684 19.5741ZM57.8742 18.3326C58.1296 18.0998 58.4033 17.9877 58.6969 17.9877V17.7877C58.3464 17.7877 58.0261 17.9235 57.7395 18.1848L57.8742 18.3326ZM58.6969 17.9877C58.868 17.9877 59.0565 18.0918 59.2603 18.3427L59.4155 18.2166C59.1953 17.9456 58.9557 17.7877 58.6969 17.7877V17.9877ZM59.2603 18.3428C59.4636 18.5928 59.6304 18.9168 59.7586 19.32L59.9492 19.2594C59.8154 18.8386 59.6382 18.4906 59.4155 18.2166L59.2603 18.3428ZM59.7586 19.32C59.8868 19.7234 59.9499 20.1101 59.9499 20.4817H60.1499C60.1499 20.0872 60.0829 19.68 59.9492 19.2594L59.7586 19.32ZM59.9499 20.4817C59.9499 20.695 59.9103 20.886 59.8346 21.056L60.0172 21.1374C60.1055 20.9394 60.1499 20.7203 60.1499 20.4817H59.9499ZM59.8345 21.0562C59.7606 21.2227 59.6275 21.3869 59.4286 21.5492L59.5551 21.7042C59.7703 21.5285 59.9271 21.3407 60.0173 21.1372L59.8345 21.0562ZM59.4919 21.5267C59.0592 21.5267 58.6003 21.466 58.1106 21.3465L58.0632 21.5408C58.5655 21.6634 59.0406 21.7267 59.4919 21.7267V21.5267ZM58.1108 21.3466C57.621 21.2261 57.2156 21.0721 56.8932 20.8843L56.7925 21.0571C57.1361 21.2573 57.5607 21.4173 58.063 21.5408L58.1108 21.3466ZM56.7623 20.9115C56.5982 21.1351 56.4218 21.2908 56.2347 21.383L56.3231 21.5624C56.546 21.4526 56.7456 21.2723 56.9235 21.0299L56.7623 20.9115ZM56.2336 21.3835C56.0476 21.4779 55.8219 21.5267 55.5539 21.5267V21.7267C55.8459 21.7267 56.1041 21.6735 56.3241 21.5619L56.2336 21.3835ZM55.5539 21.7267H55.5539V21.5267H55.5539V21.7267ZM59.3498 20.7854C59.3345 20.3197 59.2464 19.8739 59.0854 19.4474L58.8983 19.518C59.0514 19.9235 59.1353 20.3477 59.1499 20.792L59.3498 20.7854ZM59.0854 19.4473C59.0056 19.2362 58.9231 19.0704 58.8369 18.9555C58.7529 18.8437 58.6494 18.7597 58.5249 18.7597V18.9597C58.5533 18.9597 58.6049 18.9797 58.6769 19.0756C58.7467 19.1685 58.8212 19.3142 58.8984 19.5181L59.0854 19.4473ZM58.5249 18.7597C58.3627 18.7597 58.2144 18.8074 58.0759 18.9008L58.1878 19.0666C58.2954 18.994 58.4051 18.9597 58.5249 18.9597V18.7597ZM58.0761 18.9007C57.9405 18.9918 57.8113 19.1292 57.6853 19.3068L57.8484 19.4225C57.9664 19.2562 58.0793 19.1396 58.1877 19.0667L58.0761 18.9007ZM57.6853 19.3068C57.5587 19.4853 57.3919 19.781 57.1838 20.1893L57.362 20.2801C57.5698 19.8724 57.731 19.5881 57.8484 19.4225L57.6853 19.3068ZM57.2248 20.3224C57.7558 20.6136 58.4286 20.8012 59.2392 20.8881L59.2605 20.6893C58.4672 20.6042 57.822 20.4218 57.321 20.147L57.2248 20.3224ZM59.2499 20.8887H59.2499V20.6887H59.2499V20.8887Z" fill="#414042"/>
<path fill-rule="evenodd" clip-rule="evenodd" d="M66.0597 21.1968C65.6598 21.1608 65.3838 21.1258 65.2337 21.0918C65.0837 21.0578 64.9257 21.0098 64.7627 20.9468C64.5997 20.8838 64.4327 20.8048 64.2607 20.7078C64.0887 20.6108 63.9597 20.5178 63.8717 20.4288C63.7837 20.3388 63.7397 20.2568 63.7397 20.1818C63.7397 20.0848 63.7897 19.9178 63.8877 19.6818C63.9867 19.4458 64.0677 19.2718 64.1317 19.1608C64.2438 18.9568 64.4857 18.7218 64.8597 18.4548C65.2337 18.1878 65.6307 17.9708 66.0497 17.8018L66.0117 17.5018C66.2657 17.2728 66.5327 17.0808 66.8117 16.9268L66.9147 20.4978C67.2477 20.6918 67.6287 20.7888 68.0577 20.7888C68.1197 20.7888 68.1497 20.8188 68.1497 20.8798V21.5348C68.1497 21.5958 68.1197 21.6268 68.0577 21.6268C67.6147 21.6268 67.2547 21.5428 66.9787 21.3768C66.7038 21.2098 66.5447 20.9748 66.5017 20.6698L66.4627 20.4398L66.0597 21.1968ZM64.2767 19.6708C64.5707 19.9218 64.8967 20.0878 65.2557 20.1708C65.6127 20.2528 66.0078 20.2978 66.4417 20.3048L66.1577 18.5328L66.1517 18.5108C65.2747 18.8118 64.6497 19.1988 64.2767 19.6708Z" fill="#414042"/>
<path d="M66.0597 21.1968L66.0508 21.2964L66.1168 21.3023L66.148 21.2438L66.0597 21.1968ZM65.2337 21.0918L65.2116 21.1893L65.2116 21.1893L65.2337 21.0918ZM63.8717 20.4288L63.8002 20.4987L63.8006 20.4991L63.8717 20.4288ZM63.8877 19.6818L63.7955 19.6431L63.7954 19.6434L63.8877 19.6818ZM64.1317 19.1608L64.2184 19.2107L64.2194 19.2089L64.1317 19.1608ZM66.0497 17.8018L66.0872 17.8945L66.1586 17.8657L66.149 17.7892L66.0497 17.8018ZM66.0117 17.5018L65.9448 17.4275L65.906 17.4625L65.9125 17.5143L66.0117 17.5018ZM66.8117 16.9268L66.9117 16.9239L66.907 16.76L66.7634 16.8392L66.8117 16.9268ZM66.9147 20.4978L66.8148 20.5006L66.8164 20.5562L66.8644 20.5842L66.9147 20.4978ZM66.9787 21.3768L66.9268 21.4622L66.9272 21.4625L66.9787 21.3768ZM66.5017 20.6698L66.6008 20.6558L66.6003 20.653L66.5017 20.6698ZM66.4627 20.4398L66.5613 20.423L66.5123 20.1339L66.3745 20.3928L66.4627 20.4398ZM64.2767 19.6708L64.1983 19.6088L64.1386 19.6843L64.2118 19.7468L64.2767 19.6708ZM65.2557 20.1708L65.2332 20.2682L65.2334 20.2682L65.2557 20.1708ZM66.4417 20.3048L66.4401 20.4047L66.5594 20.4067L66.5405 20.2889L66.4417 20.3048ZM66.1577 18.5328L66.2571 18.5168L66.2542 18.5064L66.1577 18.5328ZM66.1517 18.5108L66.2482 18.4844L66.2202 18.3816L66.1193 18.4162L66.1517 18.5108ZM66.0687 21.0972C65.6683 21.0611 65.3985 21.0266 65.2559 20.9942L65.2116 21.1893C65.369 21.225 65.6513 21.2604 66.0508 21.2964L66.0687 21.0972ZM65.2559 20.9942C65.1108 20.9614 64.9575 20.9148 64.7988 20.8535L64.7267 21.04C64.894 21.1047 65.0567 21.1542 65.2116 21.1893L65.2559 20.9942ZM64.7988 20.8535C64.6406 20.7923 64.478 20.7155 64.3099 20.6207L64.2116 20.7949C64.3875 20.8941 64.5589 20.9752 64.7267 21.04L64.7988 20.8535ZM64.3099 20.6207C64.1421 20.5261 64.0218 20.4383 63.9429 20.3584L63.8006 20.4991C63.8976 20.5972 64.0354 20.6955 64.2116 20.7949L64.3099 20.6207ZM63.9432 20.3588C63.8617 20.2755 63.8397 20.2176 63.8397 20.1818H63.6397C63.6397 20.2959 63.7058 20.4021 63.8002 20.4987L63.9432 20.3588ZM63.8397 20.1818C63.8397 20.1477 63.849 20.0927 63.8729 20.0123C63.8963 19.9335 63.9319 19.8363 63.9801 19.7201L63.7954 19.6434C63.7456 19.7632 63.7072 19.8675 63.6811 19.9554C63.6555 20.0418 63.6397 20.1188 63.6397 20.1818H63.8397ZM63.98 19.7204C64.0787 19.485 64.1577 19.3159 64.2184 19.2107L64.0451 19.1108C63.9778 19.2276 63.8948 19.4065 63.7955 19.6431L63.98 19.7204ZM64.2194 19.2089C64.3201 19.0255 64.5465 18.8013 64.9178 18.5361L64.8016 18.3734C64.425 18.6423 64.1674 18.888 64.0441 19.1126L64.2194 19.2089ZM64.9178 18.5361C65.2854 18.2738 65.6754 18.0606 66.0872 17.8945L66.0123 17.709C65.586 17.881 65.1821 18.1018 64.8016 18.3734L64.9178 18.5361ZM66.149 17.7892L66.111 17.4892L65.9125 17.5143L65.9505 17.8143L66.149 17.7892ZM66.0787 17.576C66.3275 17.3518 66.5883 17.1643 66.8601 17.0143L66.7634 16.8392C66.4772 16.9972 66.204 17.1938 65.9448 17.4275L66.0787 17.576ZM66.7118 16.9296L66.8148 20.5006L67.0147 20.4949L66.9117 16.9239L66.7118 16.9296ZM66.8644 20.5842C67.2144 20.788 67.6131 20.8888 68.0577 20.8888V20.6888C67.6444 20.6888 67.2811 20.5955 66.9651 20.4114L66.8644 20.5842ZM68.0577 20.8888C68.0655 20.8888 68.0681 20.8897 68.0672 20.8895C68.0659 20.889 68.0614 20.8871 68.0566 20.8824C68.0518 20.8776 68.0497 20.873 68.0492 20.8713C68.0488 20.8702 68.0497 20.8724 68.0497 20.8798H68.2497C68.2497 20.8343 68.2385 20.7812 68.1974 20.7404C68.1565 20.6998 68.1033 20.6888 68.0577 20.6888V20.8888ZM68.0497 20.8798V21.5348H68.2497V20.8798H68.0497ZM68.0497 21.5348C68.0497 21.5421 68.0488 21.5445 68.0491 21.5436C68.0496 21.5422 68.0514 21.5378 68.056 21.5332C68.0606 21.5286 68.065 21.5266 68.0665 21.5261C68.0676 21.5258 68.0652 21.5268 68.0577 21.5268V21.7268C68.1042 21.7268 68.1573 21.7151 68.198 21.6741C68.2385 21.6332 68.2497 21.5803 68.2497 21.5348H68.0497ZM68.0577 21.5268C67.6265 21.5268 67.2861 21.4449 67.0303 21.2911L66.9272 21.4625C67.2234 21.6406 67.6029 21.7268 68.0577 21.7268V21.5268ZM67.0307 21.2913C66.7799 21.139 66.6393 20.9295 66.6008 20.6558L66.4027 20.6837C66.4501 21.02 66.6277 21.2805 66.9268 21.4622L67.0307 21.2913ZM66.6003 20.653L66.5613 20.423L66.3642 20.4565L66.4032 20.6865L66.6003 20.653ZM66.3745 20.3928L65.9715 21.1498L66.148 21.2438L66.551 20.4868L66.3745 20.3928ZM64.2118 19.7468C64.5175 20.0078 64.8579 20.1814 65.2332 20.2682L65.2783 20.0733C64.9356 19.9941 64.624 19.8357 64.3417 19.5947L64.2118 19.7468ZM65.2334 20.2682C65.5982 20.352 66.0003 20.3977 66.4401 20.4047L66.4434 20.2048C66.0152 20.1979 65.6273 20.1535 65.2781 20.0733L65.2334 20.2682ZM66.5405 20.2889L66.2565 18.5169L66.059 18.5486L66.343 20.3206L66.5405 20.2889ZM66.2542 18.5064L66.2482 18.4844L66.0553 18.5371L66.0613 18.5591L66.2542 18.5064ZM66.1193 18.4162C65.2332 18.7203 64.588 19.1157 64.1983 19.6088L64.3552 19.7328C64.7115 19.2819 65.3163 18.9032 66.1842 18.6053L66.1193 18.4162Z" fill="#414042"/>
<path fill-rule="evenodd" clip-rule="evenodd" d="M71.05 19.123C71.151 19.123 71.241 19.152 71.32 19.209C71.187 19.528 71.071 19.795 70.97 20.01C70.87 20.225 70.809 20.345 70.788 20.37C71.035 20.527 71.265 20.636 71.478 20.697C71.691 20.758 71.922 20.789 72.173 20.789C72.234 20.789 72.265 20.819 72.265 20.88V21.535C72.265 21.596 72.234 21.627 72.173 21.627C71.497 21.627 70.917 21.414 70.433 20.987L70.256 21.224C70.181 21.306 69.915 21.394 69.459 21.487C69.002 21.58 68.553 21.627 68.113 21.627C68.052 21.627 68.021 21.596 68.021 21.535V20.88C68.021 20.819 68.052 20.789 68.113 20.789C68.568 20.789 68.954 20.769 69.27 20.73C69.588 20.69 69.811 20.624 69.942 20.531C70.073 20.438 70.265 20.146 70.519 19.655L70.713 19.301C70.777 19.183 70.89 19.123 71.05 19.123ZM70.068 23.018C69.935 23.229 69.718 23.48 69.418 23.77C69.088 23.504 68.845 23.281 68.687 23.098C68.881 22.919 69.117 22.672 69.396 22.357C69.461 22.425 69.685 22.645 70.068 23.018ZM71.728 22.862C71.595 23.069 71.375 23.318 71.067 23.608C70.749 23.354 70.506 23.13 70.342 22.937C70.506 22.787 70.743 22.54 71.05 22.196C71.115 22.268 71.341 22.489 71.728 22.862H71.728Z" fill="#414042"/>
<path d="M71.32 19.209L71.4123 19.2475L71.4428 19.1743L71.3785 19.1279L71.32 19.209ZM70.97 20.01L70.8795 19.9675L70.8793 19.9679L70.97 20.01ZM70.788 20.37L70.7114 20.3057L70.638 20.3932L70.7344 20.4544L70.788 20.37ZM71.478 20.697L71.4505 20.7932L71.4505 20.7932L71.478 20.697ZM70.433 20.987L70.4992 20.9121L70.4178 20.8403L70.3529 20.9272L70.433 20.987ZM70.256 21.224L70.3302 21.2919L70.3361 21.2839L70.256 21.224ZM69.459 21.487L69.4789 21.585L69.479 21.585L69.459 21.487ZM69.27 20.73L69.2822 20.8293L69.2825 20.8293L69.27 20.73ZM70.519 19.655L70.4313 19.607L70.4302 19.6091L70.519 19.655ZM70.713 19.301L70.8007 19.3491L70.8009 19.3487L70.713 19.301ZM70.068 23.018L70.1526 23.0714L70.1958 23.0029L70.1378 22.9464L70.068 23.018ZM69.418 23.77L69.3552 23.8479L69.424 23.9033L69.4875 23.8419L69.418 23.77ZM68.687 23.098L68.6192 23.0246L68.5481 23.0902L68.6113 23.1634L68.687 23.098ZM69.396 22.357L69.4683 22.2879L69.3932 22.2094L69.3211 22.2907L69.396 22.357ZM71.728 22.862L71.8121 22.9161L71.9111 22.762H71.728V22.862ZM71.067 23.608L71.0046 23.6862L71.0724 23.7403L71.1356 23.6809L71.067 23.608ZM70.342 22.937L70.2745 22.8633L70.2034 22.9283L70.2658 23.0018L70.342 22.937ZM71.05 22.196L71.1242 22.129L71.0496 22.0463L70.9754 22.1295L71.05 22.196ZM71.728 22.862L71.6586 22.934L71.6876 22.962H71.728V22.862ZM71.05 19.223C71.1305 19.223 71.1999 19.2457 71.2615 19.2901L71.3785 19.1279C71.2821 19.0584 71.1715 19.023 71.05 19.023V19.223ZM71.2277 19.1706C71.0949 19.489 70.9796 19.7545 70.8795 19.9675L71.0605 20.0526C71.1624 19.8356 71.2791 19.5671 71.4123 19.2475L71.2277 19.1706ZM70.8793 19.9679C70.8295 20.075 70.7898 20.1576 70.7602 20.2161C70.7453 20.2455 70.7334 20.268 70.7242 20.2843C70.7137 20.3028 70.71 20.3074 70.7114 20.3057L70.8646 20.4344C70.8765 20.4202 70.8883 20.4004 70.8983 20.3827C70.9096 20.3627 70.9231 20.3371 70.9386 20.3065C70.9697 20.245 71.0105 20.1601 71.0607 20.0522L70.8793 19.9679ZM70.7344 20.4544C70.987 20.615 71.2258 20.7289 71.4505 20.7932L71.5055 20.6009C71.3042 20.5432 71.083 20.4391 70.8416 20.2857L70.7344 20.4544ZM71.4505 20.7932C71.6734 20.857 71.9137 20.889 72.173 20.889V20.689C71.9303 20.689 71.7087 20.6591 71.5055 20.6009L71.4505 20.7932ZM72.173 20.889C72.1804 20.889 72.1828 20.89 72.1819 20.8897C72.1806 20.8893 72.1764 20.8875 72.1717 20.883C72.1671 20.8784 72.1651 20.8739 72.1645 20.8722C72.1641 20.8709 72.165 20.873 72.165 20.88H72.365C72.365 20.8337 72.3531 20.7808 72.312 20.7404C72.2712 20.7002 72.2185 20.689 72.173 20.689V20.889ZM72.165 20.88V21.535H72.365V20.88H72.165ZM72.165 21.535C72.165 21.5421 72.1641 21.5443 72.1644 21.5433C72.1649 21.5418 72.1667 21.5376 72.1712 21.5332C72.1756 21.5288 72.1798 21.527 72.1813 21.5265C72.1823 21.5261 72.1801 21.527 72.173 21.527V21.727C72.2193 21.727 72.272 21.7152 72.3126 21.6746C72.3531 21.6341 72.365 21.5814 72.365 21.535H72.165ZM72.173 21.527C71.5201 21.527 70.9639 21.3221 70.4992 20.9121L70.3668 21.062C70.8701 21.506 71.474 21.727 72.173 21.727V21.527ZM70.3529 20.9272L70.1759 21.1642L70.3361 21.2839L70.5131 21.0469L70.3529 20.9272ZM70.1822 21.1566C70.1756 21.1637 70.1577 21.1781 70.1193 21.1972C70.0825 21.2155 70.0328 21.2354 69.969 21.2565C69.8415 21.2986 69.6653 21.3429 69.439 21.3891L69.479 21.585C69.7087 21.5382 69.8935 21.492 70.0317 21.4464C70.1008 21.4236 70.1602 21.4003 70.2086 21.3762C70.2555 21.3528 70.2989 21.3253 70.3298 21.2915L70.1822 21.1566ZM69.4391 21.3891C68.9882 21.4808 68.5458 21.527 68.113 21.527V21.727C68.5601 21.727 69.0158 21.6793 69.4789 21.585L69.4391 21.3891ZM68.113 21.527C68.1059 21.527 68.1037 21.5261 68.1047 21.5265C68.1062 21.527 68.1104 21.5288 68.1148 21.5332C68.1192 21.5376 68.1211 21.5418 68.1216 21.5433C68.1219 21.5443 68.121 21.5421 68.121 21.535H67.921C67.921 21.5814 67.9329 21.6341 67.9734 21.6746C68.0139 21.7152 68.0667 21.727 68.113 21.727V21.527ZM68.121 21.535V20.88H67.921V21.535H68.121ZM68.121 20.88C68.121 20.873 68.1219 20.8709 68.1215 20.8722C68.1209 20.8739 68.1189 20.8784 68.1143 20.883C68.1096 20.8875 68.1054 20.8893 68.104 20.8897C68.1032 20.89 68.1056 20.889 68.113 20.889V20.689C68.0675 20.689 68.0148 20.7003 67.974 20.7404C67.9329 20.7808 67.921 20.8337 67.921 20.88H68.121ZM68.113 20.889C68.5706 20.889 68.9609 20.8689 69.2822 20.8293L69.2577 20.6308C68.9471 20.6691 68.5654 20.689 68.113 20.689V20.889ZM69.2825 20.8293C69.6036 20.7889 69.8477 20.7207 69.9999 20.6126L69.8841 20.4495C69.7743 20.5274 69.5724 20.5912 69.2575 20.6308L69.2825 20.8293ZM69.9999 20.6126C70.0818 20.5545 70.1711 20.4443 70.2679 20.2973C70.3667 20.1472 70.48 19.948 70.6078 19.701L70.4302 19.6091C70.304 19.8531 70.1943 20.0454 70.1008 20.1873C70.0054 20.3323 69.9332 20.4146 69.8841 20.4495L69.9999 20.6126ZM70.6067 19.7031L70.8007 19.3491L70.6253 19.253L70.4313 19.607L70.6067 19.7031ZM70.8009 19.3487C70.8438 19.2696 70.9185 19.223 71.05 19.223V19.023C70.8615 19.023 70.7102 19.0965 70.6251 19.2534L70.8009 19.3487ZM69.9834 22.9647C69.8566 23.1659 69.6461 23.4105 69.3485 23.6981L69.4875 23.8419C69.79 23.5496 70.0134 23.2922 70.1526 23.0714L69.9834 22.9647ZM69.4808 23.6922C69.1524 23.4275 68.9149 23.2089 68.7627 23.0327L68.6113 23.1634C68.7751 23.3532 69.0236 23.5806 69.3552 23.8479L69.4808 23.6922ZM68.7548 23.1715C68.9523 22.9893 69.1908 22.7395 69.4709 22.4234L69.3211 22.2907C69.0432 22.6046 68.8097 22.8488 68.6192 23.0246L68.7548 23.1715ZM69.3237 22.4261C69.3903 22.4958 69.6161 22.7175 69.9982 23.0897L70.1378 22.9464C69.7539 22.5726 69.5317 22.3543 69.4683 22.2879L69.3237 22.4261ZM71.6439 22.808C71.5173 23.005 71.304 23.2476 70.9985 23.5352L71.1356 23.6809C71.446 23.3885 71.6727 23.1331 71.8121 22.9161L71.6439 22.808ZM71.1294 23.5299C70.8136 23.2777 70.5762 23.0583 70.4182 22.8723L70.2658 23.0018C70.4358 23.2018 70.6844 23.4304 71.0046 23.6862L71.1294 23.5299ZM70.4095 23.0108C70.5773 22.8573 70.817 22.6073 71.1246 22.2626L70.9754 22.1295C70.669 22.4728 70.4347 22.7168 70.2745 22.8633L70.4095 23.0108ZM70.9758 22.2631C71.0438 22.3384 71.2733 22.5627 71.6586 22.934L71.7974 22.79C71.4087 22.4154 71.1862 22.1977 71.1242 22.129L70.9758 22.2631ZM71.728 22.962H71.728V22.762H71.728V22.962Z" fill="#414042"/>
<path d="M72.343 21.6271C72.2829 21.6271 72.252 21.5961 72.252 21.5351V20.8801C72.252 20.8191 72.283 20.7891 72.343 20.7891C72.758 20.7891 73.16 20.6941 73.5469 20.5041C73.4499 19.7301 73.3339 18.3371 73.1969 16.3251L73.0889 14.8591C73.3079 14.6331 73.5549 14.4291 73.8319 14.2471C73.8779 15.2531 73.9159 16.8331 73.9439 18.9891L73.9819 20.4981C74.3139 20.6921 74.6959 20.7891 75.1259 20.7891C75.1899 20.7891 75.2219 20.8191 75.2219 20.8801V21.5351C75.2219 21.5961 75.1899 21.6271 75.1259 21.6271C74.5879 21.6271 74.1679 21.4961 73.8629 21.2341C73.5949 21.3851 73.3529 21.4881 73.1379 21.5431C72.9229 21.5991 72.6589 21.6271 72.3429 21.6271H72.343Z" fill="#414042" stroke="#414042" stroke-width="0.2"/>
<path d="M75.1818 21.6267C75.1218 21.6267 75.0898 21.5957 75.0898 21.5347V20.8797C75.0898 20.8187 75.1219 20.7887 75.1818 20.7887C75.6548 20.7887 76.1118 20.7777 76.5508 20.7557C76.3768 20.6417 76.2228 20.4837 76.0918 20.2837C75.9618 20.0827 75.8968 19.8697 75.8968 19.6447C75.8968 19.3327 75.9818 19.0047 76.1518 18.6617C76.3218 18.3177 76.5418 18.0407 76.8088 17.8287C77.0788 17.6177 77.3588 17.5117 77.6528 17.5117C77.9068 17.5117 78.1508 17.5757 78.3828 17.7027C78.6158 17.8297 78.8858 18.0277 79.1938 18.2957L79.0008 18.6447C78.7118 18.5347 78.4998 18.4647 78.3678 18.4357C78.2348 18.4067 78.0888 18.3927 77.9318 18.3927C77.4808 18.3927 77.0098 18.5267 76.5198 18.7957C76.5198 19.1107 76.5948 19.3977 76.7478 19.6577C76.8998 19.9167 77.1218 20.1257 77.4108 20.2837C77.7018 20.4407 78.0438 20.5307 78.4368 20.5517C78.7158 20.4947 78.9828 20.4257 79.2368 20.3447C79.4918 20.2647 79.8478 20.1347 80.3058 19.9557C80.4068 20.0487 80.4568 20.1797 80.4568 20.3477L80.4458 20.4607C80.4028 20.7077 80.2508 20.8637 79.9888 20.9277C79.1158 21.1457 78.4548 21.2957 78.0068 21.3767C77.5598 21.4577 77.0998 21.5187 76.6298 21.5617C76.1588 21.6047 75.6758 21.6267 75.1818 21.6267H75.1818Z" fill="#414042" stroke="#414042" stroke-width="0.2"/>
<path d="M88.6151 22.2231L88.3361 20.4451C88.0251 18.5831 87.8201 17.2861 87.7211 16.5531C87.6231 15.8211 87.5741 15.3391 87.5741 15.1061C87.5741 14.8591 87.6301 14.6671 87.7461 14.5311C87.8601 14.3951 88.0431 14.3001 88.2931 14.2471C88.3041 14.2931 88.3141 14.3361 88.3261 14.3761C88.3361 14.4151 88.4561 14.8071 88.6851 15.5521L88.4271 15.7771L88.4491 15.9491L88.8081 19.2091C88.8731 19.6851 88.9221 20.1421 88.9541 20.5791L88.9591 20.6011C89.1951 20.7261 89.4641 20.7891 89.7651 20.7891C89.8261 20.7891 89.8561 20.8191 89.8561 20.8801V21.5351C89.8561 21.5961 89.8261 21.6271 89.7651 21.6271C89.5001 21.6271 89.2501 21.5671 89.0131 21.4491L89.0231 21.8091C89.0231 22.2641 88.8821 22.6971 88.5991 23.1091C88.3161 23.5201 87.9271 23.8561 87.4331 24.1161C86.9391 24.3761 86.4291 24.5051 85.9031 24.5051C85.2761 24.5051 84.7881 24.3261 84.4371 23.9651C84.0861 23.6061 83.9102 23.0961 83.9102 22.4381C83.9102 22.2261 83.9231 22.0271 83.9511 21.8381C83.9771 21.6511 84.0362 21.3761 84.1251 21.0141L84.5281 21.1111C84.4461 21.4331 84.4041 21.6941 84.4041 21.8951C84.4041 22.4321 84.5391 22.8501 84.8071 23.1491C85.0761 23.4481 85.4501 23.5981 85.9291 23.5981C86.2771 23.5981 86.6381 23.5371 87.0151 23.4151C87.3901 23.2931 87.7221 23.1271 88.0081 22.9161C88.2951 22.7041 88.4981 22.4731 88.6151 22.2231H88.6151Z" fill="#414042" stroke="#414042" stroke-width="0.2"/>
<path fill-rule="evenodd" clip-rule="evenodd" d="M98.4651 21.6272C98.1541 21.6272 97.8441 21.5642 97.5371 21.4392C97.2281 21.3132 96.9761 21.1482 96.7791 20.9442C96.4531 21.1562 96.0541 21.3222 95.5841 21.4442C95.1131 21.5652 94.6431 21.6272 94.1731 21.6272C93.6441 21.6272 93.0991 21.5692 92.5411 21.4552C91.9821 21.3402 91.5391 21.1912 91.2091 21.0092L91.0211 21.2242C90.7781 21.4922 90.3771 21.6272 89.8181 21.6272C89.7571 21.6272 89.7261 21.5962 89.7261 21.5352V20.8802C89.7261 20.8192 89.7571 20.7892 89.8181 20.7892C90.1471 20.7892 90.4091 20.7292 90.6021 20.6092C90.7961 20.4892 90.9911 20.2572 91.1871 19.9132L91.3591 19.6072C91.4351 19.4782 91.5511 19.4142 91.7091 19.4142C91.8121 19.4142 91.8981 19.4482 91.9661 19.5162C91.8121 19.8882 91.7031 20.1422 91.6381 20.2782C91.8181 20.3642 92.0011 20.4362 92.1871 20.4932C93.5901 18.6312 94.7871 17.7002 95.7751 17.7002C95.9821 17.7002 96.2381 17.7842 96.5431 17.9532C96.8471 18.1212 97.1191 18.3372 97.3591 18.6022C97.5991 18.8682 97.7181 19.1002 97.7181 19.3012C97.7181 19.7452 97.5781 20.1412 97.2951 20.4882C97.6281 20.6892 98.0181 20.7892 98.4651 20.7892C98.5301 20.7892 98.5621 20.8192 98.5621 20.8802V21.5352C98.5621 21.5962 98.5301 21.6272 98.4651 21.6272H98.4651ZM94.2871 20.7892C95.2431 20.7892 96.2221 20.4752 97.2241 19.8492C97.0031 19.4622 96.7361 19.1602 96.4241 18.9442C96.1131 18.7272 95.8051 18.6192 95.5011 18.6192C95.1531 18.6192 94.7401 18.7882 94.2591 19.1272C93.7801 19.4642 93.2591 19.9652 92.6971 20.6272C93.2701 20.7352 93.7991 20.7892 94.2871 20.7892Z" fill="#414042"/>
<path d="M97.5371 21.4392L97.4993 21.5318L97.4994 21.5318L97.5371 21.4392ZM96.7791 20.9442L96.851 20.8747L96.7937 20.8154L96.7246 20.8604L96.7791 20.9442ZM95.5841 21.4442L95.609 21.5411L95.6092 21.541L95.5841 21.4442ZM92.5411 21.4552L92.5209 21.5531L92.5211 21.5532L92.5411 21.4552ZM91.2091 21.0092L91.2574 20.9216L91.1868 20.8827L91.1338 20.9434L91.2091 21.0092ZM91.0211 21.2242L91.0952 21.2914L91.0964 21.29L91.0211 21.2242ZM90.6021 20.6092L90.5495 20.5241L90.5493 20.5243L90.6021 20.6092ZM91.1871 19.9132L91.274 19.9627L91.2742 19.9622L91.1871 19.9132ZM91.3591 19.6072L91.2729 19.5564L91.2719 19.5582L91.3591 19.6072ZM91.9661 19.5162L92.0585 19.5544L92.084 19.4927L92.0368 19.4455L91.9661 19.5162ZM91.6381 20.2782L91.5478 20.2351L91.5047 20.3253L91.595 20.3684L91.6381 20.2782ZM92.1871 20.4932L92.1578 20.5888L92.2248 20.6093L92.2669 20.5534L92.1871 20.4932ZM96.5431 17.9532L96.4946 18.0407L96.4947 18.0407L96.5431 17.9532ZM97.3591 18.6022L97.4333 18.5352L97.4332 18.5351L97.3591 18.6022ZM97.2951 20.4882L97.2176 20.425L97.1448 20.5143L97.2434 20.5738L97.2951 20.4882ZM97.2241 19.8492L97.277 19.934L97.3586 19.8831L97.3109 19.7996L97.2241 19.8492ZM96.4241 18.9442L96.3668 19.0262L96.3671 19.0264L96.4241 18.9442ZM94.2591 19.1272L94.3166 19.209L94.3167 19.2089L94.2591 19.1272ZM92.6971 20.6272L92.6208 20.5625L92.5095 20.6936L92.6785 20.7255L92.6971 20.6272ZM98.4651 21.5272C98.1679 21.5272 97.8707 21.4671 97.5748 21.3466L97.4994 21.5318C97.8175 21.6613 98.1402 21.7272 98.4651 21.7272V21.5272ZM97.5748 21.3466C97.2766 21.225 97.0369 21.0672 96.851 20.8747L96.7071 21.0137C96.9153 21.2292 97.1796 21.4014 97.4993 21.5318L97.5748 21.3466ZM96.7246 20.8604C96.4097 21.0651 96.0212 21.2274 95.5589 21.3474L95.6092 21.541C96.0869 21.417 96.4965 21.2473 96.8336 21.028L96.7246 20.8604ZM95.5592 21.3473C95.0958 21.4664 94.6342 21.5272 94.1731 21.5272V21.7272C94.652 21.7272 95.1303 21.664 95.609 21.5411L95.5592 21.3473ZM94.1731 21.5272C93.6514 21.5272 93.1131 21.47 92.5611 21.3572L92.5211 21.5532C93.085 21.6684 93.6368 21.7272 94.1731 21.7272V21.5272ZM92.5612 21.3572C92.0077 21.2434 91.5754 21.097 91.2574 20.9216L91.1608 21.0968C91.5028 21.2854 91.9564 21.437 92.5209 21.5531L92.5612 21.3572ZM91.1338 20.9434L90.9458 21.1584L91.0964 21.29L91.2844 21.075L91.1338 20.9434ZM90.947 21.157C90.7311 21.3951 90.3639 21.5272 89.8181 21.5272V21.7272C90.3902 21.7272 90.825 21.5893 91.0952 21.2914L90.947 21.157ZM89.8181 21.5272C89.811 21.5272 89.8088 21.5263 89.8098 21.5266C89.8113 21.5271 89.8155 21.5289 89.8199 21.5334C89.8243 21.5378 89.8262 21.542 89.8267 21.5434C89.827 21.5445 89.8261 21.5423 89.8261 21.5352H89.6261C89.6261 21.5815 89.638 21.6342 89.6785 21.6748C89.719 21.7153 89.7717 21.7272 89.8181 21.7272V21.5272ZM89.8261 21.5352V20.8802H89.6261V21.5352H89.8261ZM89.8261 20.8802C89.8261 20.8731 89.827 20.8711 89.8266 20.8723C89.826 20.8741 89.824 20.8785 89.8193 20.8831C89.8147 20.8876 89.8104 20.8894 89.8091 20.8899C89.8083 20.8901 89.8107 20.8892 89.8181 20.8892V20.6892C89.7726 20.6892 89.7199 20.7004 89.6791 20.7405C89.638 20.781 89.6261 20.8339 89.6261 20.8802H89.8261ZM89.8181 20.8892C90.1578 20.8892 90.4404 20.8275 90.6549 20.6941L90.5493 20.5243C90.3777 20.6309 90.1364 20.6892 89.8181 20.6892V20.8892ZM90.6547 20.6942C90.8698 20.5612 91.075 20.312 91.274 19.9627L91.1002 19.8637C90.9072 20.2024 90.7223 20.4172 90.5495 20.5242L90.6547 20.6942ZM91.2742 19.9622L91.4462 19.6562L91.2719 19.5582L91.0999 19.8642L91.2742 19.9622ZM91.4452 19.658C91.5021 19.5615 91.5841 19.5142 91.7091 19.5142V19.3142C91.518 19.3142 91.3681 19.3949 91.2729 19.5564L91.4452 19.658ZM91.7091 19.5142C91.7878 19.5142 91.8476 19.5392 91.8954 19.5869L92.0368 19.4455C91.9485 19.3572 91.8364 19.3142 91.7091 19.3142V19.5142ZM91.8737 19.4779C91.7195 19.8503 91.6115 20.1019 91.5478 20.2351L91.7283 20.3213C91.7946 20.1825 91.9046 19.9261 92.0585 19.5544L91.8737 19.4779ZM91.595 20.3684C91.7792 20.4564 91.9668 20.5303 92.1578 20.5888L92.2164 20.3976C92.0354 20.3421 91.857 20.272 91.6812 20.188L91.595 20.3684ZM92.2669 20.5534C92.9657 19.6261 93.6096 18.9354 94.1981 18.4774C94.7876 18.0186 95.3124 17.8002 95.7751 17.8002V17.6002C95.2497 17.6002 94.6821 17.8473 94.0753 18.3195C93.4676 18.7925 92.8115 19.4983 92.1072 20.433L92.2669 20.5534ZM95.7751 17.8002C95.9573 17.8002 96.1956 17.875 96.4946 18.0407L96.5916 17.8657C96.2805 17.6934 96.0069 17.6002 95.7751 17.6002V17.8002ZM96.4947 18.0407C96.7888 18.2033 97.0522 18.4123 97.285 18.6693L97.4332 18.5351C97.186 18.2621 96.9053 18.0391 96.5915 17.8657L96.4947 18.0407ZM97.2848 18.6692C97.5199 18.9298 97.6181 19.1381 97.6181 19.3012H97.8181C97.8181 19.0623 97.6782 18.8066 97.4333 18.5352L97.2848 18.6692ZM97.6181 19.3012C97.6181 19.7222 97.486 20.0959 97.2176 20.425L97.3726 20.5514C97.6702 20.1865 97.8181 19.7682 97.8181 19.3012H97.6181ZM97.2434 20.5738C97.5943 20.7856 98.0027 20.8892 98.4651 20.8892V20.6892C98.0334 20.6892 97.6619 20.5928 97.3468 20.4026L97.2434 20.5738ZM98.4651 20.8892C98.474 20.8892 98.4778 20.8903 98.478 20.8903C98.4781 20.8904 98.4771 20.8901 98.4754 20.8891C98.4738 20.8882 98.4717 20.8868 98.4695 20.8848C98.4649 20.8804 98.4626 20.8758 98.4618 20.8735C98.4612 20.8718 98.4621 20.8734 98.4621 20.8802H98.6621C98.6621 20.833 98.6494 20.7793 98.6064 20.7389C98.5645 20.6996 98.5111 20.6892 98.4651 20.6892V20.8892ZM98.4621 20.8802V21.5352H98.6621V20.8802H98.4621ZM98.4621 21.5352C98.4621 21.542 98.4612 21.5438 98.4617 21.5423C98.4624 21.5403 98.4645 21.536 98.469 21.5317C98.4733 21.5275 98.477 21.5262 98.4774 21.5261C98.4774 21.5261 98.4765 21.5264 98.4744 21.5267C98.4723 21.5269 98.4693 21.5272 98.4651 21.5272V21.7272C98.5118 21.7272 98.5654 21.7161 98.607 21.6764C98.6495 21.6359 98.6621 21.5824 98.6621 21.5352H98.4621ZM98.4651 21.5272H98.4651V21.7272H98.4651V21.5272ZM94.2871 20.8892C95.2658 20.8892 96.263 20.5676 97.277 19.934L97.1711 19.7644C96.1812 20.3828 95.2203 20.6892 94.2871 20.6892V20.8892ZM97.3109 19.7996C97.0838 19.4019 96.8072 19.0878 96.481 18.862L96.3671 19.0264C96.6649 19.2326 96.9224 19.5225 97.1372 19.8988L97.3109 19.7996ZM96.4813 18.8622C96.1576 18.6363 95.83 18.5192 95.5011 18.5192V18.7192C95.7802 18.7192 96.0686 18.8181 96.3668 19.0262L96.4813 18.8622ZM95.5011 18.5192C95.1225 18.5192 94.6888 18.702 94.2015 19.0455L94.3167 19.2089C94.7913 18.8744 95.1836 18.7192 95.5011 18.7192V18.5192ZM94.2015 19.0454C93.7131 19.389 93.1859 19.8969 92.6208 20.5625L92.7733 20.6919C93.3322 20.0335 93.847 19.5393 94.3166 19.209L94.2015 19.0454ZM92.6785 20.7255C93.2565 20.8344 93.7918 20.8892 94.2871 20.8892V20.6892C93.8064 20.6892 93.2836 20.636 92.7156 20.5289L92.6785 20.7255Z" fill="#414042"/>
<path d="M98.5207 21.6267C98.4607 21.6267 98.4287 21.5957 98.4287 21.5347V20.8797C98.4287 20.8187 98.4607 20.7887 98.5207 20.7887C99.5987 20.7887 100.446 20.6947 101.062 20.5087L101.673 20.2997C102.089 20.1417 102.459 20.0347 102.781 19.9767C102.494 19.8337 102.211 19.6517 101.931 19.4297C101.634 19.1967 101.394 19.0347 101.21 18.9437C101.025 18.8517 100.836 18.8067 100.642 18.8067C100.292 18.8067 99.9757 18.8957 99.6967 19.0747L99.4387 19.2357C99.3317 19.1287 99.2787 18.9857 99.2787 18.8067C99.2787 18.5307 99.3997 18.3087 99.6437 18.1407C99.8867 17.9717 100.208 17.8877 100.605 17.8877C100.838 17.8877 101.073 17.9387 101.311 18.0387C101.549 18.1387 101.826 18.3037 102.141 18.5327C102.524 18.8147 102.85 19.0277 103.119 19.1687C103.387 19.3097 103.66 19.4117 103.935 19.4727C104.211 19.5337 104.612 19.5637 105.138 19.5637L104.719 20.3747C104.49 20.3457 104.285 20.3267 104.101 20.3157L104.064 20.3097L103.838 20.3157C103.585 20.3157 103.341 20.3537 103.111 20.4287C102.88 20.5037 102.521 20.6667 102.034 20.9167C101.486 21.1997 100.991 21.3887 100.548 21.4837C100.106 21.5787 99.4297 21.6267 98.5207 21.6267H98.5207Z" fill="#414042" stroke="#414042" stroke-width="0.2"/>
<path d="M106.532 17.9631V18.6511C106.532 19.3601 106.506 20.3211 106.457 21.5351L105.952 21.6271C105.905 19.0561 105.805 16.9211 105.651 15.2241L105.646 15.0841C105.646 14.8521 105.704 14.6671 105.82 14.5291C105.936 14.3911 106.12 14.2971 106.371 14.2471C106.381 14.2931 106.392 14.3361 106.403 14.3761C106.414 14.4151 106.534 14.8071 106.763 15.5521L106.467 15.8041L106.472 15.8581C106.512 16.6451 106.532 17.3481 106.532 17.9631Z" fill="#414042" stroke="#414042" stroke-width="0.2"/>
</g>
</g>
<path fill-rule="evenodd" clip-rule="evenodd" d="M139.712 10.8C142.028 10.8 143.912 12.684 143.912 15V45C143.912 47.316 142.028 49.2 139.712 49.2H14.7119C12.3959 49.2 10.5119 47.316 10.5119 45V15C10.5119 12.684 12.3959 10.8 14.7119 10.8H139.712ZM139.712 10H14.7119C11.9619 10 9.71191 12.25 9.71191 15V45C9.71191 47.75 11.9619 50 14.7119 50H139.712C142.462 50 144.712 47.75 144.712 45V15C144.712 12.25 142.462 10 139.712 10Z" fill="#A6A6A6"/>
</g>
<defs>
<clipPath id="clip0_7563_38115">
<rect width="155" height="60" fill="white"/>
</clipPath>
<clipPath id="clip1_7563_38115">
<rect width="112.873" height="38.252" fill="white" transform="translate(31.7119 10.875)"/>
</clipPath>
<clipPath id="clip2_7563_38115">
<rect width="17.7166" height="21.7763" fill="white" transform="translate(117.66 18.7197)"/>
</clipPath>
<clipPath id="clip3_7563_38115">
<rect width="17.7166" height="21.7763" fill="white" transform="translate(117.66 18.7197)"/>
</clipPath>
<clipPath id="clip4_7563_38115">
<rect width="75.0605" height="15.6202" fill="white" transform="translate(31.7119 27.8711)"/>
</clipPath>
<clipPath id="clip5_7563_38115">
<rect width="57.051" height="10.258" fill="white" transform="translate(49.7119 14.2471)"/>
</clipPath>
</defs>
</svg>
