<svg width="48" height="48" viewBox="0 0 48 48" fill="none" xmlns="http://www.w3.org/2000/svg">
    <circle cx="24" cy="24" r="24" fill="#EBFBFB" fill-opacity="0.5"/>
    <path d="M27.3333 30.3335H20.6667C20.12 30.3335 19.6667 29.8802 19.6667 29.3335C19.6667 28.7868 20.12 28.3335 20.6667 28.3335H27.3333C27.88 28.3335 28.3333 28.7868 28.3333 29.3335C28.3333 29.8802 27.88 30.3335 27.3333 30.3335Z" fill="#1FB9B3"/>
    <path d="M14.9333 21.9468C14.68 21.9468 14.4267 21.8402 14.2267 21.6535C13.9467 21.3735 13.8533 20.9335 14.0133 20.5602L16.4933 14.6402C16.5467 14.5202 16.5733 14.4402 16.6133 14.3735C18.5867 9.82683 21.1067 8.72016 25.56 10.4268C25.8133 10.5202 26.0133 10.7202 26.12 10.9735C26.2267 11.2268 26.2267 11.5068 26.12 11.7602L22.2133 20.8268C22.0533 21.1868 21.6933 21.4268 21.2933 21.4268H17.4933C16.7333 21.4268 16.0133 21.5735 15.32 21.8668C15.2 21.9202 15.0667 21.9468 14.9333 21.9468ZM22.1467 11.6668C20.4933 11.6668 19.48 12.7468 18.4267 15.2002C18.4133 15.2402 18.3867 15.2802 18.3733 15.3202L16.6267 19.4668C16.92 19.4402 17.2 19.4268 17.4933 19.4268H20.6267L23.84 11.9602C23.2133 11.7602 22.6533 11.6668 22.1467 11.6668Z" fill="#1FB9B3"/>
    <path d="M32.3867 21.6932C32.2933 21.6932 32.1867 21.6799 32.0933 21.6532C31.6 21.5065 31.0533 21.4265 30.4933 21.4265H21.2933C20.96 21.4265 20.64 21.2532 20.4533 20.9732C20.28 20.6932 20.24 20.3332 20.3733 20.0265L24.24 11.0532C24.44 10.5732 25.0133 10.2532 25.52 10.4132C25.68 10.4665 25.8267 10.5332 25.9867 10.5999L29.1333 11.9199C30.9733 12.6799 32.2 13.4799 33 14.4399C33.16 14.6265 33.2933 14.8265 33.4133 15.0265C33.56 15.2532 33.6933 15.5332 33.7867 15.8132C33.8267 15.9065 33.8933 16.0799 33.9333 16.2665C34.3067 17.5199 34.12 19.0799 33.32 21.0799C33.16 21.4532 32.7867 21.6932 32.3867 21.6932ZM22.8133 19.4265H30.5067C30.9333 19.4265 31.3467 19.4665 31.76 19.5332C32.1333 18.3732 32.2133 17.4799 32 16.7599C31.9733 16.6399 31.9467 16.5865 31.9333 16.5332C31.8533 16.3199 31.8 16.1999 31.7333 16.0932C31.64 15.9465 31.5733 15.8265 31.4667 15.7065C30.8933 15.0132 29.88 14.3732 28.3733 13.7599L25.7333 12.6532L22.8133 19.4265Z" fill="#1FB9B3"/>
    <path d="M29.2 38.3334H18.8C18.4267 38.3334 18.08 38.3068 17.7333 38.2668C13.0533 37.9468 10.3867 35.2801 10.0667 30.5468C10.0267 30.2534 10 29.8934 10 29.5334V26.9334C10 23.9334 11.7867 21.2268 14.5467 20.0268C15.48 19.6268 16.48 19.4268 17.5067 19.4268H30.52C31.28 19.4268 32.0133 19.5334 32.6933 19.7468C35.8267 20.6934 38.0267 23.6534 38.0267 26.9334V29.5334C38.0267 29.8268 38.0133 30.1068 38 30.3734C37.7067 35.5868 34.6667 38.3334 29.2 38.3334ZM17.4933 21.4268C16.7333 21.4268 16.0133 21.5734 15.32 21.8668C13.2933 22.7468 11.9867 24.7334 11.9867 26.9334V29.5334C11.9867 29.8134 12.0133 30.0934 12.04 30.3601C12.2933 34.1601 14.16 36.0268 17.9067 36.2801C18.24 36.3201 18.5067 36.3468 18.7867 36.3468H29.1867C33.5867 36.3468 35.7467 34.4134 35.96 30.2801C35.9733 30.0401 35.9867 29.8001 35.9867 29.5334V26.9334C35.9867 24.5201 34.3733 22.3601 32.08 21.6534C31.5867 21.5068 31.04 21.4268 30.48 21.4268H17.4933Z" fill="#1FB9B3"/>
    <path d="M10.9867 27.9336C10.44 27.9336 9.98666 27.4802 9.98666 26.9336V23.0269C9.98666 18.8269 12.96 15.2002 17.0667 14.4002C17.4267 14.3336 17.8 14.4669 18.04 14.7469C18.2667 15.0269 18.3333 15.4269 18.1867 15.7602L15.8533 21.3336C15.7467 21.5736 15.56 21.7602 15.3333 21.8669C13.3067 22.7469 12 24.7336 12 26.9336C11.9867 27.4802 11.5467 27.9336 10.9867 27.9336ZM15.4667 17.0936C13.76 18.0536 12.52 19.7336 12.1333 21.6936C12.72 21.0936 13.4 20.5869 14.1733 20.2136L15.4667 17.0936Z" fill="#1FB9B3"/>
    <path d="M37.0133 27.9335C36.4667 27.9335 36.0133 27.4802 36.0133 26.9335C36.0133 24.5202 34.4 22.3602 32.1067 21.6535C31.84 21.5735 31.6133 21.3869 31.4933 21.1335C31.3733 20.8802 31.36 20.5869 31.4667 20.3335C32.0933 18.7735 32.2533 17.6402 32 16.7602C31.9733 16.6402 31.9467 16.5869 31.9333 16.5335C31.76 16.1469 31.8533 15.6935 32.16 15.4002C32.4667 15.1069 32.9333 15.0402 33.3067 15.2402C36.2133 16.7602 38.0133 19.7469 38.0133 23.0269V26.9335C38.0133 27.4802 37.56 27.9335 37.0133 27.9335ZM33.6667 20.1202C34.5067 20.5069 35.2533 21.0535 35.88 21.7069C35.6267 20.4002 35 19.2135 34.08 18.2802C34.0133 18.8402 33.88 19.4535 33.6667 20.1202Z" fill="#1FB9B3"/>
</svg>