<svg width="48" height="48" viewBox="0 0 48 48" fill="none" xmlns="http://www.w3.org/2000/svg">
    <circle cx="24" cy="24" r="24" fill="#EBFBFB" fill-opacity="0.5"/>
    <path d="M28.32 20.3335H10.6667C10.12 20.3335 9.66669 19.8802 9.66669 19.3335C9.66669 18.7868 10.12 18.3335 10.6667 18.3335H28.32C28.8667 18.3335 29.32 18.7868 29.32 19.3335C29.32 19.8802 28.8667 20.3335 28.32 20.3335Z" fill="#1FB9B3"/>
    <path d="M17.72 31H16C15.4533 31 15 30.5467 15 30C15 29.4533 15.4533 29 16 29H17.72C18.2667 29 18.72 29.4533 18.72 30C18.72 30.5467 18.28 31 17.72 31Z" fill="#1FB9B3"/>
    <path d="M27.3334 31H22.6667C22.12 31 21.6667 30.5467 21.6667 30C21.6667 29.4533 22.12 29 22.6667 29H27.3334C27.88 29 28.3334 29.4533 28.3334 30C28.3334 30.5467 27.88 31 27.3334 31Z" fill="#1FB9B3"/>
    <path d="M31.4133 36.3332H18.64C18.0933 36.3332 17.64 35.8799 17.64 35.3332C17.64 34.7865 18.0933 34.3332 18.64 34.3332H31.4133C35.6 34.3332 36.3333 33.6132 36.3333 29.4799V17.1865C36.3333 16.6399 36.7867 16.1865 37.3333 16.1865C37.88 16.1865 38.3333 16.6399 38.3333 17.1865V29.4665C38.3333 34.7332 36.72 36.3332 31.4133 36.3332Z" fill="#1FB9B3"/>
    <path d="M12.9467 35.8532C12.8267 35.8532 12.6934 35.8265 12.5734 35.7865C10.16 34.8265 9.66669 32.5732 9.66669 29.4798V18.5198C9.66669 13.2665 11.28 11.6665 16.5867 11.6665H31.4C32.92 11.6665 34.04 11.7865 34.92 12.0532C35.4534 12.2132 35.7467 12.7598 35.6 13.2932C35.44 13.8265 34.88 14.1198 34.36 13.9732C33.6667 13.7732 32.7334 13.6798 31.4 13.6798H16.5867C12.4 13.6798 11.6667 14.3998 11.6667 18.5332V29.4798C11.6667 32.6665 12.24 33.5065 13.32 33.9332C13.84 34.1332 14.08 34.7198 13.88 35.2265C13.72 35.6132 13.3467 35.8532 12.9467 35.8532Z" fill="#1FB9B3"/>
    <path d="M10.6666 38.3333C10.4133 38.3333 10.16 38.2399 9.95998 38.0399C9.57332 37.6533 9.57332 37.0133 9.95998 36.6266L36.6266 9.95992C37.0133 9.57326 37.6533 9.57326 38.04 9.95992C38.4267 10.3466 38.4267 10.9866 38.04 11.3733L11.3733 38.0399C11.1733 38.2399 10.92 38.3333 10.6666 38.3333Z" fill="#1FB9B3"/>
</svg>