<svg width="32" height="32" viewBox="0 0 32 32" fill="none" xmlns="http://www.w3.org/2000/svg">
    <path d="M17.3334 15.8667H9.33337C8.78671 15.8667 8.33337 15.4134 8.33337 14.8667C8.33337 14.32 8.78671 13.8667 9.33337 13.8667H17.3334C17.88 13.8667 18.3334 14.32 18.3334 14.8667C18.3334 15.4134 17.88 15.8667 17.3334 15.8667Z" fill="#1FB9B3"/>
    <path d="M2.66663 15.8666C2.11996 15.8666 1.66663 15.4133 1.66663 14.8666V8.70662C1.66663 5.43996 4.31996 2.78662 7.58663 2.78662H15.08C18.5066 2.78662 21 5.06662 21 8.19995C21 8.74662 20.5466 9.19995 20 9.19995C19.4533 9.19995 19 8.74662 19 8.19995C19 5.85328 16.96 4.78662 15.08 4.78662H7.58663C5.42663 4.78662 3.66663 6.54662 3.66663 8.70662V14.8666C3.66663 15.4266 3.21329 15.8666 2.66663 15.8666Z" fill="#1FB9B3"/>
    <path d="M21.3333 29.2002H7.99996C4.50663 29.2002 1.66663 26.3602 1.66663 22.8669V13.5335C1.66663 10.0402 4.50663 7.2002 7.99996 7.2002H21.3333C24.8266 7.2002 27.6666 10.0402 27.6666 13.5335V15.4668C27.6666 16.0135 27.2133 16.4668 26.6666 16.4668H25.2266C24.7599 16.4668 24.3333 16.6401 24.0267 16.9601L24.0133 16.9735C23.5733 17.4135 23.3999 18.0268 23.5599 18.6268C23.7599 19.3735 24.5466 19.9202 25.4266 19.9202H26.6666C27.2133 19.9202 27.6666 20.3735 27.6666 20.9202V22.8535C27.6666 26.3602 24.8266 29.2002 21.3333 29.2002ZM7.99996 9.2002C5.61329 9.2002 3.66663 11.1469 3.66663 13.5335V22.8669C3.66663 25.2535 5.61329 27.2002 7.99996 27.2002H21.3333C23.72 27.2002 25.6666 25.2535 25.6666 22.8669V21.9335H25.4266C23.6266 21.9335 22.0666 20.8002 21.6266 19.1602C21.2799 17.8668 21.6533 16.4935 22.6 15.5601C23.2933 14.8535 24.2266 14.4668 25.2266 14.4668H25.6666V13.5335C25.6666 11.1469 23.72 9.2002 21.3333 9.2002H7.99996Z" fill="#1FB9B3"/>
    <path d="M27.9599 21.9335H25.3866C23.3732 21.9335 21.6666 20.4402 21.5066 18.5202C21.3999 17.4135 21.7999 16.3335 22.5999 15.5468C23.2666 14.8535 24.2132 14.4668 25.2132 14.4668H27.9466C29.2533 14.4668 30.3199 15.5202 30.3199 16.8268V19.5735C30.3332 20.8802 29.2665 21.9335 27.9599 21.9335ZM25.2266 16.4668C24.7599 16.4668 24.3333 16.6401 24.0266 16.9601C23.6399 17.3335 23.4533 17.8402 23.5066 18.3468C23.5733 19.2268 24.4266 19.9335 25.3866 19.9335H27.9599C28.1599 19.9335 28.3333 19.7735 28.3333 19.5735V16.8268C28.3333 16.6268 28.1599 16.4668 27.9599 16.4668H25.2266Z" fill="#1FB9B3"/>
    </svg>