<svg width="90" height="90" viewBox="0 0 90 90" fill="none" xmlns="http://www.w3.org/2000/svg">
    <path d="M66.553 0C67.7144 0.506338 68.9884 0.858675 70.0178 1.55168C72.3908 3.1547 73.4297 5.42505 73.1442 8.27641C72.8683 11.0321 72.7051 13.7995 72.4892 16.5598C72.4652 16.8795 72.4604 17.2062 72.3836 17.5118C72.2012 18.2328 71.6997 18.6202 70.9367 18.5338C70.1809 18.4475 69.7346 17.9785 69.7706 17.2272C69.8378 15.8015 69.9554 14.3758 70.061 12.9525C70.1569 11.6178 70.2625 10.2854 70.3705 8.87608C58.1696 8.87608 46.043 8.87608 33.7869 8.87608C35.3705 29.4563 36.9541 50.0178 38.5449 70.6493C47.5594 70.6493 56.5356 70.6493 65.6029 70.6493C65.7229 69.2213 65.8548 67.7793 65.9652 66.335C66.4715 59.7059 66.9657 53.0768 67.4768 46.4501C68.0623 38.834 68.6597 31.218 69.2548 23.6019C69.3268 22.6732 69.9122 22.1412 70.74 22.2159C71.5438 22.2882 72.0093 22.8879 71.9373 23.8632C71.6302 27.9909 71.3063 32.1186 70.9847 36.2463C70.5912 41.3331 70.1929 46.4198 69.7994 51.5065C69.2812 58.1915 68.7029 64.8743 68.2782 71.5663C68.0911 74.5297 68.2158 77.5117 68.2014 80.4868C68.1966 81.6231 68.2062 82.7618 68.199 83.8981C68.1774 86.7448 66.637 88.6955 63.8225 89.4538C63.7098 89.4842 63.6066 89.5472 63.4986 89.5962C48.2625 89.5962 33.0263 89.5962 17.7901 89.5962C17.7805 89.5682 17.7829 89.5262 17.7637 89.5145C17.1351 89.0875 16.8088 88.5275 17.1039 87.7925C17.4038 87.0412 18.0829 86.9641 18.8171 86.9641C24.4245 86.9758 30.0343 86.9712 35.6416 86.9712C35.9656 86.9712 36.2871 86.9712 36.4022 86.9712C36.1935 85.1675 35.9896 83.4058 35.7832 81.6184C24.8588 81.6184 13.8959 81.6184 2.92828 81.6184C3.23061 84.0241 5.42605 86.3015 8.05099 86.7681C9.24589 86.9805 10.496 86.9361 11.7197 86.9595C12.4755 86.9735 13.1737 87.0178 13.5 87.8252C13.8335 88.6488 13.3057 89.1272 12.7514 89.5938C11.2518 89.5938 9.75216 89.5938 8.25254 89.5938C8.15177 89.5425 8.05579 89.4655 7.94782 89.4445C3.52093 88.5555 0.581673 85.4755 0.0442089 81.1564C-0.162139 79.4997 0.329737 78.9537 2.03091 78.9537C5.68999 78.9514 9.34667 78.9537 13.0057 78.9514C13.3201 78.9514 13.6368 78.9234 14.0015 78.9071C14.0015 76.9191 14.0255 75.0267 13.9751 73.1367C13.9679 72.8754 13.6536 72.5463 13.392 72.3807C3.31698 65.9966 -1.55619 55.1815 0.495295 43.7201C2.88749 30.364 15.5683 20.4075 29.5088 20.9349C30.3318 20.9652 31.1548 20.9395 32.0114 20.9395C31.6826 16.6578 31.3923 12.3831 31.0156 8.11541C30.7805 5.46938 31.7066 3.31336 33.8517 1.77568C34.941 0.991676 36.3255 0.581005 37.5804 0C47.2379 0 56.8955 0 66.553 0ZM32.7192 30.2449C30.6557 30.2076 28.6378 29.9626 26.6703 30.1679C15.086 31.3813 7.35757 41.9467 9.88173 52.9928C12.3171 63.6516 24.1653 70.1337 34.7395 66.6033C35.2745 66.4236 35.5145 66.2066 35.4497 65.6186C35.3153 64.4029 35.2649 63.1756 35.1714 61.9552C34.6579 55.2982 34.1396 48.6411 33.6237 41.9841C33.3286 38.1807 33.0359 34.3727 32.7192 30.2449ZM32.5128 27.6829C32.4384 26.6213 32.3281 25.6926 32.3257 24.7639C32.3233 23.9566 31.9946 23.5996 31.1644 23.6392C28.777 23.7536 26.3488 23.6206 24.007 23.9962C10.5991 26.1522 1.02316 38.9134 2.89469 51.9732C4.42551 62.6529 12.1756 70.9713 22.932 73.419C27.0326 74.3524 31.1404 74.2637 35.2145 73.2254C35.4833 73.1577 35.9128 72.9034 35.9104 72.74C35.8984 71.5383 35.7952 70.3367 35.7184 69.1047C22.0803 73.3747 8.49728 64.4799 6.86329 51.4061C6.10988 45.3838 7.69348 39.912 11.7077 35.2547C17.1159 28.9826 24.1461 26.6469 32.5128 27.6829ZM43.0846 86.9688C43.0846 85.0251 43.0726 83.1935 43.0894 81.3618C43.099 80.2861 43.55 79.7984 44.565 79.7937C49.5701 79.7821 54.5777 79.7821 59.5828 79.7937C60.569 79.7961 61.0536 80.2721 61.0776 81.2661C61.1088 82.6054 61.0872 83.9471 61.0872 85.2888C61.0872 85.8301 61.0872 86.3738 61.0872 86.8871C63.9257 87.3632 65.6629 86.0541 65.5285 83.2938C65.3893 80.4424 65.4973 77.5817 65.4973 74.7257C65.4973 74.2964 65.4973 73.8694 65.4973 73.398C56.5092 73.398 47.6242 73.398 38.7609 73.398C38.7153 73.4984 38.6745 73.5497 38.6745 73.601C38.6673 77.1851 38.6337 80.7714 38.6745 84.3555C38.6889 85.7415 39.903 86.8615 41.3426 86.9618C41.8777 86.9992 42.4175 86.9688 43.0846 86.9688ZM34.0125 6.10639C46.067 6.10639 58.1192 6.10639 70.1881 6.10639C69.6531 4.01337 67.7024 2.63202 65.3174 2.62969C58.2104 2.62269 51.1033 2.62736 43.9987 2.62736C42.1704 2.62736 40.3397 2.59936 38.5113 2.63902C36.3279 2.68103 34.2812 4.27937 34.0125 6.10639ZM58.3303 86.9268C58.3303 85.4148 58.3303 83.9471 58.3303 82.4771C54.1266 82.4771 49.9852 82.4771 45.8271 82.4771C45.8271 83.9868 45.8271 85.4335 45.8271 86.9268C49.9876 86.9268 54.1074 86.9268 58.3303 86.9268ZM16.7248 78.8814C23.1792 78.8814 29.5424 78.8814 35.9152 78.8814C35.9152 77.8221 35.9152 76.8397 35.9152 75.7967C29.324 77.3694 22.9464 76.8234 16.7248 74.1564C16.7248 75.8084 16.7248 77.3181 16.7248 78.8814Z" fill="#F2631C"/>
    <path d="M74.4708 89.5999C72.3378 88.7855 71.6299 87.2455 71.6611 85.0638C71.7499 78.8828 71.6899 72.6994 71.6923 66.5183C71.6923 64.899 72.0378 64.563 73.6814 64.5606C77.1893 64.5606 80.6973 64.5606 84.2076 64.5606C84.5291 64.5606 84.8506 64.5606 85.2177 64.5606C85.2177 59.7609 85.2177 55.0499 85.2177 50.2782C82.1705 50.2782 79.1305 50.2782 75.9704 50.2782C75.9704 50.5955 75.9704 50.9058 75.9704 51.2185C75.9704 53.9299 75.9752 56.6435 75.968 59.3549C75.9656 60.4376 75.445 61.0653 74.6028 61.0443C73.7894 61.0256 73.2783 60.4143 73.2759 59.3876C73.2663 56.0042 73.2783 52.6232 73.2687 49.2398C73.2663 48.4908 73.5423 47.9775 74.2765 47.6485C74.4996 47.5481 74.6868 47.1351 74.694 46.8598C74.7324 45.1401 74.7252 43.4181 74.7108 41.6984C74.6916 39.1037 75.6945 37.006 77.83 35.4217C78.9025 34.626 79.9438 33.7907 80.9852 32.9577C82.1201 32.05 83.3606 31.8657 84.6731 32.484C85.9543 33.0907 86.535 34.143 86.5302 35.5314C86.5182 39.2064 86.5278 42.8791 86.5278 46.5541C86.5278 46.8738 86.5278 47.1935 86.5278 47.5575C87.7491 47.7605 87.9938 48.5351 87.9842 49.6015C87.9458 54.2379 87.9674 58.8742 87.9674 63.5106C87.9674 63.8279 87.9674 64.1476 87.9674 64.4486C89.3375 64.801 89.5702 65.102 89.5726 66.4833C89.5726 72.6947 89.5246 78.9061 89.599 85.1175C89.6254 87.3038 88.8768 88.8392 86.7101 89.5999C82.6288 89.5999 78.5498 89.5999 74.4708 89.5999ZM86.8709 74.0667C86.4918 74.0504 86.1991 74.027 85.9063 74.027C84.4691 74.0224 83.0295 74.0364 81.5922 74.02C80.6181 74.0107 80.0326 73.4927 80.0422 72.697C80.0494 71.906 80.6373 71.423 81.6234 71.402C81.9521 71.395 82.2833 71.3997 82.612 71.3997C84.0084 71.3997 85.4049 71.3997 86.8037 71.3997C86.8037 69.9343 86.8037 68.5857 86.8037 67.244C82.6456 67.244 78.5546 67.244 74.4684 67.244C74.4396 67.384 74.406 67.468 74.406 67.552C74.4012 73.6397 74.394 79.7298 74.4012 85.8175C74.4036 86.7205 74.7036 86.9678 75.6921 86.9702C78.9265 86.9772 82.1633 86.9748 85.3977 86.9725C86.6118 86.9725 86.8685 86.7228 86.8709 85.5398C86.8733 82.6558 86.8709 79.7718 86.8709 76.8877C86.8709 75.9637 86.8709 75.0397 86.8709 74.0667ZM83.8261 47.5575C83.8261 43.7098 83.8261 39.9507 83.8261 36.194C83.8261 35.9607 83.8669 35.718 83.8117 35.4964C83.7541 35.2584 83.6293 34.871 83.4926 34.8523C83.2094 34.815 82.8399 34.9037 82.6096 35.074C81.4219 35.9607 80.2558 36.8777 79.1017 37.8087C78.1347 38.5857 77.5541 39.5961 77.4725 40.8187C77.4029 41.8641 77.4221 42.9164 77.4125 43.9664C77.4053 45.1541 77.4101 46.3418 77.4101 47.5598C79.5911 47.5575 81.6498 47.5575 83.8261 47.5575Z" fill="#F2631C"/>
    <path d="M52.0735 29.8506C53.3236 28.2405 54.8448 27.0109 56.8459 26.7145C58.5807 26.4602 60.3659 26.5022 62.1294 26.4905C62.7772 26.4859 63.3195 26.9105 63.3195 27.5849C63.3195 29.1832 63.4299 30.8189 63.13 32.3729C62.4845 35.7236 59.5837 38.169 56.0829 38.3463C53.3932 38.484 50.6819 38.4933 47.9946 38.337C43.9972 38.106 40.9116 34.8253 40.806 30.9146C40.7796 29.9229 40.782 28.9312 40.7988 27.9395C40.8156 26.9945 41.2643 26.4929 42.1976 26.4672C43.4861 26.4345 44.7794 26.4042 46.0631 26.4952C48.568 26.6772 50.5427 27.8462 52.0735 29.8506ZM43.5677 29.1599C42.8383 33.9783 46.5093 36.5263 50.6771 35.6443C51.2577 31.3112 48.3305 28.4972 43.5677 29.1599ZM53.482 35.7143C59.1973 36.5263 61.3544 32.4312 60.4954 29.1389C55.6294 28.6792 53.0141 31.1152 53.482 35.7143Z" fill="#F2631C"/>
    <path d="M51.9777 44.7799C50.2405 44.7799 48.5034 44.7869 46.7662 44.7776C45.7105 44.7706 45.1202 44.2829 45.125 43.4522C45.1298 42.6239 45.7057 42.1596 46.7854 42.1572C50.3197 42.1502 53.854 42.1502 57.3883 42.1572C58.4609 42.1596 59.0343 42.6332 59.0295 43.4686C59.0247 44.2946 58.4345 44.7706 57.3715 44.7753C55.572 44.7846 53.7748 44.7799 51.9777 44.7799Z" fill="#F2631C"/>
    </svg>