<svg width="234" height="204" viewBox="0 0 234 204" fill="none" xmlns="http://www.w3.org/2000/svg">
<path d="M5.75488 162.277H217.744" stroke="#263238" stroke-miterlimit="10"/>
<path d="M5.75488 122.143H217.744" stroke="#263238" stroke-miterlimit="10"/>
<path d="M5.75488 82.0059H217.744" stroke="#263238" stroke-miterlimit="10"/>
<path d="M5.75488 41.8691H217.744" stroke="#263238" stroke-miterlimit="10"/>
<path d="M53.9541 19.0801V162.373" stroke="#263238" stroke-miterlimit="10"/>
<path d="M181.374 19.0801V162.373" stroke="#263238" stroke-miterlimit="10"/>
<path d="M58.6873 72.1953L57.1094 73.8573" stroke="#263238" stroke-miterlimit="10"/>
<path d="M85.5587 43.8574L60.5859 70.1924" stroke="#263238" stroke-miterlimit="10"/>
<path d="M87.1163 48.1445L73.0889 62.5612" stroke="#263238" stroke-miterlimit="10"/>
<path d="M186.828 72.1953L185.25 73.8573" stroke="#263238" stroke-miterlimit="10"/>
<path d="M213.694 43.8574L188.727 70.1924" stroke="#263238" stroke-miterlimit="10"/>
<path d="M215.256 48.1445L201.229 62.5612" stroke="#263238" stroke-miterlimit="10"/>
<path d="M2.57789 153.246L1 154.908" stroke="#263238" stroke-miterlimit="10"/>
<path d="M29.444 124.902L4.47656 151.243" stroke="#263238" stroke-miterlimit="10"/>
<path d="M31.0063 129.189L16.9736 143.611" stroke="#263238" stroke-miterlimit="10"/>
<path d="M23.2269 37.9082L21.6543 39.5702" stroke="#263238" stroke-miterlimit="10"/>
<path d="M50.0983 9.56445L25.1309 35.8994" stroke="#263238" stroke-miterlimit="10"/>
<path d="M51.6554 13.8516L37.6279 28.2682" stroke="#263238" stroke-miterlimit="10"/>
<path d="M139.991 37.9082L138.418 39.5702" stroke="#263238" stroke-miterlimit="10"/>
<path d="M166.863 9.56445L141.896 35.8994" stroke="#263238" stroke-miterlimit="10"/>
<path d="M168.419 13.8516L154.392 28.2682" stroke="#263238" stroke-miterlimit="10"/>
<path d="M103.888 113.889L102.311 115.551" stroke="#263238" stroke-miterlimit="10"/>
<path d="M130.755 85.5508L105.787 111.886" stroke="#263238" stroke-miterlimit="10"/>
<path d="M132.317 89.8359L118.29 104.253" stroke="#263238" stroke-miterlimit="10"/>
<path d="M211.543 191.938C211.543 191.938 198.52 164.189 201.35 163.389C204.179 162.59 210.112 167.008 210.112 167.008C210.112 167.008 192.703 120.355 197.21 116.736C201.718 113.118 210.133 131.637 210.133 131.637C210.133 131.637 201.144 103.061 202.202 92.1894C203.259 81.3178 214.677 91.7897 214.677 91.7897C214.677 91.7897 205.531 52.779 214.025 50.7646C222.52 48.7501 222.236 95.4031 222.236 95.4031C222.236 95.4031 225.023 62.0202 228.426 71.2719C231.829 80.5236 224.676 111.487 224.676 111.487C224.676 111.487 229.341 101.031 231.934 110.682C234.527 120.334 226.78 159.344 226.78 159.344C226.78 159.344 233.365 152.912 233.98 160.954C234.596 168.996 220.347 193.932 220.347 193.932L212.284 194.752L211.543 191.938Z" fill="#1FB9B3"/>
<path opacity="0.6" d="M211.543 191.938C211.543 191.938 198.52 164.189 201.35 163.389C204.179 162.59 210.112 167.008 210.112 167.008C210.112 167.008 192.703 120.355 197.21 116.736C201.718 113.118 210.133 131.637 210.133 131.637C210.133 131.637 201.144 103.061 202.202 92.1894C203.259 81.3178 214.677 91.7897 214.677 91.7897C214.677 91.7897 205.531 52.779 214.025 50.7646C222.52 48.7501 222.236 95.4031 222.236 95.4031C222.236 95.4031 225.023 62.0202 228.426 71.2719C231.829 80.5236 224.676 111.487 224.676 111.487C224.676 111.487 229.341 101.031 231.934 110.682C234.527 120.334 226.78 159.344 226.78 159.344C226.78 159.344 233.365 152.912 233.98 160.954C234.596 168.996 220.347 193.932 220.347 193.932L212.284 194.752L211.543 191.938Z" fill="white"/>
<path d="M214.325 193.175C214.325 193.175 203.469 173.872 205.478 170.248C207.488 166.624 213.52 175.076 213.52 175.076C213.52 175.076 199.845 140.889 201.86 137.675C203.874 134.461 210.307 148.536 210.307 148.536C210.307 148.536 207.893 101.484 211.911 103.088C215.929 104.692 216.318 127.193 216.318 127.193C216.318 127.193 213.91 73.7074 217.528 75.3169C221.147 76.9263 220.747 136.444 220.747 136.444C220.747 136.444 227.984 113.518 229.189 123.974C230.393 134.43 219.942 162.585 219.942 162.585C219.942 162.585 229.994 140.463 231.219 152.15C232.445 163.836 223.156 185.506 223.156 185.506C223.156 185.506 226.775 176.659 226.775 181.482C226.775 186.306 223.961 192.344 223.961 192.344" stroke="#263238" stroke-linecap="round" stroke-linejoin="round"/>
<path d="M184.456 133.342L199.104 165.31L189.889 167.908L179.022 154.38L184.456 133.342Z" fill="#1FB9B3"/>
<mask id="mask0_2301_50781" style="mask-type:luminance" maskUnits="userSpaceOnUse" x="179" y="133" width="21" height="35">
<path d="M184.456 133.342L199.104 165.31L189.889 167.908L179.022 154.38L184.456 133.342Z" fill="white"/>
</mask>
<g mask="url(#mask0_2301_50781)">
<g opacity="0.1">
<path d="M181.81 143.576L181.189 145.99L193.355 166.929L195.101 166.44L181.81 143.576Z" fill="black"/>
<path d="M189.957 167.891L191.714 167.397L180.395 149.057L179.79 151.408L189.957 167.891Z" fill="black"/>
<path d="M183.314 137.754L182.672 140.247L196.641 166.003L198.367 165.514L183.314 137.754Z" fill="black"/>
</g>
</g>
<path d="M184.456 133.342L199.104 165.31L189.889 167.908L179.022 154.38L184.456 133.342Z" stroke="#1FB9B3" stroke-linecap="round" stroke-linejoin="round"/>
<path d="M155.323 124.436L136.246 133.224L146.418 174.497L143.178 191.859H179.37L175.788 172.992L184.572 133.34L164.569 125.13L155.323 124.436Z" fill="#1FB9B3"/>
<mask id="mask1_2301_50781" style="mask-type:luminance" maskUnits="userSpaceOnUse" x="136" y="124" width="49" height="68">
<path d="M155.323 124.436L136.246 133.224L146.418 174.497L143.178 191.859H179.37L175.788 172.992L184.572 133.34L164.569 125.13L155.323 124.436Z" fill="white"/>
</mask>
<g mask="url(#mask1_2301_50781)">
<g opacity="0.1">
<path d="M155.496 191.86L156.227 175.418C156.235 175.341 156.235 175.264 156.227 175.187L148.732 127.477L146.523 128.492L153.887 175.434L153.156 191.86H155.496Z" fill="black"/>
<path d="M159.883 171.483C159.883 171.483 159.883 171.441 159.883 171.42L153.94 125.072L151.715 126.124L157.553 171.709L159.057 191.885H161.403L159.883 171.483Z" fill="black"/>
<path d="M148.88 191.859L150.984 175.812C151.002 175.693 151.002 175.573 150.984 175.454L142.963 130.143L140.77 131.152L148.659 175.686L146.555 191.859H148.88Z" fill="black"/>
<path d="M183.741 132.998L181.537 132.094L173.495 173.682C173.472 173.817 173.472 173.956 173.495 174.092L176.388 191.859H178.76L175.82 173.924L175.888 173.582L175.773 172.993L177.535 165.056L183.741 132.998Z" fill="black"/>
<path d="M162.66 129.158L160.325 129.227L162.266 191.858H164.601L162.66 129.158Z" fill="black"/>
<path d="M170.859 173.619L178.628 130.9L176.419 129.99L168.529 173.403C168.503 173.537 168.503 173.674 168.529 173.808L171.612 191.859H173.984L170.859 173.619Z" fill="black"/>
<path d="M166.615 172.168L172.522 128.392L170.287 127.477L164.28 171.999C164.267 172.094 164.267 172.189 164.28 172.283L166.458 191.86H168.809L166.615 172.168Z" fill="black"/>
</g>
</g>
<path d="M155.323 124.436L136.246 133.224L146.418 174.497L143.178 191.859H179.37L175.788 172.992L184.572 133.34L164.569 125.13L155.323 124.436Z" stroke="#263238" stroke-linecap="round" stroke-linejoin="round"/>
<path d="M136.246 133.225L121.22 165.766L130.813 167.791L141.68 154.263L136.246 133.225Z" fill="#1FB9B3"/>
<mask id="mask2_2301_50781" style="mask-type:luminance" maskUnits="userSpaceOnUse" x="121" y="133" width="21" height="35">
<path d="M136.246 133.225L121.22 165.766L130.813 167.791L141.68 154.263L136.246 133.225Z" fill="white"/>
</mask>
<g mask="url(#mask2_2301_50781)">
<g opacity="0.1">
<path d="M140.196 148.52L129.729 167.565L130.813 167.791L133.317 164.672L140.833 150.997L140.196 148.52Z" fill="black"/>
<path d="M139.255 144.879L138.571 142.229L126.89 166.965L128.652 167.338L139.255 144.879Z" fill="black"/>
<path d="M123.076 166.155L124.838 166.529L137.761 139.089L137.072 136.428L123.076 166.155Z" fill="black"/>
</g>
<path d="M135.852 138.643L141.154 152.87L135.831 144.723" stroke="#263238" stroke-miterlimit="10"/>
</g>
<path d="M136.246 133.225L121.22 165.766L130.813 167.791L141.68 154.263L136.246 133.225Z" stroke="#1FB9B3" stroke-linecap="round" stroke-linejoin="round"/>
<path d="M131.502 162.938L150.463 184.56L146.781 188.72L122.887 169.691C122.887 169.691 119.61 168.113 121.577 164.905" fill="#1FB9B3"/>
<mask id="mask3_2301_50781" style="mask-type:luminance" maskUnits="userSpaceOnUse" x="120" y="162" width="31" height="27">
<path d="M131.502 162.938L150.463 184.56L146.781 188.72L122.887 169.691C122.887 169.691 119.61 168.113 121.577 164.905" fill="white"/>
</mask>
<g mask="url(#mask3_2301_50781)">
<g opacity="0.1">
<path d="M148.475 186.064L150.253 184.544L140.691 173.415L131.502 162.938L129.03 163.427L148.475 186.064Z" fill="black"/>
<path d="M144.688 187.062L146.271 188.325L147.759 187.015L127.31 163.768L124.659 164.288L144.688 187.062Z" fill="black"/>
</g>
</g>
<path d="M131.502 162.938L150.463 184.56L146.781 188.72L122.887 169.691C122.887 169.691 119.61 168.113 121.577 164.905" stroke="#263238" stroke-linecap="round" stroke-linejoin="round"/>
<path d="M147.417 183.744C147.943 183.449 157.09 181.261 157.216 182.381C157.342 183.502 160.067 184.738 161.308 184.738C162.549 184.738 163.791 183.743 164.038 185.232C164.285 186.72 162.923 186.847 161.808 186.968C160.693 187.089 156.843 185.853 156.843 185.853C156.843 185.853 153.245 188.83 151.757 189.571C150.268 190.313 147.549 190.097 146.549 189.324C145.55 188.551 144.198 185.479 147.417 183.744Z" fill="white" stroke="#263238" stroke-linecap="round" stroke-linejoin="round"/>
<path d="M155.859 182.255C155.859 182.255 159.331 181.261 160.067 181.635C160.803 182.008 161.187 189.451 161.187 189.451C161.187 189.451 160.814 190.192 160.067 189.451C159.32 188.709 156.843 183.139 156.843 183.139" fill="white"/>
<path d="M155.859 182.255C155.859 182.255 159.331 181.261 160.067 181.635C160.803 182.008 161.187 189.451 161.187 189.451C161.187 189.451 160.814 190.192 160.067 189.451C159.32 188.709 156.843 183.139 156.843 183.139" stroke="#263238" stroke-linecap="round" stroke-linejoin="round"/>
<path d="M154.118 182.503C154.118 182.503 157.716 181.635 158.463 182.997C159.21 184.36 161.066 190.44 159.578 190.692C158.089 190.945 157.595 188.951 157.595 188.951L155.239 184.612L153.624 184.365" fill="white"/>
<path d="M154.118 182.503C154.118 182.503 157.716 181.635 158.463 182.997C159.21 184.36 161.066 190.44 159.578 190.692C158.089 190.945 157.595 188.951 157.595 188.951L155.239 184.612L153.624 184.365" stroke="#263238" stroke-linecap="round" stroke-linejoin="round"/>
<path d="M152.883 183.619C152.883 183.619 154.618 182.877 155.486 183.498C156.354 184.118 160.325 190.44 159.578 190.693C158.831 190.945 157.096 190.814 156.849 190.319C156.601 189.825 153.377 185.586 153.377 185.586" fill="white"/>
<path d="M152.883 183.619C152.883 183.619 154.618 182.877 155.486 183.498C156.354 184.118 160.325 190.44 159.578 190.693C158.831 190.945 157.096 190.814 156.849 190.319C156.601 189.825 153.377 185.586 153.377 185.586" stroke="#263238" stroke-linecap="round" stroke-linejoin="round"/>
<path d="M151.625 185.726C151.625 185.726 153.234 184.238 154.102 184.737C154.97 185.237 158.568 189.944 157.826 190.439C157.085 190.933 156.585 190.439 155.843 189.45C155.311 188.783 154.684 188.198 153.981 187.714L152.493 188.209" fill="white"/>
<path d="M151.625 185.726C151.625 185.726 153.234 184.238 154.102 184.737C154.97 185.237 158.568 189.944 157.826 190.439C157.085 190.933 156.585 190.439 155.843 189.45C155.311 188.783 154.684 188.198 153.981 187.714L152.493 188.209" stroke="#263238" stroke-linecap="round" stroke-linejoin="round"/>
<path d="M188.274 163.631L181.963 185.106L186.528 188.293L196.842 171.715C196.842 171.715 201.082 166.929 198.42 164.236" fill="#92E3A9"/>
<mask id="mask4_2301_50781" style="mask-type:luminance" maskUnits="userSpaceOnUse" x="181" y="163" width="19" height="26">
<path d="M188.274 163.631L181.963 185.106L186.528 188.293L196.842 171.715C196.842 171.715 201.082 166.929 198.42 164.236" fill="white"/>
</mask>
<g mask="url(#mask4_2301_50781)">
<g opacity="0.1">
<path d="M186.671 188.035L186.749 187.903L195.486 164.061L193.045 163.914L184.604 186.962L185.55 187.619L186.671 188.035Z" fill="black"/>
<path d="M181.974 185.122L183.957 186.51L192.109 163.925L191.883 163.846L189.7 163.715L181.974 185.122Z" fill="black"/>
<path d="M199.141 165.493C199.001 165.018 198.745 164.586 198.394 164.236L197.142 164.162L190.547 181.829L196.816 171.741L199.141 165.493Z" fill="black"/>
</g>
</g>
<path d="M188.274 163.631L181.963 185.106L186.528 188.293L196.842 171.715C196.842 171.715 201.082 166.929 198.42 164.236" stroke="#263238" stroke-linecap="round" stroke-linejoin="round"/>
<path d="M185.14 183.744C184.614 183.449 175.462 181.261 175.341 182.381C175.22 183.502 172.485 184.738 171.249 184.738C170.013 184.738 168.767 183.743 168.52 185.232C168.272 186.72 169.635 186.847 170.75 186.968C171.865 187.089 175.715 185.853 175.715 185.853C175.715 185.853 179.312 188.83 180.801 189.571C182.289 190.313 185.009 190.097 186.008 189.324C187.007 188.551 188.364 185.479 185.14 183.744Z" fill="white" stroke="#263238" stroke-linecap="round" stroke-linejoin="round"/>
<path d="M176.704 182.255C176.704 182.255 173.232 181.261 172.496 181.635C171.76 182.008 171.381 189.451 171.381 189.451C171.381 189.451 171.754 190.192 172.496 189.451C173.238 188.709 175.725 183.139 175.725 183.139" fill="white"/>
<path d="M176.704 182.255C176.704 182.255 173.232 181.261 172.496 181.635C171.76 182.008 171.381 189.451 171.381 189.451C171.381 189.451 171.754 190.192 172.496 189.451C173.238 188.709 175.725 183.139 175.725 183.139" stroke="#263238" stroke-linecap="round" stroke-linejoin="round"/>
<path d="M178.449 182.503C178.449 182.503 174.857 181.635 174.11 182.997C173.363 184.36 171.48 190.44 172.995 190.692C174.51 190.945 174.978 188.951 174.978 188.951L177.334 184.612L178.949 184.365" fill="white"/>
<path d="M178.449 182.503C178.449 182.503 174.857 181.635 174.11 182.997C173.363 184.36 171.48 190.44 172.995 190.692C174.51 190.945 174.978 188.951 174.978 188.951L177.334 184.612L178.949 184.365" stroke="#263238" stroke-linecap="round" stroke-linejoin="round"/>
<path d="M179.68 183.619C179.68 183.619 177.944 182.877 177.077 183.498C176.209 184.118 172.238 190.44 172.985 190.693C173.731 190.945 175.462 190.814 175.714 190.319C175.967 189.825 179.186 185.586 179.186 185.586" fill="white"/>
<path d="M179.68 183.619C179.68 183.619 177.944 182.877 177.077 183.498C176.209 184.118 172.238 190.44 172.985 190.693C173.731 190.945 175.462 190.814 175.714 190.319C175.967 189.825 179.186 185.586 179.186 185.586" stroke="#263238" stroke-linecap="round" stroke-linejoin="round"/>
<path d="M180.922 185.726C180.922 185.726 179.312 184.233 178.45 184.759C177.587 185.285 173.984 189.966 174.731 190.46C175.478 190.955 175.972 190.46 176.714 189.471C177.246 188.804 177.873 188.22 178.576 187.736L180.064 188.23" fill="white"/>
<path d="M180.922 185.726C180.922 185.726 179.312 184.233 178.45 184.759C177.587 185.285 173.984 189.966 174.731 190.46C175.478 190.955 175.972 190.46 176.714 189.471C177.246 188.804 177.873 188.22 178.576 187.736L180.064 188.23" stroke="#263238" stroke-linecap="round" stroke-linejoin="round"/>
<path d="M156.706 122.237C156.706 122.237 153.703 123.163 152.43 125.014C151.157 126.866 152.662 141.198 152.662 141.198L162.261 135.881L172.317 142.239C172.317 142.239 171.391 127.56 170.581 125.477C169.771 123.394 164.685 120.97 162.95 121.201C161.214 121.432 156.706 122.237 156.706 122.237Z" fill="#1FB9B3" stroke="#263238" stroke-linecap="round" stroke-linejoin="round"/>
<path d="M155.323 114.264V127.56L161.682 144.67L167.115 127.213V114.148L155.323 114.264Z" fill="white" stroke="#263238" stroke-linecap="round" stroke-linejoin="round"/>
<path d="M155.307 119.04C157.101 120.299 159.242 120.973 161.434 120.97C163.438 120.972 165.402 120.407 167.099 119.34V114.148L155.307 114.28V119.04Z" fill="#263238" stroke="#263238" stroke-linecap="round" stroke-linejoin="round"/>
<path d="M161.45 117.962C158.609 117.962 155.885 116.834 153.876 114.826C151.867 112.817 150.737 110.094 150.736 107.253L148.848 92.1895C148.848 88.8417 150.178 85.6309 152.545 83.2636C154.912 80.8963 158.123 79.5664 161.471 79.5664C164.819 79.5664 168.029 80.8963 170.397 83.2636C172.764 85.6309 174.094 88.8417 174.094 92.1895L172.137 107.232C172.14 108.638 171.866 110.031 171.33 111.332C170.795 112.632 170.008 113.814 169.016 114.81C168.023 115.807 166.844 116.598 165.546 117.139C164.248 117.679 162.856 117.959 161.45 117.962Z" fill="white" stroke="#263238" stroke-linecap="round" stroke-linejoin="round"/>
<path d="M164.201 103.13C164.201 103.13 166.931 100.842 170.192 103.309" stroke="#263238" stroke-linecap="round" stroke-linejoin="round"/>
<path d="M159.268 102.866C158.457 102.349 157.492 102.132 156.538 102.25" stroke="#263238" stroke-linecap="round" stroke-linejoin="round"/>
<path d="M165.258 97.6705C165.258 97.6705 168.166 96.2609 169.928 98.9906" stroke="#263238" stroke-linecap="round" stroke-linejoin="round"/>
<path d="M160.566 109.209C160.566 109.209 161.802 110.177 162.86 109.209" stroke="#263238" stroke-linecap="round" stroke-linejoin="round"/>
<path d="M159.357 111.324C159.357 111.324 161.914 112.902 163.407 111.324" stroke="#263238" stroke-linecap="round" stroke-linejoin="round"/>
<path d="M166.837 90.612C166.837 90.612 156.275 100.363 153.33 107.469C150.384 114.575 153.025 121.996 154.65 124.132C156.275 126.267 157.28 126.567 157.28 126.567C157.28 126.567 151.694 128.702 148.039 123.116C144.383 117.531 145.293 111.23 146.413 106.864C147.534 102.499 147.223 89.6968 149.764 85.4312C152.304 81.1657 155.96 78.0151 162.056 78.7252C168.151 79.4352 171.397 82.5858 173.327 86.5463C175.257 90.5068 174.342 97.2128 174.952 100.158C175.562 103.104 178.203 111.94 178.813 117.22C179.423 122.501 172.222 126.262 171.086 126.772C170.314 127.097 169.488 127.275 168.651 127.298C168.651 127.298 171.086 115.111 171.596 108.1C172.107 101.089 172.138 96.9235 172.138 96.9235C172.138 96.9235 167.347 90.917 166.837 90.612Z" fill="#263238"/>
<mask id="mask5_2301_50781" style="mask-type:luminance" maskUnits="userSpaceOnUse" x="145" y="78" width="34" height="50">
<path d="M166.837 90.612C166.837 90.612 156.275 100.363 153.33 107.469C150.384 114.575 153.025 121.996 154.65 124.132C156.275 126.267 157.28 126.567 157.28 126.567C157.28 126.567 151.694 128.702 148.039 123.116C144.383 117.531 145.293 111.23 146.413 106.864C147.534 102.499 147.223 89.6968 149.764 85.4312C152.304 81.1657 155.96 78.0151 162.056 78.7252C168.151 79.4352 171.397 82.5858 173.327 86.5463C175.257 90.5068 174.342 97.2128 174.952 100.158C175.562 103.104 178.203 111.94 178.813 117.22C179.423 122.501 172.222 126.262 171.086 126.772C170.314 127.097 169.488 127.275 168.651 127.298C168.651 127.298 171.086 115.111 171.596 108.1C172.107 101.089 172.138 96.9235 172.138 96.9235C172.138 96.9235 167.347 90.917 166.837 90.612Z" fill="white"/>
</mask>
<g mask="url(#mask5_2301_50781)">
<path d="M165.601 83.7734C165.601 83.7734 164.354 87.208 155.387 97.0487C146.419 106.89 143.984 116.278 146.708 125.451" stroke="#707070" stroke-miterlimit="10"/>
<path d="M163.386 80.3438C163.386 80.3438 158.453 84.4305 152.341 90.5527C148.585 94.3426 145.377 98.6393 142.811 103.318" stroke="#707070" stroke-miterlimit="10"/>
<path d="M167.81 84.5996C167.81 84.5996 171.554 91.4056 173.595 95.4923C175.636 99.579 178.024 122.548 170.876 130.732" stroke="#707070" stroke-miterlimit="10"/>
<path d="M165.259 78.9824L166.837 90.6115" stroke="#707070" stroke-miterlimit="10"/>
</g>
<path d="M166.837 90.612C166.837 90.612 156.275 100.363 153.33 107.469C150.384 114.575 153.025 121.996 154.65 124.132C156.275 126.267 157.28 126.567 157.28 126.567C157.28 126.567 151.694 128.702 148.039 123.116C144.383 117.531 145.293 111.23 146.413 106.864C147.534 102.499 147.223 89.6968 149.764 85.4312C152.304 81.1657 155.96 78.0151 162.056 78.7252C168.151 79.4352 171.397 82.5858 173.327 86.5463C175.257 90.5068 174.342 97.2128 174.952 100.158C175.562 103.104 178.203 111.94 178.813 117.22C179.423 122.501 172.222 126.262 171.086 126.772C170.314 127.097 169.488 127.275 168.651 127.298C168.651 127.298 171.086 115.111 171.596 108.1C172.107 101.089 172.138 96.9235 172.138 96.9235C172.138 96.9235 167.347 90.917 166.837 90.612Z" stroke="#263238" stroke-linecap="round" stroke-linejoin="round"/>
<path d="M147.807 97.418H146.25C145.39 97.418 144.693 98.115 144.693 98.9748V105.207C144.693 106.067 145.39 106.764 146.25 106.764H147.807C148.667 106.764 149.364 106.067 149.364 105.207V98.9748C149.364 98.115 148.667 97.418 147.807 97.418Z" fill="white" stroke="#263238" stroke-linecap="round" stroke-linejoin="round"/>
<path d="M176.351 97.418H174.794C173.934 97.418 173.237 98.115 173.237 98.9748V105.207C173.237 106.067 173.934 106.764 174.794 106.764H176.351C177.211 106.764 177.908 106.067 177.908 105.207V98.9748C177.908 98.115 177.211 97.418 176.351 97.418Z" fill="white" stroke="#263238" stroke-linecap="round" stroke-linejoin="round"/>
<path d="M175.977 97.4175V92.3367C175.977 88.4043 174.415 84.6331 171.635 81.8525C168.854 79.0719 165.083 77.5098 161.151 77.5098C157.218 77.5098 153.446 79.0717 150.664 81.8521C147.883 84.6326 146.32 88.4038 146.318 92.3367V97.4175" stroke="#263238" stroke-width="2" stroke-linejoin="round"/>
<path d="M175.572 106.717C175.572 106.717 174.915 111.803 168.692 113.875" stroke="#263238" stroke-linecap="round" stroke-linejoin="round"/>
<path d="M168.456 113.655C168.719 114.418 167.977 115.364 166.794 115.759C165.61 116.153 164.448 115.885 164.164 115.123C163.88 114.36 164.643 113.413 165.821 113.019C166.999 112.624 168.209 112.892 168.456 113.655Z" stroke="#263238" stroke-linecap="round" stroke-linejoin="round"/>
<path d="M62.0014 120.212L40.2686 130.568L46.538 191.985H89.8616L95.9891 129.548L75.5659 120.064L62.0014 120.212Z" fill="#1FB9B3" stroke="#263238" stroke-linecap="round" stroke-linejoin="round"/>
<path d="M70.7119 138.951C71.1186 138.951 71.4483 138.622 71.4483 138.215C71.4483 137.808 71.1186 137.479 70.7119 137.479C70.3053 137.479 69.9756 137.808 69.9756 138.215C69.9756 138.622 70.3053 138.951 70.7119 138.951Z" fill="#263238"/>
<path d="M71.4483 142.633C71.4483 142.778 71.4051 142.921 71.3242 143.042C71.2433 143.163 71.1283 143.257 70.9937 143.313C70.8592 143.369 70.7111 143.383 70.5683 143.355C70.4254 143.327 70.2942 143.256 70.1913 143.154C70.0883 143.051 70.0181 142.919 69.9897 142.776C69.9613 142.634 69.9759 142.486 70.0316 142.351C70.0874 142.216 70.1818 142.101 70.3028 142.021C70.4239 141.94 70.5663 141.896 70.7119 141.896C70.9072 141.896 71.0945 141.974 71.2326 142.112C71.3707 142.25 71.4483 142.438 71.4483 142.633Z" fill="#263238"/>
<path d="M78.2483 123.346L72.3102 129.968L69.775 136.401L67.0453 129.873L61.3018 123.346V111.754H78.2483V123.346Z" fill="white" stroke="#263238" stroke-linecap="round" stroke-linejoin="round"/>
<path d="M61.3018 116.908C62.4196 118.267 63.825 119.361 65.4166 120.112C67.0082 120.862 68.7465 121.25 70.5061 121.248C73.3461 121.251 76.0931 120.236 78.2483 118.386V111.754H61.3018V116.908Z" fill="#263238" stroke="#263238" stroke-linecap="round" stroke-linejoin="round"/>
<path d="M71.7003 79.3125H69.3124C63.3808 79.3125 58.5723 84.121 58.5723 90.0527V107.246C58.5723 113.178 63.3808 117.987 69.3124 117.987H71.7003C77.6319 117.987 82.4405 113.178 82.4405 107.246V90.0527C82.4405 84.121 77.6319 79.3125 71.7003 79.3125Z" fill="white" stroke="#263238" stroke-linecap="round" stroke-linejoin="round"/>
<path d="M72.794 96.459L72.4416 104.911C72.4347 105.277 72.3155 105.633 72.1001 105.929C71.8847 106.225 71.5835 106.448 71.2372 106.568C70.6008 106.763 69.8749 106.568 69.4805 105.132" stroke="#263238" stroke-linecap="round" stroke-linejoin="round"/>
<path d="M65.8936 108.246H75.3609C75.3609 108.246 73.7041 111.854 70.4905 111.854C67.2768 111.854 65.8936 108.246 65.8936 108.246Z" fill="#263238" stroke="#263238" stroke-linecap="round" stroke-linejoin="round"/>
<path d="M66.5668 109.514H74.5404C74.8435 109.117 75.1077 108.693 75.3293 108.246H65.8936C66.0733 108.691 66.2989 109.116 66.5668 109.514Z" fill="white" stroke="#263238" stroke-linecap="round" stroke-linejoin="round"/>
<path d="M65.7834 100.262C66.161 100.262 66.4671 99.5413 66.4671 98.6524C66.4671 97.7635 66.161 97.043 65.7834 97.043C65.4057 97.043 65.0996 97.7635 65.0996 98.6524C65.0996 99.5413 65.4057 100.262 65.7834 100.262Z" fill="#263238"/>
<path d="M76.008 100.262C76.3856 100.262 76.6917 99.5413 76.6917 98.6524C76.6917 97.7635 76.3856 97.043 76.008 97.043C75.6303 97.043 75.3242 97.7635 75.3242 98.6524C75.3242 99.5413 75.6303 100.262 76.008 100.262Z" fill="#263238"/>
<path d="M73.8672 94.412C73.8672 94.412 76.2025 92.9499 78.8375 95.2904" stroke="#263238" stroke-linecap="round" stroke-linejoin="round"/>
<path d="M70.5064 79.3125C67.3412 79.3125 64.3058 80.5698 62.0677 82.8079C59.8296 85.046 58.5723 88.0815 58.5723 91.2466V102.118H58.6722H59.6452V97.637C59.6452 97.637 64.5156 97.6371 70.2644 94.5233C76.0132 91.4096 77.4649 86.3288 77.4649 86.3288C77.4649 86.3288 78.7324 92.4668 80.0947 93.6345L81.4622 94.8021V102.208H82.4352V91.2466C82.4352 88.0824 81.1786 85.0477 78.9416 82.8098C76.7047 80.5718 73.6706 79.3139 70.5064 79.3125Z" fill="#263238" stroke="#263238" stroke-linecap="round" stroke-linejoin="round"/>
<path d="M56.3373 96.3633H58.5727V105.226H56.3373C55.7682 105.226 55.2224 105 54.8199 104.597C54.4175 104.195 54.1914 103.649 54.1914 103.08V98.4987C54.1942 97.9314 54.4215 97.3883 54.8236 96.9881C55.2258 96.5879 55.77 96.3633 56.3373 96.3633Z" fill="white" stroke="#263238" stroke-linecap="round" stroke-linejoin="round"/>
<path d="M84.5338 105.227H82.2984V96.3641H84.5338C84.8156 96.3641 85.0946 96.4196 85.355 96.5274C85.6153 96.6353 85.8519 96.7933 86.0512 96.9926C86.2504 97.1919 86.4085 97.4284 86.5163 97.6888C86.6242 97.9492 86.6797 98.2282 86.6797 98.51V103.091C86.6769 103.658 86.4496 104.202 86.0474 104.602C85.6453 105.002 85.1011 105.227 84.5338 105.227Z" fill="white" stroke="#263238" stroke-linecap="round" stroke-linejoin="round"/>
<path d="M56.626 96.3639V90.7098C56.626 87.0411 58.0834 83.5227 60.6775 80.9285C63.2717 78.3343 66.7901 76.877 70.4588 76.877C74.1271 76.8783 77.6447 78.3362 80.2386 80.93C82.8324 83.5239 84.2902 87.0415 84.2916 90.7098V96.3639" stroke="#263238" stroke-width="2" stroke-linejoin="round"/>
<path d="M84.3024 105.227C84.3024 105.227 83.6187 110.486 77.1914 112.632" stroke="#263238" stroke-linecap="round" stroke-linejoin="round"/>
<path d="M76.9392 112.402C77.2127 113.191 76.4448 114.169 75.2246 114.595C74.0043 115.021 72.7946 114.721 72.5211 113.932C72.2476 113.143 73.0155 112.165 74.2357 111.739C75.456 111.313 76.6815 111.613 76.9392 112.402Z" stroke="#263238" stroke-linecap="round" stroke-linejoin="round"/>
<path d="M40.2691 130.568L21.8867 169.463L29.4711 176.08L43.183 158.87L40.2691 130.568Z" fill="#1FB9B3" stroke="#263238" stroke-linecap="round" stroke-linejoin="round"/>
<path d="M38.7591 142.49L43.2246 157.554L37.9229 148.902" stroke="#263238" stroke-miterlimit="10"/>
<path d="M95.9894 129.547L113.493 168.642L102.701 173.312L93.0703 157.849L95.9894 129.547Z" fill="#1FB9B3" stroke="#263238" stroke-linecap="round" stroke-linejoin="round"/>
<path d="M31.8061 168.494L47.5587 183.227L43.1827 188.334L20.2822 174.128L22.912 167.127" fill="#1FB9B3"/>
<path d="M31.8061 168.494L47.5587 183.227L43.1827 188.334L20.2822 174.128L22.912 167.127" stroke="#263238" stroke-linecap="round" stroke-linejoin="round"/>
<path d="M44.9345 182.355C45.5762 182.007 56.3111 179.435 56.4583 180.75C56.6056 182.065 59.814 183.522 61.2709 183.522C62.7278 183.522 64.19 182.355 64.4793 184.106C64.7686 185.857 63.1696 185.999 61.8495 186.147C60.5293 186.294 56.0165 184.832 56.0165 184.832C56.0165 184.832 51.8088 188.335 50.0363 189.213C48.2638 190.091 45.0765 189.792 43.9089 188.919C42.7412 188.045 41.1423 184.395 44.9345 182.355Z" fill="white" stroke="#263238" stroke-linecap="round" stroke-linejoin="round"/>
<path d="M54.8486 180.603C54.8486 180.603 58.9354 179.435 59.8085 179.877C60.6816 180.319 61.1234 189.066 61.1234 189.066C61.1234 189.066 60.6816 189.939 59.8085 189.066C58.9354 188.193 56.0215 181.602 56.0215 181.602" fill="white"/>
<path d="M54.8486 180.603C54.8486 180.603 58.9354 179.435 59.8085 179.877C60.6816 180.319 61.1234 189.066 61.1234 189.066C61.1234 189.066 60.6816 189.939 59.8085 189.066C58.9354 188.193 56.0215 181.602 56.0215 181.602" stroke="#263238" stroke-linecap="round" stroke-linejoin="round"/>
<path d="M52.8133 180.896C52.8133 180.896 57.021 179.876 57.9152 181.48C58.8093 183.084 60.9815 190.232 59.2301 190.521C57.4786 190.81 56.8948 188.48 56.8948 188.48L54.123 183.373L52.2295 183.084" fill="white"/>
<path d="M52.8133 180.896C52.8133 180.896 57.021 179.876 57.9152 181.48C58.8093 183.084 60.9815 190.232 59.2301 190.521C57.4786 190.81 56.8948 188.48 56.8948 188.48L54.123 183.373L52.2295 183.084" stroke="#263238" stroke-linecap="round" stroke-linejoin="round"/>
<path d="M51.3506 182.207C51.3506 182.207 53.3966 181.334 54.4169 182.065C55.4373 182.796 60.1079 190.233 59.2295 190.544C58.3512 190.854 56.3104 190.691 56.0211 190.107C55.7319 189.523 51.9344 184.564 51.9344 184.564" fill="white"/>
<path d="M51.3506 182.207C51.3506 182.207 53.3966 181.334 54.4169 182.065C55.4373 182.796 60.1079 190.233 59.2295 190.544C58.3512 190.854 56.3104 190.691 56.0211 190.107C55.7319 189.523 51.9344 184.564 51.9344 184.564" stroke="#263238" stroke-linecap="round" stroke-linejoin="round"/>
<path d="M49.8936 184.689C49.8936 184.689 51.7923 182.938 52.8126 183.521C53.833 184.105 58.0723 189.649 57.1887 190.233C56.305 190.817 55.7265 190.233 54.8534 189.065C54.2285 188.279 53.4913 187.59 52.6654 187.019L50.9139 187.603" fill="white"/>
<path d="M49.8936 184.689C49.8936 184.689 51.7923 182.938 52.8126 183.521C53.833 184.105 58.0723 189.649 57.1887 190.233C56.305 190.817 55.7265 190.233 54.8534 189.065C54.2285 188.279 53.4913 187.59 52.6654 187.019L50.9139 187.603" stroke="#263238" stroke-linecap="round" stroke-linejoin="round"/>
<path d="M100.055 164.771L90.8193 184.263L96.7627 187.403L114.23 168.895L109.218 163.346" fill="#1FB9B3"/>
<path d="M100.055 164.771L90.8193 184.263L96.7627 187.403L114.23 168.895L109.218 163.346" stroke="#263238" stroke-linecap="round" stroke-linejoin="round"/>
<path d="M95.4427 182.355C94.8011 182.007 84.0609 179.435 83.9189 180.75C83.7769 182.065 80.5632 183.522 79.1011 183.522C77.6389 183.522 76.1872 182.355 75.8927 184.106C75.5981 185.857 77.2076 185.999 78.5225 186.147C79.8374 186.294 84.3554 184.832 84.3554 184.832C84.3554 184.832 88.5631 188.335 90.3356 189.213C92.1081 190.091 95.2955 189.792 96.4631 188.919C97.6307 188.045 99.2349 184.395 95.4427 182.355Z" fill="white" stroke="#263238" stroke-linecap="round" stroke-linejoin="round"/>
<path d="M85.5228 180.603C85.5228 180.603 81.4361 179.435 80.563 179.877C79.6899 180.319 79.248 189.066 79.248 189.066C79.248 189.066 79.6846 189.939 80.563 189.066C81.4413 188.193 84.3552 181.602 84.3552 181.602" fill="white"/>
<path d="M85.5228 180.603C85.5228 180.603 81.4361 179.435 80.563 179.877C79.6899 180.319 79.248 189.066 79.248 189.066C79.248 189.066 79.6846 189.939 80.563 189.066C81.4413 188.193 84.3552 181.602 84.3552 181.602" stroke="#263238" stroke-linecap="round" stroke-linejoin="round"/>
<path d="M87.564 180.896C87.564 180.896 83.3563 179.876 82.4569 181.48C81.5575 183.084 79.3958 190.232 81.1472 190.542C82.8987 190.853 83.4772 188.501 83.4772 188.501L86.2491 183.394L88.1478 183.105" fill="white"/>
<path d="M87.564 180.896C87.564 180.896 83.3563 179.876 82.4569 181.48C81.5575 183.084 79.3958 190.232 81.1472 190.542C82.8987 190.853 83.4772 188.501 83.4772 188.501L86.2491 183.394L88.1478 183.105" stroke="#263238" stroke-linecap="round" stroke-linejoin="round"/>
<path d="M89.0366 182.207C89.0366 182.207 86.9958 181.334 85.9755 182.065C84.9551 182.796 80.2688 190.233 81.1471 190.544C82.0255 190.854 84.061 190.691 84.3555 190.107C84.65 189.523 88.437 184.564 88.437 184.564" fill="white"/>
<path d="M89.0366 182.207C89.0366 182.207 86.9958 181.334 85.9755 182.065C84.9551 182.796 80.2688 190.233 81.1471 190.544C82.0255 190.854 84.061 190.691 84.3555 190.107C84.65 189.523 88.437 184.564 88.437 184.564" stroke="#263238" stroke-linecap="round" stroke-linejoin="round"/>
<path d="M90.4828 184.689C90.4828 184.689 88.5841 182.938 87.5637 183.521C86.5433 184.105 82.3041 189.649 83.1877 190.233C84.0713 190.817 84.6446 190.233 85.523 189.065C86.1479 188.279 86.8851 187.59 87.711 187.019L89.4624 187.603" fill="white"/>
<path d="M90.4828 184.689C90.4828 184.689 88.5841 182.938 87.5637 183.521C86.5433 184.105 82.3041 189.649 83.1877 190.233C84.0713 190.817 84.6446 190.233 85.523 189.065C86.1479 188.279 86.8851 187.59 87.711 187.019L89.4624 187.603" stroke="#263238" stroke-linecap="round" stroke-linejoin="round"/>
<path d="M123.045 57.0586H88.8572C87.2721 57.0586 85.7518 57.6879 84.6305 58.8083C83.5091 59.9287 82.8784 61.4484 82.877 63.0335V73.0268C82.8729 73.8139 83.0242 74.5941 83.3222 75.3226C83.6202 76.0511 84.0591 76.7136 84.6137 77.2722C85.1683 77.8307 85.8277 78.2742 86.5541 78.5773C87.2805 78.8805 88.0596 79.0372 88.8467 79.0386H93.0544L87.3162 86.5441L100.218 79.0386H123.045C123.83 79.0365 124.607 78.8798 125.332 78.5773C126.057 78.2749 126.715 77.8327 127.269 77.2759C127.823 76.7191 128.261 76.0587 128.56 75.3323C128.859 74.606 129.011 73.8279 129.009 73.0426V63.0493C129.012 61.4642 128.385 59.9428 127.267 58.8194C126.149 57.6961 124.63 57.0628 123.045 57.0586Z" fill="white" stroke="#263238" stroke-miterlimit="10"/>
<path d="M101.254 68.7342C101.255 69.0101 101.175 69.2801 101.022 69.51C100.87 69.7399 100.652 69.9194 100.398 70.0257C100.143 70.132 99.8626 70.1603 99.5919 70.1072C99.3212 70.054 99.0724 69.9217 98.8769 69.7269C98.6814 69.5322 98.5482 69.2839 98.494 69.0134C98.4398 68.7428 98.4671 68.4623 98.5724 68.2073C98.6777 67.9524 98.8564 67.7344 99.0857 67.581C99.315 67.4276 99.5847 67.3457 99.8606 67.3457C100.229 67.3457 100.583 67.4918 100.844 67.7521C101.106 68.0123 101.253 68.3655 101.254 68.7342Z" fill="#263238"/>
<path d="M107.334 68.7343C107.336 69.0104 107.255 69.2806 107.102 69.5106C106.949 69.7406 106.731 69.9201 106.476 70.0262C106.222 70.1323 105.941 70.1604 105.67 70.1068C105.399 70.0532 105.15 69.9203 104.955 69.7251C104.76 69.5298 104.627 69.281 104.573 69.0101C104.52 68.7393 104.548 68.4586 104.654 68.2037C104.76 67.9488 104.94 67.7312 105.17 67.5784C105.4 67.4257 105.67 67.3447 105.946 67.3457C106.314 67.3457 106.667 67.492 106.928 67.7524C107.188 68.0128 107.334 68.366 107.334 68.7343Z" fill="#263238"/>
<path d="M113.415 68.7342C113.415 69.0089 113.333 69.2773 113.181 69.5057C113.028 69.734 112.811 69.912 112.558 70.0171C112.304 70.1222 112.025 70.1497 111.755 70.0961C111.486 70.0425 111.239 69.9103 111.044 69.7161C110.85 69.5219 110.718 69.2745 110.664 69.0051C110.611 68.7358 110.638 68.4566 110.743 68.2029C110.848 67.9492 111.026 67.7323 111.255 67.5797C111.483 67.4271 111.752 67.3457 112.026 67.3457C112.395 67.3457 112.748 67.492 113.008 67.7524C113.268 68.0128 113.415 68.366 113.415 68.7342Z" fill="#263238"/>
<path d="M192.887 190.402H129.172V192.974H192.887V190.402Z" fill="white" stroke="#263238" stroke-linecap="round" stroke-linejoin="round"/>
<path d="M202.675 190.402H147.139V192.974H202.675V190.402Z" fill="white" stroke="#263238" stroke-linecap="round" stroke-linejoin="round"/>
<path d="M203.753 185.831H150.62L156.348 145.264H209.481L203.753 185.831Z" fill="white" stroke="#263238" stroke-linecap="round" stroke-linejoin="round"/>
<path d="M205.952 185.831H152.819L158.547 145.264H211.68L205.952 185.831Z" fill="#263238" stroke="#263238" stroke-linecap="round" stroke-linejoin="round"/>
<path d="M189.668 166.975L195.001 192.968H181.289L175.961 166.975H189.668ZM180.369 174.69C180.395 174.796 180.455 174.89 180.541 174.957C180.627 175.024 180.733 175.059 180.842 175.059L188.61 174.985C188.683 174.984 188.755 174.967 188.82 174.934C188.885 174.901 188.942 174.854 188.986 174.797C189.031 174.739 189.062 174.672 189.077 174.601C189.092 174.53 189.091 174.456 189.073 174.385L188.374 171.472C188.348 171.365 188.287 171.271 188.201 171.203C188.116 171.136 188.01 171.099 187.9 171.098L180.132 171.172C180.059 171.173 179.987 171.191 179.922 171.223C179.857 171.256 179.8 171.302 179.755 171.36C179.71 171.417 179.678 171.484 179.663 171.555C179.647 171.627 179.647 171.7 179.664 171.771L180.369 174.69Z" fill="white" stroke="#263238" stroke-linecap="round" stroke-linejoin="round"/>
<path d="M98.6449 190.402H34.9297V192.974H98.6449V190.402Z" fill="white" stroke="#263238" stroke-linecap="round" stroke-linejoin="round"/>
<path d="M108.433 190.402H52.8965V192.974H108.433V190.402Z" fill="white" stroke="#263238" stroke-linecap="round" stroke-linejoin="round"/>
<path d="M109.512 185.831H56.3789L62.1066 145.264H115.239L109.512 185.831Z" fill="white" stroke="#263238" stroke-linecap="round" stroke-linejoin="round"/>
<path d="M111.71 185.831H58.5771L64.3049 145.264H117.438L111.71 185.831Z" fill="#263238" stroke="#263238" stroke-linecap="round" stroke-linejoin="round"/>
<path d="M95.4316 166.975L100.76 192.968H87.0477L81.7197 166.975H95.4316ZM86.1273 174.69C86.1542 174.796 86.2152 174.889 86.3009 174.956C86.3866 175.022 86.4921 175.059 86.6007 175.059L94.3691 174.985C94.442 174.984 94.5138 174.966 94.579 174.934C94.6443 174.901 94.7014 174.854 94.7463 174.797C94.7912 174.739 94.8226 174.673 94.8384 174.601C94.8541 174.53 94.8537 174.456 94.8372 174.385L94.1325 171.472C94.1075 171.365 94.047 171.27 93.961 171.202C93.8751 171.134 93.7686 171.098 93.6591 171.098L85.8906 171.172C85.8178 171.173 85.7462 171.19 85.6811 171.223C85.616 171.255 85.5591 171.302 85.5146 171.36C85.4701 171.418 85.4392 171.485 85.4241 171.556C85.4091 171.627 85.4103 171.701 85.4278 171.771L86.1273 174.69Z" fill="white" stroke="#263238" stroke-linecap="round" stroke-linejoin="round"/>
<path d="M228.81 192.969H2.16211V195.514H228.81V192.969Z" fill="#263238" stroke="#263238" stroke-linecap="round" stroke-linejoin="round"/>
</svg>
