<svg width="100" height="128" viewBox="0 0 138 128" fill="none"
xmlns="http://www.w3.org/2000/svg">
<path
    d="M138 7.90671C138 45.2817 138 82.6567 138 120.032C136.311 126.105 132.106 127.974 126.536 127.938C88.8016 127.83 51.1031 127.866 13.3688 127.866C11.9313 127.866 10.4938 128.01 9.05625 127.83C7.69063 127.65 6.28906 127.363 5.06719 126.788C2.22813 125.458 0.790625 122.943 0 120.032C0 82.6567 0 45.2817 0 7.90671C1.58125 2.01296 5.78594 -0.0354739 11.3203 0.000463587C48.1922 0.108276 85.0641 0.0723385 121.936 0.0723385C124.236 0.0723385 126.536 0.000463656 128.8 0.108276C132.717 0.252026 135.484 2.19265 137.173 5.67859C137.533 6.3614 137.748 7.15203 138 7.90671ZM135.844 23.5395C91.2094 23.5395 46.7188 23.5395 2.15625 23.5395C2.15625 24.1145 2.15625 24.6177 2.15625 25.1208C2.15625 55.9192 2.15625 86.7536 2.15625 117.552C2.15625 122.871 4.99531 125.746 10.2781 125.746C49.45 125.746 88.5859 125.71 127.758 125.782C132.789 125.782 135.916 122.188 135.916 117.66C135.808 86.8255 135.88 55.9552 135.88 25.0848C135.844 24.6177 135.844 24.1505 135.844 23.5395ZM135.844 21.2036C135.844 20.7005 135.844 20.2333 135.844 19.802C135.844 16.7114 135.7 13.5848 135.88 10.4942C136.167 5.64265 132.753 2.12078 127.614 2.12078C88.8734 2.22859 50.0969 2.19265 11.3562 2.19265C10.6734 2.19265 10.0266 2.19265 9.34375 2.19265C5.67812 2.30046 2.51562 4.78015 2.3 8.3739C2.0125 12.6145 2.22812 16.8911 2.22812 21.2036C46.7547 21.2036 91.2453 21.2036 135.844 21.2036Z"
    fill="url(#paint0_radial_1591_9222)" />
<path
    d="M69.0717 32.3804C87.0404 32.3804 105.009 32.3804 122.978 32.3804C126.608 32.3804 128.225 34.0335 128.225 37.6632C128.225 41.6163 128.225 45.5694 128.225 49.5226C128.225 52.9366 126.5 54.6976 123.122 54.6976C87.0764 54.6976 50.9951 54.6976 14.9498 54.6976C11.5357 54.6976 9.84668 52.9726 9.84668 49.5226C9.84668 45.6054 9.84668 41.7241 9.84668 37.8069C9.84668 33.9616 11.4279 32.3804 15.2373 32.3804C33.1342 32.3804 51.1029 32.3804 69.0717 32.3804ZM33.5654 52.5772C33.9967 52.6132 34.3201 52.6132 34.6436 52.6132C64.1482 52.6132 93.6529 52.6132 123.158 52.6132C125.206 52.6132 126.033 51.8226 126.033 49.7741C126.069 45.7851 126.033 41.796 126.033 37.771C126.033 35.1835 125.35 34.5007 122.762 34.5007C93.5451 34.5007 64.292 34.5007 35.0748 34.5007C34.6076 34.5007 34.1404 34.5007 33.6014 34.5007C33.5654 40.646 33.5654 46.5397 33.5654 52.5772ZM31.2654 34.6085C30.7982 34.5726 30.367 34.5366 29.8998 34.5366C24.9045 34.5366 19.9451 34.5366 14.9498 34.5366C12.6857 34.5366 11.9311 35.2554 11.9311 37.4835C11.9311 41.4726 11.9311 45.4616 11.9311 49.4866C11.9311 51.7866 12.6857 52.5413 15.0217 52.5413C20.017 52.5413 24.9764 52.5413 29.9717 52.5413C30.367 52.5413 30.7623 52.5054 31.2295 52.4694C31.2654 46.5038 31.2654 40.6101 31.2654 34.6085Z"
    fill="url(#paint1_radial_1591_9222)" />
<path
    d="M46.4668 62.3519C58.0027 62.3519 69.5387 62.3519 81.1105 62.3519C83.0152 62.3519 83.123 62.4597 83.123 64.2925C83.123 81.6144 83.123 98.9722 83.123 116.294C83.123 118.163 82.9793 118.307 81.1465 118.307C58.0746 118.307 34.9668 118.307 11.8949 118.307C10.134 118.307 9.81055 118.019 9.81055 116.294C9.81055 98.9003 9.81055 81.5425 9.81055 64.1487C9.81055 62.5315 10.0262 62.3159 11.7152 62.3159C23.2871 62.3519 34.859 62.3519 46.4668 62.3519ZM12.0387 64.58C12.0387 81.7581 12.0387 98.8644 12.0387 115.971C35.0027 115.971 57.8949 115.971 80.859 115.971C80.859 98.8284 80.859 81.7581 80.859 64.58C57.9309 64.58 35.0387 64.58 12.0387 64.58Z"
    fill="url(#paint2_radial_1591_9222)" />
<path
    d="M109.466 62.3521C115.036 62.3521 120.606 62.3521 126.177 62.3521C127.938 62.3521 128.046 62.4599 128.046 64.1489C128.046 70.9771 128.046 77.8052 128.046 84.6333C128.046 86.3224 127.866 86.5021 126.213 86.538C115.036 86.538 103.86 86.538 92.683 86.538C90.958 86.538 90.7783 86.3583 90.7783 84.7052C90.7783 77.877 90.7783 71.0489 90.7783 64.2208C90.7783 62.4958 90.9221 62.3521 92.6111 62.3521C98.2533 62.3521 103.86 62.3521 109.466 62.3521ZM93.0424 64.5442C93.0424 71.1927 93.0424 77.7333 93.0424 84.2739C104.039 84.2739 114.892 84.2739 125.781 84.2739C125.781 77.6614 125.781 71.1208 125.781 64.5442C114.856 64.5442 104.003 64.5442 93.0424 64.5442Z"
    fill="url(#paint3_radial_1591_9222)" />
<path
    d="M109.43 94.1565C115.036 94.1565 120.642 94.1565 126.285 94.1565C127.902 94.1565 128.046 94.3003 128.046 95.9175C128.046 102.782 128.046 109.646 128.046 116.546C128.046 118.127 127.83 118.307 126.249 118.307C115.036 118.307 103.788 118.307 92.5752 118.307C90.9939 118.307 90.7783 118.091 90.7783 116.51C90.7783 109.646 90.7783 102.782 90.7783 95.8815C90.7783 94.2644 90.958 94.1206 92.5752 94.1206C98.2174 94.1565 103.824 94.1565 109.43 94.1565ZM93.0064 116.078C104.039 116.078 114.928 116.078 125.817 116.078C125.817 109.466 125.817 102.925 125.817 96.4206C114.821 96.4206 103.931 96.4206 93.0064 96.4206C93.0064 102.961 93.0064 109.466 93.0064 116.078Z"
    fill="url(#paint4_radial_1591_9222)" />
<path
    d="M93.006 16.6036C82.7638 16.6036 72.5217 16.6036 62.2795 16.6036C58.9373 16.6036 56.8529 14.4115 57.1045 11.2849C57.2842 9.20051 58.7935 7.47551 60.842 7.04426C61.4529 6.93645 62.0998 6.90051 62.7107 6.90051C83.0154 6.90051 103.32 6.90051 123.589 6.90051C127.039 6.90051 129.195 8.84114 129.123 11.8958C129.087 14.3396 127.219 16.3521 124.775 16.5677C124.236 16.6036 123.697 16.6036 123.158 16.6036C113.095 16.6036 103.033 16.6036 93.006 16.6036ZM93.0779 14.4474C103.104 14.4474 113.095 14.4474 123.122 14.4474C123.697 14.4474 124.308 14.4474 124.883 14.3755C126.104 14.1958 126.931 13.1896 127.003 11.9318C127.075 10.674 126.356 9.55989 125.206 9.23645C124.667 9.0927 124.056 9.05676 123.481 9.05676C103.248 9.05676 82.9795 9.05676 62.7467 9.05676C62.3154 9.05676 61.8482 9.05676 61.417 9.16457C60.0513 9.45208 59.2607 10.4943 59.2967 11.8599C59.3326 13.513 60.4826 14.4474 62.567 14.4474C72.6654 14.4474 82.8717 14.4474 93.0779 14.4474Z"
    fill="url(#paint5_radial_1591_9222)" />
<path
    d="M8.87643 11.716C8.91236 9.02066 11.1046 6.86441 13.7639 6.90035C16.3514 6.97222 18.5436 9.16441 18.5436 11.7519C18.5436 14.4113 16.3514 16.6035 13.6561 16.5675C10.9608 16.6035 8.84049 14.4832 8.87643 11.716ZM13.728 14.4472C15.2374 14.4113 16.4592 13.1535 16.3874 11.68C16.3155 10.2425 15.0936 9.09253 13.6561 9.12847C12.1467 9.16441 10.9967 10.3863 11.0327 11.9316C11.0686 13.3691 12.2186 14.4472 13.728 14.4472Z"
    fill="url(#paint6_radial_1591_9222)" />
<path
    d="M31.8769 11.788C31.8769 14.5193 29.7566 16.6396 27.0254 16.6037C24.33 16.6037 22.1379 14.4115 22.2097 11.7162C22.2457 9.09273 24.4019 6.93648 27.0254 6.93648C29.7207 6.90054 31.8769 9.05679 31.8769 11.788ZM27.0254 14.4474C28.5347 14.4474 29.6488 13.3693 29.7207 11.8959C29.7566 10.3505 28.6066 9.12867 27.0972 9.12867C25.5879 9.12867 24.366 10.3505 24.4019 11.8599C24.4019 13.2974 25.5519 14.4115 27.0254 14.4474Z"
    fill="url(#paint7_radial_1591_9222)" />
<path
    d="M40.5376 16.6035C37.8063 16.6035 35.6501 14.4114 35.686 11.752C35.7219 9.12854 37.8422 6.97229 40.4657 6.93636C43.161 6.90042 45.3172 9.05667 45.3532 11.752C45.3532 14.4832 43.2688 16.6035 40.5376 16.6035ZM43.1969 11.7879C43.1969 10.3145 42.0829 9.12854 40.6094 9.12854C39.1001 9.09261 37.8782 10.3145 37.8782 11.8239C37.8782 13.3332 39.1001 14.5192 40.6454 14.4832C42.0829 14.4114 43.1969 13.2614 43.1969 11.7879Z"
    fill="url(#paint8_radial_1591_9222)" />
<path
    d="M20.8801 37.7347C24.366 37.6987 26.8098 41.0768 25.5879 44.3112C25.2285 45.2456 25.4082 45.7847 26.091 46.3597C26.5582 46.755 27.0973 47.1862 27.3848 47.7253C27.5644 48.0847 27.5644 48.8034 27.3129 49.1268C27.1332 49.3784 26.1629 49.4143 26.0551 49.2347C24.6894 47.1503 22.8926 47.3659 20.7004 47.6175C18.0051 47.905 15.8488 45.3175 15.9207 42.5503C15.9926 39.855 18.1488 37.7706 20.8801 37.7347ZM20.8801 45.4253C22.4613 45.4253 23.7191 44.1675 23.6832 42.6222C23.6473 41.1128 22.4613 39.9268 20.9519 39.8909C19.3348 39.855 18.1129 41.0409 18.0769 42.6222C18.041 44.2034 19.2629 45.4253 20.8801 45.4253Z"
    fill="url(#paint9_radial_1591_9222)" />
<path
    d="M65.5859 95.127C67.2749 96.7442 68.8562 98.2536 70.4374 99.7629C71.6952 100.985 72.953 102.207 74.2468 103.357C75.1093 104.147 75.1093 104.83 74.2827 105.621C73.0968 106.807 71.9468 107.993 70.8327 109.215C70.0421 110.113 69.3593 110.113 68.4609 109.286C65.6577 106.555 62.8187 103.896 59.8359 101.057C59.0093 102.854 58.1827 104.507 57.3921 106.196C57.2124 106.591 57.0687 107.058 56.8171 107.418C56.4937 107.813 55.9905 108.388 55.6671 108.316C55.2359 108.208 54.6968 107.669 54.5171 107.238C53.5827 104.399 52.7202 101.488 51.8577 98.6489C50.528 94.3364 49.1984 89.9879 47.9046 85.6754C47.4015 84.0583 47.9765 83.4833 49.6296 83.9145C56.7812 85.7473 63.9687 87.5801 71.1202 89.4848C71.6952 89.6286 72.1624 90.2754 72.6655 90.7067C72.2343 91.1739 71.9109 91.7848 71.3718 92.0723C69.539 93.0786 67.6343 94.0489 65.5859 95.127ZM55.8827 104.111C56.0984 103.896 56.2062 103.86 56.2421 103.788C56.853 102.458 57.4999 101.093 58.1109 99.7629C59.0452 97.7504 59.4765 97.6786 61.0577 99.2239C63.8609 101.919 66.664 104.615 69.2874 107.166C70.3655 106.268 71.3359 105.441 72.414 104.579C69.3234 101.632 66.3765 98.7926 63.4296 95.9895C62.2796 94.8754 62.3515 94.3004 63.753 93.5817C65.2984 92.7911 66.8437 92.0004 68.6765 91.0301C62.4593 89.4129 56.6015 87.8676 50.4921 86.2864C52.3249 92.3958 54.0859 98.2176 55.8827 104.111Z"
    fill="url(#paint10_radial_1591_9222)" />
<defs>
    <radialGradient id="paint0_radial_1591_9222" cx="0" cy="0" r="1"
        gradientUnits="userSpaceOnUse"
        gradientTransform="translate(5.1935 -4.54043) scale(362.834 519.058)">
        <stop offset="0.00197249" stop-color="#26B3AD" />
        <stop offset="0.1137" stop-color="#23AAA4" />
        <stop offset="0.3393" stop-color="#1E9E98" />
        <stop offset="0.5788" stop-color="#1B9792" />
        <stop offset="0.8532" stop-color="#1A9590" />
    </radialGradient>
    <radialGradient id="paint1_radial_1591_9222" cx="0" cy="0" r="1"
        gradientUnits="userSpaceOnUse"
        gradientTransform="translate(14.3017 31.5884) scale(311.243 90.5428)">
        <stop offset="0.00197249" stop-color="#26B3AD" />
        <stop offset="0.1137" stop-color="#23AAA4" />
        <stop offset="0.3393" stop-color="#1E9E98" />
        <stop offset="0.5788" stop-color="#1B9792" />
        <stop offset="0.8532" stop-color="#1A9590" />
    </radialGradient>
    <radialGradient id="paint2_radial_1591_9222" cx="0" cy="0" r="1"
        gradientUnits="userSpaceOnUse"
        gradientTransform="translate(12.5696 60.3289) scale(192.756 227.159)">
        <stop offset="0.00197249" stop-color="#26B3AD" />
        <stop offset="0.1137" stop-color="#23AAA4" />
        <stop offset="0.3393" stop-color="#1E9E98" />
        <stop offset="0.5788" stop-color="#1B9792" />
        <stop offset="0.8532" stop-color="#1A9590" />
    </radialGradient>
    <radialGradient id="paint3_radial_1591_9222" cx="0" cy="0" r="1"
        gradientUnits="userSpaceOnUse"
        gradientTransform="translate(92.1808 61.4937) scale(97.984 98.1245)">
        <stop offset="0.00197249" stop-color="#26B3AD" />
        <stop offset="0.1137" stop-color="#23AAA4" />
        <stop offset="0.3393" stop-color="#1E9E98" />
        <stop offset="0.5788" stop-color="#1B9792" />
        <stop offset="0.8532" stop-color="#1A9590" />
    </radialGradient>
    <radialGradient id="paint4_radial_1591_9222" cx="0" cy="0" r="1"
        gradientUnits="userSpaceOnUse"
        gradientTransform="translate(92.1808 93.2623) scale(97.984 98.1245)">
        <stop offset="0.00197249" stop-color="#26B3AD" />
        <stop offset="0.1137" stop-color="#23AAA4" />
        <stop offset="0.3393" stop-color="#1E9E98" />
        <stop offset="0.5788" stop-color="#1B9792" />
        <stop offset="0.8532" stop-color="#1A9590" />
    </radialGradient>
    <radialGradient id="paint5_radial_1591_9222" cx="0" cy="0" r="1"
        gradientUnits="userSpaceOnUse"
        gradientTransform="translate(59.7952 6.55616) scale(189.412 39.3664)">
        <stop offset="0.00197249" stop-color="#26B3AD" />
        <stop offset="0.1137" stop-color="#23AAA4" />
        <stop offset="0.3393" stop-color="#1E9E98" />
        <stop offset="0.5788" stop-color="#1B9792" />
        <stop offset="0.8532" stop-color="#1A9590" />
    </radialGradient>
    <radialGradient id="paint6_radial_1591_9222" cx="0" cy="0" r="1"
        gradientUnits="userSpaceOnUse"
        gradientTransform="translate(9.23981 6.55679) scale(25.4185 39.2242)">
        <stop offset="0.00197249" stop-color="#26B3AD" />
        <stop offset="0.1137" stop-color="#23AAA4" />
        <stop offset="0.3393" stop-color="#1E9E98" />
        <stop offset="0.5788" stop-color="#1B9792" />
        <stop offset="0.8532" stop-color="#1A9590" />
    </radialGradient>
    <radialGradient id="paint7_radial_1591_9222" cx="0" cy="0" r="1"
        gradientUnits="userSpaceOnUse"
        gradientTransform="translate(22.5719 6.59292) scale(25.4218 39.2243)">
        <stop offset="0.00197249" stop-color="#26B3AD" />
        <stop offset="0.1137" stop-color="#23AAA4" />
        <stop offset="0.3393" stop-color="#1E9E98" />
        <stop offset="0.5788" stop-color="#1B9792" />
        <stop offset="0.8532" stop-color="#1A9590" />
    </radialGradient>
    <radialGradient id="paint8_radial_1591_9222" cx="0" cy="0" r="1"
        gradientUnits="userSpaceOnUse"
        gradientTransform="translate(36.0494 6.59282) scale(25.4184 39.2224)">
        <stop offset="0.00197249" stop-color="#26B3AD" />
        <stop offset="0.1137" stop-color="#23AAA4" />
        <stop offset="0.3393" stop-color="#1E9E98" />
        <stop offset="0.5788" stop-color="#1B9792" />
        <stop offset="0.8532" stop-color="#1A9590" />
    </radialGradient>
    <radialGradient id="paint9_radial_1591_9222" cx="0" cy="0" r="1"
        gradientUnits="userSpaceOnUse"
        gradientTransform="translate(16.3552 37.3223) scale(30.4799 47.1133)">
        <stop offset="0.00197249" stop-color="#26B3AD" />
        <stop offset="0.1137" stop-color="#23AAA4" />
        <stop offset="0.3393" stop-color="#1E9E98" />
        <stop offset="0.5788" stop-color="#1B9792" />
        <stop offset="0.8532" stop-color="#1A9590" />
    </radialGradient>
    <radialGradient id="paint10_radial_1591_9222" cx="0" cy="0" r="1"
        gradientUnits="userSpaceOnUse"
        gradientTransform="translate(48.751 82.8492) scale(71.4355 105.977)">
        <stop offset="0.00197249" stop-color="#26B3AD" />
        <stop offset="0.1137" stop-color="#23AAA4" />
        <stop offset="0.3393" stop-color="#1E9E98" />
        <stop offset="0.5788" stop-color="#1B9792" />
        <stop offset="0.8532" stop-color="#1A9590" />
    </radialGradient>
</defs>
</svg>