<svg width="58" height="80" viewBox="0 0 58 80" fill="none" xmlns="http://www.w3.org/2000/svg">
                          <path d="M16.0809 65.6811C15.8529 65.577 15.6633 65.4966 15.4785 65.4044C13.9329 64.6355 13.0257 63.4173 12.9681 61.6975C12.9105 59.9825 13.7097 58.6696 15.2289 57.8535C15.6993 57.6003 15.7737 57.3165 15.8529 56.8434C16.2321 54.5582 15.3441 53.0537 13.4289 51.6935C10.3689 49.5219 7.52251 47.0688 5.25933 44.0149C-5.2958 29.7671 0.70176 9.14404 17.3097 2.54884C21.9248 0.715525 26.696 0.320475 31.628 0.573591C31.628 4.79377 31.628 8.97845 31.628 13.2956C30.7736 13.2956 29.9168 13.2909 29.0624 13.2956C27.2192 13.3074 25.9256 14.4666 25.916 16.113C25.9064 17.7571 27.2048 18.9541 29.024 18.9706C29.8616 18.9777 30.6992 18.973 31.6352 18.973C31.6352 21.3267 31.6352 23.6426 31.6352 26.0129C33.6055 26.0129 35.4775 26.0129 37.3471 26.0129C38.0623 22.3297 40.1479 20.3592 43.2751 20.3947C46.3207 20.4302 48.4111 22.4646 49.0327 26.0697C50.4222 26.0697 51.8262 26.0697 53.2302 26.0697C54.639 26.0697 56.0454 26.0697 57.6702 26.0697C57.5622 27.9267 57.5766 29.7552 57.3294 31.546C56.295 39.0164 52.6686 45.0415 46.6975 49.7254C45.2191 50.8845 43.7503 52.0578 42.3271 53.2808C42.0223 53.5434 41.8855 54.0378 41.7679 54.4518C41.6815 54.7522 41.7703 55.0999 41.7463 55.4216C41.6551 56.6423 41.8159 57.5341 43.0543 58.4023C45.5287 60.1386 45.0271 63.8644 42.3391 65.2813C42.0775 65.4185 41.8063 65.5368 41.7895 65.7261C41.6455 66.8071 41.7151 67.9804 41.2903 68.9432C40.9279 69.7617 39.9895 70.3295 39.3247 71.0249C39.0823 71.2781 38.7679 71.5596 38.7055 71.8718C37.7599 76.6124 33.6055 80.0188 28.7432 79.9999C23.9264 79.9833 19.796 76.5675 18.8768 71.8718C18.8216 71.595 18.6392 71.2568 18.4088 71.1172C16.1289 69.7381 15.5097 68.366 16.0809 65.6811ZM18.7112 57.2289C22.1288 57.2289 25.4384 57.2289 28.7552 57.2289C28.7552 53.4488 28.7552 49.7325 28.7552 46.0233C25.016 45.3325 23 43.2626 23.0336 40.1803C23.0672 37.1784 25.124 35.1274 28.7384 34.51C28.7384 32.6696 28.7384 30.8245 28.7384 28.8823C25.8584 28.8823 23.0288 28.8823 20.1488 28.8823C20.1488 27.9621 20.1536 27.1389 20.1488 26.3133C20.1344 24.5131 18.932 23.231 17.2689 23.231C15.5961 23.231 14.4057 24.506 14.3913 26.3133C14.3841 27.1578 14.3913 28.0047 14.3913 28.9533C10.4913 28.9533 6.70652 28.9533 2.87374 28.9533C3.35854 36.3102 6.37052 42.2951 12.0273 46.9624C14.0049 48.5946 16.0017 50.2032 18.0248 51.7787C18.5552 52.1927 18.752 52.6185 18.728 53.2714C18.6776 54.5677 18.7112 55.8664 18.7112 57.2289ZM54.6798 28.8989C51.7902 28.8989 48.9607 28.8989 46.0735 28.8989C46.0735 27.9432 46.0831 27.0892 46.0711 26.2376C46.0495 24.506 44.8351 23.2381 43.2055 23.231C41.5615 23.2239 40.3375 24.48 40.3159 26.2116C40.3039 27.0892 40.3135 27.9645 40.3135 28.9344C37.3783 28.9344 34.5487 28.9344 31.6544 28.9344C31.6544 31.7991 31.6544 34.5668 31.6544 37.422C30.7592 37.422 29.9264 37.4197 29.096 37.422C27.2 37.4315 25.8968 38.6119 25.916 40.2962C25.9352 41.9332 27.236 43.0876 29.0792 43.0994C29.9336 43.1041 30.7904 43.0994 31.6736 43.0994C31.6736 45.5738 31.6736 47.9062 31.6736 50.2411C31.6736 52.5664 31.6736 54.8918 31.6736 57.2337C34.1215 57.2337 36.4687 57.2337 38.8735 57.2337C38.8735 55.8498 38.8999 54.5227 38.8615 53.198C38.8447 52.6185 39.0031 52.2234 39.4831 51.8496C41.2735 50.4587 43.0063 48.9991 44.7895 47.6035C48.1111 45.0061 50.7558 41.8882 52.503 38.0631C53.8158 35.1819 54.5478 32.1658 54.6798 28.8989ZM3.05134 26.02C5.85693 26.02 8.66251 26.02 11.4609 26.02C11.9241 22.6609 14.0121 20.539 16.9473 20.4018C18.3464 20.3355 19.6136 20.714 20.7344 21.5467C22.2416 22.6633 22.9256 24.2151 23.072 26.0058C25.0064 26.0058 26.876 26.0058 28.7552 26.0058C28.7552 24.5912 28.7552 23.2381 28.7552 21.8945C25.0208 21.2108 23 19.1362 23.036 16.0515C23.0696 13.052 25.1264 10.9987 28.7936 10.3741C28.7936 9.2434 28.7936 8.0961 28.7936 6.9488C28.7936 5.77548 28.7936 4.60452 28.7936 3.43829C14.9889 2.69314 3.55534 13.8586 3.05134 26.02ZM28.8464 60.1315C25.0976 60.1315 21.3464 60.1268 17.5977 60.1339C16.4817 60.1362 15.8169 60.6969 15.8385 61.584C15.8601 62.4403 16.5009 62.9655 17.5761 62.9678C25.0448 62.9725 32.5136 62.9702 39.9823 62.9702C40.1623 62.9702 40.3471 62.9844 40.5199 62.9465C41.2879 62.7762 41.7439 62.3031 41.7319 61.5177C41.7175 60.7773 41.2687 60.3184 40.5415 60.1646C40.2823 60.1102 40.0039 60.1339 39.7351 60.1339C36.1063 60.1315 32.4752 60.1315 28.8464 60.1315ZM35.7703 71.5359C31.0808 71.5359 26.4512 71.5359 21.8168 71.5359C22.3448 74.6939 25.388 77.1447 28.7456 77.1612C32.156 77.1778 35.2087 74.7531 35.7703 71.5359ZM28.772 68.6452C31.6208 68.6452 34.4719 68.657 37.3207 68.6381C38.2423 68.6334 38.8519 68.0443 38.8639 67.2448C38.8759 66.4405 38.2711 65.8207 37.3567 65.8183C31.6568 65.8041 25.9592 65.8112 20.2592 65.8112C19.5104 65.8112 18.992 66.159 18.7688 66.8615C18.4688 67.8101 19.2224 68.6381 20.4008 68.6428C23.1944 68.6546 25.9832 68.6475 28.772 68.6452Z" fill="#2C98B3"/>
                          </svg>