<svg width="53" height="53" viewBox="0 0 53 53" fill="none" xmlns="http://www.w3.org/2000/svg">
<path d="M43.0625 33.1244C41.9439 33.1288 40.8602 33.5144 39.9902 34.2175L36.4375 32.1687V29.5088C37.5426 29.1181 38.474 28.3493 39.067 27.3383C39.6601 26.3273 39.8767 25.1392 39.6784 23.984C39.4802 22.8288 38.88 21.7808 37.9839 21.0253C37.0877 20.2698 35.9534 19.8555 34.7813 19.8555C33.6091 19.8555 32.4748 20.2698 31.5786 21.0253C30.6825 21.7808 30.0823 22.8288 29.8841 23.984C29.6859 25.1392 29.9024 26.3273 30.4955 27.3383C31.0886 28.3493 32.0199 29.1181 33.125 29.5088V32.1687L29.5723 34.2208C28.7028 33.5165 27.619 33.1298 26.5 33.1244C25.4618 33.1174 24.4472 33.4336 23.5968 34.0291C22.7464 34.6247 22.1024 35.4701 21.7541 36.4482C21.4059 37.4262 21.3705 38.4884 21.6531 39.4874C21.9356 40.4864 22.522 41.3728 23.331 42.0235C24.1399 42.6742 25.1313 43.0572 26.1676 43.1191C27.204 43.1811 28.2339 42.919 29.1147 42.3693C29.9954 41.8196 30.6832 41.0094 31.0828 40.0512C31.4823 39.0929 31.5738 38.0341 31.3445 37.0216L34.7813 35.0357L38.218 37.0199C37.9964 38.024 38.092 39.072 38.4916 40.0195C38.8912 40.9669 39.575 41.7669 40.4487 42.309C41.3224 42.8511 42.3428 43.1087 43.3691 43.0461C44.3955 42.9834 45.377 42.6038 46.1783 41.9594C46.9796 41.3151 47.5611 40.4379 47.8426 39.449C48.124 38.46 48.0915 37.4081 47.7495 36.4384C47.4076 35.4687 46.773 34.6291 45.9334 34.0355C45.0939 33.4419 44.0907 33.1235 43.0625 33.1244ZM26.5 39.7494C26.1724 39.7494 25.8522 39.6523 25.5798 39.4703C25.3075 39.2883 25.0952 39.0296 24.9698 38.727C24.8445 38.4243 24.8117 38.0913 24.8756 37.77C24.9395 37.4487 25.0972 37.1536 25.3289 36.922C25.5605 36.6904 25.8556 36.5326 26.1769 36.4687C26.4982 36.4048 26.8312 36.4376 27.1338 36.563C27.4365 36.6883 27.6951 36.9006 27.8771 37.173C28.0591 37.4454 28.1563 37.7656 28.1563 38.0931C28.1563 38.5324 27.9818 38.9537 27.6712 39.2643C27.3605 39.5749 26.9393 39.7494 26.5 39.7494ZM34.7813 23.1869C35.1088 23.1869 35.429 23.284 35.7014 23.466C35.9738 23.648 36.1861 23.9067 36.3114 24.2093C36.4368 24.512 36.4696 24.845 36.4057 25.1663C36.3418 25.4875 36.184 25.7827 35.9524 26.0143C35.7208 26.2459 35.4257 26.4037 35.1044 26.4676C34.7831 26.5315 34.4501 26.4987 34.1474 26.3733C33.8448 26.248 33.5861 26.0357 33.4041 25.7633C33.2221 25.4909 33.125 25.1707 33.125 24.8431C33.125 24.4039 33.2995 23.9826 33.6101 23.672C33.9207 23.3614 34.342 23.1869 34.7813 23.1869ZM43.0625 39.7494C42.7349 39.7494 42.4147 39.6523 42.1423 39.4703C41.87 39.2883 41.6577 39.0296 41.5323 38.727C41.407 38.4243 41.3742 38.0913 41.4381 37.77C41.502 37.4487 41.6597 37.1536 41.8914 36.922C42.123 36.6904 42.4181 36.5326 42.7394 36.4687C43.0607 36.4048 43.3937 36.4376 43.6963 36.563C43.999 36.6883 44.2576 36.9006 44.4396 37.173C44.6216 37.4454 44.7188 37.7656 44.7188 38.0931C44.7188 38.5324 44.5443 38.9537 44.2337 39.2643C43.923 39.5749 43.5018 39.7494 43.0625 39.7494Z" fill="white"/>
<path d="M26.5 51.3439C21.6697 51.3386 17.0387 49.4175 13.6232 46.0019C10.2077 42.5864 8.28651 37.9554 8.28125 33.1251V10.5703L26.4785 1.46094L43.8028 10.1347L42.3205 13.0961L26.4785 5.16431L11.5938 12.6174V33.1251C11.5934 35.8935 12.3641 38.6073 13.8193 40.9624C15.2746 43.3175 17.3569 45.2208 19.833 46.459C22.3091 47.6972 25.081 48.2214 27.8383 47.9728C30.5955 47.7243 33.229 46.7128 35.4437 45.0518L37.4313 47.7001C34.2829 50.0753 30.4438 51.355 26.5 51.3439Z" fill="white"/>
</svg>
