<svg width="327" height="266" viewBox="0 0 327 266" fill="none" xmlns="http://www.w3.org/2000/svg">
<g clip-path="url(#clip0_6032_132489)">
<mask id="mask0_6032_132489" style="mask-type:luminance" maskUnits="userSpaceOnUse" x="-45" y="-72" width="414" height="416">
<path d="M368.643 113.111L181.002 -71.0527L-44.9909 159.206L142.65 343.37L368.643 113.111Z" fill="white"/>
</mask>
<g mask="url(#mask0_6032_132489)">
<path d="M103.048 219.338C142.15 257.715 204.959 257.128 243.336 218.026C281.714 178.924 281.126 116.115 242.025 77.738C202.923 39.3609 140.114 39.9482 101.736 79.0498C63.3591 118.151 63.9464 180.961 103.048 219.338Z" fill="#F2631C" stroke="#21313E" stroke-width="0.68114" stroke-miterlimit="10"/>
</g>
<path d="M1.15371 206.858C15.5868 200.926 31.1758 194.786 38.4831 192.415C55.8615 186.776 67.5716 186.129 75.5828 187.661C83.6009 189.194 120.082 210.003 128.143 216.215C136.205 222.427 141.794 222.749 146.868 219.064C155.637 212.695 188.799 193.387 192.186 189.2C195.574 185.013 202.27 167.554 203.351 160.814C204.432 154.067 209.242 147.592 196.83 135.767C184.85 124.353 170.583 109.399 167.729 110.202C167.729 110.202 164.307 110.663 162.615 113.281C162.615 113.281 149.088 103.183 145.675 104.625C142.263 106.067 141.739 111.235 142.042 113.078C142.042 113.078 135.149 109.444 130.302 110.545C125.456 111.653 126.144 124.078 146.307 126.314C146.307 126.314 147.677 135.157 148.406 136.581C148.406 136.581 141.837 137.071 133.957 134.284C126.071 131.504 123.555 129.81 110.907 129.282C98.26 128.76 65.9349 132.747 59.745 135.141C55.7609 136.677 27.281 141.037 0.574398 144.175L1.16053 206.858L1.15371 206.858Z" fill="#E2C5AF" stroke="#21313E" stroke-width="1.36228" stroke-miterlimit="10" stroke-linecap="round" stroke-linejoin="round"/>
<rect width="81.9063" height="59.5684" rx="2.47476" transform="matrix(0.385843 0.922565 -0.922565 0.385841 227.664 76.7559)" fill="#FFBC00"/>
<rect width="81.9063" height="59.5684" rx="2.47476" transform="matrix(0.261604 0.965175 -0.965176 0.261602 234.021 78.7109)" fill="#FFBC00" fill-opacity="0.2"/>
<path d="M255.985 152.926L231.393 80.2563C230.955 78.9616 229.55 78.2673 228.255 78.7054L176.977 96.0583C175.682 96.4964 174.988 97.9011 175.426 99.1958L200.017 171.865C200.455 173.16 201.86 173.854 203.155 173.416L254.434 156.063C255.728 155.625 256.423 154.22 255.985 152.926Z" fill="url(#paint0_radial_6032_132489)"/>
<path d="M234.888 132.942C234.907 132.999 234.922 133.054 234.936 133.112C235.031 133.433 235.12 133.766 235.205 134.107C235.411 134.91 235.585 135.71 235.722 136.5C235.916 137.613 237.033 138.307 238.106 137.944C238.934 137.664 239.458 136.841 239.34 135.971C239.197 134.921 238.985 133.85 238.706 132.769C238.556 132.18 238.381 131.564 238.182 130.935C238.128 130.767 238.071 130.599 238.008 130.411C237.023 127.481 235.62 124.595 233.844 121.836C232.035 119.021 229.893 116.449 227.588 114.322C227.099 113.871 226.401 113.738 225.769 113.948L195.036 124.285C193.783 124.706 193.371 126.284 194.271 127.252C195.921 129.028 197.457 131.006 198.81 133.115C200.308 135.446 201.562 137.882 202.538 140.353C202.538 140.353 202.546 140.377 202.55 140.389C202.558 140.412 202.568 140.432 202.575 140.453C202.69 140.744 202.798 141.034 202.905 141.328C202.988 141.556 203.236 141.678 203.466 141.6L204.791 141.155C205.793 140.82 206.3 139.709 205.908 138.729C204.864 136.125 203.539 133.567 201.953 131.096C201.249 129.999 200.517 128.958 199.782 127.998L199.329 127.405C199.143 127.162 199.25 126.809 199.54 126.711L200.245 126.472C200.463 126.398 200.678 126.326 200.897 126.252C201.488 126.052 202.078 125.855 202.67 125.655C203.546 125.362 204.422 125.066 205.298 124.772C206.372 124.412 207.442 124.05 208.512 123.691C209.691 123.296 210.868 122.897 212.049 122.501C213.245 122.1 214.441 121.695 215.64 121.293C216.764 120.915 217.891 120.534 219.015 120.157C219.982 119.833 220.947 119.507 221.91 119.184C222.436 119.006 222.994 118.844 223.525 118.654C224.051 118.466 224.565 118.172 225.124 118.093C225.71 118.015 226.29 118.261 226.69 118.686C226.872 118.88 227.053 119.079 227.233 119.278C227.593 119.682 227.945 120.092 228.286 120.51C228.98 121.361 229.633 122.245 230.247 123.153C230.401 123.384 230.556 123.615 230.705 123.848C231.998 125.858 233.071 127.939 233.895 130.028C233.913 130.072 233.928 130.106 233.938 130.136C234.129 130.621 234.308 131.11 234.473 131.597C234.533 131.777 234.59 131.954 234.647 132.131L234.655 132.155C234.738 132.42 234.816 132.68 234.888 132.942Z" fill="url(#paint1_radial_6032_132489)"/>
<path d="M234.545 139.518C234.27 138.706 234.031 137.891 233.825 137.095C233.578 136.129 233.375 135.155 233.222 134.201C233.22 134.195 233.221 134.188 233.219 134.182C233.081 133.3 232.196 132.744 231.347 133.028L201.106 143.198C199.749 143.654 198.92 145.034 199.165 146.446C199.425 147.933 199.816 149.463 200.34 151.02C201.324 153.948 202.723 156.831 204.502 159.599C206.174 162.197 208.133 164.591 210.238 166.62C211.019 167.374 212.159 167.622 213.188 167.277L241.152 157.87C243.104 157.213 243.765 154.795 242.424 153.234C241.162 151.769 239.981 150.187 238.913 148.527C237.053 145.63 235.581 142.598 234.545 139.518ZM238.571 153.442C238.978 153.974 238.741 154.75 238.103 154.962C237.413 155.196 236.725 155.425 236.035 155.659C234.324 156.234 232.614 156.81 230.904 157.385C228.734 158.116 226.562 158.844 224.392 159.575C222.32 160.273 220.247 160.968 218.179 161.665C216.767 162.139 215.356 162.613 213.942 163.089C213.607 163.202 213.283 163.358 212.938 163.438C212.487 163.544 212.34 163.464 212.032 163.142C210.429 161.487 208.953 159.615 207.644 157.577C206.03 155.072 204.766 152.467 203.877 149.83C203.668 149.215 203.491 148.592 203.31 147.967C203.205 147.6 202.761 146.761 203.144 146.455C203.346 146.293 203.655 146.272 203.897 146.19C203.897 146.19 206.214 145.409 206.211 145.42L229.673 137.53C230.208 137.349 230.786 137.66 230.931 138.207C231.126 138.94 231.353 139.689 231.623 140.497C232.759 143.873 234.362 147.183 236.391 150.336C237.082 151.402 237.814 152.446 238.571 153.442Z" fill="url(#paint2_radial_6032_132489)"/>
<path d="M244.972 153.912C245.48 155.306 247.019 156.024 248.412 155.516C249.806 155.008 250.524 153.469 250.016 152.076C249.507 150.683 247.969 149.964 246.576 150.472C245.182 150.981 244.464 152.519 244.972 153.912Z" fill="url(#paint3_radial_6032_132489)"/>
<path d="M233.955 137.373C233.943 137.341 233.926 137.33 233.888 137.333L233.782 137.335L233.858 137.559L233.776 137.564L233.7 137.34L233.562 137.346C233.526 137.348 233.518 137.361 233.529 137.394L233.599 137.603L233.517 137.615C233.487 137.548 233.459 137.464 233.434 137.39C233.403 137.297 233.44 137.251 233.525 137.246L233.886 137.23C233.955 137.227 234.011 137.264 234.036 137.339C234.064 137.423 234.094 137.509 234.109 137.584L234.026 137.586L233.955 137.373Z" fill="white"/>
<path d="M234.038 138.215L233.716 138.228L233.684 138.132L233.976 138.12C234.025 138.116 234.036 138.109 234.023 138.081C234.008 138.039 233.965 138 233.894 137.947L233.625 137.959L233.593 137.863L234.024 137.847L234.05 137.925L233.964 137.937C234.052 137.991 234.103 138.043 234.124 138.103C234.145 138.166 234.117 138.212 234.038 138.215Z" fill="white"/>
<path d="M233.982 138.616C233.946 138.618 233.939 138.627 233.951 138.663L233.969 138.717L233.896 138.735C233.877 138.708 233.856 138.658 233.849 138.638C233.825 138.566 233.858 138.525 233.94 138.52L234.176 138.51L234.152 138.439L234.224 138.434L234.252 138.508L234.376 138.502L234.409 138.598L234.284 138.604L234.323 138.717L234.244 138.721L234.204 138.604L233.982 138.616Z" fill="white"/>
<path d="M234.397 139.211L234.388 139.184C234.375 139.145 234.335 139.108 234.27 139.054L234.001 139.065L233.969 138.969L234.4 138.954L234.425 139.028L234.336 139.042C234.419 139.09 234.474 139.145 234.491 139.196L234.499 139.216L234.397 139.211Z" fill="white"/>
<path d="M234.547 139.793C234.461 139.795 234.414 139.755 234.373 139.655L234.322 139.533C234.253 139.546 234.248 139.581 234.266 139.635C234.281 139.677 234.304 139.735 234.326 139.781L234.262 139.799C234.227 139.755 234.198 139.688 234.181 139.637C234.132 139.494 234.192 139.434 234.349 139.427C234.517 139.42 234.583 139.468 234.631 139.611C234.679 139.752 234.632 139.791 234.547 139.793ZM234.547 139.616C234.523 139.548 234.493 139.528 234.391 139.529L234.438 139.64C234.456 139.684 234.475 139.701 234.521 139.698C234.572 139.691 234.566 139.673 234.547 139.616Z" fill="white"/>
<path d="M234.666 140.419C234.47 140.429 234.425 140.364 234.392 140.269C234.381 140.236 234.369 140.19 234.364 140.145C234.339 140.15 234.313 140.152 234.283 140.152L234.194 140.156L234.161 140.057L234.762 140.034L234.789 140.111L234.706 140.123C234.768 140.158 234.834 140.216 234.853 140.273C234.885 140.365 234.847 140.411 234.666 140.419ZM234.759 140.261C234.749 140.231 234.703 140.183 234.635 140.14L234.438 140.147L234.462 140.218C234.493 140.311 234.514 140.324 234.642 140.317C234.758 140.315 234.774 140.303 234.759 140.261Z" fill="white"/>
<path d="M234.969 140.924L234.96 140.897C234.947 140.858 234.908 140.821 234.843 140.767L234.573 140.778L234.541 140.682L234.972 140.666L234.997 140.741L234.908 140.755C234.991 140.803 235.047 140.858 235.064 140.908L235.071 140.929L234.969 140.924Z" fill="white"/>
<path d="M235.123 141.508C235.037 141.51 234.99 141.47 234.949 141.37L234.898 141.248C234.829 141.261 234.824 141.296 234.843 141.35C234.857 141.391 234.88 141.45 234.902 141.496L234.838 141.514C234.803 141.469 234.774 141.403 234.757 141.352C234.708 141.209 234.768 141.148 234.926 141.142C235.093 141.135 235.159 141.183 235.208 141.326C235.254 141.463 235.207 141.503 235.123 141.508ZM235.122 141.328C235.099 141.26 235.069 141.24 234.966 141.241L235.013 141.352C235.031 141.396 235.05 141.412 235.096 141.41C235.148 141.406 235.141 141.385 235.122 141.328Z" fill="white"/>
<path d="M235.351 142.118L235.029 142.13L234.996 142.034L235.288 142.022C235.337 142.019 235.348 142.012 235.335 141.983C235.321 141.941 235.278 141.902 235.207 141.85L234.938 141.861L234.905 141.765L235.336 141.749L235.362 141.827L235.277 141.84C235.365 141.893 235.416 141.946 235.435 142.002C235.457 142.068 235.431 142.117 235.351 142.118Z" fill="white"/>
<path d="M235.535 142.732C235.449 142.735 235.402 142.694 235.362 142.595L235.31 142.472C235.241 142.485 235.237 142.52 235.255 142.574C235.269 142.616 235.292 142.675 235.314 142.721L235.251 142.739C235.215 142.694 235.186 142.627 235.169 142.577C235.12 142.433 235.18 142.373 235.338 142.366C235.505 142.36 235.571 142.407 235.62 142.551C235.667 142.691 235.621 142.73 235.535 142.732ZM235.535 142.556C235.512 142.487 235.482 142.467 235.379 142.469L235.426 142.579C235.445 142.623 235.464 142.64 235.509 142.638C235.561 142.634 235.554 142.613 235.535 142.556Z" fill="white"/>
<path d="M235.441 143.349L235.416 143.275L235.498 143.263C235.414 143.212 235.368 143.164 235.348 143.104C235.323 143.03 235.359 142.99 235.432 142.989L235.754 142.977L235.787 143.072L235.495 143.085C235.452 143.086 235.439 143.097 235.449 143.127C235.463 143.169 235.499 143.196 235.573 143.248L235.842 143.237L235.875 143.332L235.441 143.349Z" fill="white"/>
<path d="M235.957 143.855L235.948 143.829C235.935 143.79 235.896 143.753 235.831 143.698L235.562 143.71L235.529 143.614L235.96 143.598L235.985 143.673L235.897 143.686C235.98 143.735 236.035 143.789 236.052 143.84L236.059 143.861L235.957 143.855Z" fill="white"/>
<path d="M235.692 144.104L236.123 144.088L236.155 144.184L235.726 144.203L235.692 144.104ZM236.334 144.15C236.34 144.168 236.331 144.181 236.311 144.181L236.262 144.184C236.242 144.184 236.23 144.179 236.223 144.158L236.208 144.113C236.202 144.095 236.211 144.082 236.231 144.082L236.277 144.08C236.296 144.076 236.309 144.085 236.315 144.103L236.334 144.15Z" fill="white"/>
<path d="M236.357 144.816L235.939 144.831L235.912 144.753L235.982 144.743C235.922 144.713 235.872 144.664 235.845 144.593C235.813 144.497 235.857 144.452 236.032 144.447C236.232 144.439 236.274 144.504 236.311 144.612C236.334 144.671 236.351 144.761 236.357 144.816ZM236.07 144.727L236.261 144.722L236.237 144.65C236.207 144.56 236.188 144.544 236.06 144.55C235.939 144.555 235.926 144.566 235.94 144.608C235.959 144.654 236 144.687 236.07 144.727Z" fill="white"/>
<path d="M236.194 145.187C236.158 145.189 236.151 145.198 236.163 145.234L236.175 145.27L236.101 145.288C236.086 145.273 236.067 145.227 236.061 145.209C236.039 145.143 236.067 145.097 236.145 145.094L236.651 145.072L236.683 145.168L236.194 145.187Z" fill="white"/>
<path d="M236.499 146.406C236.478 146.403 236.464 146.391 236.458 146.374L236.424 146.272C236.417 146.254 236.427 146.234 236.443 146.232L236.84 146.144C236.862 146.14 236.883 146.133 236.906 146.132L236.901 146.117C236.877 146.115 236.849 146.111 236.825 146.11L236.378 146.058C236.357 146.055 236.343 146.043 236.337 146.025L236.302 145.923C236.296 145.905 236.306 145.885 236.322 145.883L236.861 145.764L236.896 145.866L236.474 145.949C236.449 145.954 236.424 145.959 236.395 145.962L236.401 145.98C236.432 145.983 236.463 145.985 236.491 145.989L236.921 146.04C236.942 146.043 236.959 146.054 236.966 146.075L236.999 146.171C237.005 146.188 236.994 146.205 236.975 146.209L236.592 146.298C236.567 146.303 236.539 146.309 236.515 146.314L236.521 146.332C236.548 146.333 236.581 146.335 236.609 146.339L237.071 146.386L237.107 146.49L236.499 146.406Z" fill="white"/>
<path d="M236.909 147.09C236.748 147.095 236.669 147.048 236.622 146.911C236.577 146.776 236.617 146.709 236.785 146.702C236.946 146.698 237.025 146.744 237.073 146.885C237.121 147.018 237.077 147.083 236.909 147.09ZM236.816 146.805C236.707 146.808 236.684 146.829 236.708 146.898C236.733 146.973 236.773 146.993 236.885 146.988C236.993 146.985 237.016 146.964 236.993 146.895C236.969 146.823 236.934 146.798 236.816 146.805Z" fill="white"/>
<path d="M237.307 147.93L236.985 147.942L236.953 147.846L237.245 147.834C237.291 147.832 237.299 147.816 237.291 147.792C237.28 147.759 237.255 147.734 237.171 147.683L236.901 147.694L236.87 147.601L237.162 147.589C237.205 147.588 237.218 147.577 237.208 147.547C237.196 147.511 237.168 147.487 237.091 147.437L236.818 147.449L236.786 147.353L237.217 147.337L237.242 147.412L237.159 147.423C237.245 147.471 237.291 147.516 237.309 147.569C237.329 147.629 237.305 147.667 237.255 147.677C237.334 147.724 237.376 147.767 237.393 147.817C237.416 147.886 237.38 147.928 237.307 147.93Z" fill="white"/>
<path d="M237.492 148.545C237.406 148.547 237.359 148.507 237.319 148.407L237.267 148.285C237.198 148.298 237.194 148.333 237.212 148.387C237.226 148.428 237.249 148.487 237.271 148.533L237.208 148.551C237.172 148.507 237.143 148.44 237.126 148.389C237.077 148.246 237.137 148.185 237.295 148.179C237.462 148.172 237.528 148.22 237.577 148.363C237.62 148.502 237.578 148.543 237.492 148.545ZM237.491 148.365C237.468 148.297 237.438 148.277 237.335 148.278L237.382 148.389C237.401 148.433 237.42 148.45 237.465 148.447C237.514 148.444 237.51 148.422 237.491 148.365Z" fill="white"/>
<path d="M237.72 149.157L237.398 149.169L237.365 149.073L237.658 149.061C237.706 149.058 237.717 149.051 237.704 149.022C237.69 148.98 237.647 148.941 237.576 148.889L237.307 148.9L237.274 148.804L237.705 148.789L237.732 148.866L237.646 148.879C237.734 148.932 237.785 148.985 237.805 149.044C237.825 149.104 237.799 149.153 237.72 149.157Z" fill="white"/>
<path d="M239.785 135.493C239.543 135.918 239.797 136.315 240.004 136.711C240.272 137.227 239.894 137.841 239.315 137.833L238.686 137.826C239.252 137.115 238.337 136.509 238.36 135.839C238.369 135.579 238.59 135.375 238.849 135.374C239.118 135.372 239.503 135.369 239.716 135.367C239.78 135.368 239.816 135.436 239.785 135.493Z" fill="#333232"/>
<path d="M236.761 141.979C236.769 141.963 236.763 141.945 236.747 141.937L236.443 141.787L236.594 141.483C236.601 141.467 236.594 141.446 236.578 141.438L236.198 141.251C236.182 141.243 236.165 141.249 236.157 141.265L235.969 141.645C235.961 141.661 235.968 141.682 235.984 141.69L236.288 141.84L236.138 142.144C236.13 142.16 236.136 142.178 236.152 142.186L236.532 142.373C236.548 142.381 236.566 142.375 236.574 142.359L236.761 141.979Z" fill="white"/>
<path d="M237.919 138.589C237.911 138.605 237.917 138.623 237.933 138.631L238.237 138.781L238.087 139.085C238.079 139.101 238.085 139.119 238.101 139.127L238.482 139.318C238.498 139.326 238.516 139.319 238.524 139.303L238.712 138.924C238.72 138.908 238.713 138.89 238.697 138.882L238.393 138.731L238.544 138.428C238.552 138.412 238.546 138.394 238.53 138.386L238.15 138.198C238.134 138.19 238.116 138.196 238.108 138.212L237.919 138.589Z" fill="white"/>
<path d="M238.157 146.132C238.165 146.116 238.158 146.098 238.142 146.09L237.855 145.948L237.997 145.66C238.005 145.644 237.999 145.626 237.983 145.618L237.603 145.43C237.587 145.422 237.569 145.428 237.561 145.444L237.373 145.824C237.365 145.84 237.371 145.858 237.387 145.866L237.675 146.009L237.533 146.297C237.525 146.313 237.531 146.33 237.547 146.338L237.927 146.526C237.943 146.534 237.961 146.528 237.969 146.512L238.157 146.132Z" fill="white"/>
<path d="M238.75 146.737C238.756 146.755 238.762 146.773 238.768 146.791C238.821 146.946 238.964 147.074 239.105 147.156C239.28 147.26 239.471 147.292 239.671 147.304C239.892 147.316 240.113 147.321 240.334 147.323C240.627 147.324 240.919 147.322 241.212 147.319C241.595 147.32 241.951 147.299 242.24 147.594C242.229 147.431 242.175 147.283 242.096 147.157C241.945 146.928 241.697 146.775 241.397 146.754C241.376 146.751 241.353 146.752 241.332 146.749C240.933 146.731 240.533 146.76 240.136 146.768C239.812 146.774 239.477 146.798 239.163 146.707C239.056 146.677 238.961 146.642 238.881 146.563C238.785 146.465 238.753 146.323 238.714 146.196C238.667 146.059 238.624 145.921 238.577 145.783C238.653 145.851 238.746 145.899 238.844 145.933C239.054 146.001 239.279 145.998 239.495 146.005C239.686 146.01 239.877 146.013 240.071 146.014C240.736 146.012 241.401 146.04 242.064 146.059C242.34 146.068 242.621 146.053 242.899 146.076C243.016 146.086 243.128 146.105 243.236 146.148C243.294 146.172 243.521 146.271 243.529 146.342C243.517 146.18 243.463 146.031 243.384 145.905C243.233 145.676 242.985 145.524 242.685 145.502C242.664 145.499 242.641 145.5 242.62 145.497C242.092 145.473 241.561 145.489 241.035 145.478C240.32 145.463 239.605 145.475 238.892 145.424C238.703 145.397 238.516 145.337 238.36 145.23L238.211 145.104L238.216 145.119L238.308 145.391L238.393 145.642C238.395 145.648 238.396 145.651 238.398 145.657C238.402 145.669 238.407 145.684 238.411 145.696C238.418 145.717 238.424 145.735 238.431 145.756C238.44 145.783 238.449 145.807 238.458 145.834C238.468 145.863 238.479 145.896 238.489 145.926C238.5 145.959 238.512 145.995 238.523 146.028C238.536 146.064 238.548 146.099 238.561 146.138C238.574 146.177 238.586 146.213 238.599 146.252C238.611 146.288 238.625 146.327 238.637 146.362C238.649 146.398 238.661 146.434 238.673 146.47C238.684 146.503 238.695 146.536 238.706 146.569C238.717 146.598 238.726 146.625 238.736 146.655C238.734 146.689 238.742 146.713 238.75 146.737Z" fill="white"/>
<path d="M238.919 143.122C239.213 143.123 239.14 143.124 239.433 143.125C239.816 143.125 240.172 143.104 240.462 143.399C240.45 143.237 240.397 143.088 240.317 142.962C240.166 142.733 239.918 142.581 239.618 142.559C239.597 142.556 239.574 142.557 239.553 142.554C239.154 142.536 239.118 142.558 238.719 142.57C238.395 142.577 238.06 142.6 237.746 142.51C237.639 142.479 237.545 142.445 237.464 142.365C237.368 142.268 237.337 142.126 237.297 141.999C237.251 141.862 237.207 141.723 237.161 141.586C237.237 141.653 237.33 141.702 237.428 141.735C237.637 141.804 237.863 141.801 238.078 141.808C238.27 141.813 238.46 141.815 238.654 141.816C239.319 141.814 240.356 141.856 241.019 141.878C241.296 141.888 241.577 141.873 241.854 141.896C241.971 141.906 242.084 141.924 242.192 141.968C242.25 141.992 242.477 142.091 242.484 142.162C242.472 141.999 242.419 141.851 242.34 141.725C242.189 141.496 241.941 141.344 241.64 141.322C241.619 141.319 241.596 141.32 241.576 141.317C241.048 141.293 240.145 141.292 239.615 141.281C238.901 141.267 238.186 141.279 237.472 141.227C237.284 141.201 237.097 141.141 236.941 141.034L236.791 140.908L236.796 140.923L236.888 141.195L236.973 141.446C236.975 141.452 236.976 141.455 236.978 141.461C236.982 141.473 236.988 141.488 236.992 141.5C236.999 141.521 237.005 141.539 237.012 141.559C237.021 141.586 237.029 141.61 237.038 141.637C237.048 141.667 237.059 141.7 237.069 141.73C237.081 141.763 237.093 141.799 237.104 141.831C237.116 141.867 237.128 141.903 237.141 141.942C237.154 141.981 237.167 142.017 237.18 142.056C237.192 142.091 237.205 142.13 237.217 142.166C237.229 142.202 237.241 142.238 237.253 142.274C237.265 142.307 237.276 142.339 237.287 142.372C237.297 142.402 237.306 142.429 237.316 142.459C237.324 142.483 237.332 142.507 237.34 142.531C237.347 142.549 237.353 142.566 237.359 142.584C237.411 142.74 237.554 142.868 237.695 142.95C237.871 143.054 238.061 143.086 238.262 143.098C238.478 143.118 238.699 143.12 238.919 143.122Z" fill="white"/>
<path d="M239.633 144.846C239.804 144.881 239.97 144.958 240.085 145.089C240.082 144.993 240.058 144.902 240.026 144.816C239.948 144.616 239.796 144.444 239.602 144.353C239.507 144.309 239.408 144.279 239.306 144.264C239.095 144.232 238.877 144.256 238.662 144.252C238.472 144.249 238.219 144.232 238.07 144.096C238.003 144.035 237.976 143.964 237.944 143.882C237.902 143.776 237.866 143.669 237.824 143.566C237.783 143.464 237.754 143.35 237.685 143.263C237.674 143.251 237.663 143.238 237.652 143.225C237.62 143.189 237.583 143.158 237.544 143.131C237.699 143.599 237.677 143.546 237.832 144.013C237.85 144.067 237.869 144.121 237.89 144.173C237.931 144.286 237.984 144.391 238.058 144.483C238.213 144.667 238.444 144.758 238.679 144.792C238.924 144.829 239.172 144.792 239.417 144.819C239.494 144.819 239.568 144.831 239.633 144.846Z" fill="white"/>
<path d="M241.212 148.232C240.932 148.213 240.651 148.228 240.369 148.221C240.329 148.221 240.285 148.219 240.245 148.219C240.168 148.218 240.092 148.218 240.014 148.214C239.899 148.21 239.786 148.201 239.669 148.191C239.522 148.178 239.379 148.149 239.242 148.099C239.109 148.051 238.983 147.983 238.869 147.902C238.727 147.797 238.603 147.666 238.5 147.521C238.447 147.442 238.4 147.362 238.359 147.279C238.324 147.207 238.294 147.138 238.266 147.064C238.25 147.026 238.238 146.99 238.224 146.951C238.213 146.919 238.199 146.887 238.172 146.866C238.121 146.823 238.034 146.843 237.983 146.887C238.141 147.346 238.268 147.679 238.588 148.047C239.197 148.744 240.031 148.798 240.883 148.796C240.954 148.798 241.028 148.8 241.101 148.799C241.46 148.797 241.81 148.818 242.095 149.108C242.057 148.622 241.695 148.261 241.212 148.232Z" fill="white"/>
<path d="M238.921 140.517C239.304 140.518 239.66 140.497 239.95 140.792C239.938 140.629 239.884 140.481 239.805 140.355C239.654 140.126 239.406 139.973 239.106 139.952C239.085 139.949 239.062 139.95 239.041 139.947C238.642 139.929 238.242 139.958 237.845 139.966C237.521 139.972 237.186 139.996 236.872 139.905C236.765 139.875 236.67 139.84 236.59 139.761C236.494 139.664 236.462 139.521 236.423 139.395C236.376 139.257 235.778 137.468 235.731 137.331C235.807 137.398 235.9 137.447 235.998 137.48C236.208 137.549 236.433 137.546 236.649 137.553C236.841 137.558 237.195 137.561 237.431 137.561C237.814 137.562 238.17 137.541 238.46 137.836C238.448 137.673 238.395 137.525 238.315 137.399C238.165 137.17 237.916 137.018 237.616 136.996C237.595 136.993 237.572 136.994 237.551 136.991C237.152 136.973 237.249 136.994 236.852 137.001C236.588 137.008 236.319 137.022 236.058 136.977L236.046 136.971C236.007 136.964 235.968 136.958 235.929 136.951C235.911 136.947 235.896 136.942 235.878 136.938C235.747 136.906 235.622 136.851 235.511 136.779L235.362 136.653L235.459 136.94L235.544 137.191L235.549 137.206L235.562 137.245L235.582 137.304L235.609 137.382L235.64 137.475L235.674 137.576L235.925 138.317C236.085 138.79 236.261 139.319 236.267 139.337C236.28 139.376 236.292 139.412 236.306 139.451C236.318 139.487 236.331 139.526 236.343 139.561C236.355 139.597 236.367 139.633 236.379 139.669C236.39 139.702 236.402 139.735 236.413 139.768C236.423 139.798 236.432 139.824 236.442 139.854C236.45 139.878 236.458 139.902 236.466 139.926C236.472 139.944 236.478 139.962 236.484 139.98C236.537 140.135 236.68 140.263 236.821 140.345C236.996 140.449 237.187 140.481 237.388 140.493C237.608 140.505 237.83 140.51 238.05 140.512C238.337 140.525 238.632 140.519 238.921 140.517Z" fill="white"/>
<path d="M239.296 136.13C239.285 136.097 239.268 136.086 239.229 136.089L239.12 136.093L239.198 136.323L239.113 136.328L239.035 136.098L238.895 136.106C238.856 136.109 238.846 136.119 238.858 136.155L238.93 136.367L238.847 136.378C238.817 136.308 238.787 136.222 238.762 136.147C238.73 136.051 238.769 136.001 238.855 135.999L239.226 135.983C239.298 135.979 239.354 136.017 239.38 136.094C239.41 136.181 239.44 136.271 239.455 136.345L239.37 136.348L239.296 136.13Z" fill="white"/>
<path d="M239.133 137.157C239.112 137.154 239.098 137.142 239.091 137.121L239.056 137.016C239.05 136.998 239.06 136.978 239.079 136.975L239.488 136.887C239.51 136.882 239.534 136.874 239.557 136.873L239.551 136.855C239.527 136.853 239.496 136.851 239.472 136.849L239.015 136.797C238.994 136.794 238.98 136.782 238.973 136.761L238.938 136.657C238.931 136.639 238.941 136.619 238.959 136.613L239.513 136.488L239.549 136.593L239.114 136.677C239.089 136.682 239.064 136.687 239.032 136.691L239.039 136.709C239.069 136.712 239.103 136.714 239.131 136.718L239.571 136.768C239.592 136.771 239.609 136.782 239.617 136.803L239.65 136.902C239.657 136.923 239.645 136.937 239.623 136.941L239.229 137.034C239.201 137.04 239.176 137.046 239.148 137.052L239.154 137.07C239.181 137.071 239.215 137.072 239.246 137.075L239.721 137.121L239.757 137.228L239.133 137.157Z" fill="white"/>
<path d="M220.643 87.5655L220.67 87.5763C220.762 87.6118 220.816 87.7033 220.798 87.7992C220.768 87.9459 220.77 88.0986 220.818 88.242C220.883 88.4332 220.991 88.4966 221.09 88.4632C221.236 88.4137 221.229 88.283 221.243 88.0685L221.262 87.7721C221.268 87.5237 221.365 87.2679 221.654 87.1698C221.983 87.0586 222.362 87.2633 222.53 87.6895C222.595 87.8538 222.614 88.0373 222.583 88.211C222.561 88.3318 222.432 88.4052 222.311 88.3629C222.217 88.3314 222.16 88.2409 222.172 88.147C222.184 88.0363 222.175 87.9296 222.123 87.7971C222.067 87.6497 221.968 87.5734 221.851 87.6128C221.731 87.6533 221.735 87.8019 221.733 88.0124L221.716 88.2878C221.712 88.5791 221.603 88.799 221.31 88.8981C220.967 89.0144 220.577 88.8366 220.413 88.3426C220.346 88.1454 220.331 87.924 220.376 87.7123C220.395 87.5925 220.525 87.5221 220.643 87.5655Z" fill="white"/>
<path d="M220.376 88.9749L220.725 89.8491C220.762 89.9397 220.717 90.0417 220.624 90.073C220.531 90.1044 220.426 90.057 220.388 89.9664L220.197 89.5084C220.159 89.4178 220.05 89.3714 219.952 89.4047L219.931 89.4118C219.835 89.4442 219.79 89.5461 219.827 89.6367L219.975 89.9762C220.016 90.0658 219.97 90.1678 219.878 90.1991C219.785 90.2305 219.676 90.1841 219.633 90.0955L219.478 89.758C219.438 89.6684 219.326 89.6231 219.231 89.6554L219.156 89.6807C219.06 89.7131 219.015 89.815 219.058 89.9036L219.287 90.3824C219.33 90.471 219.291 90.5709 219.195 90.6033C219.102 90.6346 218.99 90.5892 218.947 90.5006L218.511 89.6258C218.468 89.5372 218.51 89.4362 218.609 89.4029L220.13 88.8782C220.229 88.8379 220.338 88.8843 220.376 88.9749Z" fill="white"/>
<path d="M222.626 90.9699L222.662 91.0475C222.701 91.1311 222.668 91.2221 222.586 91.2534L221.824 91.5511C221.675 91.6047 221.544 91.6491 221.39 91.7047L221.393 91.7137C221.56 91.687 221.709 91.6733 221.869 91.6556L222.277 91.6209C222.358 91.6135 222.437 91.66 222.468 91.7327C222.499 91.8054 222.477 91.8863 222.41 91.9255L222.071 92.1236C221.935 92.196 221.81 92.2684 221.654 92.3479L221.658 92.3599C221.824 92.3102 221.964 92.2697 222.113 92.2291L222.938 92.0199C223.027 91.9965 223.13 92.0449 223.168 92.1285L223.19 92.1743C223.236 92.2689 223.179 92.3679 223.076 92.3863L221.502 92.6658C221.414 92.6822 221.325 92.6357 221.295 92.5561L221.236 92.4127C221.208 92.339 221.237 92.259 221.307 92.2188L221.696 92.0106C221.801 91.9552 221.911 91.8979 222.018 91.8585L222.015 91.8495C221.903 91.874 221.777 91.8965 221.656 91.911L221.209 91.9689C221.126 91.9802 221.047 91.9337 221.016 91.861L220.964 91.7256C220.934 91.6489 220.966 91.565 221.04 91.5267L222.372 90.8693C222.462 90.829 222.581 90.8753 222.626 90.9699Z" fill="white"/>
<path d="M221.235 93.1234L221.282 93.2609C221.303 93.3236 221.283 93.3935 221.232 93.4377L220.559 94.0283L220.213 94.3152L220.216 94.3241C220.398 94.2425 220.636 94.1187 220.844 94.0449L221.31 93.8842C221.399 93.8539 221.494 93.8983 221.524 93.985L221.543 94.0418C221.572 94.1284 221.522 94.2254 221.432 94.2557L219.962 94.7732C219.872 94.8035 219.78 94.7581 219.756 94.6664L219.717 94.5229C219.701 94.4552 219.724 94.3842 219.777 94.3361L220.463 93.7344L220.798 93.4546L220.795 93.4456C220.607 93.5293 220.386 93.644 220.181 93.7168L219.72 93.8725C219.634 93.9018 219.541 93.8534 219.52 93.7637L219.503 93.7029C219.479 93.6112 219.529 93.5143 219.617 93.4879L221.022 93.0157C221.113 92.9883 221.206 93.0368 221.235 93.1234Z" fill="white"/>
<path d="M223.839 89.5475C223.842 89.5565 223.846 89.5684 223.849 89.5774C223.866 89.6382 223.883 89.6989 223.899 89.7637C223.936 89.9142 223.971 90.0656 223.994 90.2142C224.031 90.4215 224.239 90.5542 224.443 90.4854C224.598 90.4329 224.696 90.2798 224.673 90.1143C224.646 89.9169 224.606 89.7176 224.553 89.5123C224.525 89.4017 224.493 89.2862 224.457 89.1686C224.446 89.1387 224.435 89.1059 224.423 89.07C224.237 88.5202 223.974 87.9797 223.642 87.4595C223.303 86.9314 222.9 86.4484 222.468 86.0483C222.376 85.963 222.244 85.9376 222.128 85.9771L216.357 87.9167C216.121 87.9966 216.044 88.2922 216.213 88.475C216.522 88.8097 216.81 89.1785 217.065 89.5754C217.346 90.013 217.58 90.4698 217.764 90.9339C217.764 90.9339 217.765 90.9368 217.766 90.9398C217.768 90.9458 217.769 90.9488 217.77 90.9518C217.791 91.0046 217.813 91.0603 217.833 91.1171C217.847 91.1589 217.895 91.1826 217.937 91.1685L218.185 91.0846C218.373 91.0209 218.469 90.8119 218.394 90.6307C218.198 90.1408 217.95 89.6621 217.652 89.1966C217.52 88.9917 217.383 88.7948 217.246 88.6149L217.161 88.5036C217.126 88.4588 217.147 88.3919 217.201 88.3737L217.332 88.3292C217.374 88.3151 217.413 88.3019 217.455 88.2878C217.565 88.2503 217.676 88.2129 217.786 88.1755C217.951 88.1199 218.115 88.0643 218.279 88.0087C218.48 87.9409 218.683 87.8722 218.883 87.8044C219.104 87.7296 219.325 87.6548 219.546 87.5799C219.77 87.5041 219.995 87.4283 220.219 87.3524C220.431 87.2806 220.64 87.2099 220.852 87.1381C221.034 87.0764 221.214 87.0157 221.396 86.954C221.495 86.9207 221.6 86.8883 221.699 86.8549C221.796 86.8185 221.895 86.7652 222 86.7498C222.111 86.7353 222.22 86.7817 222.293 86.8602C222.329 86.8979 222.361 86.9337 222.395 86.9724C222.464 87.0489 222.529 87.1234 222.593 87.2049C222.724 87.364 222.846 87.529 222.962 87.703C222.99 87.7468 223.021 87.7896 223.049 87.8333C223.293 88.2103 223.492 88.6024 223.648 88.9927C223.651 89.0017 223.653 89.0077 223.655 89.0137C223.692 89.1043 223.723 89.1969 223.755 89.2895C223.766 89.3224 223.777 89.3553 223.788 89.3881L223.789 89.3911C223.812 89.4499 223.826 89.4987 223.839 89.5475Z" fill="white"/>
<path d="M223.777 90.7837C223.726 90.6313 223.68 90.4769 223.644 90.3294C223.596 90.1491 223.56 89.9647 223.529 89.7853L223.528 89.7823C223.503 89.6178 223.337 89.5109 223.175 89.5655L217.497 91.4737C217.243 91.5597 217.088 91.8187 217.134 92.0829C217.182 92.363 217.256 92.6509 217.354 92.9408C217.54 93.4906 217.803 94.031 218.135 94.5512C218.45 95.0376 218.816 95.4898 219.211 95.8691C219.358 96.0091 219.571 96.057 219.765 95.9913L225.015 94.2246C225.383 94.1002 225.505 93.6458 225.254 93.3547C225.017 93.0784 224.794 92.7842 224.595 92.4718C224.245 91.9308 223.97 91.3614 223.777 90.7837ZM224.531 93.3959C224.609 93.4963 224.565 93.6411 224.445 93.6816C224.317 93.725 224.185 93.7695 224.057 93.813C223.737 93.9212 223.414 94.0304 223.093 94.1356C222.687 94.2731 222.277 94.4087 221.87 94.5462C221.482 94.6777 221.093 94.8091 220.704 94.9376C220.438 95.0276 220.175 95.1165 219.909 95.2065C219.846 95.2278 219.787 95.258 219.722 95.2732C219.638 95.2916 219.61 95.2777 219.553 95.2171C219.251 94.9063 218.975 94.5534 218.73 94.1735C218.428 93.703 218.189 93.2143 218.021 92.7183C217.982 92.6017 217.949 92.4862 217.916 92.3676C217.896 92.2979 217.813 92.1426 217.887 92.0844C217.927 92.0543 217.981 92.0491 218.027 92.0369C218.027 92.0369 218.463 91.8893 218.461 91.8933L222.866 90.4128C222.968 90.3784 223.075 90.4388 223.102 90.5394C223.138 90.6769 223.18 90.8194 223.231 90.9688C223.445 91.6022 223.745 92.2233 224.126 92.8171C224.252 93.0141 224.389 93.211 224.531 93.3959Z" fill="white"/>
<path d="M225.825 93.9699C225.92 94.2309 226.209 94.3662 226.47 94.2713C226.731 94.1763 226.866 93.8874 226.771 93.6265C226.676 93.3655 226.387 93.2302 226.126 93.3251C225.865 93.4201 225.73 93.709 225.825 93.9699Z" fill="white"/>
<path d="M222.422 102.233L222.902 101.664C222.957 101.599 223.008 101.545 223.054 101.503C222.939 101.548 222.767 101.61 222.531 101.69L222.268 101.779L222.227 101.656L223.169 101.341L223.227 101.511L222.756 102.07C222.707 102.13 222.652 102.185 222.599 102.236C222.78 102.169 222.961 102.104 223.14 102.043L223.379 101.962L223.421 102.085L222.479 102.4L222.422 102.233Z" fill="white"/>
<path d="M223.069 103.017L222.915 102.562C222.744 102.617 222.685 102.717 222.735 102.867C222.758 102.935 222.793 102.997 222.841 103.051L222.748 103.102C222.694 103.04 222.655 102.964 222.625 102.877C222.553 102.662 222.635 102.511 222.872 102.434C222.976 102.399 223.072 102.396 223.157 102.431C223.245 102.464 223.307 102.53 223.336 102.626C223.368 102.719 223.364 102.797 223.324 102.864C223.287 102.923 223.229 102.969 223.145 102.994C223.125 103.004 223.097 103.011 223.069 103.017ZM223.117 102.864C223.174 102.845 223.212 102.818 223.235 102.78C223.256 102.743 223.261 102.699 223.245 102.651C223.211 102.552 223.132 102.516 223.008 102.541L223.117 102.864Z" fill="white"/>
<path d="M222.912 103.672C222.889 103.633 222.866 103.587 222.849 103.536C222.826 103.467 222.824 103.412 222.847 103.374C222.868 103.337 222.918 103.306 222.996 103.28L223.393 103.146L223.345 103.002L223.443 102.969L223.492 103.112L223.716 103.036L223.794 103.15L223.534 103.238L223.6 103.432L223.501 103.465L223.436 103.271L223.083 103.39C223.026 103.41 222.989 103.429 222.977 103.45C222.961 103.472 222.96 103.499 222.973 103.538C222.984 103.57 222.996 103.596 223.014 103.62L222.912 103.672Z" fill="white"/>
<path d="M223.213 104.577L223.165 104.437L223.528 104.161C223.56 104.137 223.604 104.108 223.652 104.075C223.608 104.08 223.545 104.082 223.463 104.086L223.053 104.095L223.006 103.955L223.627 103.508L223.673 103.645L223.338 103.875C223.252 103.934 223.197 103.97 223.173 103.988C223.225 103.983 223.29 103.978 223.369 103.975L223.78 103.969L223.825 104.103L223.498 104.347C223.418 104.405 223.361 104.444 223.33 104.461C223.375 104.456 223.441 104.453 223.525 104.448L223.937 104.435L223.982 104.567L223.213 104.577Z" fill="white"/>
<path d="M223.593 105.396C223.5 105.357 223.437 105.289 223.403 105.187C223.333 104.981 223.417 104.836 223.65 104.757C223.755 104.722 223.852 104.722 223.937 104.76C224.03 104.798 224.092 104.871 224.126 104.972C224.158 105.068 224.156 105.149 224.12 105.221C224.081 105.301 224 105.358 223.881 105.398C223.783 105.435 223.683 105.435 223.593 105.396ZM224.024 104.997C224.006 104.943 223.97 104.905 223.919 104.883C223.86 104.856 223.79 104.856 223.71 104.884C223.536 104.942 223.472 105.037 223.516 105.169C223.536 105.225 223.572 105.263 223.625 105.282C223.683 105.306 223.754 105.301 223.838 105.273C224.005 105.216 224.068 105.125 224.024 104.997Z" fill="white"/>
<path d="M224.282 105.83C224.261 105.677 224.135 105.64 223.907 105.714L223.629 105.808L223.586 105.683L224.279 105.448L224.321 105.57C224.264 105.59 224.208 105.602 224.152 105.611L224.153 105.614C224.297 105.608 224.381 105.67 224.41 105.793L224.282 105.83Z" fill="white"/>
<path d="M223.879 106.558L224.148 106.181L223.792 106.301L223.75 106.176L224.767 105.835L224.809 105.961L224.182 106.173L224.569 106.315L224.621 106.467L224.214 106.308L223.935 106.723L223.879 106.558Z" fill="white"/>
<path d="M220.788 97.4031L220.733 97.2388L221.369 96.8169C221.433 96.7787 221.489 96.7465 221.536 96.7204C221.49 96.7295 221.426 96.7378 221.345 96.7452L220.586 96.7955L220.533 96.6371L221.482 96.0293L221.531 96.1727L220.911 96.5656C220.857 96.6008 220.795 96.635 220.724 96.6722L220.725 96.6752C220.797 96.6609 220.865 96.6546 220.93 96.6493L221.673 96.601L221.724 96.7534L221.1 97.1712C221.042 97.2074 220.987 97.2426 220.927 97.2728C220.994 97.2635 221.051 97.2543 221.106 97.249L221.866 97.1817L221.91 97.3132L220.788 97.4031Z" fill="white"/>
<path d="M221.177 98.2085C221.077 98.1691 221.01 98.0985 220.975 97.994C220.902 97.7788 220.997 97.6268 221.254 97.5398C221.367 97.5014 221.474 97.5019 221.57 97.5393C221.67 97.5788 221.738 97.6523 221.774 97.7569C221.807 97.8555 221.803 97.9433 221.762 98.0173C221.717 98.1023 221.629 98.1655 221.497 98.21C221.383 98.2455 221.274 98.249 221.177 98.2085ZM221.655 97.7804C221.636 97.7236 221.599 97.6829 221.542 97.6622C221.477 97.6375 221.401 97.6399 221.314 97.6692C221.123 97.7339 221.051 97.835 221.096 97.9695C221.115 98.0262 221.156 98.066 221.212 98.0866C221.276 98.1083 221.355 98.1049 221.448 98.0736C221.631 98.0149 221.701 97.9148 221.655 97.7804Z" fill="white"/>
<path d="M221.465 99.4084L221.955 99.2426C222.072 99.2031 222.115 99.1451 222.089 99.0674C222.071 99.0136 222.028 98.9749 221.961 98.9543C221.89 98.9316 221.808 98.936 221.718 98.9663L221.357 99.0887L221.313 98.9602L221.803 98.7944C221.92 98.7549 221.963 98.6969 221.937 98.6192C221.918 98.5624 221.875 98.5237 221.805 98.5041C221.735 98.4844 221.653 98.4888 221.57 98.5171L221.208 98.6395L221.164 98.508L221.926 98.2501L221.968 98.3756C221.902 98.3979 221.847 98.4131 221.804 98.4213L221.801 98.4223C221.932 98.4277 222.02 98.4911 222.062 98.6136C222.085 98.6823 222.081 98.7402 222.052 98.7902C222.031 98.8272 221.996 98.8523 221.956 98.8725C222.089 98.8808 222.174 98.9453 222.214 99.0618C222.262 99.2053 222.203 99.3053 222.035 99.3619L221.509 99.5399L221.465 99.4084Z" fill="white"/>
<path d="M222.151 100.199L221.991 99.727C221.804 99.7837 221.734 99.8938 221.787 100.049C221.811 100.121 221.849 100.185 221.901 100.24L221.8 100.294C221.745 100.23 221.699 100.152 221.667 100.06C221.591 99.8356 221.684 99.6775 221.944 99.5896C222.061 99.5501 222.167 99.5477 222.258 99.5802C222.352 99.6146 222.419 99.6822 222.452 99.7808C222.484 99.8764 222.479 99.9582 222.433 100.03C222.392 100.094 222.327 100.139 222.234 100.171C222.211 100.182 222.182 100.192 222.151 100.199ZM222.206 100.037C222.27 100.019 222.312 99.9879 222.335 99.9469C222.362 99.9079 222.363 99.861 222.345 99.8102C222.311 99.7086 222.225 99.6711 222.088 99.6976L222.206 100.037Z" fill="white"/>
<path d="M221.991 100.978L222.481 100.812C222.595 100.774 222.64 100.712 222.613 100.631C222.593 100.571 222.55 100.532 222.477 100.514C222.407 100.494 222.328 100.498 222.245 100.526L221.88 100.649L221.835 100.518L222.597 100.26L222.64 100.385C222.574 100.408 222.519 100.423 222.474 100.428L222.476 100.431C222.608 100.439 222.693 100.504 222.735 100.626C222.784 100.773 222.728 100.872 222.564 100.927L222.032 101.107L221.991 100.978Z" fill="white"/>
<path d="M222.79 98.5246L223.561 98.2637L223.695 98.6611L223.608 98.6904L223.509 98.3976L223.264 98.4805L223.358 98.7584L223.275 98.7867L223.181 98.5088L222.912 98.5998L223.011 98.8926L222.921 98.923L222.79 98.5246Z" fill="white"/>
<path d="M223.103 99.46L223.468 99.3367C223.554 99.3073 223.585 99.2603 223.564 99.1976C223.548 99.1498 223.514 99.118 223.462 99.1023C223.41 99.0865 223.351 99.0898 223.288 99.111L223.016 99.203L222.982 99.1015L223.549 98.9093L223.583 99.0079C223.532 99.0251 223.492 99.0353 223.46 99.0394L223.461 99.0424C223.56 99.0489 223.628 99.1025 223.658 99.1991C223.696 99.3127 223.655 99.3897 223.533 99.4311L223.136 99.5656L223.103 99.46Z" fill="white"/>
<path d="M223.3 100.03C223.279 99.9973 223.264 99.9625 223.249 99.9206C223.23 99.8639 223.228 99.818 223.248 99.788C223.265 99.759 223.305 99.7318 223.368 99.7106L223.694 99.6004L223.654 99.4839L223.735 99.4566L223.775 99.5731L223.96 99.5104L224.021 99.6029L223.809 99.6747L223.863 99.8331L223.782 99.8604L223.728 99.702L223.438 99.8001C223.391 99.8163 223.363 99.8323 223.349 99.8504C223.338 99.8674 223.336 99.8913 223.346 99.9212C223.355 99.9481 223.366 99.971 223.379 99.9899L223.3 100.03Z" fill="white"/>
<path d="M223.767 100.495L223.641 100.122C223.5 100.166 223.451 100.249 223.492 100.372C223.512 100.429 223.542 100.478 223.58 100.522L223.504 100.564C223.46 100.513 223.426 100.451 223.402 100.379C223.342 100.203 223.41 100.08 223.605 100.014C223.691 99.9848 223.771 99.9845 223.84 100.011C223.913 100.04 223.961 100.093 223.987 100.171C224.013 100.246 224.008 100.311 223.977 100.368C223.948 100.418 223.9 100.454 223.831 100.477C223.81 100.484 223.789 100.491 223.767 100.495ZM223.805 100.369C223.85 100.354 223.882 100.333 223.901 100.3C223.92 100.267 223.922 100.233 223.908 100.191C223.88 100.111 223.816 100.079 223.714 100.1L223.805 100.369Z" fill="white"/>
<path d="M224.108 100.862C224.088 100.735 223.988 100.703 223.799 100.766L223.569 100.844L223.535 100.743L224.103 100.551L224.136 100.649C224.088 100.665 224.042 100.677 223.997 100.683L223.998 100.686C224.117 100.682 224.187 100.732 224.209 100.834L224.108 100.862Z" fill="white"/>
<path d="M223.891 101.548C223.82 101.515 223.765 101.454 223.734 101.361C223.722 101.325 223.714 101.291 223.708 101.264L223.424 101.36L223.389 101.258L224.242 100.973L224.275 101.071C224.228 101.088 224.188 101.098 224.156 101.102L224.157 101.105C224.253 101.112 224.316 101.161 224.347 101.254C224.369 101.319 224.363 101.378 224.33 101.429C224.297 101.48 224.235 101.522 224.148 101.551C224.051 101.58 223.964 101.58 223.891 101.548ZM224.256 101.251C224.24 101.203 224.203 101.173 224.145 101.159C224.094 101.146 224.039 101.151 223.986 101.17L223.797 101.233C223.798 101.266 223.804 101.301 223.817 101.34C223.857 101.459 223.952 101.494 224.109 101.444C224.236 101.398 224.285 101.335 224.256 101.251Z" fill="white"/>
<path d="M224.458 101.909C224.438 101.782 224.337 101.75 224.149 101.813L223.919 101.891L223.884 101.79L224.452 101.597L224.486 101.696C224.438 101.712 224.392 101.724 224.347 101.73L224.348 101.733C224.467 101.729 224.537 101.779 224.558 101.881L224.458 101.909Z" fill="white"/>
<path d="M224.445 102.519L224.319 102.145C224.177 102.19 224.129 102.273 224.17 102.395C224.189 102.452 224.22 102.502 224.258 102.545L224.182 102.588C224.138 102.536 224.104 102.474 224.079 102.403C224.02 102.226 224.088 102.103 224.282 102.038C224.369 102.008 224.449 102.008 224.518 102.035C224.591 102.063 224.639 102.117 224.665 102.194C224.69 102.269 224.686 102.334 224.655 102.391C224.625 102.441 224.578 102.477 224.509 102.5C224.491 102.507 224.469 102.511 224.445 102.519ZM224.485 102.392C224.53 102.377 224.563 102.356 224.582 102.323C224.602 102.293 224.603 102.256 224.588 102.214C224.561 102.133 224.497 102.101 224.394 102.123L224.485 102.392Z" fill="white"/>
<path d="M224.337 103.128L224.702 103.005C224.789 102.975 224.819 102.928 224.798 102.866C224.782 102.818 224.748 102.786 224.696 102.77C224.644 102.755 224.585 102.758 224.522 102.779L224.251 102.871L224.216 102.769L224.784 102.577L224.817 102.676C224.766 102.693 224.727 102.703 224.695 102.707L224.696 102.71C224.794 102.717 224.863 102.77 224.892 102.867C224.93 102.981 224.89 103.058 224.767 103.099L224.37 103.234L224.337 103.128Z" fill="white"/>
<path d="M224.859 103.755L224.733 103.382C224.591 103.426 224.543 103.509 224.584 103.632C224.603 103.688 224.634 103.738 224.672 103.782L224.596 103.824C224.552 103.772 224.518 103.711 224.494 103.639C224.434 103.463 224.502 103.34 224.696 103.274C224.783 103.245 224.863 103.244 224.932 103.271C225.005 103.299 225.053 103.353 225.079 103.431C225.104 103.506 225.1 103.57 225.069 103.627C225.039 103.677 224.992 103.714 224.923 103.737C224.906 103.746 224.884 103.75 224.859 103.755ZM224.899 103.628C224.944 103.613 224.977 103.592 224.996 103.559C225.016 103.529 225.017 103.492 225.002 103.45C224.975 103.369 224.911 103.338 224.808 103.359L224.899 103.628Z" fill="white"/>
<path d="M224.754 104.366C224.805 104.349 224.844 104.339 224.876 104.335L224.875 104.332C224.776 104.322 224.708 104.272 224.679 104.175C224.641 104.062 224.681 103.985 224.804 103.943L225.201 103.809L225.236 103.91L224.868 104.035C224.781 104.064 224.751 104.111 224.772 104.174C224.788 104.221 224.822 104.253 224.874 104.269C224.926 104.285 224.985 104.281 225.048 104.26L225.32 104.168L225.354 104.27L224.786 104.462L224.754 104.366Z" fill="white"/>
<path d="M225.424 104.782C225.405 104.655 225.304 104.623 225.116 104.686L224.886 104.764L224.851 104.663L225.419 104.47L225.452 104.569C225.404 104.585 225.359 104.597 225.314 104.603L225.315 104.606C225.433 104.602 225.504 104.652 225.525 104.754L225.424 104.782Z" fill="white"/>
<path d="M225.726 104.937C225.71 104.929 225.698 104.913 225.692 104.895C225.685 104.878 225.685 104.858 225.693 104.842C225.701 104.826 225.713 104.812 225.734 104.805C225.752 104.798 225.772 104.798 225.789 104.809C225.805 104.817 225.82 104.832 225.826 104.85C225.832 104.868 225.832 104.888 225.821 104.905C225.81 104.922 225.798 104.936 225.781 104.942C225.763 104.948 225.743 104.948 225.726 104.937ZM224.989 105.073L225.557 104.881L225.591 104.983L225.023 105.175L224.989 105.073Z" fill="white"/>
<path d="M225.192 105.676C225.246 105.657 225.286 105.647 225.307 105.643L225.306 105.64C225.212 105.636 225.151 105.583 225.118 105.487C225.102 105.44 225.105 105.399 225.122 105.36C225.138 105.321 225.172 105.293 225.217 105.278C225.28 105.256 225.338 105.27 225.391 105.319C225.447 105.366 225.49 105.445 225.528 105.555L225.554 105.546C225.602 105.53 225.632 105.51 225.647 105.485C225.662 105.46 225.663 105.423 225.648 105.381C225.63 105.328 225.595 105.273 225.549 105.225L225.626 105.176C225.675 105.233 225.713 105.296 225.737 105.368C225.785 105.508 225.742 105.599 225.608 105.645L225.39 105.719C225.33 105.739 225.276 105.757 225.226 105.777L225.192 105.676ZM225.456 105.58C225.401 105.418 225.339 105.353 225.267 105.377C225.243 105.385 225.226 105.401 225.213 105.422C225.2 105.443 225.201 105.466 225.21 105.493C225.225 105.538 225.255 105.568 225.304 105.584C225.349 105.599 225.396 105.6 225.441 105.585L225.456 105.58Z" fill="white"/>
<path d="M225.294 105.975L226.132 105.694L226.166 105.796L225.329 106.076L225.294 105.975Z" fill="white"/>
<path d="M222.063 95.7899C222.051 95.8409 222.051 95.9107 222.072 95.9734C222.104 96.0691 222.174 96.1086 222.246 96.0844C222.315 96.0611 222.341 96.0091 222.346 95.8974C222.347 95.7637 222.386 95.6707 222.488 95.6364C222.601 95.5979 222.717 95.6652 222.765 95.8057C222.79 95.8804 222.79 95.9402 222.783 95.9792L222.697 95.9786C222.7 95.9506 222.708 95.8947 222.686 95.829C222.653 95.7304 222.58 95.7118 222.532 95.7279C222.463 95.7512 222.445 95.8071 222.44 95.9189C222.434 96.0576 222.395 96.1406 222.287 96.177C222.174 96.2154 222.05 96.1641 221.992 95.9938C221.969 95.925 221.964 95.8403 221.977 95.7923L222.063 95.7899Z" fill="white"/>
<path d="M222.231 96.6659L222.294 96.6377L222.293 96.6347C222.241 96.619 222.186 96.5744 222.161 96.4997C222.126 96.3951 222.182 96.316 222.257 96.2907C222.382 96.2483 222.49 96.3386 222.557 96.5388L222.569 96.5347C222.611 96.5206 222.685 96.4823 222.651 96.3737C222.635 96.3259 222.603 96.2802 222.566 96.2494L222.622 96.2073C222.663 96.24 222.702 96.2967 222.724 96.3624C222.779 96.5238 222.68 96.597 222.576 96.6324L222.381 96.6982C222.337 96.7133 222.293 96.7315 222.259 96.7496L222.231 96.6659ZM222.492 96.561C222.459 96.4554 222.402 96.3449 222.3 96.3793C222.237 96.4006 222.225 96.4515 222.241 96.4993C222.264 96.568 222.32 96.5957 222.37 96.5955C222.38 96.5954 222.393 96.5944 222.402 96.5913L222.492 96.561Z" fill="white"/>
<path d="M222.597 97.2846C222.543 97.3028 222.496 97.3189 222.455 97.3361L222.427 97.2524L222.511 97.2171L222.51 97.2141C222.46 97.2044 222.387 97.1658 222.356 97.0732C222.329 96.9925 222.34 96.8787 222.525 96.816L222.83 96.7129L222.862 96.8085L222.573 96.9066C222.474 96.94 222.415 96.9931 222.445 97.0798C222.466 97.1425 222.526 97.1722 222.574 97.1759C222.591 97.1768 222.607 97.1748 222.625 97.1687L222.944 97.0605L222.977 97.1561L222.597 97.2846Z" fill="white"/>
<path d="M223.429 97.6864L222.798 97.8997C222.75 97.9159 222.699 97.9331 222.665 97.9482L222.635 97.8616L222.724 97.8283L222.723 97.8253C222.656 97.8146 222.59 97.767 222.561 97.6804C222.518 97.5549 222.592 97.4199 222.751 97.3663C222.924 97.3076 223.068 97.3788 223.112 97.5073C223.139 97.588 223.118 97.6549 223.084 97.6929L223.085 97.6959L223.396 97.5908L223.429 97.6864ZM222.939 97.7455C222.951 97.7414 222.966 97.7364 222.977 97.7293C223.032 97.6942 223.065 97.6262 223.041 97.5545C223.008 97.4559 222.902 97.4284 222.784 97.4649C222.68 97.5003 222.607 97.5814 222.642 97.686C222.664 97.7487 222.726 97.7943 222.804 97.788C222.817 97.7869 222.831 97.7819 222.846 97.7768L222.939 97.7455Z" fill="white"/>
<path d="M223.42 97.9835C223.387 97.9946 223.352 97.9798 223.343 97.9429C223.332 97.9101 223.351 97.877 223.384 97.8659C223.416 97.8548 223.451 97.8696 223.464 97.9055C223.473 97.9423 223.453 97.9723 223.42 97.9835ZM222.714 98.1024L223.237 97.9254L223.27 98.0211L222.747 98.198L222.714 98.1024Z" fill="white"/>
<path d="M223.296 95.7065C223.263 95.6109 223.259 95.5391 223.283 95.4811C223.304 95.4271 223.355 95.39 223.43 95.3647C223.478 95.3485 223.525 95.3423 223.567 95.3481L223.605 95.4188C223.56 95.414 223.511 95.4172 223.46 95.4344C223.397 95.4556 223.361 95.4847 223.343 95.5207C223.324 95.5637 223.327 95.6226 223.353 95.6973L223.396 95.8257L223.704 95.7216L223.727 95.7903L223.365 95.9127L223.296 95.7065ZM223.71 95.4632C223.716 95.4512 223.723 95.4452 223.735 95.4411C223.747 95.4371 223.757 95.437 223.769 95.443C223.781 95.4489 223.787 95.4569 223.791 95.4688C223.795 95.4808 223.796 95.4907 223.789 95.4997C223.783 95.5117 223.775 95.5178 223.763 95.5218C223.751 95.5259 223.741 95.5259 223.729 95.52C223.717 95.514 223.711 95.5061 223.708 95.4971C223.703 95.4822 223.703 95.4722 223.71 95.4632ZM223.747 95.5738C223.753 95.5618 223.761 95.5557 223.773 95.5517C223.785 95.5476 223.795 95.5476 223.807 95.5535C223.819 95.5595 223.825 95.5674 223.829 95.5794C223.833 95.5913 223.833 95.6013 223.826 95.6103C223.82 95.6223 223.812 95.6283 223.8 95.6324C223.788 95.6364 223.778 95.6365 223.766 95.6305C223.754 95.6246 223.748 95.6166 223.745 95.6077C223.741 95.5957 223.741 95.5858 223.747 95.5738Z" fill="white"/>
<path d="M223.957 95.8691L223.98 95.9379L223.493 96.1027L223.522 96.1864L223.465 96.2056L223.413 96.0532L223.957 95.8691Z" fill="white"/>
<path d="M223.517 96.1735L223.569 96.3259L223.877 96.2218L223.9 96.2905L223.539 96.4129L223.463 96.1888L223.517 96.1735ZM223.346 96.3349C223.334 96.329 223.328 96.3211 223.324 96.3091C223.32 96.2971 223.319 96.2872 223.325 96.2752C223.331 96.2632 223.339 96.2572 223.351 96.2531C223.363 96.2491 223.373 96.249 223.385 96.255C223.397 96.2609 223.403 96.2688 223.407 96.2808C223.411 96.2927 223.411 96.3027 223.405 96.3147C223.399 96.3267 223.391 96.3327 223.38 96.3368C223.368 96.3408 223.358 96.3409 223.346 96.3349ZM223.384 96.4485C223.372 96.4425 223.366 96.4346 223.363 96.4256C223.359 96.4137 223.359 96.4037 223.365 96.3917C223.371 96.3797 223.379 96.3737 223.391 96.3696C223.403 96.3656 223.413 96.3656 223.425 96.3715C223.437 96.3774 223.443 96.3854 223.447 96.3973C223.451 96.4093 223.451 96.4192 223.444 96.4283C223.438 96.4403 223.43 96.4463 223.418 96.4503C223.406 96.4544 223.395 96.4514 223.384 96.4485Z" fill="white"/>
<path d="M223.626 96.5047L223.709 96.7497C223.78 96.7254 223.832 96.6913 223.861 96.6483C223.892 96.6042 223.906 96.5463 223.904 96.4705L223.97 96.4682C223.971 96.561 223.953 96.6369 223.916 96.6929C223.875 96.7499 223.807 96.7961 223.712 96.8285L223.673 96.8416L223.567 96.5279L223.626 96.5047Z" fill="white"/>
<path d="M223.52 96.9772L223.582 96.9629C223.587 97.0078 223.596 97.0516 223.609 97.0905C223.641 97.1861 223.697 97.2238 223.778 97.1965L223.796 97.1904L223.769 97.1127C223.724 96.9782 223.762 96.8923 223.881 96.8518C223.935 96.8336 223.985 96.8334 224.032 96.8541C224.083 96.8768 224.117 96.9186 224.137 96.9783C224.156 97.0351 224.164 97.0889 224.162 97.1398L223.875 97.2369L223.903 97.3206L223.846 97.3398L223.818 97.2561L223.803 97.2612C223.752 97.2784 223.704 97.2746 223.663 97.2518C223.611 97.2261 223.574 97.1754 223.548 97.0977C223.536 97.0619 223.525 97.019 223.52 96.9772ZM224.091 97.0873C224.094 97.0593 224.089 97.0244 224.077 96.9886C224.065 96.9527 224.044 96.9299 224.013 96.9171C223.982 96.9042 223.949 96.9054 223.91 96.9185C223.824 96.9479 223.794 97.0078 223.825 97.1005L223.848 97.1662L224.091 97.0873Z" fill="white"/>
<path d="M223.9 97.3103L223.908 97.3342C223.935 97.4149 223.971 97.4796 224.018 97.5302C224.066 97.4273 224.09 97.3493 224.091 97.3025L224.143 97.2912C224.233 97.3507 224.288 97.4123 224.311 97.481C224.327 97.5288 224.328 97.5717 224.313 97.6067C224.301 97.6377 224.275 97.6597 224.242 97.6709C224.182 97.6911 224.121 97.6784 224.052 97.6318C224.04 97.6758 224.041 97.7157 224.054 97.7545L224.07 97.8023L224.013 97.8215L223.994 97.7648C223.976 97.711 223.975 97.6511 223.998 97.5902C223.935 97.5316 223.888 97.451 223.854 97.3524L223.848 97.3345L223.9 97.3103ZM224.069 97.5729C224.117 97.6066 224.163 97.6144 224.205 97.6002C224.226 97.5931 224.241 97.5811 224.251 97.5611C224.261 97.5411 224.26 97.5182 224.25 97.4883C224.236 97.4464 224.199 97.4057 224.138 97.3631C224.142 97.395 224.115 97.4639 224.069 97.5729Z" fill="white"/>
<path d="M224.06 97.787L224.071 97.8199C224.08 97.8468 224.093 97.8657 224.112 97.8726C224.131 97.8795 224.163 97.8753 224.202 97.8622L224.357 97.8096L224.381 97.8783L224.24 97.9258C224.195 97.941 224.163 97.9551 224.151 97.9662C224.133 97.9822 224.127 98.0042 224.136 98.0311C224.154 98.0848 224.204 98.0946 224.288 98.0663L224.461 98.0076L224.484 98.0764L224.287 98.1431C224.248 98.1562 224.224 98.1743 224.217 98.1933C224.211 98.2123 224.217 98.2402 224.232 98.285L224.24 98.3089C224.277 98.2998 224.314 98.2906 224.35 98.2785C224.427 98.2522 224.493 98.22 224.554 98.1828L224.584 98.2525C224.524 98.2926 224.452 98.3269 224.375 98.3532C224.342 98.3643 224.305 98.3735 224.259 98.3856L224.288 98.4693L224.231 98.4885L224.171 98.3122C224.155 98.2644 224.146 98.2275 224.148 98.2036C224.149 98.1766 224.158 98.1567 224.178 98.1366C224.127 98.1339 224.094 98.1051 224.074 98.0453C224.056 97.9915 224.066 97.9516 224.106 97.9245C224.06 97.9237 224.031 97.8969 224.012 97.8431L224.001 97.8102L224.06 97.787Z" fill="white"/>
<path d="M224.284 98.4597L224.321 98.5673L224.808 98.4025L224.831 98.4712L224.287 98.6552L224.228 98.479L224.284 98.4597Z" fill="white"/>
<path d="M224.879 98.6133L224.902 98.682L224.358 98.866L224.335 98.7973L224.879 98.6133Z" fill="white"/>
<path d="M225.097 99.256L225.122 99.3277L224.623 99.4965C224.548 99.5218 224.482 99.5241 224.434 99.5004C224.387 99.4796 224.354 99.4409 224.335 99.3841C224.292 99.2586 224.343 99.1716 224.486 99.1231C224.537 99.1059 224.587 99.0957 224.639 99.0915L224.678 99.1581C224.622 99.1604 224.569 99.1716 224.518 99.1888C224.408 99.2262 224.365 99.2872 224.393 99.3679C224.418 99.4426 224.484 99.4603 224.591 99.4239L225.097 99.256Z" fill="white"/>
<path d="M224.62 99.6508L225.164 99.4668L225.187 99.5355L224.7 99.7003L224.72 99.7601C224.731 99.79 224.748 99.8109 224.768 99.8207C224.795 99.8316 224.831 99.8294 224.878 99.8133C224.932 99.7951 224.982 99.7948 225.026 99.8166C225.077 99.8393 225.111 99.881 225.131 99.9408C225.168 100.048 225.129 100.121 225.013 100.161L224.872 100.208L224.898 100.286L224.842 100.305L224.768 100.087C224.738 99.9974 224.742 99.9326 224.78 99.8865C224.731 99.8897 224.695 99.862 224.674 99.8092L224.62 99.6508ZM224.977 100.096C225.064 100.067 225.095 100.02 225.072 99.951C225.059 99.9152 225.038 99.8923 225.007 99.8795C224.976 99.8667 224.943 99.8678 224.905 99.881C224.818 99.9103 224.788 99.9703 224.82 100.063L224.845 100.138L224.977 100.096Z" fill="white"/>
<path d="M224.894 100.275L224.944 100.422C224.949 100.36 224.988 100.317 225.054 100.294C225.105 100.277 225.152 100.278 225.196 100.3C225.243 100.32 225.277 100.362 225.297 100.422C225.309 100.458 225.314 100.493 225.312 100.527L225.252 100.534C225.254 100.503 225.25 100.471 225.239 100.438C225.228 100.405 225.207 100.382 225.179 100.369C225.151 100.355 225.117 100.353 225.081 100.365C225.039 100.379 225.012 100.405 224.999 100.446C224.984 100.491 224.986 100.547 225.009 100.616L225.031 100.679L224.974 100.698L224.838 100.297L224.894 100.275Z" fill="white"/>
<path d="M225.488 100.526C225.495 100.547 225.501 100.562 225.501 100.572C225.503 100.561 225.51 100.552 225.525 100.547C225.546 100.54 225.564 100.544 225.58 100.552C225.597 100.563 225.614 100.584 225.623 100.611C225.628 100.626 225.631 100.642 225.632 100.655L225.588 100.663C225.588 100.653 225.583 100.638 225.579 100.626C225.571 100.602 225.558 100.593 225.543 100.598C225.525 100.604 225.522 100.625 225.533 100.658L225.548 100.703L225.506 100.717L225.447 100.541L225.488 100.526ZM225.178 100.888L225.154 100.816L225.444 100.611L225.468 100.683L225.178 100.888ZM224.999 100.772L225.055 100.753L225.135 100.989L225.616 100.826L225.641 100.898L225.103 101.08L224.999 100.772Z" fill="white"/>
<path d="M225.697 101.037L225.721 101.106L225.177 101.29L225.153 101.221L225.697 101.037Z" fill="white"/>
<path d="M225.354 101.828C225.322 101.732 225.318 101.66 225.341 101.602C225.363 101.548 225.414 101.511 225.488 101.486C225.536 101.47 225.584 101.463 225.626 101.469L225.663 101.54C225.618 101.535 225.569 101.538 225.519 101.556C225.456 101.577 225.419 101.606 225.401 101.642C225.383 101.685 225.386 101.744 225.411 101.818L225.455 101.947L225.762 101.843L225.786 101.911L225.424 102.034L225.354 101.828ZM225.768 101.584C225.774 101.572 225.782 101.566 225.794 101.562C225.806 101.558 225.816 101.558 225.828 101.564C225.84 101.57 225.846 101.578 225.85 101.59C225.854 101.602 225.854 101.612 225.847 101.621C225.841 101.633 225.833 101.639 225.821 101.643C225.809 101.647 225.799 101.647 225.787 101.641C225.775 101.635 225.769 101.627 225.766 101.618C225.762 101.606 225.765 101.595 225.768 101.584ZM225.807 101.698C225.813 101.686 225.82 101.68 225.832 101.676C225.844 101.672 225.854 101.672 225.866 101.678C225.878 101.684 225.884 101.691 225.888 101.703C225.892 101.715 225.893 101.725 225.886 101.734C225.88 101.746 225.872 101.752 225.86 101.756C225.848 101.76 225.838 101.761 225.826 101.755C225.814 101.749 225.808 101.741 225.805 101.732C225.801 101.72 225.803 101.706 225.807 101.698Z" fill="white"/>
<path d="M226.016 101.99L226.039 102.059L225.552 102.224L225.58 102.307L225.523 102.327L225.472 102.174L226.016 101.99Z" fill="white"/>
<path d="M225.576 102.297L225.628 102.449L225.935 102.345L225.959 102.414L225.597 102.536L225.521 102.312L225.576 102.297ZM225.404 102.458C225.392 102.452 225.386 102.444 225.382 102.432C225.378 102.42 225.378 102.41 225.384 102.398C225.39 102.386 225.398 102.38 225.41 102.376C225.422 102.372 225.432 102.372 225.444 102.378C225.456 102.384 225.462 102.392 225.466 102.404C225.47 102.416 225.47 102.426 225.464 102.438C225.458 102.45 225.45 102.456 225.438 102.46C225.426 102.464 225.416 102.464 225.404 102.458ZM225.442 102.569C225.43 102.563 225.424 102.555 225.421 102.546C225.417 102.534 225.416 102.524 225.422 102.512C225.428 102.5 225.436 102.494 225.448 102.49C225.46 102.486 225.47 102.486 225.482 102.492C225.494 102.497 225.5 102.505 225.504 102.517C225.508 102.529 225.508 102.539 225.501 102.548C225.495 102.56 225.488 102.566 225.476 102.57C225.464 102.574 225.454 102.574 225.442 102.569Z" fill="white"/>
<path d="M225.688 102.628L225.771 102.873C225.843 102.848 225.894 102.814 225.923 102.771C225.955 102.727 225.969 102.669 225.966 102.594L226.032 102.591C226.034 102.684 226.016 102.76 225.978 102.816C225.938 102.873 225.87 102.919 225.774 102.952L225.736 102.965L225.629 102.651L225.688 102.628Z" fill="white"/>
<path d="M226.318 102.896L226.342 102.965L225.855 103.13L225.883 103.214L225.826 103.233L225.775 103.081L226.318 102.896Z" fill="white"/>
<path d="M225.881 103.205L225.932 103.357L226.24 103.253L226.263 103.322L225.902 103.444L225.826 103.22L225.881 103.205ZM225.712 103.365C225.7 103.359 225.694 103.351 225.69 103.339C225.686 103.327 225.686 103.317 225.692 103.305C225.698 103.293 225.706 103.287 225.718 103.283C225.729 103.279 225.739 103.279 225.751 103.285C225.763 103.291 225.769 103.299 225.773 103.311C225.778 103.323 225.778 103.333 225.772 103.345C225.766 103.357 225.758 103.363 225.746 103.367C225.734 103.371 225.723 103.368 225.712 103.365ZM225.749 103.476C225.737 103.47 225.731 103.462 225.728 103.453C225.724 103.441 225.724 103.431 225.73 103.419C225.736 103.407 225.744 103.401 225.756 103.397C225.768 103.393 225.778 103.393 225.79 103.399C225.802 103.405 225.808 103.413 225.812 103.425C225.816 103.437 225.816 103.446 225.809 103.456C225.803 103.468 225.795 103.474 225.783 103.478C225.771 103.482 225.761 103.482 225.749 103.476Z" fill="white"/>
<path d="M225.732 103.574L225.795 103.563C225.794 103.589 225.799 103.614 225.809 103.644C225.821 103.677 225.839 103.701 225.862 103.71C225.889 103.721 225.928 103.718 225.975 103.701L226.349 103.575L226.372 103.644L226.005 103.768C225.876 103.812 225.79 103.774 225.751 103.657C225.742 103.631 225.735 103.603 225.732 103.574Z" fill="white"/>
<path d="M226.158 104.217C226.113 104.082 226.15 103.997 226.27 103.956C226.324 103.938 226.373 103.938 226.42 103.958C226.471 103.981 226.505 104.023 226.526 104.083C226.545 104.139 226.553 104.193 226.55 104.244L226.264 104.341L226.292 104.425L226.235 104.444L226.158 104.217ZM226.48 104.195C226.484 104.167 226.479 104.132 226.467 104.096C226.455 104.06 226.434 104.037 226.403 104.024C226.372 104.011 226.339 104.013 226.3 104.026C226.213 104.055 226.184 104.115 226.215 104.208L226.237 104.273L226.48 104.195ZM226.57 103.968C226.576 103.956 226.584 103.95 226.596 103.946C226.608 103.942 226.618 103.942 226.63 103.947C226.642 103.953 226.648 103.961 226.652 103.973C226.656 103.985 226.656 103.995 226.65 104.007C226.644 104.019 226.636 104.025 226.624 104.029C226.612 104.033 226.602 104.033 226.59 104.027C226.578 104.021 226.572 104.014 226.568 104.002C226.564 103.99 226.564 103.98 226.57 103.968ZM226.609 104.081C226.614 104.069 226.622 104.063 226.634 104.059C226.646 104.055 226.656 104.055 226.668 104.061C226.68 104.067 226.686 104.075 226.69 104.087C226.694 104.099 226.694 104.109 226.687 104.118C226.682 104.13 226.674 104.136 226.662 104.14C226.65 104.144 226.64 104.144 226.628 104.138C226.616 104.132 226.61 104.124 226.607 104.115C226.603 104.103 226.603 104.093 226.609 104.081Z" fill="white"/>
<path d="M226.286 104.415L226.369 104.66C226.444 104.635 226.494 104.598 226.525 104.551C226.554 104.508 226.57 104.446 226.564 104.371L226.618 104.353L226.898 104.581L226.827 104.605L226.628 104.442C226.625 104.51 226.604 104.567 226.569 104.612C226.533 104.661 226.473 104.701 226.392 104.729L226.416 104.797L226.359 104.817L226.229 104.434L226.286 104.415Z" fill="white"/>
<path d="M226.412 104.789L226.449 104.899L226.757 104.795L226.78 104.864L226.473 104.968L226.501 105.052L226.444 105.071L226.354 104.805L226.412 104.789ZM226.234 104.922C226.24 104.91 226.248 104.904 226.26 104.9C226.272 104.896 226.282 104.896 226.294 104.902C226.306 104.908 226.312 104.916 226.316 104.928C226.32 104.94 226.32 104.95 226.314 104.962C226.308 104.974 226.3 104.98 226.288 104.984C226.276 104.988 226.266 104.988 226.254 104.982C226.242 104.976 226.236 104.968 226.232 104.956C226.228 104.944 226.227 104.931 226.234 104.922Z" fill="white"/>
<path d="M226.499 105.043L226.51 105.076C226.519 105.103 226.532 105.122 226.551 105.129C226.57 105.136 226.602 105.132 226.641 105.119L226.796 105.066L226.82 105.135L226.679 105.182C226.634 105.197 226.603 105.212 226.59 105.223C226.572 105.239 226.566 105.261 226.575 105.288C226.593 105.341 226.643 105.351 226.727 105.323L226.9 105.264L226.923 105.333L226.726 105.4C226.687 105.413 226.663 105.431 226.656 105.45C226.65 105.469 226.656 105.497 226.671 105.541L226.679 105.565C226.716 105.556 226.753 105.547 226.789 105.535C226.866 105.509 226.932 105.476 226.993 105.439L227.028 105.504C226.968 105.544 226.896 105.578 226.819 105.605C226.762 105.624 226.704 105.64 226.644 105.65L226.615 105.564C226.599 105.516 226.59 105.479 226.592 105.455C226.593 105.428 226.602 105.408 226.622 105.388C226.571 105.385 226.538 105.357 226.518 105.297C226.5 105.243 226.51 105.203 226.551 105.176C226.504 105.175 226.475 105.148 226.456 105.095L226.445 105.062L226.499 105.043ZM226.978 105.181C226.984 105.169 226.992 105.163 227.004 105.159C227.016 105.155 227.026 105.155 227.038 105.161C227.05 105.167 227.056 105.175 227.06 105.187C227.064 105.199 227.064 105.208 227.058 105.22C227.053 105.232 227.045 105.239 227.033 105.243C227.021 105.247 227.011 105.247 226.999 105.241C226.987 105.235 226.981 105.227 226.977 105.215C226.973 105.203 226.973 105.193 226.978 105.181ZM227.091 105.209C227.098 105.2 227.105 105.191 227.114 105.188C227.126 105.184 227.136 105.184 227.148 105.19C227.159 105.193 227.166 105.204 227.169 105.213C227.173 105.225 227.173 105.235 227.166 105.244C227.159 105.253 227.152 105.262 227.14 105.266C227.129 105.27 227.119 105.27 227.11 105.263C227.099 105.26 227.092 105.249 227.088 105.24C227.084 105.228 227.084 105.218 227.091 105.209ZM227.017 105.294C227.023 105.282 227.031 105.276 227.043 105.272C227.055 105.268 227.065 105.268 227.077 105.274C227.089 105.28 227.095 105.288 227.099 105.3C227.103 105.312 227.103 105.322 227.096 105.331C227.09 105.343 227.082 105.349 227.07 105.353C227.058 105.357 227.048 105.357 227.036 105.351C227.024 105.345 227.018 105.337 227.015 105.328C227.011 105.316 227.011 105.306 227.017 105.294Z" fill="white"/>
<path d="M191.093 98.8307C190.962 98.7016 190.724 98.4693 190.557 98.3024C190.397 98.1436 190.138 98.1348 189.97 98.2881C189.542 98.6861 189.733 99.617 188.949 99.7093L189.331 100.1C189.682 100.46 190.292 100.314 190.443 99.8332C190.561 99.4636 190.646 99.0652 191.056 98.9496C191.115 98.9363 191.133 98.8704 191.093 98.8307Z" fill="white"/>
<path d="M186.526 100.683C186.656 100.812 186.894 101.045 187.061 101.211C187.221 101.37 187.481 101.379 187.648 101.226C188.077 100.828 187.885 99.8968 188.669 99.8045L188.288 99.4142C187.936 99.0537 187.326 99.2001 187.176 99.6806C187.058 100.05 186.973 100.449 186.562 100.564C186.506 100.576 186.486 100.643 186.526 100.683Z" fill="white"/>
<path d="M187.897 97.4911C187.767 97.6213 187.535 97.8598 187.368 98.0262C187.209 98.1865 187.201 98.4459 187.354 98.6138C187.752 99.0419 188.683 98.8502 188.775 99.6348L189.165 99.253C189.526 98.9012 189.38 98.2913 188.899 98.1409C188.529 98.0229 188.13 97.9349 188.015 97.5274C187.999 97.4697 187.933 97.452 187.897 97.4911Z" fill="white"/>
<path d="M189.729 102.017C189.859 101.887 190.091 101.648 190.258 101.482C190.417 101.321 190.425 101.062 190.272 100.894C189.874 100.466 188.943 100.658 188.851 99.8732L188.461 100.255C188.1 100.607 188.246 101.217 188.727 101.367C189.097 101.485 189.496 101.573 189.611 101.981C189.623 102.036 189.689 102.054 189.729 102.017Z" fill="white"/>
<path d="M190.854 106.767C191.382 106.555 192.019 106.302 192.502 106.146L192.496 106.128C192 106.149 191.462 106.151 190.864 106.137L188.76 106.09L188.632 105.71L190.261 104.463C190.743 104.097 191.19 103.772 191.609 103.507L191.605 103.495C191.12 103.646 190.463 103.839 189.874 103.998L188.183 104.453L188.022 103.978L191.974 102.941L192.189 103.577L190.545 104.87C190.125 105.192 189.745 105.467 189.377 105.698L189.383 105.716C189.805 105.683 190.275 105.677 190.82 105.682L192.92 105.738L193.136 106.374L189.357 107.923L189.192 107.435L190.854 106.767Z" fill="white"/>
<path d="M191.085 108.779C190.408 109.022 190.274 109.553 190.444 110.055C190.567 110.417 190.703 110.613 190.848 110.774L190.515 110.983C190.375 110.834 190.179 110.561 190.03 110.119C189.74 109.264 190.13 108.566 190.967 108.283C191.804 108 192.628 108.27 192.901 109.077C193.207 109.983 192.491 110.495 191.983 110.666C191.879 110.702 191.797 110.716 191.741 110.728L191.082 108.78L191.085 108.779ZM191.947 110.136C192.269 110.034 192.721 109.727 192.529 109.16C192.356 108.649 191.812 108.586 191.448 108.663L191.947 110.136Z" fill="white"/>
<path d="M192.768 111.35C193.054 111.253 193.286 111.168 193.51 111.072L193.659 111.514L193.219 111.69L193.225 111.708C193.541 111.774 193.876 111.947 194.03 112.404C194.159 112.784 194.025 113.146 193.74 113.378L193.745 113.39C193.929 113.424 194.085 113.491 194.211 113.579C194.393 113.704 194.524 113.863 194.613 114.125C194.737 114.493 194.679 115.119 193.717 115.444L192.086 115.996L191.919 115.503L193.487 114.973C194.019 114.793 194.276 114.489 194.139 114.083C194.042 113.796 193.754 113.644 193.48 113.643C193.404 113.642 193.306 113.659 193.216 113.689L191.504 114.268L191.337 113.775L192.999 113.213C193.441 113.063 193.695 112.761 193.564 112.376C193.457 112.059 193.129 111.917 192.848 111.922C192.763 111.917 192.674 111.938 192.59 111.966L190.917 112.532L190.75 112.039L192.77 111.356L192.768 111.35Z" fill="white"/>
<path d="M192.432 117.018C192.625 116.966 192.909 116.883 193.157 116.799L196.51 115.665L196.679 116.164L194.937 116.753L194.941 116.765C195.311 116.836 195.621 117.091 195.771 117.536C196.004 118.224 195.595 118.905 194.75 119.184C193.758 119.52 193.054 119.062 192.845 118.443C192.709 118.043 192.755 117.668 193.05 117.338L193.044 117.32L192.579 117.451L192.432 117.018ZM193.721 117.165C193.658 117.186 193.599 117.219 193.547 117.25C193.23 117.467 193.086 117.839 193.211 118.206C193.389 118.732 193.926 118.903 194.563 118.688C195.118 118.5 195.496 118.052 195.314 117.514C195.198 117.171 194.854 116.931 194.436 116.956C194.375 116.963 194.3 116.968 194.22 116.996L193.721 117.165Z" fill="white"/>
<path d="M195.009 120.373C194.331 120.615 194.198 121.147 194.368 121.649C194.49 122.01 194.627 122.207 194.771 122.368L194.439 122.577C194.299 122.428 194.103 122.155 193.953 121.712C193.664 120.858 194.054 120.16 194.891 119.877C195.727 119.594 196.552 119.864 196.825 120.671C197.131 121.576 196.415 122.088 195.907 122.26C195.803 122.296 195.721 122.31 195.665 122.322L195.006 120.374L195.009 120.373ZM195.871 121.73C196.193 121.627 196.645 121.321 196.453 120.753C196.28 120.242 195.736 120.18 195.372 120.257L195.871 121.73Z" fill="white"/>
<path d="M196.579 122.985C196.905 122.875 197.183 122.774 197.437 122.668L197.587 123.11L197.049 123.312L197.057 123.336C197.473 123.335 197.809 123.561 197.924 123.898C197.943 123.955 197.951 123.999 197.954 124.048L197.479 124.209C197.474 124.154 197.462 124.098 197.438 124.029C197.318 123.674 196.964 123.514 196.562 123.573C196.489 123.585 196.404 123.6 196.317 123.629L194.838 124.13L194.669 123.631L196.579 122.985Z" fill="white"/>
<path d="M195.874 125.488C195.826 125.671 195.813 125.968 195.898 126.219C196.023 126.587 196.263 126.696 196.493 126.618C196.735 126.536 196.818 126.348 196.829 125.928C196.836 125.369 197.032 125.043 197.367 124.93C197.815 124.778 198.302 125.016 198.503 125.611C198.598 125.892 198.601 126.164 198.56 126.351L198.15 126.35C198.183 126.219 198.208 125.988 198.12 125.728C198.019 125.429 197.79 125.323 197.583 125.393C197.353 125.471 197.308 125.672 197.292 126.077C197.273 126.62 197.115 126.95 196.702 127.09C196.215 127.254 195.743 126.991 195.521 126.334C195.418 126.029 195.397 125.723 195.445 125.49L195.874 125.488Z" fill="white"/>
<path d="M200.295 126.852L200.466 127.357L198.736 127.942L198.74 127.954C198.91 127.986 199.078 128.069 199.218 128.195C199.355 128.315 199.471 128.472 199.536 128.664C199.662 129.037 199.634 129.71 198.677 130.033L197.028 130.591L196.857 130.086L198.45 129.547C198.898 129.396 199.218 129.101 199.057 128.626C198.947 128.3 198.63 128.121 198.324 128.121C198.245 128.115 198.168 128.134 198.069 128.167L196.396 128.734L196.225 128.229L200.295 126.852Z" fill="white"/>
<path d="M201.122 130.998C200.951 131.063 200.771 130.984 200.703 130.784C200.644 130.607 200.738 130.432 200.911 130.374C201.087 130.314 201.269 130.399 201.332 130.584C201.394 130.77 201.298 130.939 201.122 130.998ZM197.379 131.639L200.152 130.7L200.323 131.205L197.55 132.144L197.379 131.639Z" fill="white"/>
<path d="M199.778 132.574C200.134 132.454 200.417 132.345 200.676 132.244L200.828 132.695L200.361 132.88L200.365 132.892C200.773 132.984 201.083 133.242 201.237 133.696C201.463 134.365 201.066 135.062 200.224 135.347C199.226 135.685 198.528 135.245 198.306 134.591C198.182 134.223 198.235 133.849 198.453 133.589L198.449 133.577L196.943 134.086L196.774 133.587L199.777 132.571L199.778 132.574ZM199.209 133.323C199.134 133.348 199.07 133.383 199.011 133.417C198.693 133.628 198.553 134.011 198.675 134.373C198.855 134.905 199.397 135.068 200.033 134.852C200.589 134.664 200.965 134.211 200.785 133.679C200.669 133.335 200.315 133.098 199.902 133.128C199.834 133.132 199.753 133.139 199.684 133.162L199.209 133.323Z" fill="white"/>
<path d="M147.376 136.598C147.376 136.598 159.375 137.024 168.827 135.975C177.945 134.963 193.823 134.883 200.403 136.395C200.403 136.395 208.699 137.033 209.496 146.453C210.299 155.872 202.32 158.522 202.32 158.522C202.32 158.522 194.505 163.397 180.358 162.814C166.212 162.231 148.19 161.712 137.003 172.388" fill="#E2C5AF"/>
<path d="M147.376 136.598C147.376 136.598 159.375 137.024 168.827 135.975C177.945 134.963 193.823 134.883 200.403 136.395C200.403 136.395 208.699 137.033 209.496 146.453C210.299 155.872 202.32 158.522 202.32 158.522C202.32 158.522 194.505 163.397 180.358 162.814C166.212 162.231 148.19 161.712 137.003 172.388" stroke="#21313E" stroke-width="1.36228" stroke-miterlimit="10" stroke-linecap="round" stroke-linejoin="round"/>
<path d="M162.615 113.289C162.615 113.289 155.339 125.57 171.578 135.765" stroke="#21313E" stroke-width="1.02171" stroke-miterlimit="10" stroke-linecap="round" stroke-linejoin="round"/>
<path d="M141.989 112.685C141.989 112.685 141.741 121.828 155.181 128.385C155.181 128.385 158.18 130.019 164.179 129.132" stroke="#21313E" stroke-width="1.02171" stroke-miterlimit="10" stroke-linecap="round" stroke-linejoin="round"/>
<path d="M147.196 166.176C147.196 166.176 150.255 178.627 145.674 192.818" stroke="#21313E" stroke-width="1.02171" stroke-miterlimit="10" stroke-linecap="round" stroke-linejoin="round"/>
<path d="M147.681 169.053C158.432 171.473 163.095 179.889 163.095 179.889C168.035 173.556 177.146 170.331 177.146 170.331C177.146 170.331 178.101 165.356 180.359 162.814" stroke="#21313E" stroke-width="1.02171" stroke-miterlimit="10" stroke-linecap="round" stroke-linejoin="round"/>
<path d="M177.147 170.332C177.147 170.332 184.772 175.689 186.805 179.669" stroke="#21313E" stroke-width="1.02171" stroke-miterlimit="10" stroke-linecap="round" stroke-linejoin="round"/>
<path d="M163.094 179.889C163.094 179.889 159.734 184.777 161.59 193.192" stroke="#21313E" stroke-width="1.02171" stroke-miterlimit="10" stroke-linecap="round" stroke-linejoin="round"/>
<path d="M158.051 129.421C158.051 129.421 157.804 132.209 159.697 136.483" stroke="#21313E" stroke-width="1.02171" stroke-miterlimit="10" stroke-linecap="round" stroke-linejoin="round"/>
<path d="M166.479 162.945C166.479 162.945 159.733 167.797 158.522 174.566" stroke="#21313E" stroke-width="1.02171" stroke-miterlimit="10" stroke-linecap="round" stroke-linejoin="round"/>
<path d="M174.489 165.922C174.489 165.922 171.803 162.705 169.344 162.728" stroke="#21313E" stroke-width="1.02171" stroke-miterlimit="10" stroke-linecap="round" stroke-linejoin="round"/>
<path d="M146.305 126.329C146.305 126.329 148.738 126.483 149.795 125.098" stroke="#21313E" stroke-width="1.02171" stroke-miterlimit="10" stroke-linecap="round" stroke-linejoin="round"/>
<path d="M66.707 137.353C66.707 137.353 72.4181 133.294 100.182 129.547L66.707 137.353Z" fill="#A9D4CB"/>
<path d="M66.707 137.353C66.707 137.353 72.4181 133.294 100.182 129.547" stroke="#21313E" stroke-width="1.02171" stroke-miterlimit="10" stroke-linecap="round" stroke-linejoin="round"/>
<path d="M167.729 110.204C167.729 110.204 170.323 115.172 176.243 120.28C176.243 120.28 178.743 120.284 178.731 118.295" stroke="#21313E" stroke-width="1.02171" stroke-miterlimit="10" stroke-linecap="round" stroke-linejoin="round"/>
<path d="M145.675 104.634C145.675 104.634 147.745 106.052 148.156 108.446C148.567 110.84 159.138 113.656 159.454 111.045" stroke="#21313E" stroke-width="1.02171" stroke-miterlimit="10" stroke-linecap="round" stroke-linejoin="round"/>
<path d="M131.886 110.355C131.886 110.355 132.969 111.768 133.108 113.558C133.108 113.558 141.49 116.096 141.233 112.692" stroke="#21313E" stroke-width="1.02171" stroke-miterlimit="10" stroke-linecap="round" stroke-linejoin="round"/>
<path d="M152.843 164.503C152.843 164.503 157.364 166.504 158.844 173.213" stroke="#21313E" stroke-width="1.02171" stroke-miterlimit="10" stroke-linecap="round" stroke-linejoin="round"/>
<path d="M144.836 167.057C144.836 167.057 142.876 171.618 139.547 174.742L144.836 167.057Z" fill="#A9D4CB"/>
<path d="M144.836 167.057C144.836 167.057 142.876 171.618 139.547 174.742" stroke="#21313E" stroke-width="1.02171" stroke-miterlimit="10" stroke-linecap="round" stroke-linejoin="round"/>
<path d="M206.014 138.896C206.014 138.896 198.293 139.268 193.85 139.882C192.204 140.109 190.866 141.3 190.793 142.962C190.671 145.899 190.551 149.061 190.788 152.574C190.898 154.133 192.095 155.395 193.65 155.564C196.977 155.928 202.437 156.327 206.167 156.054" stroke="#21313E" stroke-width="1.02171" stroke-miterlimit="10" stroke-linecap="round" stroke-linejoin="round"/>
<path d="M190.801 142.963C190.801 142.963 196.978 147.251 190.795 152.574" stroke="#21313E" stroke-width="1.02171" stroke-miterlimit="10" stroke-linecap="round" stroke-linejoin="round"/>
<path d="M166.399 139.936C166.399 139.936 163.33 150.543 168.511 158.24" stroke="#21313E" stroke-width="1.02171" stroke-miterlimit="10" stroke-linecap="round" stroke-linejoin="round"/>
<path d="M172.154 139.881C172.154 139.881 173.216 144.156 173.118 149.702" stroke="#21313E" stroke-width="1.02171" stroke-miterlimit="10" stroke-linecap="round" stroke-linejoin="round"/>
</g>
<defs>
<radialGradient id="paint0_radial_6032_132489" cx="0" cy="0" r="1" gradientUnits="userSpaceOnUse" gradientTransform="translate(233.571 80.1512) rotate(71.3039) scale(214.721 239.713)">
<stop offset="0.00197249" stop-color="#26B3AD"/>
<stop offset="0.1137" stop-color="#23AAA4"/>
<stop offset="0.3393" stop-color="#1E9E98"/>
<stop offset="0.5788" stop-color="#1B9792"/>
<stop offset="0.8532" stop-color="#1A9590"/>
</radialGradient>
<radialGradient id="paint1_radial_6032_132489" cx="0" cy="0" r="1" gradientUnits="userSpaceOnUse" gradientTransform="translate(218.728 138.18) rotate(71.3039) scale(93.0034 93.0036)">
<stop offset="0.0681" stop-color="#26B3AD"/>
<stop offset="0.1804" stop-color="#25AFAA"/>
<stop offset="0.3077" stop-color="#21A5A0"/>
<stop offset="0.4417" stop-color="#1A9691"/>
<stop offset="0.4563" stop-color="#1A9590"/>
</radialGradient>
<radialGradient id="paint2_radial_6032_132489" cx="0" cy="0" r="1" gradientUnits="userSpaceOnUse" gradientTransform="translate(218.727 138.18) rotate(71.3039) scale(93.0034 93.0036)">
<stop offset="0.0681" stop-color="#26B3AD"/>
<stop offset="0.1804" stop-color="#25AFAA"/>
<stop offset="0.3077" stop-color="#21A5A0"/>
<stop offset="0.4417" stop-color="#1A9691"/>
<stop offset="0.4563" stop-color="#1A9590"/>
</radialGradient>
<radialGradient id="paint3_radial_6032_132489" cx="0" cy="0" r="1" gradientUnits="userSpaceOnUse" gradientTransform="translate(218.241 135.597) rotate(71.3039) scale(93.0034 93.0036)">
<stop offset="0.0681" stop-color="#26B3AD"/>
<stop offset="0.1804" stop-color="#25AFAA"/>
<stop offset="0.3077" stop-color="#21A5A0"/>
<stop offset="0.4417" stop-color="#1A9691"/>
<stop offset="0.4563" stop-color="#1A9590"/>
</radialGradient>
<clipPath id="clip0_6032_132489">
<rect width="262.92" height="324.339" fill="white" transform="translate(324.324) rotate(89.4643)"/>
</clipPath>
</defs>
</svg>
