<svg width="47" height="47" viewBox="0 0 47 47" fill="none" xmlns="http://www.w3.org/2000/svg">
<mask id="path-1-inside-1_6032_131850" fill="white">
<path d="M23.457 13.5C18.0795 13.5 13.707 17.8725 13.707 23.25C13.707 28.6275 18.0795 33 23.457 33C28.8345 33 33.207 28.6275 33.207 23.25C33.207 17.8725 28.8345 13.5 23.457 13.5ZM29.817 18H27.2895C27.012 17.025 26.6595 16.185 26.247 15.495C27.6495 15.9975 28.8795 16.8675 29.817 18ZM23.457 15C24.267 15 25.122 16.1475 25.7145 18H21.1995C21.792 16.1475 22.647 15 23.457 15ZM26.097 19.5C26.277 20.4075 26.4045 21.4125 26.442 22.5H20.472C20.5095 21.4125 20.637 20.4075 20.817 19.5H26.097ZM20.6745 15.495C20.2545 16.185 19.902 17.025 19.6245 18H17.097C18.0345 16.8675 19.2645 15.9975 20.6745 15.495ZM16.1145 19.5H19.2795C19.1145 20.43 19.0095 21.435 18.972 22.5H15.2445C15.342 21.4275 15.6495 20.415 16.1145 19.5ZM16.122 27C15.6495 26.085 15.342 25.0725 15.2445 24H18.972C19.0095 25.065 19.1145 26.07 19.2795 27H16.122ZM17.097 28.5H19.6245C19.902 29.4675 20.2545 30.315 20.667 31.005C19.2645 30.5025 18.0345 29.6325 17.097 28.5ZM23.457 31.5C22.647 31.5 21.792 30.3525 21.1995 28.5H25.7145C25.122 30.3525 24.267 31.5 23.457 31.5ZM20.817 27C20.637 26.0925 20.5095 25.0875 20.472 24H26.442C26.4045 25.0875 26.277 26.0925 26.097 27H20.817ZM26.2395 31.005C26.6595 30.315 27.012 29.4675 27.282 28.5H29.817C28.872 29.6421 27.636 30.5076 26.2395 31.005ZM30.792 27H27.6345C27.7995 26.07 27.9045 25.065 27.942 24H31.6695C31.572 25.0725 31.2645 26.085 30.792 27ZM31.6695 22.5H27.942C27.9045 21.435 27.7995 20.43 27.6345 19.5H30.792C31.2645 20.415 31.572 21.4275 31.6695 22.5Z"/>
</mask>
<path d="M23.457 13.5C18.0795 13.5 13.707 17.8725 13.707 23.25C13.707 28.6275 18.0795 33 23.457 33C28.8345 33 33.207 28.6275 33.207 23.25C33.207 17.8725 28.8345 13.5 23.457 13.5ZM29.817 18H27.2895C27.012 17.025 26.6595 16.185 26.247 15.495C27.6495 15.9975 28.8795 16.8675 29.817 18ZM23.457 15C24.267 15 25.122 16.1475 25.7145 18H21.1995C21.792 16.1475 22.647 15 23.457 15ZM26.097 19.5C26.277 20.4075 26.4045 21.4125 26.442 22.5H20.472C20.5095 21.4125 20.637 20.4075 20.817 19.5H26.097ZM20.6745 15.495C20.2545 16.185 19.902 17.025 19.6245 18H17.097C18.0345 16.8675 19.2645 15.9975 20.6745 15.495ZM16.1145 19.5H19.2795C19.1145 20.43 19.0095 21.435 18.972 22.5H15.2445C15.342 21.4275 15.6495 20.415 16.1145 19.5ZM16.122 27C15.6495 26.085 15.342 25.0725 15.2445 24H18.972C19.0095 25.065 19.1145 26.07 19.2795 27H16.122ZM17.097 28.5H19.6245C19.902 29.4675 20.2545 30.315 20.667 31.005C19.2645 30.5025 18.0345 29.6325 17.097 28.5ZM23.457 31.5C22.647 31.5 21.792 30.3525 21.1995 28.5H25.7145C25.122 30.3525 24.267 31.5 23.457 31.5ZM20.817 27C20.637 26.0925 20.5095 25.0875 20.472 24H26.442C26.4045 25.0875 26.277 26.0925 26.097 27H20.817ZM26.2395 31.005C26.6595 30.315 27.012 29.4675 27.282 28.5H29.817C28.872 29.6421 27.636 30.5076 26.2395 31.005ZM30.792 27H27.6345C27.7995 26.07 27.9045 25.065 27.942 24H31.6695C31.572 25.0725 31.2645 26.085 30.792 27ZM31.6695 22.5H27.942C27.9045 21.435 27.7995 20.43 27.6345 19.5H30.792C31.2645 20.415 31.572 21.4275 31.6695 22.5Z" fill="#1FB9B3"/>
<path d="M29.817 18V23H40.447L33.6686 14.8116L29.817 18ZM27.2895 18L22.4805 19.3687L23.514 23H27.2895V18ZM26.247 15.495L27.9335 10.788L14.7931 6.07994L21.9555 18.0606L26.247 15.495ZM25.7145 18V23H32.5632L30.4769 16.4768L25.7145 18ZM21.1995 18L16.4372 16.4768L14.3508 23H21.1995V18ZM26.097 19.5L31.0015 18.5272L30.2027 14.5H26.097V19.5ZM26.442 22.5V27.5H31.6174L31.4391 22.3277L26.442 22.5ZM20.472 22.5L15.475 22.3277L15.2966 27.5H20.472V22.5ZM20.817 19.5V14.5H16.7114L15.9126 18.5272L20.817 19.5ZM20.6745 15.495L24.9455 18.0947L32.2755 6.05256L18.996 10.7852L20.6745 15.495ZM19.6245 18V23H23.4L24.4335 19.3687L19.6245 18ZM17.097 18L13.2455 14.8116L6.46705 23H17.097V18ZM16.1145 19.5V14.5H13.0469L11.6571 17.2348L16.1145 19.5ZM19.2795 19.5L24.2026 20.3735L25.2447 14.5H19.2795V19.5ZM18.972 22.5V27.5H23.7991L23.9689 22.6759L18.972 22.5ZM15.2445 22.5L10.2651 22.0473L9.76937 27.5H15.2445V22.5ZM16.122 27L11.6794 29.2941L13.0767 32H16.122V27ZM15.2445 24V19H9.76937L10.2651 24.4527L15.2445 24ZM18.972 24L23.9689 23.8241L23.7991 19H18.972V24ZM19.2795 27V32H25.2447L24.2026 26.1265L19.2795 27ZM17.097 28.5V23.5H6.46705L13.2455 31.6884L17.097 28.5ZM19.6245 28.5L24.4307 27.1215L23.392 23.5H19.6245V28.5ZM20.667 31.005L18.9806 35.712L32.121 40.4201L24.9586 28.4394L20.667 31.005ZM21.1995 28.5V23.5H14.3508L16.4372 30.0232L21.1995 28.5ZM25.7145 28.5L30.4769 30.0232L32.5632 23.5H25.7145V28.5ZM20.817 27L15.9126 27.9728L16.7114 32H20.817V27ZM20.472 24V19H15.2966L15.475 24.1723L20.472 24ZM26.442 24L31.4391 24.1723L31.6174 19H26.442V24ZM26.097 27V32H30.2027L31.0015 27.9728L26.097 27ZM26.2395 31.005L21.9685 28.4053L14.6407 40.4438L27.9172 35.7152L26.2395 31.005ZM27.282 28.5V23.5H23.4863L22.466 27.156L27.282 28.5ZM29.817 28.5L33.6694 31.6874L40.4436 23.5H29.817V28.5ZM30.792 27V32H33.8374L35.2347 29.2941L30.792 27ZM27.6345 27L22.7114 26.1265L21.6693 32H27.6345V27ZM27.942 24V19H23.115L22.9451 23.8241L27.942 24ZM31.6695 24L36.649 24.4527L37.1447 19H31.6695V24ZM31.6695 22.5V27.5H37.1447L36.649 22.0473L31.6695 22.5ZM27.942 22.5L22.9451 22.6759L23.115 27.5H27.942V22.5ZM27.6345 19.5V14.5H21.6693L22.7114 20.3735L27.6345 19.5ZM30.792 19.5L35.2347 17.2059L33.8374 14.5H30.792V19.5ZM23.457 8.5C15.3181 8.5 8.70703 15.1111 8.70703 23.25H18.707C18.707 20.6339 20.841 18.5 23.457 18.5V8.5ZM8.70703 23.25C8.70703 31.3889 15.3181 38 23.457 38V28C20.841 28 18.707 25.8661 18.707 23.25H8.70703ZM23.457 38C31.596 38 38.207 31.3889 38.207 23.25H28.207C28.207 25.8661 26.0731 28 23.457 28V38ZM38.207 23.25C38.207 15.1111 31.596 8.5 23.457 8.5V18.5C26.0731 18.5 28.207 20.6339 28.207 23.25H38.207ZM29.817 13H27.2895V23H29.817V13ZM32.0985 16.6313C31.7265 15.3243 31.2176 14.0651 30.5386 12.9294L21.9555 18.0606C22.1015 18.3049 22.2975 18.7257 22.4805 19.3687L32.0985 16.6313ZM24.5606 20.202C25.1108 20.3991 25.5953 20.7411 25.9655 21.1884L33.6686 14.8116C32.1638 12.9939 30.1883 11.5959 27.9335 10.788L24.5606 20.202ZM23.457 20C22.4389 20 21.6897 19.6338 21.2809 19.3593C20.8891 19.0962 20.7017 18.8511 20.6682 18.8065C20.61 18.7289 20.7579 18.9156 20.9522 19.5232L30.4769 16.4768C30.0787 15.2319 29.5028 13.9186 28.6665 12.8042C27.9763 11.8845 26.2637 10 23.457 10V20ZM25.7145 13H21.1995V23H25.7145V13ZM25.9619 19.5232C26.1562 18.9156 26.304 18.7289 26.2459 18.8065C26.2123 18.8511 26.025 19.0962 25.6332 19.3593C25.2243 19.6338 24.4752 20 23.457 20V10C20.6504 10 18.9377 11.8845 18.2476 12.8042C17.4113 13.9186 16.8354 15.2319 16.4372 16.4768L25.9619 19.5232ZM21.1926 20.4728C21.3233 21.1317 21.4173 21.8688 21.445 22.6723L31.4391 22.3277C31.3918 20.9562 31.2308 19.6833 31.0015 18.5272L21.1926 20.4728ZM26.442 17.5H20.472V27.5H26.442V17.5ZM25.4691 22.6723C25.4968 21.8688 25.5908 21.1317 25.7215 20.4728L15.9126 18.5272C15.6833 19.6833 15.5223 20.9562 15.475 22.3277L25.4691 22.6723ZM20.817 24.5H26.097V14.5H20.817V24.5ZM16.4035 12.8953C15.7 14.0511 15.187 15.3262 14.8155 16.6313L24.4335 19.3687C24.6171 18.7238 24.809 18.3189 24.9455 18.0947L16.4035 12.8953ZM19.6245 13H17.097V23H19.6245V13ZM20.9486 21.1884C21.3174 20.7428 21.7993 20.4022 22.353 20.2048L18.996 10.7852C16.7298 11.5928 14.7516 12.9922 13.2455 14.8116L20.9486 21.1884ZM16.1145 24.5H19.2795V14.5H16.1145V24.5ZM14.3564 18.6265C14.1474 19.8048 14.0202 21.0439 13.9751 22.3241L23.9689 22.6759C23.9989 21.8261 24.0817 21.0552 24.2026 20.3735L14.3564 18.6265ZM18.972 17.5H15.2445V27.5H18.972V17.5ZM20.224 22.9527C20.261 22.5455 20.3787 22.1454 20.572 21.7652L11.6571 17.2348C10.9203 18.6846 10.4231 20.3095 10.2651 22.0473L20.224 22.9527ZM20.5647 24.7059C20.3773 24.343 20.2609 23.9537 20.224 23.5473L10.2651 24.4527C10.4231 26.1913 10.9218 27.827 11.6794 29.2941L20.5647 24.7059ZM15.2445 29H18.972V19H15.2445V29ZM13.9751 24.1759C14.0202 25.4561 14.1474 26.6952 14.3564 27.8735L24.2026 26.1265C24.0817 25.4448 23.9989 24.6739 23.9689 23.8241L13.9751 24.1759ZM19.2795 22H16.122V32H19.2795V22ZM17.097 33.5H19.6245V23.5H17.097V33.5ZM14.8183 29.8785C15.1863 31.1616 15.6927 32.4285 16.3755 33.5706L24.9586 28.4394C24.8164 28.2015 24.6177 27.7734 24.4307 27.1215L14.8183 29.8785ZM22.3535 26.298C21.8033 26.1009 21.3188 25.7589 20.9486 25.3116L13.2455 31.6884C14.7503 33.5061 16.7258 34.9041 18.9806 35.712L22.3535 26.298ZM23.457 26.5C24.4752 26.5 25.2243 26.8662 25.6332 27.1407C26.025 27.4038 26.2123 27.6489 26.2459 27.6935C26.304 27.7711 26.1562 27.5844 25.9619 26.9768L16.4372 30.0232C16.8354 31.2681 17.4113 32.5814 18.2476 33.6958C18.9377 34.6155 20.6504 36.5 23.457 36.5V26.5ZM21.1995 33.5H25.7145V23.5H21.1995V33.5ZM20.9522 26.9768C20.7579 27.5844 20.61 27.7711 20.6682 27.6935C20.7017 27.6489 20.8891 27.4038 21.2809 27.1407C21.6897 26.8662 22.4389 26.5 23.457 26.5V36.5C26.2637 36.5 27.9763 34.6155 28.6665 33.6958C29.5028 32.5814 30.0787 31.2681 30.4769 30.0232L20.9522 26.9768ZM25.7215 26.0272C25.5908 25.3683 25.4968 24.6312 25.4691 23.8277L15.475 24.1723C15.5223 25.5438 15.6833 26.8167 15.9126 27.9728L25.7215 26.0272ZM20.472 29H26.442V19H20.472V29ZM21.445 23.8277C21.4173 24.6312 21.3233 25.3683 21.1926 26.0272L31.0015 27.9728C31.2308 26.8167 31.3918 25.5438 31.4391 24.1723L21.445 23.8277ZM26.097 22H20.817V32H26.097V22ZM30.5105 33.6047C31.219 32.4408 31.7337 31.1495 32.098 29.844L22.466 27.156C22.2904 27.7855 22.1 28.1892 21.9685 28.4053L30.5105 33.6047ZM27.282 33.5H29.817V23.5H27.282V33.5ZM25.9647 25.3126C25.5942 25.7604 25.1095 26.0998 24.5619 26.2948L27.9172 35.7152C30.1625 34.9154 32.1499 33.5238 33.6694 31.6874L25.9647 25.3126ZM30.792 22H27.6345V32H30.792V22ZM32.5576 27.8735C32.7667 26.6952 32.8939 25.4561 32.9389 24.1759L22.9451 23.8241C22.9152 24.6739 22.8324 25.4448 22.7114 26.1265L32.5576 27.8735ZM27.942 29H31.6695V19H27.942V29ZM26.6901 23.5473C26.6531 23.9537 26.5368 24.343 26.3494 24.7059L35.2347 29.2941C35.9923 27.827 36.4909 26.1913 36.649 24.4527L26.6901 23.5473ZM31.6695 17.5H27.942V27.5H31.6695V17.5ZM32.9389 22.3241C32.8939 21.0439 32.7667 19.8048 32.5576 18.6265L22.7114 20.3735C22.8324 21.0552 22.9152 21.8261 22.9451 22.6759L32.9389 22.3241ZM27.6345 24.5H30.792V14.5H27.6345V24.5ZM26.3494 21.7941C26.5368 22.157 26.6531 22.5463 26.6901 22.9527L36.649 22.0473C36.4909 20.3087 35.9923 18.673 35.2347 17.2059L26.3494 21.7941Z" fill="#1FB9B3" mask="url(#path-1-inside-1_6032_131850)"/>
<mask id="path-3-inside-2_6032_131850" fill="white">
<path d="M46.707 15.75V2.25C46.707 1.0125 45.6945 2.74337e-06 44.457 2.74337e-06H36.957C35.7195 2.74337e-06 34.707 1.0125 34.707 2.25V5.52C32.1922 3.91954 29.3638 2.87615 26.412 2.46H26.3895C26.2668 1.76979 25.9048 1.14487 25.3672 0.694994C24.8295 0.24512 24.1506 -0.000947756 23.4495 2.74337e-06C21.987 2.74337e-06 20.7645 1.0575 20.5095 2.46H20.502C19.722 2.565 18.957 2.7375 18.207 2.9325V2.74337e-06H0.207031V13.5H4.85703C3.73881 15.623 3.0002 17.9252 2.67453 20.3025C1.27203 20.5575 0.207031 21.78 0.207031 23.25C0.207031 24.72 1.27203 25.9425 2.67453 26.1975C2.83203 27.3 3.07203 28.395 3.40203 29.46C3.29703 29.4975 3.19953 29.5425 3.10203 29.5875L1.98453 30.15C0.889531 30.6975 0.207031 31.8 0.207031 33.0225V33.5775C0.207031 33.7275 0.214531 33.8775 0.237031 34.0275C1.15203 40.44 6.26703 45.555 12.6795 46.47C12.8295 46.4925 12.9795 46.5 13.1295 46.5H13.6845C14.907 46.5 16.0095 45.8175 16.557 44.7225L17.1195 43.605C17.1645 43.5075 17.2095 43.41 17.247 43.305C18.312 43.635 19.407 43.875 20.5095 44.0325C20.6346 44.7236 20.9981 45.349 21.5366 45.7998C22.0751 46.2507 22.7547 46.4984 23.457 46.5C24.9345 46.5 26.157 45.4275 26.4045 44.025C29.9895 43.5225 33.342 42.135 36.207 39.9375V41.25C36.207 44.145 38.562 46.5 41.457 46.5V45C39.387 45 37.707 43.32 37.707 41.25V38.25C37.707 36.18 39.387 34.5 41.457 34.5C43.527 34.5 45.207 36.18 45.207 38.25V44.25C45.207 44.6625 44.8695 45 44.457 45C44.0445 45 43.707 44.6625 43.707 44.25V38.25C43.707 37.0125 42.6945 36 41.457 36C40.2195 36 39.207 37.0125 39.207 38.25V41.25C39.207 42.4875 40.2195 43.5 41.457 43.5C41.7195 43.5 41.9745 43.4475 42.207 43.365V44.25C42.207 45.4875 43.2195 46.5 44.457 46.5C45.6945 46.5 46.707 45.4875 46.707 44.25V38.25C46.707 35.55 44.6595 33.3225 42.0345 33.03C43.167 30.8925 43.902 28.605 44.2395 26.1975C45.642 25.9425 46.707 24.72 46.707 23.25C46.707 21.78 45.642 20.5575 44.2395 20.3025C44.1345 19.5225 43.9845 18.7575 43.797 18H44.457C45.6945 18 46.707 16.9875 46.707 15.75ZM42.207 41.25C42.207 41.6625 41.8695 42 41.457 42C41.0445 42 40.707 41.6625 40.707 41.25V38.25C40.707 37.8375 41.0445 37.5 41.457 37.5C41.8695 37.5 42.207 37.8375 42.207 38.25V41.25ZM36.207 2.25C36.207 1.8375 36.5445 1.5 36.957 1.5H44.457C44.8695 1.5 45.207 1.8375 45.207 2.25V3H36.207V2.25ZM36.207 4.5H45.207V13.5H36.207V4.5ZM23.472 1.4775C24.117 1.4775 24.672 1.8825 24.882 2.46C24.942 2.6175 24.9795 2.7975 24.9795 2.985C24.9795 3.36 24.8445 3.6975 24.6195 3.9675C24.342 4.29 23.9295 4.5 23.472 4.5C23.007 4.5 22.587 4.29 22.3095 3.96C22.0845 3.69 21.957 3.36 21.957 2.985C21.957 2.7975 21.987 2.6175 22.0545 2.46C22.161 2.17029 22.3543 1.92048 22.608 1.74465C22.8616 1.56882 23.1634 1.47553 23.472 1.4775ZM15.777 1.5L10.377 7.5H8.04453L2.64453 1.5H15.777ZM16.707 2.7075V11.3475L11.847 8.1075L16.707 2.7075ZM1.70703 2.7075L6.56703 8.1075L1.70703 11.3475V2.7075ZM3.43203 12L7.93203 9H10.482L14.982 12H3.43203ZM3.20703 24.75C2.38203 24.75 1.70703 24.075 1.70703 23.25C1.70703 22.425 2.38203 21.75 3.20703 21.75C4.03203 21.75 4.70703 22.425 4.70703 23.25C4.70703 24.075 4.03203 24.75 3.20703 24.75ZM15.777 42.9375L15.2145 44.055C14.922 44.64 14.337 45 13.6845 45H13.1295C13.0545 45 12.972 44.9925 12.8895 44.985C7.13703 44.16 2.54703 39.57 1.72203 33.8175C1.71453 33.735 1.70703 33.6525 1.70703 33.5775V33.0225C1.70703 32.37 2.06703 31.785 2.65203 31.4925L3.76953 30.93C4.00953 30.81 4.27203 30.75 4.54203 30.75C5.24703 30.75 5.86953 31.17 6.13203 31.83L6.74703 33.3675C6.88203 33.72 6.95703 34.0875 6.95703 34.5075C6.95703 35.355 6.58953 36.1725 5.94453 36.7275L5.33703 37.26L5.49453 37.7325C5.76676 38.5405 6.22169 39.2749 6.82396 39.8785C7.42622 40.482 8.15959 40.9385 8.96703 41.2125L9.40953 41.355L10.152 40.6125C10.977 39.7875 12.252 39.525 13.3395 39.96L14.877 40.575C15.537 40.8375 15.957 41.46 15.957 42.165C15.957 42.435 15.897 42.6975 15.777 42.9375ZM23.457 45C22.632 45 21.957 44.325 21.957 43.5C21.957 42.675 22.632 42 23.457 42C24.282 42 24.957 42.675 24.957 43.5C24.957 44.325 24.282 45 23.457 45ZM40.257 33.1425C38.022 33.6675 36.342 35.6175 36.222 37.98C33.4142 40.4184 29.9648 41.9986 26.2845 42.5325C25.872 41.355 24.7695 40.5 23.457 40.5C22.1445 40.5 21.0345 41.355 20.6295 42.5325C19.542 42.375 18.4695 42.1275 17.427 41.79C17.3619 41.2171 17.1427 40.6725 16.7927 40.2142C16.4428 39.756 15.9751 39.4011 15.4395 39.1875L13.8945 38.5725C12.2595 37.92 10.332 38.31 9.08703 39.555L9.02703 39.6225C8.18026 39.2306 7.49805 38.5537 7.09953 37.71C7.53224 37.2876 7.87544 36.7823 8.10867 36.2244C8.3419 35.6664 8.46037 35.0672 8.45703 34.4625C8.45703 33.8925 8.35203 33.3375 8.13453 32.805L7.52703 31.2675C7.3108 30.7322 6.95426 30.2651 6.49496 29.9153C6.03565 29.5656 5.49055 29.3461 4.91703 29.28C4.57953 28.2375 4.33203 27.165 4.17453 26.0775C5.35203 25.6725 6.20703 24.5625 6.20703 23.25C6.20703 21.9375 5.35203 20.8275 4.16703 20.4225C4.52703 17.97 5.32953 15.645 6.57453 13.5H18.207V4.47C18.9945 4.2525 19.797 4.08 20.622 3.96C20.8195 4.55332 21.1984 5.06954 21.7054 5.43563C22.2123 5.80172 22.8215 5.99914 23.4468 5.99997C24.0721 6.0008 24.6819 5.80499 25.1898 5.44025C25.6977 5.07551 26.078 4.56029 26.277 3.9675H26.2845C29.3145 4.41 32.202 5.565 34.707 7.335V15.75C34.707 16.9875 35.7195 18 36.957 18H42.237C42.4545 18.7875 42.627 19.5975 42.747 20.4225C41.562 20.8275 40.707 21.9375 40.707 23.25C40.707 24.5625 41.562 25.6725 42.747 26.0775C42.387 28.5727 41.5411 30.973 40.257 33.1425ZM45.207 23.25C45.207 24.075 44.532 24.75 43.707 24.75C42.882 24.75 42.207 24.075 42.207 23.25C42.207 22.425 42.882 21.75 43.707 21.75C44.532 21.75 45.207 22.425 45.207 23.25ZM36.957 16.5C36.5445 16.5 36.207 16.1625 36.207 15.75V15H45.207V15.75C45.207 16.1625 44.8695 16.5 44.457 16.5H36.957Z"/>
</mask>
<path d="M46.707 15.75V2.25C46.707 1.0125 45.6945 2.74337e-06 44.457 2.74337e-06H36.957C35.7195 2.74337e-06 34.707 1.0125 34.707 2.25V5.52C32.1922 3.91954 29.3638 2.87615 26.412 2.46H26.3895C26.2668 1.76979 25.9048 1.14487 25.3672 0.694994C24.8295 0.24512 24.1506 -0.000947756 23.4495 2.74337e-06C21.987 2.74337e-06 20.7645 1.0575 20.5095 2.46H20.502C19.722 2.565 18.957 2.7375 18.207 2.9325V2.74337e-06H0.207031V13.5H4.85703C3.73881 15.623 3.0002 17.9252 2.67453 20.3025C1.27203 20.5575 0.207031 21.78 0.207031 23.25C0.207031 24.72 1.27203 25.9425 2.67453 26.1975C2.83203 27.3 3.07203 28.395 3.40203 29.46C3.29703 29.4975 3.19953 29.5425 3.10203 29.5875L1.98453 30.15C0.889531 30.6975 0.207031 31.8 0.207031 33.0225V33.5775C0.207031 33.7275 0.214531 33.8775 0.237031 34.0275C1.15203 40.44 6.26703 45.555 12.6795 46.47C12.8295 46.4925 12.9795 46.5 13.1295 46.5H13.6845C14.907 46.5 16.0095 45.8175 16.557 44.7225L17.1195 43.605C17.1645 43.5075 17.2095 43.41 17.247 43.305C18.312 43.635 19.407 43.875 20.5095 44.0325C20.6346 44.7236 20.9981 45.349 21.5366 45.7998C22.0751 46.2507 22.7547 46.4984 23.457 46.5C24.9345 46.5 26.157 45.4275 26.4045 44.025C29.9895 43.5225 33.342 42.135 36.207 39.9375V41.25C36.207 44.145 38.562 46.5 41.457 46.5V45C39.387 45 37.707 43.32 37.707 41.25V38.25C37.707 36.18 39.387 34.5 41.457 34.5C43.527 34.5 45.207 36.18 45.207 38.25V44.25C45.207 44.6625 44.8695 45 44.457 45C44.0445 45 43.707 44.6625 43.707 44.25V38.25C43.707 37.0125 42.6945 36 41.457 36C40.2195 36 39.207 37.0125 39.207 38.25V41.25C39.207 42.4875 40.2195 43.5 41.457 43.5C41.7195 43.5 41.9745 43.4475 42.207 43.365V44.25C42.207 45.4875 43.2195 46.5 44.457 46.5C45.6945 46.5 46.707 45.4875 46.707 44.25V38.25C46.707 35.55 44.6595 33.3225 42.0345 33.03C43.167 30.8925 43.902 28.605 44.2395 26.1975C45.642 25.9425 46.707 24.72 46.707 23.25C46.707 21.78 45.642 20.5575 44.2395 20.3025C44.1345 19.5225 43.9845 18.7575 43.797 18H44.457C45.6945 18 46.707 16.9875 46.707 15.75ZM42.207 41.25C42.207 41.6625 41.8695 42 41.457 42C41.0445 42 40.707 41.6625 40.707 41.25V38.25C40.707 37.8375 41.0445 37.5 41.457 37.5C41.8695 37.5 42.207 37.8375 42.207 38.25V41.25ZM36.207 2.25C36.207 1.8375 36.5445 1.5 36.957 1.5H44.457C44.8695 1.5 45.207 1.8375 45.207 2.25V3H36.207V2.25ZM36.207 4.5H45.207V13.5H36.207V4.5ZM23.472 1.4775C24.117 1.4775 24.672 1.8825 24.882 2.46C24.942 2.6175 24.9795 2.7975 24.9795 2.985C24.9795 3.36 24.8445 3.6975 24.6195 3.9675C24.342 4.29 23.9295 4.5 23.472 4.5C23.007 4.5 22.587 4.29 22.3095 3.96C22.0845 3.69 21.957 3.36 21.957 2.985C21.957 2.7975 21.987 2.6175 22.0545 2.46C22.161 2.17029 22.3543 1.92048 22.608 1.74465C22.8616 1.56882 23.1634 1.47553 23.472 1.4775ZM15.777 1.5L10.377 7.5H8.04453L2.64453 1.5H15.777ZM16.707 2.7075V11.3475L11.847 8.1075L16.707 2.7075ZM1.70703 2.7075L6.56703 8.1075L1.70703 11.3475V2.7075ZM3.43203 12L7.93203 9H10.482L14.982 12H3.43203ZM3.20703 24.75C2.38203 24.75 1.70703 24.075 1.70703 23.25C1.70703 22.425 2.38203 21.75 3.20703 21.75C4.03203 21.75 4.70703 22.425 4.70703 23.25C4.70703 24.075 4.03203 24.75 3.20703 24.75ZM15.777 42.9375L15.2145 44.055C14.922 44.64 14.337 45 13.6845 45H13.1295C13.0545 45 12.972 44.9925 12.8895 44.985C7.13703 44.16 2.54703 39.57 1.72203 33.8175C1.71453 33.735 1.70703 33.6525 1.70703 33.5775V33.0225C1.70703 32.37 2.06703 31.785 2.65203 31.4925L3.76953 30.93C4.00953 30.81 4.27203 30.75 4.54203 30.75C5.24703 30.75 5.86953 31.17 6.13203 31.83L6.74703 33.3675C6.88203 33.72 6.95703 34.0875 6.95703 34.5075C6.95703 35.355 6.58953 36.1725 5.94453 36.7275L5.33703 37.26L5.49453 37.7325C5.76676 38.5405 6.22169 39.2749 6.82396 39.8785C7.42622 40.482 8.15959 40.9385 8.96703 41.2125L9.40953 41.355L10.152 40.6125C10.977 39.7875 12.252 39.525 13.3395 39.96L14.877 40.575C15.537 40.8375 15.957 41.46 15.957 42.165C15.957 42.435 15.897 42.6975 15.777 42.9375ZM23.457 45C22.632 45 21.957 44.325 21.957 43.5C21.957 42.675 22.632 42 23.457 42C24.282 42 24.957 42.675 24.957 43.5C24.957 44.325 24.282 45 23.457 45ZM40.257 33.1425C38.022 33.6675 36.342 35.6175 36.222 37.98C33.4142 40.4184 29.9648 41.9986 26.2845 42.5325C25.872 41.355 24.7695 40.5 23.457 40.5C22.1445 40.5 21.0345 41.355 20.6295 42.5325C19.542 42.375 18.4695 42.1275 17.427 41.79C17.3619 41.2171 17.1427 40.6725 16.7927 40.2142C16.4428 39.756 15.9751 39.4011 15.4395 39.1875L13.8945 38.5725C12.2595 37.92 10.332 38.31 9.08703 39.555L9.02703 39.6225C8.18026 39.2306 7.49805 38.5537 7.09953 37.71C7.53224 37.2876 7.87544 36.7823 8.10867 36.2244C8.3419 35.6664 8.46037 35.0672 8.45703 34.4625C8.45703 33.8925 8.35203 33.3375 8.13453 32.805L7.52703 31.2675C7.3108 30.7322 6.95426 30.2651 6.49496 29.9153C6.03565 29.5656 5.49055 29.3461 4.91703 29.28C4.57953 28.2375 4.33203 27.165 4.17453 26.0775C5.35203 25.6725 6.20703 24.5625 6.20703 23.25C6.20703 21.9375 5.35203 20.8275 4.16703 20.4225C4.52703 17.97 5.32953 15.645 6.57453 13.5H18.207V4.47C18.9945 4.2525 19.797 4.08 20.622 3.96C20.8195 4.55332 21.1984 5.06954 21.7054 5.43563C22.2123 5.80172 22.8215 5.99914 23.4468 5.99997C24.0721 6.0008 24.6819 5.80499 25.1898 5.44025C25.6977 5.07551 26.078 4.56029 26.277 3.9675H26.2845C29.3145 4.41 32.202 5.565 34.707 7.335V15.75C34.707 16.9875 35.7195 18 36.957 18H42.237C42.4545 18.7875 42.627 19.5975 42.747 20.4225C41.562 20.8275 40.707 21.9375 40.707 23.25C40.707 24.5625 41.562 25.6725 42.747 26.0775C42.387 28.5727 41.5411 30.973 40.257 33.1425ZM45.207 23.25C45.207 24.075 44.532 24.75 43.707 24.75C42.882 24.75 42.207 24.075 42.207 23.25C42.207 22.425 42.882 21.75 43.707 21.75C44.532 21.75 45.207 22.425 45.207 23.25ZM36.957 16.5C36.5445 16.5 36.207 16.1625 36.207 15.75V15H45.207V15.75C45.207 16.1625 44.8695 16.5 44.457 16.5H36.957Z" fill="#1FB9B3" stroke="#1FB9B3" stroke-width="10" mask="url(#path-3-inside-2_6032_131850)"/>
<mask id="path-4-inside-3_6032_131850" fill="white">
<path d="M34.707 22.5H39.207V24H34.707V22.5ZM22.707 34.5H24.207V39H22.707V34.5ZM7.70703 22.5H12.207V24H7.70703V22.5ZM22.707 7.5H24.207V12H22.707V7.5Z"/>
</mask>
<path d="M34.707 22.5H39.207V24H34.707V22.5ZM22.707 34.5H24.207V39H22.707V34.5ZM7.70703 22.5H12.207V24H7.70703V22.5ZM22.707 7.5H24.207V12H22.707V7.5Z" fill="#1FB9B3"/>
<path d="M34.707 22.5V12.5H24.707V22.5H34.707ZM39.207 22.5H49.207V12.5H39.207V22.5ZM39.207 24V34H49.207V24H39.207ZM34.707 24H24.707V34H34.707V24ZM22.707 34.5V24.5H12.707V34.5H22.707ZM24.207 34.5H34.207V24.5H24.207V34.5ZM24.207 39V49H34.207V39H24.207ZM22.707 39H12.707V49H22.707V39ZM7.70703 22.5V12.5H-2.29297V22.5H7.70703ZM12.207 22.5H22.207V12.5H12.207V22.5ZM12.207 24V34H22.207V24H12.207ZM7.70703 24H-2.29297V34H7.70703V24ZM22.707 7.5V-2.5H12.707V7.5H22.707ZM24.207 7.5H34.207V-2.5H24.207V7.5ZM24.207 12V22H34.207V12H24.207ZM22.707 12H12.707V22H22.707V12ZM34.707 32.5H39.207V12.5H34.707V32.5ZM29.207 22.5V24H49.207V22.5H29.207ZM39.207 14H34.707V34H39.207V14ZM44.707 24V22.5H24.707V24H44.707ZM22.707 44.5H24.207V24.5H22.707V44.5ZM14.207 34.5V39H34.207V34.5H14.207ZM24.207 29H22.707V49H24.207V29ZM32.707 39V34.5H12.707V39H32.707ZM7.70703 32.5H12.207V12.5H7.70703V32.5ZM2.20703 22.5V24H22.207V22.5H2.20703ZM12.207 14H7.70703V34H12.207V14ZM17.707 24V22.5H-2.29297V24H17.707ZM22.707 17.5H24.207V-2.5H22.707V17.5ZM14.207 7.5V12H34.207V7.5H14.207ZM24.207 2H22.707V22H24.207V2ZM32.707 12V7.5H12.707V12H32.707Z" fill="#1FB9B3" mask="url(#path-4-inside-3_6032_131850)"/>
</svg>
