<svg width="15" height="19" viewBox="0 0 15 19" fill="none" xmlns="http://www.w3.org/2000/svg">
<path d="M7.125 17.7734H4.75C2.00625 17.7734 0.78125 16.2422 0.78125 12.8125V9.84375C0.78125 6.41406 2.00625 4.88281 4.75 4.88281H6.625C6.88125 4.88281 7.09375 5.14844 7.09375 5.46875C7.09375 5.78906 6.88125 6.05469 6.625 6.05469H4.75C2.5125 6.05469 1.71875 7.04688 1.71875 9.84375V12.8125C1.71875 15.6094 2.5125 16.6016 4.75 16.6016H7.125C9.3625 16.6016 10.1563 15.6094 10.1563 12.8125V10.4687C10.1563 10.1484 10.3688 9.88281 10.625 9.88281C10.8813 9.88281 11.0938 10.1484 11.0938 10.4687V12.8125C11.0938 16.2422 9.86875 17.7734 7.125 17.7734Z" fill="white"/>
<path d="M10.625 11.0548H8.625C6.86875 11.0548 6.15625 10.1641 6.15625 7.96882V5.46882C6.15625 5.23444 6.26875 5.01569 6.44375 4.92975C6.61875 4.836 6.81875 4.89069 6.95625 5.05475L10.9563 10.0548C11.0875 10.2188 11.1312 10.4766 11.0563 10.6954C10.9875 10.9141 10.8125 11.0548 10.625 11.0548ZM7.09375 6.88288V7.96882C7.09375 9.5235 7.38125 9.88288 8.625 9.88288H9.49375L7.09375 6.88288Z" fill="white"/>
<path d="M9.75 2.14844H7.25C6.99375 2.14844 6.78125 1.88281 6.78125 1.5625C6.78125 1.24219 6.99375 0.976562 7.25 0.976562H9.75C10.0062 0.976562 10.2188 1.24219 10.2188 1.5625C10.2188 1.88281 10.0062 2.14844 9.75 2.14844Z" fill="white"/>
<path d="M4.375 4.49219C4.11875 4.49219 3.90625 4.22656 3.90625 3.90625C3.90625 2.28906 4.95625 0.976562 6.25 0.976562H7.8875C8.14375 0.976562 8.35625 1.24219 8.35625 1.5625C8.35625 1.88281 8.14375 2.14844 7.8875 2.14844H6.25C5.475 2.14844 4.84375 2.9375 4.84375 3.90625C4.84375 4.22656 4.63125 4.49219 4.375 4.49219Z" fill="white"/>
<path d="M11.9922 13.8672C11.7359 13.8672 11.5234 13.6016 11.5234 13.2812C11.5234 12.9609 11.7359 12.6953 11.9922 12.6953C12.7047 12.6953 13.2797 11.9687 13.2797 11.0859V6.25C13.2797 5.92969 13.4922 5.66406 13.7484 5.66406C14.0047 5.66406 14.2172 5.92969 14.2172 6.25V11.0859C14.2172 12.6172 13.2172 13.8672 11.9922 13.8672Z" fill="white"/>
<path d="M13.75 6.836H11.875C10.2125 6.836 9.53125 5.98444 9.53125 3.90632V1.56257C9.53125 1.32819 9.64375 1.10944 9.81875 1.0235C9.99375 0.929755 10.1938 0.984443 10.3313 1.14851L14.0813 5.836C14.2125 6.00007 14.2563 6.25788 14.1813 6.47663C14.1125 6.69538 13.9375 6.836 13.75 6.836ZM10.4688 2.97663V3.90632C10.4688 5.33601 10.7313 5.66413 11.875 5.66413H12.6188L10.4688 2.97663Z" fill="white"/>
</svg>
