<svg width="70" height="71" viewBox="0 0 70 71" fill="none" xmlns="http://www.w3.org/2000/svg">
<g clip-path="url(#clip0_6032_131760)">
<path d="M52.5007 52.0413C52.5007 53.3299 51.4559 54.3747 50.1673 54.3747C48.8787 54.3747 47.834 53.3299 47.834 52.0413C47.834 50.7528 48.8787 49.708 50.1673 49.708C51.4559 49.708 52.5007 50.7528 52.5007 52.0413Z" fill="#1FB9B3"/>
<path d="M59.5 40.3747H58.3333V34.5413C58.331 32.609 56.7656 31.0437 54.8333 31.0413H3.5C1.56771 31.0437 0.00233333 32.609 0 34.5413V67.208C0.00233333 69.1403 1.56771 70.7057 3.5 70.708H54.8333C56.7656 70.7057 58.331 69.1403 58.3333 67.208V59.0413H59.5C61.4323 59.039 62.9977 57.4736 63 55.5413V43.8747C62.9977 41.9424 61.4323 40.377 59.5 40.3747ZM56 67.208C55.9996 67.5173 55.8766 67.8138 55.6579 68.0325C55.4392 68.2512 55.1426 68.3743 54.8333 68.3747H3.5C3.1907 68.3743 2.89418 68.2512 2.67547 68.0325C2.45676 67.8138 2.33372 67.5173 2.33333 67.208V34.5413C2.33372 34.232 2.45676 33.9355 2.67547 33.7168C2.89418 33.4981 3.1907 33.3751 3.5 33.3747H54.8333C55.1426 33.3751 55.4392 33.4981 55.6579 33.7168C55.8766 33.9355 55.9996 34.232 56 34.5413V45.0413H46.6667C44.7344 45.0437 43.169 46.609 43.1667 48.5413V55.5413C43.169 57.4736 44.7344 59.039 46.6667 59.0413H56V67.208ZM60.6667 55.5413C60.6663 55.8506 60.5432 56.1472 60.3245 56.3659C60.1058 56.5846 59.8093 56.7076 59.5 56.708H46.6667C46.3574 56.7076 46.0608 56.5846 45.8421 56.3659C45.6234 56.1472 45.5004 55.8506 45.5 55.5413V48.5413C45.5004 48.232 45.6234 47.9355 45.8421 47.7168C46.0608 47.4981 46.3574 47.3751 46.6667 47.3747H60.6667V55.5413ZM58.3333 45.0413V42.708H59.5C59.8093 42.7084 60.1058 42.8314 60.3245 43.0501C60.5432 43.2688 60.6663 43.5654 60.6667 43.8747V45.0413H58.3333ZM33.8333 9.94845C37.4096 9.42665 40.2187 6.61761 40.7404 3.04134H45.5929C46.1147 6.61761 48.9237 9.42665 52.5 9.94845V28.708H54.8333V4.20801C54.831 2.27572 53.2656 0.710341 51.3333 0.708008H35C33.0677 0.710341 31.5023 2.27572 31.5 4.20801V28.708H33.8333V9.94845ZM51.3333 3.04134C51.6426 3.04173 51.9392 3.16477 52.1579 3.38348C52.3766 3.60219 52.4996 3.89871 52.5 4.20801V7.59061C51.3801 7.35981 50.3524 6.80593 49.5439 5.99742C48.7354 5.18891 48.1815 4.16121 47.9507 3.04134H51.3333ZM33.8333 4.20801C33.8337 3.89871 33.9568 3.60219 34.1755 3.38348C34.3942 3.16477 34.6907 3.04173 35 3.04134H38.3826C38.1518 4.16121 37.5979 5.18891 36.7894 5.99742C35.9809 6.80593 34.9532 7.35981 33.8333 7.59061V4.20801Z" fill="#1FB9B3"/>
<path d="M36.1667 19.3747C36.1667 23.2404 39.3009 26.3747 43.1667 26.3747C47.0324 26.3747 50.1667 23.2404 50.1667 19.3747C50.1667 15.5089 47.0324 12.3747 43.1667 12.3747C39.3027 12.3786 36.1706 15.5107 36.1667 19.3747ZM47.8333 19.3747C47.8333 21.9518 45.7438 24.0413 43.1667 24.0413C40.5895 24.0413 38.5 21.9518 38.5 19.3747C38.5 16.7975 40.5895 14.708 43.1667 14.708C45.7427 14.7109 47.8304 16.7987 47.8333 19.3747ZM19.8333 16.9484C23.4096 16.4267 26.2186 13.6176 26.7404 10.0413H29.1667V7.70801H21C19.0677 7.71034 17.5023 9.27572 17.5 11.208V28.708H19.8333V16.9484ZM19.8333 11.208C19.8337 10.8987 19.9568 10.6022 20.1755 10.3835C20.3942 10.1648 20.6907 10.0417 21 10.0413H24.3826C24.1518 11.1612 23.5979 12.1889 22.7894 12.9974C21.9809 13.8059 20.9532 14.3598 19.8333 14.5906V11.208ZM5.83333 23.9484C9.4096 23.4267 12.2186 20.6176 12.7404 17.0413H15.1667V14.708H7C5.06771 14.7103 3.50233 16.2757 3.5 18.208V28.708H5.83333V23.9484ZM5.83333 18.208C5.83372 17.8987 5.95676 17.6022 6.17547 17.3835C6.39418 17.1648 6.6907 17.0417 7 17.0413H10.3826C10.1518 18.1612 9.59792 19.1889 8.78941 19.9974C7.9809 20.8059 6.9532 21.3598 5.83333 21.5906V18.208ZM22.1667 28.708H24.5C24.5029 26.132 26.5907 24.0443 29.1667 24.0413V21.708C25.3027 21.7119 22.1706 24.844 22.1667 28.708Z" fill="#1FB9B3"/>
</g>
<defs>
<clipPath id="clip0_6032_131760">
<rect width="70" height="70" fill="white" transform="translate(0 0.708008)"/>
</clipPath>
</defs>
</svg>
