<svg width="96" height="96" viewBox="0 0 96 96" fill="none" xmlns="http://www.w3.org/2000/svg">
                                      <path d="M60 91H36C14.28 91 5 81.72 5 60V36C5 14.28 14.28 5 36 5H60C81.72 5 91 14.28 91 36V60C91 81.72 81.72 91 60 91ZM36 11C17.56 11 11 17.56 11 36V60C11 78.44 17.56 85 36 85H60C78.44 85 85 78.44 85 60V36C85 17.56 78.44 11 60 11H36Z" fill="#1FB9B3"/>
                                      <path d="M36 43C29.92 43 25 38.08 25 32C25 25.92 29.92 21 36 21C42.08 21 47 25.92 47 32C47 38.08 42.08 43 36 43ZM36 27C33.24 27 31 29.24 31 32C31 34.76 33.24 37 36 37C38.76 37 41 34.76 41 32C41 29.24 38.76 27 36 27Z" fill="#1FB9B3"/>
                                      <path d="M10.6801 78.8002C9.72006 78.8002 8.76006 78.3202 8.20006 77.4802C7.28006 76.1202 7.64006 74.2402 9.04006 73.3202L28.7601 60.0802C33.0801 57.1602 39.0401 57.5202 42.9601 60.8402L44.2801 62.0002C46.2801 63.7202 49.6801 63.7202 51.6401 62.0002L68.2801 47.7202C72.5201 44.0802 79.2001 44.0802 83.4801 47.7202L90.0001 53.3202C91.2401 54.4002 91.4001 56.2802 90.3201 57.5602C89.2401 58.8002 87.3601 58.9602 86.0801 57.8802L79.5601 52.2802C77.5601 50.5602 74.1601 50.5602 72.1601 52.2802L55.5201 66.5602C51.2801 70.2002 44.6001 70.2002 40.3201 66.5602L39.0001 65.4002C37.1601 63.8402 34.1201 63.6802 32.0801 65.0802L12.3601 78.3202C11.8401 78.6402 11.2401 78.8002 10.6801 78.8002Z" fill="#1FB9B3"/>
                                      </svg>