<svg width="91" height="90" viewBox="0 0 91 90" fill="none" xmlns="http://www.w3.org/2000/svg">
    <path d="M90.2176 25.3645C90.2176 26.0059 90.2176 26.6473 90.2176 27.2887C89.8047 28.5365 89.3383 29.7727 88.2421 30.5913C87.708 30.9902 87.5727 31.3983 87.624 32.056C87.8736 35.3074 85.35 38.1365 82.1361 38.0992C81.0889 38.0876 80.3962 38.3091 79.7082 39.1185C78.9175 40.0467 77.7747 40.4899 76.5432 40.6252C76.2867 40.6531 76.0325 40.7045 75.7922 40.7441C74.6984 51.55 69.6 59.8509 60.504 65.7191C61.8194 68.3034 61.7354 70.834 60.4247 73.3739C60.2824 73.6491 60.4223 74.1553 60.5809 74.4818C61.6445 76.6812 61.7704 78.8993 60.7885 81.1524C60.497 81.8194 60.1075 82.4422 59.8393 83.1162C59.6224 83.6643 59.3052 83.8906 58.7198 83.8089C57.0988 83.585 55.4755 83.3798 53.8476 83.1675C54.0691 84.2078 54.3094 85.3506 54.5636 86.5425C53.9315 86.5868 53.4394 86.6311 52.9473 86.6544C51.7019 86.7127 50.5614 86.9996 49.5142 87.7553C48.5649 88.441 47.499 88.9681 46.4822 89.5652C45.8991 89.5652 45.316 89.5652 44.7329 89.5652C43.9259 89.1267 43.0094 88.8119 42.3377 88.2218C41.1249 87.1582 39.7908 86.6311 38.1978 86.6871C37.7243 86.7034 37.2486 86.6894 36.6911 86.6894C36.9873 85.3413 37.2439 84.1891 37.5144 82.9623C36.9104 83.1326 36.3669 83.3098 35.8142 83.4334C35.2195 83.5664 34.6154 83.683 34.009 83.753C31.9076 83.9955 31.9052 83.9885 30.9793 82.1273C30.8114 81.7891 30.6481 81.4462 30.4965 81.1011C29.7245 79.3471 29.489 77.4859 30.268 75.7553C30.9163 74.3115 30.8674 73.143 30.2563 71.7063C29.4073 69.7074 29.8178 67.6503 30.8231 65.6701C24.4815 61.7447 20.0105 56.315 17.3726 49.2759C15.7937 49.2759 14.2077 49.2759 12.5494 49.2759C12.7454 45.3832 12.041 41.5325 13.585 37.8333C13.3634 37.7867 13.1955 37.7377 13.0252 37.7144C9.73668 37.2759 7.14548 35.6712 5.08839 33.0916C3.65635 31.2934 2.13336 29.5697 0.652344 27.8135C0.652344 27.7552 0.652344 27.6969 0.652344 27.6385C0.740971 27.5686 0.845925 27.5126 0.920559 27.431C3.28085 24.7884 5.20501 21.761 8.07607 19.5289C5.94668 17.3575 4.44467 14.8478 4.18112 11.8508C3.93623 9.07524 4.04585 6.26707 4.00387 3.47289C4.00387 3.43091 4.07617 3.38893 4.14381 3.31663C6.18457 3.31663 8.25333 3.31663 10.3221 3.31663C13.9535 3.31663 17.0928 4.56911 19.7633 7.02042C19.9428 7.18602 20.1364 7.33763 20.1714 7.36561C21.4449 6.13179 22.618 4.92596 23.8658 3.79943C25.3095 2.49796 26.8162 1.26414 28.2948 0C28.3531 0 28.4114 0 28.4698 0C30.184 1.44607 31.8819 2.90846 33.6125 4.33354C36.0987 6.37902 37.6311 8.97495 38.2654 12.1213C38.3168 12.3755 38.4847 12.6414 38.6689 12.8303C39.1541 13.3271 39.6718 13.7936 40.1919 14.2554C40.3319 14.379 40.5208 14.54 40.6817 14.533C41.547 14.4863 42.5196 14.7126 43.0373 13.6677C43.133 13.4717 43.4152 13.3738 43.5295 13.1825C43.6997 12.9003 43.9353 12.5575 43.9026 12.2682C43.4898 8.63675 46.4985 5.53004 50.1439 5.90322C50.671 5.95686 50.9695 5.83558 51.3124 5.42275C53.6213 2.63091 57.8242 2.60059 60.0842 5.37611C60.476 5.8589 60.8328 5.94754 61.4042 5.89389C64.5132 5.60234 67.3796 7.96503 67.4636 11.0741C67.4986 12.3289 67.7598 13.2292 68.723 14.0385C69.4367 14.6379 70.8314 14.7406 71.4262 14.0245C73.7305 11.256 77.9076 11.235 80.2166 14.0082C80.5501 14.407 80.8464 14.5633 81.3781 14.5283C85.2171 14.2881 87.8923 17.0216 87.631 20.856C87.6124 21.1149 87.6474 21.5114 87.813 21.6304C89.105 22.5726 89.7884 23.8811 90.2176 25.3645ZM50.9812 42.9622C50.8879 42.9995 50.8249 43.0088 50.7829 43.0438C44.1265 48.7208 40.1569 55.8998 38.8299 64.5366C38.7902 64.7978 39.0444 65.2456 39.2893 65.3902C40.9196 66.3512 42.3283 67.557 43.4502 69.0754C43.8397 69.6025 44.1988 69.7238 44.8355 69.5465C45.3463 69.4042 45.9691 69.3879 46.4682 69.5488C47.1702 69.7774 47.506 69.5302 47.9049 69.0124C50.2908 65.929 53.4324 64.1891 57.3134 63.7506C57.9221 63.6806 58.5565 63.4544 59.0859 63.1442C61.3879 61.7937 63.4264 60.1028 65.2292 58.1366C69.7586 53.199 72.2681 47.3704 72.8839 40.7091C72.9375 40.126 72.7719 39.7669 72.2891 39.403C70.8478 38.3208 70.8058 38.2392 69.1102 38.1272C68.772 38.1039 68.3848 38.2998 68.0723 38.4841C67.0554 39.0858 66.1085 39.8298 65.0403 40.3126C64.4782 40.5669 64.1704 40.8001 63.9884 41.3832C62.8106 45.1593 58.8574 47.2654 55.1024 46.1365C53.3298 45.6024 51.9771 44.4969 50.9812 42.9622ZM20.5912 49.2549C20.5912 49.3832 20.5679 49.4765 20.5959 49.5511C20.6962 49.824 20.8081 50.0922 20.9271 50.3581C23.3433 55.6783 27.0471 59.8625 31.9589 63.0299C33.2253 63.8462 34.5967 63.7086 35.9541 64.0631C36.4766 60.7138 37.3605 57.5861 38.6666 54.5844C39.9844 51.5546 41.6893 48.7535 43.7417 46.1412C41.8339 44.0677 39.7674 42.2811 37.4701 40.7674C37.2905 40.6485 37.0293 40.5389 36.8334 40.5715C35.1565 40.8607 33.6078 40.5575 32.1641 39.5639C30.1817 45.1103 26.324 48.3266 20.5912 49.2549ZM38.8369 34.1109C40.4718 35.0555 42.0531 36.0001 43.6531 34.4654C45.3277 32.8607 44.3598 31.2187 43.4152 29.5651C45.1971 29.0146 47.0862 28.6018 47.0559 26.2694C47.0279 23.9884 45.1691 23.5919 43.3988 23.0554C44.3458 21.4461 45.302 19.8321 43.7277 18.2204C42.1114 16.5645 40.4671 17.5767 38.8485 18.4677C38.6573 17.8893 38.5033 17.3925 38.3307 16.9003C37.8596 15.5709 36.8941 14.8385 35.6136 14.8339C34.2889 14.8269 33.3116 15.5685 32.8405 16.9446C32.6749 17.4274 32.5163 17.9126 32.3274 18.4747C30.7181 17.5697 29.1415 16.6018 27.5415 18.1411C25.8459 19.7715 26.8768 21.4298 27.7537 23.0578C27.166 23.2514 26.6669 23.4053 26.1748 23.5779C24.8687 24.035 24.1037 25.0426 24.1013 26.2998C24.0967 27.5522 24.8593 28.5715 26.1608 29.038C26.6739 29.2222 27.194 29.3832 27.7491 29.5674C27.4715 30.1109 27.2243 30.5703 26.9981 31.0391C26.4033 32.2776 26.5829 33.5441 27.4692 34.4304C28.3601 35.3237 29.6173 35.5056 30.858 34.9132C31.3455 34.68 31.8213 34.4304 32.374 34.1505C32.8638 35.9441 33.307 37.7354 35.525 37.775C37.8573 37.8147 38.3098 35.9558 38.8369 34.1109ZM79.0948 18.4887C78.9059 17.8869 78.7659 17.4158 78.605 16.9493C78.1339 15.5802 77.145 14.8292 75.8296 14.8339C74.5118 14.8385 73.5392 15.5919 73.0751 16.9703C72.9142 17.4508 72.7556 17.9289 72.5923 18.4164C71.7294 18.0269 70.976 17.6887 70.1877 17.3341C69.7749 20.1353 69.7702 20.1307 67.6781 22.3557C67.5452 22.4957 67.4729 22.7709 67.4962 22.9668C67.6852 24.5062 67.34 25.9103 66.4467 27.2094C69.3411 29.1126 70.5329 31.7505 69.8915 35.3843C70.8921 34.9529 71.7224 34.5937 72.6366 34.1995C73.1101 35.9161 73.5439 37.712 75.7479 37.7727C78.1106 37.838 78.563 35.9394 79.0971 34.1085C80.6971 35.0671 82.2831 35.9908 83.8853 34.484C85.6019 32.8724 84.5804 31.1977 83.6778 29.5511C84.3075 29.3528 84.8369 29.2036 85.3524 29.017C86.5792 28.5762 87.3278 27.5383 87.3302 26.3068C87.3325 25.0776 86.5955 24.0607 85.3524 23.6035C84.8183 23.4076 84.2725 23.2397 83.6661 23.0368C84.578 21.4391 85.5366 19.8578 84.0136 18.2554C82.4183 16.5761 80.7694 17.5231 79.0948 18.4887ZM52.868 37.7937C52.868 38.5144 52.8097 39.1021 52.8773 39.6759C53.1526 41.9663 54.9601 43.5709 57.1944 43.5569C59.3845 43.5406 61.1524 41.936 61.4299 39.6829C61.5045 39.0858 61.4975 38.4794 61.5325 37.7983C62.0526 37.7983 62.5121 37.8077 62.9716 37.796C65.3645 37.7447 67.2257 35.8391 67.207 33.4695C67.186 31.1278 65.3482 29.2619 62.9972 29.2036C62.5121 29.1919 62.027 29.2012 61.5419 29.2012C61.6165 29.1383 61.6911 29.0753 61.7658 29.01C61.4112 27.7762 61.2223 26.4584 60.6556 25.3318C60.0189 24.0677 58.7361 23.5126 57.3064 23.445C56.2125 23.3936 55.2446 23.7505 54.398 24.4385C52.9007 25.656 52.7467 27.354 52.8237 29.2036C52.2476 29.2036 51.7602 29.1896 51.2704 29.2059C48.3643 29.3015 46.4075 32.1563 47.3544 34.9155C47.9329 36.6065 49.4582 37.7377 51.2447 37.7913C51.7345 37.8077 52.2243 37.7937 52.868 37.7937ZM60.2474 21.2945C62.0876 22.1995 63.2724 23.6502 63.9978 25.5464C65.3505 23.8088 64.273 22.3837 63.5313 20.898C65.3762 20.4222 67.1347 19.9557 67.1744 17.7353C67.214 15.403 65.3435 14.9691 63.5453 14.442C64.4409 12.8047 65.4578 11.165 63.7972 9.54404C62.1739 7.96037 60.5716 8.96329 58.9693 9.85192C58.7874 9.29448 58.6358 8.80002 58.4655 8.31022C57.9968 6.96445 56.9542 6.16911 55.6854 6.18544C54.4027 6.20176 53.4091 6.9901 52.9473 8.36153C52.7864 8.842 52.6255 9.32247 52.4505 9.84259C51.9584 9.58836 51.5736 9.38311 51.1841 9.18719C49.7824 8.47582 48.5113 8.61576 47.569 9.57903C46.6617 10.505 46.5288 11.7994 47.2028 13.1336C47.4197 13.5604 47.6413 13.9849 47.8489 14.393C46.902 14.7569 46.053 15.0857 45.0245 15.4822C46.9113 17.0753 47.6297 18.9155 47.3544 21.1336C47.3358 21.2828 47.3964 21.5138 47.5037 21.5931C49.0664 22.7429 49.8547 24.3126 49.9923 26.3021C50.3445 25.5044 50.5893 24.7837 50.9649 24.14C51.338 23.4986 51.8418 22.9342 52.2873 22.3371C49.0524 19.5592 49.6797 15.9814 51.2424 14.0688C53.1199 11.7691 56.4155 11.256 58.8737 12.8887C61.6235 14.7149 62.1553 17.8123 60.2474 21.2945ZM15.1616 22.5003C16.0502 23.3983 17.0601 24.2566 17.8671 25.2782C18.7837 26.4374 19.9055 26.3931 21.1253 26.2298C21.6291 24.2706 21.5521 24.0094 20.1201 22.7359C16.9108 19.8881 12.0387 19.7668 8.86673 22.6613C7.22478 24.161 5.87438 25.9826 4.36304 27.6945C5.25165 28.7627 6.03064 29.7797 6.89593 30.7196C7.79853 31.6992 8.66848 32.7698 9.753 33.5091C13.9115 36.3546 19.7633 34.7826 22.0256 30.3091C22.4571 29.4578 22.3125 29.2152 21.3609 29.2012C20.9247 29.1942 20.4816 29.2432 20.0501 29.1919C19.2618 29.0963 18.6857 29.3575 18.1446 29.9546C17.1767 31.0275 16.1249 32.0257 15.1453 33.017C14.4106 32.3103 13.7482 31.6759 12.897 30.8595C13.5057 30.3278 14.0864 29.8216 14.8281 29.1756C13.0066 29.1756 11.3926 29.1756 9.77633 29.1756C9.77633 28.1843 9.77633 27.2934 9.77633 26.2648C11.4183 26.2648 13.0182 26.2648 14.6159 26.2648C14.6648 26.1668 14.7161 26.0689 14.7651 25.9686C14.1704 25.5044 13.5757 25.0403 13.0066 24.5971C13.7949 23.8298 14.4549 23.1884 15.1616 22.5003ZM32.6096 77.8754C32.7705 78.5891 32.8428 79.1395 33.0201 79.6573C33.4609 80.9494 33.5682 80.9774 34.9023 80.6999C37.7617 80.1075 39.9144 78.4771 41.582 76.1494C41.7173 75.9605 41.7522 75.5967 41.6706 75.3751C41.2695 74.2882 41.2671 73.2247 41.6659 72.1378C41.7429 71.9255 41.7639 71.5897 41.6473 71.4241C39.7978 68.8211 37.3675 67.0999 34.1443 66.6754C33.8994 66.6427 33.4889 66.8783 33.3606 67.1045C32.5676 68.5109 32.4977 69.9733 33.1857 71.4497C33.2603 71.6083 33.3093 71.7832 33.4119 71.9209C34.3192 73.129 34.2842 74.2835 33.4516 75.564C32.9944 76.2707 32.8545 77.1757 32.6096 77.8754ZM58.7361 69.5675C58.4982 68.7442 58.2883 68.0561 58.0994 67.3634C57.9151 66.6894 57.4953 66.5658 56.8469 66.6847C53.7823 67.2468 51.4476 68.8981 49.6774 71.4077C49.5608 71.5733 49.5515 71.8999 49.6284 72.0981C50.0692 73.213 50.0553 74.3045 49.6214 75.4171C49.5445 75.613 49.5678 75.9395 49.6867 76.1051C51.2027 78.2252 53.1246 79.8019 55.6808 80.5203C57.7729 81.1081 58.4422 80.6392 58.5518 78.4258C58.5752 77.9664 58.5728 77.4789 58.4492 77.0427C58.2766 76.434 58.0691 75.7972 57.7169 75.2818C56.9869 74.2112 57.0615 73.2713 57.7215 72.1798C58.209 71.3844 58.4166 70.4235 58.7361 69.5675ZM35.2241 11.9347C34.3332 7.93938 31.1053 6.08981 28.3811 3.74578C26.9724 4.93529 25.5847 6.00584 24.3159 7.20235C20.6915 10.6216 20.1924 16.1493 23.0868 20.1796C23.2524 20.4105 23.4553 20.6181 23.7795 21.0053C23.6465 18.7662 24.3322 17.1009 25.9625 15.6315C24.9736 14.7359 24.0337 13.8846 23.2337 13.1615C23.9264 12.3685 24.5258 11.6805 25.2815 10.8175C25.8156 11.4403 26.2984 12.0047 26.9514 12.765C26.9514 11.3913 26.9514 10.2741 26.9514 9.14054C27.9706 9.14054 28.8826 9.14054 29.8621 9.14054C29.8621 10.9458 29.8621 12.6834 29.8621 14.5936C30.289 14.4887 30.7601 14.5167 30.9233 14.3067C32.0032 12.9143 33.4166 12.1586 35.2241 11.9347ZM17.3726 42.5354C17.6129 42.2811 17.8228 42.0479 18.0467 41.8263C20.0431 39.8275 22.0466 37.8333 24.0337 35.8252C24.2156 35.6409 24.4489 35.3167 24.3999 35.1254C24.2273 34.4514 23.9428 33.8077 23.6885 33.1196C21.8647 35.305 20.1154 36.6415 17.3027 37.4275C17.0858 37.4881 16.8525 37.6934 16.7383 37.894C15.2129 40.5645 15.4345 43.473 15.5255 46.3628C22.7439 47.1581 28.8289 43.5499 29.419 38.2601C28.6563 38.0549 27.8727 37.9243 27.1613 37.6234C26.6529 37.4088 26.387 37.5231 26.0418 37.873C24.12 39.8228 22.1679 41.7447 20.2484 43.6969C19.9685 43.9814 19.8052 44.3803 19.5977 44.7115C18.6904 43.8228 18.0513 43.2001 17.3726 42.5354ZM6.84228 6.25074C6.84228 7.60818 6.78864 8.89098 6.85395 10.1668C7.00788 13.1849 8.18336 15.7435 10.455 17.7633C10.6579 17.9452 10.9588 18.1645 11.1897 18.1411C12.8713 17.9802 14.5482 17.761 16.2835 17.5511C13.8135 15.1371 11.248 12.6298 8.69647 10.1388C9.43581 9.38078 10.0632 8.73705 10.8259 7.9557C13.3214 10.4607 15.7937 12.947 18.189 15.3516C18.3802 13.9802 18.5341 12.5435 18.8047 11.1301C18.9096 10.575 18.8233 10.2134 18.4595 9.80294C15.3342 6.29039 11.2667 5.87523 6.84228 6.25074ZM51.0581 83.9396C50.4401 82.2089 49.8687 80.5809 48.5812 79.2422C47.7766 78.4048 47.1585 77.9477 45.8291 77.922C44.2548 77.8894 43.2892 78.2929 42.5172 79.5267C42.4869 79.5757 42.4379 79.6107 42.396 79.6527C41.2205 80.8305 40.8217 82.3745 40.2549 83.9372C41.9178 84.3407 43.2286 85.157 44.4181 86.2253C45.0851 86.8247 46.186 86.841 46.846 86.2556C48.0635 85.178 49.3882 84.3291 51.0581 83.9396ZM49.3626 40.3966C47.5154 39.7529 46.116 38.68 45.1574 37.0263C43.8956 37.8543 42.5802 38.3091 41.1435 38.1015C40.4065 37.9943 40.101 38.3068 39.9074 38.7849C41.8875 40.5109 43.8023 42.1785 45.7008 43.8322C46.8903 42.715 48.0775 41.6024 49.3626 40.3966ZM55.7484 14.8315C54.1391 14.8199 52.8447 16.084 52.8377 17.6747C52.8307 19.2537 54.1438 20.5598 55.7274 20.5551C57.2877 20.5481 58.5518 19.298 58.5752 17.74C58.5962 16.119 57.3577 14.8432 55.7484 14.8315ZM45.6985 75.1885C46.4868 75.1605 47.0979 74.4865 47.0652 73.6818C47.0349 72.9145 46.4122 72.315 45.6495 72.3174C44.8659 72.3197 44.2082 72.9914 44.2222 73.7728C44.2361 74.5494 44.9312 75.2165 45.6985 75.1885Z" fill="#F2631C"/>
    <path d="M35.6089 32.0403C32.4277 32.045 29.8691 29.5144 29.8575 26.3493C29.8458 23.1283 32.4067 20.5604 35.6183 20.5744C38.7809 20.5884 41.3464 23.161 41.3441 26.3144C41.3394 29.4747 38.7739 32.0356 35.6089 32.0403ZM35.6229 23.4409C34.037 23.4246 32.7169 24.7213 32.7075 26.298C32.7005 27.8584 34.0393 29.1995 35.6019 29.1902C37.1529 29.1808 38.4287 27.9167 38.452 26.3633C38.4753 24.7563 37.2182 23.4572 35.6229 23.4409Z" fill="#F2631C"/>
    <path d="M75.8558 32.04C72.6815 32.0423 70.1113 29.5 70.0996 26.3443C70.088 23.135 72.6652 20.5577 75.8721 20.5764C79.03 20.5927 81.6072 23.177 81.6002 26.3187C81.5956 29.465 79.0114 32.0376 75.8558 32.04ZM78.6965 26.265C78.6779 24.665 77.3764 23.4079 75.7742 23.4405C74.2302 23.4732 72.9614 24.7677 72.9637 26.3094C72.9637 27.879 74.3025 29.2062 75.8651 29.1898C77.4604 29.1735 78.7152 27.8767 78.6965 26.265Z" fill="#F2631C"/>
    <path d="M57.1175 37.7956C54.7618 37.7816 52.84 35.8574 52.833 33.5041C52.826 31.1181 54.7805 29.1869 57.1898 29.1985C59.5477 29.2102 61.4672 31.1344 61.4742 33.4878C61.4789 35.8738 59.5221 37.8096 57.1175 37.7956ZM58.5705 33.4994C58.5728 32.7041 57.9175 32.0487 57.1338 32.058C56.3805 32.0697 55.7601 32.6854 55.7391 33.4481C55.7158 34.2504 56.3385 34.9152 57.1268 34.9315C57.9105 34.9502 58.5705 34.2948 58.5705 33.4994Z" fill="#F2631C"/>
    </svg>