<svg width="24" height="24" viewBox="0 0 24 24" fill="none" xmlns="http://www.w3.org/2000/svg">
<path d="M11.9989 2C12.2438 2.00003 12.4802 2.08996 12.6633 2.25272C12.8463 2.41547 12.9632 2.63975 12.9919 2.883L12.9989 3V4.314C14.6948 4.53523 16.27 5.31093 17.4792 6.52036C18.6884 7.72979 19.4639 9.30508 19.6849 11.001L20.9989 11C21.2538 11.0003 21.4989 11.0979 21.6843 11.2728C21.8696 11.4478 21.9811 11.687 21.9961 11.9414C22.011 12.1958 21.9282 12.4464 21.7646 12.6418C21.601 12.8373 21.369 12.9629 21.1159 12.993L20.9989 13H19.6849C19.4637 14.6957 18.6882 16.2708 17.4789 17.48C16.2697 18.6893 14.6946 19.4648 12.9989 19.686V21C12.9986 21.2549 12.901 21.5 12.726 21.6854C12.5511 21.8707 12.3119 21.9822 12.0575 21.9972C11.8031 22.0121 11.5525 21.9293 11.3571 21.7657C11.1616 21.6021 11.036 21.3701 11.0059 21.117L10.9989 21V19.686C9.30333 19.4646 7.7285 18.689 6.51947 17.4798C5.31044 16.2705 4.53502 14.6956 4.31389 13H2.99889C2.74401 12.9997 2.49886 12.9021 2.31352 12.7272C2.12819 12.5522 2.01666 12.313 2.00172 12.0586C1.98678 11.8042 2.06957 11.5536 2.23316 11.3582C2.39675 11.1627 2.6288 11.0371 2.88189 11.007L2.99889 11H4.31289C4.53428 9.30444 5.30993 7.7296 6.51914 6.52057C7.72835 5.31154 9.3033 4.53613 10.9989 4.315V3C10.9989 2.73478 11.1042 2.48043 11.2918 2.29289C11.4793 2.10536 11.7337 2 11.9989 2ZM11.9989 6.25C10.4739 6.25 9.01136 6.8558 7.93303 7.93414C6.85469 9.01247 6.24889 10.475 6.24889 12C6.24889 13.525 6.85469 14.9875 7.93303 16.0659C9.01136 17.1442 10.4739 17.75 11.9989 17.75C13.5239 17.75 14.9864 17.1442 16.0648 16.0659C17.1431 14.9875 17.7489 13.525 17.7489 12C17.7489 10.475 17.1431 9.01247 16.0648 7.93414C14.9864 6.8558 13.5239 6.25 11.9989 6.25ZM11.9989 8C13.0598 8 14.0772 8.42143 14.8273 9.17157C15.5775 9.92172 15.9989 10.9391 15.9989 12C15.9989 13.0609 15.5775 14.0783 14.8273 14.8284C14.0772 15.5786 13.0598 16 11.9989 16C10.938 16 9.92061 15.5786 9.17046 14.8284C8.42032 14.0783 7.99889 13.0609 7.99889 12C7.99889 10.9391 8.42032 9.92172 9.17046 9.17157C9.92061 8.42143 10.938 8 11.9989 8Z" fill="#1FB9B3"/>
</svg>
