<svg width="392" height="319" viewBox="0 0 392 319" fill="none" xmlns="http://www.w3.org/2000/svg">
<g clip-path="url(#clip0_3921_62699)">
<mask id="mask0_3921_62699" style="mask-type:luminance" maskUnits="userSpaceOnUse" x="-54" y="-85" width="496" height="497">
<path d="M441.743 136.02L217.156 -84.4043L-53.333 191.19L171.253 411.615L441.743 136.02Z" fill="white"/>
</mask>
<g mask="url(#mask0_3921_62699)">
<path d="M123.854 263.162C170.654 309.095 245.83 308.392 291.764 261.592C337.697 214.791 336.994 139.616 290.194 93.6824C243.393 47.749 168.217 48.452 122.284 95.2525C76.3501 142.053 77.0531 217.229 123.854 263.162Z" fill="#FFBC00" stroke="#21313E" stroke-width="0.68114" stroke-miterlimit="10"/>
</g>
<path d="M1.89692 248.225C19.1717 241.125 37.8302 233.776 46.5761 230.939C67.3763 224.189 81.392 223.414 90.9806 225.248C100.577 227.083 144.241 251.989 153.89 259.424C163.539 266.859 170.228 267.245 176.301 262.834C186.796 255.211 226.489 232.102 230.543 227.09C234.597 222.079 242.611 201.182 243.905 193.115C245.2 185.039 250.957 177.289 236.1 163.136C221.762 149.476 204.685 131.577 201.27 132.538C201.27 132.538 197.174 133.09 195.149 136.223C195.149 136.223 178.959 124.137 174.874 125.863C170.789 127.589 170.162 133.775 170.525 135.981C170.525 135.981 162.275 131.631 156.474 132.949C150.673 134.275 151.497 149.146 175.63 151.823C175.63 151.823 177.27 162.406 178.142 164.11C178.142 164.11 170.28 164.697 160.849 161.361C151.409 158.034 148.398 156.007 133.26 155.374C118.123 154.75 79.433 159.522 72.0244 162.388C67.2558 164.226 33.1685 169.445 1.20353 173.2L1.90507 248.224L1.89692 248.225Z" fill="#E2C5AF" stroke="#21313E" stroke-width="1.36228" stroke-miterlimit="10" stroke-linecap="round" stroke-linejoin="round"/>
<rect width="81.9063" height="59.5684" rx="2.47476" transform="matrix(0.385843 0.922565 -0.922565 0.385841 277.46 100.643)" fill="#FFBC00"/>
<rect width="81.9063" height="59.5684" rx="2.47476" transform="matrix(0.261604 0.965175 -0.965176 0.261602 283.817 102.598)" fill="#FFBC00" fill-opacity="0.2"/>
<path d="M307.058 184.135L277.312 96.2343C276.874 94.9397 275.47 94.2453 274.175 94.6834L211.877 115.765C210.582 116.203 209.888 117.608 210.326 118.903L240.072 206.803C240.51 208.098 241.914 208.792 243.209 208.354L305.507 187.272C306.802 186.834 307.496 185.429 307.058 184.135Z" fill="url(#paint0_radial_3921_62699)"/>
<path d="M281.652 159.755C281.675 159.823 281.693 159.889 281.709 159.959C281.823 160.343 281.929 160.741 282.032 161.149C282.277 162.11 282.486 163.068 282.65 164.013C282.882 165.346 284.219 166.177 285.503 165.742C286.494 165.407 287.121 164.421 286.98 163.381C286.81 162.123 286.555 160.842 286.221 159.548C286.042 158.843 285.832 158.105 285.594 157.353C285.53 157.151 285.462 156.951 285.386 156.726C284.207 153.219 282.528 149.765 280.402 146.463C278.237 143.093 275.673 140.015 272.914 137.469C272.329 136.93 271.494 136.77 270.738 137.022L233.953 149.394C232.453 149.898 231.96 151.786 233.038 152.944C235.013 155.07 236.85 157.438 238.47 159.963C240.263 162.752 241.764 165.668 242.932 168.625C242.932 168.625 242.942 168.653 242.947 168.668C242.956 168.696 242.968 168.72 242.977 168.745C243.115 169.093 243.244 169.44 243.371 169.792C243.471 170.065 243.768 170.211 244.043 170.118L245.629 169.586C246.828 169.184 247.435 167.855 246.966 166.682C245.716 163.565 244.13 160.503 242.232 157.546C241.389 156.233 240.513 154.986 239.634 153.837L239.091 153.128C238.869 152.836 238.997 152.414 239.344 152.297L240.188 152.011C240.449 151.923 240.707 151.836 240.968 151.748C241.676 151.508 242.381 151.273 243.09 151.033C244.139 150.682 245.187 150.328 246.236 149.977C247.521 149.546 248.801 149.113 250.083 148.683C251.493 148.21 252.902 147.733 254.316 147.258C255.748 146.778 257.178 146.294 258.614 145.812C259.96 145.36 261.308 144.904 262.654 144.453C263.81 144.065 264.965 143.674 266.118 143.288C266.748 143.075 267.415 142.881 268.052 142.654C268.681 142.429 269.296 142.078 269.965 141.983C270.667 141.889 271.361 142.184 271.839 142.692C272.058 142.925 272.274 143.162 272.49 143.4C272.921 143.884 273.342 144.375 273.75 144.875C274.581 145.893 275.362 146.952 276.096 148.039C276.281 148.315 276.467 148.591 276.645 148.87C278.192 151.276 279.477 153.767 280.463 156.267C280.485 156.319 280.503 156.361 280.515 156.397C280.743 156.977 280.957 157.563 281.155 158.146C281.227 158.36 281.295 158.572 281.363 158.785L281.373 158.813C281.472 159.13 281.565 159.442 281.652 159.755Z" fill="url(#paint1_radial_3921_62699)"/>
<path d="M281.242 167.626C280.913 166.653 280.626 165.678 280.38 164.725C280.084 163.57 279.841 162.404 279.658 161.262C279.656 161.255 279.657 161.247 279.655 161.24C279.489 160.184 278.43 159.518 277.413 159.858L241.219 172.03C239.594 172.576 238.602 174.227 238.895 175.918C239.206 177.698 239.674 179.528 240.301 181.393C241.479 184.897 243.153 188.348 245.283 191.661C247.284 194.77 249.629 197.636 252.148 200.064C253.084 200.967 254.447 201.263 255.679 200.85L289.149 189.591C291.486 188.805 292.276 185.91 290.671 184.042C289.161 182.289 287.747 180.396 286.469 178.409C284.243 174.941 282.481 171.312 281.242 167.626ZM286.06 184.291C286.547 184.928 286.263 185.857 285.5 186.111C284.674 186.39 283.85 186.665 283.024 186.945C280.977 187.633 278.93 188.322 276.883 189.011C274.286 189.886 271.687 190.757 269.089 191.632C266.61 192.468 264.129 193.299 261.653 194.133C259.963 194.701 258.274 195.268 256.581 195.837C256.181 195.973 255.793 196.16 255.38 196.256C254.841 196.382 254.665 196.287 254.295 195.901C252.377 193.92 250.61 191.68 249.043 189.24C247.112 186.243 245.598 183.124 244.535 179.968C244.285 179.232 244.073 178.486 243.856 177.739C243.731 177.299 243.2 176.295 243.658 175.928C243.899 175.735 244.269 175.709 244.559 175.611C244.559 175.611 247.332 174.677 247.328 174.69L275.41 165.247C276.051 165.03 276.742 165.402 276.916 166.057C277.149 166.934 277.421 167.831 277.744 168.798C279.103 172.838 281.022 176.8 283.451 180.574C284.277 181.849 285.155 183.099 286.06 184.291Z" fill="url(#paint2_radial_3921_62699)"/>
<path d="M293.722 184.854C294.33 186.522 296.171 187.382 297.839 186.773C299.506 186.165 300.366 184.324 299.758 182.656C299.15 180.989 297.308 180.129 295.641 180.737C293.973 181.345 293.114 183.187 293.722 184.854Z" fill="url(#paint3_radial_3921_62699)"/>
<path d="M280.534 165.059C280.521 165.02 280.501 165.007 280.454 165.01L280.328 165.013L280.418 165.282L280.32 165.287L280.23 165.019L280.065 165.026C280.022 165.029 280.011 165.045 280.025 165.084L280.109 165.334L280.01 165.348C279.975 165.268 279.941 165.168 279.911 165.078C279.874 164.968 279.919 164.912 280.02 164.906L280.452 164.887C280.535 164.883 280.602 164.928 280.632 165.018C280.666 165.118 280.701 165.222 280.719 165.311L280.62 165.313L280.534 165.059Z" fill="white"/>
<path d="M280.635 166.066L280.249 166.081L280.21 165.967L280.56 165.952C280.619 165.948 280.632 165.94 280.616 165.905C280.599 165.855 280.548 165.809 280.463 165.746L280.14 165.759L280.101 165.645L280.617 165.626L280.649 165.719L280.546 165.734C280.651 165.798 280.713 165.861 280.737 165.932C280.762 166.007 280.729 166.062 280.635 166.066Z" fill="white"/>
<path d="M280.567 166.546C280.524 166.548 280.516 166.559 280.531 166.602L280.552 166.667L280.464 166.688C280.441 166.656 280.417 166.597 280.409 166.572C280.38 166.486 280.419 166.437 280.517 166.431L280.8 166.419L280.771 166.334L280.857 166.328L280.89 166.417L281.04 166.41L281.078 166.524L280.929 166.531L280.975 166.667L280.881 166.671L280.834 166.532L280.567 166.546Z" fill="white"/>
<path d="M281.064 167.258L281.053 167.226C281.037 167.18 280.99 167.136 280.912 167.07L280.59 167.084L280.551 166.969L281.067 166.95L281.097 167.04L280.991 167.056C281.091 167.114 281.156 167.179 281.177 167.24L281.186 167.265L281.064 167.258Z" fill="white"/>
<path d="M281.243 167.955C281.14 167.958 281.084 167.909 281.036 167.79L280.974 167.643C280.892 167.659 280.886 167.701 280.908 167.765C280.925 167.815 280.952 167.886 280.979 167.941L280.903 167.962C280.861 167.909 280.826 167.829 280.805 167.768C280.747 167.596 280.818 167.524 281.007 167.516C281.207 167.508 281.287 167.565 281.345 167.737C281.402 167.905 281.346 167.952 281.243 167.955ZM281.243 167.743C281.215 167.661 281.179 167.637 281.056 167.639L281.113 167.772C281.135 167.824 281.158 167.844 281.213 167.842C281.273 167.833 281.266 167.811 281.243 167.743Z" fill="white"/>
<path d="M281.386 168.704C281.151 168.716 281.097 168.639 281.058 168.524C281.045 168.485 281.031 168.43 281.024 168.376C280.994 168.382 280.963 168.385 280.928 168.385L280.821 168.389L280.781 168.271L281.501 168.243L281.533 168.336L281.434 168.349C281.508 168.392 281.587 168.461 281.61 168.529C281.648 168.64 281.603 168.695 281.386 168.704ZM281.498 168.515C281.486 168.479 281.431 168.422 281.349 168.37L281.113 168.378L281.142 168.464C281.179 168.575 281.204 168.59 281.357 168.582C281.496 168.579 281.515 168.565 281.498 168.515Z" fill="white"/>
<path d="M281.749 169.309L281.738 169.276C281.722 169.23 281.675 169.186 281.597 169.121L281.275 169.134L281.236 169.02L281.752 169.001L281.782 169.09L281.676 169.106C281.775 169.164 281.841 169.229 281.862 169.29L281.87 169.315L281.749 169.309Z" fill="white"/>
<path d="M281.933 170.008C281.83 170.01 281.774 169.962 281.725 169.843L281.664 169.696C281.581 169.712 281.576 169.754 281.597 169.818C281.614 169.868 281.642 169.938 281.669 169.993L281.592 170.015C281.55 169.962 281.515 169.882 281.495 169.821C281.437 169.649 281.508 169.577 281.696 169.569C281.897 169.561 281.976 169.618 282.034 169.79C282.09 169.954 282.034 170.001 281.933 170.008ZM281.932 169.793C281.904 169.71 281.868 169.687 281.745 169.688L281.802 169.821C281.823 169.873 281.846 169.893 281.901 169.891C281.963 169.886 281.955 169.861 281.932 169.793Z" fill="white"/>
<path d="M282.205 170.737L281.82 170.752L281.781 170.638L282.131 170.623C282.189 170.619 282.203 170.611 282.187 170.576C282.17 170.526 282.118 170.48 282.033 170.417L281.711 170.43L281.672 170.316L282.188 170.297L282.219 170.39L282.117 170.404C282.222 170.468 282.283 170.532 282.306 170.599C282.333 170.678 282.301 170.737 282.205 170.737Z" fill="white"/>
<path d="M282.426 171.473C282.323 171.476 282.267 171.428 282.218 171.308L282.157 171.162C282.075 171.178 282.069 171.219 282.091 171.284C282.108 171.334 282.135 171.404 282.162 171.459L282.086 171.481C282.043 171.427 282.008 171.348 281.988 171.287C281.93 171.115 282.001 171.043 282.19 171.035C282.39 171.027 282.469 171.084 282.528 171.256C282.584 171.424 282.529 171.471 282.426 171.473ZM282.426 171.262C282.398 171.18 282.362 171.156 282.239 171.158L282.296 171.29C282.318 171.343 282.341 171.363 282.395 171.36C282.458 171.355 282.449 171.33 282.426 171.262Z" fill="white"/>
<path d="M282.313 172.212L282.283 172.122L282.382 172.109C282.282 172.047 282.226 171.99 282.202 171.918C282.172 171.829 282.216 171.782 282.303 171.781L282.689 171.766L282.727 171.88L282.378 171.895C282.326 171.896 282.311 171.91 282.323 171.945C282.34 171.995 282.383 172.029 282.472 172.09L282.794 172.077L282.833 172.191L282.313 172.212Z" fill="white"/>
<path d="M282.932 172.817L282.921 172.785C282.905 172.738 282.858 172.694 282.78 172.629L282.458 172.642L282.419 172.528L282.935 172.509L282.965 172.598L282.859 172.614C282.959 172.672 283.024 172.738 283.045 172.799L283.054 172.824L282.932 172.817Z" fill="white"/>
<path d="M282.614 173.115L283.13 173.096L283.169 173.21L282.654 173.233L282.614 173.115ZM283.382 173.17C283.39 173.191 283.379 173.207 283.355 173.207L283.296 173.211C283.273 173.211 283.258 173.204 283.25 173.179L283.232 173.125C283.224 173.104 283.235 173.088 283.259 173.088L283.314 173.085C283.337 173.082 283.352 173.092 283.359 173.114L283.382 173.17Z" fill="white"/>
<path d="M283.41 173.967L282.909 173.985L282.878 173.892L282.961 173.879C282.89 173.844 282.83 173.785 282.797 173.7C282.758 173.585 282.812 173.531 283.021 173.525C283.261 173.515 283.311 173.594 283.355 173.722C283.383 173.793 283.403 173.901 283.41 173.967ZM283.066 173.86L283.296 173.854L283.267 173.768C283.23 173.661 283.208 173.641 283.055 173.649C282.909 173.654 282.894 173.667 282.911 173.717C282.934 173.773 282.983 173.812 283.066 173.86Z" fill="white"/>
<path d="M283.215 174.411C283.172 174.413 283.163 174.424 283.178 174.467L283.192 174.51L283.104 174.532C283.086 174.514 283.063 174.458 283.056 174.437C283.029 174.358 283.062 174.303 283.157 174.299L283.762 174.273L283.801 174.388L283.215 174.411Z" fill="white"/>
<path d="M283.58 175.87C283.555 175.867 283.538 175.853 283.531 175.831L283.49 175.709C283.482 175.688 283.494 175.664 283.513 175.662L283.988 175.557C284.014 175.552 284.039 175.543 284.067 175.542L284.061 175.524C284.032 175.522 283.999 175.517 283.97 175.515L283.435 175.453C283.41 175.449 283.393 175.435 283.386 175.414L283.344 175.292C283.337 175.271 283.349 175.247 283.368 175.244L284.013 175.102L284.055 175.223L283.55 175.322C283.52 175.328 283.49 175.334 283.456 175.338L283.463 175.36C283.5 175.363 283.537 175.367 283.57 175.371L284.085 175.432C284.111 175.436 284.131 175.449 284.139 175.474L284.178 175.588C284.185 175.61 284.172 175.63 284.15 175.634L283.692 175.741C283.662 175.747 283.628 175.754 283.598 175.76L283.606 175.782C283.638 175.783 283.679 175.785 283.712 175.79L284.265 175.846L284.308 175.971L283.58 175.87Z" fill="white"/>
<path d="M284.071 176.688C283.877 176.694 283.783 176.638 283.727 176.474C283.673 176.313 283.721 176.233 283.922 176.224C284.115 176.219 284.21 176.275 284.267 176.443C284.325 176.602 284.271 176.68 284.071 176.688ZM283.959 176.347C283.829 176.351 283.802 176.377 283.83 176.459C283.86 176.548 283.908 176.572 284.042 176.567C284.172 176.562 284.199 176.537 284.171 176.455C284.142 176.369 284.1 176.34 283.959 176.347Z" fill="white"/>
<path d="M284.548 177.694L284.162 177.708L284.123 177.594L284.473 177.579C284.528 177.577 284.537 177.557 284.528 177.529C284.514 177.489 284.484 177.46 284.384 177.398L284.062 177.412L284.024 177.301L284.374 177.286C284.425 177.284 284.441 177.271 284.429 177.236C284.414 177.193 284.38 177.164 284.288 177.104L283.962 177.118L283.924 177.004L284.439 176.985L284.47 177.074L284.371 177.088C284.473 177.145 284.527 177.198 284.549 177.262C284.573 177.334 284.545 177.379 284.485 177.392C284.58 177.447 284.629 177.499 284.65 177.559C284.678 177.642 284.635 177.692 284.548 177.694Z" fill="white"/>
<path d="M284.768 178.43C284.666 178.433 284.609 178.384 284.561 178.265L284.499 178.118C284.417 178.134 284.411 178.176 284.433 178.24C284.45 178.29 284.478 178.361 284.504 178.416L284.428 178.437C284.386 178.384 284.351 178.304 284.33 178.243C284.272 178.072 284.344 178 284.532 177.992C284.733 177.983 284.812 178.04 284.87 178.212C284.922 178.378 284.871 178.427 284.768 178.43ZM284.767 178.215C284.74 178.133 284.704 178.109 284.581 178.111L284.637 178.243C284.659 178.295 284.682 178.316 284.737 178.313C284.795 178.309 284.79 178.283 284.767 178.215Z" fill="white"/>
<path d="M285.041 179.162L284.656 179.177L284.617 179.062L284.967 179.048C285.025 179.044 285.038 179.035 285.023 179.001C285.006 178.951 284.954 178.905 284.869 178.842L284.547 178.855L284.508 178.741L285.024 178.721L285.055 178.814L284.953 178.829C285.058 178.893 285.119 178.956 285.143 179.028C285.168 179.099 285.136 179.158 285.041 179.162Z" fill="white"/>
<path d="M287.513 162.808C287.223 163.317 287.527 163.792 287.775 164.266C288.096 164.883 287.643 165.619 286.95 165.61L286.198 165.601C286.875 164.75 285.78 164.025 285.807 163.222C285.818 162.911 286.082 162.667 286.392 162.665C286.715 162.664 287.176 162.659 287.43 162.657C287.506 162.659 287.55 162.74 287.513 162.808Z" fill="#333232"/>
<path d="M283.894 170.572C283.904 170.553 283.896 170.531 283.877 170.522L283.513 170.342L283.693 169.978C283.703 169.959 283.694 169.934 283.675 169.924L283.22 169.7C283.201 169.69 283.18 169.697 283.17 169.717L282.945 170.171C282.936 170.191 282.944 170.216 282.963 170.225L283.327 170.405L283.147 170.769C283.138 170.788 283.145 170.809 283.164 170.819L283.619 171.044C283.638 171.053 283.66 171.046 283.669 171.027L283.894 170.572Z" fill="white"/>
<path d="M285.279 166.514C285.27 166.533 285.277 166.555 285.296 166.564L285.66 166.744L285.48 167.108C285.471 167.127 285.478 167.148 285.497 167.158L285.953 167.386C285.972 167.396 285.994 167.389 286.003 167.369L286.228 166.915C286.238 166.895 286.23 166.874 286.211 166.864L285.847 166.685L286.027 166.321C286.037 166.302 286.03 166.28 286.01 166.271L285.556 166.046C285.536 166.036 285.515 166.044 285.505 166.063L285.279 166.514Z" fill="white"/>
<path d="M285.564 175.542C285.574 175.523 285.566 175.502 285.547 175.492L285.202 175.322L285.373 174.977C285.382 174.958 285.375 174.936 285.356 174.927L284.901 174.702C284.882 174.693 284.86 174.7 284.851 174.719L284.626 175.174C284.617 175.193 284.624 175.214 284.643 175.224L284.988 175.394L284.817 175.739C284.808 175.758 284.815 175.78 284.834 175.789L285.289 176.014C285.308 176.023 285.33 176.016 285.339 175.997L285.564 175.542Z" fill="white"/>
<path d="M286.273 176.266C286.281 176.288 286.288 176.309 286.295 176.331C286.358 176.517 286.53 176.67 286.699 176.768C286.908 176.893 287.136 176.931 287.376 176.946C287.64 176.96 287.906 176.966 288.169 176.968C288.521 176.969 288.87 176.966 289.22 176.964C289.679 176.964 290.105 176.939 290.452 177.292C290.438 177.098 290.374 176.92 290.279 176.769C290.098 176.495 289.801 176.312 289.442 176.287C289.417 176.283 289.389 176.284 289.364 176.281C288.886 176.259 288.408 176.294 287.932 176.303C287.544 176.311 287.143 176.339 286.768 176.231C286.64 176.194 286.526 176.153 286.43 176.058C286.315 175.941 286.277 175.771 286.23 175.619C286.174 175.455 286.122 175.289 286.066 175.125C286.158 175.205 286.269 175.263 286.386 175.303C286.637 175.386 286.907 175.382 287.165 175.391C287.394 175.397 287.623 175.399 287.854 175.401C288.651 175.398 289.447 175.432 290.24 175.454C290.571 175.466 290.908 175.448 291.24 175.475C291.38 175.487 291.515 175.509 291.644 175.561C291.713 175.59 291.985 175.709 291.994 175.794C291.98 175.599 291.916 175.422 291.821 175.27C291.64 174.996 291.343 174.814 290.984 174.788C290.959 174.785 290.931 174.786 290.906 174.782C290.274 174.753 289.639 174.773 289.008 174.759C288.153 174.741 287.297 174.756 286.443 174.694C286.217 174.663 285.994 174.591 285.807 174.463L285.628 174.312L285.634 174.33L285.744 174.656L285.846 174.956C285.848 174.963 285.85 174.967 285.852 174.974C285.857 174.988 285.863 175.006 285.868 175.02C285.876 175.045 285.883 175.067 285.892 175.092C285.903 175.124 285.913 175.153 285.923 175.185C285.936 175.221 285.949 175.26 285.961 175.296C285.974 175.335 285.989 175.378 286.002 175.417C286.017 175.46 286.031 175.503 286.047 175.55C286.063 175.596 286.077 175.639 286.093 175.686C286.107 175.729 286.123 175.775 286.138 175.818C286.152 175.861 286.167 175.904 286.181 175.947C286.195 175.986 286.208 176.026 286.221 176.065C286.233 176.101 286.244 176.133 286.256 176.169C286.254 176.209 286.264 176.238 286.273 176.266Z" fill="white"/>
<path d="M286.477 171.939C286.828 171.94 286.741 171.942 287.092 171.942C287.55 171.943 287.976 171.918 288.323 172.271C288.309 172.076 288.245 171.899 288.15 171.748C287.97 171.474 287.673 171.291 287.313 171.266C287.288 171.262 287.261 171.263 287.236 171.26C286.758 171.238 286.715 171.265 286.237 171.279C285.849 171.287 285.448 171.315 285.073 171.206C284.945 171.17 284.831 171.129 284.736 171.034C284.62 170.917 284.583 170.747 284.535 170.595C284.48 170.431 284.428 170.265 284.372 170.1C284.463 170.181 284.574 170.239 284.691 170.279C284.943 170.362 285.212 170.358 285.47 170.367C285.7 170.373 285.928 170.375 286.159 170.377C286.956 170.374 288.196 170.425 288.991 170.451C289.321 170.462 289.658 170.444 289.99 170.471C290.13 170.484 290.265 170.506 290.394 170.558C290.463 170.586 290.735 170.705 290.744 170.79C290.73 170.596 290.666 170.418 290.571 170.267C290.39 169.993 290.093 169.811 289.734 169.785C289.709 169.781 289.681 169.783 289.656 169.779C289.024 169.75 287.944 169.749 287.31 169.736C286.455 169.718 285.599 169.733 284.745 169.671C284.519 169.64 284.295 169.568 284.109 169.44L283.93 169.289L283.936 169.307L284.046 169.633L284.148 169.933C284.15 169.94 284.151 169.944 284.154 169.951C284.159 169.965 284.165 169.983 284.17 169.998C284.178 170.023 284.185 170.044 284.194 170.069C284.205 170.101 284.214 170.13 284.225 170.162C284.237 170.198 284.251 170.237 284.263 170.273C284.276 170.312 284.291 170.355 284.304 170.395C284.319 170.437 284.333 170.48 284.349 170.527C284.364 170.573 284.379 170.616 284.395 170.663C284.409 170.706 284.425 170.752 284.44 170.795C284.454 170.838 284.469 170.881 284.483 170.924C284.496 170.963 284.51 171.002 284.523 171.042C284.535 171.078 284.546 171.11 284.558 171.146C284.568 171.174 284.577 171.203 284.587 171.231C284.594 171.253 284.602 171.274 284.609 171.296C284.672 171.482 284.843 171.635 285.012 171.733C285.222 171.858 285.45 171.896 285.69 171.91C285.949 171.934 286.213 171.937 286.477 171.939Z" fill="white"/>
<path d="M287.331 174.003C287.536 174.045 287.735 174.137 287.872 174.294C287.869 174.179 287.84 174.07 287.801 173.967C287.708 173.727 287.527 173.522 287.295 173.413C287.181 173.36 287.061 173.324 286.939 173.306C286.687 173.268 286.426 173.296 286.169 173.291C285.941 173.289 285.639 173.268 285.46 173.105C285.38 173.032 285.347 172.948 285.31 172.849C285.259 172.722 285.215 172.594 285.166 172.471C285.116 172.348 285.082 172.212 284.999 172.109C284.986 172.093 284.973 172.078 284.96 172.062C284.921 172.019 284.877 171.982 284.83 171.95C285.016 172.51 284.99 172.447 285.175 173.006C285.197 173.07 285.219 173.135 285.244 173.198C285.294 173.332 285.357 173.459 285.446 173.568C285.632 173.788 285.908 173.898 286.189 173.939C286.483 173.983 286.779 173.938 287.073 173.97C287.165 173.971 287.253 173.985 287.331 174.003Z" fill="white"/>
<path d="M289.221 178.055C288.886 178.033 288.55 178.051 288.212 178.042C288.164 178.042 288.111 178.04 288.064 178.04C287.972 178.04 287.88 178.039 287.787 178.034C287.649 178.029 287.514 178.019 287.374 178.006C287.198 177.991 287.027 177.957 286.863 177.897C286.704 177.839 286.553 177.758 286.416 177.661C286.246 177.535 286.097 177.378 285.975 177.204C285.911 177.11 285.854 177.014 285.805 176.915C285.764 176.829 285.728 176.746 285.694 176.658C285.675 176.612 285.66 176.569 285.644 176.523C285.631 176.483 285.614 176.445 285.582 176.42C285.521 176.369 285.417 176.392 285.355 176.445C285.545 176.995 285.696 177.394 286.08 177.834C286.809 178.668 287.808 178.733 288.827 178.731C288.912 178.734 289.001 178.736 289.088 178.734C289.518 178.732 289.937 178.758 290.278 179.105C290.232 178.522 289.799 178.091 289.221 178.055Z" fill="white"/>
<path d="M286.479 168.822C286.937 168.822 287.363 168.797 287.71 169.15C287.696 168.956 287.632 168.778 287.537 168.627C287.357 168.353 287.06 168.171 286.7 168.145C286.675 168.141 286.648 168.143 286.623 168.139C286.145 168.118 285.666 168.152 285.191 168.161C284.803 168.169 284.402 168.197 284.027 168.089C283.899 168.053 283.785 168.011 283.689 167.916C283.574 167.8 283.536 167.629 283.489 167.478C283.433 167.313 282.717 165.172 282.661 165.008C282.752 165.088 282.863 165.146 282.981 165.186C283.232 165.269 283.502 165.265 283.759 165.274C283.989 165.28 284.413 165.284 284.696 165.284C285.154 165.284 285.58 165.259 285.927 165.612C285.913 165.418 285.849 165.24 285.754 165.089C285.573 164.815 285.276 164.633 284.917 164.607C284.892 164.603 284.864 164.605 284.839 164.601C284.362 164.58 284.478 164.604 284.002 164.613C283.686 164.621 283.365 164.638 283.052 164.584L283.038 164.577C282.991 164.569 282.944 164.561 282.898 164.553C282.876 164.548 282.858 164.542 282.837 164.538C282.68 164.499 282.531 164.434 282.398 164.347L282.219 164.197L282.335 164.54L282.437 164.84L282.443 164.858L282.459 164.905L282.483 164.976L282.514 165.069L282.552 165.18L282.593 165.302L282.893 166.189C283.084 166.754 283.295 167.388 283.302 167.409C283.318 167.456 283.333 167.499 283.348 167.545C283.363 167.588 283.379 167.635 283.393 167.678C283.408 167.721 283.422 167.763 283.437 167.806C283.45 167.846 283.463 167.885 283.477 167.924C283.489 167.96 283.5 167.992 283.512 168.028C283.521 168.057 283.531 168.085 283.541 168.114C283.548 168.135 283.555 168.157 283.563 168.178C283.626 168.364 283.797 168.518 283.966 168.616C284.175 168.74 284.403 168.779 284.644 168.793C284.907 168.807 285.173 168.813 285.436 168.816C285.78 168.831 286.133 168.823 286.479 168.822Z" fill="white"/>
<path d="M286.927 163.57C286.914 163.531 286.894 163.518 286.847 163.522L286.717 163.526L286.81 163.801L286.709 163.808L286.615 163.532L286.447 163.541C286.401 163.545 286.389 163.557 286.403 163.6L286.489 163.854L286.39 163.868C286.354 163.784 286.319 163.68 286.288 163.591C286.25 163.476 286.297 163.417 286.4 163.414L286.844 163.395C286.93 163.39 286.997 163.435 287.029 163.528C287.064 163.632 287.1 163.739 287.118 163.828L287.016 163.831L286.927 163.57Z" fill="white"/>
<path d="M286.733 164.799C286.708 164.795 286.691 164.781 286.683 164.756L286.64 164.631C286.633 164.609 286.645 164.586 286.667 164.582L287.158 164.476C287.184 164.471 287.213 164.461 287.24 164.46L287.233 164.438C287.204 164.436 287.167 164.433 287.138 164.43L286.591 164.368C286.566 164.365 286.549 164.351 286.541 164.326L286.499 164.2C286.491 164.179 286.503 164.155 286.525 164.148L287.188 163.999L287.23 164.124L286.71 164.225C286.68 164.231 286.65 164.237 286.612 164.242L286.619 164.263C286.656 164.267 286.697 164.269 286.731 164.273L287.257 164.334C287.283 164.338 287.303 164.351 287.311 164.376L287.351 164.494C287.36 164.519 287.346 164.536 287.319 164.541L286.847 164.653C286.814 164.66 286.784 164.666 286.75 164.673L286.758 164.695C286.79 164.696 286.83 164.698 286.867 164.702L287.436 164.756L287.48 164.885L286.733 164.799Z" fill="white"/>
<path d="M264.601 105.444L264.634 105.457C264.744 105.5 264.809 105.609 264.788 105.724C264.751 105.9 264.754 106.082 264.812 106.254C264.889 106.483 265.018 106.559 265.136 106.519C265.312 106.46 265.303 106.303 265.319 106.046L265.343 105.692C265.35 105.394 265.466 105.088 265.812 104.971C266.206 104.837 266.66 105.083 266.86 105.593C266.939 105.789 266.961 106.009 266.924 106.217C266.897 106.362 266.744 106.449 266.599 106.399C266.486 106.361 266.418 106.253 266.432 106.14C266.447 106.008 266.435 105.88 266.374 105.722C266.306 105.545 266.187 105.454 266.048 105.501C265.905 105.549 265.909 105.727 265.907 105.979L265.887 106.309C265.881 106.658 265.751 106.921 265.4 107.04C264.989 107.179 264.522 106.966 264.326 106.374C264.246 106.138 264.228 105.873 264.282 105.62C264.305 105.477 264.46 105.392 264.601 105.444Z" fill="white"/>
<path d="M264.282 107.131L264.7 108.178C264.745 108.286 264.69 108.408 264.579 108.446C264.468 108.483 264.342 108.426 264.297 108.318L264.068 107.77C264.023 107.661 263.892 107.606 263.774 107.646L263.749 107.654C263.635 107.693 263.581 107.815 263.625 107.923L263.803 108.33C263.851 108.437 263.797 108.559 263.686 108.597C263.575 108.634 263.444 108.579 263.392 108.473L263.208 108.069C263.16 107.961 263.026 107.907 262.911 107.946L262.822 107.976C262.707 108.015 262.653 108.137 262.705 108.243L262.978 108.816C263.03 108.922 262.983 109.042 262.869 109.08C262.758 109.118 262.624 109.064 262.572 108.958L262.05 107.91C261.998 107.804 262.049 107.683 262.167 107.643L263.988 107.015C264.107 106.967 264.237 107.023 264.282 107.131Z" fill="white"/>
<path d="M266.976 109.519L267.019 109.612C267.065 109.712 267.026 109.821 266.927 109.858L266.015 110.215C265.837 110.279 265.68 110.332 265.495 110.398L265.499 110.409C265.699 110.377 265.877 110.361 266.069 110.34L266.558 110.298C266.654 110.289 266.749 110.345 266.786 110.432C266.824 110.519 266.797 110.616 266.717 110.663L266.311 110.9C266.149 110.987 265.999 111.073 265.812 111.168L265.817 111.183C266.016 111.123 266.183 111.075 266.362 111.026L267.349 110.776C267.455 110.748 267.579 110.806 267.624 110.906L267.651 110.961C267.705 111.074 267.638 111.192 267.514 111.214L265.63 111.549C265.525 111.569 265.418 111.513 265.382 111.418L265.312 111.246C265.278 111.158 265.313 111.062 265.397 111.014L265.862 110.765C265.987 110.698 266.12 110.63 266.247 110.583L266.244 110.572C266.11 110.601 265.96 110.628 265.814 110.645L265.279 110.715C265.18 110.728 265.086 110.673 265.048 110.586L264.986 110.423C264.95 110.332 264.988 110.231 265.076 110.185L266.672 109.398C266.779 109.35 266.921 109.406 266.976 109.519Z" fill="white"/>
<path d="M265.311 112.097L265.367 112.261C265.392 112.336 265.369 112.42 265.307 112.473L264.501 113.18L264.087 113.523L264.091 113.534C264.309 113.436 264.594 113.288 264.843 113.2L265.4 113.007C265.507 112.971 265.621 113.024 265.656 113.128L265.679 113.196C265.714 113.3 265.654 113.416 265.546 113.452L263.787 114.072C263.679 114.108 263.569 114.054 263.54 113.944L263.494 113.772C263.474 113.691 263.501 113.606 263.566 113.548L264.386 112.828L264.787 112.493L264.784 112.482C264.558 112.583 264.294 112.72 264.048 112.807L263.497 112.993C263.394 113.029 263.282 112.971 263.258 112.863L263.237 112.79C263.208 112.681 263.269 112.565 263.374 112.533L265.056 111.968C265.165 111.935 265.276 111.993 265.311 112.097Z" fill="white"/>
<path d="M268.427 107.816C268.431 107.827 268.435 107.841 268.439 107.852C268.46 107.925 268.48 107.998 268.499 108.075C268.544 108.255 268.585 108.437 268.613 108.614C268.657 108.863 268.906 109.021 269.15 108.939C269.336 108.876 269.453 108.693 269.426 108.495C269.394 108.259 269.345 108.02 269.282 107.774C269.249 107.642 269.21 107.504 269.166 107.363C269.154 107.327 269.141 107.288 269.126 107.245C268.904 106.587 268.589 105.94 268.191 105.317C267.786 104.685 267.303 104.107 266.786 103.628C266.676 103.526 266.518 103.496 266.379 103.543L259.471 105.864C259.189 105.96 259.097 106.314 259.299 106.533C259.67 106.933 260.014 107.375 260.319 107.85C260.655 108.374 260.936 108.92 261.156 109.476C261.156 109.476 261.157 109.479 261.158 109.483C261.161 109.49 261.162 109.494 261.163 109.497C261.188 109.56 261.215 109.627 261.238 109.695C261.255 109.745 261.312 109.774 261.363 109.757L261.659 109.656C261.885 109.58 261.999 109.33 261.91 109.113C261.676 108.527 261.378 107.954 261.022 107.396C260.863 107.151 260.7 106.916 260.535 106.7L260.435 106.567C260.393 106.513 260.417 106.433 260.482 106.411L260.639 106.358C260.689 106.341 260.736 106.326 260.786 106.309C260.918 106.264 261.05 106.219 261.183 106.174C261.379 106.108 261.576 106.041 261.773 105.975C262.012 105.893 262.256 105.811 262.495 105.73C262.76 105.641 263.025 105.551 263.289 105.461C263.557 105.371 263.826 105.28 264.094 105.189C264.348 105.103 264.598 105.018 264.852 104.932C265.07 104.859 265.285 104.786 265.503 104.712C265.621 104.672 265.747 104.633 265.865 104.594C265.982 104.55 266.1 104.486 266.225 104.468C266.359 104.45 266.49 104.506 266.577 104.6C266.62 104.645 266.659 104.688 266.698 104.734C266.781 104.826 266.859 104.915 266.936 105.013C267.092 105.203 267.239 105.4 267.377 105.609C267.411 105.661 267.448 105.712 267.481 105.765C267.774 106.216 268.012 106.685 268.198 107.152C268.202 107.163 268.204 107.17 268.207 107.177C268.251 107.286 268.289 107.397 268.326 107.508C268.34 107.547 268.353 107.586 268.366 107.626L268.368 107.629C268.395 107.7 268.411 107.758 268.427 107.816Z" fill="white"/>
<path d="M268.354 109.296C268.292 109.113 268.237 108.929 268.194 108.752C268.136 108.536 268.094 108.316 268.057 108.101L268.056 108.097C268.025 107.9 267.826 107.772 267.633 107.838L260.836 110.122C260.532 110.225 260.346 110.535 260.401 110.851C260.459 111.186 260.548 111.531 260.665 111.878C260.888 112.536 261.203 113.183 261.601 113.805C261.977 114.387 262.415 114.929 262.888 115.383C263.064 115.55 263.319 115.608 263.551 115.529L269.835 113.414C270.275 113.266 270.422 112.722 270.12 112.373C269.837 112.042 269.57 111.69 269.332 111.316C268.914 110.669 268.584 109.987 268.354 109.296ZM269.256 112.422C269.349 112.543 269.296 112.716 269.153 112.764C268.999 112.816 268.842 112.87 268.688 112.922C268.305 113.051 267.919 113.182 267.535 113.308C267.048 113.472 266.557 113.635 266.071 113.799C265.606 113.957 265.141 114.114 264.675 114.268C264.357 114.375 264.042 114.482 263.723 114.59C263.648 114.615 263.577 114.651 263.499 114.669C263.399 114.691 263.366 114.675 263.297 114.602C262.936 114.23 262.606 113.808 262.313 113.353C261.951 112.79 261.665 112.205 261.464 111.611C261.417 111.472 261.378 111.334 261.338 111.192C261.314 111.108 261.215 110.922 261.303 110.853C261.351 110.817 261.416 110.81 261.471 110.796C261.471 110.796 261.993 110.619 261.991 110.624L267.263 108.852C267.384 108.811 267.512 108.883 267.545 109.003C267.589 109.168 267.639 109.339 267.699 109.517C267.956 110.276 268.315 111.019 268.771 111.73C268.922 111.965 269.086 112.201 269.256 112.422Z" fill="white"/>
<path d="M270.804 113.11C270.918 113.422 271.264 113.584 271.576 113.47C271.888 113.357 272.05 113.011 271.937 112.698C271.823 112.386 271.477 112.224 271.165 112.338C270.852 112.451 270.69 112.797 270.804 113.11Z" fill="white"/>
<path d="M266.731 123L267.306 122.319C267.371 122.241 267.433 122.176 267.488 122.126C267.351 122.18 267.144 122.254 266.862 122.35L266.547 122.456L266.497 122.31L267.625 121.932L267.694 122.136L267.131 122.805C267.072 122.877 267.007 122.943 266.944 123.004C267.159 122.923 267.376 122.845 267.591 122.773L267.877 122.676L267.927 122.822L266.799 123.2L266.731 123Z" fill="white"/>
<path d="M267.506 123.938L267.322 123.394C267.117 123.459 267.045 123.579 267.106 123.758C267.134 123.84 267.175 123.914 267.232 123.978L267.122 124.04C267.057 123.966 267.01 123.874 266.975 123.77C266.887 123.513 266.986 123.332 267.27 123.24C267.395 123.198 267.509 123.195 267.611 123.236C267.716 123.276 267.791 123.355 267.826 123.47C267.863 123.581 267.859 123.675 267.81 123.755C267.767 123.825 267.698 123.881 267.596 123.911C267.572 123.923 267.539 123.93 267.506 123.938ZM267.563 123.755C267.631 123.732 267.676 123.7 267.705 123.655C267.73 123.611 267.736 123.557 267.716 123.5C267.676 123.382 267.582 123.338 267.433 123.368L267.563 123.755Z" fill="white"/>
<path d="M267.317 124.721C267.29 124.675 267.263 124.62 267.242 124.559C267.215 124.477 267.212 124.41 267.24 124.365C267.265 124.32 267.325 124.284 267.418 124.253L267.894 124.092L267.835 123.92L267.954 123.88L268.012 124.052L268.28 123.961L268.374 124.097L268.062 124.202L268.141 124.435L268.023 124.475L267.944 124.242L267.522 124.385C267.454 124.408 267.41 124.431 267.395 124.456C267.376 124.482 267.375 124.515 267.391 124.561C267.404 124.6 267.418 124.631 267.44 124.66L267.317 124.721Z" fill="white"/>
<path d="M267.678 125.805L267.621 125.637L268.055 125.307C268.093 125.278 268.146 125.244 268.204 125.205C268.15 125.211 268.075 125.212 267.977 125.218L267.487 125.228L267.43 125.06L268.174 124.525L268.229 124.69L267.828 124.965C267.724 125.036 267.659 125.078 267.63 125.1C267.692 125.095 267.77 125.088 267.864 125.084L268.356 125.077L268.411 125.238L268.019 125.53C267.923 125.599 267.855 125.646 267.818 125.666C267.872 125.66 267.951 125.657 268.052 125.651L268.545 125.635L268.598 125.793L267.678 125.805Z" fill="white"/>
<path d="M268.133 126.785C268.022 126.739 267.946 126.657 267.905 126.535C267.822 126.289 267.922 126.115 268.201 126.02C268.326 125.978 268.442 125.979 268.545 126.024C268.656 126.07 268.73 126.157 268.771 126.278C268.81 126.393 268.806 126.489 268.764 126.576C268.717 126.671 268.62 126.74 268.477 126.788C268.36 126.832 268.241 126.832 268.133 126.785ZM268.649 126.307C268.627 126.243 268.584 126.198 268.523 126.171C268.453 126.139 268.369 126.139 268.272 126.172C268.065 126.242 267.988 126.356 268.041 126.513C268.064 126.581 268.107 126.626 268.171 126.649C268.24 126.677 268.326 126.672 268.426 126.638C268.626 126.57 268.701 126.461 268.649 126.307Z" fill="white"/>
<path d="M268.958 127.305C268.932 127.122 268.781 127.077 268.508 127.166L268.175 127.278L268.125 127.128L268.955 126.847L269.004 126.994C268.936 127.017 268.869 127.032 268.801 127.043L268.803 127.046C268.976 127.039 269.076 127.113 269.11 127.261L268.958 127.305Z" fill="white"/>
<path d="M268.475 128.177L268.797 127.725L268.371 127.869L268.32 127.719L269.538 127.311L269.588 127.461L268.837 127.715L269.301 127.885L269.363 128.067L268.876 127.877L268.542 128.373L268.475 128.177Z" fill="white"/>
<path d="M264.776 117.219L264.709 117.022L265.471 116.517C265.548 116.471 265.614 116.433 265.671 116.401C265.615 116.412 265.539 116.422 265.442 116.431L264.534 116.491L264.47 116.302L265.607 115.574L265.665 115.746L264.923 116.216C264.858 116.258 264.784 116.299 264.699 116.344L264.7 116.347C264.786 116.33 264.867 116.323 264.945 116.316L265.834 116.259L265.896 116.441L265.148 116.941C265.079 116.985 265.014 117.027 264.942 117.063C265.022 117.052 265.09 117.041 265.156 117.034L266.066 116.954L266.119 117.111L264.776 117.219Z" fill="white"/>
<path d="M265.242 118.182C265.122 118.135 265.041 118.051 264.999 117.926C264.912 117.668 265.026 117.486 265.333 117.382C265.469 117.336 265.597 117.337 265.712 117.381C265.832 117.429 265.913 117.517 265.956 117.642C265.995 117.76 265.991 117.865 265.941 117.954C265.888 118.055 265.782 118.131 265.625 118.184C265.488 118.227 265.358 118.231 265.242 118.182ZM265.814 117.67C265.791 117.602 265.746 117.553 265.678 117.528C265.6 117.499 265.509 117.502 265.406 117.537C265.177 117.614 265.09 117.735 265.145 117.896C265.168 117.964 265.216 118.012 265.284 118.037C265.36 118.062 265.455 118.058 265.566 118.021C265.785 117.951 265.868 117.831 265.814 117.67Z" fill="white"/>
<path d="M265.586 119.619L266.173 119.42C266.312 119.373 266.364 119.304 266.333 119.211C266.311 119.146 266.26 119.1 266.179 119.075C266.095 119.048 265.997 119.053 265.889 119.09L265.456 119.236L265.404 119.082L265.991 118.884C266.131 118.837 266.183 118.767 266.151 118.674C266.128 118.606 266.077 118.56 265.993 118.536C265.909 118.513 265.811 118.518 265.711 118.552L265.278 118.698L265.225 118.541L266.137 118.232L266.188 118.383C266.11 118.409 266.044 118.427 265.991 118.437L265.988 118.438C266.146 118.445 266.251 118.521 266.301 118.668C266.328 118.75 266.324 118.819 266.288 118.879C266.264 118.923 266.222 118.953 266.174 118.977C266.333 118.987 266.435 119.065 266.482 119.204C266.54 119.376 266.469 119.496 266.269 119.563L265.639 119.776L265.586 119.619Z" fill="white"/>
<path d="M266.407 120.565L266.216 120C265.991 120.068 265.908 120.199 265.971 120.385C266 120.471 266.046 120.548 266.108 120.614L265.987 120.679C265.921 120.602 265.866 120.509 265.828 120.398C265.737 120.13 265.849 119.941 266.16 119.835C266.299 119.788 266.426 119.785 266.535 119.824C266.648 119.865 266.728 119.946 266.768 120.064C266.806 120.179 266.8 120.277 266.745 120.363C266.695 120.44 266.618 120.494 266.507 120.531C266.48 120.544 266.444 120.556 266.407 120.565ZM266.473 120.371C266.549 120.349 266.6 120.312 266.628 120.263C266.66 120.216 266.661 120.16 266.64 120.099C266.599 119.978 266.496 119.933 266.331 119.965L266.473 120.371Z" fill="white"/>
<path d="M266.216 121.497L266.802 121.299C266.938 121.253 266.993 121.178 266.96 121.082C266.936 121.01 266.885 120.964 266.797 120.942C266.714 120.918 266.619 120.922 266.519 120.956L266.083 121.104L266.029 120.946L266.942 120.638L266.992 120.788C266.914 120.815 266.848 120.833 266.794 120.839L266.796 120.843C266.954 120.853 267.056 120.93 267.106 121.076C267.165 121.252 267.098 121.37 266.901 121.437L266.264 121.652L266.216 121.497Z" fill="white"/>
<path d="M267.171 118.561L268.094 118.249L268.255 118.724L268.151 118.759L268.033 118.409L267.739 118.508L267.852 118.841L267.752 118.875L267.639 118.542L267.317 118.651L267.436 119.001L267.329 119.038L267.171 118.561Z" fill="white"/>
<path d="M267.546 119.681L267.983 119.533C268.087 119.498 268.123 119.442 268.098 119.367C268.079 119.31 268.038 119.272 267.976 119.253C267.913 119.234 267.843 119.238 267.768 119.263L267.442 119.373L267.401 119.252L268.081 119.022L268.121 119.14C268.06 119.16 268.012 119.173 267.974 119.177L267.975 119.181C268.094 119.189 268.175 119.253 268.21 119.369C268.256 119.505 268.208 119.597 268.061 119.646L267.585 119.807L267.546 119.681Z" fill="white"/>
<path d="M267.782 120.363C267.757 120.324 267.738 120.282 267.722 120.232C267.699 120.164 267.696 120.109 267.72 120.073C267.74 120.038 267.789 120.006 267.864 119.98L268.254 119.848L268.206 119.709L268.303 119.676L268.35 119.816L268.572 119.741L268.645 119.851L268.391 119.937L268.455 120.127L268.359 120.16L268.295 119.97L267.948 120.087C267.891 120.107 267.857 120.126 267.841 120.148C267.828 120.168 267.825 120.197 267.837 120.232C267.848 120.265 267.862 120.292 267.877 120.315L267.782 120.363Z" fill="white"/>
<path d="M268.342 120.92L268.19 120.473C268.021 120.526 267.963 120.625 268.013 120.772C268.036 120.84 268.072 120.9 268.117 120.952L268.027 121.002C267.974 120.941 267.933 120.867 267.904 120.781C267.833 120.57 267.914 120.423 268.147 120.344C268.25 120.309 268.346 120.308 268.429 120.34C268.516 120.375 268.573 120.439 268.605 120.532C268.635 120.621 268.63 120.699 268.593 120.767C268.557 120.827 268.5 120.87 268.418 120.898C268.393 120.906 268.368 120.915 268.342 120.92ZM268.386 120.769C268.44 120.751 268.479 120.726 268.502 120.686C268.524 120.647 268.526 120.606 268.51 120.556C268.477 120.459 268.4 120.422 268.277 120.447L268.386 120.769Z" fill="white"/>
<path d="M268.749 121.358C268.726 121.207 268.605 121.168 268.38 121.244L268.104 121.337L268.063 121.216L268.743 120.986L268.783 121.104C268.726 121.123 268.671 121.138 268.617 121.144L268.618 121.148C268.76 121.143 268.844 121.203 268.87 121.326L268.749 121.358Z" fill="white"/>
<path d="M268.489 122.18C268.404 122.141 268.339 122.067 268.302 121.956C268.287 121.913 268.277 121.873 268.27 121.839L267.93 121.954L267.889 121.833L268.91 121.491L268.95 121.609C268.893 121.629 268.845 121.641 268.807 121.646L268.808 121.649C268.923 121.658 268.998 121.716 269.036 121.827C269.062 121.906 269.054 121.976 269.015 122.038C268.976 122.099 268.901 122.148 268.797 122.183C268.681 122.218 268.578 122.217 268.489 122.18ZM268.927 121.824C268.907 121.767 268.863 121.73 268.794 121.714C268.733 121.698 268.667 121.705 268.603 121.727L268.377 121.803C268.379 121.842 268.385 121.884 268.401 121.93C268.449 122.074 268.563 122.115 268.75 122.055C268.903 122 268.961 121.924 268.927 121.824Z" fill="white"/>
<path d="M269.168 122.611C269.144 122.46 269.024 122.421 268.798 122.497L268.523 122.59L268.482 122.469L269.161 122.239L269.201 122.357C269.144 122.376 269.089 122.391 269.035 122.397L269.037 122.401C269.179 122.396 269.263 122.456 269.288 122.578L269.168 122.611Z" fill="white"/>
<path d="M269.153 123.342L269.002 122.895C268.832 122.948 268.774 123.047 268.824 123.194C268.847 123.262 268.883 123.321 268.928 123.374L268.838 123.424C268.785 123.363 268.744 123.289 268.715 123.203C268.644 122.992 268.725 122.845 268.958 122.766C269.062 122.731 269.157 122.73 269.24 122.762C269.327 122.796 269.385 122.861 269.416 122.954C269.446 123.043 269.441 123.121 269.404 123.189C269.369 123.249 269.311 123.292 269.229 123.32C269.208 123.327 269.181 123.332 269.153 123.342ZM269.201 123.19C269.255 123.172 269.294 123.146 269.317 123.107C269.34 123.071 269.341 123.027 269.324 122.977C269.292 122.88 269.215 122.842 269.092 122.868L269.201 123.19Z" fill="white"/>
<path d="M269.024 124.071L269.46 123.923C269.564 123.888 269.601 123.832 269.575 123.756C269.556 123.699 269.515 123.661 269.453 123.642C269.391 123.624 269.32 123.627 269.245 123.653L268.92 123.763L268.879 123.641L269.558 123.411L269.598 123.529C269.537 123.55 269.49 123.562 269.451 123.567L269.453 123.571C269.571 123.579 269.652 123.643 269.688 123.758C269.734 123.894 269.685 123.986 269.538 124.036L269.063 124.197L269.024 124.071Z" fill="white"/>
<path d="M269.648 124.821L269.497 124.374C269.328 124.427 269.27 124.527 269.319 124.673C269.342 124.741 269.378 124.801 269.424 124.853L269.333 124.904C269.281 124.842 269.24 124.768 269.211 124.682C269.139 124.471 269.221 124.324 269.453 124.245C269.557 124.21 269.653 124.21 269.735 124.242C269.823 124.276 269.88 124.34 269.912 124.433C269.942 124.523 269.936 124.6 269.9 124.668C269.864 124.728 269.807 124.772 269.725 124.799C269.704 124.81 269.678 124.815 269.648 124.821ZM269.697 124.669C269.75 124.651 269.79 124.626 269.812 124.586C269.836 124.55 269.837 124.506 269.82 124.456C269.787 124.36 269.711 124.322 269.588 124.347L269.697 124.669Z" fill="white"/>
<path d="M269.522 125.553C269.583 125.532 269.631 125.52 269.669 125.515L269.668 125.512C269.548 125.5 269.468 125.44 269.433 125.324C269.387 125.188 269.435 125.096 269.582 125.046L270.058 124.885L270.099 125.007L269.659 125.156C269.555 125.191 269.518 125.247 269.544 125.322C269.563 125.38 269.604 125.418 269.666 125.436C269.728 125.455 269.799 125.451 269.874 125.426L270.199 125.316L270.241 125.437L269.561 125.667L269.522 125.553Z" fill="white"/>
<path d="M270.325 126.05C270.301 125.898 270.181 125.859 269.955 125.936L269.68 126.029L269.639 125.907L270.318 125.677L270.358 125.795C270.301 125.815 270.246 125.829 270.192 125.835L270.194 125.839C270.336 125.835 270.42 125.894 270.445 126.017L270.325 126.05Z" fill="white"/>
<path d="M270.685 126.236C270.666 126.227 270.652 126.208 270.645 126.186C270.637 126.165 270.637 126.141 270.647 126.122C270.656 126.102 270.67 126.086 270.695 126.077C270.717 126.07 270.741 126.07 270.761 126.083C270.78 126.092 270.798 126.11 270.806 126.132C270.813 126.153 270.813 126.177 270.8 126.197C270.787 126.218 270.773 126.234 270.751 126.242C270.73 126.249 270.706 126.249 270.685 126.236ZM269.804 126.399L270.483 126.169L270.524 126.29L269.845 126.52L269.804 126.399Z" fill="white"/>
<path d="M270.047 127.12C270.111 127.098 270.159 127.086 270.185 127.081L270.184 127.077C270.07 127.072 269.997 127.009 269.958 126.895C269.939 126.837 269.942 126.788 269.962 126.742C269.982 126.695 270.023 126.661 270.077 126.643C270.152 126.618 270.221 126.634 270.285 126.692C270.352 126.749 270.403 126.844 270.448 126.976L270.48 126.965C270.538 126.946 270.573 126.922 270.591 126.892C270.609 126.862 270.61 126.818 270.593 126.768C270.571 126.703 270.529 126.638 270.474 126.581L270.566 126.522C270.624 126.589 270.67 126.666 270.699 126.751C270.756 126.92 270.705 127.029 270.544 127.083L270.283 127.171C270.212 127.196 270.147 127.217 270.088 127.242L270.047 127.12ZM270.362 127.005C270.297 126.812 270.223 126.733 270.137 126.762C270.108 126.772 270.087 126.791 270.071 126.816C270.056 126.842 270.057 126.869 270.068 126.901C270.086 126.955 270.122 126.991 270.181 127.011C270.235 127.028 270.291 127.029 270.345 127.011L270.362 127.005Z" fill="white"/>
<path d="M270.169 127.478L271.172 127.142L271.213 127.264L270.21 127.599L270.169 127.478Z" fill="white"/>
<path d="M266.302 115.287C266.287 115.348 266.287 115.432 266.312 115.507C266.351 115.622 266.435 115.669 266.521 115.64C266.603 115.612 266.634 115.55 266.64 115.416C266.642 115.256 266.688 115.145 266.81 115.104C266.946 115.058 267.085 115.138 267.141 115.306C267.172 115.396 267.172 115.467 267.164 115.514L267.06 115.513C267.065 115.48 267.074 115.413 267.047 115.334C267.007 115.216 266.92 115.194 266.863 115.213C266.781 115.241 266.759 115.308 266.753 115.442C266.745 115.608 266.699 115.707 266.57 115.751C266.434 115.797 266.286 115.735 266.217 115.531C266.189 115.449 266.183 115.348 266.199 115.29L266.302 115.287Z" fill="white"/>
<path d="M266.502 116.336L266.579 116.302L266.577 116.299C266.515 116.28 266.449 116.227 266.419 116.137C266.377 116.012 266.444 115.917 266.534 115.887C266.684 115.836 266.812 115.944 266.893 116.184L266.908 116.179C266.958 116.162 267.046 116.116 267.006 115.986C266.986 115.929 266.948 115.874 266.904 115.838L266.97 115.787C267.019 115.826 267.066 115.894 267.093 115.973C267.158 116.166 267.04 116.254 266.915 116.296L266.683 116.375C266.629 116.393 266.577 116.415 266.536 116.436L266.502 116.336ZM266.815 116.211C266.776 116.084 266.707 115.952 266.585 115.993C266.51 116.019 266.495 116.08 266.514 116.137C266.542 116.219 266.609 116.252 266.669 116.252C266.681 116.252 266.696 116.251 266.707 116.247L266.815 116.211Z" fill="white"/>
<path d="M266.941 117.076C266.877 117.098 266.819 117.118 266.771 117.138L266.737 117.038L266.838 116.996L266.837 116.992C266.777 116.98 266.69 116.934 266.652 116.823C266.619 116.727 266.633 116.591 266.855 116.516L267.22 116.392L267.259 116.507L266.912 116.624C266.793 116.664 266.723 116.728 266.758 116.831C266.784 116.906 266.856 116.942 266.913 116.946C266.933 116.947 266.952 116.945 266.974 116.938L267.357 116.808L267.395 116.923L266.941 117.076Z" fill="white"/>
<path d="M267.936 117.557L267.181 117.813C267.124 117.832 267.063 117.853 267.022 117.871L266.987 117.767L267.093 117.727L267.091 117.724C267.011 117.711 266.932 117.654 266.897 117.55C266.846 117.4 266.935 117.238 267.125 117.174C267.332 117.104 267.505 117.189 267.557 117.343C267.589 117.44 267.565 117.52 267.524 117.565L267.525 117.569L267.897 117.443L267.936 117.557ZM267.35 117.628C267.364 117.623 267.382 117.617 267.395 117.609C267.461 117.567 267.501 117.485 267.472 117.4C267.432 117.282 267.305 117.249 267.165 117.292C267.039 117.335 266.953 117.432 266.995 117.557C267.021 117.632 267.095 117.687 267.188 117.679C267.203 117.678 267.221 117.672 267.239 117.666L267.35 117.628Z" fill="white"/>
<path d="M267.926 117.913C267.887 117.926 267.845 117.909 267.834 117.864C267.82 117.825 267.843 117.786 267.882 117.772C267.922 117.759 267.964 117.777 267.978 117.82C267.989 117.864 267.965 117.9 267.926 117.913ZM267.081 118.055L267.707 117.844L267.746 117.958L267.12 118.17L267.081 118.055Z" fill="white"/>
<path d="M267.777 115.188C267.738 115.073 267.733 114.988 267.761 114.918C267.787 114.854 267.848 114.809 267.938 114.779C267.995 114.759 268.052 114.752 268.102 114.759L268.147 114.844C268.093 114.838 268.035 114.842 267.974 114.862C267.899 114.888 267.855 114.922 267.833 114.966C267.811 115.017 267.815 115.087 267.845 115.177L267.897 115.331L268.265 115.206L268.293 115.288L267.861 115.435L267.777 115.188ZM268.272 114.897C268.28 114.882 268.289 114.875 268.303 114.87C268.318 114.865 268.33 114.865 268.344 114.872C268.358 114.88 268.366 114.889 268.37 114.903C268.375 114.918 268.375 114.93 268.367 114.94C268.36 114.955 268.35 114.962 268.336 114.967C268.322 114.972 268.31 114.972 268.295 114.965C268.281 114.958 268.274 114.948 268.27 114.937C268.264 114.919 268.264 114.907 268.272 114.897ZM268.317 115.029C268.324 115.015 268.334 115.007 268.348 115.003C268.362 114.998 268.374 114.998 268.389 115.005C268.403 115.012 268.41 115.021 268.415 115.036C268.42 115.05 268.42 115.062 268.412 115.073C268.405 115.087 268.395 115.094 268.381 115.099C268.367 115.104 268.355 115.104 268.34 115.097C268.326 115.09 268.319 115.08 268.315 115.07C268.31 115.055 268.31 115.043 268.317 115.029Z" fill="white"/>
<path d="M268.569 115.383L268.596 115.465L268.013 115.662L268.047 115.763L267.979 115.786L267.918 115.603L268.569 115.383Z" fill="white"/>
<path d="M268.042 115.747L268.104 115.93L268.473 115.805L268.5 115.887L268.068 116.034L267.977 115.766L268.042 115.747ZM267.837 115.941C267.822 115.933 267.815 115.924 267.81 115.91C267.805 115.895 267.805 115.883 267.813 115.869C267.82 115.855 267.829 115.847 267.843 115.843C267.858 115.838 267.87 115.838 267.884 115.845C267.898 115.852 267.906 115.861 267.91 115.876C267.915 115.89 267.915 115.902 267.908 115.916C267.901 115.931 267.892 115.938 267.877 115.943C267.863 115.948 267.851 115.948 267.837 115.941ZM267.883 116.077C267.868 116.069 267.861 116.06 267.858 116.049C267.853 116.035 267.853 116.023 267.86 116.009C267.867 115.994 267.876 115.987 267.891 115.982C267.905 115.977 267.917 115.977 267.931 115.984C267.946 115.991 267.953 116.001 267.958 116.015C267.963 116.03 267.963 116.042 267.954 116.052C267.947 116.067 267.938 116.074 267.923 116.079C267.909 116.084 267.896 116.08 267.883 116.077Z" fill="white"/>
<path d="M268.172 116.143L268.271 116.437C268.357 116.407 268.419 116.367 268.453 116.315C268.491 116.262 268.508 116.193 268.505 116.102L268.584 116.1C268.585 116.211 268.564 116.301 268.519 116.369C268.471 116.437 268.39 116.492 268.275 116.531L268.229 116.547L268.102 116.171L268.172 116.143Z" fill="white"/>
<path d="M268.046 116.709L268.12 116.692C268.126 116.746 268.136 116.798 268.152 116.845C268.19 116.959 268.258 117.004 268.354 116.971L268.376 116.964L268.344 116.871C268.29 116.71 268.335 116.607 268.478 116.559C268.542 116.537 268.602 116.537 268.658 116.562C268.719 116.589 268.76 116.639 268.784 116.71C268.807 116.778 268.817 116.843 268.814 116.904L268.47 117.02L268.504 117.12L268.436 117.143L268.402 117.043L268.384 117.049C268.324 117.07 268.266 117.065 268.217 117.038C268.155 117.007 268.11 116.946 268.079 116.853C268.064 116.81 268.051 116.759 268.046 116.709ZM268.728 116.841C268.733 116.807 268.727 116.766 268.712 116.723C268.698 116.68 268.673 116.652 268.636 116.637C268.599 116.622 268.559 116.623 268.513 116.639C268.409 116.674 268.373 116.746 268.411 116.857L268.438 116.935L268.728 116.841Z" fill="white"/>
<path d="M268.5 117.108L268.51 117.136C268.543 117.233 268.585 117.31 268.641 117.371C268.699 117.248 268.727 117.155 268.728 117.098L268.792 117.085C268.899 117.156 268.964 117.23 268.992 117.312C269.011 117.369 269.013 117.421 268.995 117.463C268.98 117.5 268.949 117.526 268.91 117.539C268.838 117.564 268.765 117.548 268.682 117.493C268.668 117.545 268.669 117.593 268.684 117.64L268.704 117.697L268.636 117.72L268.613 117.652C268.591 117.587 268.591 117.516 268.618 117.443C268.542 117.373 268.486 117.276 268.446 117.158L268.438 117.137L268.5 117.108ZM268.702 117.422C268.76 117.462 268.815 117.472 268.865 117.455C268.89 117.446 268.909 117.432 268.921 117.408C268.933 117.384 268.931 117.357 268.919 117.321C268.902 117.271 268.858 117.222 268.785 117.171C268.79 117.209 268.758 117.292 268.702 117.422Z" fill="white"/>
<path d="M268.692 117.678L268.705 117.717C268.716 117.75 268.732 117.772 268.754 117.78C268.777 117.789 268.815 117.784 268.862 117.768L269.048 117.705L269.076 117.787L268.908 117.844C268.854 117.862 268.816 117.879 268.8 117.893C268.779 117.912 268.772 117.938 268.783 117.97C268.804 118.035 268.864 118.046 268.964 118.012L269.172 117.942L269.2 118.024L268.964 118.104C268.917 118.12 268.889 118.142 268.88 118.164C268.872 118.187 268.879 118.221 268.898 118.274L268.907 118.303C268.951 118.292 268.995 118.281 269.038 118.266C269.131 118.235 269.21 118.196 269.283 118.152L269.319 118.235C269.247 118.283 269.162 118.324 269.069 118.356C269.029 118.369 268.985 118.38 268.93 118.395L268.964 118.495L268.896 118.518L268.825 118.307C268.805 118.25 268.795 118.205 268.797 118.177C268.798 118.145 268.81 118.121 268.833 118.097C268.773 118.093 268.733 118.059 268.709 117.987C268.687 117.923 268.699 117.875 268.747 117.843C268.691 117.842 268.657 117.81 268.635 117.745L268.621 117.706L268.692 117.678Z" fill="white"/>
<path d="M268.96 118.483L269.004 118.612L269.587 118.415L269.615 118.497L268.964 118.717L268.892 118.506L268.96 118.483Z" fill="white"/>
<path d="M269.672 118.667L269.7 118.75L269.049 118.97L269.021 118.888L269.672 118.667Z" fill="white"/>
<path d="M269.933 119.437L269.962 119.522L269.365 119.725C269.276 119.755 269.197 119.758 269.139 119.729C269.083 119.704 269.044 119.658 269.021 119.59C268.97 119.44 269.03 119.336 269.202 119.278C269.263 119.257 269.322 119.245 269.384 119.24L269.431 119.32C269.364 119.322 269.301 119.336 269.24 119.356C269.108 119.401 269.057 119.474 269.09 119.571C269.12 119.66 269.199 119.681 269.328 119.638L269.933 119.437Z" fill="white"/>
<path d="M269.362 119.909L270.013 119.689L270.041 119.771L269.458 119.969L269.482 120.04C269.494 120.076 269.515 120.101 269.539 120.113C269.571 120.126 269.614 120.123 269.671 120.104C269.736 120.082 269.795 120.082 269.848 120.108C269.909 120.135 269.95 120.185 269.974 120.256C270.018 120.385 269.972 120.473 269.832 120.52L269.664 120.577L269.695 120.67L269.627 120.693L269.539 120.432C269.503 120.324 269.508 120.247 269.553 120.191C269.495 120.195 269.452 120.162 269.426 120.099L269.362 119.909ZM269.79 120.442C269.894 120.407 269.93 120.351 269.903 120.269C269.888 120.226 269.863 120.198 269.826 120.183C269.789 120.168 269.749 120.169 269.703 120.185C269.599 120.22 269.564 120.292 269.601 120.403L269.631 120.492L269.79 120.442Z" fill="white"/>
<path d="M269.69 120.657L269.75 120.832C269.756 120.758 269.803 120.706 269.881 120.68C269.942 120.659 269.998 120.66 270.051 120.686C270.107 120.711 270.148 120.761 270.172 120.832C270.187 120.875 270.193 120.917 270.191 120.958L270.118 120.966C270.121 120.929 270.116 120.891 270.103 120.852C270.09 120.812 270.065 120.785 270.031 120.769C269.998 120.752 269.957 120.75 269.914 120.764C269.864 120.781 269.831 120.812 269.815 120.861C269.798 120.915 269.8 120.982 269.828 121.064L269.854 121.14L269.786 121.163L269.624 120.683L269.69 120.657Z" fill="white"/>
<path d="M270.402 120.957C270.41 120.982 270.416 121 270.416 121.012C270.42 120.999 270.428 120.988 270.446 120.982C270.471 120.974 270.492 120.978 270.512 120.988C270.532 121.001 270.552 121.026 270.563 121.058C270.569 121.076 270.572 121.095 270.573 121.11L270.52 121.12C270.52 121.108 270.514 121.09 270.51 121.076C270.5 121.048 270.484 121.037 270.466 121.043C270.445 121.05 270.441 121.075 270.455 121.115L270.473 121.168L270.423 121.185L270.351 120.974L270.402 120.957ZM270.03 121.39L270.001 121.304L270.348 121.059L270.377 121.145L270.03 121.39ZM269.815 121.251L269.883 121.228L269.979 121.511L270.555 121.316L270.584 121.402L269.94 121.62L269.815 121.251Z" fill="white"/>
<path d="M270.652 121.568L270.679 121.651L270.028 121.871L270.001 121.789L270.652 121.568Z" fill="white"/>
<path d="M270.241 122.515C270.202 122.4 270.197 122.314 270.225 122.245C270.251 122.18 270.312 122.136 270.402 122.105C270.459 122.086 270.516 122.079 270.566 122.086L270.611 122.17C270.557 122.164 270.499 122.168 270.438 122.189C270.363 122.214 270.319 122.249 270.297 122.292C270.275 122.344 270.279 122.414 270.309 122.504L270.361 122.657L270.729 122.533L270.757 122.615L270.325 122.761L270.241 122.515ZM270.736 122.223C270.744 122.209 270.753 122.202 270.767 122.197C270.782 122.192 270.794 122.192 270.808 122.199C270.822 122.206 270.83 122.216 270.834 122.23C270.839 122.244 270.839 122.256 270.831 122.267C270.824 122.281 270.814 122.289 270.8 122.294C270.786 122.298 270.774 122.298 270.759 122.291C270.745 122.284 270.738 122.275 270.734 122.264C270.729 122.25 270.733 122.236 270.736 122.223ZM270.782 122.359C270.79 122.345 270.799 122.338 270.813 122.333C270.828 122.328 270.84 122.328 270.854 122.335C270.868 122.342 270.876 122.352 270.88 122.366C270.885 122.38 270.885 122.392 270.877 122.403C270.87 122.417 270.86 122.425 270.846 122.429C270.832 122.434 270.82 122.434 270.805 122.427C270.791 122.42 270.784 122.411 270.78 122.4C270.775 122.386 270.778 122.369 270.782 122.359Z" fill="white"/>
<path d="M271.033 122.709L271.06 122.791L270.477 122.989L270.511 123.089L270.443 123.112L270.382 122.929L271.033 122.709Z" fill="white"/>
<path d="M270.506 123.076L270.568 123.258L270.937 123.133L270.964 123.216L270.532 123.362L270.441 123.094L270.506 123.076ZM270.301 123.269C270.286 123.262 270.279 123.252 270.274 123.238C270.269 123.223 270.269 123.212 270.276 123.197C270.284 123.183 270.293 123.176 270.307 123.171C270.322 123.166 270.334 123.166 270.348 123.173C270.362 123.18 270.37 123.19 270.374 123.204C270.379 123.218 270.379 123.23 270.372 123.245C270.365 123.259 270.356 123.266 270.341 123.271C270.327 123.276 270.315 123.276 270.301 123.269ZM270.345 123.401C270.331 123.394 270.324 123.384 270.32 123.374C270.315 123.359 270.315 123.347 270.322 123.333C270.33 123.319 270.339 123.312 270.353 123.307C270.368 123.302 270.38 123.302 270.394 123.309C270.408 123.316 270.416 123.326 270.42 123.34C270.425 123.354 270.425 123.366 270.417 123.377C270.41 123.391 270.4 123.398 270.386 123.403C270.372 123.408 270.36 123.408 270.345 123.401Z" fill="white"/>
<path d="M270.64 123.472L270.74 123.765C270.826 123.736 270.887 123.695 270.922 123.644C270.96 123.591 270.976 123.522 270.973 123.431L271.052 123.428C271.054 123.539 271.033 123.63 270.988 123.697C270.939 123.765 270.858 123.821 270.744 123.859L270.697 123.875L270.57 123.5L270.64 123.472Z" fill="white"/>
<path d="M271.395 123.793L271.423 123.876L270.84 124.073L270.874 124.173L270.806 124.196L270.744 124.014L271.395 123.793Z" fill="white"/>
<path d="M270.871 124.163L270.933 124.345L271.301 124.221L271.329 124.303L270.896 124.449L270.805 124.181L270.871 124.163ZM270.669 124.355C270.655 124.348 270.647 124.338 270.642 124.324C270.638 124.31 270.638 124.298 270.645 124.283C270.652 124.269 270.661 124.262 270.676 124.257C270.69 124.252 270.702 124.252 270.716 124.259C270.731 124.266 270.738 124.276 270.743 124.29C270.747 124.304 270.748 124.316 270.74 124.331C270.733 124.345 270.724 124.352 270.71 124.357C270.695 124.362 270.682 124.358 270.669 124.355ZM270.714 124.487C270.699 124.48 270.692 124.471 270.688 124.46C270.684 124.446 270.684 124.434 270.691 124.419C270.698 124.405 270.707 124.398 270.722 124.393C270.736 124.388 270.748 124.388 270.762 124.395C270.777 124.402 270.784 124.412 270.789 124.426C270.793 124.44 270.794 124.452 270.785 124.463C270.778 124.477 270.769 124.485 270.754 124.489C270.74 124.494 270.728 124.494 270.714 124.487Z" fill="white"/>
<path d="M270.693 124.604L270.769 124.591C270.768 124.623 270.774 124.653 270.786 124.689C270.799 124.728 270.821 124.757 270.848 124.767C270.88 124.78 270.927 124.776 270.984 124.757L271.431 124.606L271.459 124.688L271.019 124.837C270.865 124.889 270.763 124.844 270.715 124.705C270.704 124.672 270.697 124.639 270.693 124.604Z" fill="white"/>
<path d="M271.203 125.374C271.149 125.213 271.194 125.11 271.337 125.062C271.401 125.04 271.461 125.04 271.517 125.065C271.578 125.092 271.619 125.142 271.643 125.214C271.666 125.281 271.676 125.346 271.673 125.407L271.329 125.523L271.363 125.623L271.295 125.646L271.203 125.374ZM271.589 125.348C271.593 125.314 271.587 125.272 271.573 125.229C271.558 125.186 271.533 125.159 271.496 125.144C271.459 125.128 271.419 125.13 271.373 125.146C271.269 125.181 271.234 125.252 271.271 125.363L271.298 125.442L271.589 125.348ZM271.696 125.076C271.703 125.062 271.713 125.054 271.727 125.05C271.741 125.045 271.753 125.045 271.768 125.052C271.782 125.059 271.789 125.068 271.794 125.083C271.799 125.097 271.799 125.109 271.792 125.123C271.785 125.138 271.775 125.145 271.761 125.15C271.747 125.155 271.735 125.155 271.72 125.148C271.706 125.14 271.699 125.131 271.694 125.117C271.689 125.102 271.689 125.09 271.696 125.076ZM271.742 125.212C271.749 125.198 271.759 125.19 271.773 125.185C271.787 125.181 271.799 125.181 271.814 125.188C271.828 125.195 271.835 125.204 271.84 125.219C271.845 125.233 271.845 125.245 271.837 125.256C271.83 125.27 271.82 125.277 271.806 125.282C271.791 125.287 271.78 125.287 271.765 125.28C271.751 125.273 271.744 125.263 271.74 125.253C271.735 125.238 271.735 125.226 271.742 125.212Z" fill="white"/>
<path d="M271.356 125.611L271.455 125.905C271.545 125.874 271.606 125.83 271.642 125.774C271.677 125.722 271.696 125.648 271.689 125.558L271.754 125.537L272.089 125.81L272.003 125.839L271.766 125.644C271.762 125.725 271.737 125.793 271.695 125.847C271.651 125.906 271.58 125.954 271.483 125.987L271.511 126.069L271.443 126.092L271.288 125.634L271.356 125.611Z" fill="white"/>
<path d="M271.507 126.058L271.552 126.191L271.92 126.066L271.948 126.148L271.58 126.273L271.613 126.373L271.545 126.396L271.438 126.078L271.507 126.058ZM271.294 126.218C271.301 126.204 271.31 126.197 271.325 126.192C271.339 126.187 271.351 126.187 271.365 126.194C271.38 126.201 271.387 126.211 271.392 126.225C271.397 126.239 271.397 126.251 271.39 126.266C271.382 126.28 271.373 126.287 271.359 126.292C271.344 126.297 271.332 126.297 271.318 126.29C271.304 126.283 271.296 126.273 271.292 126.259C271.287 126.245 271.286 126.229 271.294 126.218Z" fill="white"/>
<path d="M271.611 126.363L271.624 126.403C271.635 126.435 271.651 126.458 271.674 126.466C271.696 126.474 271.734 126.469 271.781 126.453L271.967 126.39L271.995 126.473L271.827 126.53C271.773 126.548 271.735 126.565 271.719 126.578C271.698 126.597 271.691 126.623 271.702 126.656C271.724 126.72 271.783 126.732 271.884 126.698L272.091 126.627L272.119 126.71L271.883 126.79C271.836 126.805 271.808 126.827 271.8 126.85C271.791 126.872 271.799 126.906 271.817 126.96L271.826 126.988C271.871 126.977 271.915 126.966 271.958 126.952C272.051 126.92 272.129 126.882 272.202 126.837L272.244 126.915C272.173 126.963 272.087 127.004 271.994 127.035C271.926 127.058 271.857 127.078 271.785 127.09L271.75 126.986C271.731 126.929 271.72 126.885 271.722 126.856C271.723 126.824 271.735 126.8 271.759 126.776C271.698 126.773 271.658 126.738 271.634 126.667C271.612 126.602 271.624 126.554 271.673 126.522C271.616 126.521 271.582 126.489 271.56 126.424L271.547 126.385L271.611 126.363ZM272.185 126.528C272.192 126.514 272.202 126.506 272.216 126.502C272.23 126.497 272.242 126.497 272.256 126.504C272.271 126.511 272.278 126.52 272.283 126.535C272.288 126.549 272.288 126.561 272.281 126.575C272.274 126.59 272.264 126.597 272.25 126.602C272.235 126.607 272.224 126.607 272.209 126.599C272.195 126.592 272.188 126.583 272.183 126.569C272.178 126.554 272.178 126.542 272.185 126.528ZM272.32 126.562C272.328 126.551 272.337 126.54 272.347 126.537C272.362 126.532 272.374 126.532 272.388 126.539C272.401 126.542 272.41 126.556 272.413 126.566C272.418 126.581 272.418 126.593 272.41 126.603C272.401 126.614 272.393 126.625 272.379 126.63C272.365 126.635 272.353 126.635 272.342 126.626C272.329 126.623 272.32 126.61 272.317 126.599C272.312 126.585 272.312 126.573 272.32 126.562ZM272.231 126.664C272.238 126.649 272.248 126.642 272.262 126.637C272.276 126.633 272.288 126.633 272.302 126.64C272.317 126.647 272.324 126.656 272.329 126.671C272.334 126.685 272.334 126.697 272.325 126.708C272.318 126.722 272.309 126.729 272.295 126.734C272.28 126.739 272.268 126.739 272.254 126.732C272.24 126.725 272.232 126.715 272.229 126.704C272.224 126.69 272.224 126.678 272.231 126.664Z" fill="white"/>
<path d="M229.233 118.928C229.077 118.773 228.792 118.495 228.593 118.295C228.401 118.105 228.09 118.095 227.889 118.278C227.377 118.755 227.606 119.869 226.667 119.98L227.124 120.447C227.545 120.878 228.275 120.703 228.456 120.128C228.597 119.685 228.699 119.208 229.19 119.07C229.26 119.054 229.281 118.975 229.233 118.928Z" fill="white"/>
<path d="M223.767 121.145C223.923 121.3 224.208 121.578 224.407 121.778C224.599 121.968 224.91 121.978 225.111 121.795C225.623 121.318 225.394 120.204 226.333 120.093L225.876 119.626C225.455 119.195 224.725 119.37 224.545 119.945C224.404 120.388 224.302 120.864 223.81 121.003C223.744 121.018 223.719 121.098 223.767 121.145Z" fill="white"/>
<path d="M225.408 117.324C225.253 117.48 224.975 117.766 224.775 117.965C224.585 118.157 224.575 118.467 224.758 118.668C225.235 119.181 226.349 118.951 226.46 119.891L226.927 119.433C227.358 119.012 227.183 118.282 226.608 118.102C226.165 117.961 225.687 117.856 225.55 117.368C225.531 117.299 225.452 117.277 225.408 117.324Z" fill="white"/>
<path d="M227.602 122.742C227.756 122.586 228.034 122.3 228.234 122.101C228.424 121.909 228.435 121.599 228.251 121.398C227.775 120.885 226.661 121.115 226.55 120.176L226.083 120.633C225.651 121.054 225.826 121.784 226.402 121.964C226.844 122.105 227.322 122.211 227.46 122.698C227.474 122.765 227.553 122.786 227.602 122.742Z" fill="white"/>
<path d="M228.948 128.427C229.579 128.173 230.342 127.871 230.921 127.684L230.913 127.662C230.32 127.688 229.675 127.691 228.96 127.674L226.441 127.617L226.287 127.163L228.238 125.669C228.815 125.231 229.349 124.843 229.852 124.525L229.847 124.511C229.266 124.691 228.479 124.922 227.774 125.113L225.75 125.658L225.558 125.089L230.288 123.847L230.546 124.609L228.578 126.156C228.074 126.542 227.62 126.871 227.179 127.148L227.186 127.169C227.691 127.13 228.255 127.123 228.907 127.129L231.421 127.195L231.679 127.957L227.155 129.811L226.958 129.228L228.948 128.427Z" fill="white"/>
<path d="M229.224 130.836C228.413 131.126 228.254 131.762 228.457 132.363C228.603 132.796 228.767 133.031 228.94 133.224L228.542 133.474C228.374 133.296 228.14 132.968 227.961 132.439C227.614 131.416 228.081 130.58 229.083 130.241C230.084 129.903 231.071 130.226 231.398 131.192C231.765 132.276 230.907 132.889 230.299 133.095C230.174 133.137 230.076 133.154 230.01 133.169L229.22 130.837L229.224 130.836ZM230.256 132.46C230.641 132.337 231.183 131.971 230.953 131.291C230.746 130.679 230.095 130.605 229.659 130.696L230.256 132.46Z" fill="white"/>
<path d="M231.238 133.912C231.581 133.795 231.858 133.694 232.126 133.579L232.305 134.109L231.778 134.319L231.786 134.34C232.163 134.42 232.564 134.627 232.75 135.174C232.903 135.628 232.743 136.061 232.403 136.34L232.408 136.354C232.629 136.395 232.815 136.475 232.966 136.58C233.184 136.729 233.34 136.92 233.447 137.234C233.596 137.674 233.526 138.423 232.375 138.813L230.421 139.474L230.222 138.884L232.1 138.248C232.736 138.033 233.044 137.67 232.879 137.183C232.763 136.84 232.418 136.658 232.091 136.657C231.999 136.656 231.882 136.676 231.775 136.712L229.725 137.405L229.526 136.815L231.515 136.142C232.044 135.963 232.348 135.601 232.192 135.14C232.064 134.76 231.671 134.59 231.334 134.597C231.233 134.591 231.125 134.615 231.025 134.649L229.022 135.327L228.822 134.737L231.24 133.919L231.238 133.912Z" fill="white"/>
<path d="M230.836 140.696C231.066 140.634 231.407 140.535 231.704 140.434L235.718 139.076L235.92 139.673L233.834 140.379L233.839 140.393C234.283 140.479 234.653 140.784 234.833 141.317C235.112 142.139 234.622 142.955 233.611 143.289C232.423 143.691 231.58 143.143 231.33 142.403C231.168 141.923 231.223 141.474 231.576 141.08L231.568 141.058L231.011 141.215L230.836 140.696ZM232.378 140.872C232.303 140.897 232.233 140.937 232.17 140.974C231.791 141.234 231.619 141.679 231.768 142.119C231.981 142.748 232.624 142.953 233.386 142.695C234.052 142.47 234.504 141.934 234.286 141.291C234.147 140.879 233.735 140.592 233.235 140.622C233.162 140.631 233.072 140.637 232.976 140.67L232.378 140.872Z" fill="white"/>
<path d="M233.92 144.712C233.11 145.002 232.95 145.638 233.153 146.239C233.3 146.672 233.463 146.907 233.636 147.1L233.238 147.35C233.07 147.172 232.836 146.844 232.657 146.315C232.311 145.292 232.777 144.456 233.779 144.117C234.781 143.779 235.767 144.102 236.094 145.068C236.461 146.152 235.604 146.765 234.996 146.971C234.871 147.013 234.773 147.03 234.706 147.045L233.917 144.713L233.92 144.712ZM234.952 146.336C235.337 146.213 235.879 145.847 235.649 145.167C235.442 144.555 234.791 144.481 234.356 144.572L234.952 146.336Z" fill="white"/>
<path d="M235.8 147.838C236.19 147.706 236.523 147.585 236.827 147.458L237.006 147.987L236.363 148.229L236.372 148.258C236.87 148.257 237.273 148.527 237.41 148.931C237.433 148.999 237.442 149.052 237.446 149.11L236.877 149.303C236.871 149.237 236.857 149.17 236.829 149.088C236.685 148.662 236.261 148.471 235.779 148.542C235.692 148.556 235.59 148.574 235.487 148.609L233.716 149.209L233.514 148.611L235.8 147.838Z" fill="white"/>
<path d="M234.956 150.834C234.898 151.053 234.883 151.409 234.985 151.709C235.134 152.149 235.421 152.279 235.696 152.186C235.986 152.088 236.085 151.863 236.099 151.36C236.108 150.692 236.342 150.301 236.743 150.166C237.279 149.984 237.862 150.269 238.103 150.981C238.217 151.317 238.22 151.643 238.172 151.867L237.681 151.865C237.72 151.709 237.749 151.432 237.644 151.12C237.523 150.763 237.249 150.636 237.002 150.72C236.727 150.813 236.673 151.054 236.654 151.539C236.63 152.189 236.441 152.584 235.947 152.751C235.364 152.948 234.799 152.633 234.533 151.846C234.409 151.481 234.385 151.115 234.442 150.836L234.956 150.834Z" fill="white"/>
<path d="M240.248 152.466L240.452 153.07L238.381 153.771L238.386 153.786C238.59 153.824 238.791 153.923 238.958 154.074C239.122 154.218 239.262 154.406 239.339 154.635C239.49 155.082 239.456 155.887 238.311 156.275L236.337 156.943L236.132 156.338L238.039 155.693C238.575 155.511 238.958 155.159 238.766 154.59C238.634 154.2 238.254 153.986 237.888 153.986C237.793 153.978 237.701 154.001 237.583 154.041L235.58 154.719L235.376 154.114L240.248 152.466Z" fill="white"/>
<path d="M241.238 157.429C241.033 157.506 240.817 157.412 240.736 157.172C240.665 156.961 240.777 156.752 240.985 156.681C241.196 156.61 241.414 156.712 241.489 156.933C241.564 157.155 241.449 157.357 241.238 157.429ZM236.757 158.196L240.077 157.072L240.281 157.677L236.962 158.8L236.757 158.196Z" fill="white"/>
<path d="M239.629 159.315C240.055 159.171 240.393 159.04 240.703 158.919L240.886 159.46L240.327 159.681L240.332 159.695C240.819 159.805 241.191 160.114 241.375 160.658C241.646 161.459 241.171 162.293 240.162 162.635C238.968 163.039 238.132 162.513 237.867 161.729C237.718 161.289 237.781 160.841 238.043 160.529L238.038 160.515L236.235 161.125L236.033 160.528L239.628 159.311L239.629 159.315ZM238.948 160.211C238.858 160.241 238.781 160.284 238.71 160.323C238.329 160.576 238.162 161.035 238.308 161.468C238.524 162.105 239.172 162.3 239.934 162.042C240.599 161.817 241.049 161.274 240.834 160.637C240.695 160.226 240.272 159.942 239.778 159.978C239.695 159.982 239.599 159.991 239.516 160.019L238.948 160.211Z" fill="white"/>
<path d="M176.909 164.131C176.909 164.131 191.271 164.641 202.584 163.386C213.497 162.175 232.501 162.079 240.377 163.888C240.377 163.888 250.306 164.652 251.26 175.926C252.221 187.201 242.671 190.372 242.671 190.372C242.671 190.372 233.317 196.207 216.385 195.509C199.454 194.812 177.883 194.19 164.493 206.968" fill="#E2C5AF"/>
<path d="M176.909 164.131C176.909 164.131 191.271 164.641 202.584 163.386C213.497 162.175 232.501 162.079 240.377 163.888C240.377 163.888 250.306 164.652 251.26 175.926C252.221 187.201 242.671 190.372 242.671 190.372C242.671 190.372 233.317 196.207 216.385 195.509C199.454 194.812 177.883 194.19 164.494 206.968" stroke="#21313E" stroke-width="1.36228" stroke-miterlimit="10" stroke-linecap="round" stroke-linejoin="round"/>
<path d="M195.148 136.232C195.148 136.232 186.44 150.932 205.877 163.135" stroke="#21313E" stroke-width="1.02171" stroke-miterlimit="10" stroke-linecap="round" stroke-linejoin="round"/>
<path d="M170.461 135.509C170.461 135.509 170.164 146.454 186.25 154.301C186.25 154.301 189.84 156.257 197.021 155.195" stroke="#21313E" stroke-width="1.02171" stroke-miterlimit="10" stroke-linecap="round" stroke-linejoin="round"/>
<path d="M176.694 199.533C176.694 199.533 180.356 214.435 174.873 231.421" stroke="#21313E" stroke-width="1.02171" stroke-miterlimit="10" stroke-linecap="round" stroke-linejoin="round"/>
<path d="M177.274 202.976C190.142 205.872 195.723 215.946 195.723 215.946C201.636 208.366 212.541 204.505 212.541 204.505C212.541 204.505 213.684 198.551 216.387 195.509" stroke="#21313E" stroke-width="1.02171" stroke-miterlimit="10" stroke-linecap="round" stroke-linejoin="round"/>
<path d="M212.542 204.507C212.542 204.507 221.668 210.919 224.102 215.682" stroke="#21313E" stroke-width="1.02171" stroke-miterlimit="10" stroke-linecap="round" stroke-linejoin="round"/>
<path d="M195.722 215.945C195.722 215.945 191.7 221.796 193.922 231.869" stroke="#21313E" stroke-width="1.02171" stroke-miterlimit="10" stroke-linecap="round" stroke-linejoin="round"/>
<path d="M189.686 155.541C189.686 155.541 189.391 158.878 191.656 163.994" stroke="#21313E" stroke-width="1.02171" stroke-miterlimit="10" stroke-linecap="round" stroke-linejoin="round"/>
<path d="M199.773 195.666C199.773 195.666 191.699 201.473 190.25 209.575" stroke="#21313E" stroke-width="1.02171" stroke-miterlimit="10" stroke-linecap="round" stroke-linejoin="round"/>
<path d="M209.361 199.229C209.361 199.229 206.145 195.378 203.202 195.405" stroke="#21313E" stroke-width="1.02171" stroke-miterlimit="10" stroke-linecap="round" stroke-linejoin="round"/>
<path d="M175.627 151.84C175.627 151.84 178.54 152.025 179.805 150.366" stroke="#21313E" stroke-width="1.02171" stroke-miterlimit="10" stroke-linecap="round" stroke-linejoin="round"/>
<path d="M80.3571 165.035C80.3571 165.035 87.1927 160.177 120.423 155.692L80.3571 165.035Z" fill="#A9D4CB"/>
<path d="M80.3571 165.035C80.3571 165.035 87.1927 160.177 120.423 155.692" stroke="#21313E" stroke-width="1.02171" stroke-miterlimit="10" stroke-linecap="round" stroke-linejoin="round"/>
<path d="M201.27 132.54C201.27 132.54 204.375 138.487 211.46 144.601C211.46 144.601 214.452 144.606 214.438 142.225" stroke="#21313E" stroke-width="1.02171" stroke-miterlimit="10" stroke-linecap="round" stroke-linejoin="round"/>
<path d="M174.873 125.874C174.873 125.874 177.351 127.571 177.843 130.436C178.334 133.301 190.987 136.673 191.365 133.547" stroke="#21313E" stroke-width="1.02171" stroke-miterlimit="10" stroke-linecap="round" stroke-linejoin="round"/>
<path d="M158.369 132.721C158.369 132.721 159.665 134.413 159.832 136.556C159.832 136.556 169.864 139.593 169.557 135.519" stroke="#21313E" stroke-width="1.02171" stroke-miterlimit="10" stroke-linecap="round" stroke-linejoin="round"/>
<path d="M183.452 197.53C183.452 197.53 188.864 199.925 190.635 207.956" stroke="#21313E" stroke-width="1.02171" stroke-miterlimit="10" stroke-linecap="round" stroke-linejoin="round"/>
<path d="M173.869 200.587C173.869 200.587 171.523 206.047 167.539 209.786L173.869 200.587Z" fill="#A9D4CB"/>
<path d="M173.869 200.587C173.869 200.587 171.523 206.047 167.539 209.786" stroke="#21313E" stroke-width="1.02171" stroke-miterlimit="10" stroke-linecap="round" stroke-linejoin="round"/>
<path d="M247.092 166.882C247.092 166.882 237.851 167.327 232.534 168.062C230.563 168.333 228.962 169.759 228.875 171.749C228.728 175.264 228.584 179.049 228.868 183.253C229 185.119 230.433 186.63 232.293 186.833C236.276 187.268 242.811 187.745 247.276 187.418" stroke="#21313E" stroke-width="1.02171" stroke-miterlimit="10" stroke-linecap="round" stroke-linejoin="round"/>
<path d="M228.884 171.749C228.884 171.749 236.278 176.882 228.877 183.253" stroke="#21313E" stroke-width="1.02171" stroke-miterlimit="10" stroke-linecap="round" stroke-linejoin="round"/>
<path d="M199.677 168.127C199.677 168.127 196.005 180.823 202.206 190.035" stroke="#21313E" stroke-width="1.02171" stroke-miterlimit="10" stroke-linecap="round" stroke-linejoin="round"/>
<path d="M206.566 168.061C206.566 168.061 207.837 173.178 207.72 179.815" stroke="#21313E" stroke-width="1.02171" stroke-miterlimit="10" stroke-linecap="round" stroke-linejoin="round"/>
</g>
<defs>
<radialGradient id="paint0_radial_3921_62699" cx="0" cy="0" r="1" gradientUnits="userSpaceOnUse" gradientTransform="translate(280.076 96.5701) rotate(71.3039) scale(256.998 286.91)">
<stop offset="0.00197249" stop-color="#26B3AD"/>
<stop offset="0.1137" stop-color="#23AAA4"/>
<stop offset="0.3393" stop-color="#1E9E98"/>
<stop offset="0.5788" stop-color="#1B9792"/>
<stop offset="0.8532" stop-color="#1A9590"/>
</radialGradient>
<radialGradient id="paint1_radial_3921_62699" cx="0" cy="0" r="1" gradientUnits="userSpaceOnUse" gradientTransform="translate(262.31 166.025) rotate(71.3039) scale(111.315 111.315)">
<stop offset="0.0681" stop-color="#26B3AD"/>
<stop offset="0.1804" stop-color="#25AFAA"/>
<stop offset="0.3077" stop-color="#21A5A0"/>
<stop offset="0.4417" stop-color="#1A9691"/>
<stop offset="0.4563" stop-color="#1A9590"/>
</radialGradient>
<radialGradient id="paint2_radial_3921_62699" cx="0" cy="0" r="1" gradientUnits="userSpaceOnUse" gradientTransform="translate(262.309 166.025) rotate(71.3039) scale(111.315 111.315)">
<stop offset="0.0681" stop-color="#26B3AD"/>
<stop offset="0.1804" stop-color="#25AFAA"/>
<stop offset="0.3077" stop-color="#21A5A0"/>
<stop offset="0.4417" stop-color="#1A9691"/>
<stop offset="0.4563" stop-color="#1A9590"/>
</radialGradient>
<radialGradient id="paint3_radial_3921_62699" cx="0" cy="0" r="1" gradientUnits="userSpaceOnUse" gradientTransform="translate(261.727 162.932) rotate(71.3039) scale(111.315 111.315)">
<stop offset="0.0681" stop-color="#26B3AD"/>
<stop offset="0.1804" stop-color="#25AFAA"/>
<stop offset="0.3077" stop-color="#21A5A0"/>
<stop offset="0.4417" stop-color="#1A9691"/>
<stop offset="0.4563" stop-color="#1A9590"/>
</radialGradient>
<clipPath id="clip0_3921_62699">
<rect width="314.687" height="388.199" fill="white" transform="translate(388.697 0.638184) rotate(89.4643)"/>
</clipPath>
</defs>
</svg>
