<svg width="155" height="60" viewBox="0 0 155 60" fill="none" xmlns="http://www.w3.org/2000/svg">
<g clip-path="url(#clip0_7563_38059)">
<rect width="155" height="60" fill="white" fill-opacity="0.01"/>
<g clip-path="url(#clip1_7563_38059)">
<g clip-path="url(#clip2_7563_38059)">
<path fill-rule="evenodd" clip-rule="evenodd" d="M139.712 10.8C142.028 10.8 143.912 12.684 143.912 15V45C143.912 47.316 142.028 49.2 139.712 49.2H14.7119C12.3959 49.2 10.5119 47.316 10.5119 45V15C10.5119 12.684 12.3959 10.8 14.7119 10.8H139.712ZM139.712 10H14.7119C11.9619 10 9.71191 12.25 9.71191 15V45C9.71191 47.75 11.9619 50 14.7119 50H139.712C142.462 50 144.712 47.75 144.712 45V15C144.712 12.25 142.462 10 139.712 10Z" fill="#A6A6A6"/>
</g>
</g>
<path fill-rule="evenodd" clip-rule="evenodd" d="M47.8479 31.7519C45.4959 31.7519 43.5789 33.5399 43.5789 36.0049C43.5789 38.4529 45.4959 40.2579 47.8479 40.2579C50.1999 40.2579 52.1169 38.4529 52.1169 36.0049C52.1169 33.5399 50.1999 31.7519 47.8479 31.7519ZM47.8479 38.5819C46.5589 38.5819 45.4469 37.5189 45.4469 36.0049C45.4469 34.4739 46.5589 33.4269 47.8479 33.4269C49.1369 33.4269 50.2479 34.4739 50.2479 36.0049C50.2479 37.5189 49.1369 38.5819 47.8479 38.5819ZM38.5349 31.7519C36.1819 31.7519 34.2649 33.5399 34.2649 36.0049C34.2649 38.4529 36.1819 40.2579 38.5349 40.2579C40.8869 40.2579 42.8039 38.4529 42.8039 36.0049C42.8039 33.5399 40.8869 31.7519 38.5349 31.7519ZM38.5349 38.5819C37.2459 38.5819 36.1339 37.5189 36.1339 36.0049C36.1339 34.4739 37.2459 33.4269 38.5349 33.4269C39.8229 33.4269 40.9349 34.4739 40.9349 36.0049C40.9349 37.5189 39.8229 38.5819 38.5349 38.5819ZM27.4559 33.0569V34.8609H31.7729C31.6439 35.8759 31.3059 36.6169 30.7909 37.1319C30.1619 37.7609 29.1789 38.4529 27.4559 38.4529C24.7979 38.4529 22.7189 36.3109 22.7189 33.6529C22.7189 30.9939 24.7979 28.8519 27.4559 28.8519C28.8899 28.8519 29.9369 29.4159 30.7099 30.1409L31.9829 28.8679C30.9029 27.8369 29.4699 27.0469 27.4559 27.0469C23.8149 27.0469 20.7539 30.0119 20.7539 33.6529C20.7539 37.2939 23.8149 40.2579 27.4559 40.2579C29.4209 40.2579 30.9029 39.6139 32.0629 38.4049C33.2549 37.2129 33.6259 35.5379 33.6259 34.1839C33.6259 33.7649 33.5939 33.3789 33.5289 33.0569H27.4559ZM72.7639 34.4579C72.4099 33.5079 71.3299 31.7519 69.1229 31.7519C66.9319 31.7519 65.1119 33.4749 65.1119 36.0049C65.1119 38.3889 66.9159 40.2579 69.3329 40.2579C71.2819 40.2579 72.4099 39.0659 72.8769 38.3729L71.4269 37.4059C70.9429 38.1149 70.2829 38.5819 69.3329 38.5819C68.3819 38.5819 67.7049 38.1469 67.2699 37.2939L72.9569 34.9409L72.7639 34.4579ZM66.9639 35.8759C66.9159 34.2329 68.2369 33.3949 69.1869 33.3949C69.9289 33.3949 70.5569 33.7649 70.7659 34.2969L66.9639 35.8759ZM62.3409 39.9999H64.2089V27.4979H62.3409V39.9999ZM59.2789 32.7019H59.2149C58.7959 32.2029 57.9909 31.7519 56.9759 31.7519C54.8489 31.7519 52.8999 33.6199 52.8999 36.0209C52.8999 38.4049 54.8489 40.2579 56.9759 40.2579C57.9909 40.2579 58.7959 39.8069 59.2149 39.2909H59.2789V39.9039C59.2789 41.5309 58.4099 42.4009 57.0079 42.4009C55.8639 42.4009 55.1549 41.5789 54.8649 40.8859L53.2379 41.5629C53.7049 42.6909 54.9459 44.0759 57.0079 44.0759C59.1989 44.0759 61.0519 42.7869 61.0519 39.6459V32.0089H59.2789L59.2789 32.7019ZM57.1369 38.5819C55.8479 38.5819 54.7689 37.5029 54.7689 36.0209C54.7689 34.5229 55.8479 33.4269 57.1369 33.4269C58.4099 33.4269 59.4079 34.5229 59.4079 36.0209C59.4079 37.5029 58.4099 38.5819 57.1369 38.5819ZM81.5179 27.4989H77.0469V39.9999H78.9119V35.2639H81.5179C83.5859 35.2639 85.6189 33.7659 85.6189 31.3809C85.6189 28.9959 83.5859 27.4989 81.5179 27.4989ZM81.5659 33.5239H78.9119V29.2389H81.5659C82.9609 29.2389 83.7529 30.3939 83.7529 31.3809C83.7529 32.3499 82.9609 33.5239 81.5659 33.5239ZM93.0979 31.7289C91.7469 31.7289 90.3469 32.3239 89.7679 33.6419L91.4249 34.3339C91.7789 33.6419 92.4379 33.4169 93.1299 33.4169C94.0949 33.4169 95.0759 33.9959 95.0919 35.0259V35.1539C94.7539 34.9609 94.0309 34.6719 93.1459 34.6719C91.3609 34.6719 89.5429 35.6529 89.5429 37.4859C89.5429 39.1589 91.0069 40.2369 92.6469 40.2369C93.9019 40.2369 94.5929 39.6739 95.0279 39.0139H95.0919V39.9789H96.8929V35.1859C96.8929 32.9669 95.2369 31.7289 93.0979 31.7289ZM92.8729 38.5799C92.2609 38.5799 91.4089 38.2749 91.4089 37.5189C91.4089 36.5539 92.4699 36.1839 93.3869 36.1839C94.2069 36.1839 94.5929 36.3609 95.0919 36.6019C94.9469 37.7599 93.9499 38.5799 92.8729 38.5799ZM103.455 32.0019L101.316 37.4219H101.252L99.0319 32.0019H97.0219L100.351 39.5769L98.4529 43.7909H100.399L105.53 32.0019H103.455ZM86.6479 39.9999H88.5139V27.4989H86.6479V39.9999Z" fill="#414042"/>
<g clip-path="url(#clip3_7563_38059)">
<path d="M113.147 17.5378C112.857 17.8458 112.685 18.3238 112.685 18.9428V41.0588C112.685 41.6788 112.857 42.1558 113.147 42.4638L113.221 42.5358L125.61 30.1468V30.0008V29.8548L113.221 17.4648L113.147 17.5378Z" fill="url(#paint0_linear_7563_38059)"/>
<path d="M129.74 34.2786L125.61 30.1466V30.0006V29.8546L129.741 25.7236L129.834 25.7776L134.727 28.5576C136.124 29.3516 136.124 30.6506 134.727 31.4446L129.834 34.2246L129.74 34.2786Z" fill="url(#paint1_linear_7563_38059)"/>
<path d="M129.834 34.225L125.61 30.001L113.147 42.464C113.608 42.952 114.369 43.012 115.226 42.525L129.834 34.225Z" fill="url(#paint2_linear_7563_38059)"/>
<path d="M129.834 25.7762L115.226 17.4762C114.369 16.9892 113.608 17.0492 113.147 17.5372L125.61 30.0002L129.834 25.7762Z" fill="url(#paint3_linear_7563_38059)"/>
<g clip-path="url(#clip4_7563_38059)">
<path opacity="0.2" d="M129.741 34.1318L115.226 42.3788C114.414 42.8408 113.688 42.8098 113.222 42.3898L113.147 42.4638L113.221 42.5368L113.222 42.5358C113.688 42.9558 114.414 42.9868 115.226 42.5248L129.834 34.2248L129.741 34.1318Z" fill="black"/>
<path opacity="0.12" d="M113.147 42.3181C112.857 42.0101 112.685 41.5331 112.685 40.9131V41.0601C112.685 41.6791 112.857 42.1571 113.147 42.4641L113.222 42.3901L113.147 42.3181Z" fill="black"/>
</g>
<path opacity="0.12" d="M134.727 31.299L129.741 34.132L129.834 34.225L134.727 31.445C135.425 31.048 135.775 30.525 135.775 30.001C135.716 30.475 135.361 30.939 134.727 31.299Z" fill="black"/>
<path opacity="0.25" d="M115.226 17.6221L134.727 28.7021C135.361 29.0621 135.716 29.5261 135.775 30.0001C135.776 29.4771 135.426 28.9531 134.727 28.5561L115.226 17.4761C113.828 16.6821 112.685 17.3421 112.685 18.9421V19.0891C112.685 17.4881 113.828 16.8281 115.226 17.6221Z" fill="#414042"/>
</g>
</g>
<defs>
<linearGradient id="paint0_linear_7563_38059" x1="128.838" y1="167.013" x2="108.997" y2="161.74" gradientUnits="userSpaceOnUse">
<stop stop-color="#00A0FF"/>
<stop offset="0.00657445" stop-color="#00A1FF"/>
<stop offset="0.2601" stop-color="#00BEFF"/>
<stop offset="0.5122" stop-color="#00D2FF"/>
<stop offset="0.7604" stop-color="#00DFFF"/>
<stop offset="1" stop-color="#00E3FF"/>
</linearGradient>
<linearGradient id="paint1_linear_7563_38059" x1="136.546" y1="161.816" x2="112.349" y2="161.816" gradientUnits="userSpaceOnUse">
<stop stop-color="#FFE000"/>
<stop offset="0.4087" stop-color="#FFBD00"/>
<stop offset="0.7754" stop-color="#FFA500"/>
<stop offset="1" stop-color="#FF9C00"/>
</linearGradient>
<linearGradient id="paint2_linear_7563_38059" x1="142.304" y1="160.934" x2="126.376" y2="134.119" gradientUnits="userSpaceOnUse">
<stop stop-color="#FF3A44"/>
<stop offset="1" stop-color="#C31162"/>
</linearGradient>
<linearGradient id="paint3_linear_7563_38059" x1="116.602" y1="195.739" x2="123.715" y2="183.765" gradientUnits="userSpaceOnUse">
<stop stop-color="#32A071"/>
<stop offset="0.0685" stop-color="#2DA771"/>
<stop offset="0.4762" stop-color="#15CF74"/>
<stop offset="0.8009" stop-color="#06E775"/>
<stop offset="1" stop-color="#00F076"/>
</linearGradient>
<clipPath id="clip0_7563_38059">
<rect width="155" height="60" fill="white"/>
</clipPath>
<clipPath id="clip1_7563_38059">
<rect width="135" height="40" fill="white" transform="translate(9.71191 10)"/>
</clipPath>
<clipPath id="clip2_7563_38059">
<rect width="135" height="40" fill="white" transform="translate(9.71191 10)"/>
</clipPath>
<clipPath id="clip3_7563_38059">
<rect width="23.09" height="25.7215" fill="white" transform="translate(112.685 17.1396)"/>
</clipPath>
<clipPath id="clip4_7563_38059">
<rect width="17.149" height="8.72929" fill="white" transform="translate(112.685 34.1318)"/>
</clipPath>
</defs>
</svg>
