<svg width="136" height="41" viewBox="0 0 136 41" fill="none" xmlns="http://www.w3.org/2000/svg">
<g clip-path="url(#clip0_7636_137630)">
<rect width="1440" height="7869" transform="translate(-103 -7641)" fill="white"/>
<rect x="-103" y="-80" width="1440" height="299" fill="#F6F8F9"/>
<g clip-path="url(#clip1_7636_137630)">
<g clip-path="url(#clip2_7636_137630)">
<rect x="-9" y="-9" width="155" height="60" fill="white" fill-opacity="0.01"/>
<g clip-path="url(#clip3_7636_137630)">
<g clip-path="url(#clip4_7636_137630)">
<path fill-rule="evenodd" clip-rule="evenodd" d="M130.711 1.8C133.027 1.8 134.911 3.684 134.911 6V36C134.911 38.316 133.027 40.2 130.711 40.2H5.71094C3.39494 40.2 1.51094 38.316 1.51094 36V6C1.51094 3.684 3.39494 1.8 5.71094 1.8H130.711ZM130.711 1H5.71094C2.96094 1 0.710938 3.25 0.710938 6V36C0.710938 38.75 2.96094 41 5.71094 41H130.711C133.461 41 135.711 38.75 135.711 36V6C135.711 3.25 133.461 1 130.711 1Z" fill="#A6A6A6"/>
</g>
</g>
<path fill-rule="evenodd" clip-rule="evenodd" d="M38.8518 22.7519C36.4998 22.7519 34.5828 24.5399 34.5828 27.0049C34.5828 29.4529 36.4998 31.2579 38.8518 31.2579C41.2038 31.2579 43.1208 29.4529 43.1208 27.0049C43.1208 24.5399 41.2038 22.7519 38.8518 22.7519ZM38.8518 29.5819C37.5628 29.5819 36.4508 28.5189 36.4508 27.0049C36.4508 25.4739 37.5628 24.4269 38.8518 24.4269C40.1408 24.4269 41.2518 25.4739 41.2518 27.0049C41.2518 28.5189 40.1408 29.5819 38.8518 29.5819ZM29.5388 22.7519C27.1858 22.7519 25.2688 24.5399 25.2688 27.0049C25.2688 29.4529 27.1858 31.2579 29.5388 31.2579C31.8908 31.2579 33.8078 29.4529 33.8078 27.0049C33.8078 24.5399 31.8908 22.7519 29.5388 22.7519ZM29.5388 29.5819C28.2498 29.5819 27.1378 28.5189 27.1378 27.0049C27.1378 25.4739 28.2498 24.4269 29.5388 24.4269C30.8268 24.4269 31.9388 25.4739 31.9388 27.0049C31.9388 28.5189 30.8268 29.5819 29.5388 29.5819ZM18.4598 24.0569V25.8609H22.7768C22.6478 26.8759 22.3098 27.6169 21.7948 28.1319C21.1658 28.7609 20.1828 29.4529 18.4598 29.4529C15.8018 29.4529 13.7228 27.3109 13.7228 24.6529C13.7228 21.9939 15.8018 19.8519 18.4598 19.8519C19.8938 19.8519 20.9408 20.4159 21.7138 21.1409L22.9868 19.8679C21.9068 18.8369 20.4738 18.0469 18.4598 18.0469C14.8188 18.0469 11.7578 21.0119 11.7578 24.6529C11.7578 28.2939 14.8188 31.2579 18.4598 31.2579C20.4248 31.2579 21.9068 30.6139 23.0668 29.4049C24.2588 28.2129 24.6298 26.5379 24.6298 25.1839C24.6298 24.7649 24.5978 24.3789 24.5328 24.0569H18.4598ZM63.7678 25.4579C63.4138 24.5079 62.3338 22.7519 60.1268 22.7519C57.9358 22.7519 56.1158 24.4749 56.1158 27.0049C56.1158 29.3889 57.9198 31.2579 60.3368 31.2579C62.2858 31.2579 63.4138 30.0659 63.8808 29.3729L62.4308 28.4059C61.9468 29.1149 61.2868 29.5819 60.3368 29.5819C59.3858 29.5819 58.7088 29.1469 58.2738 28.2939L63.9608 25.9409L63.7678 25.4579ZM57.9678 26.8759C57.9198 25.2329 59.2408 24.3949 60.1908 24.3949C60.9328 24.3949 61.5608 24.7649 61.7698 25.2969L57.9678 26.8759ZM53.3448 30.9999H55.2128V18.4979H53.3448V30.9999ZM50.2828 23.7019H50.2188C49.7998 23.2029 48.9948 22.7519 47.9798 22.7519C45.8528 22.7519 43.9038 24.6199 43.9038 27.0209C43.9038 29.4049 45.8528 31.2579 47.9798 31.2579C48.9948 31.2579 49.7998 30.8069 50.2188 30.2909H50.2828V30.9039C50.2828 32.5309 49.4138 33.4009 48.0118 33.4009C46.8678 33.4009 46.1588 32.5789 45.8688 31.8859L44.2418 32.5629C44.7088 33.6909 45.9498 35.0759 48.0118 35.0759C50.2028 35.0759 52.0558 33.7869 52.0558 30.6459V23.0089H50.2828L50.2828 23.7019ZM48.1408 29.5819C46.8518 29.5819 45.7728 28.5029 45.7728 27.0209C45.7728 25.5229 46.8518 24.4269 48.1408 24.4269C49.4138 24.4269 50.4118 25.5229 50.4118 27.0209C50.4118 28.5029 49.4138 29.5819 48.1408 29.5819ZM72.5218 18.4989H68.0508V30.9999H69.9158V26.2639H72.5218C74.5898 26.2639 76.6228 24.7659 76.6228 22.3809C76.6228 19.9959 74.5898 18.4989 72.5218 18.4989ZM72.5698 24.5239H69.9158V20.2389H72.5698C73.9648 20.2389 74.7568 21.3939 74.7568 22.3809C74.7568 23.3499 73.9648 24.5239 72.5698 24.5239ZM84.1018 22.7289C82.7508 22.7289 81.3508 23.3239 80.7718 24.6419L82.4288 25.3339C82.7828 24.6419 83.4418 24.4169 84.1338 24.4169C85.0988 24.4169 86.0798 24.9959 86.0958 26.0259V26.1539C85.7578 25.9609 85.0348 25.6719 84.1498 25.6719C82.3648 25.6719 80.5468 26.6529 80.5468 28.4859C80.5468 30.1589 82.0108 31.2369 83.6508 31.2369C84.9058 31.2369 85.5968 30.6739 86.0318 30.0139H86.0958V30.9789H87.8968V26.1859C87.8968 23.9669 86.2408 22.7289 84.1018 22.7289ZM83.8768 29.5799C83.2648 29.5799 82.4128 29.2749 82.4128 28.5189C82.4128 27.5539 83.4738 27.1839 84.3908 27.1839C85.2108 27.1839 85.5968 27.3609 86.0958 27.6019C85.9508 28.7599 84.9538 29.5799 83.8768 29.5799ZM94.4588 23.0019L92.3198 28.4219H92.2558L90.0358 23.0019H88.0258L91.3548 30.5769L89.4568 34.7909H91.4028L96.5338 23.0019H94.4588ZM77.6518 30.9999H79.5178V18.4989H77.6518V30.9999Z" fill="#414042"/>
<g clip-path="url(#clip5_7636_137630)">
<path d="M104.15 8.53784C103.86 8.84584 103.688 9.32384 103.688 9.94284V32.0588C103.688 32.6788 103.86 33.1558 104.15 33.4638L104.224 33.5358L116.613 21.1468V21.0008V20.8548L104.224 8.46484L104.15 8.53784Z" fill="url(#paint0_linear_7636_137630)"/>
<path d="M120.739 25.2796L116.609 21.1476V21.0016V20.8556L120.74 16.7246L120.833 16.7786L125.726 19.5586C127.123 20.3526 127.123 21.6516 125.726 22.4456L120.833 25.2256L120.739 25.2796Z" fill="url(#paint1_linear_7636_137630)"/>
<path d="M120.835 25.226L116.611 21.002L104.148 33.465C104.609 33.953 105.37 34.013 106.227 33.526L120.835 25.226Z" fill="url(#paint2_linear_7636_137630)"/>
<path d="M120.835 16.7772L106.227 8.47715C105.37 7.99015 104.609 8.05015 104.148 8.53815L116.611 21.0012L120.835 16.7772Z" fill="url(#paint3_linear_7636_137630)"/>
<g clip-path="url(#clip6_7636_137630)">
<path opacity="0.2" d="M120.742 25.1328L106.227 33.3798C105.415 33.8418 104.689 33.8108 104.223 33.3908L104.148 33.4648L104.222 33.5378L104.223 33.5368C104.689 33.9568 105.415 33.9878 106.227 33.5258L120.835 25.2258L120.742 25.1328Z" fill="black"/>
<path opacity="0.12" d="M104.15 33.3191C103.86 33.0111 103.688 32.5341 103.688 31.9141V32.0611C103.688 32.6801 103.86 33.1581 104.15 33.4651L104.225 33.3911L104.15 33.3191Z" fill="black"/>
</g>
<path opacity="0.12" d="M125.728 22.3L120.742 25.133L120.835 25.226L125.728 22.446C126.426 22.049 126.776 21.526 126.776 21.002C126.717 21.476 126.362 21.94 125.728 22.3Z" fill="black"/>
<path opacity="0.25" d="M106.228 8.62312L125.729 19.7031C126.364 20.0631 126.719 20.5271 126.778 21.0011C126.778 20.4781 126.428 19.9541 125.729 19.5571L106.228 8.47712C104.83 7.68312 103.688 8.34312 103.688 9.94312V10.0901C103.688 8.48912 104.83 7.82912 106.228 8.62312Z" fill="#414042"/>
</g>
</g>
<g clip-path="url(#clip7_7636_137630)">
<path fill-rule="evenodd" clip-rule="evenodd" d="M41.1414 15.5033C40.5144 15.5033 40.0254 15.3243 39.6744 14.9633C39.3234 14.6043 39.1484 14.0943 39.1484 13.4363C39.1484 13.2243 39.1614 13.0253 39.1894 12.8363C39.2154 12.6493 39.2744 12.3743 39.3624 12.0123L39.7664 12.1093C39.6834 12.4313 39.6424 12.6923 39.6424 12.8933C39.6424 13.4303 39.7774 13.8483 40.0454 14.1473C40.3144 14.4463 40.6884 14.5963 41.1674 14.5963C41.7124 14.5963 42.2544 14.4633 42.7954 14.1983C43.3364 13.9333 43.6974 13.6073 43.8804 13.2213C43.4004 12.1713 43.1604 11.4723 43.1604 11.1213C43.1604 10.9313 43.2144 10.7593 43.3214 10.6053C43.4294 10.4513 43.6154 10.2953 43.8804 10.1383C43.9124 10.3963 43.9964 10.8703 44.1324 11.5613L44.1384 11.6043C44.3814 11.7253 44.6484 11.7873 44.9394 11.7873C44.9994 11.7873 45.0294 11.8173 45.0294 11.8783V12.5333C45.0294 12.5943 44.9994 12.6253 44.9394 12.6253C44.6914 12.6253 44.4694 12.5803 44.2734 12.4903L44.2884 12.8073C44.2884 13.2583 44.1454 13.6903 43.8594 14.1023C43.5724 14.5133 43.1804 14.8503 42.6834 15.1113C42.1854 15.3723 41.6714 15.5033 41.1414 15.5033ZM42.0174 9.4933C41.8454 9.7403 41.6094 10.0093 41.3084 10.2993C40.9824 10.0413 40.7184 9.8033 40.5184 9.5843C40.8944 9.2083 41.1494 8.9403 41.2864 8.7793C41.5194 9.0333 41.7624 9.2713 42.0174 9.4933Z" fill="#414042"/>
<path d="M39.6744 14.9633L39.7461 14.8936L39.7459 14.8934L39.6744 14.9633ZM39.1894 12.8363L39.2884 12.851L39.2885 12.8501L39.1894 12.8363ZM39.3624 12.0123L39.3858 11.9151L39.2888 11.8918L39.2653 11.9887L39.3624 12.0123ZM39.7664 12.1093L39.8633 12.1343L39.8887 12.0358L39.7898 12.0121L39.7664 12.1093ZM40.0454 14.1473L39.971 14.214L39.9711 14.2142L40.0454 14.1473ZM43.8804 13.2213L43.9708 13.2641L43.9907 13.2221L43.9714 13.1797L43.8804 13.2213ZM43.3214 10.6053L43.2396 10.5479L43.2393 10.5482L43.3214 10.6053ZM43.8804 10.1383L43.9797 10.126L43.9609 9.97441L43.8295 10.0523L43.8804 10.1383ZM44.1324 11.5613L44.2316 11.5475L44.2306 11.542L44.1324 11.5613ZM44.1384 11.6043L44.0394 11.6181L44.0467 11.6703L44.0939 11.6938L44.1384 11.6043ZM44.2734 12.4903L44.3152 12.3994L44.1658 12.3308L44.1735 12.495L44.2734 12.4903ZM44.2884 12.8073H44.3885L44.3883 12.8026L44.2884 12.8073ZM43.8594 14.1023L43.9414 14.1595L43.9416 14.1593L43.8594 14.1023ZM42.6834 15.1113L42.7299 15.1999L42.7299 15.1998L42.6834 15.1113ZM42.0174 9.4933L42.0995 9.55044L42.1508 9.4768L42.0831 9.41787L42.0174 9.4933ZM41.3084 10.2993L41.2464 10.3777L41.3149 10.4319L41.3778 10.3713L41.3084 10.2993ZM40.5184 9.5843L40.4477 9.51359L40.3801 9.58116L40.4446 9.65173L40.5184 9.5843ZM41.2864 8.7793L41.3601 8.7117L41.2836 8.6283L41.2103 8.71449L41.2864 8.7793ZM41.1414 15.4033C40.5342 15.4033 40.0738 15.2306 39.7461 14.8936L39.6027 15.033C39.9771 15.418 40.4947 15.6033 41.1414 15.6033V15.4033ZM39.7459 14.8934C39.4184 14.5584 39.2484 14.0767 39.2484 13.4363H39.0484C39.0484 14.1119 39.2285 14.6502 39.6029 15.0332L39.7459 14.8934ZM39.2484 13.4363C39.2484 13.2284 39.2612 13.0343 39.2884 12.851L39.0905 12.8216C39.0617 13.0163 39.0484 13.2202 39.0484 13.4363H39.2484ZM39.2885 12.8501C39.3137 12.6685 39.3717 12.3977 39.4596 12.0359L39.2653 11.9887C39.1772 12.3509 39.1171 12.6301 39.0904 12.8225L39.2885 12.8501ZM39.3391 12.1095L39.7431 12.2065L39.7898 12.0121L39.3858 11.9151L39.3391 12.1095ZM39.6696 12.0843C39.5856 12.41 39.5424 12.6803 39.5424 12.8933H39.7424C39.7424 12.7043 39.7812 12.4525 39.8633 12.1343L39.6696 12.0843ZM39.5424 12.8933C39.5424 13.4467 39.6817 13.8914 39.971 14.214L40.1199 14.0806C39.8731 13.8052 39.7424 13.4139 39.7424 12.8933H39.5424ZM39.9711 14.2142C40.2626 14.5382 40.6659 14.6963 41.1674 14.6963V14.4963C40.711 14.4963 40.3662 14.3544 40.1198 14.0804L39.9711 14.2142ZM41.1674 14.6963C41.7293 14.6963 42.2863 14.5591 42.8394 14.2881L42.7514 14.1085C42.2226 14.3675 41.6956 14.4963 41.1674 14.4963V14.6963ZM42.8394 14.2881C43.3927 14.0171 43.7749 13.6774 43.9708 13.2641L43.7901 13.1785C43.62 13.5372 43.2801 13.8495 42.7514 14.1085L42.8394 14.2881ZM43.9714 13.1797C43.7321 12.6562 43.5535 12.2223 43.435 11.8767C43.3155 11.5283 43.2604 11.2792 43.2604 11.1213H43.0604C43.0604 11.3144 43.1253 11.5902 43.2458 11.9416C43.3673 12.2958 43.5488 12.7364 43.7895 13.2629L43.9714 13.1797ZM43.2604 11.1213C43.2604 10.9516 43.3083 10.7995 43.4036 10.6624L43.2393 10.5482C43.1206 10.7191 43.0604 10.911 43.0604 11.1213H43.2604ZM43.4033 10.6627C43.4997 10.5253 43.672 10.378 43.9314 10.2243L43.8295 10.0523C43.5589 10.2126 43.3592 10.3773 43.2396 10.5479L43.4033 10.6627ZM43.7812 10.1506C43.8137 10.4126 43.8984 10.8899 44.0343 11.5806L44.2306 11.542C44.0945 10.8507 44.0112 10.38 43.9797 10.126L43.7812 10.1506ZM44.0334 11.5751L44.0394 11.6181L44.2375 11.5905L44.2315 11.5475L44.0334 11.5751ZM44.0939 11.6938C44.3514 11.822 44.6337 11.8873 44.9394 11.8873V11.6873C44.6631 11.6873 44.4115 11.6286 44.183 11.5148L44.0939 11.6938ZM44.9394 11.8873C44.9464 11.8873 44.9484 11.8882 44.9471 11.8878C44.9453 11.8872 44.9407 11.8851 44.9359 11.8803C44.9312 11.8756 44.9293 11.8711 44.9288 11.8696C44.9285 11.8686 44.9294 11.8709 44.9294 11.8783H45.1294C45.1294 11.8328 45.1182 11.7801 45.0779 11.7395C45.0375 11.6987 44.9848 11.6873 44.9394 11.6873V11.8873ZM44.9294 11.8783V12.5333H45.1294V11.8783H44.9294ZM44.9294 12.5333C44.9294 12.5406 44.9285 12.5431 44.9287 12.5424C44.9291 12.5411 44.9309 12.5369 44.9353 12.5323C44.9399 12.5277 44.9444 12.5256 44.9464 12.5249C44.9478 12.5244 44.9461 12.5253 44.9394 12.5253V12.7253C44.9857 12.7253 45.0383 12.7132 45.0785 12.672C45.1182 12.6313 45.1294 12.5788 45.1294 12.5333H44.9294ZM44.9394 12.5253C44.7037 12.5253 44.4962 12.4826 44.3152 12.3994L44.2317 12.5812C44.4426 12.678 44.6792 12.7253 44.9394 12.7253V12.5253ZM44.1735 12.495L44.1885 12.812L44.3883 12.8026L44.3733 12.4856L44.1735 12.495ZM44.1884 12.8073C44.1884 13.2357 44.053 13.6481 43.7773 14.0453L43.9416 14.1593C44.2379 13.7325 44.3884 13.2809 44.3884 12.8073H44.1884ZM43.7774 14.045C43.5006 14.4415 43.1214 14.7683 42.6369 15.0228L42.7299 15.1998C43.2395 14.9322 43.6443 14.5851 43.9414 14.1595L43.7774 14.045ZM42.637 15.0227C42.1524 15.2767 41.6542 15.4033 41.1414 15.4033V15.6033C41.6887 15.6033 42.2185 15.4679 42.7299 15.1999L42.637 15.0227ZM41.9354 9.43615C41.7682 9.67627 41.5369 9.94031 41.2391 10.2273L41.3778 10.3713C41.682 10.0783 41.9227 9.80432 42.0995 9.55044L41.9354 9.43615ZM41.3705 10.2209C41.047 9.96486 40.7874 9.73055 40.5923 9.51686L40.4446 9.65173C40.6494 9.87604 40.9179 10.1177 41.2464 10.3777L41.3705 10.2209ZM40.5891 9.65501C40.9652 9.27897 41.2227 9.00847 41.3626 8.8441L41.2103 8.71449C41.0761 8.87213 40.8237 9.13763 40.4477 9.51359L40.5891 9.65501ZM41.2127 8.8469C41.4481 9.1035 41.6938 9.34413 41.9518 9.56872L42.0831 9.41787C41.8311 9.19847 41.5907 8.9631 41.3601 8.7117L41.2127 8.8469Z" fill="#414042"/>
<path fill-rule="evenodd" clip-rule="evenodd" d="M44.9894 12.6257C44.9294 12.6257 44.8984 12.5947 44.8984 12.5337V11.8787C44.8984 11.8177 44.9294 11.7877 44.9894 11.7877C45.2694 11.7877 45.5044 11.7197 45.6954 11.5857C45.8874 11.4517 46.0534 11.2467 46.1924 10.9707L46.4134 10.5307C46.6954 9.92872 46.9724 9.50472 47.2424 9.25772C47.5134 9.01072 47.8104 8.88672 48.1324 8.88672C48.3474 8.88672 48.5614 9.01772 48.7734 9.27872C48.9864 9.54072 49.1584 9.87672 49.2894 10.2887C49.4204 10.7007 49.4854 11.0977 49.4854 11.4807C49.4854 11.7067 49.4434 11.9117 49.3614 12.0957C49.2794 12.2807 49.1344 12.4567 48.9274 12.6257C48.4854 12.6257 48.0184 12.5637 47.5224 12.4427C47.0264 12.3207 46.6114 12.1637 46.2784 11.9697C46.1074 12.2027 45.9194 12.3707 45.7144 12.4717C45.5114 12.5747 45.2694 12.6257 44.9894 12.6257H44.9894ZM48.6854 11.7877C48.6704 11.3327 48.5844 10.8977 48.4274 10.4817C48.2704 10.0667 48.1134 9.85872 47.9604 9.85872C47.8194 9.85872 47.6904 9.89972 47.5674 9.98272C47.4454 10.0647 47.3244 10.1917 47.2024 10.3637C47.0804 10.5357 46.9164 10.8257 46.7084 11.2337C47.2244 11.5167 47.8834 11.7017 48.6854 11.7877H48.6854Z" fill="#414042"/>
<path d="M45.6954 11.5857L45.6382 11.5037L45.638 11.5039L45.6954 11.5857ZM46.1924 10.9707L46.2817 11.0157L46.2818 11.0156L46.1924 10.9707ZM46.4134 10.5307L46.5028 10.5756L46.504 10.5731L46.4134 10.5307ZM47.2424 9.25772L47.1751 9.18381L47.1749 9.18394L47.2424 9.25772ZM48.7734 9.27872L48.6958 9.34177L48.6958 9.3418L48.7734 9.27872ZM49.3614 12.0957L49.2701 12.055L49.27 12.0552L49.3614 12.0957ZM48.9274 12.6257V12.7257H48.9631L48.9907 12.7032L48.9274 12.6257ZM47.5224 12.4427L47.4985 12.5398L47.4987 12.5399L47.5224 12.4427ZM46.2784 11.9697L46.3288 11.8833L46.251 11.838L46.1978 11.9106L46.2784 11.9697ZM45.7144 12.4717L45.6702 12.382L45.6692 12.3825L45.7144 12.4717ZM48.6854 11.7877V11.8877H48.7888L48.7854 11.7844L48.6854 11.7877ZM48.4274 10.4817L48.521 10.4464L48.521 10.4463L48.4274 10.4817ZM47.5674 9.98272L47.6232 10.0657L47.6234 10.0656L47.5674 9.98272ZM46.7084 11.2337L46.6193 11.1883L46.5753 11.2747L46.6603 11.3214L46.7084 11.2337ZM48.6854 11.7877L48.6747 11.8877H48.6854V11.7877ZM44.9894 12.5257C44.9828 12.5257 44.9809 12.5248 44.9821 12.5253C44.9838 12.5258 44.9881 12.5278 44.9924 12.5322C44.9968 12.5366 44.9986 12.5407 44.999 12.5421C44.9994 12.543 44.9984 12.5408 44.9984 12.5337H44.7984C44.7984 12.58 44.8103 12.6326 44.8504 12.673C44.8907 12.7136 44.9432 12.7257 44.9894 12.7257V12.5257ZM44.9984 12.5337V11.8787H44.7984V12.5337H44.9984ZM44.9984 11.8787C44.9984 11.8717 44.9994 11.8696 44.999 11.8707C44.9984 11.8724 44.9964 11.8768 44.9919 11.8813C44.9873 11.8859 44.9829 11.8878 44.9814 11.8883C44.9803 11.8886 44.9825 11.8877 44.9894 11.8877V11.6877C44.944 11.6877 44.8916 11.6991 44.851 11.7393C44.8103 11.7797 44.7984 11.8324 44.7984 11.8787H44.9984ZM44.9894 11.8877C45.2861 11.8877 45.5421 11.8154 45.7529 11.6676L45.638 11.5039C45.4667 11.624 45.2527 11.6877 44.9894 11.6877V11.8877ZM45.7527 11.6677C45.9619 11.5217 46.1375 11.302 46.2817 11.0157L46.1031 10.9257C45.9693 11.1914 45.813 11.3817 45.6382 11.5037L45.7527 11.6677ZM46.2818 11.0156L46.5028 10.5756L46.3241 10.4858L46.1031 10.9258L46.2818 11.0156ZM46.504 10.5731C46.7841 9.97508 47.0545 9.56522 47.3099 9.3315L47.1749 9.18394C46.8904 9.44421 46.6067 9.88236 46.3229 10.4883L46.504 10.5731ZM47.3098 9.33163C47.5652 9.09887 47.8389 8.98672 48.1324 8.98672V8.78672C47.782 8.78672 47.4617 8.92256 47.1751 9.18381L47.3098 9.33163ZM48.1324 8.98672C48.3036 8.98672 48.492 9.09085 48.6958 9.34177L48.851 9.21567C48.6309 8.94459 48.3913 8.78672 48.1324 8.78672V8.98672ZM48.6958 9.3418C48.8991 9.59183 49.0659 9.91585 49.1941 10.319L49.3847 10.2584C49.2509 9.83759 49.0738 9.48961 48.851 9.21564L48.6958 9.3418ZM49.1941 10.319C49.3224 10.7224 49.3854 11.1092 49.3854 11.4807H49.5854C49.5854 11.0863 49.5185 10.679 49.3847 10.2584L49.1941 10.319ZM49.3854 11.4807C49.3854 11.6941 49.3459 11.885 49.2701 12.055L49.4528 12.1364C49.541 11.9384 49.5854 11.7194 49.5854 11.4807H49.3854ZM49.27 12.0552C49.1962 12.2218 49.063 12.3859 48.8642 12.5483L48.9907 12.7032C49.2058 12.5275 49.3627 12.3397 49.4529 12.1362L49.27 12.0552ZM48.9274 12.5257C48.4948 12.5257 48.0358 12.465 47.5461 12.3456L47.4987 12.5399C48.0011 12.6624 48.4761 12.7257 48.9274 12.7257V12.5257ZM47.5463 12.3456C47.0566 12.2252 46.6512 12.0712 46.3288 11.8833L46.2281 12.0561C46.5717 12.2563 46.9963 12.4163 47.4985 12.5398L47.5463 12.3456ZM46.1978 11.9106C46.0337 12.1341 45.8573 12.2898 45.6702 12.382L45.7586 12.5614C45.9815 12.4516 46.1811 12.2713 46.359 12.0289L46.1978 11.9106ZM45.6692 12.3825C45.4832 12.4769 45.2574 12.5257 44.9894 12.5257V12.7257C45.2814 12.7257 45.5397 12.6725 45.7597 12.5609L45.6692 12.3825ZM44.9894 12.7257H44.9894V12.5257H44.9894V12.7257ZM48.7854 11.7844C48.77 11.3187 48.682 10.8729 48.521 10.4464L48.3339 10.517C48.4869 10.9225 48.5708 11.3467 48.5855 11.791L48.7854 11.7844ZM48.521 10.4463C48.4411 10.2352 48.3586 10.0694 48.2724 9.95455C48.1884 9.8427 48.085 9.75872 47.9604 9.75872V9.95872C47.9889 9.95872 48.0405 9.97874 48.1125 10.0746C48.1822 10.1675 48.2568 10.3132 48.3339 10.5171L48.521 10.4463ZM47.9604 9.75872C47.7982 9.75872 47.6499 9.80642 47.5115 9.89982L47.6234 10.0656C47.7309 9.99302 47.8407 9.95872 47.9604 9.95872V9.75872ZM47.5116 9.89973C47.3761 9.99085 47.2469 10.1282 47.1209 10.3059L47.284 10.4216C47.402 10.2552 47.5148 10.1386 47.6232 10.0657L47.5116 9.89973ZM47.1209 10.3059C46.9943 10.4843 46.8275 10.78 46.6193 11.1883L46.7975 11.2791C47.0054 10.8714 47.1666 10.5871 47.284 10.4216L47.1209 10.3059ZM46.6603 11.3214C47.1913 11.6126 47.8641 11.8002 48.6748 11.8871L48.6961 11.6883C47.9027 11.6032 47.2575 11.4208 46.7565 11.146L46.6603 11.3214ZM48.6854 11.8877H48.6854V11.6877H48.6854V11.8877Z" fill="#414042"/>
<path fill-rule="evenodd" clip-rule="evenodd" d="M55.4997 12.1958C55.0997 12.1598 54.8237 12.1248 54.6737 12.0908C54.5237 12.0568 54.3657 12.0088 54.2027 11.9458C54.0397 11.8828 53.8727 11.8038 53.7007 11.7068C53.5287 11.6098 53.3997 11.5168 53.3117 11.4278C53.2237 11.3378 53.1797 11.2558 53.1797 11.1808C53.1797 11.0838 53.2297 10.9168 53.3277 10.6808C53.4267 10.4448 53.5077 10.2708 53.5717 10.1598C53.6837 9.95578 53.9257 9.72078 54.2997 9.45378C54.6737 9.18678 55.0707 8.96978 55.4897 8.80078L55.4517 8.50078C55.7057 8.27178 55.9727 8.07978 56.2517 7.92578L56.3547 11.4968C56.6877 11.6908 57.0687 11.7878 57.4977 11.7878C57.5597 11.7878 57.5897 11.8178 57.5897 11.8788V12.5338C57.5897 12.5948 57.5597 12.6258 57.4977 12.6258C57.0547 12.6258 56.6947 12.5418 56.4187 12.3758C56.1437 12.2088 55.9847 11.9738 55.9417 11.6688L55.9027 11.4388L55.4997 12.1958ZM53.7167 10.6698C54.0107 10.9208 54.3367 11.0868 54.6957 11.1698C55.0527 11.2518 55.4477 11.2968 55.8817 11.3038L55.5977 9.53178L55.5917 9.50978C54.7147 9.81078 54.0897 10.1978 53.7167 10.6698Z" fill="#414042"/>
<path d="M55.4997 12.1958L55.4907 12.2954L55.5568 12.3013L55.588 12.2428L55.4997 12.1958ZM54.6737 12.0908L54.6516 12.1883L54.6516 12.1883L54.6737 12.0908ZM53.3117 11.4278L53.2402 11.4977L53.2406 11.4981L53.3117 11.4278ZM53.3277 10.6808L53.2355 10.6421L53.2353 10.6424L53.3277 10.6808ZM53.5717 10.1598L53.6583 10.2097L53.6593 10.2079L53.5717 10.1598ZM55.4897 8.80078L55.5271 8.89352L55.5986 8.86469L55.5889 8.78822L55.4897 8.80078ZM55.4517 8.50078L55.3847 8.42651L55.3459 8.4615L55.3525 8.51335L55.4517 8.50078ZM56.2517 7.92578L56.3516 7.9229L56.3469 7.75899L56.2034 7.83823L56.2517 7.92578ZM56.3547 11.4968L56.2547 11.4997L56.2563 11.5552L56.3043 11.5832L56.3547 11.4968ZM56.4187 12.3758L56.3668 12.4613L56.3671 12.4615L56.4187 12.3758ZM55.9417 11.6688L56.0407 11.6548L56.0403 11.6521L55.9417 11.6688ZM55.9027 11.4388L56.0013 11.4221L55.9522 11.1329L55.8144 11.3918L55.9027 11.4388ZM53.7167 10.6698L53.6382 10.6078L53.5785 10.6833L53.6518 10.7458L53.7167 10.6698ZM54.6957 11.1698L54.6732 11.2672L54.6733 11.2672L54.6957 11.1698ZM55.8817 11.3038L55.8801 11.4038L55.9993 11.4057L55.9804 11.288L55.8817 11.3038ZM55.5977 9.53178L55.697 9.51586L55.6942 9.50547L55.5977 9.53178ZM55.5917 9.50978L55.6882 9.48347L55.6601 9.38057L55.5592 9.4152L55.5917 9.50978ZM55.5087 12.0962C55.1082 12.0601 54.8384 12.0256 54.6958 11.9933L54.6516 12.1883C54.8089 12.224 55.0912 12.2594 55.4907 12.2954L55.5087 12.0962ZM54.6958 11.9933C54.5508 11.9604 54.3974 11.9138 54.2387 11.8525L54.1666 12.0391C54.3339 12.1037 54.4966 12.1532 54.6516 12.1883L54.6958 11.9933ZM54.2387 11.8525C54.0806 11.7914 53.9179 11.7145 53.7498 11.6197L53.6516 11.7939C53.8275 11.8931 53.9988 11.9742 54.1666 12.0391L54.2387 11.8525ZM53.7498 11.6197C53.5821 11.5251 53.4618 11.4374 53.3828 11.3575L53.2406 11.4981C53.3376 11.5962 53.4753 11.6945 53.6516 11.7939L53.7498 11.6197ZM53.3832 11.3579C53.3017 11.2745 53.2797 11.2166 53.2797 11.1808H53.0797C53.0797 11.295 53.1457 11.4011 53.2402 11.4977L53.3832 11.3579ZM53.2797 11.1808C53.2797 11.1468 53.2889 11.0917 53.3128 11.0114C53.3362 10.9325 53.3718 10.8353 53.42 10.7191L53.2353 10.6424C53.1856 10.7623 53.1472 10.8665 53.1211 10.9544C53.0954 11.0408 53.0797 11.1178 53.0797 11.1808H53.2797ZM53.4199 10.7195C53.5187 10.484 53.5977 10.3149 53.6583 10.2097L53.4851 10.1098C53.4177 10.2266 53.3347 10.4055 53.2355 10.6421L53.4199 10.7195ZM53.6593 10.2079C53.76 10.0245 53.9864 9.80028 54.3578 9.53517L54.2416 9.37239C53.8649 9.64128 53.6074 9.88705 53.484 10.1117L53.6593 10.2079ZM54.3578 9.53517C54.7253 9.27277 55.1154 9.05958 55.5271 8.89352L55.4523 8.70804C55.026 8.87998 54.622 9.10079 54.2416 9.37239L54.3578 9.53517ZM55.5889 8.78822L55.5509 8.48822L55.3525 8.51335L55.3905 8.81335L55.5889 8.78822ZM55.5186 8.57505C55.7674 8.35079 56.0282 8.16336 56.3 8.01333L56.2034 7.83823C55.9172 7.9962 55.644 8.19277 55.3847 8.42651L55.5186 8.57505ZM56.1517 7.92866L56.2547 11.4997L56.4546 11.4939L56.3516 7.9229L56.1517 7.92866ZM56.3043 11.5832C56.6543 11.7871 57.0531 11.8878 57.4977 11.8878V11.6878C57.0843 11.6878 56.7211 11.5945 56.405 11.4104L56.3043 11.5832ZM57.4977 11.8878C57.5055 11.8878 57.508 11.8888 57.5072 11.8885C57.5058 11.888 57.5013 11.8862 57.4965 11.8814C57.4917 11.8766 57.4897 11.872 57.4891 11.8703C57.4887 11.8692 57.4897 11.8714 57.4897 11.8788H57.6897C57.6897 11.8333 57.6785 11.7802 57.6374 11.7394C57.5964 11.6988 57.5433 11.6878 57.4977 11.6878V11.8878ZM57.4897 11.8788V12.5338H57.6897V11.8788H57.4897ZM57.4897 12.5338C57.4897 12.5411 57.4887 12.5435 57.489 12.5426C57.4895 12.5412 57.4914 12.5369 57.4959 12.5322C57.5005 12.5276 57.5049 12.5257 57.5065 12.5252C57.5075 12.5248 57.5052 12.5258 57.4977 12.5258V12.7258C57.5441 12.7258 57.5972 12.7141 57.6379 12.6731C57.6785 12.6322 57.6897 12.5793 57.6897 12.5338H57.4897ZM57.4977 12.5258C57.0665 12.5258 56.726 12.4439 56.4702 12.2901L56.3671 12.4615C56.6634 12.6396 57.0429 12.7258 57.4977 12.7258V12.5258ZM56.4706 12.2903C56.2198 12.138 56.0793 11.9285 56.0407 11.6548L55.8427 11.6827C55.8901 12.0191 56.0676 12.2796 56.3668 12.4613L56.4706 12.2903ZM56.0403 11.6521L56.0013 11.4221L55.8041 11.4555L55.8431 11.6855L56.0403 11.6521ZM55.8144 11.3918L55.4114 12.1488L55.588 12.2428L55.991 11.4858L55.8144 11.3918ZM53.6518 10.7458C53.9574 11.0068 54.2979 11.1804 54.6732 11.2672L54.7182 11.0724C54.3755 10.9931 54.0639 10.8347 53.7816 10.5937L53.6518 10.7458ZM54.6733 11.2672C55.0381 11.351 55.4402 11.3967 55.8801 11.4038L55.8833 11.2038C55.4552 11.1969 55.0672 11.1525 54.7181 11.0723L54.6733 11.2672ZM55.9804 11.288L55.6964 9.51596L55.4989 9.54761L55.7829 11.3196L55.9804 11.288ZM55.6942 9.50547L55.6882 9.48347L55.4952 9.53609L55.5012 9.55809L55.6942 9.50547ZM55.5592 9.4152C54.6731 9.71932 54.0279 10.1147 53.6382 10.6078L53.7951 10.7318C54.1515 10.2809 54.7563 9.90224 55.6242 9.60437L55.5592 9.4152Z" fill="#414042"/>
<path fill-rule="evenodd" clip-rule="evenodd" d="M60.4899 10.123C60.5909 10.123 60.6809 10.152 60.7599 10.209C60.6269 10.528 60.5109 10.795 60.4099 11.01C60.3099 11.225 60.2489 11.345 60.2279 11.37C60.4749 11.527 60.7049 11.636 60.9179 11.697C61.1309 11.758 61.3619 11.789 61.6129 11.789C61.6739 11.789 61.7049 11.819 61.7049 11.88V12.535C61.7049 12.596 61.6739 12.627 61.6129 12.627C60.9369 12.627 60.3569 12.414 59.8729 11.987L59.6959 12.224C59.6209 12.306 59.3549 12.394 58.8989 12.487C58.4419 12.58 57.9929 12.627 57.5529 12.627C57.4919 12.627 57.4609 12.596 57.4609 12.535V11.88C57.4609 11.819 57.4919 11.789 57.5529 11.789C58.0079 11.789 58.3939 11.769 58.7099 11.73C59.0279 11.69 59.2509 11.624 59.3819 11.531C59.5129 11.438 59.7049 11.146 59.9589 10.655L60.1529 10.301C60.2169 10.183 60.3299 10.123 60.4899 10.123ZM59.5079 14.018C59.3749 14.229 59.1579 14.48 58.8579 14.77C58.5279 14.504 58.2849 14.281 58.1269 14.098C58.3209 13.919 58.5569 13.672 58.8359 13.357C58.9009 13.425 59.1249 13.645 59.5079 14.018ZM61.1679 13.862C61.0349 14.069 60.8149 14.318 60.5069 14.608C60.1889 14.354 59.9459 14.13 59.7819 13.937C59.9459 13.787 60.1829 13.54 60.4899 13.196C60.5549 13.268 60.7809 13.489 61.1679 13.862H61.1679Z" fill="#414042"/>
<path d="M60.7599 10.209L60.8522 10.2475L60.8828 10.1743L60.8185 10.1279L60.7599 10.209ZM60.4099 11.01L60.3194 10.9675L60.3193 10.9679L60.4099 11.01ZM60.2279 11.37L60.1514 11.3057L60.0779 11.3932L60.1743 11.4544L60.2279 11.37ZM60.9179 11.697L60.8904 11.7932L60.8904 11.7932L60.9179 11.697ZM59.8729 11.987L59.9391 11.9121L59.8577 11.8403L59.7928 11.9272L59.8729 11.987ZM59.6959 12.224L59.7701 12.2919L59.7761 12.2839L59.6959 12.224ZM58.8989 12.487L58.9189 12.585L58.9189 12.585L58.8989 12.487ZM58.7099 11.73L58.7222 11.8293L58.7224 11.8293L58.7099 11.73ZM59.9589 10.655L59.8712 10.607L59.8701 10.6091L59.9589 10.655ZM60.1529 10.301L60.2406 10.3491L60.2408 10.3487L60.1529 10.301ZM59.5079 14.018L59.5925 14.0714L59.6357 14.0029L59.5777 13.9464L59.5079 14.018ZM58.8579 14.77L58.7952 14.8479L58.864 14.9033L58.9274 14.8419L58.8579 14.77ZM58.1269 14.098L58.0591 14.0246L57.988 14.0902L58.0513 14.1634L58.1269 14.098ZM58.8359 13.357L58.9082 13.2879L58.8331 13.2094L58.7611 13.2907L58.8359 13.357ZM61.1679 13.862L61.2521 13.9161L61.3511 13.762H61.1679V13.862ZM60.5069 14.608L60.4445 14.6862L60.5123 14.7403L60.5755 14.6809L60.5069 14.608ZM59.7819 13.937L59.7145 13.8633L59.6433 13.9283L59.7057 14.0018L59.7819 13.937ZM60.4899 13.196L60.5642 13.129L60.4895 13.0463L60.4153 13.1295L60.4899 13.196ZM61.1679 13.862L61.0985 13.934L61.1276 13.962H61.1679V13.862ZM60.4899 10.223C60.5704 10.223 60.6398 10.2457 60.7014 10.2901L60.8185 10.1279C60.722 10.0584 60.6115 10.023 60.4899 10.023V10.223ZM60.6676 10.1706C60.5349 10.489 60.4195 10.7545 60.3194 10.9675L60.5005 11.0526C60.6024 10.8356 60.719 10.5671 60.8522 10.2475L60.6676 10.1706ZM60.3193 10.9679C60.2695 11.075 60.2298 11.1576 60.2001 11.2161C60.1852 11.2455 60.1733 11.268 60.1641 11.2843C60.1537 11.3028 60.15 11.3074 60.1514 11.3057L60.3045 11.4344C60.3164 11.4202 60.3282 11.4004 60.3383 11.3827C60.3495 11.3627 60.363 11.3371 60.3785 11.3065C60.4096 11.245 60.4504 11.1601 60.5006 11.0522L60.3193 10.9679ZM60.1743 11.4544C60.427 11.615 60.6658 11.7289 60.8904 11.7932L60.9455 11.6009C60.7441 11.5432 60.5229 11.4391 60.2816 11.2857L60.1743 11.4544ZM60.8904 11.7932C61.1133 11.857 61.3536 11.889 61.6129 11.889V11.689C61.3702 11.689 61.1486 11.6591 60.9455 11.6009L60.8904 11.7932ZM61.6129 11.889C61.6203 11.889 61.6227 11.89 61.6219 11.8897C61.6206 11.8893 61.6163 11.8875 61.6117 11.883C61.607 11.8784 61.605 11.8739 61.6044 11.8722C61.604 11.8709 61.6049 11.873 61.6049 11.88H61.8049C61.8049 11.8337 61.793 11.7808 61.7519 11.7404C61.7111 11.7002 61.6584 11.689 61.6129 11.689V11.889ZM61.6049 11.88V12.535H61.8049V11.88H61.6049ZM61.6049 12.535C61.6049 12.5421 61.604 12.5443 61.6044 12.5433C61.6048 12.5418 61.6067 12.5376 61.6111 12.5332C61.6155 12.5288 61.6197 12.527 61.6212 12.5265C61.6222 12.5261 61.62 12.527 61.6129 12.527V12.727C61.6593 12.727 61.712 12.7152 61.7525 12.6746C61.7931 12.6341 61.8049 12.5814 61.8049 12.535H61.6049ZM61.6129 12.527C60.96 12.527 60.4039 12.3221 59.9391 11.9121L59.8068 12.062C60.31 12.506 60.9139 12.727 61.6129 12.727V12.527ZM59.7928 11.9272L59.6158 12.1642L59.7761 12.2839L59.9531 12.0469L59.7928 11.9272ZM59.6221 12.1566C59.6156 12.1637 59.5976 12.1781 59.5593 12.1972C59.5224 12.2155 59.4727 12.2354 59.409 12.2565C59.2814 12.2986 59.1052 12.3429 58.879 12.3891L58.9189 12.585C59.1486 12.5382 59.3334 12.492 59.4717 12.4464C59.5408 12.4236 59.6001 12.4003 59.6485 12.3762C59.6954 12.3528 59.7388 12.3253 59.7697 12.2915L59.6221 12.1566ZM58.879 12.3891C58.4281 12.4808 57.9858 12.527 57.5529 12.527V12.727C58.0001 12.727 58.4558 12.6793 58.9189 12.585L58.879 12.3891ZM57.5529 12.527C57.5459 12.527 57.5437 12.5261 57.5447 12.5265C57.5462 12.527 57.5504 12.5288 57.5548 12.5332C57.5592 12.5376 57.561 12.5418 57.5615 12.5433C57.5619 12.5443 57.5609 12.5421 57.5609 12.535H57.3609C57.3609 12.5814 57.3728 12.6341 57.4134 12.6746C57.4539 12.7152 57.5066 12.727 57.5529 12.727V12.527ZM57.5609 12.535V11.88H57.3609V12.535H57.5609ZM57.5609 11.88C57.5609 11.873 57.5619 11.8709 57.5614 11.8722C57.5608 11.8739 57.5588 11.8784 57.5542 11.883C57.5496 11.8875 57.5453 11.8893 57.544 11.8897C57.5431 11.89 57.5456 11.889 57.5529 11.889V11.689C57.5074 11.689 57.4547 11.7003 57.4139 11.7404C57.3728 11.7808 57.3609 11.8337 57.3609 11.88H57.5609ZM57.5529 11.889C58.0105 11.889 58.4009 11.8689 58.7222 11.8293L58.6977 11.6308C58.387 11.6691 58.0053 11.689 57.5529 11.689V11.889ZM58.7224 11.8293C59.0435 11.7889 59.2876 11.7207 59.4398 11.6126L59.324 11.4495C59.2143 11.5274 59.0123 11.5912 58.6975 11.6308L58.7224 11.8293ZM59.4398 11.6126C59.5217 11.5545 59.611 11.4443 59.7078 11.2973C59.8067 11.1472 59.92 10.948 60.0478 10.701L59.8701 10.6091C59.7439 10.8531 59.6342 11.0454 59.5408 11.1873C59.4453 11.3323 59.3732 11.4146 59.324 11.4495L59.4398 11.6126ZM60.0466 10.7031L60.2406 10.3491L60.0652 10.253L59.8712 10.607L60.0466 10.7031ZM60.2408 10.3487C60.2838 10.2696 60.3585 10.223 60.4899 10.223V10.023C60.3014 10.023 60.1501 10.0965 60.065 10.2534L60.2408 10.3487ZM59.4234 13.9647C59.2965 14.1659 59.086 14.4105 58.7884 14.6981L58.9274 14.8419C59.2299 14.5496 59.4534 14.2922 59.5925 14.0714L59.4234 13.9647ZM58.9207 14.6922C58.5924 14.4275 58.3548 14.2089 58.2026 14.0327L58.0513 14.1634C58.2151 14.3532 58.4635 14.5806 58.7952 14.8479L58.9207 14.6922ZM58.1948 14.1715C58.3923 13.9893 58.6308 13.7395 58.9108 13.4234L58.7611 13.2907C58.4831 13.6046 58.2496 13.8488 58.0591 14.0246L58.1948 14.1715ZM58.7637 13.4261C58.8302 13.4958 59.056 13.7175 59.4382 14.0897L59.5777 13.9464C59.1939 13.5726 58.9716 13.3543 58.9082 13.2879L58.7637 13.4261ZM61.0838 13.808C60.9572 14.005 60.7439 14.2476 60.4384 14.5352L60.5755 14.6809C60.886 14.3885 61.1127 14.1331 61.2521 13.9161L61.0838 13.808ZM60.5694 14.5299C60.2536 14.2777 60.0162 14.0583 59.8582 13.8723L59.7057 14.0018C59.8757 14.2018 60.1243 14.4304 60.4445 14.6862L60.5694 14.5299ZM59.8494 14.0108C60.0173 13.8573 60.257 13.6073 60.5646 13.2626L60.4153 13.1295C60.1089 13.4728 59.8746 13.7168 59.7145 13.8633L59.8494 14.0108ZM60.4157 13.2631C60.4837 13.3384 60.7133 13.5627 61.0985 13.934L61.2373 13.79C60.8486 13.4154 60.6262 13.1977 60.5642 13.129L60.4157 13.2631ZM61.1679 13.962H61.1679V13.762H61.1679V13.962Z" fill="#414042"/>
<path d="M61.7785 12.6261C61.7185 12.6261 61.6875 12.5951 61.6875 12.5341V11.8791C61.6875 11.8181 61.7185 11.7881 61.7785 11.7881C62.1935 11.7881 62.5955 11.6931 62.9825 11.5031C62.8855 10.7291 62.7695 9.33609 62.6325 7.32409L62.5245 5.85809C62.7435 5.63209 62.9905 5.42809 63.2675 5.24609C63.3135 6.25209 63.3515 7.83209 63.3795 9.98809L63.4175 11.4971C63.7495 11.6911 64.1315 11.7881 64.5615 11.7881C64.6255 11.7881 64.6575 11.8181 64.6575 11.8791V12.5341C64.6575 12.5951 64.6255 12.6261 64.5615 12.6261C64.0235 12.6261 63.6035 12.4951 63.2985 12.2331C63.0305 12.3841 62.7885 12.4871 62.5735 12.5421C62.3585 12.5981 62.0945 12.6261 61.7785 12.6261H61.7785Z" fill="#414042" stroke="#414042" stroke-width="0.2"/>
<path d="M64.6154 12.6267C64.5554 12.6267 64.5234 12.5957 64.5234 12.5347V11.8797C64.5234 11.8187 64.5554 11.7887 64.6154 11.7887C65.0884 11.7887 65.5454 11.7777 65.9844 11.7557C65.8104 11.6417 65.6564 11.4837 65.5254 11.2837C65.3954 11.0827 65.3304 10.8697 65.3304 10.6447C65.3304 10.3327 65.4154 10.0047 65.5854 9.66172C65.7554 9.31772 65.9754 9.04072 66.2424 8.82872C66.5124 8.61772 66.7924 8.51172 67.0864 8.51172C67.3404 8.51172 67.5844 8.57572 67.8164 8.70272C68.0494 8.82972 68.3194 9.02772 68.6274 9.29572L68.4344 9.64472C68.1454 9.53472 67.9334 9.46472 67.8014 9.43572C67.6684 9.40672 67.5224 9.39272 67.3654 9.39272C66.9144 9.39272 66.4434 9.52672 65.9534 9.79572C65.9534 10.1107 66.0284 10.3977 66.1814 10.6577C66.3334 10.9167 66.5554 11.1257 66.8444 11.2837C67.1354 11.4407 67.4774 11.5307 67.8704 11.5517C68.1494 11.4947 68.4164 11.4257 68.6704 11.3447C68.9254 11.2647 69.2814 11.1347 69.7394 10.9557C69.8404 11.0487 69.8904 11.1797 69.8904 11.3477L69.8794 11.4607C69.8364 11.7077 69.6844 11.8637 69.4224 11.9277C68.5494 12.1457 67.8884 12.2957 67.4404 12.3767C66.9934 12.4577 66.5334 12.5187 66.0634 12.5617C65.5924 12.6047 65.1094 12.6267 64.6154 12.6267H64.6154Z" fill="#414042" stroke="#414042" stroke-width="0.2"/>
<path d="M78.0487 13.2221L77.7697 11.4441C77.4587 9.58209 77.2537 8.28509 77.1547 7.55209C77.0567 6.82009 77.0077 6.33809 77.0077 6.10509C77.0077 5.85809 77.0637 5.66609 77.1797 5.53009C77.2937 5.39409 77.4767 5.29909 77.7267 5.24609C77.7377 5.29209 77.7477 5.33509 77.7597 5.37509C77.7697 5.41409 77.8897 5.80609 78.1187 6.55109L77.8607 6.77609L77.8827 6.94809L78.2417 10.2081C78.3067 10.6841 78.3557 11.1411 78.3877 11.5781L78.3927 11.6001C78.6287 11.7251 78.8977 11.7881 79.1987 11.7881C79.2597 11.7881 79.2897 11.8181 79.2897 11.8791V12.5341C79.2897 12.5951 79.2597 12.6261 79.1987 12.6261C78.9337 12.6261 78.6837 12.5661 78.4467 12.4481L78.4567 12.8081C78.4567 13.2631 78.3157 13.6961 78.0327 14.1081C77.7497 14.5191 77.3607 14.8551 76.8667 15.1151C76.3727 15.3751 75.8627 15.5041 75.3367 15.5041C74.7097 15.5041 74.2217 15.3251 73.8707 14.9641C73.5197 14.6051 73.3438 14.0951 73.3438 13.4371C73.3438 13.2251 73.3567 13.0261 73.3847 12.8371C73.4107 12.6501 73.4698 12.3751 73.5587 12.0131L73.9617 12.1101C73.8797 12.4321 73.8377 12.6931 73.8377 12.8941C73.8377 13.4311 73.9727 13.8491 74.2407 14.1481C74.5097 14.4471 74.8837 14.5971 75.3627 14.5971C75.7107 14.5971 76.0717 14.5361 76.4487 14.4141C76.8237 14.2921 77.1557 14.1261 77.4417 13.9151C77.7287 13.7031 77.9317 13.4721 78.0487 13.2221H78.0487Z" fill="#414042" stroke="#414042" stroke-width="0.2"/>
<path fill-rule="evenodd" clip-rule="evenodd" d="M87.9031 12.6262C87.5921 12.6262 87.2821 12.5632 86.9751 12.4382C86.6661 12.3122 86.4141 12.1472 86.2171 11.9432C85.8911 12.1552 85.4921 12.3212 85.0221 12.4432C84.5511 12.5642 84.0811 12.6262 83.6111 12.6262C83.0821 12.6262 82.5371 12.5682 81.9791 12.4542C81.4201 12.3392 80.9771 12.1902 80.6471 12.0082L80.4591 12.2232C80.2161 12.4912 79.8151 12.6262 79.2561 12.6262C79.1951 12.6262 79.1641 12.5952 79.1641 12.5342V11.8792C79.1641 11.8182 79.1951 11.7882 79.2561 11.7882C79.5851 11.7882 79.8471 11.7282 80.0401 11.6082C80.2341 11.4882 80.4291 11.2562 80.6251 10.9122L80.7971 10.6062C80.8731 10.4772 80.9891 10.4132 81.1471 10.4132C81.2501 10.4132 81.3361 10.4472 81.4041 10.5152C81.2501 10.8872 81.1411 11.1412 81.0761 11.2772C81.2561 11.3632 81.4391 11.4352 81.6251 11.4922C83.0281 9.63022 84.2251 8.69922 85.2131 8.69922C85.4201 8.69922 85.6761 8.78322 85.9811 8.95222C86.2851 9.12022 86.5571 9.33622 86.7971 9.60122C87.0371 9.86722 87.1561 10.0992 87.1561 10.3002C87.1561 10.7442 87.0161 11.1402 86.7331 11.4872C87.0661 11.6882 87.4561 11.7882 87.9031 11.7882C87.9681 11.7882 88.0001 11.8182 88.0001 11.8792V12.5342C88.0001 12.5952 87.9681 12.6262 87.9031 12.6262H87.9031ZM83.7251 11.7882C84.681 11.7882 85.6601 11.4742 86.6621 10.8482C86.4411 10.4612 86.1741 10.1592 85.8621 9.94322C85.5511 9.72622 85.2431 9.61822 84.9391 9.61822C84.5911 9.61822 84.1781 9.78722 83.6971 10.1262C83.2181 10.4632 82.6971 10.9642 82.1351 11.6262C82.7081 11.7342 83.2371 11.7882 83.7251 11.7882Z" fill="#414042"/>
<path d="M86.9751 12.4382L86.9373 12.5308L86.9374 12.5308L86.9751 12.4382ZM86.2171 11.9432L86.289 11.8738L86.2317 11.8144L86.1625 11.8594L86.2171 11.9432ZM85.0221 12.4432L85.0469 12.5401L85.0472 12.54L85.0221 12.4432ZM81.9791 12.4542L81.9589 12.5522L81.959 12.5522L81.9791 12.4542ZM80.6471 12.0082L80.6954 11.9207L80.6248 11.8817L80.5718 11.9424L80.6471 12.0082ZM80.4591 12.2232L80.5332 12.2904L80.5343 12.289L80.4591 12.2232ZM80.0401 11.6082L79.9875 11.5232L79.9873 11.5233L80.0401 11.6082ZM80.6251 10.9122L80.712 10.9617L80.7122 10.9612L80.6251 10.9122ZM80.7971 10.6062L80.7109 10.5554L80.7099 10.5572L80.7971 10.6062ZM81.4041 10.5152L81.4965 10.5535L81.522 10.4917L81.4748 10.4445L81.4041 10.5152ZM81.0761 11.2772L80.9858 11.2341L80.9427 11.3243L81.033 11.3674L81.0761 11.2772ZM81.6251 11.4922L81.5958 11.5878L81.6628 11.6084L81.7049 11.5524L81.6251 11.4922ZM85.9811 8.95222L85.9326 9.03969L85.9327 9.03974L85.9811 8.95222ZM86.7971 9.60122L86.8713 9.53423L86.8712 9.53409L86.7971 9.60122ZM86.7331 11.4872L86.6556 11.424L86.5828 11.5133L86.6814 11.5728L86.7331 11.4872ZM86.6621 10.8482L86.715 10.933L86.7966 10.8821L86.7489 10.7986L86.6621 10.8482ZM85.8621 9.94322L85.8048 10.0252L85.8051 10.0254L85.8621 9.94322ZM83.6971 10.1262L83.7546 10.208L83.7547 10.208L83.6971 10.1262ZM82.1351 11.6262L82.0588 11.5615L81.9475 11.6926L82.1165 11.7245L82.1351 11.6262ZM87.9031 12.5262C87.6059 12.5262 87.3087 12.4661 87.0128 12.3456L86.9374 12.5308C87.2555 12.6604 87.5782 12.7262 87.9031 12.7262V12.5262ZM87.0128 12.3456C86.7146 12.224 86.4749 12.0662 86.289 11.8738L86.1451 12.0127C86.3533 12.2282 86.6175 12.4004 86.9373 12.5308L87.0128 12.3456ZM86.1625 11.8594C85.8477 12.0642 85.4592 12.2264 84.9969 12.3464L85.0472 12.54C85.5249 12.416 85.9345 12.2463 86.2716 12.0271L86.1625 11.8594ZM84.9972 12.3464C84.5338 12.4654 84.0722 12.5262 83.6111 12.5262V12.7262C84.09 12.7262 84.5683 12.663 85.0469 12.5401L84.9972 12.3464ZM83.6111 12.5262C83.0894 12.5262 82.5511 12.469 81.9991 12.3562L81.959 12.5522C82.523 12.6674 83.0748 12.7262 83.6111 12.7262V12.5262ZM81.9992 12.3563C81.4457 12.2424 81.0134 12.096 80.6954 11.9207L80.5988 12.0958C80.9408 12.2844 81.3944 12.436 81.9589 12.5522L81.9992 12.3563ZM80.5718 11.9424L80.3838 12.1574L80.5343 12.289L80.7223 12.074L80.5718 11.9424ZM80.385 12.156C80.1691 12.3941 79.8019 12.5262 79.2561 12.5262V12.7262C79.8282 12.7262 80.263 12.5883 80.5331 12.2904L80.385 12.156ZM79.2561 12.5262C79.249 12.5262 79.2468 12.5253 79.2478 12.5256C79.2493 12.5261 79.2535 12.528 79.2579 12.5324C79.2623 12.5368 79.2642 12.541 79.2647 12.5425C79.265 12.5435 79.2641 12.5413 79.2641 12.5342H79.0641C79.0641 12.5805 79.0759 12.6333 79.1165 12.6738C79.157 12.7143 79.2097 12.7262 79.2561 12.7262V12.5262ZM79.2641 12.5342V11.8792H79.0641V12.5342H79.2641ZM79.2641 11.8792C79.2641 11.8721 79.265 11.8701 79.2646 11.8714C79.264 11.8731 79.262 11.8776 79.2573 11.8821C79.2527 11.8867 79.2484 11.8885 79.2471 11.8889C79.2463 11.8892 79.2487 11.8882 79.2561 11.8882V11.6882C79.2106 11.6882 79.1579 11.6994 79.1171 11.7396C79.076 11.78 79.0641 11.8329 79.0641 11.8792H79.2641ZM79.2561 11.8882C79.5958 11.8882 79.8784 11.8265 80.0929 11.6931L79.9873 11.5233C79.8157 11.6299 79.5744 11.6882 79.2561 11.6882V11.8882ZM80.0927 11.6933C80.3078 11.5602 80.513 11.311 80.7119 10.9617L80.5382 10.8627C80.3452 11.2015 80.1603 11.4163 79.9875 11.5232L80.0927 11.6933ZM80.7122 10.9612L80.8842 10.6552L80.7099 10.5572L80.5379 10.8632L80.7122 10.9612ZM80.8832 10.657C80.9401 10.5605 81.0221 10.5132 81.1471 10.5132V10.3132C80.956 10.3132 80.806 10.394 80.7109 10.5555L80.8832 10.657ZM81.1471 10.5132C81.2258 10.5132 81.2856 10.5382 81.3334 10.5859L81.4748 10.4445C81.3865 10.3562 81.2743 10.3132 81.1471 10.3132V10.5132ZM81.3117 10.477C81.1575 10.8493 81.0495 11.1009 80.9858 11.2341L81.1663 11.3203C81.2326 11.1816 81.3426 10.9251 81.4965 10.5535L81.3117 10.477ZM81.033 11.3674C81.2172 11.4555 81.4048 11.5293 81.5958 11.5878L81.6544 11.3966C81.4734 11.3411 81.295 11.271 81.1192 11.187L81.033 11.3674ZM81.7049 11.5524C82.4036 10.6251 83.0476 9.93441 83.6361 9.47639C84.2255 9.01765 84.7504 8.79922 85.2131 8.79922V8.59922C84.6877 8.59922 84.1201 8.84629 83.5133 9.31855C82.9055 9.79153 82.2495 10.4973 81.5452 11.432L81.7049 11.5524ZM85.2131 8.79922C85.3953 8.79922 85.6336 8.87403 85.9326 9.03969L86.0295 8.86475C85.7185 8.69241 85.4448 8.59922 85.2131 8.59922V8.79922ZM85.9327 9.03974C86.2268 9.20229 86.4902 9.41133 86.723 9.66835L86.8712 9.53409C86.624 9.2611 86.3433 9.03815 86.0294 8.86469L85.9327 9.03974ZM86.7228 9.66821C86.9579 9.92878 87.0561 10.1371 87.0561 10.3002H87.2561C87.2561 10.0613 87.1162 9.80566 86.8713 9.53423L86.7228 9.66821ZM87.0561 10.3002C87.0561 10.7212 86.924 11.0949 86.6556 11.424L86.8106 11.5504C87.1082 11.1855 87.2561 10.7672 87.2561 10.3002H87.0561ZM86.6814 11.5728C87.0323 11.7846 87.4407 11.8882 87.9031 11.8882V11.6882C87.4714 11.6882 87.0999 11.5918 86.7847 11.4016L86.6814 11.5728ZM87.9031 11.8882C87.912 11.8882 87.9157 11.8893 87.916 11.8894C87.9161 11.8894 87.9151 11.8891 87.9134 11.8882C87.9118 11.8872 87.9097 11.8858 87.9075 11.8838C87.9028 11.8794 87.9005 11.8748 87.8997 11.8725C87.8991 11.8708 87.9001 11.8724 87.9001 11.8792H88.1001C88.1001 11.832 88.0874 11.7783 88.0444 11.7379C88.0025 11.6987 87.9491 11.6882 87.9031 11.6882V11.8882ZM87.9001 11.8792V12.5342H88.1001V11.8792H87.9001ZM87.9001 12.5342C87.9001 12.541 87.8991 12.5428 87.8997 12.5413C87.9004 12.5393 87.9025 12.535 87.9069 12.5307C87.9113 12.5266 87.915 12.5252 87.9154 12.5251C87.9154 12.5251 87.9145 12.5254 87.9124 12.5257C87.9103 12.526 87.9073 12.5262 87.9031 12.5262V12.7262C87.9498 12.7262 88.0033 12.7151 88.045 12.6755C88.0875 12.6349 88.1001 12.5814 88.1001 12.5342H87.9001ZM87.9031 12.5262H87.9031V12.7262H87.9031V12.5262ZM83.7251 11.8882C84.7038 11.8882 85.701 11.5666 86.715 10.933L86.6091 10.7634C85.6192 11.3819 84.6583 11.6882 83.7251 11.6882V11.8882ZM86.7489 10.7986C86.5218 10.4009 86.2452 10.0869 85.919 9.861L85.8051 10.0254C86.1029 10.2316 86.3603 10.5215 86.5752 10.8978L86.7489 10.7986ZM85.9193 9.86121C85.5956 9.63533 85.268 9.51822 84.9391 9.51822V9.71822C85.2181 9.71822 85.5066 9.81711 85.8048 10.0252L85.9193 9.86121ZM84.9391 9.51822C84.5605 9.51822 84.1268 9.70098 83.6394 10.0445L83.7547 10.208C84.2293 9.87345 84.6216 9.71822 84.9391 9.71822V9.51822ZM83.6395 10.0444C83.1511 10.3881 82.6239 10.8959 82.0588 11.5615L82.2113 11.6909C82.7702 11.0325 83.285 10.5384 83.7546 10.208L83.6395 10.0444ZM82.1165 11.7245C82.6945 11.8334 83.2298 11.8882 83.7251 11.8882V11.6882C83.2444 11.6882 82.7216 11.635 82.1536 11.5279L82.1165 11.7245Z" fill="#414042"/>
<path d="M87.9592 12.6257C87.8992 12.6257 87.8672 12.5947 87.8672 12.5337V11.8787C87.8672 11.8177 87.8992 11.7877 87.9592 11.7877C89.0372 11.7877 89.8842 11.6937 90.5002 11.5077L91.1112 11.2987C91.5272 11.1407 91.8972 11.0337 92.2192 10.9757C91.9322 10.8327 91.6492 10.6507 91.3692 10.4287C91.0722 10.1957 90.8322 10.0337 90.6482 9.94272C90.4632 9.85072 90.2742 9.80572 90.0802 9.80572C89.7302 9.80572 89.4142 9.89472 89.1352 10.0737L88.8772 10.2347C88.7702 10.1277 88.7172 9.98472 88.7172 9.80572C88.7172 9.52972 88.8382 9.30772 89.0822 9.13972C89.3252 8.97072 89.6462 8.88672 90.0432 8.88672C90.2762 8.88672 90.5112 8.93772 90.7492 9.03772C90.9872 9.13772 91.2642 9.30272 91.5792 9.53172C91.9622 9.81372 92.2882 10.0267 92.5572 10.1677C92.8252 10.3087 93.0982 10.4107 93.3732 10.4717C93.6492 10.5327 94.0502 10.5627 94.5762 10.5627L94.1572 11.3737C93.9282 11.3447 93.7232 11.3257 93.5392 11.3147L93.5022 11.3087L93.2762 11.3147C93.0232 11.3147 92.7792 11.3527 92.5492 11.4277C92.3182 11.5027 91.9592 11.6657 91.4722 11.9157C90.9242 12.1987 90.4292 12.3877 89.9862 12.4827C89.5442 12.5777 88.8682 12.6257 87.9592 12.6257H87.9592Z" fill="#414042" stroke="#414042" stroke-width="0.2"/>
<path d="M95.9719 8.96209V9.65009C95.9719 10.3591 95.9459 11.3201 95.8969 12.5341L95.3919 12.6261C95.3449 10.0551 95.2449 7.92009 95.0909 6.22309L95.0859 6.08309C95.0859 5.85109 95.1439 5.66609 95.2599 5.52809C95.3759 5.39009 95.5599 5.29609 95.8109 5.24609C95.8209 5.29209 95.8319 5.33509 95.8429 5.37509C95.8539 5.41409 95.9739 5.80609 96.2029 6.55109L95.9069 6.80309L95.9119 6.85709C95.9519 7.64409 95.9719 8.34709 95.9719 8.96209Z" fill="#414042" stroke="#414042" stroke-width="0.2"/>
</g>
</g>
</g>
<defs>
<linearGradient id="paint0_linear_7636_137630" x1="119.84" y1="158.013" x2="99.999" y2="152.74" gradientUnits="userSpaceOnUse">
<stop stop-color="#00A0FF"/>
<stop offset="0.00657445" stop-color="#00A1FF"/>
<stop offset="0.2601" stop-color="#00BEFF"/>
<stop offset="0.5122" stop-color="#00D2FF"/>
<stop offset="0.7604" stop-color="#00DFFF"/>
<stop offset="1" stop-color="#00E3FF"/>
</linearGradient>
<linearGradient id="paint1_linear_7636_137630" x1="127.546" y1="152.817" x2="103.349" y2="152.817" gradientUnits="userSpaceOnUse">
<stop stop-color="#FFE000"/>
<stop offset="0.4087" stop-color="#FFBD00"/>
<stop offset="0.7754" stop-color="#FFA500"/>
<stop offset="1" stop-color="#FF9C00"/>
</linearGradient>
<linearGradient id="paint2_linear_7636_137630" x1="133.305" y1="151.935" x2="117.378" y2="125.12" gradientUnits="userSpaceOnUse">
<stop stop-color="#FF3A44"/>
<stop offset="1" stop-color="#C31162"/>
</linearGradient>
<linearGradient id="paint3_linear_7636_137630" x1="107.604" y1="186.74" x2="114.716" y2="174.766" gradientUnits="userSpaceOnUse">
<stop stop-color="#32A071"/>
<stop offset="0.0685" stop-color="#2DA771"/>
<stop offset="0.4762" stop-color="#15CF74"/>
<stop offset="0.8009" stop-color="#06E775"/>
<stop offset="1" stop-color="#00F076"/>
</linearGradient>
<clipPath id="clip0_7636_137630">
<rect width="1440" height="7869" fill="white" transform="translate(-103 -7641)"/>
</clipPath>
<clipPath id="clip1_7636_137630">
<rect width="155" height="60" fill="white" transform="translate(-9 -9)"/>
</clipPath>
<clipPath id="clip2_7636_137630">
<rect width="155" height="60" fill="white" transform="translate(-9 -9)"/>
</clipPath>
<clipPath id="clip3_7636_137630">
<rect width="135" height="40" fill="white" transform="translate(0.710938 1)"/>
</clipPath>
<clipPath id="clip4_7636_137630">
<rect width="135" height="40" fill="white" transform="translate(0.710938 1)"/>
</clipPath>
<clipPath id="clip5_7636_137630">
<rect width="23.09" height="25.7215" fill="white" transform="translate(103.688 8.14062)"/>
</clipPath>
<clipPath id="clip6_7636_137630">
<rect width="17.149" height="8.72929" fill="white" transform="translate(103.688 25.1328)"/>
</clipPath>
<clipPath id="clip7_7636_137630">
<rect width="57.051" height="10.258" fill="white" transform="translate(39.1484 5.24609)"/>
</clipPath>
</defs>
</svg>
