<svg width="898" height="48" viewBox="0 0 898 48" fill="none" xmlns="http://www.w3.org/2000/svg">
<g clip-path="url(#clip0_1927_34073)">
<rect x="0.25" y="0.25" width="897.5" height="47.5" rx="3.75" fill="white" stroke="#767676" stroke-width="0.5" stroke-dasharray="5 5"/>
<path d="M319.527 21.744C318.759 21.744 318.178 21.8027 317.783 21.92V26.032C318.722 25.744 320.044 25.6 321.751 25.6V26.8C320.524 26.8 319.532 26.88 318.775 27.04C318.018 27.1893 317.458 27.4347 317.095 27.776C316.732 28.1173 316.551 28.5707 316.551 29.136V31.648C317.095 31.744 317.847 31.792 318.807 31.792C319.202 31.792 319.596 31.7653 319.991 31.712C320.396 31.6587 320.903 31.568 321.511 31.44L321.703 32.784C321.308 32.9227 320.818 33.0293 320.231 33.104C319.644 33.1893 319.02 33.232 318.359 33.232C317.463 33.232 316.791 33.136 316.343 32.944C315.906 32.752 315.602 32.4053 315.431 31.904C315.271 31.4133 315.191 30.656 315.191 29.632C315.191 28.8853 315.314 28.256 315.559 27.744C315.804 27.232 316.194 26.816 316.727 26.496C316.524 25.9733 316.423 25.168 316.423 24.08C316.423 23.0453 316.508 22.2667 316.679 21.744C316.85 21.2107 317.154 20.8373 317.591 20.624C318.028 20.4107 318.69 20.304 319.575 20.304C320.076 20.304 320.588 20.352 321.111 20.448C321.644 20.5333 322.087 20.6453 322.439 20.784L322.231 22.128C321.292 21.872 320.391 21.744 319.527 21.744ZM328.251 20.32C328.934 20.32 329.526 20.3573 330.027 20.432C330.529 20.5067 331.051 20.6347 331.595 20.816V26.56C331.595 27.1467 331.441 27.7973 331.131 28.512C330.833 29.2373 330.422 29.936 329.899 30.608C329.377 31.28 328.811 31.8347 328.203 32.272L327.403 31.28C327.947 30.8533 328.449 30.3467 328.907 29.76C329.366 29.1733 329.723 28.5867 329.979 28H327.211C326.582 28 326.102 27.8933 325.771 27.68C325.451 27.456 325.222 27.072 325.083 26.528C324.955 25.984 324.891 25.1947 324.891 24.16C324.891 23.0933 324.982 22.2933 325.163 21.76C325.355 21.2267 325.686 20.8533 326.155 20.64C326.625 20.4267 327.323 20.32 328.251 20.32ZM329.579 26.56C329.857 26.56 330.049 26.5067 330.155 26.4C330.262 26.2827 330.315 26.0693 330.315 25.76V21.76H326.987C326.699 21.76 326.502 21.8187 326.395 21.936C326.299 22.0533 326.251 22.288 326.251 22.64V26.56H329.579ZM338.468 26.56V28H336.564C336.564 29.056 336.377 29.9093 336.004 30.56C335.63 31.2107 335.022 31.7387 334.18 32.144L333.636 31.024C334.254 30.7253 334.681 30.352 334.916 29.904C335.161 29.4667 335.284 28.832 335.284 28V20.48H336.564V26.56H338.468ZM353.277 26.56V28H348.477C347.783 28 347.234 27.9627 346.829 27.888C346.423 27.8027 346.103 27.6587 345.869 27.456C345.645 27.6587 345.325 27.8027 344.909 27.888C344.503 27.9627 343.954 28 343.261 28H337.821V26.56H340.381V21.92H341.661V26.56H343.981C344.45 26.56 344.775 26.5013 344.957 26.384C345.138 26.2667 345.229 26.0427 345.229 25.712V21.92H346.509V25.712C346.509 26.0427 346.599 26.2667 346.781 26.384C346.962 26.5013 347.287 26.56 347.757 26.56H349.885C350.013 25.888 350.077 25.0027 350.077 23.904C350.077 23.008 349.938 21.9467 349.661 20.72L350.925 20.512C351.042 20.9493 351.143 21.4987 351.229 22.16C351.314 22.8107 351.357 23.376 351.357 23.856C351.357 25.0827 351.255 25.984 351.053 26.56H353.277ZM344.877 18.56C344.717 18.5707 344.53 18.4693 344.317 18.256C344.103 18.0427 343.997 17.8507 343.997 17.68C343.997 17.5093 344.098 17.3227 344.301 17.12C344.514 16.9173 344.706 16.8107 344.877 16.8C345.047 16.8107 345.234 16.9173 345.437 17.12C345.65 17.3227 345.757 17.5093 345.757 17.68C345.757 17.84 345.65 18.032 345.437 18.256C345.223 18.4693 345.037 18.5707 344.877 18.56ZM347.181 18.56C347.021 18.5707 346.834 18.4693 346.621 18.256C346.407 18.0427 346.301 17.8507 346.301 17.68C346.301 17.5093 346.402 17.3227 346.605 17.12C346.818 16.9173 347.01 16.8107 347.181 16.8C347.351 16.8107 347.538 16.9173 347.741 17.12C347.954 17.3227 348.061 17.5093 348.061 17.68C348.061 17.84 347.954 18.032 347.741 18.256C347.527 18.4693 347.341 18.5707 347.181 18.56ZM346.029 16.16C345.869 16.1707 345.682 16.0693 345.469 15.856C345.255 15.6427 345.149 15.4507 345.149 15.28C345.149 15.1093 345.25 14.9227 345.453 14.72C345.666 14.5173 345.858 14.4107 346.029 14.4C346.199 14.4107 346.386 14.5173 346.589 14.72C346.802 14.9227 346.909 15.1093 346.909 15.28C346.909 15.44 346.802 15.632 346.589 15.856C346.375 16.0693 346.189 16.1707 346.029 16.16ZM363.753 26.56V28H352.633V26.56H354.969C354.798 25.9947 354.713 25.2587 354.713 24.352C354.713 23.2853 354.948 22.1547 355.417 20.96C355.844 20.7573 356.372 20.6027 357.001 20.496C357.641 20.3787 358.27 20.32 358.889 20.32C359.625 20.32 360.206 20.3893 360.633 20.528C361.06 20.656 361.364 20.8693 361.545 21.168C361.737 21.4667 361.833 21.8773 361.833 22.4V26.56H363.753ZM360.553 21.936C360.084 21.8187 359.492 21.76 358.777 21.76C358.009 21.76 357.214 21.8507 356.393 22.032C356.126 22.9173 355.993 23.6907 355.993 24.352C355.993 25.2587 356.089 25.9947 356.281 26.56H360.553V21.936ZM363.117 28V26.56H365.678V17.92H366.958V28H363.117ZM370.163 17.92H371.443V28H370.163V17.92ZM377.863 30.112C377.863 29.4827 377.943 28.976 378.103 28.592C378.274 28.208 378.556 27.8773 378.951 27.6C379.346 27.3227 379.938 27.0133 380.727 26.672C379.916 26.1067 379.282 25.4133 378.823 24.592C378.364 23.7707 378.135 22.88 378.135 21.92C378.135 21.4933 378.247 21.168 378.471 20.944C378.706 20.72 379.1 20.56 379.655 20.464C380.21 20.368 381.01 20.32 382.055 20.32C383.1 20.32 383.9 20.368 384.455 20.464C385.01 20.56 385.399 20.72 385.623 20.944C385.858 21.168 385.975 21.4933 385.975 21.92C385.975 22.944 385.762 23.8187 385.335 24.544C384.908 25.2693 384.332 25.904 383.607 26.448C384.055 26.5227 384.567 26.56 385.143 26.56H387.383V28H385.143C384.044 28 383.004 27.808 382.023 27.424C381.148 27.7653 380.46 28.0747 379.959 28.352C379.468 28.6293 379.223 28.8907 379.223 29.136V31.488C379.799 31.584 380.551 31.632 381.479 31.632C381.852 31.632 382.242 31.6053 382.647 31.552C383.052 31.4987 383.564 31.408 384.183 31.28L384.391 32.688C383.687 32.944 382.567 33.072 381.031 33.072C380.178 33.072 379.527 32.9867 379.079 32.816C378.631 32.6453 378.316 32.3467 378.135 31.92C377.954 31.504 377.863 30.9013 377.863 30.112ZM379.415 21.76C379.415 22.9227 379.655 23.8613 380.135 24.576C380.626 25.28 381.266 25.808 382.055 26.16C382.919 25.7653 383.575 25.1947 384.023 24.448C384.471 23.7013 384.695 22.8053 384.695 21.76H379.415ZM389.303 26.56C389.196 25.9947 389.143 25.088 389.143 23.84C389.143 22.8907 389.233 22.1707 389.414 21.68C389.607 21.1787 389.937 20.8267 390.407 20.624C390.876 20.4213 391.575 20.32 392.503 20.32C393.089 20.32 393.633 20.3573 394.135 20.432C394.636 20.5067 395.207 20.6347 395.847 20.816V28H386.742V26.56H389.303ZM393.831 26.56C394.108 26.56 394.3 26.5067 394.407 26.4C394.513 26.2827 394.567 26.0693 394.567 25.76V21.792H391.239C390.951 21.792 390.753 21.8507 390.647 21.968C390.551 22.0853 390.503 22.32 390.503 22.672V26.56H393.831ZM391.351 18.56C391.191 18.5707 391.004 18.4693 390.791 18.256C390.577 18.0427 390.471 17.8507 390.471 17.68C390.471 17.5093 390.572 17.3227 390.775 17.12C390.988 16.9173 391.18 16.8107 391.351 16.8C391.521 16.8107 391.708 16.9173 391.911 17.12C392.124 17.3227 392.231 17.5093 392.231 17.68C392.231 17.84 392.124 18.032 391.911 18.256C391.697 18.4693 391.511 18.5707 391.351 18.56ZM393.655 18.56C393.495 18.5707 393.308 18.4693 393.095 18.256C392.881 18.0427 392.775 17.8507 392.775 17.68C392.775 17.5093 392.876 17.3227 393.079 17.12C393.292 16.9173 393.484 16.8107 393.655 16.8C393.825 16.8107 394.012 16.9173 394.215 17.12C394.428 17.3227 394.535 17.5093 394.535 17.68C394.535 17.84 394.428 18.032 394.215 18.256C394.001 18.4693 393.815 18.5707 393.655 18.56ZM407.597 28H405.261C405.005 28.7787 404.589 29.5573 404.013 30.336C403.448 31.1253 402.818 31.7707 402.125 32.272L401.325 31.28C401.869 30.8533 402.37 30.3467 402.829 29.76C403.288 29.1733 403.645 28.5867 403.901 28H401.133C400.504 28 400.024 27.8933 399.693 27.68C399.373 27.456 399.144 27.072 399.005 26.528C398.877 25.984 398.813 25.1947 398.813 24.16C398.813 23.0933 398.904 22.2933 399.085 21.76C399.277 21.2267 399.608 20.8533 400.077 20.64C400.546 20.4267 401.245 20.32 402.173 20.32C402.856 20.32 403.448 20.3573 403.949 20.432C404.45 20.5067 404.973 20.6347 405.517 20.816V26.56H407.597V28ZM403.501 26.56C403.778 26.56 403.97 26.5067 404.077 26.4C404.184 26.2827 404.237 26.0693 404.237 25.76V21.76H400.909C400.621 21.76 400.424 21.8187 400.317 21.936C400.221 22.0533 400.173 22.288 400.173 22.64V26.56H403.501ZM413.217 20.32C413.953 20.32 414.535 20.3893 414.961 20.528C415.388 20.656 415.692 20.8693 415.873 21.168C416.065 21.4667 416.161 21.8773 416.161 22.4V28H406.961V26.56H409.297C409.127 25.9947 409.041 25.2587 409.041 24.352C409.041 23.2853 409.276 22.1547 409.745 20.96C410.172 20.7573 410.7 20.6027 411.329 20.496C411.969 20.3787 412.599 20.32 413.217 20.32ZM414.881 21.936C414.412 21.8187 413.82 21.76 413.105 21.76C412.337 21.76 411.543 21.8507 410.721 22.032C410.455 22.9173 410.321 23.6907 410.321 24.352C410.321 25.2587 410.417 25.9947 410.609 26.56H414.881V21.936ZM435.015 26.56V28H422.023V26.56H423.943V17.92H425.223V23.424C425.586 22.432 426.236 21.6693 427.175 21.136C428.114 20.592 429.266 20.32 430.631 20.32C431.26 20.32 431.751 20.3787 432.103 20.496C432.455 20.6133 432.706 20.8107 432.855 21.088C433.015 21.3653 433.095 21.7493 433.095 22.24V26.56H435.015ZM431.815 26.56V21.936C431.442 21.8187 430.85 21.76 430.039 21.76C428.492 21.76 427.324 22.1547 426.535 22.944C425.756 23.7333 425.324 24.9387 425.239 26.56H431.815ZM448 26.56V28H434.367V26.56H436.928V17.92H438.208V23.424C438.57 22.432 439.221 21.6693 440.16 21.136C441.098 20.592 442.25 20.32 443.616 20.32C444.245 20.32 444.736 20.3787 445.088 20.496C445.44 20.6133 445.69 20.8107 445.84 21.088C446 21.3653 446.08 21.7493 446.08 22.24V26.56H448ZM444.8 26.56V21.936C444.426 21.8187 443.834 21.76 443.024 21.76C441.477 21.76 440.309 22.1547 439.52 22.944C438.741 23.7333 438.309 24.9387 438.224 26.56H444.8ZM457.144 26.56V28H456.248C455.939 28 455.688 27.9307 455.496 27.792C455.315 27.6533 455.165 27.424 455.048 27.104L454.504 25.696C453.523 27.232 452.115 28 450.28 28H447.352V26.56H450.808C451.523 26.56 452.136 26.32 452.648 25.84C453.171 25.36 453.581 24.7733 453.88 24.08C453.624 23.4933 453.336 23.0347 453.016 22.704C452.707 22.3733 452.317 22.1333 451.848 21.984C451.379 21.8347 450.787 21.76 450.072 21.76C449.624 21.76 449.181 21.7813 448.744 21.824L448.536 20.416C449.165 20.352 449.731 20.32 450.232 20.32C451.128 20.32 451.88 20.432 452.488 20.656C453.096 20.88 453.608 21.2373 454.024 21.728C454.44 22.2187 454.797 22.8693 455.096 23.68L456.184 26.56H457.144ZM451.496 18.56C451.336 18.5707 451.149 18.4693 450.936 18.256C450.723 18.0427 450.616 17.8507 450.616 17.68C450.616 17.5093 450.717 17.3227 450.92 17.12C451.133 16.9173 451.325 16.8107 451.496 16.8C451.667 16.8107 451.853 16.9173 452.056 17.12C452.269 17.3227 452.376 17.5093 452.376 17.68C452.376 17.84 452.269 18.032 452.056 18.256C451.843 18.4693 451.656 18.5707 451.496 18.56ZM466.988 26.56V28H455.867V26.56H458.204C458.033 25.9947 457.948 25.2587 457.948 24.352C457.948 23.2853 458.182 22.1547 458.652 20.96C459.078 20.7573 459.606 20.6027 460.236 20.496C460.876 20.3787 461.505 20.32 462.124 20.32C462.86 20.32 463.441 20.3893 463.868 20.528C464.294 20.656 464.598 20.8693 464.78 21.168C464.972 21.4667 465.068 21.8773 465.068 22.4V26.56H466.988ZM463.788 21.936C463.318 21.8187 462.726 21.76 462.012 21.76C461.244 21.76 460.449 21.8507 459.628 22.032C459.361 22.9173 459.228 23.6907 459.228 24.352C459.228 25.2587 459.324 25.9947 459.516 26.56H463.788V21.936ZM466.352 28V26.56H468.912V17.92H470.192V28H466.352ZM489.893 26.56V28H487.973V29.296C487.973 30.1387 487.818 30.7733 487.509 31.2C487.21 31.6373 486.65 31.9467 485.829 32.128C485.018 32.3093 483.797 32.4 482.165 32.4C480.64 32.4 479.525 32.336 478.821 32.208C478.128 32.08 477.637 31.808 477.349 31.392C477.061 30.976 476.917 30.304 476.917 29.376C476.917 28.7573 476.96 28.1067 477.045 27.424C477.141 26.7413 477.258 26.1707 477.397 25.712L478.645 25.936C478.346 27.2373 478.197 28.2667 478.197 29.024C478.197 29.792 478.261 30.4373 478.389 30.96H482.917C483.93 30.96 484.698 30.9333 485.221 30.88C485.754 30.8373 486.133 30.7573 486.357 30.64C486.581 30.5227 486.693 30.3467 486.693 30.112V28H485.893C485.36 28 484.794 27.9573 484.197 27.872C483.61 27.776 483.114 27.6587 482.709 27.52L482.917 26.176C483.898 26.432 484.8 26.56 485.621 26.56H489.893ZM481.541 35.04C481.381 35.0507 481.194 34.9493 480.981 34.736C480.768 34.5227 480.661 34.3307 480.661 34.16C480.661 33.9893 480.762 33.8027 480.965 33.6C481.178 33.3973 481.37 33.2907 481.541 33.28C481.712 33.2907 481.898 33.3973 482.101 33.6C482.314 33.8027 482.421 33.9893 482.421 34.16C482.421 34.32 482.314 34.5067 482.101 34.72C481.888 34.944 481.701 35.0507 481.541 35.04ZM483.845 35.04C483.685 35.0507 483.498 34.9493 483.285 34.736C483.072 34.5227 482.965 34.3307 482.965 34.16C482.965 33.9893 483.066 33.8027 483.269 33.6C483.482 33.3973 483.674 33.2907 483.845 33.28C484.016 33.2907 484.202 33.3973 484.405 33.6C484.618 33.8027 484.725 33.9893 484.725 34.16C484.725 34.32 484.618 34.5067 484.405 34.72C484.192 34.944 484.005 35.0507 483.845 35.04ZM502.362 20.512C502.479 20.9493 502.581 21.4987 502.666 22.16C502.751 22.8107 502.794 23.376 502.794 23.856C502.794 24.9547 502.714 25.7973 502.554 26.384C502.394 26.96 502.111 27.376 501.706 27.632C501.301 27.8773 500.703 28 499.914 28C499.221 28 498.671 27.9627 498.266 27.888C497.861 27.8027 497.541 27.6587 497.306 27.456C497.082 27.6587 496.762 27.8027 496.346 27.888C495.941 27.9627 495.391 28 494.698 28H489.258V26.56H491.818V21.92H493.098V26.56H495.418C495.887 26.56 496.213 26.5013 496.394 26.384C496.575 26.2667 496.666 26.0427 496.666 25.712V21.92H497.946V25.712C497.946 26.0427 498.037 26.2667 498.218 26.384C498.399 26.5013 498.725 26.56 499.194 26.56H501.322C501.45 25.888 501.514 25.0027 501.514 23.904C501.514 23.008 501.375 21.9467 501.098 20.72L502.362 20.512ZM512.442 26.56V28H504.554V26.56H510.106C509.701 25.0987 509.349 24.032 509.05 23.36C508.752 22.6773 508.421 22.2133 508.058 21.968C507.696 21.712 507.2 21.584 506.57 21.584C506.165 21.584 505.76 21.6373 505.354 21.744L505.002 20.336C505.546 20.208 506.069 20.144 506.57 20.144C507.552 20.144 508.288 20.2827 508.778 20.56C509.269 20.8267 509.706 21.3867 510.09 22.24C510.474 23.0827 510.96 24.5227 511.546 26.56H512.442ZM517.565 26.56V28H511.805V26.56H514.365V20.48H515.645V26.56H517.565ZM515.005 18.56C514.845 18.5707 514.658 18.4693 514.445 18.256C514.232 18.0427 514.125 17.8507 514.125 17.68C514.125 17.5093 514.226 17.3227 514.429 17.12C514.642 16.9173 514.834 16.8107 515.005 16.8C515.176 16.8107 515.362 16.9173 515.565 17.12C515.778 17.3227 515.885 17.5093 515.885 17.68C515.885 17.84 515.778 18.032 515.565 18.256C515.352 18.4693 515.165 18.5707 515.005 18.56ZM528.13 26.896V28H516.93V26.56H518.754C518.765 25.4933 518.834 24.7307 518.962 24.272C519.09 23.8133 519.33 23.5093 519.682 23.36C520.045 23.2107 520.647 23.136 521.49 23.136C522.386 23.136 523.021 23.2107 523.394 23.36C523.778 23.5093 524.034 23.8133 524.162 24.272C524.301 24.72 524.375 25.4827 524.386 26.56H526.738L525.938 23.456C525.746 22.7307 525.453 22.1653 525.058 21.76C524.663 21.344 524.151 21.0507 523.522 20.88C522.893 20.7093 522.087 20.624 521.106 20.624L521.186 19.232C522.381 19.232 523.362 19.3387 524.13 19.552C524.909 19.7653 525.538 20.144 526.018 20.688C526.509 21.2213 526.877 21.9787 527.122 22.96L528.13 26.896ZM519.874 26.56H523.266V24.176H520.69C520.391 24.176 520.178 24.224 520.05 24.32C519.933 24.4053 519.874 24.5653 519.874 24.8V26.56ZM543.738 26.56V28H534.794C534.623 28.608 534.538 29.3653 534.538 30.272C534.538 30.976 534.687 31.92 534.986 33.104L533.738 33.344C533.599 32.928 533.482 32.4107 533.386 31.792C533.3 31.1733 533.258 30.576 533.258 30C533.258 28.8053 533.386 27.9467 533.642 27.424C533.898 26.9013 534.335 26.6187 534.954 26.576C534.783 26.0107 534.698 25.2693 534.698 24.352C534.698 23.2853 534.932 22.1547 535.402 20.96C535.818 20.768 536.34 20.6133 536.97 20.496C537.599 20.3787 538.234 20.32 538.874 20.32C539.61 20.32 540.191 20.3893 540.618 20.528C541.044 20.656 541.348 20.8693 541.53 21.168C541.722 21.4667 541.818 21.8773 541.818 22.4V26.56H543.738ZM540.538 21.936C540.1 21.8187 539.508 21.76 538.762 21.76C537.972 21.76 537.178 21.8453 536.378 22.016C536.111 22.9227 535.978 23.7013 535.978 24.352C535.978 25.2587 536.074 25.9947 536.266 26.56H540.538V21.936ZM556.206 20.512C556.323 20.9493 556.425 21.4987 556.51 22.16C556.595 22.8107 556.638 23.376 556.638 23.856C556.638 24.9547 556.558 25.7973 556.398 26.384C556.238 26.96 555.955 27.376 555.55 27.632C555.145 27.8773 554.547 28 553.758 28C553.065 28 552.515 27.9627 552.11 27.888C551.705 27.8027 551.385 27.6587 551.15 27.456C550.926 27.6587 550.606 27.8027 550.19 27.888C549.785 27.9627 549.235 28 548.542 28H543.102V26.56H545.662V21.92H546.942V26.56H549.262C549.731 26.56 550.057 26.5013 550.238 26.384C550.419 26.2667 550.51 26.0427 550.51 25.712V21.92H551.79V25.712C551.79 26.0427 551.881 26.2667 552.062 26.384C552.243 26.5013 552.569 26.56 553.038 26.56H555.166C555.294 25.888 555.358 25.0027 555.358 23.904C555.358 23.008 555.219 21.9467 554.942 20.72L556.206 20.512ZM558.526 31.024C559.145 30.7253 559.571 30.352 559.806 29.904C560.051 29.4667 560.174 28.832 560.174 28V20.48H561.454V28C561.454 29.056 561.267 29.9093 560.894 30.56C560.521 31.2107 559.913 31.7387 559.07 32.144L558.526 31.024ZM581.479 26.56V28H579.559V29.6C579.559 30.5387 579.372 31.2 578.999 31.584C578.636 31.968 577.996 32.16 577.079 32.16H570.247C569.692 32.16 569.25 32.032 568.919 31.776C568.599 31.5307 568.364 31.1307 568.215 30.576C568.076 30.0213 568.007 29.264 568.007 28.304C568.007 27.728 568.044 27.1253 568.119 26.496C568.204 25.8667 568.316 25.3333 568.455 24.896L569.671 25.104C569.415 26.1707 569.287 27.152 569.287 28.048C569.287 29.1573 569.372 30.048 569.543 30.72H578.279V28H575.175C574.546 28 574.066 27.8933 573.735 27.68C573.415 27.456 573.186 27.072 573.047 26.528C572.919 25.984 572.855 25.1947 572.855 24.16C572.855 23.0933 572.946 22.2933 573.127 21.76C573.319 21.2267 573.65 20.8533 574.119 20.64C574.588 20.4267 575.287 20.32 576.215 20.32C576.898 20.32 577.49 20.3573 577.991 20.432C578.492 20.5067 579.015 20.6347 579.559 20.816V26.56H581.479ZM577.543 26.56C577.82 26.56 578.012 26.5067 578.119 26.4C578.226 26.2827 578.279 26.0693 578.279 25.76V21.76H574.951C574.663 21.76 574.466 21.8187 574.359 21.936C574.263 22.0533 574.215 22.288 574.215 22.64V26.56H577.543ZM575.095 18.56C574.935 18.5707 574.748 18.4693 574.535 18.256C574.322 18.0427 574.215 17.8507 574.215 17.68C574.215 17.5093 574.316 17.3227 574.519 17.12C574.732 16.9173 574.924 16.8107 575.095 16.8C575.266 16.8107 575.452 16.9173 575.655 17.12C575.868 17.3227 575.975 17.5093 575.975 17.68C575.975 17.84 575.868 18.032 575.655 18.256C575.442 18.4693 575.255 18.5707 575.095 18.56ZM577.399 18.56C577.239 18.5707 577.052 18.4693 576.839 18.256C576.626 18.0427 576.519 17.8507 576.519 17.68C576.519 17.5093 576.62 17.3227 576.823 17.12C577.036 16.9173 577.228 16.8107 577.399 16.8C577.57 16.8107 577.756 16.9173 577.959 17.12C578.172 17.3227 578.279 17.5093 578.279 17.68C578.279 17.84 578.172 18.032 577.959 18.256C577.746 18.4693 577.559 18.5707 577.399 18.56ZM583.396 26.56C583.29 25.9947 583.236 25.088 583.236 23.84C583.236 22.8907 583.327 22.1707 583.508 21.68C583.7 21.1787 584.031 20.8267 584.5 20.624C584.97 20.4213 585.668 20.32 586.596 20.32C587.183 20.32 587.727 20.3573 588.228 20.432C588.73 20.5067 589.3 20.6347 589.94 20.816V28H580.836V26.56H583.396ZM587.924 26.56C588.202 26.56 588.394 26.5067 588.5 26.4C588.607 26.2827 588.66 26.0693 588.66 25.76V21.792H585.332C585.044 21.792 584.847 21.8507 584.74 21.968C584.644 22.0853 584.596 22.32 584.596 22.672V26.56H587.924ZM586.596 18.56C586.436 18.5707 586.25 18.4693 586.036 18.256C585.823 18.0427 585.716 17.8507 585.716 17.68C585.716 17.5093 585.818 17.3227 586.02 17.12C586.234 16.9173 586.426 16.8107 586.596 16.8C586.767 16.8107 586.954 16.9173 587.156 17.12C587.37 17.3227 587.476 17.5093 587.476 17.68C587.476 17.84 587.37 18.032 587.156 18.256C586.943 18.4693 586.756 18.5707 586.596 18.56ZM591.995 31.024C592.614 30.7253 593.04 30.352 593.275 29.904C593.52 29.4667 593.643 28.832 593.643 28V20.48H594.923V28C594.923 29.056 594.736 29.9093 594.363 30.56C593.99 31.2107 593.382 31.7387 592.539 32.144L591.995 31.024ZM598.116 20.48H599.396V28H598.116V20.48ZM600.58 17.04V17.776L596.932 18.752V18.016L597.636 17.824C597.508 17.5467 597.444 17.152 597.444 16.64C597.444 15.808 597.678 15.2267 598.148 14.896C598.617 14.5653 599.3 14.4 600.196 14.4V15.296C599.886 15.296 599.577 15.328 599.268 15.392C598.958 15.456 598.697 15.552 598.484 15.68L598.468 17.088C598.468 17.2267 598.494 17.328 598.548 17.392C598.601 17.4453 598.686 17.472 598.804 17.472C598.932 17.472 599.065 17.4507 599.204 17.408L600.58 17.04Z" fill="#767676"/>
<path d="M621.33 33.3394C620.24 33.3394 619.15 32.9294 618.32 32.0994C616.66 30.4394 616.66 27.7494 618.32 26.0894L620.8 23.6194C621.09 23.3294 621.57 23.3294 621.86 23.6194C622.15 23.9094 622.15 24.3894 621.86 24.6794L619.38 27.1494C618.31 28.2194 618.31 29.9694 619.38 31.0394C620.45 32.1094 622.2 32.1094 623.27 31.0394L627.16 27.1494C628.34 25.9694 628.99 24.3994 628.99 22.7294C628.99 21.0594 628.34 19.4894 627.16 18.3094C624.72 15.8694 620.76 15.8694 618.32 18.3094L614.08 22.5494C613.09 23.5394 612.54 24.8594 612.54 26.2594C612.54 27.6594 613.09 28.9794 614.08 29.9694C614.37 30.2594 614.37 30.7394 614.08 31.0294C613.79 31.3194 613.31 31.3194 613.02 31.0294C611.75 29.7494 611.04 28.0594 611.04 26.2594C611.04 24.4594 611.74 22.7594 613.02 21.4894L617.26 17.2494C620.28 14.2294 625.2 14.2294 628.22 17.2494C629.68 18.7094 630.49 20.6594 630.49 22.7294C630.49 24.7994 629.68 26.7494 628.22 28.2094L624.33 32.0994C623.5 32.9294 622.42 33.3394 621.33 33.3394Z" fill="#767676"/>
</g>
<defs>
<clipPath id="clip0_1927_34073">
<rect width="898" height="48" fill="white"/>
</clipPath>
</defs>
</svg>
