<svg width="32" height="32" viewBox="0 0 32 32" fill="none" xmlns="http://www.w3.org/2000/svg">
<circle cx="16" cy="16" r="16" fill="#1FB9B3"/>
<path d="M8.22222 8.02222H8.02222V8.22222V23.7778V23.9778H8.22222H23.7778H23.9778V23.7778V8.22222V8.02222H23.7778H8.22222ZM22.4667 17.3043V21.3556H20.154V17.3043C20.154 16.6727 19.9578 16.2567 19.699 15.9982C19.4462 15.7457 19.1463 15.6568 18.9579 15.6568C18.7899 15.6568 18.4492 15.7105 18.1458 15.9486C17.8321 16.1946 17.5839 16.6177 17.5839 17.3043V21.3556H15.18V13.9778H17.5839V14.8628V15.6174L17.9576 14.9619C18.2725 14.4096 18.9161 13.9778 20.2253 13.9778C20.8452 13.9778 21.3952 14.2231 21.7958 14.7471C22.201 15.277 22.4667 16.1102 22.4667 17.3043ZM6.2 8.22222C6.2 7.1049 7.1049 6.2 8.22222 6.2H23.7778C24.8951 6.2 25.8 7.1049 25.8 8.22222V23.7778C25.8 24.8951 24.8951 25.8 23.7778 25.8H8.22222C7.1049 25.8 6.2 24.8951 6.2 23.7778V8.22222ZM9.98689 11.0195C9.98689 10.6906 10.1089 10.4121 10.3262 10.2143C10.5445 10.0155 10.8743 9.8849 11.3103 9.8849C11.6933 9.8849 11.999 10.0122 12.2075 10.2111C12.4157 10.4097 12.5383 10.6901 12.5383 11.0195C12.5383 11.3484 12.4163 11.6263 12.1992 11.8236C11.9809 12.0219 11.6511 12.152 11.2148 12.152C10.8317 12.152 10.526 12.0251 10.3175 11.8267C10.1094 11.6287 9.98689 11.3489 9.98689 11.0195ZM12.4667 21.3556H10.0628V13.9778H12.4667V21.3556Z" fill="white" stroke="#1FB9B3" stroke-width="0.4"/>
</svg>
