<svg width="32" height="32" viewBox="0 0 32 32" fill="none" xmlns="http://www.w3.org/2000/svg">
<circle cx="16" cy="16" r="16" fill="#1FB9B3"/>
<path d="M23.7923 12.4217C23.7925 12.4497 23.7964 12.4749 23.7981 12.4866L23.7985 12.4889C23.7991 12.4927 23.7995 12.4954 23.7997 12.4974C23.7992 12.5013 23.798 12.5091 23.7971 12.5175C23.7962 12.5265 23.7952 12.5384 23.7952 12.552L23.7953 12.5553C23.7983 12.7361 23.8002 12.9148 23.8002 12.999C23.8002 18.2358 19.6578 23.8 12.3472 23.8C10.363 23.8 8.37453 23.1389 6.71854 22.199H6.96424C8.3861 22.199 9.35687 22.0984 10.1516 21.8537C10.9511 21.6074 11.5586 21.2195 12.2587 20.6704L12.7013 20.3232L12.1389 20.3131C10.5394 20.2841 8.91858 19.5246 8.3126 18.2243C8.42766 18.2402 8.55614 18.2569 8.68396 18.2723C8.97394 18.3074 9.28178 18.339 9.42624 18.339C9.61382 18.339 9.90399 18.3335 10.1973 18.299C10.4834 18.2654 10.802 18.2014 11.0278 18.0683L11.4783 17.8029L10.9656 17.6999C10.0693 17.52 9.11955 17.1066 8.39815 16.5064C7.77363 15.9868 7.33181 15.3383 7.22513 14.5875C7.72963 14.8928 8.25897 15 8.75924 15C9.14036 15 9.5036 14.9387 9.8292 14.8547L10.3466 14.7212L9.86873 14.4822C8.19868 13.6466 7.17924 12.3255 7.17924 11.031C7.17924 10.453 7.23316 9.8599 7.34607 9.40722C9.18341 11.5465 11.7118 13.199 15.0002 13.199H15.2182L15.1995 12.9819C15.1928 12.9039 15.1953 12.7828 15.1978 12.666C15.199 12.6072 15.2002 12.5496 15.2002 12.499C15.2002 10.1245 17.1257 8.19902 19.5002 8.19902C20.6782 8.19902 21.7424 8.67358 22.5198 9.4404L22.6015 9.52097L22.7122 9.49115C22.7302 9.4863 22.7466 9.48088 22.7576 9.47726L22.76 9.47646C22.7695 9.47335 22.7756 9.47138 22.7809 9.46987C23.5455 9.31733 24.725 8.87097 25.569 8.45617C25.3957 8.74991 25.1599 9.05652 24.8926 9.34846C24.4644 9.81617 23.9742 10.2256 23.5774 10.4635L23.7041 10.8336C24.3015 10.7619 24.8789 10.6286 25.4309 10.438C24.9794 11.0023 24.4524 11.5049 23.8662 11.9278L23.7785 11.9911L23.7835 12.0991C23.7863 12.1619 23.7892 12.2853 23.7923 12.4217ZM23.7923 12.4217C23.7922 12.4208 23.7922 12.4199 23.7922 12.419H23.9922M23.7923 12.4217C23.7923 12.4223 23.7923 12.4229 23.7923 12.4234L23.9922 12.419M23.9922 12.419C23.9892 12.283 23.9862 12.156 23.9832 12.09M23.9922 12.419C23.9922 12.4325 23.9942 12.4458 23.9962 12.459C23.9982 12.4723 24.0002 12.4855 24.0002 12.499C24.0002 12.508 23.999 12.5168 23.9977 12.5255C23.9965 12.5343 23.9952 12.543 23.9952 12.552C23.9982 12.733 24.0002 12.913 24.0002 12.999C24.0002 18.337 19.7772 24 12.3472 24C10.2001 24 8.05738 23.2431 6.32225 22.199L23.9832 12.09M23.9832 12.09C24.6715 11.5935 25.28 10.9899 25.7837 10.307L23.9832 12.09ZM13.4186 21.7789L12.8033 22.2152L13.5539 22.1411C19.1741 21.5861 22.2002 17.1727 22.2002 12.999V12.9986V12.9981V12.9976V12.9971V12.9966V12.9961V12.9956V12.9951V12.9945V12.994V12.9935V12.9929V12.9924V12.9918V12.9912V12.9906V12.9901V12.9895V12.9889V12.9882V12.9876V12.987V12.9864V12.9857V12.9851V12.9844V12.9838V12.9831V12.9825V12.9818V12.9811V12.9804V12.9797V12.979V12.9783V12.9776V12.9768V12.9761V12.9754V12.9746V12.9739V12.9731V12.9724V12.9716V12.9708V12.97V12.9692V12.9684V12.9676V12.9668V12.966V12.9652V12.9644V12.9635V12.9627V12.9619V12.961V12.9602V12.9593V12.9584V12.9576V12.9567V12.9558V12.9549V12.954V12.9531V12.9522V12.9513V12.9504V12.9494V12.9485V12.9476V12.9466V12.9457V12.9447V12.9438V12.9428V12.9419V12.9409V12.9399V12.9389V12.938V12.937V12.936V12.935V12.934V12.9329V12.9319V12.9309V12.9299V12.9289V12.9278V12.9268V12.9257V12.9247V12.9236V12.9226V12.9215V12.9205V12.9194V12.9183V12.9172V12.9161V12.9151V12.914V12.9129V12.9118V12.9107V12.9095V12.9084V12.9073V12.9062V12.9051V12.9039V12.9028V12.9017V12.9005V12.8994V12.8982V12.8971V12.8959V12.8948V12.8936V12.8924V12.8913V12.8901V12.8889V12.8877V12.8865V12.8854V12.8842V12.883V12.8818V12.8806V12.8794V12.8782V12.8769V12.8757V12.8745V12.8733V12.8721V12.8708V12.8696V12.8684V12.8671V12.8659V12.8647V12.8634V12.8622V12.8609V12.8597V12.8584V12.8572V12.8559V12.8546V12.8534V12.8521V12.8508V12.8496V12.8483V12.847V12.8457V12.8444V12.8432V12.8419V12.8406V12.8393V12.838V12.8367V12.8354V12.8341V12.8328V12.8315V12.8302V12.8289V12.8276V12.8263V12.825V12.8236V12.8223V12.821V12.8197V12.8184V12.8171V12.8157V12.8144V12.8131V12.8117V12.8104V12.8091V12.8078V12.8064V12.8051V12.8037V12.8024V12.8011V12.7997V12.7984V12.797V12.7957V12.7944V12.793V12.7917V12.7903V12.789V12.7876V12.7863V12.7849V12.7836V12.7822V12.7809V12.7795V12.7782V12.7768V12.7755V12.7741V12.7728V12.7714V12.77V12.7687V12.7673V12.766V12.7646V12.7633V12.7619V12.7605V12.7592V12.7578V12.7565V12.7551V12.7537V12.7524V12.751V12.7497V12.7483V12.747V12.7456V12.7442V12.7429V12.7415V12.7402V12.7388V12.7375V12.7361V12.7348V12.7334V12.732V12.7307V12.7293V12.728V12.7266V12.7253V12.7239V12.7226V12.7212V12.7199V12.7186V12.7172V12.7159V12.7145V12.7132V12.7118V12.7105V12.7092V12.7078V12.7065V12.7052V12.7038V12.7025V12.7012V12.6998V12.6985V12.6972V12.6958V12.6945V12.6932V12.6919V12.6906V12.6892V12.6879V12.6866V12.6853V12.684V12.6827V12.6814V12.6801V12.6788V12.6775V12.6762V12.6749V12.6736V12.6723V12.671V12.6697V12.6684V12.6671V12.6659V12.6646V12.6633V12.662V12.6608V12.6595V12.6582V12.6569V12.6557V12.6544V12.6532V12.6519V12.6507V12.6494V12.6482V12.6469V12.6457V12.6444V12.6432V12.642V12.6407V12.6395V12.6383V12.6371V12.6359V12.6346V12.6334V12.6322V12.631V12.6298V12.6286V12.6274V12.6262V12.6251V12.6239V12.6227V12.6215V12.6203V12.6192V12.618V12.6168V12.6157V12.6145V12.6134V12.6122V12.6111V12.6099V12.6088V12.6077V12.6065V12.6054V12.6043V12.6032V12.6021V12.601V12.5998V12.5987V12.5976V12.5966V12.5955V12.5944V12.5933V12.5922V12.5912V12.5901V12.589V12.588V12.5869V12.5859V12.5848V12.5838V12.5828V12.5817V12.5807V12.5797V12.5787V12.5777V12.5767V12.5757V12.5747V12.5737V12.5727V12.5717V12.5707V12.5698V12.5688V12.5678V12.5669V12.5659V12.565V12.5641V12.5631V12.5622V12.5613V12.5604V12.5594V12.5585V12.5576V12.5567V12.5558V12.555V12.5541V12.5532V12.5524V12.5515V12.5506V12.5498V12.5489V12.5481V12.5473V12.5465V12.5456V12.5448V12.544V12.5432V12.5424V12.5416V12.5408V12.5401V12.5393V12.5385V12.5378V12.537V12.5363V12.5356V12.5348V12.5341V12.5334V12.5327V12.532V12.5313V12.5306V12.5299V12.5292V12.5285V12.5279V12.5272V12.5266V12.5259V12.5253V12.5247V12.524V12.5234V12.5228V12.5222V12.5216V12.521V12.5205V12.5199V12.5193V12.5188V12.5182V12.5177V12.5171V12.5166V12.5161V12.5156V12.5151V12.5146V12.5141V12.5136V12.5131V12.5127V12.5122V12.5118V12.5113V12.5109V12.5105V12.5101V12.5096V12.5092V12.5088V12.5085V12.5081V12.5077V12.5074V12.507V12.5067V12.5063V12.506V12.5057V12.5054V12.5051V12.5048V12.5045V12.5042V12.5039V12.5037V12.5034V12.5032V12.5029V12.5027V12.5025V12.5023V12.5021V12.5019V12.5017V12.5015V12.5014V12.5012V12.5011V12.5009V12.5008V12.5007V12.5006V12.5005V12.5004V12.5003V12.5003V12.5002V12.5001V12.5001V12.5001V12.5V12.5C22.2002 11.0086 20.9917 9.80002 19.5002 9.80002C18.0096 9.80002 16.8024 11.0087 16.8002 12.4987V12.499V14.799H15.0002C13.9078 14.799 12.8495 14.6409 11.8336 14.3307L11.557 14.2463L11.5757 14.5349C11.6915 16.3258 12.5201 17.8965 13.3088 19.0118C13.7042 19.5709 14.0924 20.0194 14.382 20.3285C14.5168 20.4723 14.6304 20.5861 14.7137 20.667C14.6373 20.7425 14.5337 20.843 14.4109 20.9571C14.1406 21.2082 13.7813 21.5216 13.4186 21.7789Z" fill="white" stroke="#1FB9B3" stroke-width="0.4"/>
</svg>
