<svg width="530" height="303" viewBox="0 0 530 303" fill="none" xmlns="http://www.w3.org/2000/svg">
<path opacity="0.1" d="M48.1487 109.353C73.0938 81.5173 114.108 65.4438 123.814 63.5915C186.642 51.528 250.237 15.4147 312.797 8.32977C375.357 1.24479 439.011 26.6244 482.577 124.478C505.923 177.009 497.87 222.068 465.164 243.184C342.996 322.237 218.687 328.17 105.884 256.146C83.6073 241.943 61.6959 224.591 42.417 195.744C18.7616 160.523 28.495 131.361 48.1487 109.353Z" fill="#F6F8F9"/>
<path opacity="0.1" d="M57.4559 77.1734C86.3905 53.5173 129.362 43.852 139.249 43.4723C203.191 41.0797 271.57 15.0533 334.496 17.6128C397.422 20.1724 456.475 54.8501 484.661 158.174C499.777 213.651 484.905 256.947 449.368 272.803C316.432 332.302 192.658 319.321 92.131 231.008C72.2811 213.541 53.2078 193.096 38.6064 161.667C20.5982 123.266 34.6609 95.8805 57.4559 77.1734L57.4559 77.1734Z" fill="#F6F8F9"/>
</svg>
