<svg width="531" height="320" viewBox="0 0 531 320" fill="none" xmlns="http://www.w3.org/2000/svg">
<path opacity="0.1" d="M49.055 115.767C74.0001 87.9314 115.014 71.8579 124.72 70.0055C187.548 57.9421 251.144 21.8288 313.704 14.7438C376.263 7.65885 439.917 33.0385 483.483 130.892C506.829 183.423 498.777 228.482 466.07 249.598C343.902 328.651 219.593 334.584 106.79 262.56C84.5136 248.357 62.6021 231.005 43.3233 202.158C19.6679 166.937 29.4012 137.775 49.055 115.767Z" fill="#F6F8F9"/>
<path opacity="0.1" d="M58.3621 83.5865C87.2967 59.9304 130.268 50.2651 140.155 49.8854C204.097 47.4927 272.476 21.4664 335.402 24.0259C398.328 26.5855 457.381 61.2632 485.567 164.587C500.683 220.064 485.811 263.36 450.274 279.216C317.338 338.715 193.564 325.734 93.0373 237.421C73.1873 219.954 54.1141 199.51 39.5126 168.08C21.5045 129.679 35.5672 102.294 58.3621 83.5865L58.3621 83.5865Z" fill="#F6F8F9"/>
<path d="M340.271 163.878C389.052 192.041 389.309 237.706 340.846 265.875C292.383 294.044 213.538 294.039 164.757 265.875C115.977 237.712 115.714 192.025 164.177 163.878C212.64 135.731 291.485 135.693 340.271 163.878Z" fill="#F0F0F0"/>
<path d="M234.988 150.834L229.512 147.674C228.929 147.338 228.268 147.161 227.595 147.161C226.923 147.161 226.262 147.338 225.679 147.674L188.606 169.08C181.043 167.958 172.725 169.08 166.811 172.519C160.897 175.958 158.98 180.733 160.886 185.081L136.501 199.16C136.251 199.304 136.043 199.512 135.898 199.762C135.754 200.012 135.678 200.295 135.678 200.584C135.678 200.873 135.754 201.156 135.898 201.406C136.043 201.656 136.251 201.864 136.501 202.008L141.977 205.162C142.56 205.498 143.221 205.676 143.894 205.676C144.567 205.676 145.228 205.498 145.81 205.162L168.531 192.047C177.517 196.346 190.813 196.066 199.197 191.203C207.58 186.341 208.002 178.702 200.648 173.516L234.988 153.676C235.237 153.532 235.444 153.324 235.587 153.075C235.731 152.825 235.807 152.543 235.807 152.255C235.807 151.967 235.731 151.684 235.587 151.435C235.444 151.186 235.237 150.978 234.988 150.834Z" fill="#E0E0E0"/>
<path d="M280.171 170.717C289.103 175.875 289.152 184.243 280.275 189.401C271.399 194.56 256.953 194.56 248.016 189.401C239.079 184.243 239.035 175.875 247.912 170.717C256.789 165.558 271.234 165.558 280.171 170.717Z" fill="#E1E1E1"/>
<path d="M346.213 198.794C355.15 203.952 355.193 212.314 346.317 217.478C337.44 222.642 323 222.637 314.063 217.478C305.126 212.32 305.076 203.952 313.953 198.794C322.83 193.635 337.276 193.63 346.213 198.794Z" fill="#E1E1E1"/>
<path d="M220.669 236.627C229.605 241.786 229.655 250.153 220.773 255.311C211.89 260.47 197.455 260.47 188.519 255.311C179.582 250.153 179.532 241.786 188.414 236.627C197.297 231.469 211.732 231.469 220.669 236.627Z" fill="#E1E1E1"/>
<path d="M252.72 269.494C248.794 265.486 246.488 253.526 250.316 250.328H269.811C273.644 253.521 271.333 265.453 267.412 269.494L267.303 269.604L267.166 269.735C267.056 269.845 266.936 269.949 266.815 270.053L266.717 270.13C266.624 270.201 266.525 270.277 266.421 270.349C266.317 270.42 266.081 270.579 265.912 270.677C262.681 272.539 257.446 272.539 254.215 270.677C254.04 270.573 253.864 270.464 253.7 270.349C253.536 270.234 253.514 270.212 253.426 270.135L253.311 270.047C253.185 269.949 253.076 269.845 252.966 269.746L252.813 269.587L252.72 269.494Z" fill="#37474F"/>
<path d="M268.097 249.07C272.549 251.638 272.549 255.805 268.097 258.379C263.645 260.953 256.439 260.947 251.992 258.379C247.546 255.811 247.546 251.649 251.992 249.07C256.439 246.49 263.673 246.501 268.097 249.07Z" fill="#455A64"/>
<path d="M265.95 250.307C269.236 252.191 269.236 255.236 265.95 257.152C262.665 259.069 257.391 259.036 254.122 257.152C250.853 255.268 250.836 252.224 254.122 250.307C257.408 248.39 262.692 248.418 265.95 250.307Z" fill="#2E353A"/>
<path d="M254.155 253.548C257.441 251.664 262.714 251.664 265.983 253.548C266.773 253.974 267.444 254.59 267.938 255.339C267.442 256.088 266.766 256.702 265.972 257.124C262.687 259.008 257.413 259.008 254.144 257.124C253.351 256.701 252.678 256.082 252.189 255.328C252.687 254.581 253.363 253.97 254.155 253.548Z" fill="#EBEBEB"/>
<path d="M256.723 245.575C257.304 244.705 258.164 244.037 258.689 243.128C259.784 241.222 258.47 239.36 259.023 237.421C259.167 237.004 259.397 236.621 259.698 236.297C259.999 235.974 260.364 235.717 260.77 235.543C261.585 235.208 262.442 234.985 263.316 234.881C263.784 234.831 264.24 234.701 264.664 234.497C265.167 234.212 265.321 233.714 265.638 233.276C266.001 232.796 266.414 232.355 266.87 231.962C267.754 231.064 268.952 230.546 270.211 230.516C272.861 230.637 272.79 232.92 272.034 234.645C271.279 236.37 271.071 236.929 272.724 238.752C274.378 240.576 274.367 242.772 272.412 244.015C270.457 245.258 269.127 245.427 269.932 247.815C270.627 249.956 271.06 251.78 269.083 254.069C268.463 254.85 267.671 255.476 266.768 255.899C265.866 256.322 264.877 256.53 263.881 256.506C259.927 256.341 256.707 253.138 256.05 249.332C255.813 248.098 256.024 246.82 256.647 245.729L256.723 245.575Z" fill="#004A61"/>
<path opacity="0.3" d="M256.723 245.575C257.304 244.705 258.164 244.037 258.689 243.128C259.784 241.222 258.47 239.36 259.023 237.421C259.167 237.004 259.397 236.621 259.698 236.297C259.999 235.974 260.364 235.717 260.77 235.543C261.585 235.208 262.442 234.985 263.316 234.881C263.784 234.831 264.24 234.701 264.664 234.497C265.167 234.212 265.321 233.714 265.638 233.276C266.001 232.796 266.414 232.355 266.87 231.962C267.754 231.064 268.952 230.546 270.211 230.516C272.861 230.637 272.79 232.92 272.034 234.645C271.279 236.37 271.071 236.929 272.724 238.752C274.378 240.576 274.367 242.772 272.412 244.015C270.457 245.258 269.127 245.427 269.932 247.815C270.627 249.956 271.06 251.78 269.083 254.069C268.463 254.85 267.671 255.476 266.768 255.899C265.866 256.322 264.877 256.53 263.881 256.506C259.927 256.341 256.707 253.138 256.05 249.332C255.813 248.098 256.024 246.82 256.647 245.729L256.723 245.575Z" fill="#004A61"/>
<path opacity="0.3" d="M256.723 245.575C257.304 244.705 258.164 244.037 258.689 243.128C259.784 241.222 258.47 239.36 259.023 237.421C259.167 237.004 259.397 236.621 259.698 236.297C259.999 235.974 260.364 235.717 260.77 235.543C261.585 235.208 262.442 234.985 263.316 234.881C263.784 234.831 264.24 234.701 264.664 234.497C265.167 234.212 265.321 233.714 265.638 233.276C266.001 232.796 266.414 232.355 266.87 231.962C267.754 231.064 268.952 230.546 270.211 230.516C272.861 230.637 272.79 232.92 272.034 234.645C271.279 236.37 271.071 236.929 272.724 238.752C274.378 240.576 274.367 242.772 272.412 244.015C270.457 245.258 269.127 245.427 269.932 247.815C270.627 249.956 271.06 251.78 269.083 254.069C268.463 254.85 267.671 255.476 266.768 255.899C265.866 256.322 264.877 256.53 263.881 256.506C259.927 256.341 256.707 253.138 256.05 249.332C255.813 248.098 256.024 246.82 256.647 245.729L256.723 245.575Z" fill="black"/>
<path d="M270.233 240.861C270.22 240.811 270.188 240.768 270.144 240.742C270.1 240.715 270.047 240.707 269.997 240.718C267.859 241.279 265.785 242.063 263.809 243.056C264.947 240.017 266.595 237.195 268.683 234.711C268.701 234.693 268.716 234.671 268.726 234.647C268.736 234.623 268.741 234.597 268.741 234.571C268.741 234.545 268.736 234.52 268.726 234.496C268.716 234.472 268.701 234.45 268.683 234.432C268.646 234.397 268.597 234.378 268.546 234.378C268.495 234.378 268.447 234.397 268.409 234.432C266.665 236.493 265.233 238.799 264.16 241.277C263.631 240.114 262.96 239.021 262.161 238.024C262.143 238.006 262.121 237.991 262.097 237.981C262.073 237.971 262.047 237.966 262.021 237.966C261.995 237.966 261.97 237.971 261.946 237.981C261.922 237.991 261.9 238.006 261.882 238.024C261.864 238.042 261.849 238.063 261.839 238.087C261.829 238.11 261.824 238.135 261.824 238.161C261.824 238.186 261.829 238.212 261.839 238.235C261.849 238.259 261.864 238.28 261.882 238.298C262.731 239.36 263.432 240.534 263.963 241.786C263.738 242.306 263.503 242.854 263.3 243.429C263.268 243.467 263.25 243.516 263.251 243.566C261.816 247.462 261.104 251.587 261.148 255.739C261.147 255.764 261.151 255.789 261.16 255.813C261.169 255.836 261.183 255.858 261.2 255.876C261.217 255.895 261.238 255.909 261.261 255.92C261.284 255.93 261.309 255.935 261.334 255.936H261.4C261.439 255.924 261.474 255.899 261.498 255.865C261.523 255.832 261.536 255.791 261.537 255.75C261.494 251.641 262.201 247.558 263.623 243.703C265.983 242.246 270.085 241.167 270.123 241.151C270.173 241.138 270.216 241.106 270.242 241.062C270.269 241.018 270.277 240.965 270.266 240.915C270.266 240.915 270.238 240.866 270.233 240.861Z" fill="white"/>
<path d="M260.37 256.878C260.261 256.944 259.352 257.262 259.22 257.3C257.764 257.722 255.863 257.497 254.144 257.24C253.016 257.07 251.488 256.834 250.65 255.991C250.431 255.793 250.276 255.534 250.203 255.248C250.131 254.961 250.146 254.66 250.245 254.381C250.508 253.834 251.252 253.467 251.313 252.842C250.081 252.432 248.624 252.755 247.523 252.07C246.726 251.527 246.125 250.742 245.809 249.831C245.544 249.257 245.515 248.602 245.727 248.007C246.023 247.394 246.822 247.246 247.496 247.142C247.676 247.129 247.851 247.078 248.011 246.994C248.089 246.948 248.153 246.88 248.194 246.798C248.235 246.716 248.251 246.625 248.241 246.534C248.186 246.315 247.956 246.205 247.742 246.14C247.282 245.992 246.828 245.904 246.373 245.734C245.922 245.584 245.536 245.285 245.278 244.886C245.044 244.372 244.972 243.799 245.07 243.243C245.148 242.285 245.282 241.332 245.47 240.39C245.601 239.573 245.678 238.748 245.7 237.92C248.085 237.47 250.538 237.526 252.901 238.084C254.204 238.353 256.093 238.961 256.663 240.319C256.811 240.708 256.86 241.127 256.805 241.54C256.776 241.725 256.734 241.908 256.679 242.087C256.652 242.197 256.537 242.635 256.816 242.443C256.875 242.39 256.922 242.325 256.953 242.252L257.868 240.428C257.939 240.237 258.064 240.072 258.229 239.952C258.596 239.722 259.598 239.902 260.617 240.724C261.285 241.314 261.738 242.109 261.903 242.985C262.119 244.377 262.065 245.798 261.745 247.169L262.632 245.932C263.678 244.486 264.318 247.131 264.362 247.7C264.462 249.479 264.18 251.258 263.535 252.919C262.899 254.525 261.797 255.904 260.37 256.878Z" fill="#004A61"/>
<path d="M257.599 250.044C257.687 247.705 258.289 245.415 259.362 243.336V243.292C259.373 243.271 259.379 243.248 259.38 243.225C259.381 243.202 259.378 243.179 259.371 243.157C259.363 243.135 259.351 243.115 259.336 243.098C259.32 243.08 259.301 243.066 259.28 243.056C259.237 243.035 259.188 243.032 259.143 243.048C259.098 243.063 259.061 243.096 259.039 243.138V243.188C258.038 245.146 257.434 247.282 257.26 249.474C254.423 244.699 250.267 240.165 248.082 238.988C248.037 238.964 247.986 238.959 247.937 238.973C247.889 238.988 247.849 239.02 247.824 239.064C247.812 239.085 247.803 239.108 247.8 239.132C247.796 239.156 247.798 239.181 247.804 239.204C247.81 239.228 247.821 239.25 247.836 239.269C247.85 239.288 247.869 239.304 247.89 239.316C250.048 240.488 254.155 244.978 256.948 249.721C254.694 248.772 252.188 248.604 249.829 249.244C249.784 249.259 249.747 249.291 249.725 249.333C249.704 249.375 249.7 249.424 249.714 249.469C249.725 249.5 249.744 249.527 249.769 249.548C249.794 249.569 249.824 249.583 249.856 249.589H249.944C252.379 248.934 254.968 249.171 257.243 250.257C258.465 252.249 259.32 254.443 259.768 256.736C259.772 256.771 259.786 256.805 259.808 256.833C259.83 256.861 259.86 256.882 259.894 256.894H259.981C260.029 256.888 260.072 256.863 260.101 256.825C260.131 256.787 260.145 256.739 260.14 256.692C259.877 254.638 258.903 252.327 257.599 250.044Z" fill="white"/>
<path d="M183.135 189.259V193.93C183.135 194.148 183.222 194.357 183.376 194.511C183.53 194.665 183.739 194.752 183.957 194.752C184.175 194.752 184.383 194.665 184.537 194.511C184.692 194.357 184.778 194.148 184.778 193.93V189.259H183.135Z" fill="#004A61"/>
<path d="M184.772 167.059C184.772 166.841 184.686 166.632 184.532 166.478C184.378 166.324 184.169 166.238 183.951 166.238C183.733 166.238 183.524 166.324 183.37 166.478C183.216 166.632 183.129 166.841 183.129 167.059V189.259H184.772V167.059Z" fill="#263238"/>
<path d="M186.76 165.488C186.683 165.405 186.589 165.338 186.484 165.293C186.379 165.248 186.266 165.225 186.152 165.226C186.038 165.227 185.926 165.251 185.822 165.298C185.718 165.345 185.624 165.413 185.548 165.497C185.472 165.582 185.414 165.682 185.378 165.79C185.342 165.899 185.33 166.013 185.341 166.127C185.352 166.24 185.386 166.35 185.442 166.45C185.498 166.549 185.574 166.636 185.665 166.704L200.451 180.033L201.617 178.872L186.76 165.488Z" fill="#263238"/>
<path d="M204.201 181.237L201.584 178.871L200.417 180.032L203.101 182.452C203.251 182.589 203.446 182.665 203.648 182.666C203.763 182.665 203.877 182.641 203.983 182.595C204.088 182.549 204.183 182.482 204.262 182.397C204.406 182.235 204.481 182.022 204.47 181.805C204.459 181.587 204.362 181.383 204.201 181.237Z" fill="#004A61"/>
<path d="M163.706 181.237C163.545 181.383 163.448 181.587 163.437 181.805C163.426 182.022 163.501 182.235 163.645 182.397C163.724 182.482 163.819 182.549 163.924 182.595C164.03 182.641 164.144 182.665 164.259 182.666C164.461 182.665 164.656 182.589 164.806 182.452L167.49 180.032L166.329 178.871L163.706 181.237Z" fill="#004A61"/>
<path d="M182.308 165.548C182.236 165.467 182.149 165.401 182.051 165.354C181.954 165.307 181.848 165.28 181.74 165.275C181.632 165.269 181.524 165.285 181.422 165.322C181.32 165.358 181.227 165.415 181.147 165.488L166.329 178.871L167.49 180.032L182.275 166.703C182.432 166.554 182.523 166.349 182.529 166.132C182.535 165.916 182.456 165.706 182.308 165.548Z" fill="#263238"/>
<path d="M188.786 165H179.132V167.798C179.132 168.516 179.614 169.233 180.561 169.781C181.62 170.318 182.791 170.598 183.978 170.598C185.166 170.598 186.336 170.318 187.395 169.781C188.332 169.233 188.803 168.516 188.797 167.798L188.786 165Z" fill="#37474F"/>
<path d="M187.346 163.023C189.235 164.118 189.246 165.887 187.346 166.977C186.288 167.517 185.117 167.798 183.929 167.798C182.741 167.798 181.57 167.517 180.512 166.977C178.617 165.882 178.606 164.113 180.512 163.023C181.57 162.484 182.741 162.203 183.929 162.203C185.116 162.203 186.287 162.484 187.346 163.023Z" fill="#455A64"/>
<path d="M182.587 62.6851V164.704C182.601 164.822 182.645 164.935 182.715 165.031C182.785 165.127 182.879 165.203 182.987 165.252C183.287 165.406 183.619 165.486 183.956 165.486C184.293 165.486 184.626 165.406 184.926 165.252C185.034 165.204 185.128 165.128 185.197 165.031C185.266 164.935 185.309 164.822 185.32 164.704V62.6851H182.587Z" fill="#263238"/>
<path d="M139.244 86.4237V174.216L227.88 123.048V34.8665L139.244 86.4237Z" fill="#455A64"/>
<path d="M142.524 88.308L224.594 40.5786V121.148L142.524 168.532V88.308Z" fill="#FAFAFA"/>
<path d="M141.741 85.0223C142.464 85.4928 143.065 86.1274 143.497 86.8744C143.928 87.6215 144.176 88.4597 144.222 89.321C144.222 90.8981 143.127 91.5114 141.725 90.7393C141.002 90.2687 140.401 89.6341 139.97 88.8871C139.538 88.1401 139.29 87.3018 139.244 86.4406C139.25 84.8415 140.367 84.2063 141.741 85.0223Z" fill="#263238"/>
<path d="M233.345 37.5063C233.345 37.4625 233.345 37.4242 233.345 37.3858C233.345 37.3475 233.345 37.3475 233.345 37.3311V37.3037C233.345 37.3037 233.345 37.2763 233.345 37.2599C233.347 37.2198 233.347 37.1795 233.345 37.1394C233.347 37.0975 233.347 37.0554 233.345 37.0135C233.347 36.9733 233.347 36.9331 233.345 36.893C233.345 36.8492 233.345 36.8109 233.345 36.767C233.342 36.7507 233.342 36.7341 233.345 36.7178V36.6904V36.6356L233.312 36.5042C233.3 36.4721 233.291 36.4391 233.285 36.4056V36.3728C233.285 36.329 233.285 36.2852 233.241 36.2413C233.229 36.1985 233.214 36.1565 233.197 36.1154V36.0387L233.148 35.9183C233.148 35.8854 233.12 35.858 233.109 35.8306V35.7375C233.089 35.6985 233.07 35.6582 233.055 35.6171L232.989 35.4856C232.989 35.4473 232.95 35.4145 232.934 35.3816L232.863 35.2502L232.825 35.1899V35.1626L232.753 35.053L232.655 34.8942C232.605 34.8176 232.551 34.7464 232.496 34.6697C232.458 34.6204 232.425 34.5711 232.386 34.5273L232.293 34.4123L232.2 34.2973L232.102 34.1933L232.03 34.1221L231.926 34.0181L231.894 33.9907L231.839 33.9414L231.729 33.8428L231.68 33.8045L231.642 33.7771L231.532 33.6895L231.45 33.6347L231.346 33.569L231.242 33.5033H231.215L231.138 33.4595L231.034 33.4047H230.968L230.864 33.3609L230.766 33.3226H230.733H230.667L230.563 33.2952H230.514H230.459C230.422 33.2922 230.386 33.2922 230.349 33.2952H230.284H229.993L229.511 32.9995H229.479L229.336 33.0378L229.15 33.1255L139.967 84.8251C140.027 84.7881 140.091 84.7587 140.158 84.7374C140.208 84.7171 140.259 84.7024 140.312 84.6936H140.498H140.542C140.604 84.6881 140.666 84.6881 140.728 84.6936L140.936 84.721L141.155 84.7867L141.391 84.8853L141.637 85.0167C141.719 85.0605 141.801 85.1153 141.883 85.17C141.96 85.2248 142.037 85.2796 142.108 85.3398C142.179 85.4 142.25 85.4603 142.316 85.526H142.343L142.552 85.7341C142.623 85.8107 142.694 85.8929 142.76 85.975C142.825 86.0572 142.896 86.1448 142.962 86.2379C143.022 86.3145 143.077 86.4022 143.137 86.4843L143.236 86.6431L143.318 86.78C143.329 86.8031 143.342 86.8251 143.356 86.8457L143.482 87.0757V87.1031C143.532 87.1962 143.576 87.2948 143.619 87.3933C143.658 87.4919 143.701 87.585 143.734 87.6836C143.773 87.7821 143.806 87.8807 143.838 87.9793C143.87 88.0725 143.895 88.1676 143.915 88.264C143.915 88.3626 143.953 88.4612 143.97 88.5543C143.97 88.6528 143.997 88.7514 144.008 88.85C144.008 88.9485 144.008 89.0416 144.008 89.1402C144.008 89.2388 144.008 89.3209 144.008 89.4085C144.003 89.4859 143.992 89.5628 143.975 89.6385V89.6714C143.975 89.7426 143.942 89.8083 143.921 89.874C143.924 89.8866 143.924 89.8997 143.921 89.9123C143.9 89.972 143.876 90.0305 143.849 90.0876C143.816 90.1533 143.784 90.2135 143.751 90.2683L143.652 90.3942L143.614 90.438C143.614 90.4709 143.554 90.4983 143.521 90.5311L143.482 90.564C143.437 90.6018 143.387 90.6348 143.335 90.6625L232.638 39.2149C232.688 39.1833 232.736 39.1485 232.781 39.1108L232.819 39.078L232.912 38.9903L232.95 38.9465C232.986 38.907 233.019 38.8649 233.049 38.8206C233.085 38.7659 233.118 38.7092 233.148 38.6508C233.165 38.6134 233.179 38.575 233.191 38.5358C233.193 38.5158 233.193 38.4956 233.191 38.4756C233.193 38.4629 233.193 38.45 233.191 38.4373C233.194 38.4264 233.194 38.4152 233.191 38.4044C233.207 38.3639 233.218 38.3216 233.224 38.2784C233.227 38.2621 233.227 38.2455 233.224 38.2292V38.147C233.224 38.147 233.224 38.1142 233.224 38.0977V37.9827C233.227 37.9591 233.227 37.9352 233.224 37.9115V37.8623C233.224 37.8239 233.224 37.7856 233.224 37.7418V37.6213L233.345 37.5063Z" fill="#37474F"/>
<path d="M149.386 110.092L158.148 110.847L158.18 122.467C152.595 125.693 148.055 123.108 148.033 116.685C148.077 114.423 148.535 112.188 149.386 110.092Z" fill="#004A61"/>
<path d="M163.208 97.8416C166.225 98.1154 168.262 100.695 168.273 104.993C168.273 111.417 163.777 119.231 158.192 122.467L158.159 110.836L163.164 97.9073L163.208 97.8416Z" fill="#004A61"/>
<path d="M158.126 99.2266C159.634 98.2632 161.403 97.7871 163.191 97.8631V97.9288L158.159 110.847L149.397 110.091C151.127 105.612 154.386 101.384 158.126 99.2266Z" fill="#004A61"/>
<g opacity="0.2">
<path d="M158.126 99.2266C159.634 98.2632 161.403 97.7871 163.191 97.8631V97.9288L158.159 110.847L149.397 110.091C151.127 105.612 154.386 101.384 158.126 99.2266Z" fill="white"/>
</g>
<path d="M149.386 110.092L158.148 110.847L158.18 122.467C152.595 125.693 148.055 123.108 148.033 116.685C148.077 114.423 148.535 112.188 149.386 110.092Z" fill="#004A61"/>
<path d="M153.389 142.735L153.394 144.646L148.132 147.68L148.126 145.774L153.389 142.735Z" fill="#E0E0E0"/>
<path d="M155.787 133.709L155.793 135.615L148.11 140.051L148.104 138.145L155.787 133.709Z" fill="#E0E0E0"/>
<path d="M165.086 132.165L165.091 134.071L148.121 143.868L148.115 141.956L165.086 132.165Z" fill="#E0E0E0"/>
<path d="M192.723 112.386L192.729 114.292L177.034 123.349L177.029 121.443L192.723 112.386Z" fill="#E0E0E0"/>
<g opacity="0.1">
<path d="M163.208 97.8416C166.225 98.1154 168.262 100.695 168.273 104.993C168.273 111.417 163.777 119.231 158.192 122.467L158.159 110.836L163.164 97.9073L163.208 97.8416Z" fill="black"/>
</g>
<path d="M175.392 89.2605C176.235 88.7731 176.919 89.1619 176.925 90.1312C176.897 90.6613 176.744 91.1772 176.478 91.6368C176.213 92.0965 175.842 92.4869 175.397 92.7761C174.554 93.2635 173.869 92.8692 173.864 91.8999C173.892 91.3705 174.044 90.8552 174.31 90.3963C174.576 89.9375 174.946 89.5482 175.392 89.2605Z" fill="#004A61"/>
<path d="M175.408 95.3177C176.252 94.8303 176.936 95.2191 176.941 96.1939C176.913 96.7225 176.76 97.237 176.496 97.6956C176.231 98.1542 175.862 98.544 175.419 98.8333C174.57 99.3207 173.886 98.9319 173.88 97.9572C173.909 97.4278 174.062 96.9127 174.327 96.4539C174.593 95.9951 174.963 95.6058 175.408 95.3177Z" fill="#004A61"/>
<path d="M175.425 101.374C176.268 100.887 176.958 101.281 176.958 102.25C176.931 102.779 176.779 103.294 176.514 103.753C176.25 104.212 175.88 104.601 175.436 104.89C174.587 105.383 173.902 104.983 173.897 104.014C173.925 103.484 174.078 102.969 174.344 102.51C174.609 102.052 174.98 101.662 175.425 101.374Z" fill="#004A61"/>
<path d="M175.441 107.43C176.284 106.943 176.974 107.337 176.974 108.306C176.947 108.835 176.795 109.35 176.53 109.809C176.266 110.268 175.896 110.657 175.452 110.946C174.603 111.433 173.918 111.044 173.918 110.075C173.945 109.545 174.097 109.029 174.362 108.569C174.626 108.11 174.996 107.719 175.441 107.43Z" fill="#004A61"/>
<path d="M184.006 85.0325L184.011 87.0477L178.979 89.9555L178.973 87.9348L184.006 85.0325Z" fill="#E0E0E0"/>
<path d="M190.725 81.1514L190.73 83.172L185.703 86.0744L185.698 84.0592L190.725 81.1514Z" fill="#E0E0E0"/>
<path d="M192.68 98.2312L192.685 100.246L185.446 104.43L185.44 102.409L192.68 98.2312Z" fill="#E0E0E0"/>
<path d="M188.244 94.7195L188.249 96.7401L179.011 102.074L179.006 100.053L188.244 94.7195Z" fill="#E0E0E0"/>
<path d="M185.353 90.3223L185.358 92.3375L178.995 96.0119L178.99 93.9967L185.353 90.3223Z" fill="#E0E0E0"/>
<path d="M184.055 103.208L184.06 105.229L179.033 108.131L179.028 106.116L184.055 103.208Z" fill="#E0E0E0"/>
<path d="M169.149 133.639L169.154 135.545L156.067 143.102L156.061 141.191L169.149 133.639Z" fill="#E0E0E0"/>
<path d="M162.293 126.132L162.304 128.043L148.105 136.241L148.099 134.33L162.293 126.132Z" fill="#E0E0E0"/>
<path d="M192.735 116.204L192.74 118.109L185.747 122.145L185.742 120.239L192.735 116.204Z" fill="#E0E0E0"/>
<path d="M192.746 120.015L192.751 121.926L183.223 127.424L183.217 125.513L192.746 120.015Z" fill="#E0E0E0"/>
<path d="M206.129 104.643L206.134 106.548L198.451 110.984L198.446 109.078L206.129 104.643Z" fill="#E0E0E0"/>
<path d="M218.598 97.4465L218.604 99.3522L208.292 105.305L208.287 103.399L218.598 97.4465Z" fill="#E0E0E0"/>
<path d="M205.587 79.6453L205.636 96.8073L202.761 98.472L202.712 81.3045L205.587 79.6453Z" fill="#004A61"/>
<path d="M209.907 80.011L209.951 94.32L207.076 95.9792L207.032 81.6757L209.907 80.011Z" fill="#004A61"/>
<path d="M214.201 71.0745L214.261 91.8288L211.386 93.488L211.326 72.7337L214.201 71.0745Z" fill="#004A61"/>
<path d="M218.505 65.0188L218.576 89.338L215.701 90.9973L215.63 66.6835L218.505 65.0188Z" fill="#004A61"/>
<path d="M203.725 113.673L203.731 115.584L198.474 118.618L198.468 116.707L203.725 113.673Z" fill="#E0E0E0"/>
<path d="M180.545 127.057V128.968L171.827 134.001L171.821 132.095L180.545 127.057Z" fill="#E0E0E0"/>
<path d="M183.069 121.782V123.688L167.764 132.527L167.758 130.621L183.069 121.782Z" fill="#E0E0E0"/>
<path d="M175.934 118.257L175.939 120.168L164.976 126.493L164.971 124.587L175.934 118.257Z" fill="#E0E0E0"/>
<path d="M174.351 122.993L174.357 124.899L158.471 134.071L158.465 132.165L174.351 122.993Z" fill="#E0E0E0"/>
<path d="M218.62 105.075L218.625 106.981L206.408 114.034L206.403 112.128L218.62 105.075Z" fill="#E0E0E0"/>
<path d="M218.609 101.264L218.614 103.17L198.463 114.801L198.457 112.896L218.609 101.264Z" fill="#E0E0E0"/>
<path d="M212.635 97.0635L212.64 98.9746L198.441 107.172L198.435 105.267L212.635 97.0635Z" fill="#E0E0E0"/>
<path d="M218.576 90.772L218.582 91.7686L198.457 103.389L198.452 102.387L218.576 90.772Z" fill="#395A65"/>
<path d="M201.293 89.2109L201.326 99.2979L198.451 100.957L198.418 90.8702L201.293 89.2109Z" fill="#004A61"/>
<path d="M352.022 124.922C351.228 133.738 351.907 134.642 345.917 134.193V124.922H352.022Z" fill="#F28F8F"/>
<path d="M345.522 109.117C350.834 108.778 355.242 110.59 352.416 125.787C349.815 127.199 345.522 126.416 345.522 126.416V109.117Z" fill="#37474F"/>
<path d="M335.703 212.572C335.326 213.766 334.017 214.45 332.768 214.549C331.52 214.647 330.288 214.297 329.055 214.072C326.317 213.574 323.64 214.072 320.891 214.006C319.993 214.012 319.098 213.912 318.224 213.711C317.335 213.51 316.531 213.037 315.924 212.358C315.58 211.946 315.353 211.448 315.267 210.918C315.21 211.318 315.24 211.726 315.353 212.114C315.466 212.502 315.661 212.862 315.924 213.169C316.534 213.844 317.337 214.316 318.224 214.521C319.104 214.722 320.004 214.82 320.907 214.811C323.645 214.877 326.317 214.379 329.072 214.883C330.304 215.102 331.536 215.43 332.785 215.354C334.033 215.277 335.342 214.576 335.72 213.382C335.837 212.97 335.871 212.538 335.818 212.112C335.794 212.268 335.755 212.422 335.703 212.572Z" fill="#263238"/>
<path d="M335.632 210.289C335.463 209.457 335.293 208.619 335.128 207.787C335.064 207.339 334.919 206.907 334.701 206.511C334.591 206.317 334.432 206.155 334.24 206.043C334.048 205.93 333.829 205.871 333.606 205.87C332.1 205.673 329.975 205.125 328.721 205.99C326.737 207.347 324.372 208.034 321.969 207.951C320.721 207.902 319.472 207.644 318.229 207.797C316.986 207.951 315.705 208.641 315.332 209.835C315.229 210.19 315.208 210.565 315.272 210.93C315.358 211.46 315.585 211.958 315.929 212.37C316.537 213.044 317.339 213.513 318.224 213.712C319.104 213.914 320.004 214.014 320.907 214.007C323.645 214.073 326.317 213.575 329.072 214.073C330.304 214.298 331.536 214.621 332.785 214.549C334.033 214.478 335.342 213.766 335.72 212.573C335.766 212.423 335.799 212.269 335.818 212.113C335.852 211.499 335.789 210.883 335.632 210.289Z" fill="#37474F"/>
<path d="M328.333 203.361L328.223 206.647C328.211 206.981 328.329 207.308 328.553 207.557C328.776 207.806 329.088 207.959 329.422 207.983C330.517 208.062 331.615 208.051 332.708 207.95C333.151 207.91 333.566 207.711 333.874 207.39C334.183 207.069 334.366 206.648 334.389 206.203L334.521 203.794L328.333 203.361Z" fill="#FFBF9D"/>
<path d="M349.64 201.626C349.628 202.11 349.476 202.579 349.202 202.978C348.815 203.448 348.266 203.757 347.663 203.844C346.941 203.968 346.199 203.887 345.521 203.609C344.843 203.331 344.257 202.868 343.83 202.272C343.42 201.675 343.19 200.974 342.801 200.366C342.21 199.554 341.484 198.85 340.654 198.285C339.827 197.717 339.098 197.018 338.497 196.215C338.213 195.82 338.027 195.364 337.955 194.883C337.882 194.402 337.925 193.911 338.08 193.45C338.005 193.561 337.939 193.678 337.883 193.8C337.7 194.284 337.639 194.806 337.706 195.319C337.772 195.832 337.965 196.321 338.267 196.741C338.874 197.567 339.614 198.287 340.457 198.871C341.307 199.456 342.048 200.184 342.647 201.023C343.042 201.648 343.283 202.37 343.699 202.984C344.128 203.598 344.723 204.079 345.414 204.369C346.105 204.66 346.864 204.749 347.603 204.627C348.22 204.535 348.78 204.217 349.175 203.734C349.529 203.175 349.688 202.515 349.629 201.856C349.651 201.768 349.646 201.697 349.64 201.626Z" fill="#263238"/>
<path d="M348.654 197.53C347.657 195.794 345.615 194.529 344.032 193.297C343.171 192.546 342.109 192.062 340.977 191.906C340.411 191.839 339.838 191.941 339.331 192.201C338.824 192.46 338.406 192.864 338.129 193.362C338.129 193.39 338.129 193.423 338.091 193.45C337.936 193.911 337.893 194.402 337.965 194.883C338.038 195.364 338.223 195.821 338.507 196.215C339.109 197.018 339.838 197.717 340.665 198.285C341.495 198.85 342.221 199.554 342.811 200.366C343.2 200.974 343.43 201.675 343.841 202.272C344.267 202.868 344.853 203.331 345.531 203.609C346.209 203.887 346.952 203.968 347.674 203.844C348.277 203.757 348.826 203.449 349.213 202.978C349.487 202.58 349.639 202.11 349.651 201.626C349.659 201.469 349.659 201.312 349.651 201.155C349.625 199.883 349.282 198.637 348.654 197.53Z" fill="#37474F"/>
<path d="M344.35 196.023V198.991C345.079 199.332 345.88 199.492 346.684 199.455C347.488 199.419 348.271 199.188 348.966 198.783L349.246 196.116L344.35 196.023Z" fill="#FFBF9D"/>
<path d="M350.023 142.21C350.91 144.877 349.815 157.543 349.3 169.717C351.228 174.317 350.708 187.366 349.596 196.637C349.596 196.637 347.669 197.82 344.18 196.637L339.799 171.053L339.197 156.591C339.197 156.591 338.102 169.421 336.837 177.652C338.02 183.955 337.724 185.143 334.794 204.528C333.775 205.041 332.65 205.309 331.509 205.309C330.367 205.309 329.242 205.041 328.223 204.528C326.58 177.29 327.177 152.467 327.489 143.541L350.023 142.21Z" fill="#455A64"/>
<path d="M326.986 121.741V144.286C340.26 149.844 348.857 144.834 350.029 142.211C349.416 133.033 351.584 122.3 351.42 117.738C351.256 113.176 350.692 108.04 343.622 109.069L336.103 109.803L332.27 110.729L326.986 121.741Z" fill="#004A61"/>
<path d="M331.629 92.2629C330.019 91.6551 328.442 89.3387 330.058 88.3201C330.507 87.9861 331.815 88.3749 332.872 88.3201C331.947 87.4823 331.722 86.4802 332.188 86.168C332.653 85.8559 333.896 87.0387 336.147 86.8142C338.398 86.5897 346.157 84.0762 347.132 89.7658C347.243 89.5706 347.396 89.4028 347.58 89.2751C347.765 89.1474 347.976 89.063 348.197 89.0283C348.419 88.9935 348.646 89.0093 348.861 89.0744C349.075 89.1395 349.272 89.2523 349.437 89.4044L347.795 90.4996C350.188 93.8619 349.41 97.7554 343.616 105.449C342.944 106.272 341.989 106.813 340.939 106.967C339.888 107.121 338.817 106.877 337.938 106.282L335.545 100.384L333.212 97.5473L331.629 92.2629Z" fill="#263238"/>
<path d="M331.093 96.9719L329.538 99.6826L331.241 100.312L331.093 96.9719Z" fill="#F28F8F"/>
<path d="M331.629 92.2634C330.596 96.0111 330.444 99.9471 331.186 103.763C331.267 104.421 331.511 105.048 331.897 105.587C332.413 106.138 333.125 106.465 333.88 106.496C334.625 106.523 335.371 106.451 336.098 106.282V109.803C338.77 110.433 341.519 110.685 343.616 109.069V105.466C342.108 105.95 340.502 106.049 338.945 105.756C337.1 104.76 336.755 101.376 336.99 100.499C337.155 100.717 337.38 100.881 337.637 100.97C337.894 101.06 338.172 101.071 338.436 101.003C338.69 100.934 338.927 100.814 339.133 100.65C339.339 100.486 339.51 100.282 339.635 100.05C339.879 99.5856 340.029 99.0778 340.079 98.5554C340.212 97.9238 340.115 97.2652 339.805 96.699C339.57 96.3824 339.243 96.1452 338.869 96.0189C338.496 95.8927 338.092 95.8835 337.713 95.9926C337.338 96.1107 336.989 96.3015 336.688 96.5543C336.386 96.807 336.137 97.1167 335.955 97.4657C335.831 97.6805 335.727 97.9059 335.643 98.1392C335.613 98.231 335.551 98.3093 335.47 98.3608C335.388 98.4122 335.291 98.4337 335.195 98.4214C335.099 98.4091 335.011 98.3638 334.944 98.2933C334.878 98.2229 334.839 98.1316 334.833 98.0352C334.743 97.0216 334.932 96.0027 335.38 95.0891C335.075 95.0579 334.781 94.9585 334.519 94.7983C334.258 94.6381 334.035 94.4212 333.869 94.1636C333.693 93.9232 333.575 93.6453 333.525 93.3517C333.475 93.0581 333.493 92.7568 333.579 92.4715C332.922 92.5162 332.262 92.4457 331.629 92.2634Z" fill="#FFBF9D"/>
<path opacity="0.2" d="M339.581 165.396L339.088 153.606C342.133 153.606 344.964 151.328 347.11 149.171C345.046 152.851 341.043 154.482 341.043 154.482L339.581 165.396Z" fill="black"/>
<path d="M326.986 137.769V131.197L329.247 126.926L322.43 122.688L318.826 129.993C318.537 130.579 318.38 131.221 318.367 131.875C318.355 132.528 318.487 133.177 318.755 133.773C319.022 134.37 319.418 134.9 319.914 135.325C320.41 135.751 320.994 136.062 321.625 136.235L326.986 137.769Z" fill="#FFBF9D"/>
<path d="M326.98 131.203L324.653 134.62L326.98 133.646V131.203Z" fill="#F28F8F"/>
<path d="M332.281 110.728L330.561 110.974C329.395 111.143 328.29 111.607 327.353 112.322C326.416 113.037 325.677 113.979 325.206 115.06L321.548 123.498C324.368 127.994 329.795 127.655 329.795 127.655L333.497 120.492C334.297 118.936 334.609 117.175 334.392 115.439C334.176 113.702 333.44 112.072 332.281 110.761V110.728Z" fill="#37474F"/>
<path d="M290.384 98.0328L292.213 96.6748C292.783 96.2527 293.216 95.6716 293.456 95.0046L293.889 93.8162C294.19 92.999 294.723 92.2873 295.422 91.7682C296.467 90.9923 297.409 90.087 298.226 89.074C298.489 89.3608 298.644 89.7294 298.666 90.1176C298.688 90.5058 298.575 90.8896 298.346 91.2042C298.011 91.6578 297.645 92.0877 297.251 92.491L298.259 92.5568C298.986 92.6092 299.712 92.4331 300.334 92.053L302.892 90.4978C302.965 90.4534 303.049 90.4292 303.135 90.4277C303.221 90.4261 303.305 90.4472 303.38 90.4889C303.455 90.5306 303.518 90.5913 303.562 90.665C303.606 90.7387 303.63 90.8227 303.631 90.9085C303.595 92.1752 303.345 93.4268 302.892 94.6103C302.682 95.1735 302.354 95.6849 301.929 96.1093C301.503 96.5337 300.991 96.8611 300.427 97.069C299.069 97.5893 297.75 98.0383 296.994 98.2902C296.564 98.434 296.159 98.6447 295.795 98.9145L293.106 100.902L290.384 98.0328Z" fill="#FFBF9D"/>
<path d="M292.372 96.2649L290.061 97.7544C290.136 98.6148 290.456 99.4357 290.983 100.12C291.51 100.804 292.222 101.323 293.035 101.615L295.154 99.6108C295.154 99.6108 293.111 99.2932 292.372 96.2649Z" fill="#37474F"/>
<path d="M290.921 100.038C290.436 99.3668 290.139 98.5784 290.061 97.7542L282.844 102.414L278.583 90.4984C278.303 89.7185 277.814 89.0309 277.168 88.5111C276.523 87.9914 275.747 87.6596 274.925 87.5523L272.844 87.2839L274.783 101.242L278.101 107.896C278.399 108.491 278.826 109.012 279.352 109.419C279.878 109.827 280.489 110.111 281.14 110.249C281.791 110.388 282.465 110.379 283.111 110.222C283.758 110.065 284.361 109.764 284.875 109.342L293.035 101.615C292.192 101.306 291.457 100.758 290.921 100.038Z" fill="#455A64"/>
<path d="M282.083 178.082C281.636 178.512 281.106 178.844 280.524 179.058C279.942 179.272 279.323 179.363 278.704 179.325C277.47 179.242 276.26 178.937 275.134 178.427C273.995 177.956 272.56 176.642 271.3 176.663C270.094 176.656 268.888 176.573 267.692 176.417C267.648 174.772 267.819 173.128 268.201 171.527L273.967 171.374C275.522 173.504 278.551 175.278 280.84 175.946C281.192 176.045 281.51 176.238 281.761 176.504C282.012 176.771 282.186 177.1 282.263 177.457C282.267 177.47 282.267 177.483 282.263 177.496C282.231 177.699 282.17 177.896 282.083 178.082Z" fill="#455A64"/>
<path d="M271.3 176.664C272.538 176.664 273.972 177.956 275.133 178.427C276.26 178.938 277.469 179.242 278.704 179.325C279.322 179.363 279.942 179.272 280.524 179.058C281.105 178.844 281.636 178.512 282.083 178.082C282.176 177.897 282.242 177.7 282.28 177.496C282.283 177.483 282.283 177.47 282.28 177.458C282.334 177.712 282.334 177.975 282.28 178.23C282.241 178.433 282.174 178.63 282.083 178.816C281.635 179.243 281.104 179.575 280.522 179.788C279.941 180.002 279.322 180.094 278.704 180.059C277.469 179.976 276.259 179.67 275.133 179.155C273.994 178.684 272.56 177.37 271.3 177.397C270.112 177.407 268.925 177.337 267.746 177.189C267.719 176.932 267.702 176.675 267.691 176.417C268.888 176.573 270.093 176.656 271.3 176.664Z" fill="#263238"/>
<path d="M255.025 178.624C255.021 179.21 255.077 179.796 255.195 180.371C255.38 181.395 255.953 182.309 256.794 182.922C257.568 183.364 258.443 183.598 259.335 183.601C260.119 183.682 260.911 183.6 261.662 183.361C262.225 183.159 262.704 182.773 263.02 182.265C263.023 182.274 263.023 182.284 263.02 182.293C262.911 182.673 262.712 183.021 262.439 183.307C262.166 183.593 261.828 183.809 261.454 183.936C260.705 184.177 259.914 184.259 259.132 184.176C258.24 184.174 257.365 183.94 256.591 183.497C255.751 182.885 255.179 181.974 254.992 180.951C254.873 180.375 254.815 179.787 254.817 179.199C254.815 178.798 254.731 178.401 254.57 178.034C254.409 177.666 254.174 177.336 253.88 177.063C253.738 176.926 253.601 176.789 253.475 176.641C253.384 176.538 253.315 176.417 253.272 176.286C253.228 176.156 253.212 176.018 253.223 175.88C253.223 175.771 253.223 175.661 253.256 175.557C253.47 175.804 253.968 176.395 254.094 176.515C254.383 176.786 254.614 177.113 254.774 177.475C254.934 177.837 255.019 178.228 255.025 178.624Z" fill="#263238"/>
<path d="M259.433 172.534C259.244 173.734 259.4 174.963 259.882 176.077C260.367 177.185 260.999 178.222 261.76 179.16C262.132 179.606 262.46 180.087 262.741 180.595C263.016 181.096 263.114 181.675 263.02 182.238C262.704 182.746 262.225 183.132 261.662 183.333C260.911 183.572 260.118 183.654 259.334 183.574C258.443 183.571 257.568 183.337 256.794 182.895C255.952 182.282 255.38 181.368 255.194 180.343C255.077 179.768 255.02 179.183 255.025 178.596C255.022 178.196 254.937 177.799 254.776 177.432C254.615 177.065 254.381 176.734 254.088 176.461C253.962 176.34 253.464 175.749 253.25 175.502C253.368 174.629 253.662 173.788 254.116 173.033L259.433 172.534Z" fill="#455A64"/>
<path d="M276.464 115.584L275.987 148.474L274.432 171.473C270.506 173.959 267.658 171.922 267.658 171.922C266.169 161.019 265.966 154.317 266.782 149.777L266.037 132.029L263.798 150.451L260.041 173.039C256.011 175.652 253.163 173.039 253.163 173.039C253.163 164.677 252.418 155.33 254.724 149.301C253.739 138.163 254.107 126.946 255.819 115.897L276.464 115.584Z" fill="#263238"/>
<path opacity="0.3" d="M266.859 125.272L266.038 132.045L266.383 140.358L267.899 126.668C271.404 125.293 271.859 123.382 271.859 123.382C270.377 124.421 268.658 125.071 266.859 125.272Z" fill="black"/>
<path d="M269 86.8667L272.833 87.2719C275.982 90.0483 277.608 95.8748 276.929 102.309C276.513 106.721 276.354 111.153 276.453 115.583C267.921 121.815 257.15 117.281 255.797 115.923L256.427 108.037C256.499 107.148 256.352 106.255 256 105.436C255.189 103.563 253.755 99.8833 253.563 97.0248C253.446 94.4826 253.982 91.9529 255.118 89.6759L260.726 87.2391L269 86.8667Z" fill="#37474F"/>
<path d="M256.011 105.437C254.955 103.084 254.178 100.615 253.694 98.0823C254.488 98.5587 255.337 99.0296 255.655 99.8237C256.706 102.37 256.98 105.171 256.443 107.873C256.487 107.039 256.339 106.205 256.011 105.437Z" fill="#37474F"/>
<path d="M270.068 92.4746C272.042 97.2354 273.115 102.321 273.233 107.474L271.678 110.896L269.197 107.643C269.389 102.658 269.288 97.6667 268.896 92.6936L270.068 92.4746Z" fill="#004A61"/>
<path d="M270.2 89.6775C270.269 90.6121 270.224 91.5517 270.068 92.4758C269.696 92.6564 269.281 92.7321 268.869 92.6948C268.113 92.024 267.465 91.2409 266.947 90.3729L268.869 89.6775H270.2Z" fill="#004A61"/>
<path d="M268.869 89.6769C267.226 90.2902 265.742 93.2363 265.742 93.2363C261.394 89.5454 260.72 87.2126 260.72 87.2126C261.253 86.3388 262.08 85.6843 263.053 85.3672L268.869 89.6769Z" fill="#37474F"/>
<path d="M268.869 89.6763C270.134 89.7091 271.251 91.4724 271.251 91.4724C271.453 88.3894 268.869 85.9963 268.869 85.9963V89.6763Z" fill="#37474F"/>
<path d="M262.955 81.9446L268.869 84.0583V86.2488C267.537 86.0593 266.26 85.5949 265.118 84.8852C264.095 84.1669 263.336 83.1343 262.955 81.9446Z" fill="#F28F8F"/>
<path d="M262.955 81.9438C263.336 83.1335 264.096 84.1661 265.118 84.8845C266.26 85.5941 267.538 86.0585 268.869 86.248V89.676C268.869 89.676 262.615 86.8668 262.615 85.5471V81.8179L262.955 81.9438Z" fill="#FFBF9D"/>
<path d="M274.35 73.2648C275.191 73.294 276.014 73.0264 276.677 72.5091C277.054 72.2089 277.367 71.8365 277.597 71.4139C277.64 71.3304 277.659 71.2364 277.65 71.1429C277.642 71.0494 277.606 70.9603 277.549 70.8861C277.491 70.8118 277.414 70.7556 277.325 70.724C277.237 70.6923 277.141 70.6866 277.05 70.7075C276.595 70.7895 276.13 70.7895 275.675 70.7075C276.198 70.0253 276.58 69.2461 276.799 68.4151C277.018 67.5841 277.07 66.7178 276.951 65.8666C276.937 65.7721 276.9 65.6822 276.845 65.6042C276.789 65.5263 276.716 65.4624 276.632 65.4177C276.547 65.373 276.453 65.3487 276.357 65.3468C276.262 65.3449 276.167 65.3654 276.081 65.4067C274.211 66.3525 272.127 66.7906 270.035 66.6771C268.94 66.595 267.817 66.3595 266.7 66.2719C265.579 66.1378 264.443 66.312 263.414 66.7757C262.905 67.013 262.47 67.3837 262.155 67.8484C261.84 68.3131 261.656 68.8545 261.624 69.4151C261.497 69.2366 261.334 69.0871 261.145 68.9766C260.956 68.8662 260.746 68.7972 260.529 68.7744C260.298 68.7454 260.065 68.7644 259.842 68.8304C259.62 68.8964 259.413 69.0079 259.236 69.1578C259.882 69.5082 260.512 69.8697 261.158 70.2201C260.496 69.9847 259.663 70.5049 259.335 71.1237C259.052 71.7713 258.93 72.4777 258.979 73.1827C258.936 74.1155 258.978 75.0503 259.105 75.9755C259.229 76.9052 259.593 77.7865 260.162 78.5328C260.661 79.1459 261.329 79.5991 262.084 79.8361C263.112 80.1213 264.202 80.0869 265.211 79.7375C266.21 79.3868 267.161 78.9121 268.042 78.3247C270.295 76.8343 272.406 75.1406 274.35 73.2648Z" fill="#E0E0E0"/>
<path d="M274.492 71.4035C275.138 75.2774 274.712 79.2542 273.26 82.9032C273 83.7875 272.45 84.5588 271.7 85.0937C270.878 85.5646 269.854 85.466 268.918 85.3237C267.4 85.1488 265.921 84.7309 264.537 84.0861C263.137 83.423 262.047 82.2463 261.492 80.8004C260.994 80.902 260.477 80.8573 260.004 80.6717C259.531 80.4861 259.121 80.1676 258.825 79.7545C258.229 78.8896 257.92 77.8587 257.944 76.8084C257.944 76.1512 258.064 75.3736 258.655 75.0834C258.949 74.9878 259.263 74.9766 259.562 75.0512C259.861 75.1258 260.134 75.283 260.348 75.5051C261.13 76.1426 261.703 77.0014 261.99 77.9693C262.423 76.3648 263.086 74.8151 263.535 73.2106C263.639 72.5682 263.971 71.9849 264.471 71.5678C265.145 71.1352 266.021 71.3816 266.798 71.5678C269.335 72.1711 271.984 72.1146 274.492 71.4035Z" fill="#FFBF9D"/>
<path d="M269.816 76.2769L271.689 79.4366L269.455 79.8527L269.816 76.2769Z" fill="#F28F8F"/>
<path d="M267.297 80.9426L269 81.7695C268.856 81.9655 268.65 82.1079 268.416 82.1744C268.182 82.2408 267.933 82.2275 267.707 82.1364C267.512 82.0147 267.365 81.8297 267.29 81.6123C267.216 81.395 267.218 81.1585 267.297 80.9426Z" fill="#F28F8F"/>
<path opacity="0.3" d="M267.297 80.9426L269 81.7695C268.856 81.9655 268.65 82.1079 268.416 82.1744C268.182 82.2408 267.933 82.2275 267.707 82.1364C267.512 82.0147 267.365 81.8297 267.29 81.6123C267.216 81.395 267.218 81.1585 267.297 80.9426Z" fill="black"/>
<path d="M268.299 82.191C268.101 82.2343 267.895 82.2152 267.708 82.1362C267.553 82.0483 267.427 81.9168 267.347 81.7581C267.266 81.5995 267.233 81.4205 267.253 81.2436C267.516 81.2386 267.77 81.3338 267.964 81.5099C268.158 81.6859 268.278 81.9295 268.299 82.191Z" fill="#F28F8F"/>
<path d="M266.574 76.402C266.561 76.5285 266.586 76.6561 266.645 76.7687C266.704 76.8813 266.795 76.974 266.907 77.035C267.018 77.0961 267.145 77.1229 267.272 77.112C267.399 77.1011 267.52 77.0531 267.619 76.9739C267.719 76.8947 267.793 76.7879 267.832 76.6668C267.871 76.5458 267.873 76.4159 267.839 76.2934C267.805 76.171 267.735 76.0614 267.638 75.9784C267.542 75.8954 267.423 75.8428 267.297 75.827C267.212 75.8163 267.125 75.8228 267.042 75.8461C266.959 75.8694 266.882 75.9089 266.815 75.9625C266.747 76.0161 266.691 76.0825 266.65 76.158C266.609 76.2335 266.583 76.3164 266.574 76.402Z" fill="#263238"/>
<path d="M271.963 76.7371C271.949 76.8644 271.974 76.9928 272.033 77.106C272.093 77.2193 272.185 77.3123 272.297 77.3733C272.41 77.4342 272.538 77.4604 272.665 77.4485C272.793 77.4366 272.914 77.3871 273.013 77.3063C273.112 77.2255 273.185 77.117 273.223 76.9947C273.26 76.8723 273.261 76.7416 273.224 76.619C273.187 76.4965 273.115 76.3876 273.016 76.3063C272.917 76.2249 272.796 76.1747 272.669 76.1621C272.499 76.1452 272.33 76.1962 272.197 76.304C272.065 76.4117 271.981 76.5674 271.963 76.7371Z" fill="#263238"/>
<path d="M272.844 74.2557L274.158 75.3509C274.238 75.1809 274.263 74.991 274.232 74.8061C274.201 74.6213 274.114 74.4504 273.983 74.3159C273.817 74.2022 273.623 74.1364 273.422 74.1258C273.221 74.1152 273.021 74.1601 272.844 74.2557Z" fill="#E0E0E0"/>
<path d="M267.374 73.6265L265.857 74.4643C265.814 74.2827 265.828 74.0925 265.895 73.9185C265.963 73.7446 266.081 73.5951 266.235 73.4896C266.419 73.4049 266.623 73.3728 266.824 73.397C267.025 73.4212 267.215 73.5006 267.374 73.6265Z" fill="#E0E0E0"/>
<path d="M242.058 103.564L240.015 102.545C239.381 102.229 238.854 101.734 238.498 101.122L237.858 100.026C237.415 99.2781 236.765 98.6749 235.985 98.2905C234.817 97.7134 233.728 96.9902 232.743 96.1384C232.537 96.4681 232.45 96.8588 232.498 97.2447C232.546 97.6307 232.725 97.9884 233.006 98.2577C233.424 98.6425 233.869 98.9975 234.337 99.32L233.356 99.5664C232.651 99.7473 231.906 99.7032 231.226 99.4405L228.428 98.3453C228.347 98.3125 228.258 98.3025 228.172 98.3162C228.086 98.3299 228.004 98.3669 227.937 98.4232C227.871 98.4795 227.82 98.5529 227.792 98.6357C227.763 98.7184 227.758 98.8073 227.776 98.8929C228.031 100.134 228.5 101.322 229.162 102.403C229.465 102.92 229.875 103.365 230.366 103.709C230.856 104.053 231.415 104.288 232.004 104.396C233.433 104.665 234.813 104.873 235.596 104.988C236.046 105.051 236.482 105.186 236.888 105.388L239.889 106.877L242.058 103.564Z" fill="#FFBF9D"/>
<path d="M244.001 106.708C244.356 105.869 244.479 104.95 244.357 104.047L248.191 105.865C248.893 103.071 249.441 100.241 249.833 97.3878C250.293 93.5272 250.189 90.9315 255.151 89.6775L255.698 99.8246C255.698 99.8246 255.09 112.217 251.531 113.591C248.59 114.725 246.509 111.949 242.019 109.024C242.902 108.474 243.594 107.665 244.001 106.708Z" fill="#455A64"/>
<path d="M240.831 102.798L244.358 104.046C244.494 105.018 244.341 106.009 243.917 106.894C243.494 107.78 242.818 108.521 241.975 109.024C240.946 108.318 239.968 107.539 239.051 106.691C239.051 106.691 240.579 106.154 240.831 102.798Z" fill="#37474F"/>
<path d="M275.237 226.825L314.111 204.34L339.411 219.065L300.887 241.441L275.237 226.825Z" fill="#E6B5E4"/>
<path d="M275.237 257.441V226.824L300.887 241.44V272.248L275.237 257.441Z" fill="#AE7461"/>
<path d="M300.887 272.25L339.411 249.874V219.066L300.887 241.441V272.25Z" fill="#AE7461"/>
<path opacity="0.3" d="M300.887 272.25L339.411 249.874V219.066L300.887 241.441V272.25Z" fill="black"/>
<path d="M272.28 223.359L314.742 198.804L342.363 214.887L300.29 239.322L272.28 223.359Z" fill="#AE7461"/>
<path d="M272.28 227.329V223.359L300.29 239.322V243.5L272.28 227.329Z" fill="#AE7461"/>
<path d="M300.29 243.5L342.363 219.06V214.887L300.29 239.322V243.5Z" fill="#AE7461"/>
<path opacity="0.3" d="M272.28 227.329V223.359L300.29 239.322V243.5L272.28 227.329Z" fill="white"/>
<path opacity="0.2" d="M300.29 243.5L342.363 219.06V214.887L300.29 239.322V243.5Z" fill="black"/>
<g opacity="0.2">
<path d="M142.524 88.31L297.355 199.359L304.764 195.055L224.594 40.5806L142.524 88.31Z" fill="#004A61"/>
<path d="M297.355 199.359V205.991L142.524 168.534V88.3101L297.355 199.359Z" fill="#004A61"/>
</g>
<path d="M296.309 199.965L305.805 194.446L308.86 196.11L299.102 201.756L296.309 199.965Z" fill="#37474F"/>
<path d="M296.309 199.966V208.054L299.042 209.713L299.102 201.757L296.309 199.966Z" fill="#263238"/>
<path d="M281.984 211.652L312.354 194.09L332.112 205.595L302.021 223.075L281.984 211.652Z" fill="#455A64"/>
<path d="M301.676 203.218L312.88 196.74L320.174 200.984L309.068 207.435L301.676 203.218Z" fill="#263238"/>
<path d="M281.984 221.361V211.652L302.021 223.075V232.932L281.984 221.361Z" fill="#37474F"/>
<path d="M302.021 232.933L332.112 215.453V205.596L302.021 223.076V232.933Z" fill="#263238"/>
<path d="M299.479 226.98C299.572 227.04 299.65 227.12 299.707 227.215C299.764 227.31 299.799 227.417 299.808 227.527C299.808 227.735 299.66 227.823 299.479 227.719L290.646 222.621C290.554 222.56 290.476 222.48 290.419 222.385C290.362 222.29 290.327 222.183 290.318 222.073C290.318 221.865 290.466 221.783 290.646 221.887L299.479 226.98Z" fill="#263238"/>
<path d="M299.485 225.758C299.578 225.819 299.655 225.899 299.711 225.994C299.767 226.089 299.8 226.196 299.808 226.306C299.808 226.514 299.66 226.596 299.48 226.492L290.652 221.377C290.559 221.318 290.481 221.237 290.424 221.142C290.367 221.047 290.332 220.94 290.324 220.83C290.324 220.622 290.472 220.54 290.652 220.644L299.485 225.758Z" fill="#263238"/>
<path d="M299.474 228.217C299.568 228.277 299.646 228.358 299.702 228.453C299.759 228.548 299.794 228.655 299.803 228.765C299.803 228.973 299.655 229.061 299.474 228.957L290.642 223.858C290.549 223.797 290.472 223.717 290.415 223.622C290.358 223.527 290.323 223.421 290.313 223.311C290.313 223.103 290.466 223.021 290.647 223.125L299.474 228.217Z" fill="#263238"/>
<path d="M299.485 224.505C299.578 224.565 299.656 224.646 299.713 224.741C299.769 224.835 299.804 224.942 299.814 225.052C299.814 225.26 299.666 225.343 299.485 225.238L290.652 220.14C290.559 220.08 290.481 220 290.424 219.905C290.367 219.81 290.333 219.703 290.324 219.593C290.315 219.551 290.32 219.507 290.337 219.468C290.355 219.429 290.384 219.397 290.421 219.376C290.458 219.354 290.501 219.345 290.543 219.35C290.586 219.355 290.626 219.372 290.658 219.401L299.485 224.505Z" fill="#263238"/>
<path d="M304.561 226.98C304.468 227.04 304.39 227.12 304.333 227.215C304.276 227.31 304.242 227.417 304.233 227.527C304.233 227.735 304.381 227.823 304.561 227.719L316.685 220.699C316.779 220.639 316.857 220.558 316.914 220.463C316.97 220.368 317.005 220.261 317.014 220.151C317.014 219.943 316.866 219.861 316.685 219.965L304.561 226.98Z" fill="black"/>
<path d="M304.534 225.759C304.442 225.819 304.365 225.9 304.309 225.995C304.252 226.09 304.219 226.196 304.211 226.306C304.211 226.514 304.359 226.597 304.54 226.492L316.664 219.472C316.757 219.413 316.835 219.332 316.891 219.237C316.947 219.142 316.98 219.035 316.987 218.925C316.987 218.716 316.839 218.629 316.658 218.733L304.534 225.759Z" fill="black"/>
<path d="M304.567 228.218C304.473 228.277 304.394 228.357 304.337 228.452C304.28 228.547 304.246 228.655 304.238 228.765C304.238 228.973 304.386 229.061 304.567 228.957L316.691 221.937C316.784 221.876 316.861 221.796 316.918 221.701C316.975 221.606 317.01 221.499 317.019 221.389C317.019 221.181 316.872 221.099 316.685 221.203L304.567 228.218Z" fill="black"/>
<path d="M304.534 224.505C304.441 224.564 304.363 224.645 304.306 224.74C304.249 224.835 304.214 224.942 304.206 225.052C304.206 225.26 304.353 225.342 304.534 225.238L316.658 218.218C316.751 218.158 316.829 218.077 316.886 217.982C316.943 217.888 316.978 217.781 316.987 217.67C316.987 217.462 316.839 217.38 316.658 217.484L304.534 224.505Z" fill="black"/>
<path d="M318.663 218.852C318.569 218.913 318.491 218.993 318.435 219.088C318.378 219.183 318.343 219.29 318.334 219.4C318.334 219.608 318.482 219.696 318.663 219.592L330.787 212.615C330.879 212.555 330.957 212.474 331.014 212.379C331.071 212.284 331.106 212.178 331.115 212.068C331.115 211.86 330.967 211.777 330.787 211.881L318.663 218.852Z" fill="black"/>
<path d="M318.657 217.615C318.564 217.675 318.487 217.756 318.431 217.851C318.375 217.946 318.342 218.053 318.334 218.163C318.334 218.376 318.482 218.458 318.663 218.354L330.787 211.334C330.88 211.275 330.958 211.194 331.014 211.099C331.07 211.004 331.103 210.897 331.11 210.786C331.11 210.578 330.962 210.491 330.781 210.595L318.657 217.615Z" fill="black"/>
<path d="M318.668 220.091C318.574 220.15 318.495 220.23 318.438 220.325C318.381 220.42 318.347 220.527 318.339 220.638C318.339 220.846 318.487 220.934 318.668 220.83L330.819 213.826C330.912 213.766 330.99 213.685 331.047 213.59C331.104 213.495 331.138 213.389 331.148 213.278C331.148 213.07 331 212.988 330.814 213.092L318.668 220.091Z" fill="black"/>
<path d="M318.657 216.377C318.564 216.438 318.487 216.518 318.43 216.613C318.373 216.708 318.338 216.815 318.329 216.925C318.329 217.133 318.476 217.215 318.657 217.111L330.781 210.091C330.874 210.031 330.952 209.95 331.009 209.855C331.066 209.76 331.101 209.654 331.11 209.543C331.11 209.335 330.962 209.247 330.781 209.357L318.657 216.377Z" fill="black"/>
<path d="M209.727 243.521C211.924 245.704 214.663 247.263 217.662 248.038C218.522 248.257 219.535 248.52 219.852 249.353C220.17 250.185 219.628 250.995 218.96 251.543C217.836 252.304 216.467 252.613 215.126 252.408C213.81 252.195 212.523 251.828 211.293 251.313C210.055 250.805 208.752 250.473 207.422 250.327C206.79 250.324 206.16 250.287 205.532 250.218C205.219 250.18 204.916 250.078 204.644 249.918C204.371 249.758 204.135 249.543 203.95 249.287C203.95 245.454 204.946 244.063 204.946 244.063L209.727 243.521Z" fill="#37474F"/>
<path d="M209.798 241.818V244.424C208.046 246.341 205.264 245.065 204.925 244.046L204.837 241.818H209.798Z" fill="#FF9A6C"/>
<path d="M196.721 232.475C199.837 229.66 201.567 229.769 202.318 230.333C203.068 230.897 204.42 232.699 200.965 235.744C197.51 238.788 197.773 240.672 195.369 240.672C192.965 240.672 193.414 238.268 193.414 238.268C193.442 237.435 193.569 236.608 193.791 235.804L196.721 232.475Z" fill="#37474F"/>
<path d="M197.849 234.282V236.122C196.382 237.382 193.923 236.67 193.792 235.799L193.917 233.97L197.849 234.282Z" fill="#FF9A6C"/>
<path d="M212.125 183.113L213.472 215.12L209.798 241.816C207.843 243.07 204.837 241.816 204.837 241.816C204.437 233.602 202.646 221.955 204.059 215.723L201.354 198.517L200.489 212.339C200.335 220.454 198.233 229.095 197.86 234.281C197.222 234.529 196.536 234.629 195.853 234.575C195.171 234.521 194.509 234.314 193.917 233.969C192.702 223.176 190.298 217.36 192.603 209.65C190.999 195.122 189.63 186.103 191.645 182.423L212.125 183.113Z" fill="#455A64"/>
<path opacity="0.2" d="M200.861 195.237L201.376 198.523L201.096 202.904L200.061 196.064C199.152 195.944 198.281 195.626 197.509 195.132C196.737 194.638 196.083 193.981 195.593 193.206C197.155 194.307 198.964 195.005 200.861 195.237Z" fill="black"/>
<path d="M205.905 153.137L196.464 151.872C192.516 151.489 190.818 155.826 190.873 159.829C190.9 162.189 192.516 171.175 193.293 177.352C191.733 181.114 190.172 185.928 190.172 188.967C197.356 195.111 210.773 190.665 212.361 188.803C212.361 178.946 211.611 164.095 211.611 164.095L205.905 153.137Z" fill="#F5F5F5"/>
<path d="M210.937 141.748L212.41 144.31L210.794 144.907L210.937 141.748Z" fill="#FF9A6C"/>
<path d="M211.101 140.603C210.866 138.353 210.209 136.223 208.741 135.155C209.135 137.953 208.539 140.8 207.054 143.205C206.906 142.461 206.522 141.785 205.959 141.277C205.686 141.014 205.345 140.833 204.975 140.753C204.604 140.674 204.219 140.7 203.862 140.828C203.376 141.061 202.999 141.473 202.81 141.978C202.618 142.463 202.567 142.993 202.666 143.505C202.764 144.018 203.007 144.491 203.365 144.871C203.724 145.25 204.183 145.519 204.689 145.646C205.195 145.772 205.727 145.752 206.222 145.587C206.021 146.586 205.532 147.505 204.817 148.231C204.101 148.956 203.188 149.457 202.192 149.672C200.879 149.94 199.516 149.812 198.276 149.305L197.668 152.333C200.138 154.967 204.355 153.198 204.355 153.198L204.902 150.214C209.76 150.504 210.214 150.422 210.745 147.744C211.192 145.392 211.312 142.989 211.101 140.603Z" fill="#FF9A6C"/>
<path d="M211.682 135.209C211.245 134.221 210.608 133.334 209.81 132.606C209.013 131.877 208.072 131.322 207.049 130.976C204.996 130.295 202.808 130.127 200.675 130.488C199.342 130.639 198.045 131.018 196.842 131.611C195.632 132.226 194.647 133.207 194.027 134.415L193.775 132.345C193.522 132.404 193.288 132.527 193.096 132.702C192.904 132.878 192.761 133.1 192.68 133.347C192.612 133.611 192.611 133.888 192.677 134.153C192.743 134.418 192.874 134.662 193.058 134.864H192.866C192.011 134.864 191.163 135.032 190.373 135.36C189.583 135.688 188.865 136.168 188.26 136.773C187.655 137.378 187.176 138.096 186.849 138.887C186.522 139.678 186.354 140.525 186.355 141.38V152.437C188.05 152.435 189.676 151.761 190.874 150.561C192.072 149.362 192.746 147.736 192.746 146.041V143.5C193.547 145.383 194.813 147.031 196.425 148.291C196.996 148.707 197.618 149.048 198.276 149.304C199.516 149.812 200.879 149.939 202.192 149.671C203.188 149.457 204.101 148.956 204.817 148.23C205.533 147.504 206.021 146.585 206.222 145.586C205.727 145.751 205.195 145.772 204.689 145.645C204.183 145.518 203.724 145.249 203.365 144.87C203.007 144.491 202.764 144.017 202.666 143.505C202.568 142.992 202.618 142.462 202.811 141.977C202.999 141.473 203.376 141.06 203.862 140.827C204.219 140.699 204.604 140.673 204.975 140.752C205.345 140.832 205.686 141.013 205.959 141.276C206.522 141.784 206.906 142.46 207.055 143.204C208.539 140.8 209.135 137.952 208.741 135.154C210.209 136.249 210.866 138.352 211.101 140.603C211.637 139.822 211.97 138.92 212.071 137.979C212.173 137.038 212.039 136.086 211.682 135.209Z" fill="#263238"/>
<path d="M206.031 161.028L211.698 165.129C211.803 166.449 211.857 169.143 211.956 172.122C211.025 171.071 210.247 169.751 209.426 168.606C207.796 166.334 206.642 163.756 206.031 161.028Z" fill="#E6E6E6"/>
<path d="M237.261 145.558L230.629 164.774L216.917 157.167L223.477 138.166L237.261 145.558Z" fill="#004A61"/>
<path d="M218.954 156.39L224.414 140.564L235.218 146.358L229.698 162.348L218.954 156.39Z" fill="white"/>
<path d="M226.319 141.736L232.321 144.885L232.584 144.085L231.418 143.061L228.132 141.408L226.631 141.128L226.319 141.736Z" fill="#455A64"/>
<path d="M228.132 141.408L228.389 140.8L231.598 142.52L231.417 143.062L228.132 141.408Z" fill="#37474F"/>
<path d="M226.527 139.798L233.783 143.697L234.095 142.942L226.774 139.097L226.527 139.798Z" fill="#455A64"/>
<path d="M228.488 139.995C229.123 137.996 232.912 139.88 232.173 141.928L228.488 139.995Z" fill="#37474F"/>
<path d="M215.937 161.066L220.997 167.637L229.791 158.985C230.283 158.502 230.598 157.868 230.684 157.184C231.106 153.898 232.015 151.56 233.181 151.97C233.915 152.228 232.973 155.426 232.973 155.426L234.068 154.796L235.344 151.094H235.924C236.228 151.095 236.523 151.19 236.77 151.365C237.017 151.541 237.204 151.789 237.304 152.074L237.852 153.657C238.175 154.595 238.19 155.611 237.895 156.558C237.599 157.505 237.009 158.332 236.209 158.92L234.276 160.349C233.994 160.567 233.753 160.834 233.564 161.137C230.513 165.823 227.061 170.235 223.247 174.324C222.818 174.758 222.251 175.03 221.644 175.092C221.036 175.154 220.426 175.002 219.918 174.663C214.535 171.104 210.088 165.091 210.088 165.091L215.937 161.066Z" fill="#FF9A6C"/>
<path d="M205.904 153.137L206.764 153.241C208.173 153.412 209.533 153.861 210.766 154.563C211.999 155.266 213.079 156.207 213.943 157.332L220.389 165.727C220.25 167.197 219.65 168.586 218.674 169.695C217.699 170.803 216.397 171.574 214.956 171.898L207.876 164.424C204.174 160.377 205.904 153.137 205.904 153.137Z" fill="#004A61"/>
</svg>
