<svg width="898" height="48" viewBox="0 0 898 48" fill="none" xmlns="http://www.w3.org/2000/svg">
<g clip-path="url(#clip0_1927_33331)">
<rect x="0.25" y="0.25" width="897.5" height="47.5" rx="3.75" fill="white" stroke="#767676" stroke-width="0.5" stroke-dasharray="5 5"/>
<path d="M296.866 17.92H298.146V26.56H300.066V28H296.866V17.92ZM311.75 26.576V28.016H309.99V28H299.43V26.56H301.254C301.265 25.4933 301.334 24.7307 301.462 24.272C301.59 23.8133 301.83 23.5093 302.182 23.36C302.545 23.2107 303.147 23.136 303.99 23.136C304.886 23.136 305.521 23.2107 305.894 23.36C306.278 23.5093 306.534 23.8133 306.662 24.272C306.801 24.72 306.875 25.4827 306.886 26.56H309.238L308.438 23.456C308.246 22.7307 307.953 22.1653 307.558 21.76C307.163 21.344 306.651 21.0507 306.022 20.88C305.393 20.7093 304.587 20.624 303.606 20.624L303.686 19.232C304.881 19.232 305.862 19.3387 306.63 19.552C307.409 19.7653 308.038 20.144 308.518 20.688C309.009 21.2213 309.377 21.9787 309.622 22.96L310.55 26.576H311.75ZM302.374 26.56H305.766V24.176H303.19C302.891 24.176 302.678 24.224 302.55 24.32C302.433 24.4053 302.374 24.5653 302.374 24.8V26.56ZM316.878 26.56V28H311.117V26.56H313.678V17.92H314.958V26.56H316.878ZM322.003 26.56V28H316.242V26.56H318.803V20.48H320.083V26.56H322.003ZM318.211 31.04C318.051 31.0507 317.864 30.9493 317.651 30.736C317.437 30.5227 317.331 30.3307 317.331 30.16C317.331 29.9893 317.432 29.8027 317.635 29.6C317.848 29.3973 318.04 29.2907 318.211 29.28C318.381 29.2907 318.568 29.3973 318.771 29.6C318.984 29.8027 319.091 29.9893 319.091 30.16C319.091 30.32 318.984 30.5067 318.771 30.72C318.557 30.944 318.371 31.0507 318.211 31.04ZM320.515 31.04C320.355 31.0507 320.168 30.9493 319.955 30.736C319.741 30.5227 319.635 30.3307 319.635 30.16C319.635 29.9893 319.736 29.8027 319.939 29.6C320.152 29.3973 320.344 29.2907 320.515 29.28C320.685 29.2907 320.872 29.3973 321.075 29.6C321.288 29.8027 321.395 29.9893 321.395 30.16C321.395 30.32 321.288 30.5067 321.075 30.72C320.861 30.944 320.675 31.0507 320.515 31.04ZM327.128 26.56V28H321.367V26.56H323.928V17.92H325.208V26.56H327.128ZM336.285 26.56V28H335.389C335.079 28 334.829 27.9307 334.637 27.792C334.455 27.6533 334.306 27.424 334.189 27.104L333.645 25.696C332.663 27.232 331.255 28 329.421 28H326.492V26.56H329.949C330.663 26.56 331.277 26.32 331.789 25.84C332.311 25.36 332.722 24.7733 333.021 24.08C332.765 23.4933 332.477 23.0347 332.157 22.704C331.847 22.3733 331.458 22.1333 330.989 21.984C330.519 21.8347 329.927 21.76 329.213 21.76C328.765 21.76 328.322 21.7813 327.885 21.824L327.677 20.416C328.306 20.352 328.871 20.32 329.373 20.32C330.269 20.32 331.021 20.432 331.629 20.656C332.237 20.88 332.749 21.2373 333.165 21.728C333.581 22.2187 333.938 22.8693 334.237 23.68L335.325 26.56H336.285ZM335.649 26.56H338.209V20.48H339.489V28H335.649V26.56ZM337.697 18.56C337.537 18.5707 337.35 18.4693 337.137 18.256C336.923 18.0427 336.817 17.8507 336.817 17.68C336.817 17.5093 336.918 17.3227 337.121 17.12C337.334 16.9173 337.526 16.8107 337.697 16.8C337.867 16.8107 338.054 16.9173 338.257 17.12C338.47 17.3227 338.577 17.5093 338.577 17.68C338.577 17.84 338.47 18.032 338.257 18.256C338.043 18.4693 337.857 18.5707 337.697 18.56ZM340.001 18.56C339.841 18.5707 339.654 18.4693 339.441 18.256C339.227 18.0427 339.121 17.8507 339.121 17.68C339.121 17.5093 339.222 17.3227 339.425 17.12C339.638 16.9173 339.83 16.8107 340.001 16.8C340.171 16.8107 340.358 16.9173 340.561 17.12C340.774 17.3227 340.881 17.5093 340.881 17.68C340.881 17.84 340.774 18.032 340.561 18.256C340.347 18.4693 340.161 18.5707 340.001 18.56ZM345.91 30.112C345.91 29.4827 345.99 28.976 346.15 28.592C346.32 28.208 346.603 27.8773 346.998 27.6C347.392 27.3227 347.984 27.0133 348.774 26.672C347.963 26.1067 347.328 25.4133 346.87 24.592C346.411 23.7707 346.182 22.88 346.182 21.92C346.182 21.4933 346.294 21.168 346.518 20.944C346.752 20.72 347.147 20.56 347.702 20.464C348.256 20.368 349.056 20.32 350.102 20.32C351.147 20.32 351.947 20.368 352.502 20.464C353.056 20.56 353.446 20.72 353.67 20.944C353.904 21.168 354.022 21.4933 354.022 21.92C354.022 22.944 353.808 23.8187 353.382 24.544C352.955 25.2693 352.379 25.904 351.654 26.448C352.102 26.5227 352.614 26.56 353.19 26.56H355.43V28H353.19C352.091 28 351.051 27.808 350.07 27.424C349.195 27.7653 348.507 28.0747 348.006 28.352C347.515 28.6293 347.27 28.8907 347.27 29.136V31.488C347.846 31.584 348.598 31.632 349.526 31.632C349.899 31.632 350.288 31.6053 350.694 31.552C351.099 31.4987 351.611 31.408 352.23 31.28L352.438 32.688C351.734 32.944 350.614 33.072 349.078 33.072C348.224 33.072 347.574 32.9867 347.126 32.816C346.678 32.6453 346.363 32.3467 346.182 31.92C346 31.504 345.91 30.9013 345.91 30.112ZM347.462 21.76C347.462 22.9227 347.702 23.8613 348.182 24.576C348.672 25.28 349.312 25.808 350.102 26.16C350.966 25.7653 351.622 25.1947 352.07 24.448C352.518 23.7013 352.742 22.8053 352.742 21.76H347.462ZM361.045 20.32C361.781 20.32 362.363 20.3893 362.789 20.528C363.216 20.656 363.52 20.8693 363.701 21.168C363.893 21.4667 363.989 21.8773 363.989 22.4V28H354.789V26.56H357.125C356.955 25.9947 356.869 25.2587 356.869 24.352C356.869 23.2853 357.104 22.1547 357.573 20.96C358 20.7573 358.528 20.6027 359.157 20.496C359.797 20.3787 360.427 20.32 361.045 20.32ZM362.709 21.936C362.24 21.8187 361.648 21.76 360.933 21.76C360.165 21.76 359.371 21.8507 358.549 22.032C358.283 22.9173 358.149 23.6907 358.149 24.352C358.149 25.2587 358.245 25.9947 358.437 26.56H362.709V21.936ZM375.051 30.4C375.617 30.4 376.054 30.3733 376.363 30.32C376.673 30.2773 376.891 30.1973 377.019 30.08C377.158 29.9627 377.227 29.7867 377.227 29.552V20.48H378.507V28.576C378.507 29.4933 378.401 30.176 378.187 30.624C377.974 31.0827 377.579 31.3973 377.003 31.568C376.427 31.7493 375.537 31.84 374.331 31.84C373.265 31.84 372.475 31.7387 371.963 31.536C371.451 31.344 371.105 31.0027 370.923 30.512C370.742 30.0213 370.651 29.2693 370.651 28.256C370.651 27.584 370.694 26.88 370.779 26.144C370.875 25.408 370.993 24.784 371.131 24.272L372.315 24.48C372.059 25.7387 371.931 26.9067 371.931 27.984C371.931 28.9653 371.995 29.7707 372.123 30.4H375.051ZM374.651 18.56C374.491 18.5707 374.305 18.4693 374.091 18.256C373.878 18.0427 373.771 17.8507 373.771 17.68C373.771 17.5093 373.873 17.3227 374.075 17.12C374.289 16.9173 374.481 16.8107 374.651 16.8C374.822 16.8107 375.009 16.9173 375.211 17.12C375.425 17.3227 375.531 17.5093 375.531 17.68C375.531 17.84 375.425 18.032 375.211 18.256C374.998 18.4693 374.811 18.5707 374.651 18.56ZM381.741 17.92H383.021V26.56H384.941V28H381.741V17.92ZM390.065 26.56V28H384.305V26.56H386.865V20.48H388.145V26.56H390.065ZM386.273 31.04C386.113 31.0507 385.926 30.9493 385.713 30.736C385.5 30.5227 385.393 30.3307 385.393 30.16C385.393 29.9893 385.494 29.8027 385.697 29.6C385.91 29.3973 386.102 29.2907 386.273 29.28C386.444 29.2907 386.63 29.3973 386.833 29.6C387.046 29.8027 387.153 29.9893 387.153 30.16C387.153 30.32 387.046 30.5067 386.833 30.72C386.62 30.944 386.433 31.0507 386.273 31.04ZM388.577 31.04C388.417 31.0507 388.23 30.9493 388.017 30.736C387.804 30.5227 387.697 30.3307 387.697 30.16C387.697 29.9893 387.798 29.8027 388.001 29.6C388.214 29.3973 388.406 29.2907 388.577 29.28C388.748 29.2907 388.934 29.3973 389.137 29.6C389.35 29.8027 389.457 29.9893 389.457 30.16C389.457 30.32 389.35 30.5067 389.137 30.72C388.924 30.944 388.737 31.0507 388.577 31.04ZM395.19 26.56V28H389.43V26.56H391.99V20.48H393.27V26.56H395.19ZM392.63 31.04C392.47 31.0507 392.283 30.9493 392.07 30.736C391.857 30.5227 391.75 30.3307 391.75 30.16C391.75 29.9893 391.851 29.8027 392.054 29.6C392.267 29.3973 392.459 29.2907 392.63 29.28C392.801 29.2907 392.987 29.3973 393.19 29.6C393.403 29.8027 393.51 29.9893 393.51 30.16C393.51 30.32 393.403 30.5067 393.19 30.72C392.977 30.944 392.79 31.0507 392.63 31.04ZM400.315 26.56V28H394.555V26.56H397.115V20.48H398.395V26.56H400.315ZM396.603 18.56C396.443 18.5707 396.256 18.4693 396.043 18.256C395.83 18.0427 395.723 17.8507 395.723 17.68C395.723 17.5093 395.824 17.3227 396.027 17.12C396.24 16.9173 396.432 16.8107 396.603 16.8C396.774 16.8107 396.96 16.9173 397.163 17.12C397.376 17.3227 397.483 17.5093 397.483 17.68C397.483 17.84 397.376 18.032 397.163 18.256C396.95 18.4693 396.763 18.5707 396.603 18.56ZM398.907 18.56C398.747 18.5707 398.56 18.4693 398.347 18.256C398.134 18.0427 398.027 17.8507 398.027 17.68C398.027 17.5093 398.128 17.3227 398.331 17.12C398.544 16.9173 398.736 16.8107 398.907 16.8C399.078 16.8107 399.264 16.9173 399.467 17.12C399.68 17.3227 399.787 17.5093 399.787 17.68C399.787 17.84 399.68 18.032 399.467 18.256C399.254 18.4693 399.067 18.5707 398.907 18.56ZM412.784 20.512C412.901 20.9493 413.003 21.4987 413.088 22.16C413.173 22.8107 413.216 23.376 413.216 23.856C413.216 24.9547 413.136 25.7973 412.976 26.384C412.816 26.96 412.533 27.376 412.128 27.632C411.723 27.8773 411.125 28 410.336 28C409.643 28 409.093 27.9627 408.688 27.888C408.283 27.8027 407.963 27.6587 407.728 27.456C407.504 27.6587 407.184 27.8027 406.768 27.888C406.363 27.9627 405.813 28 405.12 28H399.68V26.56H402.24V21.92H403.52V26.56H405.84C406.309 26.56 406.635 26.5013 406.816 26.384C406.997 26.2667 407.088 26.0427 407.088 25.712V21.92H408.368V25.712C408.368 26.0427 408.459 26.2667 408.64 26.384C408.821 26.5013 409.147 26.56 409.616 26.56H411.744C411.872 25.888 411.936 25.0027 411.936 23.904C411.936 23.008 411.797 21.9467 411.52 20.72L412.784 20.512ZM425.216 26.56V28H414.976V26.56H417.536L416.896 19.28H418.176L418.816 26.56H422.016V17.92H423.296V26.56H425.216ZM424.571 28V26.56H427.131V17.92H428.411V28H424.571ZM444.24 26.56V28H438.624C437.664 28 436.96 27.9093 436.512 27.728C436.074 27.536 435.776 27.184 435.616 26.672C435.456 26.16 435.376 25.3493 435.376 24.24C435.376 23.1307 435.456 22.32 435.616 21.808C435.776 21.296 436.074 20.9493 436.512 20.768C436.96 20.576 437.664 20.48 438.624 20.48H442.528V26.56H444.24ZM441.248 21.92H437.84C437.445 21.92 437.162 21.9893 436.992 22.128C436.821 22.2667 436.736 22.496 436.736 22.816V25.664C436.736 25.984 436.821 26.2133 436.992 26.352C437.162 26.4907 437.445 26.56 437.84 26.56H441.248V21.92ZM437.824 18.56C437.664 18.5707 437.477 18.4693 437.264 18.256C437.05 18.0427 436.944 17.8507 436.944 17.68C436.944 17.5093 437.045 17.3227 437.248 17.12C437.461 16.9173 437.653 16.8107 437.824 16.8C437.994 16.8107 438.181 16.9173 438.384 17.12C438.597 17.3227 438.704 17.5093 438.704 17.68C438.704 17.84 438.597 18.032 438.384 18.256C438.17 18.4693 437.984 18.5707 437.824 18.56ZM440.128 18.56C439.968 18.5707 439.781 18.4693 439.568 18.256C439.354 18.0427 439.248 17.8507 439.248 17.68C439.248 17.5093 439.349 17.3227 439.552 17.12C439.765 16.9173 439.957 16.8107 440.128 16.8C440.298 16.8107 440.485 16.9173 440.688 17.12C440.901 17.3227 441.008 17.5093 441.008 17.68C441.008 17.84 440.901 18.032 440.688 18.256C440.474 18.4693 440.288 18.5707 440.128 18.56ZM449.362 26.56V28H443.602V26.56H446.162V20.48H447.442V26.56H449.362ZM445.57 31.04C445.41 31.0507 445.223 30.9493 445.01 30.736C444.797 30.5227 444.69 30.3307 444.69 30.16C444.69 29.9893 444.791 29.8027 444.994 29.6C445.207 29.3973 445.399 29.2907 445.57 29.28C445.741 29.2907 445.927 29.3973 446.13 29.6C446.343 29.8027 446.45 29.9893 446.45 30.16C446.45 30.32 446.343 30.5067 446.13 30.72C445.917 30.944 445.73 31.0507 445.57 31.04ZM447.874 31.04C447.714 31.0507 447.527 30.9493 447.314 30.736C447.101 30.5227 446.994 30.3307 446.994 30.16C446.994 29.9893 447.095 29.8027 447.298 29.6C447.511 29.3973 447.703 29.2907 447.874 29.28C448.045 29.2907 448.231 29.3973 448.434 29.6C448.647 29.8027 448.754 29.9893 448.754 30.16C448.754 30.32 448.647 30.5067 448.434 30.72C448.221 30.944 448.034 31.0507 447.874 31.04ZM448.727 26.56H451.287V20.48H452.567V28H448.727V26.56ZM451.927 18.56C451.767 18.5707 451.58 18.4693 451.367 18.256C451.154 18.0427 451.047 17.8507 451.047 17.68C451.047 17.5093 451.148 17.3227 451.351 17.12C451.564 16.9173 451.756 16.8107 451.927 16.8C452.098 16.8107 452.284 16.9173 452.487 17.12C452.7 17.3227 452.807 17.5093 452.807 17.68C452.807 17.84 452.7 18.032 452.487 18.256C452.274 18.4693 452.087 18.5707 451.927 18.56ZM455.772 17.92H457.052V26.56H458.972V28H455.772V17.92ZM464.096 26.56V28H458.336V26.56H460.896V20.48H462.176V26.56H464.096ZM460.304 31.04C460.144 31.0507 459.958 30.9493 459.744 30.736C459.531 30.5227 459.424 30.3307 459.424 30.16C459.424 29.9893 459.526 29.8027 459.728 29.6C459.942 29.3973 460.134 29.2907 460.304 29.28C460.475 29.2907 460.662 29.3973 460.864 29.6C461.078 29.8027 461.184 29.9893 461.184 30.16C461.184 30.32 461.078 30.5067 460.864 30.72C460.651 30.944 460.464 31.0507 460.304 31.04ZM462.608 31.04C462.448 31.0507 462.262 30.9493 462.048 30.736C461.835 30.5227 461.728 30.3307 461.728 30.16C461.728 29.9893 461.83 29.8027 462.032 29.6C462.246 29.3973 462.438 29.2907 462.608 29.28C462.779 29.2907 462.966 29.3973 463.168 29.6C463.382 29.8027 463.488 29.9893 463.488 30.16C463.488 30.32 463.382 30.5067 463.168 30.72C462.955 30.944 462.768 31.0507 462.608 31.04ZM469.221 26.56V28H463.461V26.56H466.021V20.48H467.301V26.56H469.221ZM466.661 31.04C466.501 31.0507 466.315 30.9493 466.101 30.736C465.888 30.5227 465.781 30.3307 465.781 30.16C465.781 29.9893 465.883 29.8027 466.085 29.6C466.299 29.3973 466.491 29.2907 466.661 29.28C466.832 29.2907 467.019 29.3973 467.221 29.6C467.435 29.8027 467.541 29.9893 467.541 30.16C467.541 30.32 467.435 30.5067 467.221 30.72C467.008 30.944 466.821 31.0507 466.661 31.04ZM468.586 28V26.56H471.146V17.92H472.426V28H468.586ZM475.631 17.92H476.911V28H475.631V17.92ZM484.372 28C484.201 28.608 484.116 29.3653 484.116 30.272C484.116 30.976 484.265 31.92 484.564 33.104L483.316 33.344C483.177 32.928 483.06 32.4107 482.964 31.792C482.878 31.1733 482.836 30.576 482.836 30C482.836 28.8053 482.964 27.9467 483.22 27.424C483.476 26.9013 483.913 26.6187 484.532 26.576C484.361 26.0107 484.276 25.2693 484.276 24.352C484.276 23.2853 484.51 22.1547 484.98 20.96C485.396 20.768 485.918 20.6133 486.548 20.496C487.177 20.3787 487.812 20.32 488.452 20.32C489.188 20.32 489.769 20.3893 490.196 20.528C490.622 20.656 490.926 20.8693 491.108 21.168C491.3 21.4667 491.396 21.8773 491.396 22.4V28H484.372ZM490.116 21.936C489.678 21.8187 489.086 21.76 488.34 21.76C487.55 21.76 486.756 21.8453 485.956 22.016C485.689 22.9227 485.556 23.7013 485.556 24.352C485.556 25.2587 485.652 25.9947 485.844 26.56H490.116V21.936ZM503.144 28H500.808C500.552 28.7787 500.136 29.5573 499.56 30.336C498.995 31.1253 498.365 31.7707 497.672 32.272L496.872 31.28C497.416 30.8533 497.917 30.3467 498.376 29.76C498.835 29.1733 499.192 28.5867 499.448 28H496.68C496.051 28 495.571 27.8933 495.24 27.68C494.92 27.456 494.691 27.072 494.552 26.528C494.424 25.984 494.36 25.1947 494.36 24.16C494.36 23.0933 494.451 22.2933 494.632 21.76C494.824 21.2267 495.155 20.8533 495.624 20.64C496.093 20.4267 496.792 20.32 497.72 20.32C498.403 20.32 498.995 20.3573 499.496 20.432C499.997 20.5067 500.52 20.6347 501.064 20.816V26.56H503.144V28ZM499.048 26.56C499.325 26.56 499.517 26.5067 499.624 26.4C499.731 26.2827 499.784 26.0693 499.784 25.76V21.76H496.456C496.168 21.76 495.971 21.8187 495.864 21.936C495.768 22.0533 495.72 22.288 495.72 22.64V26.56H499.048ZM515.612 20.512C515.729 20.9493 515.831 21.4987 515.916 22.16C516.001 22.8107 516.044 23.376 516.044 23.856C516.044 24.9547 515.964 25.7973 515.804 26.384C515.644 26.96 515.361 27.376 514.956 27.632C514.551 27.8773 513.953 28 513.164 28C512.471 28 511.921 27.9627 511.516 27.888C511.111 27.8027 510.791 27.6587 510.556 27.456C510.332 27.6587 510.012 27.8027 509.596 27.888C509.191 27.9627 508.641 28 507.948 28H502.508V26.56H505.068V21.92H506.348V26.56H508.668C509.137 26.56 509.463 26.5013 509.644 26.384C509.825 26.2667 509.916 26.0427 509.916 25.712V21.92H511.196V25.712C511.196 26.0427 511.287 26.2667 511.468 26.384C511.649 26.5013 511.975 26.56 512.444 26.56H514.572C514.7 25.888 514.764 25.0027 514.764 23.904C514.764 23.008 514.625 21.9467 514.348 20.72L515.612 20.512ZM522.764 26.56V28H520.86C520.86 29.056 520.674 29.9093 520.3 30.56C519.927 31.2107 519.319 31.7387 518.476 32.144L517.932 31.024C518.551 30.7253 518.978 30.352 519.212 29.904C519.458 29.4667 519.58 28.832 519.58 28V20.48H520.86V26.56H522.764ZM522.117 28V26.56H524.678V17.92H525.958V28H522.117ZM529.163 17.92H530.443V28H529.163V17.92ZM550.479 26.56V28H548.559V29.6C548.559 30.5387 548.372 31.2 547.999 31.584C547.636 31.968 546.996 32.16 546.079 32.16H539.247C538.692 32.16 538.25 32.032 537.919 31.776C537.599 31.5307 537.364 31.1307 537.215 30.576C537.076 30.0213 537.007 29.264 537.007 28.304C537.007 27.728 537.044 27.1253 537.119 26.496C537.204 25.8667 537.316 25.3333 537.455 24.896L538.671 25.104C538.415 26.1707 538.287 27.152 538.287 28.048C538.287 29.1573 538.372 30.048 538.543 30.72H547.279V28H544.175C543.546 28 543.066 27.8933 542.735 27.68C542.415 27.456 542.186 27.072 542.047 26.528C541.919 25.984 541.855 25.1947 541.855 24.16C541.855 23.0933 541.946 22.2933 542.127 21.76C542.319 21.2267 542.65 20.8533 543.119 20.64C543.588 20.4267 544.287 20.32 545.215 20.32C545.898 20.32 546.49 20.3573 546.991 20.432C547.492 20.5067 548.015 20.6347 548.559 20.816V26.56H550.479ZM546.543 26.56C546.82 26.56 547.012 26.5067 547.119 26.4C547.226 26.2827 547.279 26.0693 547.279 25.76V21.76H543.951C543.663 21.76 543.466 21.8187 543.359 21.936C543.263 22.0533 543.215 22.288 543.215 22.64V26.56H546.543ZM544.095 18.56C543.935 18.5707 543.748 18.4693 543.535 18.256C543.322 18.0427 543.215 17.8507 543.215 17.68C543.215 17.5093 543.316 17.3227 543.519 17.12C543.732 16.9173 543.924 16.8107 544.095 16.8C544.266 16.8107 544.452 16.9173 544.655 17.12C544.868 17.3227 544.975 17.5093 544.975 17.68C544.975 17.84 544.868 18.032 544.655 18.256C544.442 18.4693 544.255 18.5707 544.095 18.56ZM546.399 18.56C546.239 18.5707 546.052 18.4693 545.839 18.256C545.626 18.0427 545.519 17.8507 545.519 17.68C545.519 17.5093 545.62 17.3227 545.823 17.12C546.036 16.9173 546.228 16.8107 546.399 16.8C546.57 16.8107 546.756 16.9173 546.959 17.12C547.172 17.3227 547.279 17.5093 547.279 17.68C547.279 17.84 547.172 18.032 546.959 18.256C546.746 18.4693 546.559 18.5707 546.399 18.56ZM552.396 26.56C552.29 25.9947 552.236 25.088 552.236 23.84C552.236 22.8907 552.327 22.1707 552.508 21.68C552.7 21.1787 553.031 20.8267 553.5 20.624C553.97 20.4213 554.668 20.32 555.596 20.32C556.183 20.32 556.727 20.3573 557.228 20.432C557.73 20.5067 558.3 20.6347 558.94 20.816V28H549.836V26.56H552.396ZM556.924 26.56C557.202 26.56 557.394 26.5067 557.5 26.4C557.607 26.2827 557.66 26.0693 557.66 25.76V21.792H554.332C554.044 21.792 553.847 21.8507 553.74 21.968C553.644 22.0853 553.596 22.32 553.596 22.672V26.56H556.924ZM555.596 18.56C555.436 18.5707 555.25 18.4693 555.036 18.256C554.823 18.0427 554.716 17.8507 554.716 17.68C554.716 17.5093 554.818 17.3227 555.02 17.12C555.234 16.9173 555.426 16.8107 555.596 16.8C555.767 16.8107 555.954 16.9173 556.156 17.12C556.37 17.3227 556.476 17.5093 556.476 17.68C556.476 17.84 556.37 18.032 556.156 18.256C555.943 18.4693 555.756 18.5707 555.596 18.56ZM560.995 31.024C561.614 30.7253 562.04 30.352 562.275 29.904C562.52 29.4667 562.643 28.832 562.643 28V20.48H563.923V28C563.923 29.056 563.736 29.9093 563.363 30.56C562.99 31.2107 562.382 31.7387 561.539 32.144L560.995 31.024ZM567.116 20.48H568.396V28H567.116V20.48ZM569.58 17.04V17.776L565.932 18.752V18.016L566.636 17.824C566.508 17.5467 566.444 17.152 566.444 16.64C566.444 15.808 566.678 15.2267 567.148 14.896C567.617 14.5653 568.3 14.4 569.196 14.4V15.296C568.886 15.296 568.577 15.328 568.268 15.392C567.958 15.456 567.697 15.552 567.484 15.68L567.468 17.088C567.468 17.2267 567.494 17.328 567.548 17.392C567.601 17.4453 567.686 17.472 567.804 17.472C567.932 17.472 568.065 17.4507 568.204 17.408L569.58 17.04Z" fill="#767676"/>
<path d="M590.33 33.3394C589.24 33.3394 588.15 32.9294 587.32 32.0994C585.66 30.4394 585.66 27.7494 587.32 26.0894L589.8 23.6194C590.09 23.3294 590.57 23.3294 590.86 23.6194C591.15 23.9094 591.15 24.3894 590.86 24.6794L588.38 27.1494C587.31 28.2194 587.31 29.9694 588.38 31.0394C589.45 32.1094 591.2 32.1094 592.27 31.0394L596.16 27.1494C597.34 25.9694 597.99 24.3994 597.99 22.7294C597.99 21.0594 597.34 19.4894 596.16 18.3094C593.72 15.8694 589.76 15.8694 587.32 18.3094L583.08 22.5494C582.09 23.5394 581.54 24.8594 581.54 26.2594C581.54 27.6594 582.09 28.9794 583.08 29.9694C583.37 30.2594 583.37 30.7394 583.08 31.0294C582.79 31.3194 582.31 31.3194 582.02 31.0294C580.75 29.7494 580.04 28.0594 580.04 26.2594C580.04 24.4594 580.74 22.7594 582.02 21.4894L586.26 17.2494C589.28 14.2294 594.2 14.2294 597.22 17.2494C598.68 18.7094 599.49 20.6594 599.49 22.7294C599.49 24.7994 598.68 26.7494 597.22 28.2094L593.33 32.0994C592.5 32.9294 591.42 33.3394 590.33 33.3394Z" fill="#767676"/>
</g>
<defs>
<clipPath id="clip0_1927_33331">
<rect width="898" height="48" fill="white"/>
</clipPath>
</defs>
</svg>
