<svg width="507" height="363" viewBox="0 0 507 363" fill="none" xmlns="http://www.w3.org/2000/svg">
<path opacity="0.1" d="M14.3747 179.907C32.1451 147.327 68.1229 122.456 77.0809 118.456C135.053 92.4943 188.292 43.1152 247.138 22.0255C305.984 0.93582 373.279 10.9716 437.66 95.6213C472.181 141.073 474.657 186.453 447.856 214.306C347.788 318.518 229.003 352.552 103.591 308.627C78.8288 299.973 53.7027 288.192 28.5036 264.703C-2.37606 236.05 0.391455 205.651 14.3747 179.907Z" fill="white"/>
<path opacity="0.1" d="M16.0436 146.688C38.621 117.239 77.9494 98.1154 87.4174 95.4977C148.668 78.6281 208.826 37.9081 270.222 26.0557C331.618 14.2033 396.582 34.2724 447.345 127.71C474.584 177.883 470.068 223.111 439.334 246.525C324.408 334.291 201.834 349.924 84.577 287.463C61.417 275.102 38.3297 259.686 17.0632 232.637C-9.08287 199.624 -1.72701 169.957 16.0436 146.688L16.0436 146.688Z" fill="white"/>
<path d="M307.541 156.749C332.343 185.449 341.713 213.045 345.571 229.603C350.531 250.577 357.145 277.069 342.815 293.627C330.138 307.425 309.195 306.873 296.518 306.321C250.772 304.114 218.254 273.206 206.129 259.407L307.541 156.749Z" fill="#1C9792"/>
<path d="M135.031 152.333C110.23 181.034 100.86 208.63 97.0019 225.188C92.0415 246.161 85.4277 272.654 99.7577 289.212C112.434 303.01 133.378 302.458 146.055 301.906C191.8 299.698 224.318 268.79 236.444 254.992L135.031 152.333Z" fill="#1C9792"/>
<path d="M168.65 59.0573C168.65 65.6805 169.201 68.992 169.753 72.8555C174.162 92.173 190.696 111.491 204.475 109.283C209.987 108.179 213.294 103.764 213.294 103.764C220.459 94.3807 207.782 81.1345 206.129 62.3689C204.475 27.5974 219.356 10.4876 210.538 3.31252C203.373 -2.7587 185.736 3.86445 175.815 14.3511C166.997 24.2858 168.099 39.1879 168.65 59.0573Z" fill="#414042"/>
<path d="M139.99 158.956C194.003 158.404 248.016 158.404 302.029 157.853C300.927 152.333 298.722 145.158 292.66 139.087C280.534 127.496 266.204 132.464 253.528 124.185C246.363 119.218 237.544 109.283 234.237 86.1018C234.237 80.0306 231.482 75.0632 228.726 75.0632C225.97 75.0632 222.112 79.4787 221.561 86.6537C217.703 86.6537 214.396 87.2057 210.538 87.2057C209.436 87.2057 207.782 87.2057 206.68 87.7576C205.577 87.7576 205.026 87.7576 204.475 87.7576C203.924 97.1404 202.271 104.315 200.617 109.835C197.861 117.01 194.003 120.873 190.696 123.633C178.571 132.464 163.69 126.945 151.564 138.535C143.848 145.71 141.093 153.437 139.99 158.956Z" fill="#FC8872"/>
<path d="M200.068 110.387C201.722 111.491 203.375 112.043 205.58 112.043C211.643 112.043 216.603 106.523 216.603 99.3483C216.603 94.381 214.398 89.9655 210.54 87.7578C209.438 87.7578 207.784 87.7578 206.682 88.3097C205.58 88.3097 205.029 88.3097 204.478 88.3097C203.926 97.6925 202.273 104.868 200.068 110.387Z" fill="#414042"/>
<path d="M173.059 155.645C172.508 155.645 171.957 155.645 171.405 156.197C170.303 156.749 170.303 158.404 170.854 160.06C207.23 160.06 243.055 160.06 279.431 160.06C279.983 158.956 279.431 157.853 278.88 156.749C277.778 156.197 276.676 156.197 276.676 156.197C262.346 152.333 250.771 152.333 243.055 153.437C236.993 153.989 235.339 155.093 228.174 155.093C216.049 155.645 210.537 153.437 200.617 152.885C194.003 152.333 184.633 152.333 173.059 155.645Z" fill="white"/>
<path d="M228.175 133.016C226.522 134.672 224.317 135.776 222.112 135.224C218.805 134.672 217.703 131.36 217.703 131.36L228.175 133.016Z" fill="#414042"/>
<path d="M216.601 138.535C216.05 139.087 214.397 139.639 213.294 140.191C208.334 141.847 203.925 141.295 200.618 141.295C189.595 140.191 179.674 139.087 176.367 138.535C184.083 138.535 192.351 139.087 200.067 139.087L216.601 138.535Z" fill="#414042"/>
<path d="M226.521 138.535C227.073 139.087 228.726 139.639 229.828 140.191C234.789 141.847 239.198 141.295 242.505 141.295C253.528 140.191 263.449 139.087 266.756 138.535C259.04 138.535 250.772 139.087 243.056 139.087L226.521 138.535Z" fill="#414042"/>
<path d="M271.164 211.942C267.306 232.915 262.897 253.888 259.039 274.31C265.102 280.933 272.267 289.212 278.329 299.698C288.25 316.256 292.659 332.262 294.864 344.956C292.659 346.06 289.903 346.612 287.699 347.716C281.085 349.924 274.471 352.131 268.409 354.339C265.102 355.443 261.795 356.547 258.488 358.203C255.732 359.307 252.425 360.962 249.669 361.514C246.914 362.618 243.607 362.066 240.3 362.066C236.993 362.066 234.237 361.514 230.93 360.962C227.623 360.41 224.867 360.41 221.56 359.858C218.254 359.858 214.947 359.858 211.64 359.858C205.026 359.858 197.861 360.41 191.247 360.962C184.633 361.514 178.019 362.066 171.406 360.962C164.792 360.41 158.729 358.203 152.666 356.547C151.564 355.995 150.462 355.995 149.359 355.443C151.013 341.645 154.871 321.223 167.547 299.146C173.61 288.66 180.775 279.829 186.838 273.758C182.98 252.784 178.571 231.811 174.712 211.39C166.996 207.526 161.485 199.799 161.485 190.968C161.485 184.897 163.689 179.93 167.547 175.514C166.445 169.995 165.343 164.476 164.241 158.956C166.996 155.645 171.957 151.229 178.019 147.918C197.861 137.983 218.805 147.366 222.112 149.022C225.97 147.366 246.914 137.983 266.755 147.918C272.818 151.229 277.778 155.093 280.534 158.956C279.432 164.476 278.329 169.995 277.227 175.514C281.085 179.378 283.29 184.897 283.29 190.968C283.841 199.799 278.88 208.078 271.164 211.942Z" fill="#1C9792"/>
<path d="M173.059 70.096C173.059 76.1672 175.814 80.5826 178.57 86.1019C179.121 87.2057 185.735 98.7962 192.349 101.004C194.554 101.556 197.309 102.108 197.309 102.108C198.963 102.108 200.616 102.108 202.27 101.556C204.474 101.004 219.355 97.1405 229.827 84.998C243.055 70.096 252.976 38.636 236.992 19.8705C227.072 8.83188 211.088 7.72803 205.025 7.72803C204.474 7.72803 203.372 7.72803 202.821 7.72803C202.821 7.72803 199.514 8.27996 196.758 8.83188C185.735 11.5915 180.224 17.6627 180.224 17.6627C174.712 23.734 173.61 32.0129 173.61 38.636C173.61 39.7399 173.61 41.3957 173.61 42.4995C173.61 43.6034 173.61 44.7072 173.61 45.2592V45.8111C173.61 46.915 173.61 48.0188 174.161 49.1227C174.161 50.7785 174.712 52.4342 174.712 55.1939C174.161 63.4728 173.059 65.1286 173.059 70.096Z" fill="#FC8872"/>
<path d="M209.988 64.0248C208.334 64.0248 206.681 64.0248 205.027 62.9209C204.476 62.9209 203.925 62.369 203.374 61.8171L200.618 59.0574C200.618 59.0574 200.067 58.5055 200.618 57.9536C200.618 57.9536 201.169 57.4016 201.72 57.9536L204.476 60.7132C205.027 60.7132 205.578 61.2651 206.13 61.2651C211.641 63.4728 217.153 60.7132 219.908 59.0574C220.46 59.0574 220.46 59.0574 221.011 59.0574C221.011 59.6093 221.011 59.6093 221.011 60.1613C217.704 62.369 213.846 64.0248 209.988 64.0248Z" fill="#414042"/>
<path d="M180.223 64.5768C178.57 64.5768 177.468 64.5768 175.814 63.4729C174.712 62.921 173.059 61.8171 172.507 60.7133L170.303 57.4017C170.303 56.8498 170.303 56.8498 170.303 56.2979C170.854 56.2979 170.854 56.2979 171.405 56.2979L173.61 59.6094C174.161 60.7133 175.263 61.2652 176.365 61.8171C180.775 64.0249 186.286 61.2652 186.837 60.7133C187.388 60.7133 187.388 60.7133 187.94 60.7133C187.94 61.2652 187.94 61.2652 187.94 61.8171C186.837 62.921 184.082 64.5768 180.223 64.5768Z" fill="#414042"/>
<path d="M219.908 48.0189C217.152 47.4669 212.743 46.915 207.782 46.915C203.373 46.915 200.066 48.0189 197.311 48.5708C197.311 48.0189 197.311 47.4669 197.311 46.915C197.862 45.2592 198.413 44.1554 198.964 43.0515C202.271 43.0515 205.027 43.0515 207.231 43.0515C212.192 43.0515 213.845 43.6034 214.396 44.1554C217.703 45.2592 219.357 46.915 219.908 48.0189Z" fill="#414042"/>
<path d="M197.861 43.0517C197.31 43.6036 197.31 44.1555 196.759 45.2594C196.208 46.9152 196.208 48.571 196.759 48.571C196.759 48.571 197.31 46.3633 197.861 45.8113C197.861 44.7075 198.413 44.1555 198.964 43.0517C198.964 43.0517 198.964 42.4998 199.515 42.4998L197.861 43.0517Z" fill="#414042"/>
<path d="M173.611 48.571V49.1229C173.611 50.2268 173.611 51.3306 174.162 52.4345H174.714C179.123 52.4345 182.43 52.9864 185.186 53.5383C185.186 52.9864 185.186 52.4345 184.634 51.8825C184.083 50.2268 183.532 49.1229 182.43 48.019C179.123 48.019 176.367 48.571 174.162 48.571H173.611Z" fill="#414042"/>
<path d="M184.636 47.467C185.187 48.0189 185.187 48.5708 185.738 49.6747C186.289 51.3305 186.289 52.9863 186.289 52.9863C186.289 52.9863 185.187 50.7785 185.187 50.2266C185.187 49.1228 184.636 48.5708 184.084 47.467L183.533 46.915L184.636 47.467Z" fill="#414042"/>
<path d="M194.555 74.5114C193.453 73.9595 192.351 73.9595 191.248 73.9595C190.146 73.9595 189.044 73.9595 187.941 74.5114C189.044 75.0633 190.146 75.0633 191.248 75.0633C192.351 75.0633 193.453 75.0633 194.555 74.5114Z" fill="#414042"/>
<path d="M192.901 89.4135H192.35C191.248 89.4135 190.696 89.4135 189.594 88.8616C189.043 88.8616 189.043 88.3097 189.043 88.3097C189.043 87.7577 189.594 87.7577 189.594 87.7577C190.145 87.7577 191.248 87.7577 191.799 88.3097C193.452 88.3097 195.106 88.3097 197.31 87.2058C197.861 87.2058 197.861 87.2058 198.413 87.7577C198.413 88.3097 198.413 88.3097 197.861 88.8616C196.208 88.8616 194.554 89.4135 192.901 89.4135Z" fill="#414042"/>
<path d="M183.531 81.6866C184.082 82.2385 186.838 87.2059 192.35 88.3097C197.31 88.8617 202.822 85.5501 205.026 80.0308C202.822 78.9269 198.412 77.2712 192.35 78.375C188.492 78.9269 185.185 80.5827 183.531 81.6866Z" fill="#C81C1C"/>
<path d="M191.249 83.8942C189.044 83.8942 186.84 83.3423 184.635 82.7904C184.084 82.7904 184.084 82.2384 184.084 81.6865C184.084 81.1346 184.635 81.1346 185.186 81.1346C187.391 81.6865 191.249 82.2384 195.658 81.6865C198.965 81.1346 201.721 80.0307 204.477 77.823C205.028 77.823 205.028 77.823 205.579 77.823C205.579 78.3749 205.579 78.3749 205.579 78.9269C202.823 80.5826 199.516 82.2384 196.761 82.7904C194.005 83.8942 192.351 83.8942 191.249 83.8942Z" fill="#414042"/>
<path d="M197.309 3.86463C196.758 4.41656 190.695 9.38392 191.246 13.7993C192.349 20.9744 208.883 19.8706 217.702 32.5649C220.457 36.4284 221.56 40.2919 222.111 43.0516C222.662 46.3631 222.662 49.6747 222.662 52.9863C223.213 71.7518 218.253 87.7578 213.292 99.3483C219.906 98.2444 227.071 97.1405 233.685 95.4848C238.646 94.3809 241.952 92.1732 244.157 90.5174C252.424 86.102 259.038 82.2385 262.896 75.6153C267.857 67.8883 265.652 59.0575 263.999 49.1228C262.345 40.8438 259.589 27.5976 248.566 16.559C234.236 2.20885 209.434 -4.96623 197.309 3.86463Z" fill="#414042"/>
<path d="M206.129 7.72809C206.68 10.4877 192.35 12.6955 182.429 24.8379C171.406 38.6361 174.162 56.2978 171.406 56.2978C169.753 56.2978 166.997 46.3631 168.65 35.8765C168.65 34.7726 172.509 13.2474 189.594 7.72809C197.31 4.96845 205.578 5.52038 206.129 7.72809Z" fill="#414042"/>
<path d="M172.511 274.31C206.131 274.861 239.201 275.413 272.821 276.517C282.742 237.33 292.111 197.591 302.032 158.405C302.032 150.678 298.725 145.71 297.072 143.502C291.56 136.327 283.293 133.568 278.884 131.912C273.372 130.256 271.167 130.808 265.105 128.048C260.144 126.393 256.286 124.185 254.082 122.529C233.138 121.425 212.745 120.873 191.801 119.77C190.148 121.425 187.943 123.081 185.188 125.289C176.369 130.808 171.96 128.048 162.59 131.912C160.937 132.464 149.914 136.879 143.3 147.918C140.544 152.885 139.442 157.301 138.891 160.612C149.363 198.695 160.937 236.226 172.511 274.31Z" fill="#1C9792"/>
<path d="M214.947 95.4847C213.294 96.5886 211.641 98.2444 208.885 99.3482C204.476 101.556 200.617 102.108 198.413 102.108C197.862 102.66 197.311 103.764 196.759 104.868C192.901 111.491 190.697 115.906 191.248 119.218C191.799 123.081 196.208 125.841 199.515 127.497C210.538 133.016 221.561 131.912 234.238 129.704C244.159 128.049 249.119 127.497 251.875 124.737C257.937 118.114 254.079 107.075 248.568 91.0693C248.017 89.9655 247.466 88.3097 245.812 87.7577C243.056 86.6539 239.749 90.5174 237.545 92.1732C234.238 94.9328 227.624 97.6925 214.947 95.4847Z" fill="#414042"/>
<path d="M294.314 139.639C292.661 147.366 277.779 163.924 271.717 170.547C248.568 197.04 225.971 197.592 224.869 213.597C224.318 220.773 227.624 228.5 232.034 229.603C236.994 231.259 239.75 222.428 251.324 216.357C256.836 213.597 257.938 214.701 283.291 210.286C297.07 207.526 299.274 206.974 300.928 204.767C305.888 197.04 295.416 184.345 299.826 180.482C302.03 178.274 305.337 181.586 311.4 179.378C315.809 177.722 320.769 173.307 320.769 168.891C320.769 163.924 314.156 163.372 314.156 158.957C314.156 156.197 316.36 155.645 323.525 148.47C329.588 142.399 329.588 141.295 329.588 140.191C329.037 138.535 325.179 137.983 318.014 136.879C311.4 135.776 312.502 136.879 305.337 135.776C300.928 135.224 298.172 134.672 295.967 136.327C294.865 137.431 294.314 139.087 294.314 139.639Z" fill="#C97841"/>
<path d="M153.219 139.639C154.873 147.366 169.754 163.924 175.816 170.547C198.965 197.04 221.562 197.592 222.664 213.597C223.216 220.773 219.909 228.5 215.499 229.603C210.539 231.259 207.783 222.428 196.209 216.357C190.698 213.597 189.595 214.701 164.242 210.286C150.463 207.526 148.259 206.974 146.605 204.767C141.645 197.04 152.117 184.345 147.708 180.482C145.503 178.274 142.196 181.586 136.133 179.378C131.724 177.722 126.764 173.307 126.764 168.891C126.764 163.924 133.378 163.372 133.378 158.957C133.378 156.197 131.173 155.645 124.008 148.47C117.945 142.399 117.945 141.295 117.945 140.191C118.496 138.535 122.355 137.983 129.52 136.879C136.133 135.776 135.031 136.879 142.196 135.776C146.605 135.224 149.361 134.672 151.566 136.327C152.668 137.431 153.219 139.087 153.219 139.639Z" fill="#C97841"/>
<path d="M193.451 113.698C189.593 117.562 185.735 121.425 181.877 125.289C181.877 126.393 182.428 128.048 182.979 129.704C187.94 141.847 204.474 145.158 211.088 146.262C222.662 148.47 236.441 146.262 262.896 141.847C279.431 139.087 286.045 136.879 286.045 134.672C286.045 132.464 280.533 131.912 271.715 128.048C262.896 124.185 256.283 119.218 251.873 115.354L193.451 113.698Z" fill="#414042"/>
<path d="M230.93 289.212C220.459 282.037 216.049 269.342 212.742 257.752C209.436 246.161 206.68 235.675 200.066 225.74C194.554 216.357 187.389 208.078 180.224 199.247C173.059 190.968 165.343 182.69 155.422 177.722C153.218 176.618 151.013 179.93 153.218 181.034C163.69 186.553 171.406 194.832 178.571 204.215C186.287 213.598 194.003 223.532 199.515 234.019C209.436 253.336 208.333 278.725 227.624 292.523C231.482 294.179 233.135 290.868 230.93 289.212Z" fill="#5A7A5D"/>
<path d="M221.561 289.764C215.498 284.244 209.987 274.862 207.231 267.135C205.027 259.959 207.231 252.232 203.924 244.505C198.964 231.259 189.043 218.565 178.02 209.734C166.446 200.903 153.218 194.832 141.644 185.449C131.723 177.17 120.7 166.132 106.37 171.651C104.165 172.755 104.717 176.618 107.472 175.514C122.354 169.995 135.03 186.001 146.053 193.728C157.627 201.455 170.855 207.526 181.327 217.461C186.839 222.428 191.248 228.5 195.106 235.123C197.31 238.434 199.515 242.298 200.617 246.161C201.72 250.025 201.72 253.336 201.72 257.2C201.72 263.823 203.924 269.894 206.68 275.413C209.987 281.485 213.845 288.108 218.805 292.523C220.459 294.179 223.215 291.419 221.561 289.764Z" fill="#5A7A5D"/>
<path d="M215.5 295.283C207.233 284.244 199.517 273.758 195.659 260.511C194.005 254.44 191.801 247.817 189.045 242.298C186.289 236.778 184.084 230.707 179.675 226.292C175.817 221.876 170.306 218.565 165.345 215.805C160.936 213.045 154.873 209.182 149.362 209.182C144.401 209.182 139.992 214.701 137.236 218.013C133.378 221.324 130.071 226.292 127.316 231.811C126.213 234.019 129.52 236.226 130.623 234.019C133.378 229.051 136.134 224.084 139.992 220.22C141.646 218.565 143.299 215.805 145.504 214.701C149.362 211.942 153.22 214.149 156.527 215.805C161.487 218.013 165.896 221.324 170.306 224.636C175.266 228.499 178.573 232.363 181.329 237.882C184.084 243.401 186.84 248.921 188.494 254.44C190.698 259.959 191.801 266.031 194.005 271.55C198.414 281.485 204.477 289.763 211.091 298.594C213.296 299.146 217.154 297.49 215.5 295.283Z" fill="#5A7A5D"/>
<path d="M209.437 300.802C202.823 291.419 196.209 280.933 192.902 269.894C191.249 264.375 190.146 258.304 188.493 252.784C186.839 247.265 184.084 242.298 180.777 237.882C178.021 234.019 175.265 229.052 171.407 226.292C167.549 223.532 162.589 223.532 157.628 223.532C147.156 223.532 142.196 230.707 138.889 240.09C137.787 242.85 142.196 243.402 142.747 241.194C144.401 237.33 146.054 232.915 149.361 230.155C153.219 226.844 160.384 227.396 164.793 228.5C169.754 229.603 172.509 234.019 175.265 237.882C178.021 241.746 180.777 246.161 182.981 250.577C186.839 259.408 187.391 269.342 191.249 278.725C194.556 287.556 200.067 295.283 205.579 303.01C207.232 305.218 211.09 303.01 209.437 300.802Z" fill="#5A7A5D"/>
<path d="M232.583 280.933C221.56 263.823 213.844 245.057 208.884 225.188C206.679 217.461 205.026 209.734 200.616 202.559C195.656 194.832 188.491 189.313 183.531 181.586C172.508 165.028 164.792 146.262 154.871 129.152C152.115 124.185 147.706 113.698 142.194 111.491C137.234 109.835 135.58 116.458 133.927 119.218C132.825 121.425 136.132 123.633 137.234 121.425C137.785 120.873 138.887 117.01 139.99 116.458C140.541 114.802 141.092 115.354 141.643 117.01C142.194 117.562 142.745 118.114 143.297 118.666C146.052 121.977 148.257 125.841 150.462 129.152C154.871 137.431 159.28 145.158 163.689 153.437C171.405 167.235 177.468 182.137 187.94 194.28C194.003 200.903 198.963 206.422 202.27 215.253C204.475 222.428 206.128 230.155 208.333 237.882C213.293 253.888 220.458 268.79 229.276 282.588C230.379 285.348 233.686 283.14 232.583 280.933Z" fill="#5A7A5D"/>
<path d="M234.788 288.108C228.174 281.485 226.52 271.55 223.765 262.719C221.009 252.784 217.702 243.401 214.946 233.467C212.19 223.532 209.435 213.045 207.781 202.559C207.23 198.143 206.679 193.176 207.781 189.312C210.537 179.93 219.355 185.449 223.765 190.416C225.418 192.624 228.174 189.312 226.52 187.657C221.56 181.034 210.537 175.514 205.025 184.897C202.27 189.312 202.821 194.832 203.372 199.799C203.923 206.422 205.025 213.045 206.679 219.117C209.986 232.363 214.395 245.609 218.253 258.855C221.56 269.894 223.213 282.588 231.481 290.867C233.685 293.075 236.441 290.315 234.788 288.108Z" fill="#5A7A5D"/>
<path d="M221.563 296.387C210.54 284.244 206.131 267.686 200.619 252.784C197.863 245.609 194.556 238.434 191.249 231.259C187.942 223.532 184.084 215.253 179.675 208.63C175.817 203.111 168.652 204.767 163.141 204.767C154.322 204.767 145.504 205.318 136.685 205.318C130.623 205.318 121.253 204.215 116.293 207.526C111.332 210.838 110.781 216.909 108.025 220.772C106.372 222.98 110.23 225.188 111.332 222.98C115.19 217.461 115.19 210.838 122.906 210.286C130.071 209.734 137.236 209.734 144.953 209.734C152.669 209.734 160.936 208.63 169.203 209.182C175.266 209.734 176.919 212.494 179.124 216.909C180.777 220.221 182.431 223.532 184.084 226.844C190.698 240.09 196.21 253.336 201.17 267.134C205.579 278.725 209.989 289.764 218.256 299.146C220.461 301.354 223.216 298.594 221.563 296.387Z" fill="#5A7A5D"/>
<path d="M148.258 159.508C153.218 169.995 162.036 177.722 170.304 185.449C180.776 195.384 189.594 206.422 195.106 220.221C200.066 233.467 205.578 246.161 211.089 258.856C213.845 265.479 215.498 272.102 216.601 278.725C217.703 284.244 218.805 289.764 222.112 294.731C223.766 296.939 227.072 294.731 225.419 292.523C221.561 287.004 221.01 280.933 219.907 274.31C218.805 267.686 216.601 261.063 213.845 254.992C211.089 248.369 207.782 241.746 205.026 235.123C202.271 228.499 200.617 221.876 197.861 215.805C192.901 204.215 185.736 194.28 176.918 185.449C168.099 176.618 157.076 168.891 151.564 156.749C151.013 155.093 147.155 157.301 148.258 159.508Z" fill="#5A7A5D"/>
<path d="M200.617 296.387C192.901 285.9 185.736 273.758 180.775 261.615C176.917 252.784 174.713 238.986 163.69 237.33C158.178 236.226 152.116 238.986 147.706 241.746C142.746 244.505 138.337 247.817 134.479 251.68C126.762 261.063 125.66 273.206 125.66 284.796C125.66 287.556 129.518 287.556 130.069 284.796C130.621 273.758 130.621 262.167 138.337 253.336C141.644 249.473 146.053 246.713 151.013 244.505C155.974 242.298 162.587 238.986 167.548 242.85C171.406 245.609 173.059 250.577 174.713 254.992C176.366 259.959 178.571 264.927 180.775 269.342C185.736 279.829 191.247 289.212 198.412 298.594C198.412 300.802 201.719 298.594 200.617 296.387Z" fill="#5A7A5D"/>
<path d="M214.396 293.627C205.577 271.55 195.105 250.577 182.98 230.707C177.468 221.325 171.957 210.838 163.689 203.663C156.524 197.04 146.604 193.176 137.234 190.417C136.683 190.417 135.581 190.416 135.03 190.968C133.376 193.176 131.723 194.832 130.62 197.592C129.518 199.799 132.825 202.007 133.927 199.799C135.03 197.592 136.132 195.936 137.785 194.28C137.234 194.28 136.683 194.832 135.581 194.832C145.501 197.592 154.871 201.455 162.036 208.63C169.752 216.357 175.264 227.396 180.775 236.779C191.798 255.544 201.719 275.414 209.986 295.835C211.64 297.491 215.498 296.387 214.396 293.627Z" fill="#5A7A5D"/>
<path d="M230.931 289.212C233.687 296.387 239.199 301.906 244.159 307.425C250.222 313.497 255.733 320.12 260.694 327.295C262.347 329.502 265.654 327.295 264.001 325.087C259.04 318.464 253.529 311.841 248.017 306.321C243.057 300.802 236.994 295.835 234.238 288.66C233.687 285.9 229.829 287.004 230.931 289.212Z" fill="#5A7A5D"/>
<path d="M225.42 290.315C234.238 306.321 243.057 321.775 252.426 337.229C253.528 339.437 257.387 337.229 255.733 335.022C246.363 319.568 237.545 304.114 228.727 288.108C228.175 285.9 224.317 287.556 225.42 290.315Z" fill="#5A7A5D"/>
<path d="M218.253 280.381C222.111 294.179 226.52 307.425 234.236 319.016C238.094 324.535 241.953 330.054 245.259 336.126C248.015 341.645 249.118 347.716 254.078 352.132C256.283 353.787 259.038 351.028 256.834 349.372C252.424 345.508 251.322 338.885 248.566 333.918C245.811 328.399 241.401 322.879 238.094 317.36C230.378 305.77 225.969 293.075 222.111 279.829C221.56 276.517 217.702 277.621 218.253 280.381Z" fill="#5A7A5D"/>
<path d="M249.12 348.82C243.057 337.781 236.443 327.295 230.381 316.256C224.869 306.321 224.318 293.627 216.051 285.9C213.846 284.244 211.09 287.004 213.295 288.66C217.704 292.523 219.358 298.042 221.011 303.562C222.664 309.081 224.869 314.048 227.625 319.016C233.688 329.502 240.301 339.989 245.813 351.028C246.915 353.235 250.773 351.028 249.12 348.82Z" fill="#5A7A5D"/>
<path d="M238.647 352.684C232.585 341.093 229.278 328.951 227.073 315.704C224.868 304.114 222.113 292.523 214.396 283.692C212.743 281.485 209.987 284.796 211.641 286.452C219.357 295.835 221.561 308.529 223.766 320.672C225.971 332.814 229.829 343.853 235.34 354.339C236.443 357.099 239.75 354.891 238.647 352.684Z" fill="#5A7A5D"/>
<path d="M227.625 355.443C223.216 342.749 220.46 330.055 218.807 317.36C217.153 305.218 215.5 293.075 209.988 282.037C208.886 279.829 205.028 281.485 206.681 284.244C212.193 295.283 213.295 307.425 214.949 319.568C216.602 332.262 219.909 344.405 223.767 356.547C224.318 359.307 228.728 358.203 227.625 355.443Z" fill="#5A7A5D"/>
<path d="M218.255 349.372C217.704 343.853 217.704 338.333 217.153 332.814C217.153 327.847 217.153 322.879 216.05 317.912C215.499 313.497 212.744 309.633 209.988 305.77C207.232 301.354 205.579 296.939 204.476 291.971C203.925 289.212 200.067 290.316 200.618 293.075C201.72 297.491 202.823 301.354 205.027 305.218C207.232 309.633 210.539 313.497 211.641 317.912C212.744 322.879 212.192 328.399 212.744 332.814C213.295 338.333 213.295 343.301 213.846 348.82C214.397 352.132 218.806 352.132 218.255 349.372Z" fill="#5A7A5D"/>
<path d="M206.68 343.301C206.129 341.093 206.68 338.333 206.68 335.574C206.68 332.814 206.68 330.054 207.231 327.295C207.231 322.327 207.783 317.36 207.231 312.393C207.231 308.529 206.68 303.562 205.027 299.698C202.822 295.283 199.515 291.419 196.76 287.556C195.106 285.348 191.799 287.556 193.453 289.764C196.208 293.627 199.515 297.491 201.72 301.354C203.925 305.769 203.925 311.289 203.925 315.704C203.925 320.672 203.925 325.639 203.373 330.606C203.373 335.022 202.271 339.989 203.373 343.853C203.373 347.164 207.231 346.06 206.68 343.301Z" fill="#5A7A5D"/>
<path d="M196.207 267.135C196.758 263.823 197.309 259.959 197.86 256.648C222.662 253.888 254.629 253.888 290.454 263.271C298.722 265.479 306.989 268.238 314.154 270.998C311.949 279.829 309.193 288.66 306.989 298.043C298.17 297.491 291.557 296.387 287.698 295.283C255.18 288.66 242.504 273.758 211.088 268.79C203.923 267.135 198.963 267.135 196.207 267.135Z" fill="#FC8872"/>
<path d="M256.836 216.909C254.631 214.149 252.978 210.838 250.773 208.078C242.506 207.526 234.79 207.526 226.522 206.974C207.783 219.669 187.942 234.019 168.651 250.577C162.037 256.096 155.975 261.615 149.912 267.135C155.424 274.31 161.486 281.485 166.998 288.66C174.714 284.796 180.777 280.933 184.084 278.725C211.641 259.96 217.153 241.746 244.159 224.084C249.671 220.773 254.08 218.565 256.836 216.909Z" fill="#FC8872"/>
<path d="M235.341 247.265C245.262 242.85 268.961 234.571 295.417 242.85C303.684 245.609 317.463 250.025 325.179 263.271C330.691 272.654 334.549 288.66 326.281 298.594C320.219 305.769 310.849 306.321 298.724 306.873C278.331 307.425 249.12 308.529 236.443 288.108C227.625 272.654 233.688 253.336 235.341 247.265Z" fill="#1C9792"/>
<path d="M205.577 208.63C201.168 200.351 197.31 191.52 194.554 182.138C192.35 173.859 190.696 165.58 187.389 157.301C181.327 142.399 170.304 129.704 161.485 115.906C160.934 114.802 159.28 115.906 159.832 117.01C168.65 131.36 180.224 144.606 186.287 160.612C189.594 168.891 190.696 177.722 193.452 186.553C196.208 194.832 199.515 202.559 203.373 210.286C204.475 210.286 206.129 209.734 205.577 208.63Z" fill="#5A7A5D"/>
<path d="M205.579 204.215C197.863 194.832 192.352 183.241 186.84 172.203C184.084 166.684 181.88 161.164 179.124 156.197C176.919 151.23 173.613 146.814 169.203 144.054C168.101 143.503 167.55 145.158 168.101 145.71C173.061 149.022 175.817 154.541 178.573 160.06C181.329 165.58 183.533 171.099 186.289 176.618C191.249 187.105 196.21 197.592 203.926 206.422C205.028 206.422 206.131 205.319 205.579 204.215Z" fill="#5A7A5D"/>
<path d="M205.578 208.078C201.168 201.455 198.413 193.728 196.759 186.001C196.208 182.138 195.657 177.722 195.657 173.859C195.657 168.891 196.759 165.028 201.168 162.268C214.396 152.885 233.135 157.301 241.954 170.547C242.505 171.651 244.158 170.547 243.607 169.443C234.238 155.645 214.947 151.23 200.617 160.612C197.31 162.82 195.106 166.132 194.554 169.995C194.003 174.411 194.554 178.826 195.106 183.241C196.208 192.624 200.066 201.455 204.475 209.734C205.026 209.734 206.129 208.63 205.578 208.078Z" fill="#5A7A5D"/>
<path d="M187.942 211.942C171.958 203.663 161.487 187.657 143.85 182.138C141.645 181.586 138.338 180.482 136.685 178.274C135.031 176.066 136.133 172.755 135.582 169.995C135.031 166.684 133.378 163.372 130.622 160.612C123.457 153.989 113.536 153.437 104.167 153.989C103.064 153.989 103.064 155.645 104.167 155.645C114.638 155.645 129.52 156.197 133.378 168.339C134.48 172.203 132.827 177.17 135.582 180.482C137.236 182.689 140.543 183.241 142.747 184.345C160.384 189.865 170.856 205.319 186.84 213.597C187.942 213.597 188.493 212.494 187.942 211.942Z" fill="#5A7A5D"/>
<path d="M169.202 222.98C162.589 218.565 151.566 218.565 144.952 222.98C141.094 225.74 138.338 229.603 135.031 232.915C130.071 237.33 124.559 239.538 119.599 242.85C115.741 245.057 111.883 247.817 109.127 252.232C106.371 256.648 105.269 261.615 104.718 266.031C103.615 278.173 104.718 290.316 103.615 302.458C104.166 303.562 105.82 303.562 105.82 302.458C106.371 292.523 105.82 282.589 106.371 272.654C106.371 267.686 106.922 262.167 108.576 257.2C110.78 251.129 115.189 247.817 120.15 244.505C127.315 240.09 134.48 236.227 140.543 230.155C143.849 226.844 147.156 222.98 152.117 222.428C157.077 221.324 164.242 222.428 168.651 225.188C169.202 225.188 169.754 223.532 169.202 222.98Z" fill="#5A7A5D"/>
<path d="M239.2 238.986C230.933 254.44 216.051 276.517 190.698 289.212C173.061 298.043 163.692 296.387 160.936 295.283C146.606 291.419 135.583 275.965 136.685 261.063C137.237 251.129 143.299 244.506 152.118 236.779C166.999 222.428 188.494 202.559 211.091 209.182C228.177 215.253 236.444 233.467 239.2 238.986Z" fill="#1C9792"/>
<path d="M260.144 188.209C264.553 187.105 271.167 186.001 279.435 185.449C289.906 184.897 303.134 184.897 303.134 186.553C303.134 187.105 299.827 188.761 284.395 192.072C297.623 188.761 304.236 188.209 304.788 189.313C305.339 190.969 294.316 196.488 271.167 205.871C280.537 202.559 288.253 200.351 293.213 198.696C297.623 197.04 303.134 195.384 304.236 196.488C304.236 197.04 303.685 197.592 303.685 198.144C299.827 203.111 277.781 213.046 273.372 214.701C289.906 210.286 298.174 209.182 298.174 210.286C298.725 211.39 289.906 215.805 271.167 223.532C259.042 225.188 247.468 226.844 235.342 228.5C232.035 221.877 229.28 214.701 225.973 208.078C237.547 200.903 249.121 194.28 260.144 188.209Z" fill="#FC8872"/>
<path d="M254.081 187.657C258.491 187.657 260.695 188.209 260.695 189.313C261.246 190.969 257.94 193.728 250.775 197.592C243.61 200.903 236.445 204.215 229.28 207.526C228.177 207.526 227.075 207.526 225.973 206.974C228.177 203.111 234.24 192.072 246.916 188.761C249.672 188.209 251.877 187.657 254.081 187.657Z" fill="#FC8872"/>
<path d="M283.291 191.52C282.74 191.52 282.74 191.52 282.74 190.968C282.74 190.416 282.74 190.416 283.291 190.416L295.968 188.209C296.519 188.209 296.519 188.209 296.519 188.761C296.519 189.313 296.519 189.313 295.968 189.313L283.291 191.52C283.843 191.52 283.843 191.52 283.291 191.52Z" fill="#414042"/>
<path d="M266.205 198.144C266.205 198.144 265.654 198.144 265.654 197.592C265.654 197.04 265.654 197.04 266.205 196.488L278.882 190.417C279.433 190.417 279.433 190.416 279.984 190.968C279.984 191.52 279.984 191.52 279.433 192.072L266.205 198.144Z" fill="#414042"/>
<path d="M238.647 199.799C238.647 199.799 238.096 199.799 238.096 199.247C238.096 198.695 238.096 198.695 238.647 198.143L258.488 188.209C259.04 188.209 259.04 188.209 259.591 188.761C259.591 189.313 259.591 189.313 259.04 189.865L238.647 199.799C239.198 199.799 239.198 199.799 238.647 199.799Z" fill="#414042"/>
<path d="M327.933 241.746C327.933 241.746 327.382 241.746 327.382 241.194C324.626 236.779 318.563 229.052 308.091 225.188C303.131 223.532 297.619 222.428 292.108 222.98C291.557 222.98 291.557 222.98 291.557 222.428C291.557 221.876 291.557 221.876 292.108 221.876C297.619 221.325 303.131 222.428 308.642 224.084C319.665 227.948 325.728 236.227 328.484 241.194C329.035 240.642 328.484 241.194 327.933 241.746C328.484 241.746 327.933 241.746 327.933 241.746Z" fill="#414042"/>
<path d="M238.096 249.473C237.545 249.473 237.545 249.473 238.096 249.473C237.545 248.921 237.545 248.369 237.545 248.369C241.954 243.402 246.915 238.986 252.426 235.675C262.898 228.499 275.574 224.084 288.251 222.428C288.802 222.428 288.802 222.428 288.802 222.98C288.802 223.532 288.802 223.532 288.251 223.532C275.574 225.188 262.898 229.603 252.977 236.778C247.466 240.642 242.505 244.505 238.096 249.473Z" fill="#414042"/>
<path d="M294.315 220.773C294.315 220.773 293.764 220.773 293.764 220.221C293.764 219.669 293.764 219.669 293.764 219.117C298.173 216.357 303.133 214.701 308.094 214.149C310.849 214.149 313.054 214.149 315.81 214.149C316.361 214.149 316.361 214.701 316.361 214.701C316.361 215.253 315.81 215.253 315.81 215.253C313.054 214.701 310.849 214.701 308.094 215.253C303.684 216.357 298.724 218.013 294.315 220.773C294.866 220.773 294.315 220.773 294.315 220.773Z" fill="#414042"/>
<path d="M277.228 305.769C271.716 305.218 266.205 303.562 260.693 301.906C251.875 298.594 243.607 293.627 236.442 286.452C236.442 286.452 235.891 285.9 236.442 285.348C236.442 285.348 236.993 284.796 237.545 285.348C244.71 291.971 252.426 296.939 261.244 300.25C266.205 301.906 271.716 303.562 277.228 304.114C277.779 304.114 277.779 304.666 277.779 304.666C277.779 305.769 277.779 305.769 277.228 305.769Z" fill="#414042"/>
<path d="M116.842 274.862C116.291 274.862 116.291 274.31 116.291 273.758C118.496 264.927 122.354 257.2 128.416 250.577C131.172 247.817 133.928 245.609 136.684 243.402C137.235 243.402 137.235 243.402 137.786 243.402C137.786 243.954 137.786 243.954 137.786 244.505C135.03 246.713 132.274 248.921 129.519 251.681C124.007 257.752 119.598 265.479 117.944 274.31C117.393 274.31 117.393 274.862 116.842 274.862Z" fill="#414042"/>
<path d="M135.58 242.298C135.029 242.298 135.029 241.746 135.029 241.746V237.33C135.029 236.779 135.58 236.779 135.58 236.779C136.132 236.779 136.132 237.33 136.132 237.33V241.746C136.132 242.298 136.132 242.298 135.58 242.298Z" fill="#414042"/>
<path d="M137.235 228.5C136.684 228.5 136.684 227.948 136.684 227.948V222.428C136.684 221.876 137.235 221.876 137.235 221.876C137.786 221.876 137.786 222.428 137.786 222.428V227.948C137.786 227.948 137.786 228.5 137.235 228.5Z" fill="#414042"/>
<path d="M136.684 214.701C136.133 214.701 136.133 214.149 136.133 214.149V210.838C136.133 210.286 136.684 210.286 136.684 210.286C137.235 210.286 137.235 210.838 137.235 210.838V214.149C137.235 214.149 137.235 214.701 136.684 214.701Z" fill="#414042"/>
<path d="M171.407 298.594C171.407 298.594 170.855 298.594 170.855 298.042C170.855 297.491 170.855 297.491 171.407 296.939L187.39 290.315C187.941 290.315 187.941 290.315 188.492 290.867C188.492 291.419 188.492 291.419 187.941 291.971L171.407 298.594Z" fill="#414042"/>
<path d="M225.42 167.788C225.42 174.411 229.829 179.378 235.892 179.378C241.403 179.378 246.364 174.411 246.364 167.788C246.364 161.164 241.955 156.197 235.892 156.197C229.829 156.197 225.42 161.164 225.42 167.788Z" fill="#FFBC00"/>
<path d="M155.975 117.01C155.975 123.081 160.384 128.049 165.895 128.049C171.407 128.049 175.816 123.081 175.816 117.01C175.816 110.939 171.407 105.971 165.895 105.971C160.384 105.971 155.975 110.939 155.975 117.01Z" fill="#FFBC00"/>
<path d="M89.8359 158.405C89.8359 163.924 94.2452 168.339 99.7567 168.339C105.268 168.339 109.677 163.924 109.677 158.405C109.677 152.885 105.268 148.47 99.7567 148.47C94.2452 148.47 89.8359 152.885 89.8359 158.405Z" fill="#FFBC00"/>
<path d="M97.5508 230.155C97.5508 235.123 101.409 238.986 106.369 238.986C111.33 238.986 115.188 235.123 115.188 230.155C115.188 225.188 110.778 221.324 105.818 221.324C101.409 221.324 97.5508 225.188 97.5508 230.155Z" fill="#FFBC00"/>
<path d="M115.741 125.289C114.639 123.633 114.087 121.977 114.087 120.322C114.087 115.354 118.497 111.491 123.457 111.491C124.559 111.491 125.11 111.491 126.213 112.043C127.866 109.283 131.173 107.627 134.48 107.627C139.44 107.627 143.85 111.491 143.85 115.906C144.952 115.354 146.054 115.354 147.157 115.354C151.566 115.354 154.873 118.114 154.873 121.977C154.873 124.185 153.219 126.393 151.566 127.497C152.117 128.049 152.668 129.152 152.668 130.256C152.668 131.36 152.117 132.464 151.566 133.016C152.117 134.672 152.668 136.327 152.668 137.983C152.668 142.951 148.81 147.366 143.85 147.366C141.645 147.366 139.992 146.262 138.338 145.158C136.685 147.366 133.929 149.022 131.173 149.022C126.213 149.022 122.355 145.158 122.355 140.191C121.804 140.191 121.252 140.191 121.252 140.191C116.843 140.191 112.985 136.879 112.985 132.464C112.434 129.152 114.087 126.945 115.741 125.289Z" fill="#FFBC00"/>
<path d="M134.479 135.776C138.437 135.776 141.644 132.316 141.644 128.049C141.644 123.781 138.437 120.322 134.479 120.322C130.522 120.322 127.314 123.781 127.314 128.049C127.314 132.316 130.522 135.776 134.479 135.776Z" fill="#414042"/>
<path d="M141.645 130.808C141.645 131.36 142.196 131.912 142.747 131.912C143.298 131.912 143.849 131.36 143.849 130.808C143.849 130.256 143.298 129.704 142.747 129.704C141.645 129.704 141.645 130.256 141.645 130.808Z" fill="#414042"/>
<path d="M143.297 125.841C143.297 125.841 143.297 126.393 143.297 125.841C143.848 126.393 144.399 126.393 144.399 125.841C144.399 125.289 143.848 125.289 143.297 125.841C143.297 125.289 143.297 125.289 143.297 125.841Z" fill="#414042"/>
<path d="M137.236 119.77C137.236 120.322 137.787 120.874 138.339 120.874C138.89 120.874 139.441 120.322 139.441 119.77C139.441 119.218 138.89 119.218 138.339 119.218C137.787 119.218 137.236 119.218 137.236 119.77Z" fill="#414042"/>
<path d="M136.133 134.672C136.133 135.775 137.235 136.879 138.337 136.879C139.44 136.879 140.542 135.775 140.542 134.672C140.542 133.568 139.44 132.464 138.337 132.464C137.235 132.464 136.133 133.568 136.133 134.672Z" fill="#414042"/>
<path d="M129.52 131.36C129.52 132.464 130.071 133.016 131.173 133.016C132.826 133.568 133.378 132.464 133.378 131.36C133.378 130.256 132.826 129.704 131.724 129.704C130.622 129.704 129.52 130.256 129.52 131.36Z" fill="#414042"/>
<path d="M122.355 129.152C122.355 130.808 123.458 131.912 125.111 131.912C126.765 131.912 127.867 130.808 127.867 129.152C127.867 127.497 126.765 126.393 125.111 126.393C124.009 126.393 122.355 127.497 122.355 129.152Z" fill="#414042"/>
<path d="M127.867 123.633C127.867 124.185 128.418 124.737 128.969 124.737C129.521 124.737 130.072 124.185 130.072 123.633C130.072 123.081 129.521 122.529 128.969 122.529C128.418 122.529 127.867 123.081 127.867 123.633Z" fill="#414042"/>
<path d="M126.764 120.873C126.764 121.977 127.866 123.633 129.519 123.633C130.622 123.633 132.275 122.529 132.275 120.873C132.275 119.77 131.173 118.114 129.519 118.114C127.866 118.666 126.764 119.77 126.764 120.873Z" fill="#414042"/>
<path d="M89.2852 188.209C89.2852 184.345 93.1432 181.034 98.1036 180.482C98.6548 177.17 102.513 174.411 106.922 174.411C109.127 174.411 110.78 174.963 112.434 176.066C113.536 174.411 115.189 172.755 116.843 172.755C119.599 172.755 121.803 175.515 121.803 178.826C122.354 178.826 122.906 179.378 124.008 179.378C125.661 178.826 127.315 178.274 128.968 178.274C133.929 178.274 137.787 181.034 137.787 184.897C137.787 187.105 136.133 189.313 133.377 190.417C136.684 191.52 138.338 193.728 138.338 195.936C138.338 197.592 137.787 198.696 136.133 199.799C137.787 202.007 138.889 204.215 138.889 206.974C138.889 212.494 134.48 217.461 128.417 217.461C127.315 217.461 125.661 216.909 124.559 216.909C123.457 218.565 121.252 219.117 119.047 219.117C116.292 219.117 113.536 217.461 112.434 215.253C111.331 215.805 109.678 216.357 108.024 216.357C103.615 216.357 99.7571 213.598 99.2059 210.286C94.2455 209.182 90.9386 205.319 90.9386 200.351C90.9386 198.144 91.4898 195.936 93.1432 194.28C90.9386 192.624 89.2852 190.417 89.2852 188.209Z" fill="#FFBC00"/>
<path d="M106.369 196.488C106.369 200.351 110.227 203.663 115.188 203.663C120.148 203.663 124.006 200.351 124.006 196.488C124.006 192.624 120.148 189.313 115.188 189.313C110.227 189.313 106.369 192.072 106.369 196.488Z" fill="#414042"/>
<path d="M119.049 201.455C119.049 203.111 120.151 204.215 121.805 204.215C123.458 204.215 124.56 203.111 124.56 201.455C124.56 199.799 123.458 198.695 121.805 198.695C120.151 198.143 119.049 199.799 119.049 201.455Z" fill="#414042"/>
<path d="M118.496 206.423L119.047 206.974C119.047 206.974 119.598 206.974 119.598 206.423C119.598 205.871 119.047 205.871 119.047 205.871L118.496 206.423Z" fill="#414042"/>
<path d="M118.496 190.417C118.496 190.969 119.047 191.52 120.15 191.52C121.252 191.52 121.803 190.969 121.803 190.417C121.803 189.865 121.252 189.313 120.15 189.313C119.047 189.313 118.496 189.865 118.496 190.417Z" fill="#414042"/>
<path d="M112.434 202.007C112.434 203.663 113.536 204.767 114.638 204.767C115.741 204.767 116.843 203.663 116.843 202.007C116.843 200.351 115.741 199.247 114.638 199.247C112.985 199.247 112.434 200.351 112.434 202.007Z" fill="#414042"/>
<path d="M106.369 200.903C106.369 202.007 107.471 202.559 108.574 202.559C109.676 202.559 110.778 202.007 110.778 200.903C110.778 199.799 109.676 199.247 108.574 199.247C106.92 199.247 106.369 199.799 106.369 200.903Z" fill="#414042"/>
<path d="M108.576 187.657C108.576 188.209 109.127 189.313 109.678 189.313C110.23 189.313 110.781 188.761 110.781 187.657C110.781 186.553 110.23 186.001 109.678 186.001C109.127 186.553 108.576 187.105 108.576 187.657Z" fill="#414042"/>
<path d="M114.088 185.449C114.088 186.001 114.088 186.001 114.639 186.001C114.639 186.001 115.19 186.001 115.19 185.449C115.19 184.897 115.19 184.897 114.639 184.897C114.088 184.897 114.088 185.449 114.088 185.449Z" fill="#414042"/>
<path d="M121.252 193.728C121.252 194.832 122.354 195.936 123.457 195.936C124.559 195.936 125.661 194.832 125.661 193.728C125.661 192.624 124.559 191.521 123.457 191.521C121.803 191.521 121.252 192.624 121.252 193.728Z" fill="#414042"/>
<path d="M120.699 89.9654C120.699 98.2443 127.313 104.867 135.029 104.867C143.297 104.867 149.359 98.2443 149.359 89.9654C149.359 81.6865 142.745 75.0633 135.029 75.0633C126.762 74.5114 120.699 81.6865 120.699 89.9654Z" fill="#FFBC00"/>
<path d="M132.275 94.3808C132.275 99.3482 137.236 103.212 143.85 103.212C150.463 103.212 155.424 99.3482 155.424 94.3808C155.424 89.4135 150.463 85.55 143.85 85.55C137.787 84.998 132.275 89.4135 132.275 94.3808Z" fill="#FFBC00"/>
<path d="M136.684 82.7903C136.684 87.7576 140.542 91.6211 145.502 91.6211C150.462 91.6211 154.32 87.7576 154.32 82.7903C154.32 77.8229 150.462 73.9594 145.502 73.9594C140.542 73.4075 136.684 77.271 136.684 82.7903Z" fill="#FFBC00"/>
<path d="M130.068 78.9269C130.068 82.2385 132.824 84.4462 135.58 84.4462C138.887 84.4462 141.091 81.6865 141.091 78.9269C141.091 75.6153 138.336 73.4076 135.58 73.4076C132.824 72.8557 130.068 75.6153 130.068 78.9269Z" fill="#FFBC00"/>
<path d="M133.926 102.108C133.926 104.868 136.682 107.075 139.988 107.075C143.295 107.075 146.051 104.868 146.051 102.108C146.051 99.3483 143.295 97.1406 139.988 97.1406C136.682 97.1406 133.926 99.3483 133.926 102.108Z" fill="#FFBC00"/>
<path d="M135.58 89.4135C135.58 93.829 138.336 97.1405 141.092 97.1405C143.847 97.1405 146.603 93.829 146.603 89.4135C146.603 84.9981 143.847 81.6865 141.092 81.6865C138.336 81.6865 135.58 85.55 135.58 89.4135Z" fill="#414042"/>
<path d="M131.723 92.7251C131.723 94.3809 133.376 96.0367 135.03 96.0367C136.683 96.0367 138.336 94.3809 138.336 92.7251C138.336 91.0694 136.683 89.4136 135.03 89.4136C133.376 89.4136 131.723 91.0694 131.723 92.7251Z" fill="#414042"/>
<path d="M133.926 84.9981C133.926 85.5501 134.477 86.102 135.579 86.102C136.13 86.102 137.233 85.5501 137.233 84.9981C137.233 84.4462 136.682 83.8943 135.579 83.8943C134.477 84.4462 133.926 84.9981 133.926 84.9981Z" fill="#414042"/>
<path d="M135.58 81.1346C135.58 81.6865 136.131 82.2384 136.131 82.2384C136.682 82.2384 136.682 81.6865 136.682 81.1346C136.682 80.5827 136.131 80.0307 136.131 80.0307C136.131 79.4788 135.58 80.0307 135.58 81.1346Z" fill="#414042"/>
<path d="M139.99 81.6865C139.99 82.7903 141.093 83.8942 142.195 83.8942C143.297 83.8942 144.399 82.7903 144.399 81.6865C144.399 80.5826 143.297 79.4788 142.195 79.4788C141.093 79.4788 139.99 80.5826 139.99 81.6865Z" fill="#414042"/>
<path d="M142.744 85.5499C142.744 87.2057 143.846 88.3096 145.5 88.3096C147.153 88.3096 148.256 87.2057 148.256 85.5499C148.256 83.8941 147.153 82.7903 145.5 82.7903C143.846 82.7903 142.744 84.4461 142.744 85.5499Z" fill="#414042"/>
<path d="M144.95 93.8289C145.864 93.8289 146.604 93.0876 146.604 92.1731C146.604 91.2587 145.864 90.5173 144.95 90.5173C144.037 90.5173 143.297 91.2587 143.297 92.1731C143.297 93.0876 144.037 93.8289 144.95 93.8289Z" fill="#414042"/>
<path d="M162.59 143.503C162.59 146.814 165.346 150.126 169.204 150.126C173.062 150.126 175.818 147.366 175.818 143.503C175.818 140.191 173.062 136.879 169.204 136.879C165.346 136.879 162.59 139.639 162.59 143.503Z" fill="#5A7A5D"/>
<path d="M227.624 198.695C231.276 198.695 234.237 195.73 234.237 192.072C234.237 188.414 231.276 185.449 227.624 185.449C223.971 185.449 221.01 188.414 221.01 192.072C221.01 195.73 223.971 198.695 227.624 198.695Z" fill="#5A7A5D"/>
<path d="M189.043 181.034C189.043 186.001 192.901 189.865 197.861 189.865C202.822 189.865 206.68 186.001 206.68 181.034C206.68 176.066 202.822 172.203 197.861 172.203C192.901 172.203 189.043 176.066 189.043 181.034Z" fill="#5A7A5D"/>
<path d="M116.842 230.707C116.842 235.675 120.7 239.538 125.66 239.538C130.621 239.538 134.479 235.675 134.479 230.707C134.479 225.74 130.621 221.876 125.66 221.876C120.7 221.876 116.842 225.74 116.842 230.707Z" fill="#5A7A5D"/>
<path d="M109.677 303.562C107.473 300.802 103.615 299.698 101.41 301.354C98.6542 303.01 98.103 306.873 100.308 310.185C102.512 312.945 106.37 314.048 108.575 312.393C111.331 310.185 111.882 306.322 109.677 303.562Z" fill="#5A7A5D"/>
<path d="M132.825 290.316C132.274 284.244 127.865 279.829 122.353 280.381C117.393 280.933 113.535 285.9 114.086 291.971C114.637 298.043 119.046 302.458 124.558 301.906C129.518 301.354 133.376 295.835 132.825 290.316Z" fill="#5A7A5D"/>
<path fill-rule="evenodd" clip-rule="evenodd" d="M73.8299 174.369C72.6483 175.119 70.6551 174.963 69.3696 172.937L67.12 169.393C66.0488 167.705 64.2404 166.721 62.1402 166.396C57.6019 165.962 53.9403 163.55 51.5836 159.836C47.6817 153.315 49.7008 144.93 55.8391 140.797C59.0464 138.762 62.8345 138.015 66.4216 138.817C70.0087 139.619 73.2873 141.8 75.3226 145.007C77.5722 148.552 78.1956 152.892 76.7185 156.908C75.9493 159.054 76.2837 161.446 77.3548 163.134L77.6593 163.614C77.6651 163.623 77.6709 163.631 77.6766 163.64C77.6823 163.649 77.6879 163.658 77.6933 163.667L79.8188 167.017C80.6758 168.367 80.2441 170.298 78.8937 171.155L73.8299 174.369ZM71.0571 171.866C71.2715 172.204 71.914 173.217 72.7581 172.681L77.822 169.467C78.3286 169.146 78.4519 168.594 78.1306 168.088L76.5238 165.556L69.7717 169.841L71.0571 171.866ZM75.4614 163.862C74.2446 161.694 74.0012 158.76 74.8485 156.2C76.0334 152.844 75.5625 149.117 73.6342 146.079C71.9203 143.378 69.3006 141.489 65.9893 140.749C62.9545 140.07 59.7794 140.665 57.0787 142.379C51.677 145.807 50.0118 153.257 53.2709 158.765C55.3064 161.972 58.5851 164.154 62.2956 164.404C65.044 164.736 67.2962 166.057 68.6982 168.154L75.4614 163.862ZM79.708 143.408C79.2014 143.73 78.6498 143.606 78.3283 143.1C78.007 142.594 78.1303 142.042 78.6369 141.72L82.0129 139.578C82.5192 139.257 83.0709 139.38 83.3921 139.886C83.7136 140.393 83.5903 140.944 83.0841 141.266L79.708 143.408ZM69.414 148.757C67.3788 145.55 62.964 144.563 59.7567 146.598C59.2504 146.92 58.6984 146.797 58.3771 146.29C58.0556 145.784 58.1793 145.232 58.6855 144.911C62.9056 142.232 68.4242 143.466 71.1022 147.686C71.4237 148.192 71.3 148.744 70.7938 149.065C70.2872 149.387 69.7355 149.264 69.414 148.757ZM45 165.435C44.4935 165.756 43.9418 165.633 43.6205 165.127C43.299 164.62 43.4223 164.069 43.9289 163.747L47.3049 161.605C47.8112 161.283 48.3629 161.407 48.6844 161.913C49.0056 162.419 48.8823 162.971 48.3761 163.292L45 165.435ZM67.2568 135.728C66.7049 135.604 66.3836 135.098 66.5069 134.546L67.3704 130.683C67.4938 130.131 68 129.81 68.5523 129.933C69.104 130.057 69.4253 130.563 69.3022 131.115L68.4384 134.978C68.4384 134.978 68.208 135.361 68.0392 135.468C67.8705 135.575 67.533 135.789 67.2568 135.728ZM45.3776 149.613L41.4074 148.581C40.8557 148.457 40.5344 147.951 40.6575 147.399C40.7808 146.847 41.2874 146.526 41.8391 146.649L45.702 147.513C46.2539 147.636 46.5752 148.142 46.4521 148.694C46.3905 148.97 46.3288 149.246 46.1601 149.353C45.9913 149.46 45.6535 149.675 45.3776 149.613ZM52.7206 137.376L50.5781 134C50.2568 133.493 50.3799 132.941 50.8862 132.62C51.3928 132.299 51.9447 132.422 52.2659 132.929L54.4085 136.305C54.7298 136.811 54.6067 137.363 54.1001 137.684C53.5938 138.006 53.0419 137.882 52.7206 137.376Z" fill="#F6F8F9"/>
<path fill-rule="evenodd" clip-rule="evenodd" d="M274.437 121.484C273.794 121.236 273.273 120.4 273.7 119.299L274.446 117.371C274.801 116.453 274.662 115.449 274.177 114.522C273.022 112.597 272.907 110.441 273.689 108.422C275.131 104.969 279.043 103.317 282.475 104.54C284.219 105.215 285.623 106.498 286.354 108.153C287.085 109.809 287.18 111.745 286.505 113.489C285.758 115.417 284.221 116.933 282.199 117.522C281.124 117.845 280.274 118.677 279.918 119.595L279.817 119.856C279.816 119.861 279.814 119.866 279.812 119.871C279.81 119.876 279.808 119.881 279.806 119.885L279.101 121.707C278.817 122.441 277.925 122.835 277.191 122.551L274.437 121.484ZM274.617 119.654C274.546 119.838 274.333 120.388 274.792 120.566L277.546 121.632C277.821 121.739 278.076 121.627 278.182 121.351L278.716 119.974L275.044 118.553L274.617 119.654ZM279.076 119.058C279.579 117.942 280.67 116.988 281.932 116.575C283.608 116.063 284.946 114.786 285.586 113.134C286.155 111.665 286.137 110.075 285.462 108.547C284.843 107.146 283.679 106.062 282.21 105.494C279.273 104.356 275.835 105.875 274.606 108.777C273.93 110.521 274.025 112.458 275.011 114.001C275.683 115.187 275.818 116.465 275.398 117.634L279.076 119.058ZM288.42 114.759C288.145 114.652 288.032 114.398 288.139 114.122C288.246 113.847 288.5 113.734 288.776 113.841L290.612 114.552C290.887 114.659 291 114.913 290.893 115.189C290.786 115.464 290.532 115.576 290.256 115.47L288.42 114.759ZM283.291 112.245C283.966 110.501 283.066 108.464 281.322 107.789C281.047 107.682 280.934 107.427 281.041 107.152C281.148 106.876 281.402 106.764 281.678 106.871C283.973 107.759 285.098 110.306 284.209 112.601C284.103 112.876 283.848 112.989 283.573 112.882C283.297 112.775 283.185 112.521 283.291 112.245ZM269.545 107.451C269.27 107.345 269.158 107.09 269.264 106.815C269.371 106.539 269.625 106.427 269.901 106.533L271.737 107.244C272.012 107.351 272.125 107.605 272.018 107.881C271.911 108.156 271.657 108.269 271.381 108.162L269.545 107.451ZM287.822 107.581C287.71 107.326 287.816 107.051 288.071 106.938L289.854 106.151C290.108 106.038 290.384 106.145 290.496 106.399C290.609 106.654 290.502 106.929 290.248 107.042L288.465 107.83C288.465 107.83 288.246 107.85 288.154 107.815C288.062 107.779 287.878 107.708 287.822 107.581ZM275.924 102.974L275.172 101.099C275.059 100.845 275.166 100.569 275.42 100.457C275.675 100.344 275.95 100.451 276.063 100.705L276.851 102.488C276.963 102.743 276.856 103.018 276.602 103.131C276.474 103.187 276.347 103.243 276.255 103.208C276.164 103.172 275.98 103.101 275.924 102.974ZM282.918 102.304L283.629 100.468C283.735 100.193 283.99 100.08 284.265 100.187C284.541 100.294 284.653 100.548 284.547 100.824L283.836 102.66C283.729 102.935 283.475 103.048 283.199 102.941C282.924 102.834 282.811 102.58 282.918 102.304Z" fill="#F6F8F9"/>
<path d="M321.911 94.1113C321.461 94.1113 321.461 88.1848 319.66 80.8908C318.31 76.332 317.86 73.5967 315.158 71.3174C311.557 67.6703 307.055 67.2144 305.254 67.2144C307.055 66.7586 309.306 65.3909 311.557 63.1115C314.708 59.9204 315.609 55.8175 316.509 51.7146C316.959 48.9793 317.86 44.8764 317.409 39.8617C317.409 38.95 317.86 52.1705 325.063 58.5528C328.664 61.7439 332.716 62.6557 335.417 62.6557C333.166 63.5674 328.664 65.3909 325.963 69.038C324.613 70.8615 324.162 72.685 323.262 77.2438C322.812 87.2731 322.362 94.1113 321.911 94.1113Z" fill="white"/>
<path d="M355.787 74.4117C355.787 74.4117 355.787 70.1498 353.96 65.279C353.351 62.2348 352.743 60.4083 350.916 58.5817C348.481 56.1463 345.436 55.5375 344.219 55.5375C345.436 54.9286 347.263 54.3198 348.481 52.4933C350.916 50.0579 351.525 47.6225 352.134 44.5783C352.743 42.7517 352.743 40.3164 352.743 36.6633C352.743 36.0544 353.351 45.1871 358.222 49.449C360.658 51.2756 363.702 51.8844 364.92 52.4933C363.093 53.1021 360.658 54.3198 358.831 56.7552C358.222 57.9729 357.613 59.1906 357.004 62.2348C356.396 69.5409 356.396 74.4117 355.787 74.4117Z" fill="white"/>
<mask id="mask0_261_11180" style="mask-type:alpha" maskUnits="userSpaceOnUse" x="355" y="69" width="150" height="92">
<path d="M422.582 156.256C398.963 167.184 370.958 156.896 360.03 133.277C349.102 109.659 359.39 81.6533 383.008 70.7254C406.627 59.7975 492.416 111.371 503.344 134.989C514.272 158.608 446.2 145.328 422.582 156.256Z" fill="#FFCB3C"/>
</mask>
<g mask="url(#mask0_261_11180)">
<path fill-rule="evenodd" clip-rule="evenodd" d="M405.308 105.359C405.061 102.127 403.778 98.9201 401.191 95.9072C392.359 85.6193 381.539 84.61 371.091 88.4785C356.407 93.9188 342.532 109.344 337.1 120.047C336.466 121.298 336.982 122.929 338.25 123.691C339.518 124.449 341.063 124.053 341.697 122.802C346.733 112.878 359.557 98.5292 373.174 93.4863C381.595 90.3649 390.351 90.9399 397.472 99.2316C399.012 101.025 399.828 102.917 400.085 104.833C398.807 104.741 397.539 104.675 396.284 104.636C391.26 104.484 378.524 106.583 370.728 111.382C364.559 115.181 361.441 120.618 364.927 127.423C366.922 131.32 370.543 133.24 375.025 133.366C380.552 133.52 387.563 130.758 393.422 126.316C398.295 122.624 402.351 117.794 404.203 112.727C404.463 112.017 404.682 111.302 404.858 110.585C429.356 113.62 456.932 126.498 474.666 144.425C475.719 145.49 477.343 145.541 478.294 144.538C479.242 143.537 479.155 141.858 478.102 140.793C459.605 122.094 430.891 108.62 405.308 105.359ZM399.521 110.076C398.528 110.012 397.54 109.964 396.562 109.936C392.053 109.799 380.623 111.685 373.623 115.993C369.92 118.273 367.337 121.178 369.429 125.264C370.455 127.268 372.433 128.004 374.737 128.068C377.791 128.153 381.36 127.08 384.852 125.298C390.267 122.53 395.483 118.026 398.26 112.946C398.773 112.007 399.201 111.048 399.521 110.076Z" fill="white"/>
<path fill-rule="evenodd" clip-rule="evenodd" d="M438.065 138.328C449.415 135.602 464.037 137.996 475.514 142.454C476.879 142.983 478.314 142.303 478.718 140.931C479.12 139.561 478.338 138.016 476.973 137.486C464.569 132.671 448.772 130.188 436.51 133.136C435.153 133.463 434.4 134.891 434.83 136.323C435.26 137.756 436.708 138.655 438.065 138.328Z" fill="white"/>
<path fill-rule="evenodd" clip-rule="evenodd" d="M477.628 136.983C469.775 131.035 463.547 119.284 461.505 109.59C461.208 108.183 459.884 107.207 458.551 107.411C457.219 107.615 456.377 108.921 456.672 110.329C458.971 121.227 466.085 134.379 474.915 141.067C476.056 141.933 477.593 141.72 478.34 140.592C479.088 139.465 478.769 137.849 477.628 136.983Z" fill="white"/>
</g>
</svg>
