<svg width="32" height="32" viewBox="0 0 32 32" fill="none" xmlns="http://www.w3.org/2000/svg">
<circle cx="16" cy="16" r="16" fill="#1FB9B3"/>
<path d="M6.2 11.5556C6.2 8.60268 8.60268 6.2 11.5556 6.2H20.4444C23.3973 6.2 25.8 8.60268 25.8 11.5556V20.4444C25.8 23.3973 23.3973 25.8 20.4444 25.8H11.5556C8.60268 25.8 6.2 23.3973 6.2 20.4444V11.5556ZM20.4444 8.02222H11.5556C9.60732 8.02222 8.02222 9.60732 8.02222 11.5556V20.4444C8.02222 22.3927 9.60732 23.9778 11.5556 23.9778H20.4444C22.3927 23.9778 23.9778 22.3927 23.9778 20.4444V11.5556C23.9778 9.60732 22.3927 8.02222 20.4444 8.02222ZM20.9113 9.80019C21.0822 9.62933 21.3139 9.53333 21.5556 9.53333C21.7972 9.53333 22.0289 9.62933 22.1998 9.80019L22.3412 9.65877L22.1998 9.80019C22.3707 9.97106 22.4667 10.2028 22.4667 10.4444C22.4667 10.6861 22.3707 10.9178 22.1998 11.0887C22.0289 11.2596 21.7972 11.3556 21.5556 11.3556C21.3139 11.3556 21.0822 11.2596 20.9113 11.0887C20.7404 10.9178 20.6444 10.6861 20.6444 10.4444C20.6444 10.2028 20.7404 9.97106 20.9113 9.80019ZM10.6444 16C10.6444 13.0471 13.0471 10.6444 16 10.6444C18.9529 10.6444 21.3556 13.0471 21.3556 16C21.3556 18.9529 18.9529 21.3556 16 21.3556C13.0471 21.3556 10.6444 18.9529 10.6444 16ZM19.5333 16C19.5333 14.0518 17.9482 12.4667 16 12.4667C14.0518 12.4667 12.4667 14.0518 12.4667 16C12.4667 17.9482 14.0518 19.5333 16 19.5333C17.9482 19.5333 19.5333 17.9482 19.5333 16Z" fill="white" stroke="#1FB9B3" stroke-width="0.4"/>
</svg>
