<svg width="546" height="420" viewBox="0 0 546 420" fill="none" xmlns="http://www.w3.org/2000/svg">
<path opacity="0.1" d="M33.1012 195.58C56.6097 164.032 98.0804 143.289 108.079 140.425C172.799 121.815 236.04 77.9205 300.951 64.555C365.861 51.1895 435 71.7538 489.96 170.201C519.42 223.055 515.256 271.056 482.972 296.297C362.405 390.767 232.651 408.785 107.56 343.988C82.8587 331.213 58.2413 315.102 35.2926 286.691C7.15084 252.013 14.5866 220.518 33.1012 195.58Z" fill="white"/>
<path opacity="0.1" d="M55.4638 134.239C83.5514 106.693 127.682 92.4819 138.011 91.1455C204.816 82.5679 274.029 48.7933 340.239 45.5036C406.449 42.214 471.648 72.9624 511.003 178.604C532.116 235.328 520.635 282.128 484.885 302.123C351.172 377.116 220.184 375.255 106.417 292.216C83.9493 275.789 62.0138 256.167 43.7234 224.605C21.2 186.057 33.3429 156.014 55.4638 134.239Z" fill="white"/>
<path d="M457.74 319.069H42.9141V319.276H457.74V319.069Z" fill="#EBEBEB"/>
<path d="M416.173 332.418H388.695V332.625H416.173V332.418Z" fill="#EBEBEB"/>
<path d="M378.252 332.418H319.504V332.625H378.252V332.418Z" fill="#EBEBEB"/>
<path d="M287.105 324.719H271.184V324.926H287.105V324.719Z" fill="#EBEBEB"/>
<path d="M114.886 326.113H86.4375V326.32H114.886V326.113Z" fill="#EBEBEB"/>
<path d="M173.998 326.113H122.27V326.32H173.998V326.113Z" fill="#EBEBEB"/>
<path d="M229.7 329.614H199.16V329.822H229.7V329.614Z" fill="#EBEBEB"/>
<path d="M239.54 282.067H79.3423C78.0873 282.064 76.8845 281.564 75.9979 280.676C75.1112 279.788 74.6133 278.584 74.6133 277.329V52.1367C74.6242 50.889 75.127 49.6959 76.0124 48.8167C76.8979 47.9374 78.0945 47.4431 79.3423 47.4409H239.54C240.796 47.4409 242.001 47.94 242.89 48.8284C243.778 49.7169 244.277 50.9218 244.277 52.1782V277.329C244.277 277.951 244.155 278.567 243.917 279.142C243.678 279.717 243.33 280.239 242.89 280.679C242.45 281.119 241.928 281.468 241.353 281.706C240.778 281.944 240.162 282.067 239.54 282.067ZM79.3423 47.6068C78.1423 47.609 76.9923 48.0873 76.1445 48.9366C75.2968 49.7858 74.8207 50.9368 74.8207 52.1367V277.329C74.8207 278.529 75.2968 279.68 76.1445 280.529C76.9923 281.379 78.1423 281.857 79.3423 281.859H239.54C240.74 281.855 241.89 281.376 242.738 280.528C243.587 279.679 244.065 278.529 244.07 277.329V52.1367C244.065 50.9367 243.587 49.787 242.738 48.9385C241.89 48.0899 240.74 47.6112 239.54 47.6068H79.3423Z" fill="#EBEBEB"/>
<path d="M419.006 282.067H258.8C257.545 282.062 256.342 281.562 255.455 280.674C254.567 279.787 254.067 278.584 254.062 277.329V52.1367C254.076 50.8882 254.58 49.6951 255.467 48.8161C256.354 47.9371 257.551 47.443 258.8 47.4409H419.006C420.252 47.4452 421.447 47.9406 422.33 48.8196C423.214 49.6986 423.715 50.8904 423.726 52.1367V277.329C423.727 277.95 423.606 278.565 423.37 279.14C423.133 279.714 422.786 280.236 422.347 280.676C421.909 281.115 421.388 281.465 420.815 281.703C420.241 281.942 419.627 282.065 419.006 282.067ZM258.8 47.6068C257.6 47.6112 256.45 48.0899 255.602 48.9385C254.753 49.787 254.274 50.9367 254.27 52.1367V277.329C254.274 278.529 254.753 279.679 255.602 280.528C256.45 281.376 257.6 281.855 258.8 281.859H419.006C420.206 281.855 421.355 281.376 422.204 280.528C423.053 279.679 423.531 278.529 423.536 277.329V52.1367C423.531 50.9367 423.053 49.787 422.204 48.9385C421.355 48.0899 420.206 47.6112 419.006 47.6068H258.8Z" fill="#EBEBEB"/>
<path d="M311.249 63.8516H96.2773V193.924H311.249V63.8516Z" fill="#E6E6E6"/>
<path d="M309.797 63.8516H92.9258V193.924H309.797V63.8516Z" fill="#F5F5F5"/>
<path d="M303.766 70.3474H98.9414V187.411H303.766V70.3474Z" fill="#FAFAFA"/>
<path d="M287.558 187.412L243.462 70.356H224.895L268.991 187.412H287.558Z" fill="white"/>
<path d="M263.733 187.412L219.629 70.356H206.844L250.948 187.412H263.733Z" fill="white"/>
<path d="M185.823 187.412L141.719 70.356H128.934L173.03 187.412H185.823Z" fill="white"/>
<path d="M150.521 70.356H143.336V187.42H150.521V70.356Z" fill="#E6E6E6"/>
<path d="M264.189 70.356H257.004V187.42H264.189V70.356Z" fill="#E6E6E6"/>
<path d="M149.217 65.5186H140.141V191.543H149.217V65.5186Z" fill="#F5F5F5"/>
<path d="M262.893 65.5107H253.816V191.535H262.893V65.5107Z" fill="#F5F5F5"/>
<path d="M99.5841 70.356H98.9453V187.42H99.5841V70.356Z" fill="#E6E6E6"/>
<path d="M317.772 55.4807H90.4219C89.9775 55.4807 89.6172 55.841 89.6172 56.2855V56.3353C89.6172 56.7797 89.9775 57.14 90.4219 57.14H317.772C318.216 57.14 318.576 56.7797 318.576 56.3353V56.2855C318.576 55.841 318.216 55.4807 317.772 55.4807Z" fill="#E6E6E6"/>
<path d="M311.252 58.6327C311.528 58.6284 311.792 58.5169 311.987 58.3217C312.182 58.1266 312.294 57.8632 312.298 57.5873V55.0403C312.298 54.7622 312.188 54.4955 311.992 54.2981C311.796 54.1008 311.53 53.9888 311.252 53.9866C311.115 53.9855 310.978 54.0118 310.851 54.0639C310.724 54.1161 310.608 54.193 310.511 54.2903C310.413 54.3876 310.337 54.5033 310.284 54.6306C310.232 54.7579 310.206 54.8944 310.207 55.032V57.579C310.206 57.7166 310.232 57.853 310.284 57.9803C310.337 58.1077 310.413 58.2234 310.511 58.3206C310.608 58.4179 310.724 58.4949 310.851 58.547C310.978 58.5992 311.115 58.6255 311.252 58.6244V58.6327Z" fill="#E6E6E6"/>
<path d="M102.1 58.6331C102.237 58.6342 102.374 58.6079 102.501 58.5558C102.628 58.5036 102.744 58.4267 102.841 58.3294C102.939 58.2321 103.015 58.1164 103.068 57.9891C103.12 57.8618 103.146 57.7253 103.145 57.5878V55.0407C103.147 54.9031 103.122 54.7665 103.071 54.6388C103.02 54.511 102.944 54.3947 102.847 54.2967C102.751 54.1986 102.636 54.1207 102.509 54.0676C102.382 54.0144 102.245 53.987 102.108 53.9871C101.83 53.9892 101.564 54.1012 101.368 54.2986C101.172 54.496 101.062 54.7627 101.063 55.0407V57.5878C101.067 57.8623 101.177 58.1245 101.37 58.3194C101.564 58.5143 101.825 58.6267 102.1 58.6331Z" fill="#E6E6E6"/>
<path d="M403.869 90.4253H348.996V146.535H403.869V90.4253Z" fill="#E0E0E0"/>
<path d="M402.427 90.4253H345.688V146.535H402.427V90.4253Z" fill="#F5F5F5"/>
<path d="M397.666 96.7886H350.434V140.163H397.666V96.7886Z" fill="white"/>
<path d="M403.537 218.067H388.18V314.407H403.537V218.067Z" fill="#F0F0F0"/>
<path d="M400.585 314.406H231.41V319.061H400.585V314.406Z" fill="#F0F0F0"/>
<path d="M388.173 218.076H228.465V314.415H388.173V218.076Z" fill="#F5F5F5"/>
<path d="M403.537 214.01H388.18V218.075H403.537V214.01Z" fill="#E6E6E6"/>
<path d="M388.173 214.01H228.465V218.075H388.173V214.01Z" fill="#F0F0F0"/>
<path d="M382.666 251.743H233.992V226.646H382.666V251.743ZM234.988 250.706H381.629V227.634H235.021L234.988 250.706Z" fill="#E0E0E0"/>
<path d="M382.666 305.877H233.992V257.907H382.666V305.877ZM234.988 304.849H381.629V258.961H235.021L234.988 304.849Z" fill="#E0E0E0"/>
<path d="M362.629 227.126H254.02V230.428H362.629V227.126Z" fill="#E0E0E0"/>
<path d="M362.629 258.421H254.02V261.723H362.629V258.421Z" fill="#E0E0E0"/>
<path d="M345.912 212.251H286.891V214.01H345.912V212.251Z" fill="#E0E0E0"/>
<path d="M345.912 212.252H286.891L292.565 178.46H351.587L345.912 212.252Z" fill="#E0E0E0"/>
<path d="M344.818 212.252H285.797L291.472 178.46H350.493L344.818 212.252Z" fill="#EBEBEB"/>
<path d="M288.033 209.597L292.862 180.866C292.89 180.689 292.981 180.527 293.118 180.411C293.255 180.296 293.429 180.233 293.609 180.235H347.536C347.634 180.233 347.732 180.251 347.824 180.287C347.915 180.323 347.999 180.377 348.069 180.446C348.139 180.514 348.195 180.597 348.233 180.687C348.271 180.778 348.291 180.875 348.291 180.974C348.299 181.02 348.299 181.068 348.291 181.115L343.462 209.846C343.435 210.023 343.344 210.184 343.207 210.3C343.069 210.416 342.895 210.478 342.716 210.476H288.788C288.69 210.478 288.592 210.461 288.501 210.425C288.409 210.389 288.326 210.335 288.255 210.266C288.185 210.197 288.129 210.115 288.091 210.024C288.053 209.933 288.033 209.836 288.033 209.738C288.025 209.691 288.025 209.643 288.033 209.597Z" fill="#FAFAFA"/>
<path d="M332.553 212.251H273.531V214.01H332.553V212.251Z" fill="#F0F0F0"/>
<path d="M183.184 203.316H151.599C144.48 203.316 138.059 209.48 136.383 217.926L131.098 244.475H120.255C115.086 244.475 110.639 248.897 109.668 255.02L108.225 264.146C106.043 264.52 104.168 266.527 103.637 269.191H168.847C175.957 269.191 182.371 263.035 184.047 254.597L191.63 216.433C192.965 209.563 188.933 203.316 183.184 203.316ZM119.093 263.98H111.07L112.414 255.642C113.136 251.137 116.422 247.86 120.23 247.86H130.41L129.198 254.34C128.045 259.923 123.797 263.98 119.093 263.98Z" fill="#E6E6E6"/>
<path d="M167.477 269.116H169.766L174.105 319.07H171.816L167.477 269.116Z" fill="#E0E0E0"/>
<path d="M158.883 269.116H161.173L165.512 319.07H163.222L158.883 269.116Z" fill="#E0E0E0"/>
<path d="M113.574 269.116H111.284L106.945 319.07H109.235L113.574 269.116Z" fill="#E0E0E0"/>
<path d="M122.172 269.116H119.882L115.543 319.07H117.833L122.172 269.116Z" fill="#E0E0E0"/>
<path d="M250.322 356.536C339.163 356.536 411.183 352.331 411.183 347.145C411.183 341.958 339.163 337.753 250.322 337.753C161.481 337.753 89.4609 341.958 89.4609 347.145C89.4609 352.331 161.481 356.536 250.322 356.536Z" fill="#F5F5F5"/>
<path d="M349.472 66.9377H151.169C144.987 66.9377 139.977 71.9486 139.977 78.1298V154.01C139.977 160.191 144.987 165.202 151.169 165.202H349.472C355.653 165.202 360.664 160.191 360.664 154.01V78.1298C360.664 71.9486 355.653 66.9377 349.472 66.9377Z" fill="#149C97"/>
<path opacity="0.6" d="M349.472 66.9377H151.169C144.987 66.9377 139.977 71.9486 139.977 78.1298V154.01C139.977 160.191 144.987 165.202 151.169 165.202H349.472C355.653 165.202 360.664 160.191 360.664 154.01V78.1298C360.664 71.9486 355.653 66.9377 349.472 66.9377Z" fill="white"/>
<path opacity="0.9" d="M349.475 69.427H151.172C146.365 69.427 142.469 73.3235 142.469 78.1301V154.01C142.469 158.817 146.365 162.713 151.172 162.713H349.475C354.282 162.713 358.178 158.817 358.178 154.01V78.1301C358.178 73.3235 354.282 69.427 349.475 69.427Z" fill="white"/>
<path d="M338.638 105.849C337.051 105.849 335.781 107.118 335.781 108.705C335.781 110.292 337.051 111.562 338.638 111.562C340.224 111.562 341.494 110.292 341.494 108.705C341.449 107.118 340.179 105.849 338.638 105.849ZM338.638 110.383C337.685 110.383 336.915 109.612 336.915 108.66C336.915 107.708 337.685 106.937 338.638 106.937C339.59 106.937 340.36 107.708 340.36 108.66C340.315 109.657 339.544 110.383 338.638 110.383Z" fill="#60CDC9"/>
<path d="M338.644 109.521L337.828 108.705L338.644 107.889L339.46 108.705L338.644 109.521Z" fill="#60CDC9"/>
<path d="M343.717 112.377C343.762 111.244 343.717 110.111 343.535 108.977C343.082 106.121 341.948 103.446 340.044 100.907L338.593 98.9573L337.142 100.907C335.284 103.4 334.105 106.121 333.651 108.977C333.47 110.111 333.425 111.244 333.47 112.377C332.79 112.876 332.246 113.466 331.883 114.191C331.43 115.007 331.203 115.959 331.203 116.911V118.453L332.382 117.591C332.971 117.183 333.651 116.957 334.331 116.821C334.558 117.501 334.694 117.863 334.921 118.453C335.284 118.181 336.19 117.093 338.004 116.866V118.453H339.137V116.866C340.951 117.093 341.858 118.181 342.22 118.453C342.447 117.863 342.583 117.501 342.81 116.821C343.49 116.957 344.17 117.183 344.759 117.591L345.938 118.453V116.911C346.029 115.098 345.167 113.42 343.717 112.377ZM332.427 116.231C332.563 115.279 333.017 114.418 333.697 113.738C333.787 114.372 333.923 115.007 334.059 115.687C333.47 115.778 332.926 115.959 332.427 116.231ZM341.767 116.549C340.996 116.05 340.089 115.778 339.228 115.687V112.74H338.095V115.687C337.188 115.778 336.326 116.05 335.556 116.549C333.878 111.38 334.785 106.075 338.14 101.587L338.684 100.861L339.228 101.587C342.538 106.075 343.444 111.38 341.767 116.549ZM343.172 115.687C343.354 115.052 343.444 114.418 343.535 113.738C344.215 114.418 344.669 115.279 344.805 116.231C344.306 115.959 343.762 115.778 343.172 115.687Z" fill="#60CDC9"/>
<path d="M328.938 103.582H332.383V104.715H328.938V103.582Z" fill="#60CDC9"/>
<path d="M344.898 103.582H348.344V104.715H344.898V103.582Z" fill="#60CDC9"/>
<path d="M330.116 99.5466L333.199 100.997L332.7 102.04L329.617 100.589L330.116 99.5466Z" fill="#60CDC9"/>
<path d="M347.165 108.75L344.082 107.3L344.581 106.257L347.664 107.708L347.165 108.75Z" fill="#60CDC9"/>
<path d="M329.617 107.708L332.7 106.257L333.199 107.3L330.116 108.75L329.617 107.708Z" fill="#60CDC9"/>
<path d="M347.165 99.5466L347.664 100.589L344.581 102.04L344.082 100.997L347.165 99.5466Z" fill="#60CDC9"/>
<path opacity="0.7" d="M349.475 69.427H151.188C148.877 69.427 146.661 70.3445 145.026 71.978C143.391 73.6115 142.471 75.8272 142.469 78.1384V87.4636H358.178V78.1384C358.174 75.8307 357.256 73.6188 355.625 71.9863C353.994 70.3538 351.783 69.4336 349.475 69.427Z" fill="#149C97"/>
<path d="M159.747 78.4449C159.747 77.8214 159.562 77.2118 159.215 76.6934C158.869 76.1749 158.377 75.7708 157.801 75.5322C157.224 75.2936 156.591 75.2312 155.979 75.3528C155.367 75.4745 154.806 75.7747 154.365 76.2156C153.924 76.6565 153.624 77.2183 153.502 77.8299C153.38 78.4414 153.443 79.0753 153.681 79.6514C153.92 80.2275 154.324 80.7199 154.843 81.0663C155.361 81.4127 155.971 81.5976 156.594 81.5976C157.43 81.5976 158.232 81.2654 158.823 80.6742C159.415 80.083 159.747 79.2811 159.747 78.4449Z" fill="white"/>
<path d="M172.188 78.4449C172.188 77.8214 172.003 77.2118 171.657 76.6934C171.31 76.1749 170.818 75.7708 170.242 75.5322C169.666 75.2936 169.032 75.2312 168.42 75.3528C167.809 75.4745 167.247 75.7747 166.806 76.2156C166.365 76.6565 166.065 77.2183 165.943 77.8299C165.822 78.4414 165.884 79.0753 166.123 79.6514C166.361 80.2275 166.766 80.7199 167.284 81.0663C167.802 81.4127 168.412 81.5976 169.035 81.5976C169.872 81.5976 170.674 81.2654 171.265 80.6742C171.856 80.083 172.188 79.2811 172.188 78.4449Z" fill="white"/>
<path d="M184.637 78.4449C184.637 77.8214 184.452 77.2118 184.106 76.6934C183.76 76.1749 183.267 75.7708 182.691 75.5322C182.115 75.2936 181.481 75.2312 180.87 75.3528C180.258 75.4745 179.696 75.7747 179.255 76.2156C178.815 76.6565 178.514 77.2183 178.393 77.8299C178.271 78.4414 178.333 79.0753 178.572 79.6514C178.811 80.2275 179.215 80.7199 179.733 81.0663C180.252 81.4127 180.861 81.5976 181.485 81.5976C182.321 81.5976 183.123 81.2654 183.714 80.6742C184.305 80.083 184.637 79.2811 184.637 78.4449Z" fill="white"/>
<path opacity="0.1" d="M343.524 128.2H157.118C156.387 128.2 155.685 127.91 155.168 127.393C154.65 126.877 154.358 126.176 154.355 125.445C154.358 124.713 154.649 124.012 155.167 123.494C155.685 122.976 156.386 122.685 157.118 122.682H343.524C344.257 122.685 344.958 122.976 345.476 123.494C345.993 124.012 346.285 124.713 346.287 125.445C346.285 126.176 345.993 126.877 345.475 127.393C344.957 127.91 344.256 128.2 343.524 128.2Z" fill="#149C97"/>
<path d="M295.546 128.2H157.118C156.387 128.2 155.685 127.91 155.168 127.393C154.65 126.877 154.358 126.176 154.355 125.445C154.358 124.713 154.649 124.012 155.167 123.494C155.685 122.976 156.386 122.685 157.118 122.682H295.546C296.277 122.685 296.978 122.977 297.494 123.494C298.01 124.012 298.3 124.714 298.3 125.445C298.3 126.176 298.01 126.876 297.493 127.393C296.977 127.909 296.276 128.2 295.546 128.2Z" fill="#149C97"/>
<path opacity="0.1" d="M250.073 158.382L250.903 154.889C250.945 154.758 250.962 154.62 250.951 154.483C250.94 154.346 250.903 154.212 250.84 154.09C250.778 153.967 250.692 153.858 250.587 153.769C250.483 153.68 250.361 153.612 250.231 153.57C250.114 153.528 249.989 153.511 249.866 153.52H237.246C235.181 142.17 227.838 133.832 229.954 120.043C234.102 113.522 219.168 89.2882 208.325 103.857C194.279 104.778 207.271 131.128 180.548 137.873C160.894 142.851 150.116 154.233 145.777 163.808C147.429 164.728 149.288 165.211 151.178 165.21H151.676C153.367 161.438 155.674 157.976 158.504 154.963C157.033 158.299 155.767 161.72 154.713 165.21H251.293L251.533 159.8C251.549 159.629 251.531 159.457 251.48 159.292C251.429 159.128 251.346 158.976 251.235 158.844C251.125 158.712 250.99 158.603 250.837 158.524C250.685 158.445 250.518 158.396 250.347 158.382C250.256 158.373 250.164 158.373 250.073 158.382Z" fill="#407BFF"/>
<path d="M220.923 163.285C219.264 175.896 217.389 200.769 182.867 203.233C160.068 204.851 150.071 183.18 135.718 176.112C136.987 165.758 141.741 155.371 141.907 154.956C136.865 160.429 133.437 167.192 132.001 174.494C130.34 173.873 128.63 173.388 126.891 173.042C126.891 163.285 137.22 144.602 163.951 137.865C190.683 131.128 177.682 104.778 191.728 103.849C202.588 89.2804 217.505 113.515 213.357 120.036C210.686 137.467 223.122 146.17 220.923 163.285Z" fill="#263238"/>
<path d="M233.955 163.766C233.889 163.325 233.706 162.908 233.424 162.562C233.142 162.215 232.772 161.951 232.353 161.796C231.934 161.642 231.481 161.603 231.042 161.684C230.602 161.765 230.193 161.963 229.856 162.256L225.708 165.774C225.471 166.087 225.311 166.452 225.242 166.838C225.173 167.225 225.196 167.622 225.31 167.998L226.048 170.412C227.993 170.536 229.943 170.253 231.773 169.582C232.613 169.3 233.326 168.728 233.782 167.967C234.238 167.207 234.408 166.309 234.262 165.434L233.955 163.766Z" fill="#FFB573"/>
<path d="M210.502 149.256C210.668 150.168 210.892 151.288 211.107 152.325C211.323 153.362 211.564 154.424 211.813 155.47C212.31 157.569 212.883 159.618 213.472 161.692C214.061 163.766 214.808 165.708 215.571 167.649C216.35 169.514 217.245 171.329 218.251 173.083L216.11 171.382C216.553 171.665 217.086 171.772 217.604 171.681C218.571 171.534 219.502 171.207 220.35 170.719C221.436 170.138 222.472 169.467 223.444 168.711C224.465 167.948 225.519 167.052 226.448 166.222L226.647 166.056C227.079 165.685 227.625 165.474 228.194 165.457C228.763 165.44 229.321 165.619 229.774 165.963C230.227 166.308 230.549 166.797 230.685 167.35C230.821 167.903 230.763 168.486 230.521 169.001C229.829 170.462 228.995 171.851 228.032 173.149C227.06 174.489 225.948 175.721 224.714 176.825C223.294 178.101 221.64 179.09 219.844 179.737C218.777 180.117 217.657 180.327 216.525 180.359C215.298 180.391 214.074 180.211 212.908 179.828C212.116 179.566 211.43 179.057 210.95 178.376L210.767 178.127C209.306 176.055 208.013 173.869 206.901 171.59C205.839 169.381 204.9 167.116 204.089 164.803C203.287 162.53 202.6 160.218 202.031 157.876C201.749 156.714 201.475 155.544 201.201 154.366C200.928 153.188 200.77 152.043 200.587 150.716C200.431 149.437 200.777 148.148 201.551 147.119C202.326 146.091 203.468 145.402 204.74 145.198C206.011 144.994 207.313 145.29 208.37 146.025C209.427 146.76 210.159 147.876 210.411 149.139L210.502 149.256Z" fill="#FFB573"/>
<path d="M152.692 323.168C151.406 317.36 151.73 315.991 150.684 312.797C150.136 310.989 149.349 309.262 148.345 307.661C147.432 306.002 149.174 304.617 150.9 304.393C152.252 304.227 153.679 304.169 155.339 303.903L158.923 310.59C157.031 312.988 155.521 318.887 156.193 323.35C156.658 326.569 153.207 325.499 152.692 323.168Z" fill="#149C97"/>
<path d="M210.502 184.806C210.502 184.806 211.448 233.98 212.452 261.226C215.09 277.346 159.653 310.914 159.653 310.914C158.466 311.478 155.322 305.33 155.372 303.903C155.372 303.903 179.216 268.784 193.42 260.305C177.656 216.789 181.97 184.806 181.97 184.806H210.502Z" fill="#263238"/>
<path opacity="0.2" d="M181.939 184.806H199.934C199.934 184.806 196.334 232.876 192.326 257.285C177.866 215.321 181.939 184.806 181.939 184.806Z" fill="black"/>
<path opacity="0.2" d="M170.815 283.063C177.643 274.542 185.541 265.64 191.888 261.292C190.984 269.722 190.055 279.893 189.341 290.33C183.376 295.051 177.187 299.456 172.01 302.949C171.152 296.356 170.752 289.711 170.815 283.063Z" fill="black"/>
<path d="M163.096 309.702C162.374 310.217 161.088 311.154 160.159 311.876C160.087 311.934 160.004 311.977 159.915 312.003C159.826 312.028 159.733 312.036 159.641 312.025C159.549 312.014 159.46 311.985 159.38 311.94C159.299 311.894 159.228 311.833 159.172 311.76C157.389 309.308 155.837 306.698 154.534 303.961C154.465 303.826 154.442 303.672 154.467 303.523C154.492 303.374 154.565 303.236 154.675 303.131L156.998 300.825C157.133 300.692 157.315 300.618 157.504 300.618C157.693 300.618 157.875 300.692 158.01 300.825L158.085 300.916L163.27 308.698C163.325 308.776 163.365 308.863 163.386 308.955C163.407 309.048 163.41 309.144 163.394 309.237C163.378 309.33 163.343 309.42 163.292 309.5C163.24 309.58 163.174 309.648 163.096 309.702Z" fill="#097471"/>
<path d="M189.819 351.293C183.763 351.293 184.186 351.202 180.768 351.086C177.847 350.978 177.175 351.343 174.827 351.293C172.87 351.252 172.77 349.377 173.168 347.22C173.376 346.133 173.724 344.814 173.998 343.071H183.207C184.045 344.359 185.159 345.444 186.47 346.247C187.78 347.049 189.253 347.549 190.782 347.709C194.075 348.132 192.25 351.293 189.819 351.293Z" fill="#149C97"/>
<path d="M201.909 184.806C201.909 184.806 192.384 237.24 188.891 261.01C185.233 285.966 180.711 326.478 183.2 343.063C181.856 343.892 176.861 343.934 173.991 343.063C173.991 343.063 159.431 286.14 171.593 262.113C164.674 203.698 174.912 200.661 177.733 184.806H201.909Z" fill="#263238"/>
<path d="M183.58 339.603C183.706 340.753 183.917 341.893 184.21 343.012C184.24 343.095 184.252 343.183 184.246 343.27C184.24 343.358 184.215 343.443 184.175 343.521C184.135 343.599 184.078 343.668 184.01 343.723C183.942 343.778 183.863 343.819 183.779 343.842C183.749 343.847 183.718 343.847 183.687 343.842C180.369 344.381 175.391 343.601 173.84 343.319C173.693 343.288 173.558 343.217 173.448 343.115C173.339 343.013 173.259 342.883 173.217 342.739L172.429 339.545C172.399 339.463 172.387 339.376 172.392 339.289C172.397 339.203 172.419 339.118 172.458 339.04C172.497 338.963 172.551 338.894 172.617 338.838C172.684 338.782 172.761 338.74 172.844 338.715C172.918 338.707 172.993 338.707 173.068 338.715L182.825 338.897C183.012 338.912 183.188 338.99 183.325 339.118C183.462 339.246 183.552 339.417 183.58 339.603Z" fill="#008A85"/>
<path d="M202.743 138.877C208.783 140.014 210.061 142.486 214.508 151.654C213.164 157.693 205.946 162.995 205.946 162.995C205.946 162.995 192.779 146.676 202.743 138.877Z" fill="white"/>
<path d="M177.733 184.806C172.066 192.539 165.894 204.892 165.844 231.441C195.296 244.715 209.309 244.715 216.311 241.397C211.259 220.921 210.504 184.806 210.504 184.806C205.8 179.629 177.733 184.806 177.733 184.806Z" fill="#149C97"/>
<path opacity="0.2" d="M197.594 208.12C195.014 217.661 197.66 227.202 199.934 229.317C198.374 223.809 197.594 208.12 197.594 208.12Z" fill="black"/>
<path d="M212.321 150.318C212.42 153.537 212.105 157.428 211.383 165.094C210.894 171.582 212.511 183.919 210.47 184.823C205.31 186.267 191.762 185.603 177.732 184.823C177.077 175.531 177.318 169.126 171.444 148.385C170.815 146.463 170.977 144.37 171.891 142.567C172.806 140.763 174.4 139.397 176.322 138.769C176.861 138.594 177.417 138.48 177.981 138.429C179.284 138.296 180.661 138.18 182.071 138.114C187.018 137.757 191.984 137.757 196.931 138.114C198.548 138.263 200.249 138.462 201.825 138.686C204.652 139.107 207.245 140.497 209.16 142.619C211.075 144.741 212.192 147.463 212.321 150.318Z" fill="white"/>
<path d="M187.331 123.728C188.16 128.614 185.978 134.953 182.867 138.139C182.867 138.139 187.397 137.458 197.013 143.407C199.8 139.416 197.735 138.139 197.735 138.139C195.154 137.641 195.154 135.757 196.167 132.124L187.331 123.728Z" fill="#FFB573"/>
<path d="M194.998 142.204C191.829 142.652 190.85 147.439 190.85 147.439C190.85 147.439 183.242 142.054 180.836 138.263C181.793 137.723 182.72 137.133 183.615 136.496C183.615 136.496 193.148 140.362 194.998 142.204Z" fill="#1EB4AE"/>
<path d="M198.01 141.689C198.01 141.689 200.499 142.237 201.785 145.738C202.507 138.761 199.205 138.122 199.205 138.122C198.789 137.826 198.316 137.62 197.816 137.517C197.316 137.414 196.8 137.417 196.301 137.524C198.815 138.852 198.01 141.689 198.01 141.689Z" fill="#149C97"/>
<path opacity="0.2" d="M196.166 132.115L190.98 127.187C191.072 128.017 191.213 129.054 191.404 130.058C191.995 132.627 193.498 134.894 195.635 136.438C195.386 135.442 195.635 134.024 196.166 132.115Z" fill="black"/>
<path d="M189.337 112.511C187.304 120.102 186.284 123.296 188.657 128.507C192.224 136.397 201.715 137.633 205.897 130.954C209.672 124.906 212.36 113.531 206.287 107.774C205.025 106.496 203.445 105.579 201.709 105.118C199.974 104.658 198.147 104.669 196.417 105.153C194.688 105.636 193.12 106.573 191.875 107.867C190.63 109.161 189.753 110.764 189.337 112.511Z" fill="#FFB573"/>
<path d="M192.402 105.118C193.58 114.195 205.527 108.902 212.787 119.413C212.098 110.453 203.304 97.7344 192.402 105.118Z" fill="#263238"/>
<path d="M193.148 104.778C203.353 111.598 192.186 117.123 184.644 116.717C182.155 109.183 193.148 104.778 193.148 104.778Z" fill="#263238"/>
<path d="M185.614 117.563C185.599 118.313 185.738 119.059 186.023 119.752C186.309 120.446 186.735 121.074 187.274 121.595C188.676 122.815 190.285 121.305 190.65 119.198C190.991 117.298 190.65 114.369 188.883 113.996C187.116 113.622 185.614 115.539 185.614 117.563Z" fill="#FFB573"/>
<path d="M176.329 150.841L173.84 155.985C173.011 157.719 172.181 159.461 171.426 161.195C170.671 162.929 169.924 164.679 169.285 166.397C168.662 168.022 168.141 169.684 167.726 171.375L167.568 169.325C167.639 169.679 167.786 170.013 167.999 170.304C168.343 170.857 168.74 171.374 169.186 171.848C170.221 173.002 171.33 174.088 172.504 175.1C173.716 176.178 174.993 177.232 176.321 178.277C177.648 179.323 179.009 180.36 180.311 181.372L180.394 181.43C180.871 181.787 181.205 182.302 181.334 182.884C181.463 183.465 181.38 184.073 181.099 184.598C180.818 185.123 180.358 185.53 179.802 185.745C179.247 185.96 178.633 185.968 178.071 185.769C176.348 185.18 174.656 184.502 173.002 183.736C171.336 182.972 169.711 182.121 168.132 181.189C166.465 180.214 164.881 179.104 163.395 177.871C162.567 177.169 161.796 176.403 161.088 175.581C160.181 174.538 159.473 173.337 158.998 172.038C158.799 171.492 158.731 170.907 158.799 170.329V169.981C159.091 167.755 159.569 165.557 160.226 163.41C160.815 161.336 161.52 159.37 162.275 157.42C163.03 155.47 163.851 153.579 164.706 151.704C165.56 149.829 166.465 148.02 167.518 146.137C168.147 145.002 169.195 144.157 170.438 143.784C171.68 143.41 173.02 143.536 174.171 144.135C175.322 144.734 176.193 145.759 176.599 146.992C177.006 148.224 176.915 149.567 176.346 150.733L176.329 150.841Z" fill="#FFB573"/>
<path d="M177.663 138.478C172.271 138.478 169.906 139.739 163.949 149.637C165.277 153.893 173.822 159.103 173.822 159.103C173.822 159.103 183.04 147.223 177.663 138.478Z" fill="white"/>
<path d="M186.667 188.034L186.393 185.611C186.34 185.161 186.181 184.73 185.928 184.354C185.676 183.977 185.338 183.666 184.941 183.446L181.183 181.363C180.444 180.954 179.617 180.729 178.773 180.706C177.928 180.682 177.09 180.863 176.33 181.231L175.367 181.687C175.558 185.744 178.744 189.983 178.744 189.983L179.524 191.294C179.831 191.843 180.343 192.247 180.948 192.42C181.552 192.593 182.201 192.519 182.751 192.215L185.364 190.714C185.819 190.442 186.184 190.044 186.415 189.568C186.646 189.092 186.734 188.559 186.667 188.034Z" fill="#FFB573"/>
<path d="M228.605 173.042H200.165C200.028 173.048 199.891 173.026 199.762 172.979C199.633 172.931 199.514 172.859 199.413 172.766C199.312 172.672 199.231 172.56 199.173 172.435C199.116 172.31 199.083 172.176 199.078 172.038C199.078 171.918 199.095 171.797 199.128 171.681L203.143 154.889C203.244 154.517 203.458 154.186 203.755 153.94C204.052 153.695 204.418 153.548 204.803 153.52H233.243C233.381 153.515 233.518 153.536 233.647 153.584C233.775 153.631 233.894 153.704 233.995 153.797C234.096 153.89 234.177 154.002 234.235 154.127C234.292 154.252 234.325 154.387 234.33 154.524C234.339 154.648 234.322 154.772 234.28 154.889L230.256 171.681C230.159 172.053 229.948 172.385 229.651 172.629C229.355 172.873 228.989 173.018 228.605 173.042Z" fill="#149C97"/>
<path d="M200.276 171.69C200.249 171.684 200.224 171.673 200.202 171.658C200.179 171.642 200.16 171.622 200.145 171.599C200.131 171.576 200.121 171.55 200.116 171.523C200.112 171.496 200.112 171.468 200.119 171.441L203.869 155.778C203.978 155.354 204.222 154.977 204.562 154.702C204.903 154.427 205.323 154.269 205.76 154.251H232.832C232.887 154.251 232.939 154.273 232.978 154.312C233.017 154.351 233.039 154.403 233.039 154.458C233.039 154.513 233.017 154.566 232.978 154.605C232.939 154.644 232.887 154.666 232.832 154.666H205.719C205.376 154.687 205.048 154.814 204.781 155.03C204.513 155.245 204.319 155.538 204.225 155.869L200.484 171.533C200.471 171.578 200.444 171.618 200.406 171.646C200.369 171.675 200.323 171.69 200.276 171.69Z" fill="white"/>
<path d="M233.009 158.498L232.636 158.672C232.061 158.932 231.565 159.339 231.198 159.852C230.831 160.364 230.606 160.965 230.545 161.593L230.321 165.135C230.294 165.461 230.331 165.789 230.431 166.1C230.53 166.412 230.69 166.7 230.901 166.95C231.112 167.2 231.37 167.405 231.661 167.555C231.951 167.705 232.269 167.796 232.594 167.823H233.092C233.498 167.799 233.881 167.628 234.169 167.34C234.456 167.052 234.628 166.669 234.652 166.263L234.934 159.784C234.962 159.433 234.85 159.086 234.623 158.817C234.396 158.549 234.073 158.38 233.723 158.349C233.476 158.335 233.23 158.386 233.009 158.498Z" fill="#FFB573"/>
<path d="M320.074 310.971C317.353 298.808 322.787 269.629 325.052 263.025C327.317 256.421 343.039 248.523 352.58 244.25C362.121 239.977 379.593 251.609 379.593 251.609C379.593 251.609 361.457 249.709 356.247 252.306C351.036 254.903 339.927 262.859 336.335 269.679C332.743 276.499 320.655 296.701 320.074 310.971Z" fill="#263238"/>
<path d="M286.945 264.071C299.432 265.382 309.669 273.919 312.922 276.516C316.174 279.113 317.468 289.558 317.949 295.789C318.431 302.019 308.4 309.569 308.4 309.569C308.4 309.569 313.129 299.746 312.714 296.295C312.299 292.843 310.051 284.995 306.907 281.568C303.762 278.142 296.951 269.14 286.945 264.071Z" fill="#263238"/>
<path d="M316.614 303.081C317.784 286.04 309.637 274.815 310.807 261.325C311.976 247.835 327.176 217.735 328.495 209.223C330.984 216.756 320.024 252.987 320.505 262.81C320.987 272.633 326.155 292.453 316.614 303.081Z" fill="#008A85"/>
<path d="M304.166 237.008C306.207 237.344 308.112 238.248 309.664 239.615C311.216 240.982 312.353 242.758 312.944 244.74C311.596 246.356 309.838 247.581 307.855 248.288C305.872 248.994 303.736 249.155 301.669 248.756C296.127 247.727 294.202 244.607 294.874 241.397C295.546 238.186 298.624 235.979 304.166 237.008Z" fill="#149C97"/>
<path d="M321.47 245.47C320.875 246.703 319.948 247.745 318.793 248.478C317.637 249.211 316.3 249.606 314.932 249.619C314.15 248.463 313.691 247.119 313.602 245.726C313.513 244.333 313.797 242.942 314.426 241.696C316.085 238.377 318.425 237.672 320.366 238.701C322.308 239.729 323.137 242.119 321.47 245.47Z" fill="#149C97"/>
<path d="M317.713 274.251C318.701 275.204 319.402 276.415 319.735 277.747C320.068 279.079 320.02 280.478 319.596 281.784C318.249 282.156 316.827 282.16 315.478 281.797C314.128 281.433 312.9 280.716 311.922 279.718C309.284 277.071 309.383 274.649 310.984 273.139C312.586 271.629 315.075 271.596 317.713 274.251Z" fill="#149C97"/>
<path d="M324.38 289.815C323.723 290.351 322.928 290.692 322.086 290.799C321.244 290.906 320.389 290.775 319.618 290.421C319.488 289.568 319.588 288.695 319.909 287.894C320.23 287.093 320.76 286.393 321.443 285.866C323.26 284.439 324.762 284.671 325.55 285.766C326.338 286.861 326.197 288.388 324.38 289.815Z" fill="#149C97"/>
<path d="M329.557 266.154C328.308 267.614 326.672 268.693 324.838 269.266C323.004 269.84 321.045 269.885 319.186 269.397C318.555 267.553 318.429 265.573 318.821 263.663C319.214 261.753 320.11 259.983 321.418 258.537C324.886 254.646 328.271 254.588 330.544 256.687C332.818 258.786 333.025 262.279 329.557 266.154Z" fill="#149C97"/>
<path d="M317.318 303.645H317.235C317.128 303.625 317.032 303.563 316.97 303.473C316.908 303.383 316.884 303.272 316.903 303.164C322.794 272.401 317.327 245.686 300.651 223.766C300.574 223.688 300.531 223.582 300.531 223.472C300.531 223.362 300.574 223.256 300.651 223.177C300.688 223.139 300.734 223.108 300.783 223.087C300.833 223.066 300.887 223.055 300.941 223.055C300.995 223.055 301.049 223.066 301.098 223.087C301.148 223.108 301.193 223.139 301.231 223.177V223.219C318.057 245.337 323.582 272.268 317.65 303.28C317.641 303.369 317.604 303.452 317.544 303.518C317.485 303.583 317.405 303.628 317.318 303.645Z" fill="#263238"/>
<path d="M302.59 214.2C304.092 216.083 305.033 218.351 305.308 220.743C305.582 223.136 305.178 225.558 304.142 227.732C301.715 228.073 299.241 227.758 296.976 226.82C294.712 225.882 292.74 224.355 291.266 222.397C287.283 217.187 288.022 212.997 291.141 210.732C294.261 208.467 298.591 208.973 302.59 214.2Z" fill="#149C97"/>
<path d="M299.311 303.684L298.398 316.728L299.226 316.786L300.138 303.742L299.311 303.684Z" fill="#149C97"/>
<path d="M298.002 321.292L297.613 326.851L298.443 326.909L298.832 321.35L298.002 321.292Z" fill="#149C97"/>
<path d="M338.546 294.536H302.266L298.516 347.177H342.305L338.546 294.536Z" fill="#149C97"/>
<path d="M347.626 340.905C343.596 340.905 339.657 339.71 336.306 337.471C332.955 335.232 330.343 332.05 328.801 328.327C327.259 324.603 326.855 320.506 327.642 316.554C328.428 312.601 330.368 308.971 333.218 306.121C336.068 303.271 339.698 301.331 343.651 300.544C347.604 299.758 351.701 300.162 355.424 301.704C359.147 303.246 362.33 305.858 364.569 309.209C366.807 312.56 368.003 316.499 368.003 320.529C367.996 325.931 365.847 331.11 362.027 334.93C358.207 338.75 353.028 340.899 347.626 340.905ZM347.626 301.812C343.924 301.812 340.306 302.91 337.228 304.967C334.15 307.023 331.751 309.946 330.334 313.366C328.917 316.787 328.547 320.55 329.269 324.181C329.991 327.811 331.774 331.146 334.391 333.764C337.009 336.382 340.344 338.164 343.975 338.886C347.605 339.609 351.369 339.238 354.789 337.821C358.209 336.405 361.132 334.006 363.189 330.928C365.245 327.85 366.343 324.231 366.343 320.529C366.334 315.568 364.36 310.812 360.851 307.304C357.343 303.796 352.588 301.821 347.626 301.812Z" fill="#01AAA3"/>
</svg>
