<svg width="458" height="466" viewBox="0 0 458 466" fill="none" xmlns="http://www.w3.org/2000/svg">
<path opacity="0.1" d="M198.078 347.993C176.895 334.059 163.798 311.839 162.127 306.626C151.256 272.879 122.758 238.166 115.541 204.678C108.323 171.19 124.83 137.872 195.036 116.938C232.726 105.721 265.966 111.057 282.484 128.969C344.313 195.878 352.694 262.232 303.643 320.646C293.971 332.183 281.983 343.451 261.495 353.051C236.485 364.834 214.825 358.972 198.078 347.993Z" fill="#1FB9B3"/>
<path opacity="0.1" d="M174.222 342.287C155.967 326.326 147.497 303.212 146.898 297.937C143.07 263.821 121.799 226.794 121.628 193.334C121.458 159.875 144.92 129.225 219.629 116.609C259.742 109.845 291.915 118.772 304.674 138.07C352.541 210.261 347.061 275.891 285.689 327.388C273.549 337.556 259.206 347.241 236.676 354.289C209.155 362.99 188.654 354.864 174.222 342.287L174.222 342.287Z" fill="#1FB9B3"/>
<path d="M147.422 340.493C194.648 365.168 271.228 365.168 318.454 340.493C365.681 315.819 365.686 275.816 318.454 251.141C271.222 226.466 194.648 226.466 147.422 251.141C100.196 275.816 100.19 315.819 147.422 340.493Z" fill="#F5F5F5"/>
<path d="M269.846 334.254C284.088 334.254 295.633 328.752 295.633 321.964C295.633 315.177 284.088 309.675 269.846 309.675C255.605 309.675 244.059 315.177 244.059 321.964C244.059 328.752 255.605 334.254 269.846 334.254Z" fill="#E0E0E0"/>
<path d="M315.528 306.226C326.516 306.226 335.423 301.981 335.423 296.744C335.423 291.508 326.516 287.263 315.528 287.263C304.54 287.263 295.633 291.508 295.633 296.744C295.633 301.981 304.54 306.226 315.528 306.226Z" fill="#E0E0E0"/>
<path d="M173.731 294.088C172.608 288.156 168.496 279.703 163.48 274.991C158.656 270.463 151.494 268.885 148.641 270.975C145.787 273.064 147.658 277.58 153.196 283.084C159.448 289.291 171.451 306.512 173.731 316.269V294.088Z" fill="#2CB7B3"/>
<g opacity="0.2">
<path d="M173.731 294.088C172.608 288.156 168.496 279.703 163.48 274.991C158.656 270.463 151.494 268.885 148.641 270.975C145.787 273.064 147.658 277.58 153.196 283.084C159.448 289.291 171.451 306.512 173.731 316.269V294.088Z" fill="black"/>
</g>
<path d="M173.731 308.36C173.661 308.359 173.593 308.332 173.541 308.284C173.489 308.237 173.457 308.171 173.45 308.101C172.035 293.161 161.587 276.366 151.544 272.867C151.474 272.842 151.417 272.79 151.384 272.723C151.352 272.656 151.347 272.578 151.37 272.508C151.396 272.437 151.448 272.38 151.515 272.347C151.582 272.315 151.659 272.31 151.73 272.333C162.143 275.956 172.563 292.65 174.023 308.051C174.029 308.125 174.006 308.199 173.959 308.257C173.912 308.314 173.844 308.351 173.77 308.36H173.731Z" fill="white"/>
<path d="M173.731 323.441C173.731 323.441 171.788 324.991 165.306 324.385C158.824 323.778 155.482 319.144 155.482 317.156C155.482 315.167 161.442 314.825 162.733 309.893C161.419 311.302 159.671 312.229 157.768 312.528C154.398 313.162 151.691 312.084 150.921 305.945C152.582 306.187 154.277 306.047 155.875 305.535C158.543 304.675 159.178 303.209 158.481 302.895C157.785 302.58 154.067 302.895 151.685 301.99C149.304 301.086 151.123 288.684 152.685 287.802C154.246 286.92 161.633 288.999 163.07 290.111C164.351 291.099 166.148 292.812 165.317 296.435C166.302 295.515 167.069 294.387 167.564 293.133C168.26 291.448 168.766 291.841 169.811 292.487C170.438 292.84 170.983 293.324 171.408 293.905C171.833 294.486 172.129 295.152 172.276 295.857C172.529 297.43 172.119 302.855 169.906 304.619C169.906 304.619 172.029 304.889 173.765 301.305C173.765 301.305 177.135 302.664 177.899 304.866C178.663 307.068 179.494 317.847 173.731 323.441Z" fill="#2CB7B3"/>
<path d="M174.304 324.666C174.235 324.665 174.169 324.64 174.118 324.595C174.066 324.549 174.033 324.487 174.023 324.419C172.54 312.281 163.312 296.335 154.263 290.347C154.201 290.305 154.157 290.24 154.142 290.167C154.128 290.093 154.143 290.016 154.184 289.954C154.226 289.891 154.291 289.848 154.365 289.833C154.438 289.818 154.515 289.834 154.578 289.875C163.739 295.97 173.113 312.079 174.579 324.351C174.589 324.425 174.569 324.5 174.523 324.559C174.478 324.618 174.411 324.656 174.338 324.666H174.304Z" fill="white"/>
<path d="M174.872 326.362C174.536 326.13 174.26 325.823 174.065 325.465C173.87 325.107 173.762 324.708 173.748 324.301V190.109C173.771 189.687 173.893 189.276 174.105 188.91C174.317 188.544 174.612 188.233 174.967 188.003L259.22 139.35C259.572 139.129 259.977 139.008 260.393 139C260.808 138.993 261.218 139.099 261.578 139.307C261.938 139.515 262.234 139.817 262.435 140.181C262.636 140.544 262.734 140.956 262.719 141.372L177.231 326.317C176.869 326.51 176.466 326.614 176.056 326.622C175.647 326.63 175.241 326.541 174.872 326.362Z" fill="#E0E0E0"/>
<path d="M176.012 192.659L210.235 170.265L207.955 168.945L174.95 188.003C174.595 188.233 174.3 188.544 174.088 188.91C173.877 189.276 173.754 189.687 173.731 190.109V191.339L176.012 192.659Z" fill="#263238"/>
<path opacity="0.2" d="M176.012 192.659L210.235 170.265L207.955 168.945L174.95 188.003C174.595 188.233 174.3 188.544 174.088 188.91C173.877 189.276 173.754 189.687 173.731 190.109V191.339L176.012 192.659Z" fill="#263238"/>
<path d="M187.442 196.608L174.085 188.924C173.867 189.286 173.746 189.698 173.731 190.12V324.29C173.717 324.704 173.815 325.115 174.017 325.478C174.218 325.841 174.515 326.143 174.874 326.35C175.234 326.557 175.643 326.663 176.059 326.655C176.474 326.647 176.879 326.527 177.23 326.306L187.442 320.436V196.608Z" fill="#263238"/>
<path opacity="0.4" d="M187.442 196.608L174.085 188.924C173.867 189.286 173.746 189.698 173.731 190.12V324.29C173.717 324.704 173.815 325.115 174.017 325.478C174.218 325.841 174.515 326.143 174.874 326.35C175.234 326.557 175.643 326.663 176.059 326.655C176.474 326.647 176.879 326.527 177.23 326.306L187.442 320.436V196.608Z" fill="#263238"/>
<path d="M177.231 326.317L261.483 277.664C261.838 277.434 262.133 277.123 262.345 276.757C262.557 276.391 262.679 275.98 262.702 275.558V141.372C262.702 140.597 262.14 140.282 261.483 140.67L177.231 189.323C176.876 189.553 176.581 189.864 176.369 190.23C176.157 190.596 176.035 191.007 176.012 191.429V325.615C176.012 326.39 176.557 326.705 177.231 326.317Z" fill="#455A64"/>
<path opacity="0.1" d="M177.231 326.317L261.483 277.664C261.838 277.434 262.133 277.123 262.345 276.757C262.557 276.391 262.679 275.98 262.702 275.558V141.372C262.702 140.597 262.14 140.282 261.483 140.67L177.231 189.323C176.876 189.553 176.581 189.864 176.369 190.23C176.157 190.596 176.035 191.007 176.012 191.429V325.615C176.012 326.39 176.557 326.705 177.231 326.317Z" fill="#455A64"/>
<path d="M183.01 222.422L203.231 210.739C204.573 209.964 205.663 210.515 205.663 211.97C205.603 212.786 205.351 213.578 204.929 214.279C204.506 214.981 203.925 215.573 203.231 216.008L183.01 227.691C181.662 228.466 180.578 227.916 180.578 226.461C180.637 225.644 180.888 224.852 181.31 224.15C181.733 223.449 182.315 222.857 183.01 222.422Z" fill="#2CB7B3"/>
<path d="M183.01 230.713L196.395 222.984C197.737 222.209 198.827 222.759 198.827 224.214C198.767 225.031 198.516 225.822 198.093 226.524C197.671 227.225 197.089 227.818 196.395 228.253L183.01 235.981C181.662 236.757 180.578 236.206 180.578 234.751C180.637 233.934 180.888 233.143 181.31 232.441C181.733 231.739 182.315 231.147 183.01 230.713Z" fill="#2CB7B3"/>
<path d="M181.55 244.902L184.167 243.391C184.729 243.082 185.139 243.334 185.139 243.952V246.974C185.121 247.312 185.023 247.64 184.854 247.933C184.686 248.226 184.45 248.474 184.167 248.659L181.55 250.148C180.988 250.462 180.578 250.209 180.578 249.586V246.564C180.6 246.231 180.699 245.907 180.868 245.618C181.037 245.33 181.27 245.084 181.55 244.902Z" fill="#2CB7B3"/>
<path opacity="0.2" d="M181.55 244.902L184.167 243.391C184.729 243.082 185.139 243.334 185.139 243.952V246.974C185.121 247.312 185.023 247.64 184.854 247.933C184.686 248.226 184.45 248.474 184.167 248.659L181.55 250.148C180.988 250.462 180.578 250.209 180.578 249.586V246.564C180.6 246.231 180.699 245.907 180.868 245.618C181.037 245.33 181.27 245.084 181.55 244.902Z" fill="black"/>
<path d="M181.55 255.444L184.167 253.933C184.729 253.619 185.139 253.871 185.139 254.495V257.517C185.119 257.854 185.021 258.182 184.853 258.474C184.684 258.767 184.449 259.016 184.167 259.202L181.55 260.713C180.988 261.022 180.578 260.769 180.578 260.151V257.129C180.595 256.791 180.692 256.463 180.861 256.17C181.03 255.877 181.266 255.628 181.55 255.444Z" fill="#2CB7B3"/>
<g opacity="0.2">
<path d="M181.55 255.444L184.167 253.933C184.729 253.619 185.139 253.871 185.139 254.495V257.517C185.119 257.854 185.021 258.182 184.853 258.474C184.684 258.767 184.449 259.016 184.167 259.202L181.55 260.713C180.988 261.022 180.578 260.769 180.578 260.151V257.129C180.595 256.791 180.692 256.463 180.861 256.17C181.03 255.877 181.266 255.628 181.55 255.444Z" fill="black"/>
</g>
<path d="M188.638 252.669L204.455 243.531C205.129 243.143 205.674 243.418 205.674 244.148C205.644 244.557 205.517 244.952 205.306 245.302C205.094 245.653 204.803 245.948 204.455 246.165L188.638 255.303C187.964 255.691 187.419 255.416 187.419 254.686C187.45 254.277 187.576 253.882 187.788 253.532C188 253.181 188.291 252.886 188.638 252.669Z" fill="#2CB7B3"/>
<path opacity="0.2" d="M188.638 252.669L204.455 243.531C205.129 243.143 205.674 243.418 205.674 244.148C205.644 244.557 205.517 244.952 205.306 245.302C205.094 245.653 204.803 245.948 204.455 246.165L188.638 255.303C187.964 255.691 187.419 255.416 187.419 254.686C187.45 254.277 187.576 253.882 187.788 253.532C188 253.181 188.291 252.886 188.638 252.669Z" fill="black"/>
<path d="M181.55 265.981L184.167 264.47C184.729 264.156 185.139 264.408 185.139 265.032V268.054C185.12 268.391 185.022 268.719 184.853 269.012C184.684 269.304 184.449 269.553 184.167 269.739L181.55 271.25C180.988 271.559 180.578 271.306 180.578 270.688V267.666C180.595 267.329 180.692 267 180.861 266.707C181.03 266.414 181.266 266.165 181.55 265.981Z" fill="#E0E0E0"/>
<path d="M188.638 263.207L204.455 254.079C205.129 253.692 205.674 253.967 205.674 254.697C205.645 255.106 205.519 255.501 205.307 255.852C205.095 256.202 204.803 256.498 204.455 256.714L188.638 265.852C187.964 266.24 187.419 265.965 187.419 265.234C187.448 264.824 187.574 264.427 187.786 264.074C187.997 263.722 188.29 263.425 188.638 263.207Z" fill="#F0F0F0"/>
<path d="M181.55 276.547L184.167 275.036C184.729 274.721 185.139 274.974 185.139 275.597V278.619C185.12 278.957 185.022 279.285 184.853 279.577C184.684 279.87 184.449 280.119 184.167 280.304L181.55 281.815C180.988 282.124 180.578 281.871 180.578 281.254V278.232C180.595 277.894 180.692 277.565 180.861 277.272C181.03 276.979 181.266 276.731 181.55 276.547Z" fill="#E0E0E0"/>
<path d="M188.638 273.772L204.455 264.639C205.129 264.246 205.674 264.527 205.674 265.251C205.644 265.661 205.519 266.057 205.307 266.408C205.095 266.76 204.803 267.056 204.455 267.273L188.638 276.406C187.964 276.794 187.419 276.519 187.419 275.789C187.45 275.38 187.576 274.985 187.788 274.635C188 274.284 188.291 273.989 188.638 273.772Z" fill="#F0F0F0"/>
<path d="M181.55 287.083L184.167 285.572C184.729 285.258 185.139 285.511 185.139 286.134V289.156C185.12 289.493 185.022 289.821 184.853 290.114C184.684 290.406 184.449 290.655 184.167 290.841L181.55 292.352C180.988 292.661 180.578 292.408 180.578 291.79V288.768C180.595 288.431 180.692 288.102 180.861 287.809C181.03 287.516 181.266 287.267 181.55 287.083Z" fill="#E0E0E0"/>
<path d="M188.638 284.309L204.455 275.176C205.129 274.783 205.674 275.063 205.674 275.788C205.644 276.197 205.519 276.594 205.307 276.945C205.095 277.296 204.803 277.593 204.455 277.81L188.638 286.943C187.964 287.331 187.419 287.055 187.419 286.325C187.45 285.917 187.576 285.522 187.788 285.171C188 284.821 188.291 284.526 188.638 284.309Z" fill="#F0F0F0"/>
<path d="M181.791 297.452L193.025 290.953C193.699 290.566 194.244 290.841 194.244 291.571C194.213 291.979 194.087 292.375 193.875 292.725C193.663 293.075 193.372 293.371 193.025 293.588L181.791 300.086C181.123 300.474 180.578 300.199 180.578 299.474C180.607 299.066 180.733 298.67 180.943 298.318C181.154 297.967 181.445 297.67 181.791 297.452Z" fill="#2CB7B3"/>
<path d="M181.791 302.72L204.455 289.639C205.129 289.251 205.674 289.526 205.674 290.251C205.644 290.66 205.518 291.056 205.307 291.408C205.095 291.759 204.803 292.056 204.455 292.273L181.791 305.355C181.123 305.742 180.578 305.467 180.578 304.742C180.607 304.334 180.733 303.938 180.943 303.587C181.154 303.235 181.445 302.939 181.791 302.72Z" fill="#2CB7B3"/>
<path opacity="0.8" d="M181.791 302.72L204.455 289.639C205.129 289.251 205.674 289.526 205.674 290.251C205.644 290.66 205.518 291.056 205.307 291.408C205.095 291.759 204.803 292.056 204.455 292.273L181.791 305.355C181.123 305.742 180.578 305.467 180.578 304.742C180.607 304.334 180.733 303.938 180.943 303.587C181.154 303.235 181.445 302.939 181.791 302.72Z" fill="white"/>
<path d="M181.791 302.721L197.614 293.588C198.282 293.201 198.827 293.476 198.827 294.206C198.797 294.614 198.671 295.008 198.46 295.359C198.25 295.709 197.96 296.005 197.614 296.222L181.791 305.355C181.123 305.743 180.578 305.468 180.578 304.743C180.607 304.335 180.733 303.939 180.943 303.587C181.154 303.236 181.445 302.939 181.791 302.721Z" fill="#2CB7B3"/>
<path d="M181.791 308L193.025 301.502C193.699 301.114 194.244 301.389 194.244 302.12C194.213 302.528 194.087 302.923 193.875 303.273C193.663 303.624 193.372 303.919 193.025 304.136L181.791 310.635C181.123 311.022 180.578 310.747 180.578 310.022C180.607 309.614 180.733 309.218 180.943 308.867C181.154 308.515 181.445 308.219 181.791 308Z" fill="#2CB7B3"/>
<path d="M188.638 242.126L204.455 232.993C205.129 232.605 205.674 232.881 205.674 233.611C205.644 234.019 205.517 234.414 205.306 234.765C205.094 235.115 204.803 235.41 204.455 235.627L188.638 244.76C187.964 245.148 187.419 244.873 187.419 244.148C187.449 243.739 187.575 243.342 187.787 242.991C187.999 242.64 188.29 242.343 188.638 242.126Z" fill="#2CB7B3"/>
<path opacity="0.2" d="M188.638 242.126L204.455 232.993C205.129 232.605 205.674 232.881 205.674 233.611C205.644 234.019 205.517 234.414 205.306 234.765C205.094 235.115 204.803 235.41 204.455 235.627L188.638 244.76C187.964 245.148 187.419 244.873 187.419 244.148C187.449 243.739 187.575 243.342 187.787 242.991C187.999 242.64 188.29 242.343 188.638 242.126Z" fill="black"/>
<path d="M181.791 308L193.025 301.502C193.699 301.114 194.244 301.389 194.244 302.12C194.213 302.528 194.087 302.923 193.875 303.273C193.663 303.624 193.372 303.919 193.025 304.136L181.791 310.635C181.123 311.022 180.578 310.747 180.578 310.022C180.607 309.614 180.733 309.218 180.943 308.867C181.154 308.515 181.445 308.219 181.791 308Z" fill="#2CB7B3"/>
<path d="M181.791 313.252L204.455 300.17C205.129 299.783 205.674 300.058 205.674 300.783C205.644 301.192 205.518 301.588 205.307 301.94C205.095 302.291 204.803 302.587 204.455 302.805L181.791 315.864C181.123 316.257 180.578 315.976 180.578 315.252C180.611 314.847 180.738 314.455 180.948 314.108C181.159 313.761 181.448 313.468 181.791 313.252Z" fill="#2CB7B3"/>
<path opacity="0.8" d="M181.791 313.252L204.455 300.17C205.129 299.783 205.674 300.058 205.674 300.783C205.644 301.192 205.518 301.588 205.307 301.94C205.095 302.291 204.803 302.587 204.455 302.805L181.791 315.864C181.123 316.257 180.578 315.976 180.578 315.252C180.611 314.847 180.738 314.455 180.948 314.108C181.159 313.761 181.448 313.468 181.791 313.252Z" fill="white"/>
<path d="M181.791 313.253L202.175 301.457C202.849 301.07 203.394 301.345 203.394 302.075C203.363 302.483 203.237 302.879 203.025 303.229C202.813 303.579 202.522 303.875 202.175 304.092L181.791 315.887C181.123 316.28 180.578 315.999 180.578 315.275C180.607 314.866 180.733 314.47 180.943 314.119C181.154 313.768 181.445 313.471 181.791 313.253Z" fill="#2CB7B3"/>
<path d="M261.494 140.669L210.235 170.264V307.259L261.494 277.669C261.849 277.439 262.144 277.128 262.356 276.762C262.568 276.396 262.69 275.985 262.713 275.563V141.371C262.707 140.619 262.146 140.282 261.494 140.669Z" fill="#EBEBEB"/>
<path opacity="0.6" d="M261.494 140.669L210.235 170.264V307.259L261.494 277.669C261.849 277.439 262.144 277.128 262.356 276.762C262.568 276.396 262.69 275.985 262.713 275.563V141.371C262.707 140.619 262.146 140.282 261.494 140.669Z" fill="#FAFAFA"/>
<path d="M210.235 175.533V186.07L205.674 191.339H210.235V201.876L258.147 174.213V147.87L210.235 175.533Z" fill="#2CB7B3"/>
<g opacity="0.6">
<path d="M216.503 175.898L235.915 164.665C236.853 164.103 237.6 164.564 237.6 165.648C237.569 166.237 237.401 166.81 237.108 167.322C236.815 167.834 236.407 168.271 235.915 168.597L216.503 179.802C215.56 180.364 214.818 179.903 214.818 178.819C214.852 178.235 215.022 177.666 215.315 177.159C215.607 176.652 216.014 176.22 216.503 175.898Z" fill="white"/>
</g>
<path d="M215.408 184.431L252.979 162.738C253.316 162.547 253.586 162.682 253.586 163.047C253.571 163.252 253.509 163.45 253.403 163.625C253.298 163.801 253.153 163.949 252.979 164.058L215.408 185.722C215.071 185.913 214.802 185.779 214.802 185.414C214.82 185.214 214.885 185.022 214.99 184.851C215.095 184.681 215.238 184.537 215.408 184.431Z" fill="#2CB7B3"/>
<path d="M215.408 184.431L252.979 162.738C253.316 162.547 253.586 162.682 253.586 163.047C253.571 163.252 253.509 163.45 253.403 163.625C253.298 163.801 253.153 163.949 252.979 164.058L215.408 185.722C215.071 185.913 214.802 185.779 214.802 185.414C214.82 185.214 214.885 185.022 214.99 184.851C215.095 184.681 215.238 184.537 215.408 184.431Z" fill="#2CB7B3"/>
<path opacity="0.6" d="M215.408 184.431L252.979 162.738C253.316 162.547 253.586 162.682 253.586 163.047C253.571 163.252 253.509 163.45 253.403 163.625C253.298 163.801 253.153 163.949 252.979 164.058L215.408 185.722C215.071 185.913 214.802 185.779 214.802 185.414C214.82 185.214 214.885 185.022 214.99 184.851C215.095 184.681 215.238 184.537 215.408 184.431Z" fill="white"/>
<path d="M215.408 188.362L252.979 166.67C253.316 166.473 253.586 166.613 253.586 166.979C253.571 167.182 253.509 167.379 253.403 167.554C253.298 167.729 253.153 167.876 252.979 167.984L215.408 189.676C215.071 189.873 214.802 189.732 214.802 189.367C214.816 189.164 214.879 188.966 214.984 188.792C215.09 188.617 215.235 188.47 215.408 188.362Z" fill="#2CB7B3"/>
<path opacity="0.6" d="M215.408 188.362L252.979 166.67C253.316 166.473 253.586 166.613 253.586 166.979C253.571 167.182 253.509 167.379 253.403 167.554C253.298 167.729 253.153 167.876 252.979 167.984L215.408 189.676C215.071 189.873 214.802 189.732 214.802 189.367C214.816 189.164 214.879 188.966 214.984 188.792C215.09 188.617 215.235 188.47 215.408 188.362Z" fill="white"/>
<path opacity="0.6" d="M215.408 192.293L252.979 170.601C253.316 170.41 253.586 170.545 253.586 170.91C253.571 171.114 253.509 171.312 253.403 171.488C253.298 171.664 253.153 171.812 252.979 171.921L215.408 193.613C215.071 193.804 214.802 193.67 214.802 193.304C214.816 193.1 214.879 192.902 214.984 192.726C215.089 192.551 215.235 192.402 215.408 192.293Z" fill="white"/>
<path d="M216.824 203.359L219.458 201.842C220.02 201.528 220.43 201.781 220.43 202.404V205.426C220.411 205.763 220.313 206.091 220.145 206.384C219.976 206.677 219.741 206.926 219.458 207.111L216.841 208.622C216.279 208.931 215.869 208.678 215.869 208.06V205.044C215.884 204.708 215.979 204.38 216.145 204.087C216.311 203.794 216.543 203.545 216.824 203.359Z" fill="#2CB7B3"/>
<path opacity="0.2" d="M216.824 203.359L219.458 201.842C220.02 201.528 220.43 201.781 220.43 202.404V205.426C220.411 205.763 220.313 206.091 220.145 206.384C219.976 206.677 219.741 206.926 219.458 207.111L216.841 208.622C216.279 208.931 215.869 208.678 215.869 208.06V205.044C215.884 204.708 215.979 204.38 216.145 204.087C216.311 203.794 216.543 203.545 216.824 203.359Z" fill="white"/>
<path d="M223.912 200.584L239.729 191.446C240.403 191.058 240.948 191.333 240.948 192.063C240.917 192.472 240.791 192.867 240.579 193.217C240.368 193.568 240.076 193.863 239.729 194.08L223.912 203.218C223.238 203.606 222.693 203.331 222.693 202.601C222.724 202.192 222.85 201.797 223.062 201.447C223.273 201.096 223.565 200.801 223.912 200.584Z" fill="#2CB7B3"/>
<path opacity="0.8" d="M223.912 200.584L239.729 191.446C240.403 191.058 240.948 191.333 240.948 192.063C240.917 192.472 240.791 192.867 240.579 193.217C240.368 193.568 240.076 193.863 239.729 194.08L223.912 203.218C223.238 203.606 222.693 203.331 222.693 202.601C222.724 202.192 222.85 201.797 223.062 201.447C223.273 201.096 223.565 200.801 223.912 200.584Z" fill="white"/>
<path d="M216.458 212.795L256.338 189.766C256.675 189.57 256.945 189.71 256.945 190.07C256.93 190.274 256.868 190.472 256.763 190.648C256.657 190.824 256.512 190.972 256.338 191.081L216.458 214.11C216.121 214.306 215.852 214.166 215.852 213.801C215.866 213.597 215.929 213.4 216.034 213.225C216.14 213.05 216.285 212.903 216.458 212.795Z" fill="#2CB7B3"/>
<path d="M216.458 216.743L256.338 193.714C256.675 193.523 256.945 193.658 256.945 194.023C256.93 194.228 256.868 194.426 256.762 194.601C256.657 194.777 256.511 194.925 256.338 195.034L216.458 218.063C216.121 218.254 215.852 218.12 215.852 217.755C215.866 217.55 215.929 217.352 216.034 217.176C216.14 217.001 216.285 216.852 216.458 216.743Z" fill="#2CB7B3"/>
<path d="M216.458 220.698L256.338 197.669C256.675 197.473 256.945 197.613 256.945 197.973C256.93 198.177 256.868 198.375 256.763 198.551C256.657 198.727 256.512 198.875 256.338 198.984L216.458 222.013C216.121 222.209 215.852 222.069 215.852 221.709C215.866 221.505 215.928 221.307 216.034 221.131C216.139 220.955 216.285 220.807 216.458 220.698Z" fill="#2CB7B3"/>
<path d="M216.458 224.658L256.338 201.629C256.675 201.438 256.945 201.572 256.945 201.937C256.93 202.142 256.868 202.34 256.762 202.516C256.657 202.691 256.511 202.84 256.338 202.948L216.458 225.978C216.121 226.168 215.852 226.034 215.852 225.669C215.866 225.464 215.929 225.266 216.034 225.091C216.14 224.915 216.285 224.767 216.458 224.658Z" fill="#2CB7B3"/>
<path d="M216.458 212.795L256.338 189.766C256.675 189.57 256.945 189.71 256.945 190.07C256.93 190.274 256.868 190.472 256.763 190.648C256.657 190.824 256.512 190.972 256.338 191.081L216.458 214.11C216.121 214.306 215.852 214.166 215.852 213.801C215.866 213.597 215.929 213.4 216.034 213.225C216.14 213.05 216.285 212.903 216.458 212.795Z" fill="#E0E0E0"/>
<path d="M216.458 216.743L256.338 193.714C256.675 193.523 256.945 193.658 256.945 194.023C256.93 194.228 256.868 194.426 256.762 194.601C256.657 194.777 256.511 194.925 256.338 195.034L216.458 218.063C216.121 218.254 215.852 218.12 215.852 217.755C215.866 217.55 215.929 217.352 216.034 217.176C216.14 217.001 216.285 216.852 216.458 216.743Z" fill="#E0E0E0"/>
<path d="M216.458 220.698L256.338 197.669C256.675 197.473 256.945 197.613 256.945 197.973C256.93 198.177 256.868 198.375 256.763 198.551C256.657 198.727 256.512 198.875 256.338 198.984L216.458 222.013C216.121 222.209 215.852 222.069 215.852 221.709C215.866 221.505 215.928 221.307 216.034 221.131C216.139 220.955 216.285 220.807 216.458 220.698Z" fill="#E0E0E0"/>
<path d="M216.458 224.658L256.338 201.629C256.675 201.438 256.945 201.572 256.945 201.937C256.93 202.142 256.868 202.34 256.762 202.516C256.657 202.691 256.511 202.84 256.338 202.948L216.458 225.978C216.121 226.168 215.852 226.034 215.852 225.669C215.866 225.464 215.929 225.266 216.034 225.091C216.14 224.915 216.285 224.767 216.458 224.658Z" fill="#E0E0E0"/>
<path opacity="0.8" d="M216.458 212.795L256.338 189.766C256.675 189.57 256.945 189.71 256.945 190.07C256.93 190.274 256.868 190.472 256.763 190.648C256.657 190.824 256.512 190.972 256.338 191.081L216.458 214.11C216.121 214.306 215.852 214.166 215.852 213.801C215.866 213.597 215.929 213.4 216.034 213.225C216.14 213.05 216.285 212.903 216.458 212.795Z" fill="#E0E0E0"/>
<path opacity="0.8" d="M216.458 216.743L256.338 193.714C256.675 193.523 256.945 193.658 256.945 194.023C256.93 194.228 256.868 194.426 256.762 194.601C256.657 194.777 256.511 194.925 256.338 195.034L216.458 218.063C216.121 218.254 215.852 218.12 215.852 217.755C215.866 217.55 215.929 217.352 216.034 217.176C216.14 217.001 216.285 216.852 216.458 216.743Z" fill="#E0E0E0"/>
<path opacity="0.8" d="M216.458 220.698L256.338 197.669C256.675 197.473 256.945 197.613 256.945 197.973C256.93 198.177 256.868 198.375 256.763 198.551C256.657 198.727 256.512 198.875 256.338 198.984L216.458 222.013C216.121 222.209 215.852 222.069 215.852 221.709C215.866 221.505 215.928 221.307 216.034 221.131C216.139 220.955 216.285 220.807 216.458 220.698Z" fill="#E0E0E0"/>
<path opacity="0.8" d="M216.458 224.658L256.338 201.629C256.675 201.438 256.945 201.572 256.945 201.937C256.93 202.142 256.868 202.34 256.762 202.516C256.657 202.691 256.511 202.84 256.338 202.948L216.458 225.978C216.121 226.168 215.852 226.034 215.852 225.669C215.866 225.464 215.929 225.266 216.034 225.091C216.14 224.915 216.285 224.767 216.458 224.658Z" fill="#E0E0E0"/>
<path d="M216.458 241.441L256.338 218.412C256.675 218.215 256.945 218.356 256.945 218.715C256.93 218.92 256.868 219.118 256.763 219.294C256.657 219.469 256.512 219.618 256.338 219.726L216.458 242.755C216.121 242.952 215.852 242.811 215.852 242.446C215.866 242.243 215.929 242.046 216.034 241.871C216.14 241.696 216.285 241.549 216.458 241.441Z" fill="#E0E0E0"/>
<path d="M216.458 245.389L256.338 222.36C256.675 222.169 256.945 222.304 256.945 222.669C256.93 222.874 256.868 223.072 256.762 223.247C256.657 223.423 256.511 223.571 256.338 223.68L216.458 246.709C216.121 246.9 215.852 246.766 215.852 246.401C215.866 246.196 215.929 245.998 216.034 245.822C216.14 245.647 216.285 245.498 216.458 245.389Z" fill="#E0E0E0"/>
<path d="M216.458 249.344L256.338 226.315C256.675 226.118 256.945 226.259 256.945 226.618C256.93 226.823 256.868 227.021 256.763 227.196C256.657 227.372 256.512 227.52 256.338 227.629L216.458 250.658C216.121 250.855 215.852 250.714 215.852 250.355C215.866 250.15 215.928 249.952 216.034 249.776C216.139 249.601 216.285 249.452 216.458 249.344Z" fill="#E0E0E0"/>
<path d="M216.458 253.303L256.338 230.274C256.675 230.083 256.945 230.218 256.945 230.583C256.93 230.787 256.868 230.985 256.762 231.161C256.657 231.337 256.511 231.485 256.338 231.594L216.458 254.623C216.121 254.814 215.852 254.679 215.852 254.314C215.866 254.11 215.929 253.912 216.034 253.736C216.14 253.56 216.285 253.412 216.458 253.303Z" fill="#E0E0E0"/>
<path opacity="0.8" d="M216.458 241.441L256.338 218.412C256.675 218.215 256.945 218.356 256.945 218.715C256.93 218.92 256.868 219.118 256.763 219.294C256.657 219.469 256.512 219.618 256.338 219.726L216.458 242.755C216.121 242.952 215.852 242.811 215.852 242.446C215.866 242.243 215.929 242.046 216.034 241.871C216.14 241.696 216.285 241.549 216.458 241.441Z" fill="#E0E0E0"/>
<path opacity="0.8" d="M216.458 245.389L256.338 222.36C256.675 222.169 256.945 222.304 256.945 222.669C256.93 222.874 256.868 223.072 256.762 223.247C256.657 223.423 256.511 223.571 256.338 223.68L216.458 246.709C216.121 246.9 215.852 246.766 215.852 246.401C215.866 246.196 215.929 245.998 216.034 245.822C216.14 245.647 216.285 245.498 216.458 245.389Z" fill="#E0E0E0"/>
<path opacity="0.8" d="M216.458 249.344L256.338 226.315C256.675 226.118 256.945 226.259 256.945 226.618C256.93 226.823 256.868 227.021 256.763 227.196C256.657 227.372 256.512 227.52 256.338 227.629L216.458 250.658C216.121 250.855 215.852 250.714 215.852 250.355C215.866 250.15 215.928 249.952 216.034 249.776C216.139 249.601 216.285 249.452 216.458 249.344Z" fill="#E0E0E0"/>
<path opacity="0.8" d="M216.458 253.303L256.338 230.274C256.675 230.083 256.945 230.218 256.945 230.583C256.93 230.787 256.868 230.985 256.762 231.161C256.657 231.337 256.511 231.485 256.338 231.594L216.458 254.623C216.121 254.814 215.852 254.679 215.852 254.314C215.866 254.11 215.929 253.912 216.034 253.736C216.14 253.56 216.285 253.412 216.458 253.303Z" fill="#E0E0E0"/>
<path d="M216.458 270.649L256.338 247.62C256.675 247.423 256.945 247.564 256.945 247.923C256.93 248.128 256.868 248.326 256.763 248.502C256.657 248.677 256.512 248.826 256.338 248.934L216.458 271.963C216.121 272.16 215.852 272.019 215.852 271.654C215.866 271.451 215.929 271.254 216.034 271.079C216.14 270.904 216.285 270.757 216.458 270.649Z" fill="#E0E0E0"/>
<path d="M216.458 274.597L256.338 251.568C256.675 251.377 256.945 251.512 256.945 251.877C256.93 252.082 256.868 252.28 256.762 252.455C256.657 252.631 256.511 252.779 256.338 252.888L216.458 275.917C216.121 276.108 215.852 275.974 215.852 275.609C215.866 275.404 215.929 275.206 216.034 275.03C216.14 274.855 216.285 274.706 216.458 274.597Z" fill="#E0E0E0"/>
<path d="M216.458 278.552L256.338 255.523C256.675 255.326 256.945 255.467 256.945 255.826C256.93 256.031 256.868 256.229 256.763 256.404C256.657 256.58 256.512 256.728 256.338 256.837L216.458 279.866C216.121 280.063 215.852 279.922 215.852 279.563C215.866 279.358 215.928 279.16 216.034 278.984C216.139 278.809 216.285 278.66 216.458 278.552Z" fill="#E0E0E0"/>
<path d="M216.458 282.511L256.338 259.482C256.675 259.291 256.945 259.426 256.945 259.791C256.93 259.995 256.868 260.193 256.762 260.369C256.657 260.545 256.511 260.693 256.338 260.802L216.458 283.831C216.121 284.022 215.852 283.887 215.852 283.522C215.866 283.318 215.929 283.12 216.034 282.944C216.14 282.768 216.285 282.62 216.458 282.511Z" fill="#E0E0E0"/>
<path opacity="0.8" d="M216.458 270.649L256.338 247.62C256.675 247.423 256.945 247.564 256.945 247.923C256.93 248.128 256.868 248.326 256.763 248.502C256.657 248.677 256.512 248.826 256.338 248.934L216.458 271.963C216.121 272.16 215.852 272.019 215.852 271.654C215.866 271.451 215.929 271.254 216.034 271.079C216.14 270.904 216.285 270.757 216.458 270.649Z" fill="#E0E0E0"/>
<path opacity="0.8" d="M216.458 274.597L256.338 251.568C256.675 251.377 256.945 251.512 256.945 251.877C256.93 252.082 256.868 252.28 256.762 252.455C256.657 252.631 256.511 252.779 256.338 252.888L216.458 275.917C216.121 276.108 215.852 275.974 215.852 275.609C215.866 275.404 215.929 275.206 216.034 275.03C216.14 274.855 216.285 274.706 216.458 274.597Z" fill="#E0E0E0"/>
<path opacity="0.8" d="M216.458 278.552L256.338 255.523C256.675 255.326 256.945 255.467 256.945 255.826C256.93 256.031 256.868 256.229 256.763 256.404C256.657 256.58 256.512 256.728 256.338 256.837L216.458 279.866C216.121 280.063 215.852 279.922 215.852 279.563C215.866 279.358 215.928 279.16 216.034 278.984C216.139 278.809 216.285 278.66 216.458 278.552Z" fill="#E0E0E0"/>
<path opacity="0.8" d="M216.458 282.511L256.338 259.482C256.675 259.291 256.945 259.426 256.945 259.791C256.93 259.995 256.868 260.193 256.762 260.369C256.657 260.545 256.511 260.693 256.338 260.802L216.458 283.831C216.121 284.022 215.852 283.887 215.852 283.522C215.866 283.318 215.929 283.12 216.034 282.944C216.14 282.768 216.285 282.62 216.458 282.511Z" fill="#E0E0E0"/>
<path d="M216.824 232.336L219.458 230.825C220.02 230.516 220.43 230.769 220.43 231.387V234.42C220.412 234.758 220.315 235.086 220.146 235.379C219.978 235.672 219.742 235.921 219.458 236.105L216.841 237.616C216.279 237.925 215.869 237.678 215.869 237.054V234.032C215.883 233.694 215.977 233.365 216.143 233.07C216.309 232.775 216.542 232.524 216.824 232.336Z" fill="#2CB7B3"/>
<path opacity="0.2" d="M216.824 232.336L219.458 230.825C220.02 230.516 220.43 230.769 220.43 231.387V234.42C220.412 234.758 220.315 235.086 220.146 235.379C219.978 235.672 219.742 235.921 219.458 236.105L216.841 237.616C216.279 237.925 215.869 237.678 215.869 237.054V234.032C215.883 233.694 215.977 233.365 216.143 233.07C216.309 232.775 216.542 232.524 216.824 232.336Z" fill="white"/>
<path d="M223.912 229.562L239.729 220.429C240.403 220.041 240.948 220.316 240.948 221.041C240.918 221.45 240.792 221.846 240.581 222.198C240.369 222.549 240.077 222.846 239.729 223.063L223.912 232.173C223.238 232.561 222.693 232.286 222.693 231.561C222.726 231.156 222.854 230.764 223.065 230.417C223.277 230.07 223.567 229.777 223.912 229.562Z" fill="#2CB7B3"/>
<path opacity="0.8" d="M223.912 229.562L239.729 220.429C240.403 220.041 240.948 220.316 240.948 221.041C240.918 221.45 240.792 221.846 240.581 222.198C240.369 222.549 240.077 222.846 239.729 223.063L223.912 232.173C223.238 232.561 222.693 232.286 222.693 231.561C222.726 231.156 222.854 230.764 223.065 230.417C223.277 230.07 223.567 229.777 223.912 229.562Z" fill="white"/>
<path d="M216.824 261.319L219.458 259.808C220.02 259.493 220.43 259.746 220.43 260.369V263.391C220.412 263.729 220.315 264.057 220.146 264.35C219.977 264.643 219.741 264.892 219.458 265.076L216.841 266.587C216.279 266.896 215.869 266.643 215.869 266.026V263.004C215.884 262.667 215.979 262.34 216.145 262.047C216.311 261.754 216.543 261.505 216.824 261.319Z" fill="#2CB7B3"/>
<path opacity="0.2" d="M216.824 261.319L219.458 259.808C220.02 259.493 220.43 259.746 220.43 260.369V263.391C220.412 263.729 220.315 264.057 220.146 264.35C219.977 264.643 219.741 264.892 219.458 265.076L216.841 266.587C216.279 266.896 215.869 266.643 215.869 266.026V263.004C215.884 262.667 215.979 262.34 216.145 262.047C216.311 261.754 216.543 261.505 216.824 261.319Z" fill="white"/>
<path d="M223.912 258.572L239.729 249.434C240.403 249.046 240.948 249.322 240.948 250.052C240.918 250.461 240.792 250.857 240.58 251.208C240.368 251.56 240.077 251.856 239.729 252.074L223.912 261.207C223.238 261.594 222.693 261.319 222.693 260.589C222.724 260.181 222.85 259.785 223.062 259.435C223.273 259.085 223.565 258.789 223.912 258.572Z" fill="#2CB7B3"/>
<path opacity="0.8" d="M223.912 258.572L239.729 249.434C240.403 249.046 240.948 249.322 240.948 250.052C240.918 250.461 240.792 250.857 240.58 251.208C240.368 251.56 240.077 251.856 239.729 252.074L223.912 261.207C223.238 261.594 222.693 261.319 222.693 260.589C222.724 260.181 222.85 259.785 223.062 259.435C223.273 259.085 223.565 258.789 223.912 258.572Z" fill="white"/>
<path d="M220.548 286.831L223.165 285.32C223.727 285.011 224.142 285.264 224.142 285.882V288.903C224.124 289.241 224.026 289.57 223.856 289.863C223.686 290.156 223.449 290.405 223.165 290.588L220.548 292.099C220.014 292.414 219.576 292.161 219.576 291.538V288.516C219.595 288.179 219.693 287.851 219.862 287.558C220.031 287.266 220.266 287.017 220.548 286.831Z" fill="#2CB7B3"/>
<path d="M216.458 297.098L227.26 290.863C227.597 290.672 227.866 290.807 227.866 291.172C227.852 291.377 227.789 291.575 227.684 291.75C227.578 291.926 227.433 292.074 227.26 292.183L216.458 298.418C216.121 298.609 215.852 298.474 215.852 298.109C215.866 297.905 215.929 297.707 216.034 297.531C216.14 297.355 216.285 297.207 216.458 297.098Z" fill="#E0E0E0"/>
<path d="M235.078 278.439L237.696 276.928C238.229 276.619 238.667 276.872 238.667 277.49V280.512C238.649 280.849 238.552 281.178 238.383 281.47C238.214 281.763 237.979 282.012 237.696 282.197L235.078 283.708C234.516 284.017 234.101 283.77 234.101 283.146V280.124C234.12 279.786 234.218 279.458 234.388 279.165C234.558 278.872 234.794 278.623 235.078 278.439Z" fill="#2CB7B3"/>
<path d="M230.984 288.707L241.785 282.472C242.122 282.275 242.391 282.416 242.391 282.781C242.377 282.984 242.314 283.182 242.209 283.356C242.104 283.531 241.958 283.678 241.785 283.786L230.984 290.026C230.647 290.223 230.377 290.083 230.377 289.723C230.39 289.518 230.452 289.318 230.558 289.142C230.663 288.965 230.809 288.816 230.984 288.707Z" fill="#E0E0E0"/>
<path d="M249.603 270.048L252.221 268.537C252.754 268.222 253.193 268.475 253.193 269.098V272.12C253.173 272.457 253.076 272.786 252.907 273.078C252.738 273.371 252.503 273.62 252.221 273.805L249.603 275.316C249.042 275.625 248.632 275.372 248.632 274.755V271.733C248.649 271.395 248.746 271.066 248.915 270.773C249.084 270.48 249.32 270.232 249.603 270.048Z" fill="#2CB7B3"/>
<path opacity="0.2" d="M220.548 286.831L223.165 285.32C223.727 285.011 224.142 285.264 224.142 285.882V288.903C224.124 289.241 224.026 289.57 223.856 289.863C223.686 290.156 223.449 290.405 223.165 290.588L220.548 292.099C220.014 292.414 219.576 292.161 219.576 291.538V288.516C219.595 288.179 219.693 287.851 219.862 287.558C220.031 287.266 220.266 287.017 220.548 286.831Z" fill="white"/>
<path opacity="0.2" d="M235.078 278.439L237.696 276.928C238.229 276.619 238.667 276.872 238.667 277.49V280.512C238.649 280.849 238.552 281.178 238.383 281.47C238.214 281.763 237.979 282.012 237.696 282.197L235.078 283.708C234.516 284.017 234.101 283.77 234.101 283.146V280.124C234.12 279.786 234.218 279.458 234.388 279.165C234.558 278.872 234.794 278.623 235.078 278.439Z" fill="white"/>
<path opacity="0.2" d="M249.603 270.048L252.221 268.537C252.754 268.222 253.193 268.475 253.193 269.098V272.12C253.173 272.457 253.076 272.786 252.907 273.078C252.738 273.371 252.503 273.62 252.221 273.805L249.603 275.316C249.042 275.625 248.632 275.372 248.632 274.755V271.733C248.649 271.395 248.746 271.066 248.915 270.773C249.084 270.48 249.32 270.232 249.603 270.048Z" fill="white"/>
<path d="M245.509 280.315L256.31 274.08C256.647 273.884 256.917 274.024 256.917 274.384C256.903 274.588 256.84 274.786 256.735 274.962C256.629 275.138 256.484 275.286 256.31 275.395L245.509 281.629C245.177 281.826 244.902 281.686 244.902 281.321C244.918 281.117 244.981 280.921 245.086 280.746C245.192 280.571 245.336 280.424 245.509 280.315Z" fill="#E0E0E0"/>
<mask id="mask0_0_1" style="mask-type:luminance" maskUnits="userSpaceOnUse" x="180" y="185" width="24" height="30">
<path d="M191.986 186.599C185.684 190.148 180.578 198.995 180.578 206.353C180.578 213.711 185.684 216.733 191.986 213.093C198.288 209.453 203.394 200.613 203.394 193.333C203.394 186.054 198.282 183.043 191.986 186.599Z" fill="white"/>
</mask>
<g mask="url(#mask0_0_1)">
<path d="M191.986 186.599C185.684 190.148 180.578 198.995 180.578 206.353C180.578 213.711 185.684 216.733 191.986 213.093C198.288 209.453 203.394 200.613 203.394 193.333C203.394 186.054 198.282 183.043 191.986 186.599Z" fill="#FAFAFA"/>
<path d="M197.513 209.274L188.38 211.722C188.222 211.774 188.055 211.785 187.892 211.755C187.729 211.725 187.577 211.655 187.448 211.552C187.319 211.448 187.218 211.314 187.154 211.161C187.09 211.008 187.066 210.842 187.082 210.678V195.13C187.114 193.843 187.544 192.598 188.313 191.565C189.081 190.532 190.15 189.763 191.373 189.362L194.496 188.525C196.872 187.89 198.799 189.441 198.799 191.985V207.538C198.789 207.924 198.66 208.298 198.43 208.609C198.199 208.919 197.879 209.151 197.513 209.274Z" fill="#263238"/>
<path d="M197.951 213.295L196.99 209.055C196.99 209.055 196.99 203.331 196.176 202.803C195.361 202.275 195.125 202.174 195.125 202.174C196.17 201.815 198.372 201.545 199.057 203.556C199.714 205.454 200.697 210.133 201.164 212.436L197.951 213.295Z" fill="#F28F8F"/>
<path d="M197.872 213.317L194.614 202.224C196.058 201.662 197.911 201.196 198.81 202.685C199.619 204.021 200.911 211.026 201.164 212.435L197.872 213.317Z" fill="#2CB7B3"/>
<g opacity="0.4">
<path d="M197.872 213.317L194.614 202.224C196.058 201.662 197.911 201.196 198.81 202.685C199.619 204.021 200.911 211.026 201.164 212.435L197.872 213.317Z" fill="black"/>
</g>
<path d="M198.31 213.2L195.109 214.059C195.238 213.139 195.541 212.253 196.002 211.447C196.643 210.524 197.565 209.832 198.631 209.476C198.4 210.703 198.293 211.951 198.31 213.2Z" fill="#2CB7B3"/>
<path d="M198.31 213.2L195.109 214.059C195.238 213.139 195.541 212.253 196.002 211.447C196.643 210.524 197.565 209.832 198.631 209.476C198.4 210.703 198.293 211.951 198.31 213.2Z" fill="#2CB7B3"/>
<g opacity="0.7">
<path d="M198.31 213.2L195.109 214.059C195.238 213.139 195.541 212.253 196.002 211.447C196.643 210.524 197.565 209.832 198.631 209.476C198.4 210.703 198.293 211.951 198.31 213.2Z" fill="black"/>
</g>
<path d="M197.625 213.384L188.638 215.783L187.649 212.722C187.649 212.722 190.273 206.582 187.032 205.004C187.442 204.695 190.896 203.347 190.896 203.347L194.609 202.224C195.316 202.033 198.175 203.302 198.9 206.116C199.158 207.11 199.068 208.004 197.614 213.182C197.631 213.25 197.625 213.317 197.625 213.384Z" fill="#2CB7B3"/>
<path d="M196.884 190.435C197.501 190.659 198.265 192.12 198.192 195.641C198.131 198.63 197.232 199.573 196.782 199.933C196.109 200.27 195.367 200.445 194.614 200.444V202.224C194.614 202.224 195.783 203.348 195.71 204.201C195.637 205.055 194.025 205.662 192.935 205.156C192.139 204.708 191.451 204.09 190.918 203.348V199.247C190.836 199.342 190.736 199.419 190.624 199.475C190.512 199.53 190.39 199.563 190.265 199.571C190.14 199.579 190.015 199.561 189.896 199.52C189.778 199.479 189.669 199.415 189.576 199.332C189.401 199.212 189.251 199.058 189.136 198.879C189.021 198.7 188.944 198.5 188.908 198.29C188.871 198.081 188.878 197.866 188.926 197.659C188.974 197.452 189.063 197.257 189.189 197.085C189.75 196.349 190.733 196.242 191.115 196.978C191.591 195.824 192.442 194.864 193.53 194.254C195.305 193.176 196.271 192.215 196.884 190.435Z" fill="#FFA8A7"/>
<path d="M195.103 195.726C195.106 195.832 195.075 195.937 195.016 196.025C194.956 196.114 194.871 196.182 194.772 196.22C194.73 196.235 194.684 196.239 194.64 196.232C194.596 196.225 194.554 196.208 194.518 196.181C194.482 196.155 194.453 196.12 194.434 196.08C194.414 196.039 194.405 195.995 194.407 195.95C194.404 195.844 194.435 195.739 194.494 195.651C194.553 195.562 194.639 195.494 194.738 195.456C194.78 195.441 194.825 195.437 194.87 195.444C194.914 195.451 194.956 195.468 194.992 195.495C195.028 195.521 195.056 195.556 195.076 195.596C195.095 195.637 195.105 195.681 195.103 195.726Z" fill="#263238"/>
<path d="M195.193 198.219L196.002 198.275C195.978 198.399 195.914 198.511 195.819 198.593C195.724 198.675 195.605 198.724 195.48 198.73C195.255 198.714 195.126 198.472 195.193 198.219Z" fill="#F28F8F"/>
<path d="M197.956 193.816L197.254 193.484C197.296 193.376 197.377 193.287 197.48 193.234C197.584 193.181 197.704 193.168 197.816 193.198C197.866 193.229 197.91 193.27 197.944 193.318C197.979 193.366 198.003 193.42 198.016 193.477C198.029 193.535 198.031 193.595 198.02 193.653C198.01 193.711 197.988 193.766 197.956 193.816Z" fill="#263238"/>
<path d="M194.092 195.13L194.794 194.417C194.757 194.379 194.712 194.349 194.662 194.33C194.613 194.311 194.56 194.302 194.507 194.305C194.454 194.307 194.402 194.321 194.355 194.345C194.307 194.369 194.266 194.403 194.232 194.445C194.135 194.526 194.068 194.638 194.042 194.763C194.017 194.887 194.034 195.017 194.092 195.13Z" fill="#263238"/>
<path d="M197.794 194.737C197.797 194.844 197.767 194.949 197.707 195.038C197.648 195.126 197.562 195.194 197.462 195.232C197.42 195.246 197.374 195.25 197.329 195.243C197.285 195.236 197.242 195.219 197.206 195.191C197.17 195.164 197.141 195.128 197.122 195.087C197.103 195.046 197.095 195.001 197.097 194.956C197.095 194.85 197.126 194.746 197.186 194.657C197.245 194.569 197.33 194.501 197.428 194.462C197.471 194.447 197.517 194.443 197.562 194.45C197.606 194.457 197.648 194.475 197.684 194.502C197.721 194.529 197.749 194.565 197.768 194.606C197.787 194.647 197.796 194.692 197.794 194.737Z" fill="#263238"/>
<path d="M196.153 194.962L196.204 197.192L197.31 196.529L196.153 194.962Z" fill="#F28F8F"/>
<path d="M194.614 200.444C193.727 200.556 191.896 200.483 191.609 199.787C191.713 200.129 191.942 200.419 192.25 200.601C192.811 200.961 194.614 201.039 194.614 201.039V200.444Z" fill="#F28F8F"/>
<path d="M188.689 215.778L188.312 214.441L189.301 215.615L188.689 215.778Z" fill="#2CB7B3"/>
<path d="M187.953 215.974C187.549 214.052 187.003 212.163 186.318 210.323C185.375 207.734 186.431 205.498 187.065 205.004C187.7 204.51 190.93 203.347 190.93 203.347C192.098 206.672 192.418 211.126 192.446 214.772L187.953 215.974Z" fill="#2CB7B3"/>
<path opacity="0.4" d="M187.953 215.974C187.549 214.052 187.003 212.163 186.318 210.323C185.375 207.734 186.431 205.498 187.065 205.004C187.7 204.51 190.93 203.347 190.93 203.347C192.098 206.672 192.418 211.126 192.446 214.772L187.953 215.974Z" fill="black"/>
<path d="M186.358 216.401L183.15 217.261C183.061 217.2 182.976 217.133 182.898 217.059C182.898 217.059 184.414 211.206 184.897 209.262C185.38 207.319 185.751 205.982 187.054 205.005C189.396 206.527 188.312 210.757 188.312 210.757L186.358 216.401Z" fill="#2CB7B3"/>
<path opacity="0.4" d="M186.358 216.401L183.15 217.261C183.061 217.2 182.976 217.133 182.898 217.059C182.898 217.059 184.414 211.206 184.897 209.262C185.38 207.319 185.751 205.982 187.054 205.005C189.396 206.527 188.312 210.757 188.312 210.757L186.358 216.401Z" fill="black"/>
</g>
<path d="M139.66 178.999V167.872C139.626 165.715 141.03 163.552 143.878 161.912C149.495 158.66 158.628 158.66 164.256 161.912C167.103 163.552 168.508 165.715 168.474 167.872V178.959C168.474 181.105 167.092 184.941 164.256 186.576C158.639 189.828 149.506 189.828 143.878 186.576C141.069 184.958 139.665 181.15 139.66 179.021V178.999Z" fill="#EBEBEB"/>
<path d="M154.067 154.066L177.843 167.793L154.067 181.521L130.291 167.793L154.067 154.066Z" fill="#F5F5F5"/>
<path d="M142.17 174.652L153.881 167.968C153.93 167.94 153.983 167.922 154.038 167.915C154.093 167.908 154.149 167.912 154.203 167.926C154.257 167.941 154.307 167.966 154.351 168C154.395 168.034 154.432 168.077 154.46 168.125C154.487 168.173 154.505 168.227 154.512 168.282C154.519 168.337 154.516 168.393 154.501 168.447C154.486 168.5 154.461 168.551 154.427 168.595C154.393 168.639 154.351 168.676 154.303 168.703L143.007 175.135L142.17 174.652Z" fill="#E0E0E0"/>
<path d="M177.843 167.793V168.776L154.067 182.498V181.521L177.843 167.793Z" fill="#E6E6E6"/>
<path d="M130.291 167.793V168.776L154.067 182.498V181.521L130.291 167.793Z" fill="#F0F0F0"/>
<path d="M141.58 175.291L142.305 175.707C142.415 175.528 142.567 175.38 142.749 175.275L143.002 175.129L142.176 174.657C141.932 174.821 141.728 175.038 141.58 175.291Z" fill="#E0E0E0"/>
<path d="M168.502 174.168L154.067 183.97L139.671 174.191L154.067 182.498L168.502 174.168Z" fill="#E0E0E0"/>
<path d="M140.654 186.851C140.855 186.955 141.079 187.009 141.305 187.009C141.532 187.009 141.755 186.955 141.957 186.851L143.03 193.776C143.03 195.085 139.631 195.085 139.631 193.776L140.654 186.851Z" fill="#F5F5F5"/>
<path d="M140.592 190.805L140.378 194.602C140.308 194.581 140.241 194.553 140.176 194.518L140.592 190.805Z" fill="#EBEBEB"/>
<path d="M142.198 194.63L141.749 188.452L142.417 194.54C142.346 194.575 142.273 194.605 142.198 194.63Z" fill="#EBEBEB"/>
<path d="M141.434 194.754H141.221L141.333 189.85L141.434 194.754Z" fill="#EBEBEB"/>
<path d="M141.3 187.429C141.549 187.423 141.79 187.341 141.99 187.193C142.076 187.13 142.134 187.037 142.153 186.933C142.171 186.828 142.15 186.721 142.092 186.632C142.03 186.544 141.937 186.484 141.832 186.464C141.727 186.444 141.619 186.466 141.53 186.525C141.476 186.577 141.405 186.606 141.33 186.606C141.256 186.606 141.185 186.577 141.131 186.525C141.087 186.486 141.036 186.457 140.98 186.439C140.925 186.421 140.866 186.415 140.808 186.421C140.75 186.427 140.693 186.445 140.643 186.474C140.592 186.503 140.547 186.542 140.513 186.589C140.478 186.636 140.453 186.689 140.44 186.747C140.427 186.804 140.426 186.863 140.437 186.92C140.449 186.977 140.472 187.032 140.505 187.08C140.538 187.128 140.581 187.169 140.631 187.199C140.825 187.344 141.058 187.424 141.3 187.429Z" fill="#E0E0E0"/>
<path d="M141.328 186.351C141.383 186.352 141.437 186.342 141.488 186.321C141.54 186.301 141.586 186.27 141.625 186.231C141.664 186.193 141.695 186.147 141.717 186.096C141.738 186.045 141.749 185.991 141.749 185.936V176.117C141.749 175.897 141.808 175.68 141.918 175.489C142.029 175.297 142.187 175.139 142.378 175.028L154.303 168.231C154.397 168.177 154.467 168.088 154.496 167.983C154.526 167.878 154.513 167.765 154.46 167.67C154.433 167.622 154.398 167.58 154.355 167.547C154.313 167.513 154.264 167.488 154.212 167.474C154.16 167.459 154.105 167.455 154.051 167.462C153.997 167.468 153.945 167.485 153.898 167.512L141.945 174.32C141.627 174.504 141.362 174.768 141.178 175.087C140.994 175.405 140.896 175.766 140.895 176.134V185.952C140.897 186.007 140.91 186.061 140.933 186.11C140.956 186.16 140.989 186.204 141.029 186.241C141.069 186.279 141.116 186.307 141.167 186.326C141.219 186.345 141.273 186.353 141.328 186.351Z" fill="#FAFAFA"/>
<path d="M142.249 185.935C142.25 185.753 142.197 185.574 142.096 185.422C141.996 185.27 141.852 185.151 141.684 185.08C141.516 185.009 141.33 184.99 141.151 185.025C140.972 185.06 140.808 185.148 140.678 185.276C140.549 185.405 140.461 185.569 140.425 185.748C140.389 185.927 140.407 186.112 140.476 186.281C140.546 186.449 140.664 186.594 140.815 186.695C140.967 186.796 141.145 186.851 141.328 186.851C141.448 186.851 141.568 186.828 141.68 186.783C141.791 186.737 141.893 186.67 141.979 186.584C142.064 186.499 142.132 186.398 142.179 186.287C142.225 186.175 142.249 186.056 142.249 185.935Z" fill="#F5F5F5"/>
<path d="M140.418 185.986C140.456 186.081 140.515 186.167 140.589 186.237C140.663 186.307 140.752 186.361 140.849 186.394C140.946 186.427 141.049 186.439 141.151 186.428C141.253 186.418 141.352 186.386 141.44 186.334C141.553 186.266 141.646 186.17 141.711 186.056C141.776 185.941 141.81 185.811 141.81 185.68C141.81 185.548 141.776 185.419 141.711 185.304C141.646 185.189 141.553 185.093 141.44 185.025C141.612 185.049 141.773 185.121 141.906 185.233C142.038 185.345 142.136 185.492 142.188 185.658C142.24 185.823 142.244 186 142.2 186.168C142.155 186.335 142.064 186.487 141.936 186.605C141.809 186.722 141.651 186.802 141.48 186.833C141.31 186.864 141.134 186.846 140.973 186.782C140.812 186.717 140.673 186.607 140.571 186.467C140.47 186.326 140.411 186.159 140.401 185.986H140.418Z" fill="#EBEBEB"/>
<path d="M304.053 180.515L299.711 178.016L302.098 177.51L304.474 179.167L304.053 180.515Z" fill="#E0E0E0"/>
<path d="M296.453 158.143C296.453 151.403 292.325 148.274 287.253 151.201L279.76 155.526C274.705 158.452 270.565 166.338 270.565 173.101C270.565 173.376 270.565 173.662 270.565 173.904C270.565 174.055 270.565 174.185 270.565 174.331C270.565 174.477 270.594 174.595 270.605 174.724C270.616 174.853 270.638 175.022 270.661 175.168C270.774 175.966 270.974 176.749 271.256 177.504C271.374 177.785 271.498 178.066 271.633 178.302C271.695 178.432 271.766 178.558 271.846 178.678L271.919 178.796C272.044 178.997 272.189 179.185 272.352 179.358C272.441 179.459 272.526 179.566 272.621 179.661L272.913 179.942C273.014 180.021 273.11 180.116 273.217 180.195C273.317 180.276 273.424 180.349 273.537 180.414L273.868 180.605C274.297 180.836 274.763 180.994 275.244 181.071C275.281 181.062 275.32 181.062 275.357 181.071C275.486 181.071 275.604 181.099 275.733 181.099C275.869 181.11 276.007 181.11 276.143 181.099C276.504 181.103 276.864 181.063 277.216 180.981C277.426 180.939 277.634 180.887 277.839 180.824C278.496 180.623 279.125 180.344 279.715 179.992L287.208 175.667C287.722 175.369 288.213 175.035 288.68 174.668C288.68 174.578 288.68 174.499 288.68 174.415C288.68 174.331 288.68 174.151 288.68 174.05C288.68 173.825 288.68 173.595 288.68 173.365C288.663 167.619 292.123 160.839 296.453 158.143Z" fill="#E0E0E0"/>
<path d="M297.717 153.285L293.364 150.78C293.392 150.78 293.808 153.807 293.808 153.807L297.037 154.189L297.717 153.285Z" fill="#E0E0E0"/>
<path d="M277.603 182.723L273.582 180.442L276.002 179.403L277.603 182.723Z" fill="#E0E0E0"/>
<path d="M279.76 180.06C279.732 181.725 279.197 183.341 278.227 184.694C278.047 184.93 278.322 185.138 278.525 185.031C279.442 184.555 280.256 183.9 280.917 183.105C282.188 181.603 283.076 179.817 283.507 177.898L279.76 180.06Z" fill="#E0E0E0"/>
<path d="M278.272 185.02L282.625 187.525C282.625 187.525 285.068 185.464 285.068 181.29L280.344 180.97C280.344 180.97 280.232 183.689 278.272 185.02Z" fill="#E0E0E0"/>
<path d="M289.865 172.741C289.865 172.951 289.865 173.153 289.865 173.348C289.865 173.46 289.865 173.556 289.865 173.663C289.865 173.769 289.865 173.859 289.899 173.96C289.932 174.061 289.899 174.185 289.938 174.297C290.003 174.795 290.12 175.284 290.286 175.758C290.31 175.844 290.34 175.928 290.376 176.01C290.417 176.123 290.464 176.234 290.516 176.342C290.56 176.446 290.611 176.547 290.668 176.645C290.713 176.743 290.765 176.837 290.825 176.926L290.882 177.016C290.98 177.17 291.089 177.319 291.207 177.459C291.269 177.541 291.336 177.618 291.409 177.69L291.623 177.898C291.696 177.966 291.773 178.03 291.853 178.089C291.93 178.148 292.011 178.202 292.095 178.251C292.179 178.302 292.258 178.353 292.347 178.398L292.606 178.521L292.875 178.617C293.04 178.666 293.207 178.708 293.375 178.74H293.46C293.553 178.749 293.647 178.749 293.74 178.74C293.841 178.752 293.943 178.752 294.044 178.74C294.285 178.74 294.526 178.716 294.763 178.667C294.952 178.635 295.14 178.592 295.324 178.538C295.817 178.387 296.291 178.178 296.734 177.914L302.351 174.668C302.852 174.379 303.324 174.042 303.761 173.663C303.918 173.528 304.075 173.382 304.233 173.236C304.516 172.972 304.784 172.692 305.036 172.399L305.395 172.073C305.491 171.961 305.581 171.843 305.676 171.725C305.7 171.684 305.728 171.646 305.761 171.612C306.135 171.118 306.48 170.602 306.794 170.068C306.878 169.927 306.957 169.781 307.041 169.635C307.125 169.489 307.204 169.343 307.283 169.192C307.361 169.04 307.434 168.888 307.513 168.742L307.726 168.282C307.799 168.13 307.867 167.967 307.934 167.821C308.052 167.551 308.159 167.259 308.254 167.001C308.254 166.95 308.294 166.9 308.311 166.849C308.372 166.692 308.423 166.535 308.473 166.377C308.575 166.074 308.664 165.771 308.754 165.456C308.952 164.718 309.1 163.968 309.198 163.21C309.198 163.08 309.226 162.957 309.243 162.828C309.26 162.698 309.243 162.609 309.271 162.496C309.299 162.384 309.271 162.272 309.271 162.159C309.271 161.95 309.271 161.742 309.271 161.536C309.271 156.481 306.176 154.116 302.368 156.312L296.751 159.564C292.96 161.749 289.865 167.664 289.865 172.741Z" fill="#E0E0E0"/>
<path d="M311.299 158.469L306.979 155.986L305.35 157.138L310.389 160.188L311.299 158.469Z" fill="#E0E0E0"/>
<path d="M296.47 180.751L292.128 178.252L295.532 177.235L296.47 180.751Z" fill="#E0E0E0"/>
<path d="M301.537 175.213C301.537 176.112 302.66 177.336 303.946 177.566C304.12 177.6 304.075 177.982 303.868 178.128C303.101 178.544 302.217 178.691 301.357 178.544C300.798 178.527 300.254 178.362 299.781 178.066C299.307 177.77 298.92 177.353 298.661 176.859L301.537 175.213Z" fill="#2CB7B3"/>
<path d="M291.6 153.701L284.102 158.031C279.047 160.958 274.913 168.844 274.913 175.601C274.913 175.881 274.913 176.162 274.913 176.409C274.913 176.561 274.913 176.69 274.913 176.836C274.913 176.982 274.941 177.095 274.958 177.224C274.975 177.353 274.991 177.533 275.014 177.673C275.115 178.468 275.304 179.25 275.576 180.004C275.694 180.291 275.817 180.566 275.952 180.807C276.014 180.936 276.085 181.06 276.165 181.178C276.189 181.219 276.215 181.259 276.244 181.296C276.366 181.508 276.509 181.708 276.671 181.891C276.761 181.993 276.851 182.105 276.946 182.195L277.233 182.476C277.334 182.554 277.435 182.65 277.536 182.728C277.638 182.808 277.745 182.882 277.856 182.947L278.193 183.138C278.621 183.369 279.084 183.527 279.564 183.605C279.6 183.592 279.639 183.592 279.676 183.605C279.805 183.605 279.929 183.605 280.052 183.605C280.189 183.613 280.326 183.613 280.462 183.605C280.823 183.606 281.183 183.567 281.535 183.487C281.745 183.445 281.954 183.392 282.159 183.329C282.813 183.127 283.443 182.85 284.035 182.504C284.007 184.168 283.47 185.783 282.496 187.132C282.316 187.374 282.591 187.581 282.799 187.475C283.718 186.998 284.532 186.341 285.192 185.542C286.459 184.041 287.347 182.257 287.781 180.341L287.219 180.65L291.505 178.179C291.92 177.94 292.319 177.675 292.701 177.387C292.668 177.244 292.644 177.1 292.628 176.954C292.628 176.859 292.595 176.718 292.583 176.572C292.563 176.448 292.55 176.322 292.544 176.196V176.129C292.538 176.035 292.538 175.941 292.544 175.848C292.544 175.634 292.544 175.41 292.544 175.185C292.544 169.501 295.914 163.092 300.25 160.581L300.728 160.3C300.683 153.802 296.599 150.814 291.6 153.701Z" fill="#F0F0F0"/>
<path d="M306.738 158.8L301.121 162.047C297.318 164.249 294.218 170.163 294.218 175.241C294.218 175.449 294.218 175.651 294.218 175.847C294.218 176.044 294.218 176.055 294.218 176.162C294.218 176.269 294.218 176.359 294.246 176.46C294.255 176.571 294.27 176.682 294.291 176.791C294.353 177.291 294.469 177.783 294.639 178.257C294.661 178.344 294.691 178.429 294.729 178.51C294.767 178.621 294.812 178.73 294.864 178.836C294.909 178.941 294.959 179.044 295.015 179.145C295.062 179.243 295.116 179.337 295.178 179.425C295.192 179.457 295.208 179.487 295.229 179.515C295.336 179.673 295.442 179.819 295.555 179.959C295.62 180.04 295.689 180.117 295.763 180.189L295.976 180.397C296.049 180.465 296.126 180.529 296.206 180.588C296.28 180.649 296.359 180.703 296.442 180.751C296.526 180.802 296.605 180.852 296.695 180.897L296.953 181.021L297.223 181.116C297.387 181.166 297.554 181.207 297.723 181.24H297.807C297.9 181.248 297.994 181.248 298.088 181.24C298.19 181.254 298.294 181.254 298.397 181.24C298.638 181.241 298.879 181.218 299.116 181.172C299.305 181.14 299.493 181.097 299.677 181.043C300.171 180.894 300.645 180.685 301.087 180.42L302.986 179.33C303.249 179.819 303.637 180.23 304.111 180.521C304.584 180.812 305.126 180.973 305.682 180.987C306.542 181.132 307.427 180.983 308.193 180.566C308.395 180.436 308.445 180.054 308.266 180.004C306.979 179.774 305.862 178.549 305.862 177.65L306.715 177.156C307.216 176.866 307.688 176.529 308.125 176.151C308.282 176.016 308.44 175.87 308.591 175.724C308.876 175.46 309.146 175.181 309.4 174.887C309.501 174.769 309.602 174.657 309.704 174.522C309.805 174.387 309.889 174.297 309.984 174.179L310.069 174.067C310.443 173.572 310.788 173.057 311.102 172.522L311.355 172.09C311.439 171.944 311.518 171.798 311.596 171.646C311.675 171.494 311.742 171.343 311.821 171.197L312.04 170.736C312.113 170.579 312.175 170.422 312.242 170.276C312.36 170.006 312.473 169.714 312.568 169.456L312.619 169.304C312.68 169.147 312.737 168.989 312.782 168.832C312.888 168.523 312.973 168.225 313.068 167.911C313.266 167.173 313.414 166.422 313.512 165.664C313.512 165.535 313.54 165.411 313.551 165.282C313.562 165.153 313.551 165.058 313.579 164.951C313.607 164.844 313.579 164.726 313.579 164.614C313.579 164.406 313.579 164.193 313.579 163.985C313.641 158.946 310.54 156.604 306.738 158.8Z" fill="#F0F0F0"/>
<path d="M261.612 233.1C259.489 232.437 257.31 234.156 255.883 237.627C254.456 241.098 251.463 249.928 251.019 252.281C250.575 254.635 260.618 259.757 260.337 259.622C260.056 259.487 261.612 233.1 261.612 233.1Z" fill="#263238"/>
<path d="M256.944 314.802C256.641 314.914 256.568 315.487 256.523 316.622C256.49 317.481 256.304 318.981 257.31 319.279C258.315 319.576 259.792 319.425 260.438 318.616C261.241 317.605 261.786 316.717 262.932 315.482C263.932 314.414 265.005 313.415 265.409 311.915C265.774 310.556 265.471 309.972 264.544 309.578C263.275 309.017 261.275 310.803 260.281 311.084C259.422 311.325 257.242 314.69 256.944 314.802Z" fill="#263238"/>
<path d="M256.945 313.752V315.145C257.467 315.48 258.072 315.665 258.692 315.682C259.313 315.699 259.926 315.546 260.466 315.241C260.528 315.106 260.831 313.247 260.831 313.247L256.945 313.752Z" fill="#AF6152"/>
<path d="M268.229 322.834C268.229 322.834 267.83 324.048 267.617 325.081C267.443 325.924 267.201 327.328 267.493 327.968C267.785 328.609 268.942 329.013 270.723 328.996C271.88 328.996 273.683 329.777 274.913 330.462C276.143 331.147 278.845 331.456 280.187 331.299C281.771 331.114 283.417 330.176 283.675 329.535C283.934 328.895 283.591 328.193 279.85 326.598C279.816 326.598 274.649 324.913 272.835 322.907L268.229 322.834Z" fill="#263238"/>
<path d="M268.229 321.329C268.229 321.329 268.229 322.363 268.229 322.952C268.229 323.542 268.925 324.424 270.734 324.362C272.003 324.317 272.885 323.975 272.835 322.93V321.419L268.229 321.329Z" fill="#AF6152"/>
<path d="M256.035 295.255C256.345 292.787 256.896 290.354 257.68 287.993C257.68 287.993 257.186 281.73 256.945 275.793C256.686 269.379 256.945 261.313 256.838 259.718C256.838 259.718 277.536 255.528 277.907 262.942C278.277 270.356 277.087 289.229 276.845 292.486C276.603 295.744 276.036 298.625 275.362 303.905C274.688 309.185 272.835 321.419 272.835 321.419C272.119 321.783 271.324 321.966 270.52 321.95C269.717 321.935 268.93 321.721 268.229 321.329C268.229 321.329 266.774 306.5 266.926 302.743C267.044 299.952 267.524 297.187 268.352 294.52L267.617 283.089C267.268 277.77 266.903 275.226 266.819 272.906L266.375 272.681C266.375 272.681 265.92 281.859 265.679 285.117C265.437 288.375 264.915 291.498 263.994 297.547C263.174 302.793 260.742 313.898 260.742 313.898C258.377 315.178 256.967 313.735 256.967 313.735C256.967 313.735 255.406 299.805 256.035 295.255Z" fill="#455A64"/>
<path d="M266.819 272.923C266.819 272.923 261.797 270.446 259.287 268.216C259.287 268.216 261.618 271.502 264.685 272.962C264.685 272.962 265.774 284.359 265.769 284.134L266.398 272.9L266.819 272.923Z" fill="#263238"/>
<path d="M271.29 230.752L270.065 237.492L263.977 237.048L265.252 229.404L271.29 230.752Z" fill="#AF6152"/>
<path d="M257.546 236.554C258.147 234.723 260.472 232.729 262.797 233.184C266.256 233.769 269.664 234.62 272.992 235.728C275.121 236.487 277.059 238.329 277.238 245.339L278.317 266.211L275.739 266.772L274.84 262.043L274.424 266.772C271.728 267.447 267.049 266.89 263.977 266.211C257.574 264.812 256.804 262.155 256.804 262.155C256.804 262.155 256.72 250.411 256.911 245.339C257.091 241.002 257.13 237.79 257.546 236.554Z" fill="#263238"/>
<path d="M275.795 222.765C275.795 222.765 277.272 224.95 277.081 225.18C276.739 225.41 276.359 225.576 275.957 225.669L275.795 222.765Z" fill="#AF6152"/>
<path d="M271.29 215.845C272.711 216.564 275.165 217.89 275.839 223.085C276.536 228.421 275.62 230.14 274.901 230.848C274.413 231.325 271.762 231.353 270.436 230.954C268.751 230.455 265.033 229.033 263.325 226.292C261.314 223.068 260.865 218.749 263.134 217.03C266.319 214.615 270.088 215.239 271.29 215.845Z" fill="#AF6152"/>
<path d="M276.137 217.631C275.671 218.911 274.885 222.046 271.616 223.354C271.616 223.354 271.15 221.355 269.47 221.568C267.791 221.782 267.504 223.922 268.538 225.253C269.571 226.584 270.571 226.101 270.571 226.101C270.571 226.101 270.796 228.965 268.886 230.263C268.886 230.263 266.578 231.723 264.134 230.6C263.011 230.094 261.477 227.46 260.567 225.298C258.635 220.726 258.36 217.058 261.275 215.901C261.635 213.823 262.573 213.042 264.454 212.654C268.504 211.817 271.565 214.48 274.969 214.013C276.75 213.766 276.671 216.17 276.137 217.631Z" fill="#263238"/>
<path d="M261.208 216.597L259.298 215.418C259.372 215.285 259.472 215.169 259.592 215.077C259.712 214.984 259.85 214.917 259.996 214.879C260.143 214.841 260.296 214.833 260.446 214.855C260.596 214.878 260.74 214.931 260.869 215.01C260.998 215.09 261.109 215.195 261.197 215.319C261.284 215.443 261.345 215.583 261.377 215.731C261.409 215.88 261.41 216.033 261.381 216.182C261.352 216.331 261.293 216.472 261.208 216.597Z" fill="#263238"/>
<path d="M270.841 233.207L271.537 235.223C271.537 235.223 271.026 236.122 268.852 236.167C266.678 236.212 264.359 235.521 263.64 234.594C263.476 234.412 263.355 234.197 263.285 233.963C263.215 233.729 263.198 233.482 263.235 233.24C263.235 233.24 264.1 231.331 264.92 231.415L264.786 232.246C264.786 232.246 264.971 232.926 266.942 233.448C270.009 234.263 270.841 233.207 270.841 233.207Z" fill="#455A64"/>
<path d="M288.309 246.608C289.185 245.602 289.522 243.373 290.691 241.845C291.859 240.317 292.291 239.199 292.752 239.868C293.364 240.75 291.982 242.519 292.291 242.676C292.6 242.833 293.74 245.181 293.858 246.473C293.976 247.765 290.55 251.023 290.55 251.023L288.309 246.608Z" fill="#AF6152"/>
<path d="M270.841 233.207C270.982 233.204 271.121 233.24 271.244 233.31C271.367 233.38 271.468 233.482 271.537 233.605C271.881 234.226 272.188 234.865 272.458 235.521L271.537 235.223L270.841 233.207Z" fill="#455A64"/>
<path d="M292.196 242.497C292.196 242.497 296.336 242.137 296.937 242.497C297.538 242.856 297.358 244.648 296.937 245.749C296.515 246.85 294.403 247.563 292.443 248.889C292.443 248.686 292.196 242.497 292.196 242.497Z" fill="#FFA8A7"/>
<path d="M272.458 235.543C274.239 236.166 275.795 236.88 277.457 240.003C279.592 244.013 283.636 250.428 283.636 250.428L288.292 246.322C288.292 246.322 288.994 245.642 290.303 247.805C290.686 248.387 290.929 249.05 291.012 249.742C291.095 250.434 291.016 251.136 290.78 251.792C290.78 251.792 285.405 258.1 284.377 259.061C283.349 260.021 281.647 259.274 280.541 257.763C279.434 256.252 272.441 247.518 272.441 247.518C272.441 247.518 268.644 242.474 272.458 235.543Z" fill="#263238"/>
<path d="M320.488 225.056H307.226C306.726 225.056 306.246 224.857 305.892 224.503C305.538 224.149 305.339 223.669 305.339 223.169V202.1C305.339 200.442 305.998 198.852 307.17 197.68C308.343 196.507 309.933 195.849 311.591 195.849H316.14C317.795 195.853 319.381 196.514 320.55 197.686C321.719 198.858 322.375 200.445 322.375 202.1V223.169C322.375 223.669 322.176 224.149 321.822 224.503C321.468 224.857 320.988 225.056 320.488 225.056Z" fill="#263238"/>
<path d="M304.991 217.867C303.705 221.658 301.548 232.566 301.548 232.566C301.548 232.566 297.054 238.059 295.588 239.39C294.785 240.132 292.977 241.463 292.977 241.463L296.262 243.878C299.229 241.596 302.016 239.089 304.598 236.38C305.172 235.769 305.575 235.017 305.766 234.2L308.013 224.562C308.013 224.562 308.013 216.811 309.198 215.794C310.383 214.777 310.726 214.564 310.726 214.564C309.204 214.452 306.002 214.884 304.991 217.867Z" fill="#F28F8F"/>
<path d="M311.428 214.452C309.333 214.21 306.648 214.255 305.339 216.597C304.031 218.94 301.851 231.049 301.851 231.049C301.851 231.049 303.913 232.65 306.137 232.622L311.428 214.452Z" fill="#2CB7B3"/>
<path d="M305.603 225.736C305.98 227.542 306.126 229.388 306.036 231.23C305.873 233.656 304.199 237.891 304.199 237.891C304.199 237.891 305.508 239.329 309.198 238.751C312.203 238.284 311.141 229.202 309.417 227.461C308.411 226.422 307.048 225.805 305.603 225.736Z" fill="#2CB7B3"/>
<path opacity="0.3" d="M305.603 225.736C305.98 227.542 306.126 229.388 306.036 231.23C305.873 233.656 304.199 237.891 304.199 237.891C304.199 237.891 305.508 239.329 309.198 238.751C312.203 238.284 311.141 229.202 309.417 227.461C308.411 226.422 307.048 225.805 305.603 225.736Z" fill="black"/>
<path d="M312.546 289.881C312.569 290.295 312.466 290.707 312.248 291.06C311.692 291.978 311.039 292.833 310.299 293.61C309.26 294.733 307.704 296.053 306.586 297.025C305.968 297.587 305.946 298.384 306.833 298.671C308.488 299.074 310.233 298.831 311.714 297.991C312.838 297.396 314.399 294.621 315.32 294.228C316.382 293.751 316.972 293.515 317.331 293.026C317.603 292.748 317.773 292.386 317.812 292C317.852 291.613 317.76 291.225 317.55 290.897C317.05 289.965 316.298 288.532 315.989 288.695L316.084 288.987C315.843 289.746 313.776 290.628 312.714 290.42L312.546 289.881Z" fill="#263238"/>
<path d="M323.369 258.19C323.847 253.135 325.217 245.002 323.813 238.98L305.165 239.969C304.648 245.906 304.042 264.442 304.693 266.565C305.446 269.07 312.169 286.409 312.557 289.897C312.584 290.306 312.479 290.714 312.259 291.06C311.704 291.98 311.051 292.837 310.31 293.615C309.805 294.177 309.187 294.739 308.535 295.3C308.481 295.381 308.448 295.473 308.44 295.57C308.44 296.132 309.855 296.306 310.687 296.064C311.723 295.698 312.616 295.012 313.237 294.104C313.714 293.469 314.787 292.251 315.483 291.335C315.716 291.052 315.914 290.743 316.073 290.414C316.259 290.002 316.291 289.538 316.163 289.105L316.118 288.965C315.754 287.828 315.527 286.651 315.444 285.46C315.186 281.635 314.528 272.799 313.922 270.446C313.501 268.731 312.861 267.077 312.018 265.526L314.147 248.962C314.147 248.962 314.371 263.565 315.034 267.289C315.556 270.272 315.759 274.001 316.371 279.118C316.932 284.016 317.584 292.644 317.584 292.644C317.601 292.647 317.618 292.647 317.635 292.644V296.766H321.123V294.374C321.123 293.293 321.213 292.215 321.392 291.15C321.954 287.892 323.122 280.438 323.364 277.916C323.746 273.917 322.302 268.89 322.302 268.89C322.302 268.89 322.903 263.122 323.369 258.19Z" fill="#FFA8A7"/>
<path d="M316.798 214.626C316.798 214.626 321.813 215.187 322.414 215.474C317.708 218.782 321.521 226.146 321.521 226.146L319.718 231.802C321.724 234.369 323.454 235.897 324.526 238.711C325.717 241.856 326.773 246.535 326.492 256.123C321.999 259.493 308.327 259.128 303.003 256.123C303.003 256.123 303.901 247.658 304.963 241.081C305.665 236.739 307.322 232.01 307.041 230.409C304.929 223.916 304.794 222.748 305.176 221.299C306.227 217.221 310.383 214.463 311.405 214.463L316.798 214.626Z" fill="#2CB7B3"/>
<path opacity="0.6" d="M316.798 214.626C316.798 214.626 321.813 215.187 322.414 215.474C317.708 218.782 321.521 226.146 321.521 226.146L319.718 231.802C321.724 234.369 323.454 235.897 324.526 238.711C325.717 241.856 326.773 246.535 326.492 256.123C321.999 259.493 308.327 259.128 303.003 256.123C303.003 256.123 303.901 247.658 304.963 241.081C305.665 236.739 307.322 232.01 307.041 230.409C304.929 223.916 304.794 222.748 305.176 221.299C306.227 217.221 310.383 214.463 311.405 214.463L316.798 214.626Z" fill="white"/>
<path d="M317.601 295.02V294.52C317.163 296.199 316.286 297.733 315.062 298.963C313.938 299.979 312.422 301.159 312.029 302.299C311.636 303.439 313.832 303.95 315.281 303.804C316.685 303.633 317.979 302.956 318.921 301.9C319.842 300.844 319.825 300.125 320.252 299.541C320.679 298.957 321.673 298.317 321.903 297.643C321.975 297.014 321.906 296.377 321.701 295.778C321.538 295.155 321.358 294.464 321.139 294.52V294.907C320.634 295.305 320.007 295.517 319.364 295.508C318.876 295.52 317.595 295.413 317.601 295.02Z" fill="#263238"/>
<path d="M321.123 294.896C320.617 295.293 319.991 295.506 319.348 295.497C318.831 295.497 317.573 295.413 317.578 295.019V294.52C317.14 296.199 316.264 297.732 315.04 298.962L314.191 299.721C313.596 300.384 313.765 300.962 315.163 301.08C316.562 301.198 317.792 300.355 318.848 299.058C319.748 297.753 320.51 296.358 321.123 294.896Z" fill="#FFA8A7"/>
<path d="M308.136 199.292C307.238 199.825 306.126 202.1 306.232 206.829C306.328 210.851 307.631 211.845 308.288 212.132C308.945 212.418 310.203 212.244 311.428 212.042V214.451C311.428 214.451 309.743 216.423 309.838 217.529C309.934 218.636 312.287 218.894 313.877 217.816C315.024 216.926 316.012 215.847 316.797 214.625L316.769 209.082C316.769 209.082 317.494 209.778 318.718 208.711C319.729 207.829 320.066 206.335 319.28 205.537C319.076 205.345 318.829 205.205 318.559 205.128C318.29 205.051 318.006 205.039 317.731 205.094C317.456 205.149 317.199 205.269 316.98 205.444C316.761 205.619 316.586 205.843 316.472 206.099C316.472 206.099 315.792 204.206 312.967 203.291C310.417 202.443 309.029 201.482 308.136 199.292Z" fill="#FFA8A7"/>
<path d="M310.726 205.824C310.726 205.923 310.755 206.02 310.81 206.102C310.864 206.185 310.942 206.25 311.033 206.289C311.124 206.327 311.225 206.339 311.322 206.321C311.419 206.303 311.509 206.257 311.581 206.189C311.652 206.12 311.702 206.032 311.724 205.936C311.746 205.839 311.739 205.738 311.705 205.646C311.67 205.553 311.608 205.473 311.528 205.414C311.448 205.356 311.353 205.323 311.254 205.318C311.186 205.317 311.118 205.329 311.055 205.353C310.992 205.378 310.934 205.415 310.885 205.462C310.836 205.509 310.797 205.565 310.769 205.627C310.742 205.689 310.727 205.756 310.726 205.824Z" fill="#263238"/>
<path d="M310.591 209.228L309.417 209.604C309.438 209.683 309.474 209.756 309.524 209.82C309.573 209.884 309.635 209.937 309.706 209.977C309.777 210.016 309.855 210.041 309.936 210.049C310.016 210.057 310.098 210.05 310.175 210.026C310.334 209.972 310.465 209.859 310.543 209.71C310.62 209.562 310.637 209.389 310.591 209.228Z" fill="#F28F8F"/>
<path d="M306.581 204.268L307.603 203.561C307.56 203.492 307.503 203.432 307.436 203.386C307.369 203.339 307.293 203.307 307.213 203.29C307.133 203.274 307.051 203.274 306.971 203.291C306.892 203.307 306.816 203.34 306.749 203.387C306.612 203.483 306.518 203.629 306.487 203.793C306.455 203.958 306.489 204.128 306.581 204.268Z" fill="#263238"/>
<path d="M312.197 204.65L311.169 203.943C311.213 203.874 311.269 203.814 311.336 203.768C311.403 203.721 311.479 203.688 311.558 203.672C311.638 203.655 311.72 203.654 311.8 203.67C311.88 203.686 311.956 203.717 312.023 203.763C312.159 203.861 312.253 204.008 312.285 204.172C312.317 204.337 312.286 204.508 312.197 204.65Z" fill="#263238"/>
<path d="M306.816 205.454C306.815 205.553 306.844 205.65 306.898 205.734C306.952 205.817 307.029 205.882 307.12 205.922C307.211 205.962 307.311 205.974 307.409 205.957C307.507 205.94 307.597 205.894 307.669 205.826C307.742 205.758 307.792 205.67 307.814 205.573C307.837 205.476 307.83 205.375 307.796 205.282C307.761 205.189 307.7 205.108 307.619 205.05C307.539 204.992 307.444 204.958 307.344 204.954C307.208 204.951 307.076 205.002 306.978 205.095C306.879 205.189 306.821 205.318 306.816 205.454Z" fill="#263238"/>
<path d="M309.198 205.167L309.119 208.211L307.519 207.717L309.198 205.167Z" fill="#F28F8F"/>
<path d="M311.428 212.042C312.72 211.868 315.36 211.104 315.798 210.054C315.631 210.586 315.306 211.054 314.865 211.396C314.068 212.076 311.428 212.845 311.428 212.845V212.042Z" fill="#F28F8F"/>
<path d="M320.589 228.718L317.045 233.515L319.718 231.802L320.589 228.718Z" fill="#2CB7B3"/>
<path d="M292.668 241.463C291.909 242.441 291.443 244.339 291.044 244.98C290.645 245.62 290.168 246.176 291.044 246.294C291.921 246.412 293.201 244.699 293.679 243.66C293.92 243.074 294.376 242.602 294.954 242.34C294.544 242.199 294.757 240.554 294.471 240.323C294.471 240.323 292.976 240.935 292.668 241.463Z" fill="#F28F8F"/>
<path d="M292.443 248.877C293.235 248.287 293.263 247.563 293.415 246.411C293.566 245.26 296.74 244.013 296.841 244.872C296.942 245.732 297.228 246.451 296.279 247.495C295.33 248.54 293.892 249.652 292.443 248.877Z" fill="#F28F8F"/>
<path d="M316.798 214.626C316.798 214.626 321.493 215.036 322.414 215.474C323.336 215.912 324.869 218.563 323.498 222.411C322.128 226.258 320.881 230.786 321.021 231.696C321.162 232.605 324.436 237.312 324.436 237.312C323.533 237.979 322.511 238.469 321.426 238.756L319.741 235.094L320.134 238.986C318.441 239.398 316.702 239.587 314.961 239.548C314.961 239.548 313.371 224.596 316.798 214.626Z" fill="#2CB7B3"/>
<path d="M328.368 232.965C328.745 230.752 328.368 230.027 327.593 227.859L323.661 230.403C323.984 231.222 324.174 232.086 324.223 232.965C324.189 233.605 323.319 239.952 322.504 242.165C322.358 242.558 322.069 242.883 321.696 243.075C320.886 243.569 320.152 244.179 319.516 244.884C318.915 245.445 318.432 245.546 318.494 245.737C318.587 245.944 318.753 246.11 318.96 246.202C319.167 246.294 319.401 246.307 319.617 246.237C320.107 246.078 320.576 245.863 321.016 245.597C320.626 246.423 320.106 247.181 319.477 247.844C318.033 249.383 317.904 250.382 320.6 250.59C322.285 250.719 323.695 249.776 325.217 246.153C325.689 244.825 326.077 243.468 326.38 242.092C327.2 238.952 327.998 235.194 328.368 232.965Z" fill="#FFA8A7"/>
<path d="M322.414 215.474C324.307 216.322 324.846 217.996 325.549 220.456C326.251 222.916 328.452 230.297 328.452 230.297C328.452 230.297 326.565 232.544 323.959 231.915L320.589 223.731C320.589 223.731 319.016 218.389 322.414 215.474Z" fill="#2CB7B3"/>
</svg>
