<svg width="898" height="48" viewBox="0 0 898 48" fill="none" xmlns="http://www.w3.org/2000/svg">
<g clip-path="url(#clip0_1881_32304)">
<rect x="0.25" y="0.25" width="897.5" height="47.5" rx="3.75" fill="white" stroke="#767676" stroke-width="0.5" stroke-dasharray="5 5"/>
<path d="M371.866 17.92H373.146V26.56H375.066V28H371.866V17.92ZM380.19 26.56V28H374.43V26.56H376.99V20.48H378.27V26.56H380.19ZM377.63 18.56C377.47 18.5707 377.283 18.4693 377.07 18.256C376.857 18.0427 376.75 17.8507 376.75 17.68C376.75 17.5093 376.851 17.3227 377.054 17.12C377.267 16.9173 377.459 16.8107 377.63 16.8C377.801 16.8107 377.987 16.9173 378.19 17.12C378.403 17.3227 378.51 17.5093 378.51 17.68C378.51 17.84 378.403 18.032 378.19 18.256C377.977 18.4693 377.79 18.5707 377.63 18.56ZM390.755 26.896V28H379.555V26.56H381.379C381.39 25.4933 381.459 24.7307 381.587 24.272C381.715 23.8133 381.955 23.5093 382.307 23.36C382.67 23.2107 383.272 23.136 384.115 23.136C385.011 23.136 385.646 23.2107 386.019 23.36C386.403 23.5093 386.659 23.8133 386.787 24.272C386.926 24.72 387 25.4827 387.011 26.56H389.363L388.563 23.456C388.371 22.7307 388.078 22.1653 387.683 21.76C387.288 21.344 386.776 21.0507 386.147 20.88C385.518 20.7093 384.712 20.624 383.731 20.624L383.811 19.232C385.006 19.232 385.987 19.3387 386.755 19.552C387.534 19.7653 388.163 20.144 388.643 20.688C389.134 21.2213 389.502 21.9787 389.747 22.96L390.755 26.896ZM382.499 26.56H385.891V24.176H383.315C383.016 24.176 382.803 24.224 382.675 24.32C382.558 24.4053 382.499 24.5653 382.499 24.8V26.56ZM400.715 21.744C399.947 21.744 399.365 21.8027 398.971 21.92V26.032C399.909 25.744 401.232 25.6 402.939 25.6V26.8C401.712 26.8 400.72 26.88 399.963 27.04C399.205 27.1893 398.645 27.4347 398.283 27.776C397.92 28.1173 397.739 28.5707 397.739 29.136V31.648C398.283 31.744 399.035 31.792 399.995 31.792C400.389 31.792 400.784 31.7653 401.179 31.712C401.584 31.6587 402.091 31.568 402.699 31.44L402.891 32.784C402.496 32.9227 402.005 33.0293 401.419 33.104C400.832 33.1893 400.208 33.232 399.547 33.232C398.651 33.232 397.979 33.136 397.531 32.944C397.093 32.752 396.789 32.4053 396.618 31.904C396.459 31.4133 396.379 30.656 396.379 29.632C396.379 28.8853 396.501 28.256 396.747 27.744C396.992 27.232 397.381 26.816 397.914 26.496C397.712 25.9733 397.611 25.168 397.611 24.08C397.611 23.0453 397.696 22.2667 397.867 21.744C398.037 21.2107 398.341 20.8373 398.779 20.624C399.216 20.4107 399.877 20.304 400.763 20.304C401.264 20.304 401.776 20.352 402.299 20.448C402.832 20.5333 403.275 20.6453 403.627 20.784L403.419 22.128C402.48 21.872 401.579 21.744 400.715 21.744ZM409.439 20.32C410.121 20.32 410.713 20.3573 411.215 20.432C411.716 20.5067 412.239 20.6347 412.783 20.816V26.56C412.783 27.1467 412.628 27.7973 412.319 28.512C412.02 29.2373 411.609 29.936 411.087 30.608C410.564 31.28 409.999 31.8347 409.391 32.272L408.591 31.28C409.135 30.8533 409.636 30.3467 410.095 29.76C410.553 29.1733 410.911 28.5867 411.167 28H408.399C407.769 28 407.289 27.8933 406.959 27.68C406.639 27.456 406.409 27.072 406.271 26.528C406.143 25.984 406.079 25.1947 406.079 24.16C406.079 23.0933 406.169 22.2933 406.351 21.76C406.543 21.2267 406.873 20.8533 407.343 20.64C407.812 20.4267 408.511 20.32 409.439 20.32ZM410.767 26.56C411.044 26.56 411.236 26.5067 411.343 26.4C411.449 26.2827 411.503 26.0693 411.503 25.76V21.76H408.175C407.887 21.76 407.689 21.8187 407.583 21.936C407.487 22.0533 407.439 22.288 407.439 22.64V26.56H410.767ZM419.655 26.56V28H417.751C417.751 29.056 417.564 29.9093 417.191 30.56C416.818 31.2107 416.21 31.7387 415.367 32.144L414.823 31.024C415.442 30.7253 415.868 30.352 416.103 29.904C416.348 29.4667 416.471 28.832 416.471 28V20.48H417.751V26.56H419.655ZM434.464 26.56V28H429.664C428.971 28 428.421 27.9627 428.016 27.888C427.611 27.8027 427.291 27.6587 427.056 27.456C426.832 27.6587 426.512 27.8027 426.096 27.888C425.691 27.9627 425.141 28 424.448 28H419.008V26.56H421.568V21.92H422.848V26.56H425.168C425.637 26.56 425.963 26.5013 426.144 26.384C426.325 26.2667 426.416 26.0427 426.416 25.712V21.92H427.696V25.712C427.696 26.0427 427.787 26.2667 427.968 26.384C428.149 26.5013 428.475 26.56 428.944 26.56H431.072C431.2 25.888 431.264 25.0027 431.264 23.904C431.264 23.008 431.125 21.9467 430.848 20.72L432.112 20.512C432.229 20.9493 432.331 21.4987 432.416 22.16C432.501 22.8107 432.544 23.376 432.544 23.856C432.544 25.0827 432.443 25.984 432.24 26.56H434.464ZM426.064 18.56C425.904 18.5707 425.717 18.4693 425.504 18.256C425.291 18.0427 425.184 17.8507 425.184 17.68C425.184 17.5093 425.285 17.3227 425.488 17.12C425.701 16.9173 425.893 16.8107 426.064 16.8C426.235 16.8107 426.421 16.9173 426.624 17.12C426.837 17.3227 426.944 17.5093 426.944 17.68C426.944 17.84 426.837 18.032 426.624 18.256C426.411 18.4693 426.224 18.5707 426.064 18.56ZM428.368 18.56C428.208 18.5707 428.021 18.4693 427.808 18.256C427.595 18.0427 427.488 17.8507 427.488 17.68C427.488 17.5093 427.589 17.3227 427.792 17.12C428.005 16.9173 428.197 16.8107 428.368 16.8C428.539 16.8107 428.725 16.9173 428.928 17.12C429.141 17.3227 429.248 17.5093 429.248 17.68C429.248 17.84 429.141 18.032 428.928 18.256C428.715 18.4693 428.528 18.5707 428.368 18.56ZM427.216 16.16C427.056 16.1707 426.869 16.0693 426.656 15.856C426.443 15.6427 426.336 15.4507 426.336 15.28C426.336 15.1093 426.437 14.9227 426.64 14.72C426.853 14.5173 427.045 14.4107 427.216 14.4C427.387 14.4107 427.573 14.5173 427.776 14.72C427.989 14.9227 428.096 15.1093 428.096 15.28C428.096 15.44 427.989 15.632 427.776 15.856C427.563 16.0693 427.376 16.1707 427.216 16.16ZM444.941 26.56V28H433.821V26.56H436.157C435.986 25.9947 435.901 25.2587 435.901 24.352C435.901 23.2853 436.135 22.1547 436.605 20.96C437.031 20.7573 437.559 20.6027 438.189 20.496C438.829 20.3787 439.458 20.32 440.077 20.32C440.813 20.32 441.394 20.3893 441.821 20.528C442.247 20.656 442.551 20.8693 442.733 21.168C442.925 21.4667 443.021 21.8773 443.021 22.4V26.56H444.941ZM441.741 21.936C441.271 21.8187 440.679 21.76 439.965 21.76C439.197 21.76 438.402 21.8507 437.581 22.032C437.314 22.9173 437.181 23.6907 437.181 24.352C437.181 25.2587 437.277 25.9947 437.469 26.56H441.741V21.936ZM444.305 28V26.56H446.865V17.92H448.145V28H444.305ZM451.35 17.92H452.63V28H451.35V17.92ZM466.746 28H462.842C461.882 28 461.178 27.9093 460.73 27.728C460.293 27.536 459.994 27.184 459.834 26.672C459.674 26.16 459.594 25.3493 459.594 24.24C459.594 23.1307 459.674 22.32 459.834 21.808C459.994 21.296 460.293 20.9493 460.73 20.768C461.178 20.576 461.882 20.48 462.842 20.48H466.746V28ZM462.058 21.92C461.664 21.92 461.381 21.9893 461.21 22.128C461.04 22.2667 460.954 22.496 460.954 22.816V25.664C460.954 25.984 461.04 26.2133 461.21 26.352C461.381 26.4907 461.664 26.56 462.058 26.56H465.466V21.92H462.058ZM462.25 18.56C462.09 18.5707 461.904 18.4693 461.69 18.256C461.477 18.0427 461.37 17.8507 461.37 17.68C461.37 17.5093 461.472 17.3227 461.674 17.12C461.888 16.9173 462.08 16.8107 462.25 16.8C462.421 16.8107 462.608 16.9173 462.81 17.12C463.024 17.3227 463.13 17.5093 463.13 17.68C463.13 17.84 463.024 18.032 462.81 18.256C462.597 18.4693 462.41 18.5707 462.25 18.56ZM464.554 18.56C464.394 18.5707 464.208 18.4693 463.994 18.256C463.781 18.0427 463.674 17.8507 463.674 17.68C463.674 17.5093 463.776 17.3227 463.978 17.12C464.192 16.9173 464.384 16.8107 464.554 16.8C464.725 16.8107 464.912 16.9173 465.114 17.12C465.328 17.3227 465.434 17.5093 465.434 17.68C465.434 17.84 465.328 18.032 465.114 18.256C464.901 18.4693 464.714 18.5707 464.554 18.56ZM468.792 31.024C469.41 30.7253 469.837 30.352 470.072 29.904C470.317 29.4667 470.44 28.832 470.44 28V20.48H471.72V28C471.72 29.056 471.533 29.9093 471.16 30.56C470.786 31.2107 470.178 31.7387 469.336 32.144L468.792 31.024ZM483.457 28H481.121C480.865 28.7787 480.449 29.5573 479.873 30.336C479.307 31.1253 478.678 31.7707 477.985 32.272L477.185 31.28C477.729 30.8533 478.23 30.3467 478.689 29.76C479.147 29.1733 479.505 28.5867 479.761 28H476.993C476.363 28 475.883 27.8933 475.553 27.68C475.233 27.456 475.003 27.072 474.865 26.528C474.737 25.984 474.673 25.1947 474.673 24.16C474.673 23.0933 474.763 22.2933 474.945 21.76C475.137 21.2267 475.467 20.8533 475.937 20.64C476.406 20.4267 477.105 20.32 478.033 20.32C478.715 20.32 479.307 20.3573 479.809 20.432C480.31 20.5067 480.833 20.6347 481.377 20.816V26.56H483.457V28ZM479.361 26.56C479.638 26.56 479.83 26.5067 479.937 26.4C480.043 26.2827 480.097 26.0693 480.097 25.76V21.76H476.769C476.481 21.76 476.283 21.8187 476.177 21.936C476.081 22.0533 476.033 22.288 476.033 22.64V26.56H479.361ZM492.069 20.32C492.698 20.32 493.189 20.3787 493.541 20.496C493.893 20.6133 494.143 20.8107 494.293 21.088C494.453 21.3653 494.533 21.7493 494.533 22.24V28H482.821V26.56H485.381V20.48H486.661V23.424C487.023 22.432 487.674 21.6693 488.613 21.136C489.551 20.592 490.703 20.32 492.069 20.32ZM493.253 26.56V21.936C492.879 21.8187 492.287 21.76 491.477 21.76C489.93 21.76 488.762 22.1547 487.973 22.944C487.194 23.7333 486.762 24.9387 486.677 26.56H493.253ZM514.479 26.56V28H512.559V29.6C512.559 30.5387 512.372 31.2 511.999 31.584C511.636 31.968 510.996 32.16 510.079 32.16H503.247C502.692 32.16 502.25 32.032 501.919 31.776C501.599 31.5307 501.364 31.1307 501.215 30.576C501.076 30.0213 501.007 29.264 501.007 28.304C501.007 27.728 501.044 27.1253 501.119 26.496C501.204 25.8667 501.316 25.3333 501.455 24.896L502.671 25.104C502.415 26.1707 502.287 27.152 502.287 28.048C502.287 29.1573 502.372 30.048 502.543 30.72H511.279V28H508.175C507.546 28 507.066 27.8933 506.735 27.68C506.415 27.456 506.186 27.072 506.047 26.528C505.919 25.984 505.855 25.1947 505.855 24.16C505.855 23.0933 505.946 22.2933 506.127 21.76C506.319 21.2267 506.65 20.8533 507.119 20.64C507.588 20.4267 508.287 20.32 509.215 20.32C509.898 20.32 510.49 20.3573 510.991 20.432C511.492 20.5067 512.015 20.6347 512.559 20.816V26.56H514.479ZM510.543 26.56C510.82 26.56 511.012 26.5067 511.119 26.4C511.226 26.2827 511.279 26.0693 511.279 25.76V21.76H507.951C507.663 21.76 507.466 21.8187 507.359 21.936C507.263 22.0533 507.215 22.288 507.215 22.64V26.56H510.543ZM508.095 18.56C507.935 18.5707 507.748 18.4693 507.535 18.256C507.322 18.0427 507.215 17.8507 507.215 17.68C507.215 17.5093 507.316 17.3227 507.519 17.12C507.732 16.9173 507.924 16.8107 508.095 16.8C508.266 16.8107 508.452 16.9173 508.655 17.12C508.868 17.3227 508.975 17.5093 508.975 17.68C508.975 17.84 508.868 18.032 508.655 18.256C508.442 18.4693 508.255 18.5707 508.095 18.56ZM510.399 18.56C510.239 18.5707 510.052 18.4693 509.839 18.256C509.626 18.0427 509.519 17.8507 509.519 17.68C509.519 17.5093 509.62 17.3227 509.823 17.12C510.036 16.9173 510.228 16.8107 510.399 16.8C510.57 16.8107 510.756 16.9173 510.959 17.12C511.172 17.3227 511.279 17.5093 511.279 17.68C511.279 17.84 511.172 18.032 510.959 18.256C510.746 18.4693 510.559 18.5707 510.399 18.56ZM516.396 26.56C516.29 25.9947 516.236 25.088 516.236 23.84C516.236 22.8907 516.327 22.1707 516.508 21.68C516.7 21.1787 517.031 20.8267 517.5 20.624C517.97 20.4213 518.668 20.32 519.596 20.32C520.183 20.32 520.727 20.3573 521.228 20.432C521.73 20.5067 522.3 20.6347 522.94 20.816V28H513.836V26.56H516.396ZM520.924 26.56C521.202 26.56 521.394 26.5067 521.5 26.4C521.607 26.2827 521.66 26.0693 521.66 25.76V21.792H518.332C518.044 21.792 517.847 21.8507 517.74 21.968C517.644 22.0853 517.596 22.32 517.596 22.672V26.56H520.924ZM519.596 18.56C519.436 18.5707 519.25 18.4693 519.036 18.256C518.823 18.0427 518.716 17.8507 518.716 17.68C518.716 17.5093 518.818 17.3227 519.02 17.12C519.234 16.9173 519.426 16.8107 519.596 16.8C519.767 16.8107 519.954 16.9173 520.156 17.12C520.37 17.3227 520.476 17.5093 520.476 17.68C520.476 17.84 520.37 18.032 520.156 18.256C519.943 18.4693 519.756 18.5707 519.596 18.56ZM524.995 31.024C525.614 30.7253 526.04 30.352 526.275 29.904C526.52 29.4667 526.643 28.832 526.643 28V20.48H527.923V28C527.923 29.056 527.736 29.9093 527.363 30.56C526.99 31.2107 526.382 31.7387 525.539 32.144L524.995 31.024ZM531.116 20.48H532.396V28H531.116V20.48ZM533.58 17.04V17.776L529.932 18.752V18.016L530.636 17.824C530.508 17.5467 530.444 17.152 530.444 16.64C530.444 15.808 530.678 15.2267 531.148 14.896C531.617 14.5653 532.3 14.4 533.196 14.4V15.296C532.886 15.296 532.577 15.328 532.268 15.392C531.958 15.456 531.697 15.552 531.484 15.68L531.468 17.088C531.468 17.2267 531.494 17.328 531.548 17.392C531.601 17.4453 531.686 17.472 531.804 17.472C531.932 17.472 532.065 17.4507 532.204 17.408L533.58 17.04Z" fill="#767676"/>
<path d="M556.33 33.3394C555.24 33.3394 554.15 32.9294 553.32 32.0994C551.66 30.4394 551.66 27.7494 553.32 26.0894L555.8 23.6194C556.09 23.3294 556.57 23.3294 556.86 23.6194C557.15 23.9094 557.15 24.3894 556.86 24.6794L554.38 27.1494C553.31 28.2194 553.31 29.9694 554.38 31.0394C555.45 32.1094 557.2 32.1094 558.27 31.0394L562.16 27.1494C563.34 25.9694 563.99 24.3994 563.99 22.7294C563.99 21.0594 563.34 19.4894 562.16 18.3094C559.72 15.8694 555.76 15.8694 553.32 18.3094L549.08 22.5494C548.09 23.5394 547.54 24.8594 547.54 26.2594C547.54 27.6594 548.09 28.9794 549.08 29.9694C549.37 30.2594 549.37 30.7394 549.08 31.0294C548.79 31.3194 548.31 31.3194 548.02 31.0294C546.75 29.7494 546.04 28.0594 546.04 26.2594C546.04 24.4594 546.74 22.7594 548.02 21.4894L552.26 17.2494C555.28 14.2294 560.2 14.2294 563.22 17.2494C564.68 18.7094 565.49 20.6594 565.49 22.7294C565.49 24.7994 564.68 26.7494 563.22 28.2094L559.33 32.0994C558.5 32.9294 557.42 33.3394 556.33 33.3394Z" fill="#767676"/>
</g>
<defs>
<clipPath id="clip0_1881_32304">
<rect width="898" height="48" fill="white"/>
</clipPath>
</defs>
</svg>
