<svg width="466" height="342" viewBox="0 0 466 342" fill="none" xmlns="http://www.w3.org/2000/svg">
<path d="M262.073 55.7138C261.64 55.7138 261.64 50.0126 259.908 42.9956C258.609 38.61 258.176 35.9787 255.577 33.7859C252.112 30.2774 247.781 29.8389 246.049 29.8389C247.781 29.4003 249.947 28.0846 252.112 25.8918C255.144 22.8219 256.01 18.8749 256.876 14.9279C257.309 12.2965 258.176 8.34947 257.742 3.52532C257.742 2.6482 258.176 15.3664 265.105 21.5062C268.57 24.5761 272.468 25.4533 275.066 25.4533C272.901 26.3304 268.57 28.0846 265.971 31.5931C264.672 33.3473 264.239 35.1016 263.373 39.4871C262.94 49.1354 262.507 55.7138 262.073 55.7138Z" fill="white"/>
<path d="M294.662 36.7629C294.662 36.7629 294.662 32.6629 292.905 27.9771C292.319 25.0486 291.733 23.2914 289.976 21.5343C287.633 19.1914 284.705 18.6057 283.533 18.6057C284.705 18.02 286.462 17.4343 287.633 15.6771C289.976 13.3343 290.562 10.9914 291.148 8.06285C291.733 6.3057 291.733 3.96284 291.733 0.448554C291.733 -0.13716 292.319 8.64856 297.005 12.7486C299.348 14.5057 302.276 15.0914 303.448 15.6771C301.69 16.2628 299.348 17.4343 297.59 19.7771C297.005 20.9486 296.419 22.12 295.833 25.0486C295.247 32.0771 295.248 36.7629 294.662 36.7629Z" fill="white"/>
<path d="M357.332 133.405C357.332 133.405 357.332 129.305 355.575 124.62C354.989 121.691 354.403 119.934 352.646 118.177C350.303 115.834 347.375 115.248 346.203 115.248C347.375 114.663 349.132 114.077 350.303 112.32C352.646 109.977 353.232 107.634 353.817 104.705C354.403 102.948 354.403 100.605 354.403 97.0911C354.403 96.5054 354.989 105.291 359.675 109.391C362.017 111.148 364.946 111.734 366.117 112.32C364.36 112.905 362.017 114.077 360.26 116.42C359.675 117.591 359.089 118.763 358.503 121.691C357.917 128.72 357.917 133.405 357.332 133.405Z" fill="white"/>
<mask id="mask0_263_17820" style="mask-type:alpha" maskUnits="userSpaceOnUse" x="294" y="31" width="144" height="89">
<path d="M358.919 115.497C336.198 126.01 309.257 116.113 298.744 93.3919C288.231 70.6707 298.128 43.7293 320.849 33.2166C343.571 22.7039 426.101 72.3178 436.614 95.039C447.126 117.76 381.641 104.985 358.919 115.497Z" fill="#FFCB3C"/>
</mask>
<g mask="url(#mask0_263_17820)">
<path fill-rule="evenodd" clip-rule="evenodd" d="M342.306 66.5349C342.068 63.4248 340.833 60.3402 338.345 57.4418C329.848 47.5447 319.44 46.5738 309.388 50.2953C295.262 55.5289 281.914 70.3679 276.689 80.6648C276.079 81.8681 276.575 83.4369 277.795 84.1696C279.015 84.899 280.501 84.5182 281.111 83.3148C285.956 73.7675 298.293 59.9641 311.392 55.1128C319.494 52.11 327.917 52.6631 334.767 60.6398C336.248 62.3652 337.034 64.1856 337.281 66.0283C336.052 65.9403 334.832 65.8767 333.624 65.8392C328.791 65.6931 316.539 67.712 309.039 72.3287C303.105 75.9829 300.105 81.2135 303.459 87.7606C305.378 91.5096 308.862 93.3565 313.173 93.4772C318.489 93.6254 325.235 90.9685 330.871 86.6949C335.559 83.1434 339.461 78.4975 341.243 73.6228C341.493 72.9398 341.703 72.2518 341.872 71.5619C365.44 74.4816 391.968 86.8706 409.029 104.117C410.042 105.141 411.604 105.189 412.518 104.225C413.431 103.262 413.347 101.647 412.334 100.623C394.539 82.6338 366.916 69.6711 342.306 66.5349ZM336.738 71.0725C335.783 71.0111 334.833 70.9648 333.892 70.9375C329.554 70.8057 318.558 72.6204 311.825 76.7643C308.262 78.9579 305.777 81.7523 307.789 85.683C308.776 87.6112 310.68 88.3196 312.896 88.3804C315.834 88.4628 319.268 87.4303 322.627 85.7163C327.836 83.0536 332.854 78.7204 335.525 73.833C336.019 72.9303 336.43 72.0069 336.738 71.0725Z" fill="white"/>
<path fill-rule="evenodd" clip-rule="evenodd" d="M373.819 98.2513C384.738 95.6285 398.804 97.9318 409.845 102.22C411.159 102.729 412.539 102.075 412.927 100.755C413.314 99.4372 412.562 97.951 411.249 97.4415C399.316 92.8092 384.12 90.4206 372.323 93.2562C371.017 93.5705 370.293 94.9443 370.707 96.3227C371.12 97.7011 372.513 98.5656 373.819 98.2513Z" fill="white"/>
<path fill-rule="evenodd" clip-rule="evenodd" d="M411.874 96.9576C404.319 91.2353 398.328 79.9305 396.364 70.6046C396.077 69.2508 394.804 68.3125 393.522 68.5089C392.24 68.7052 391.43 69.9612 391.714 71.3159C393.926 81.7996 400.77 94.452 409.264 100.886C410.362 101.719 411.84 101.514 412.559 100.429C413.278 99.345 412.971 97.7898 411.874 96.9576Z" fill="white"/>
</g>
<g clip-path="url(#clip0_263_17820)">
<path opacity="0.1" d="M14.3747 193.907C32.1451 161.327 68.1229 136.456 77.0809 132.456C135.053 106.494 188.292 57.1152 247.138 36.0255C305.984 14.9358 373.279 24.9716 437.66 109.621C472.181 155.073 474.657 200.453 447.856 228.306C347.788 332.518 229.003 366.552 103.591 322.627C78.8288 313.973 53.7027 302.192 28.5036 278.703C-2.37606 250.05 0.391455 219.651 14.3747 193.907Z" fill="white"/>
<path opacity="0.1" d="M16.0436 160.688C38.621 131.239 77.9494 112.115 87.4174 109.498C148.668 92.6281 208.826 51.9081 270.222 40.0557C331.618 28.2033 396.582 48.2724 447.345 141.71C474.584 191.883 470.068 237.111 439.334 260.525C324.408 348.291 201.834 363.924 84.577 301.463C61.417 289.102 38.3297 273.686 17.0632 246.637C-9.08287 213.624 -1.72701 183.957 16.0436 160.688L16.0436 160.688Z" fill="white"/>
<path d="M255.021 189.014L250.863 168.007L248.602 156.482C246.632 140.726 244.444 112.716 245.83 96.9605C248.237 69.8987 222.707 49.11 196.958 50.3501C170.845 51.663 159.101 70.774 153.411 94.3345C144.439 131.754 164.718 160.348 151.369 187.847C150.931 188.795 151.588 189.962 152.682 189.962C160.925 190.181 188.643 189.817 188.643 189.817L188.643 136.714C188.643 136.714 192.363 142.477 198.417 149.479L189.81 199.372L255.021 189.014Z" fill="#414042"/>
<path d="M209.33 159.69L248.427 176.977C257.253 180.843 263.891 188.648 266.517 198.131L303.499 331.178L113.119 331.178C99.1135 331.178 88.0992 318.778 89.4851 304.408L99.5512 201.048C100.718 188.867 108.45 178.436 119.465 173.841L156.301 158.741L209.33 159.69Z" fill="url(#paint0_linear_263_17820)"/>
<path d="M204.88 331.177L204.88 300.687L145.943 294.633L154.623 244.521L151.851 179.383L131.281 168.15C131.281 168.15 105.24 167.202 99.6239 201.047C98.3839 218.262 89.5578 304.407 89.5578 304.407C89.5578 304.407 87.2966 329.718 113.191 331.177C112.535 332.125 197.586 331.177 197.586 331.177L204.88 331.177Z" fill="url(#paint1_linear_263_17820)"/>
<path d="M167.08 112.932C167.08 112.932 184.149 108.775 192.464 79.7434C191.516 82.0776 168.466 79.3058 167.08 112.932Z" fill="#064A6F"/>
<path d="M214.467 143.585L208.923 178.598C208.923 178.598 187.697 199.824 178.506 174.878C175.734 155.548 183.758 134.322 183.758 134.322L214.467 143.585Z" fill="#FCD2B1"/>
<path d="M214.462 143.862C214.462 143.862 215.629 160.493 186.233 154.074C179.887 144.737 183.097 126.501 183.097 126.501L214.462 143.862Z" fill="#EFBD9C"/>
<path d="M174.409 109.474C174.409 109.474 173.898 141.131 198.407 145.727C206.066 147.769 232.617 149.301 235.17 113.048C235.681 82.4123 235.17 88.0289 235.17 88.0289C235.17 88.0289 222.635 76.5224 214.922 82.3183C207.208 88.1143 180.026 88.0289 180.026 88.0289L174.409 109.474Z" fill="#FCD2B1"/>
<path d="M204.665 305.137C204.665 305.137 223.995 308.93 221.223 324.03C210.647 324.54 203.061 324.321 203.061 324.321L204.665 305.137Z" fill="#FCD2B1"/>
<circle cx="204.821" cy="247.486" r="3.42831" fill="#414042"/>
<circle cx="205.04" cy="284.129" r="3.42831" fill="#414042"/>
<path d="M204.734 305.137L145.65 290.111L153.091 253.639L158.269 253.274L149.954 287.849L204.953 304.407L204.734 305.137Z" fill="#0B8D88"/>
<path d="M166.964 73.0831C152.302 86.2128 152.156 104.959 151.5 123.195C151.135 132.24 150.697 141.722 147.196 150.184C143.33 159.593 135.452 166.523 130.127 175.057C125.24 182.935 124.438 195.262 132.535 199.858C136.473 202.119 141.507 201.827 145.373 204.161C150.114 207.006 151.937 213.206 151.719 218.75C151.5 224.293 149.676 229.691 148.874 235.162C147.488 245.228 151.354 257.555 161.201 259.962C167.766 261.567 174.404 258.285 180.312 255.148C187.46 251.282 194.609 247.489 201.101 242.675C206.571 238.663 211.605 233.849 214.449 227.649C219.701 216.051 215.762 202.411 209.708 191.177C203.654 180.017 195.557 169.805 191.764 157.697C185.564 138.148 191.545 117.068 193.515 96.6436C194.244 88.6199 194.244 79.8668 189.576 73.229C179.947 59.4428 157.919 69.6548 160.763 85.7752" fill="#414042"/>
<path d="M31.7516 228.354L27.6668 228.354L27.6668 224.27L25.9891 224.27L25.9891 228.354L21.9043 228.354L21.9043 230.032L25.9891 230.032L25.9891 234.117L27.6668 234.117L27.6668 230.032L31.7516 230.032L31.7516 228.354Z" fill="white"/>
<path d="M338.164 211.123C338.896 211.489 339.193 212.379 338.827 213.111C338.683 213.398 338.45 213.631 338.164 213.773L331.107 217.301C330.375 217.667 329.484 217.37 329.118 216.638C329.016 216.433 328.963 216.206 328.963 215.976L328.963 208.918C328.963 208.101 329.627 207.438 330.444 207.438C330.674 207.438 330.901 207.492 331.107 207.594L338.164 211.123Z" fill="white"/>
<g clip-path="url(#clip1_263_17820)">
<path fill-rule="evenodd" clip-rule="evenodd" d="M333.157 228.807C324.172 228.807 316.861 221.497 316.861 212.512C316.861 203.525 324.172 196.214 333.157 196.214C342.142 196.214 349.454 203.525 349.454 212.512C349.454 221.497 342.142 228.807 333.157 228.807ZM333.157 198.819C325.606 198.819 319.466 204.961 319.466 212.512C319.466 220.06 325.606 226.201 333.157 226.201C340.707 226.201 346.847 220.06 346.847 212.512C346.847 204.961 340.707 198.819 333.157 198.819Z" fill="white"/>
</g>
<path d="M366.428 222.128L254.461 222.128C246.875 222.128 240.529 227.818 239.653 235.331L229.514 323.373L192.824 323.373C190.855 323.373 189.25 324.978 189.25 326.947C189.25 328.917 190.855 330.521 192.824 330.521L228.712 330.521L235.131 330.521L370.659 330.521L381.162 238.832C382.183 229.86 375.327 222.128 366.428 222.128Z" fill="#FFBC00"/>
<circle cx="306.049" cy="280.92" r="13.8591" fill="#F7F7F7"/>
<g clip-path="url(#clip2_263_17820)">
<path fill-rule="evenodd" clip-rule="evenodd" d="M317.876 158.458C318.201 158.917 318.711 159.242 319.27 159.343C320.463 159.526 321.582 158.738 321.813 157.541L324.48 142.415C324.643 141.539 324.263 140.671 323.511 140.2L323.506 140.198C322.75 139.708 321.775 139.716 321.026 140.218L315.393 144.161L315.577 143.12C316.305 138.99 313.595 135.118 309.548 134.404L293.894 131.644C289.849 130.931 285.976 133.643 285.263 137.687L283.349 148.541C282.636 152.588 285.348 156.459 289.392 157.172L305.102 159.942C309.147 160.655 313.02 157.945 313.733 153.899L313.918 152.849L314.539 153.638L317.876 158.458ZM311.401 154.003L311.345 153.985C310.636 156.523 308.093 158.164 305.446 157.699L289.786 154.938C286.971 154.44 285.084 151.745 285.579 148.929L287.492 138.08C287.988 135.263 290.684 133.374 293.501 133.869L309.211 136.639C312.02 137.145 313.9 139.841 313.403 142.649L311.401 154.003ZM314.486 149.57L314.876 147.354L322.233 142.159L319.621 156.97L314.486 149.57Z" fill="white"/>
<path d="M305.12 145.827C305.897 146.404 306.06 147.503 305.483 148.28C305.258 148.584 304.94 148.807 304.575 148.916L295.626 151.576C294.698 151.852 293.721 151.324 293.446 150.394C293.368 150.135 293.353 149.86 293.4 149.592L294.85 141.368C295.018 140.415 295.928 139.778 296.882 139.948C297.15 139.995 297.401 140.104 297.62 140.265L305.12 145.827Z" fill="white"/>
</g>
<g clip-path="url(#clip3_263_17820)">
<path d="M109.262 111.267C114.307 124.208 110.316 145.01 97.3754 150.055C84.4353 155.099 67.4179 142.486 62.3735 129.546C57.3292 116.606 63.7008 102.021 76.6788 96.9622C89.6571 91.903 104.218 98.3274 109.262 111.267Z" fill="#FFBC00"/>
<path fill-rule="evenodd" clip-rule="evenodd" d="M102.238 160.391C99.8405 161.326 96.9422 160.527 93.6723 157.987C91.3444 156.176 89.6357 148.644 87.8399 140.663C87.3726 138.565 86.8825 136.52 86.4664 134.666C82.7592 130.105 81.8192 126.569 82.1568 125.297C82.2747 124.813 82.6108 124.55 83.0126 124.569C83.8315 124.645 84.7757 125.943 85.6807 128.264C86.2742 129.787 86.8406 131.802 87.4199 134.075C87.6825 134.411 87.983 134.732 88.2983 135.092C91.0927 138.211 92.1514 136.878 92.4893 136.395C93.3408 135.318 93.6944 133.076 93.6777 130.671C91.5335 126.07 90.5556 122.55 90.7026 121.352C90.7614 120.716 91.089 120.544 91.2414 120.485C91.7891 120.315 92.3372 120.934 92.5023 121.133C93.8997 122.693 94.7892 126.774 94.8092 130.537C97.3412 135.907 101.587 142.976 107.885 149.684L108.171 149.968L108.099 150.346C108.051 150.672 106.959 158.332 102.308 160.233C102.314 160.362 102.276 160.376 102.238 160.391L102.238 160.391ZM87.9378 136.416C88.237 137.746 88.5513 139.114 88.8802 140.521C90.4723 147.528 92.2382 155.433 94.1221 156.891C97.1209 159.186 99.6933 159.937 101.772 159.082C105.358 157.597 106.614 151.934 106.9 150.419C101.392 144.499 97.3513 138.183 94.6819 132.91C94.5059 134.82 94.0589 136.485 93.2918 137.442C92.6158 138.407 90.9373 139.499 87.9378 136.416L87.9378 136.416ZM83.1746 125.997C83.1011 126.595 83.5449 128.746 85.6944 131.898C85.3487 130.673 85.0091 129.578 84.6679 128.703C83.9706 126.914 83.3928 126.219 83.1746 125.997ZM91.7885 122.113C91.8568 122.963 92.3701 124.955 93.4764 127.68C93.2249 125.236 92.6223 123.015 91.7885 122.113Z" fill="white"/>
<path d="M102.761 163.871C98.0413 165.71 92.7266 163.661 90.5212 159.128L86.2207 150.458L88.9744 150.436C94.6111 150.387 100.001 148.243 104.116 144.402L105.821 142.817L108.523 152.11C109.967 156.94 107.442 162.046 102.761 163.871L102.761 163.871Z" fill="#414042"/>
</g>
<path d="M296.938 285.813C296.901 285.813 296.863 285.831 296.863 285.884L296.807 286.009H297.127L297.089 286.115H296.769L296.712 286.276C296.694 286.329 296.712 286.329 296.75 286.329H297.051V286.436C296.957 286.436 296.825 286.436 296.731 286.436C296.6 286.436 296.562 286.365 296.581 286.276L296.712 285.831C296.731 285.742 296.807 285.688 296.92 285.688C297.032 285.688 297.164 285.688 297.258 285.706L297.24 285.813H296.938Z" fill="#414042"/>
<path d="M298.048 286.044L297.916 286.436H297.785L297.898 286.08C297.916 286.026 297.916 286.009 297.86 286.009C297.803 286.009 297.728 286.044 297.634 286.115L297.54 286.454H297.408L297.578 285.92H297.691L297.672 286.026C297.785 285.937 297.86 285.902 297.954 285.902C298.029 285.902 298.067 285.955 298.048 286.044Z" fill="#414042"/>
<path d="M298.539 286.276C298.52 286.329 298.539 286.329 298.576 286.329H298.652L298.633 286.418C298.595 286.436 298.52 286.436 298.482 286.436C298.388 286.436 298.332 286.382 298.369 286.276L298.463 285.991H298.369L298.388 285.902H298.501L298.557 285.741H298.689L298.633 285.902H298.802L298.783 286.008H298.614L298.539 286.276Z" fill="#414042"/>
<path d="M299.48 286.026H299.442C299.386 286.026 299.329 286.062 299.216 286.115L299.122 286.436H298.99L299.16 285.902H299.273L299.254 286.009C299.348 285.92 299.442 285.884 299.517 285.884H299.555L299.48 286.026Z" fill="#414042"/>
<path d="M300.288 286.08C300.251 286.187 300.176 286.222 300.044 286.24L299.856 286.258C299.837 286.347 299.893 286.365 299.968 286.365C300.025 286.365 300.119 286.365 300.175 286.347V286.436C300.1 286.454 300.006 286.471 299.931 286.471C299.724 286.471 299.667 286.382 299.724 286.187C299.78 285.973 299.874 285.919 300.081 285.919C300.288 285.902 300.307 285.973 300.288 286.08ZM300.063 286.008C299.968 286.008 299.931 286.044 299.893 286.169L300.063 286.151C300.119 286.151 300.157 286.133 300.175 286.08C300.157 286.008 300.138 286.008 300.063 286.008Z" fill="#414042"/>
<path d="M301.135 286.187C301.06 286.436 300.966 286.454 300.834 286.454C300.778 286.454 300.721 286.454 300.665 286.436C300.665 286.472 300.646 286.507 300.646 286.543L300.608 286.65H300.477L300.702 285.902H300.815L300.797 286.009C300.872 285.955 300.966 285.884 301.06 285.884C301.154 285.902 301.211 285.955 301.135 286.187ZM300.966 286.009C300.928 286.009 300.834 286.044 300.759 286.115L300.684 286.365H300.778C300.909 286.365 300.928 286.347 300.985 286.187C301.041 286.026 301.022 286.009 300.966 286.009Z" fill="#414042"/>
<path d="M301.907 286.026H301.87C301.813 286.026 301.757 286.062 301.644 286.115L301.55 286.454H301.418L301.587 285.92H301.7L301.681 286.026C301.776 285.937 301.87 285.902 301.945 285.902H301.983L301.907 286.026Z" fill="#414042"/>
<path d="M302.718 286.08C302.68 286.187 302.605 286.222 302.473 286.24L302.285 286.258C302.266 286.347 302.323 286.365 302.398 286.365C302.455 286.365 302.549 286.365 302.605 286.347V286.436C302.53 286.454 302.436 286.471 302.36 286.471C302.153 286.471 302.097 286.382 302.153 286.187C302.21 285.973 302.304 285.919 302.511 285.919C302.718 285.902 302.756 285.973 302.718 286.08ZM302.492 286.008C302.398 286.008 302.36 286.044 302.323 286.169L302.492 286.151C302.549 286.151 302.586 286.133 302.605 286.08C302.605 286.008 302.568 286.008 302.492 286.008Z" fill="#414042"/>
<path d="M303.603 286.044L303.471 286.436H303.339L303.452 286.08C303.471 286.026 303.471 286.009 303.415 286.009C303.358 286.009 303.283 286.044 303.189 286.115L303.095 286.454H302.963L303.132 285.92H303.245L303.226 286.026C303.339 285.937 303.415 285.902 303.509 285.902C303.584 285.902 303.641 285.955 303.603 286.044Z" fill="#414042"/>
<path d="M304.468 286.08C304.43 286.187 304.355 286.222 304.223 286.24L304.035 286.258C304.016 286.347 304.073 286.365 304.148 286.365C304.205 286.365 304.299 286.365 304.355 286.347V286.436C304.28 286.454 304.186 286.471 304.11 286.471C303.903 286.471 303.847 286.382 303.903 286.187C303.96 285.973 304.054 285.919 304.261 285.919C304.468 285.902 304.506 285.973 304.468 286.08ZM304.242 286.008C304.148 286.008 304.11 286.044 304.073 286.169L304.242 286.151C304.299 286.151 304.336 286.133 304.355 286.08C304.355 286.008 304.318 286.008 304.242 286.008Z" fill="#414042"/>
<path d="M305.221 286.436H305.108L305.127 286.329C305.033 286.4 304.939 286.454 304.863 286.454C304.75 286.454 304.713 286.4 304.75 286.311L304.863 285.92H304.995L304.882 286.276C304.863 286.329 304.882 286.347 304.92 286.347C304.976 286.347 305.033 286.311 305.127 286.24L305.221 285.902H305.353L305.221 286.436Z" fill="#414042"/>
<path d="M306.087 286.026H306.049C305.993 286.026 305.936 286.062 305.824 286.115L305.729 286.454H305.598L305.767 285.92H305.88L305.861 286.026C305.955 285.937 306.049 285.902 306.125 285.902H306.162L306.087 286.026Z" fill="#414042"/>
<path d="M306.293 286.436L306.462 285.902H306.594L306.425 286.436H306.293ZM306.632 285.688C306.651 285.688 306.669 285.706 306.669 285.724L306.651 285.777C306.651 285.795 306.632 285.813 306.594 285.813H306.538C306.519 285.813 306.5 285.795 306.5 285.777L306.519 285.724C306.519 285.706 306.538 285.688 306.575 285.688H306.632Z" fill="#414042"/>
<path d="M307.498 285.937L307.348 286.454H307.216L307.235 286.365C307.178 286.418 307.084 286.471 306.99 286.471C306.858 286.471 306.821 286.4 306.877 286.187C306.952 285.937 307.065 285.919 307.216 285.919C307.291 285.902 307.423 285.919 307.498 285.937ZM307.253 286.24L307.329 286.008H307.235C307.103 286.008 307.084 286.026 307.028 286.187C306.99 286.329 306.99 286.365 307.046 286.365C307.122 286.347 307.178 286.311 307.253 286.24Z" fill="#414042"/>
<path d="M307.894 286.276C307.875 286.311 307.894 286.329 307.931 286.329H307.988L307.969 286.436C307.95 286.454 307.875 286.454 307.856 286.454C307.762 286.454 307.724 286.4 307.743 286.311L307.931 285.688H308.063L307.894 286.276Z" fill="#414042"/>
<path d="M309.588 286.4C309.569 286.418 309.55 286.436 309.531 286.436H309.381C309.362 286.436 309.343 286.418 309.343 286.4L309.399 285.884C309.399 285.848 309.399 285.831 309.418 285.795H309.399C309.381 285.831 309.381 285.848 309.362 285.884L309.098 286.4C309.079 286.418 309.061 286.436 309.042 286.436H308.891C308.872 286.436 308.854 286.418 308.854 286.4L308.929 285.688H309.079L309.004 286.24C309.004 286.276 309.004 286.311 308.985 286.347H309.004C309.023 286.311 309.042 286.276 309.061 286.24L309.305 285.742C309.324 285.724 309.343 285.706 309.362 285.706H309.493C309.512 285.706 309.531 285.724 309.531 285.759L309.475 286.24C309.475 286.276 309.475 286.311 309.456 286.347H309.475C309.494 286.311 309.512 286.276 309.512 286.24L309.776 285.706H309.926L309.588 286.4Z" fill="#414042"/>
<path d="M310.642 286.187C310.585 286.383 310.491 286.454 310.284 286.454C310.096 286.454 310.02 286.383 310.077 286.169C310.133 285.973 310.228 285.902 310.435 285.902C310.642 285.902 310.717 285.973 310.642 286.187ZM310.246 286.187C310.209 286.311 310.228 286.347 310.322 286.347C310.435 286.347 310.472 286.311 310.51 286.169C310.548 286.026 310.529 285.991 310.435 285.991C310.322 286.009 310.284 286.044 310.246 286.187Z" fill="#414042"/>
<path d="M311.883 286.044L311.77 286.436H311.639L311.752 286.08C311.77 286.026 311.752 286.009 311.714 286.009C311.676 286.009 311.62 286.026 311.526 286.115L311.432 286.454H311.3L311.413 286.098C311.432 286.044 311.432 286.026 311.375 286.026C311.319 286.026 311.281 286.044 311.187 286.133L311.093 286.472H310.961L311.13 285.937H311.243L311.224 286.044C311.319 285.955 311.394 285.92 311.469 285.92C311.544 285.92 311.601 285.955 311.582 286.026C311.676 285.955 311.752 285.92 311.827 285.92C311.883 285.902 311.921 285.955 311.883 286.044Z" fill="#414042"/>
<path d="M312.749 286.08C312.712 286.187 312.636 286.222 312.505 286.24L312.316 286.258C312.298 286.347 312.354 286.365 312.429 286.365C312.486 286.365 312.58 286.365 312.636 286.347V286.436C312.561 286.454 312.467 286.471 312.392 286.471C312.185 286.471 312.128 286.382 312.185 286.187C312.241 285.973 312.335 285.919 312.542 285.919C312.749 285.902 312.787 285.973 312.749 286.08ZM312.523 286.008C312.429 286.008 312.392 286.044 312.354 286.169L312.523 286.151C312.58 286.151 312.618 286.133 312.636 286.08C312.636 286.008 312.618 286.008 312.523 286.008Z" fill="#414042"/>
<path d="M313.634 286.044L313.502 286.436H313.371L313.484 286.08C313.502 286.026 313.502 286.009 313.446 286.009C313.389 286.009 313.314 286.044 313.22 286.115L313.126 286.454H312.994L313.164 285.92H313.276L313.258 286.026C313.371 285.937 313.446 285.902 313.54 285.902C313.615 285.902 313.672 285.955 313.634 286.044Z" fill="#414042"/>
<path d="M296.645 276.663C297.126 277.197 297.784 277.019 298.425 276.93C299.262 276.806 299.938 277.607 299.654 278.408L299.351 279.28C298.639 278.176 297.375 279.155 296.449 278.799C296.093 278.657 295.915 278.265 296.04 277.909C296.164 277.518 296.342 277.001 296.431 276.699C296.467 276.61 296.574 276.592 296.645 276.663Z" fill="#2CB7B3"/>
<path d="M304.194 283.855C304.176 283.838 304.14 283.838 304.122 283.855L303.766 284.211L303.41 283.855C303.392 283.838 303.357 283.838 303.339 283.855L302.912 284.283C302.894 284.3 302.894 284.336 302.912 284.354L303.339 284.781C303.357 284.799 303.392 284.799 303.41 284.781L303.766 284.425L304.122 284.781C304.14 284.799 304.176 284.799 304.194 284.781L304.621 284.354C304.639 284.336 304.639 284.3 304.621 284.283L304.194 283.855Z" fill="#414042"/>
<path d="M300.046 280.669C300.064 280.687 300.099 280.687 300.117 280.669L300.473 280.313L300.829 280.669C300.847 280.687 300.883 280.687 300.901 280.669L301.328 280.242C301.346 280.224 301.346 280.188 301.328 280.17L300.901 279.743C300.883 279.725 300.847 279.725 300.829 279.743L300.473 280.099L300.117 279.743C300.099 279.725 300.064 279.725 300.046 279.743L299.619 280.17C299.601 280.188 299.601 280.224 299.619 280.242L300.046 280.669Z" fill="#414042"/>
<path d="M310.566 283.856C310.548 283.838 310.513 283.838 310.495 283.856L310.174 284.176L309.836 283.838C309.818 283.82 309.783 283.82 309.765 283.838L309.338 284.265C309.32 284.283 309.32 284.318 309.338 284.336L309.765 284.764C309.783 284.781 309.818 284.781 309.836 284.764L310.174 284.425L310.513 284.764C310.53 284.781 310.566 284.781 310.584 284.764L311.011 284.336C311.029 284.318 311.029 284.283 311.011 284.265L310.566 283.856Z" fill="#414042"/>
<path d="M311.688 283.303C311.723 283.303 311.741 283.303 311.777 283.303C312.008 283.303 312.257 283.161 312.435 283.001C312.667 282.805 312.791 282.556 312.898 282.289C313.023 281.986 313.13 281.683 313.236 281.381C313.379 280.971 313.504 280.58 313.646 280.17C313.824 279.636 313.966 279.138 314.5 278.871C314.269 278.817 314.038 278.817 313.824 278.871C313.432 278.977 313.112 279.244 312.952 279.654C312.934 279.689 312.934 279.707 312.916 279.743C312.702 280.277 312.56 280.847 312.382 281.398C312.24 281.844 312.115 282.324 311.848 282.716C311.759 282.84 311.67 282.965 311.51 283.036C311.332 283.125 311.118 283.108 310.922 283.108C310.709 283.108 310.495 283.108 310.281 283.108C310.406 283.036 310.531 282.929 310.62 282.805C310.815 282.556 310.904 282.235 311.029 281.933C311.118 281.666 311.225 281.398 311.314 281.149C311.616 280.223 311.973 279.333 312.311 278.425C312.453 278.052 312.56 277.642 312.72 277.286C312.791 277.126 312.863 276.983 312.969 276.859C313.023 276.788 313.272 276.521 313.379 276.556C313.147 276.503 312.916 276.503 312.702 276.556C312.311 276.663 311.99 276.93 311.83 277.339C311.812 277.375 311.812 277.393 311.794 277.428C311.51 278.141 311.296 278.888 311.029 279.618C310.673 280.597 310.352 281.594 309.961 282.556C309.836 282.805 309.676 283.036 309.445 283.197L309.195 283.339H309.213H309.64H310.032H310.05C310.068 283.339 310.085 283.339 310.103 283.339C310.139 283.339 310.157 283.339 310.192 283.339C310.228 283.339 310.281 283.339 310.317 283.339C310.37 283.339 310.406 283.339 310.459 283.339C310.513 283.339 310.566 283.339 310.62 283.339C310.673 283.339 310.726 283.339 310.78 283.339C310.833 283.339 310.887 283.339 310.958 283.339C311.011 283.339 311.065 283.339 311.136 283.339C311.189 283.339 311.243 283.339 311.296 283.339C311.349 283.339 311.403 283.339 311.456 283.339C311.51 283.339 311.545 283.339 311.599 283.339C311.616 283.303 311.652 283.303 311.688 283.303Z" fill="#414042"/>
<path d="M306.774 281.399C306.916 280.989 306.88 281.096 307.023 280.687C307.201 280.152 307.343 279.654 307.877 279.387C307.646 279.334 307.414 279.334 307.201 279.387C306.809 279.494 306.489 279.761 306.329 280.17C306.311 280.206 306.311 280.224 306.293 280.259C306.079 280.793 306.097 280.865 305.919 281.416C305.777 281.861 305.652 282.342 305.385 282.734C305.296 282.858 305.207 282.983 305.047 283.054C304.869 283.143 304.655 283.125 304.459 283.125C304.246 283.125 304.032 283.125 303.818 283.125C303.943 283.054 304.068 282.947 304.157 282.823C304.352 282.574 304.441 282.253 304.566 281.951C304.655 281.683 304.762 281.416 304.851 281.167C305.154 280.241 305.705 278.835 306.044 277.927C306.186 277.553 306.293 277.144 306.453 276.788C306.507 276.628 306.596 276.467 306.702 276.343C306.756 276.271 307.005 276.004 307.112 276.04C306.88 275.987 306.649 275.987 306.435 276.04C306.044 276.147 305.723 276.414 305.563 276.823C305.545 276.859 305.545 276.877 305.527 276.912C305.243 277.624 304.833 278.871 304.566 279.601C304.21 280.58 303.89 281.577 303.498 282.538C303.373 282.787 303.213 283.019 302.982 283.179L302.732 283.321H302.75H303.177H303.569H303.587C303.605 283.321 303.623 283.321 303.64 283.321C303.676 283.321 303.694 283.321 303.729 283.321C303.765 283.321 303.818 283.321 303.854 283.321C303.907 283.321 303.943 283.321 303.996 283.321C304.05 283.321 304.103 283.321 304.157 283.321C304.21 283.321 304.263 283.321 304.317 283.321C304.37 283.321 304.424 283.321 304.495 283.321C304.548 283.321 304.602 283.321 304.673 283.321C304.726 283.321 304.78 283.321 304.833 283.321C304.887 283.321 304.94 283.321 304.993 283.321C305.047 283.321 305.082 283.321 305.136 283.321C305.171 283.321 305.207 283.321 305.243 283.321C305.278 283.321 305.296 283.321 305.332 283.321C305.563 283.321 305.812 283.179 305.99 283.019C306.222 282.823 306.346 282.574 306.453 282.307C306.56 282.004 306.667 281.701 306.774 281.399Z" fill="#414042"/>
<path d="M309.48 281.22C309.605 281.007 309.783 280.811 310.032 280.704C309.907 280.669 309.765 280.651 309.622 280.669C309.302 280.686 308.999 280.811 308.786 281.042C308.679 281.149 308.59 281.274 308.519 281.416C308.376 281.683 308.305 282.004 308.198 282.306C308.109 282.573 307.967 282.912 307.7 283.054C307.593 283.125 307.468 283.125 307.344 283.125C307.183 283.125 307.023 283.143 306.845 283.143C306.685 283.143 306.507 283.143 306.364 283.197C306.347 283.197 306.311 283.214 306.293 283.232C306.222 283.268 306.169 283.303 306.115 283.339C306.827 283.339 306.756 283.339 307.468 283.357C307.557 283.357 307.628 283.357 307.717 283.357C307.895 283.357 308.056 283.339 308.216 283.268C308.536 283.143 308.768 282.858 308.928 282.556C309.088 282.235 309.159 281.879 309.302 281.541C309.391 281.399 309.427 281.292 309.48 281.22Z" fill="#414042"/>
<path d="M314.893 280.615C314.732 280.989 314.626 281.381 314.483 281.772C314.465 281.826 314.448 281.879 314.43 281.95C314.394 282.057 314.358 282.164 314.323 282.271C314.269 282.431 314.198 282.573 314.127 282.734C314.038 282.93 313.931 283.108 313.807 283.286C313.682 283.446 313.522 283.588 313.362 283.713C313.148 283.855 312.916 283.98 312.667 284.051C312.543 284.087 312.4 284.122 312.258 284.14C312.151 284.158 312.026 284.158 311.92 284.176C311.866 284.176 311.795 284.176 311.742 284.176C311.688 284.176 311.635 284.176 311.599 284.211C311.51 284.265 311.51 284.389 311.546 284.478C312.258 284.478 312.774 284.461 313.433 284.176C314.679 283.659 315.142 282.538 315.533 281.363C315.569 281.256 315.605 281.167 315.64 281.06C315.8 280.562 315.996 280.081 316.53 279.832C315.818 279.618 315.16 279.956 314.893 280.615Z" fill="#414042"/>
<path d="M303.178 280.188C303.356 279.654 303.498 279.156 304.032 278.889C303.801 278.835 303.569 278.835 303.356 278.889C302.964 278.996 302.644 279.263 302.484 279.672C302.466 279.708 302.466 279.725 302.448 279.761C302.234 280.295 302.092 280.865 301.914 281.417C301.771 281.862 301.647 282.342 301.38 282.734C301.291 282.859 301.202 282.983 301.042 283.054C300.863 283.144 300.65 283.126 300.454 283.126C300.24 283.126 297.499 283.126 297.285 283.126C297.41 283.054 297.534 282.948 297.623 282.823C297.819 282.574 297.908 282.253 298.033 281.951C298.122 281.684 298.3 281.203 298.407 280.883C298.585 280.349 298.727 279.85 299.261 279.583C299.03 279.53 298.798 279.53 298.585 279.583C298.193 279.69 297.873 279.957 297.712 280.366C297.695 280.402 297.695 280.42 297.677 280.455C297.463 280.989 297.534 280.865 297.356 281.434C297.25 281.808 297.143 282.182 296.965 282.52L296.947 282.538C296.929 282.574 296.894 282.627 296.876 282.681C296.858 282.698 296.858 282.716 296.84 282.752C296.733 282.912 296.609 283.072 296.448 283.179L296.199 283.322H296.644H297.036H297.054H297.107H297.196H297.321H297.463H297.623H298.763C299.493 283.322 300.294 283.322 300.329 283.322C300.383 283.322 300.436 283.322 300.507 283.322C300.561 283.322 300.614 283.322 300.685 283.322C300.739 283.322 300.792 283.322 300.846 283.322C300.899 283.322 300.953 283.322 301.006 283.322C301.059 283.322 301.095 283.322 301.148 283.322C301.184 283.322 301.22 283.322 301.255 283.322C301.291 283.322 301.309 283.322 301.344 283.322C301.576 283.322 301.825 283.179 302.003 283.019C302.234 282.823 302.359 282.574 302.466 282.307C302.59 282.004 302.697 281.701 302.804 281.399C302.911 280.989 303.035 280.598 303.178 280.188Z" fill="#414042"/>
<path d="M297.268 277.536L297.25 277.625C297.179 277.625 297.108 277.625 297.037 277.625C296.948 277.625 296.912 277.625 296.877 277.714C296.859 277.785 296.877 277.785 296.93 277.803L297.055 277.856C297.161 277.892 297.179 277.963 297.144 278.07C297.09 278.23 297.019 278.266 296.823 278.266C296.77 278.266 296.681 278.266 296.592 278.248L296.627 278.159C296.77 278.159 296.805 278.159 296.841 278.159C296.948 278.159 296.983 278.141 297.001 278.07C297.019 277.999 297.001 277.999 296.948 277.981L296.805 277.928C296.734 277.874 296.716 277.803 296.734 277.714C296.788 277.554 296.877 277.518 297.037 277.518C297.126 277.518 297.197 277.518 297.268 277.536Z" fill="white"/>
<path d="M297.626 277.625C297.59 277.625 297.555 277.643 297.555 277.696L297.519 277.821H297.822L297.786 277.928H297.483L297.43 278.088C297.412 278.141 297.43 278.141 297.466 278.141H297.75L297.733 278.248C297.644 278.248 297.519 278.248 297.43 278.248C297.305 278.248 297.27 278.177 297.288 278.088L297.43 277.66C297.448 277.571 297.519 277.518 297.626 277.518C297.733 277.518 297.857 277.518 297.946 277.536L297.911 277.643H297.626V277.625Z" fill="white"/>
<path d="M298.765 278.23C298.747 278.248 298.729 278.266 298.711 278.266H298.569C298.551 278.266 298.533 278.248 298.533 278.23L298.587 277.714C298.587 277.678 298.587 277.661 298.604 277.625H298.587C298.569 277.661 298.569 277.678 298.551 277.714L298.302 278.23C298.284 278.248 298.266 278.266 298.248 278.266H298.106C298.088 278.266 298.07 278.248 298.07 278.23L298.142 277.536H298.284L298.213 278.07C298.213 278.106 298.213 278.141 298.195 278.177H298.213C298.231 278.141 298.248 278.106 298.266 278.07L298.498 277.571C298.515 277.554 298.533 277.536 298.551 277.536H298.676C298.693 277.536 298.711 277.554 298.711 277.589L298.658 278.088C298.658 278.123 298.658 278.159 298.64 278.195H298.676C298.693 278.159 298.711 278.123 298.711 278.088L298.96 277.554H299.103L298.765 278.23Z" fill="white"/>
</g>
<defs>
<linearGradient id="paint0_linear_263_17820" x1="89.3672" y1="158.741" x2="89.3672" y2="331.178" gradientUnits="userSpaceOnUse">
<stop stop-color="#1FB9B3"/>
<stop offset="1" stop-color="#0BE8C2"/>
</linearGradient>
<linearGradient id="paint1_linear_263_17820" x1="89.5078" y1="168.147" x2="89.5078" y2="331.599" gradientUnits="userSpaceOnUse">
<stop stop-color="#1FB9B3"/>
<stop offset="1" stop-color="#0BE8C2"/>
</linearGradient>
<clipPath id="clip0_263_17820">
<rect width="466" height="327.314" fill="white" transform="translate(0 14.0525)"/>
</clipPath>
<clipPath id="clip1_263_17820">
<rect width="32.5925" height="32.5925" fill="white" transform="translate(316.861 196.214)"/>
</clipPath>
<clipPath id="clip2_263_17820">
<rect width="40.8479" height="40.8479" fill="white" transform="translate(286.439 122.929) rotate(10)"/>
</clipPath>
<clipPath id="clip3_263_17820">
<rect width="50.3256" height="71.8125" fill="white" transform="translate(53.2344 106.101) rotate(-21.2969)"/>
</clipPath>
</defs>
</svg>
