<svg width="314" height="145" viewBox="0 0 314 145" fill="none" xmlns="http://www.w3.org/2000/svg">
<path d="M16.0568 136.082H50.8295V22.209C50.8295 17.5928 52.6236 13.2386 55.8892 9.97304C59.1548 6.70743 63.509 4.91336 68.1252 4.91336H291.537C296.153 4.91336 300.507 6.70743 303.773 9.97304C307.039 13.2386 308.833 17.5928 308.833 22.209V133.905H313.207V22.209C313.207 16.4236 310.949 10.9809 306.857 6.88884C302.765 2.79675 297.322 0.539062 291.537 0.539062H68.1453C62.3599 0.539062 56.9172 2.79675 52.8251 6.88884C48.733 10.9809 46.4753 16.4236 46.4753 22.209V131.708H16.0568V136.082Z" fill="#1FB9B3"/>
<path d="M19.2422 144.79L0.394377 133.905L19.2422 123.02V144.79Z" fill="#1FB9B3"/>
</svg>
