<svg width="267" height="134" viewBox="0 0 267 134" fill="none" xmlns="http://www.w3.org/2000/svg">
<path d="M0.00012207 133.905H4.37445V22.209C4.37445 17.5928 6.16849 13.2386 9.43408 9.97304C12.6997 6.70743 17.0539 4.91336 21.6701 4.91336H245.062C249.678 4.91336 254.032 6.70743 257.298 9.97304C260.563 13.2386 262.378 17.5928 262.378 22.209V133.905H266.752V22.209C266.752 16.4236 264.494 10.9809 260.402 6.88884C256.31 2.79675 250.867 0.539062 245.082 0.539062H21.7104C15.925 0.539062 10.4824 2.79675 6.39026 6.88884C2.29819 10.9809 0.0404968 16.4236 0.0404968 22.209V133.905H0.00012207Z" fill="#1FB9B3"/>
</svg>
