<svg width="314" height="145" viewBox="0 0 314 145" fill="none" xmlns="http://www.w3.org/2000/svg">
<path d="M68.1284 144.27H291.5C297.285 144.27 302.728 142.012 306.82 137.92C310.912 133.828 313.17 128.386 313.17 122.6V10.9043H308.796V122.58C308.796 127.196 307.002 131.55 303.736 134.816C300.47 138.082 296.116 139.876 291.5 139.876H68.1284C63.5122 139.876 59.1581 138.082 55.8925 134.816C52.6268 131.55 50.8328 127.196 50.8328 122.58V8.70703H16.0601V13.0813H46.4786V122.58C46.4786 128.365 48.7363 133.808 52.8284 137.9C56.9003 142.012 62.343 144.27 68.1284 144.27Z" fill="#1FB9B3"/>
<path d="M19.2266 21.7903L0.378752 10.9049L19.2266 0.0195312V21.7903Z" fill="#1FB9B3"/>
</svg>
