<svg width="49" height="48" viewBox="0 0 49 48" fill="none" xmlns="http://www.w3.org/2000/svg">
<g clip-path="url(#clip0_6032_131863)">
<path d="M43.5388 23.8554C43.5388 21.3165 41.4733 19.2511 38.9346 19.2511C38.2242 19.2505 37.5235 19.4154 36.888 19.7326C36.2625 17.9314 34.5494 16.6344 32.538 16.6344C31.666 16.6337 30.812 16.8822 30.0765 17.3506C29.2678 16.0231 27.8064 15.1347 26.1414 15.1347C25.5256 15.134 24.916 15.2576 24.3491 15.4979V9.992C24.3491 7.54368 22.3572 5.55176 19.9088 5.55176C17.4604 5.55176 15.4684 7.54368 15.4684 9.992V24.3199C14.5829 22.9224 13.2094 21.9491 11.5957 21.5768C9.96768 21.2009 8.2907 21.4826 6.8743 22.3693L5.537 23.2066C4.90477 23.6026 4.69172 24.4232 5.05156 25.0765C5.11108 25.1846 11.0306 35.9433 13.4323 41.0895C13.4733 41.1774 13.5144 41.2639 13.5556 41.3493C14.5227 43.3503 16.0379 45.0308 17.9375 46.2095C19.8253 47.381 22.0008 48.0002 24.2286 48.0002H31.3587C34.5661 48.0002 37.5875 46.757 39.8662 44.4997C42.1449 42.2423 43.4164 39.2328 43.4466 36.0254L43.5387 26.2309C43.5387 26.2286 43.5385 26.2264 43.5385 26.2241L43.5387 26.2176V23.8554H43.5388ZM37.8873 42.5019C36.1387 44.2341 33.8201 45.1881 31.3588 45.1881H24.2286C20.7696 45.1881 17.574 43.201 16.0874 40.1255C16.0515 40.0513 16.0157 39.9759 15.9803 39.9C13.987 35.6287 9.76803 27.8416 8.15376 24.886L8.36663 24.7527C9.14564 24.2649 10.0678 24.1099 10.9635 24.3168C11.859 24.5235 12.6202 25.0667 13.1067 25.8464L15.6816 29.9737C15.8433 30.2328 16.0849 30.4322 16.3699 30.5418C16.655 30.6514 16.9679 30.6652 17.2615 30.5812C17.5551 30.4971 17.8134 30.3197 17.9972 30.0758C18.1811 29.832 18.2805 29.5349 18.2805 29.2295V9.992C18.2805 9.09422 19.011 8.36376 19.9089 8.36376C20.8067 8.36376 21.5372 9.09422 21.5372 9.992V26.2176C21.5372 26.9941 22.1667 27.6236 22.9432 27.6236C23.7197 27.6236 24.3492 26.9941 24.3492 26.2176V19.739C24.3492 18.7508 25.1532 17.9468 26.1415 17.9468C27.1297 17.9468 27.9338 18.7508 27.9338 19.739V26.2176C27.9338 26.9941 28.5633 27.6236 29.3398 27.6236C30.1163 27.6236 30.7458 26.9941 30.7458 26.2176V21.2388C30.7458 20.2506 31.5499 19.4465 32.5381 19.4465C33.5263 19.4465 34.3304 20.2506 34.3304 21.2388V26.2176C34.3304 26.9941 34.9599 27.6236 35.7364 27.6236C36.5129 27.6236 37.1424 26.9941 37.1424 26.2176V23.8554C37.1424 22.8672 37.9464 22.0632 38.9348 22.0632C39.9231 22.0632 40.727 22.8672 40.727 23.8554V26.2093L40.635 35.999C40.6116 38.4601 39.6359 40.7696 37.8873 42.5019Z" fill="#1FB9B3"/>
<path d="M10.9763 11.6954C11.7528 11.6954 12.3823 11.0659 12.3823 10.2894C12.3823 6.16634 15.7367 2.812 19.8598 2.812C23.9828 2.812 27.3373 6.16634 27.3373 10.2894C27.3373 11.0659 27.9668 11.6954 28.7433 11.6954C29.5198 11.6954 30.1493 11.0659 30.1493 10.2894C30.1493 4.61581 25.5335 0 19.8598 0C14.1861 0 9.57031 4.61581 9.57031 10.2894C9.57031 11.066 10.1998 11.6954 10.9763 11.6954Z" fill="#1FB9B3"/>
</g>
<defs>
<clipPath id="clip0_6032_131863">
<rect width="48" height="48" fill="white" transform="translate(0.207031)"/>
</clipPath>
</defs>
</svg>
