<svg width="91" height="90" viewBox="0 0 91 90" fill="none" xmlns="http://www.w3.org/2000/svg">
    <path d="M22.1568 89.5652C21.4383 89.1014 21.2465 88.4255 21.2818 87.6095C21.3237 86.6776 21.2752 85.7435 21.295 84.8094C21.3545 82.2083 23.0606 80.502 25.6725 80.4233C26.2853 80.4058 26.898 80.4211 27.6629 80.4211C27.6629 79.7604 27.6585 79.1632 27.6629 78.566C27.6915 75.6171 29.413 73.8911 32.3798 73.8714C35.0844 73.8539 37.7867 73.8671 40.4912 73.8671C40.8042 73.8671 41.1194 73.8671 41.4743 73.8671C41.4743 57.4623 41.4743 41.1735 41.4743 24.8322C34.5025 24.8322 27.5791 24.8322 20.5522 24.8322C20.6492 25.0947 20.7175 25.331 20.8189 25.5519C24.8437 34.357 28.8664 43.162 32.9177 51.9539C33.0543 52.2515 33.4356 52.5468 33.7597 52.6277C34.9543 52.9274 35.6332 53.9818 35.1108 55.0888C34.2754 56.852 33.4158 58.6195 32.3887 60.2777C31.3681 61.925 29.704 62.5091 27.7753 62.5025C22.1326 62.4806 16.4899 62.496 10.8472 62.4938C9.76052 62.4938 8.67165 62.5091 7.58499 62.4741C5.66955 62.4106 4.20377 61.5312 3.27581 59.8796C2.41838 58.3548 1.62708 56.7907 0.866635 55.2156C0.291343 54.0212 0.919535 52.9231 2.21119 52.6299C2.49112 52.5665 2.83717 52.3302 2.95179 52.083C7.06259 43.1576 11.1491 34.2213 15.2379 25.285C15.2952 25.1581 15.3239 25.0181 15.3988 24.7731C14.4224 24.7731 13.5209 24.8059 12.6215 24.7666C9.70982 24.6419 7.99056 21.8877 9.31527 19.4748C9.91701 18.3788 10.8538 17.7356 12.1212 17.6197C12.5598 17.5803 13.0007 17.5738 13.4415 17.5738C22.4059 17.5716 31.3681 17.5716 40.3325 17.5716C40.7051 17.5716 41.0776 17.5716 41.5206 17.5716C41.5206 16.0206 41.5515 14.5943 41.4941 13.1745C41.4831 12.9033 41.1569 12.6057 40.9144 12.387C38.7345 10.4356 37.8594 8.03149 38.6309 5.21168C39.4178 2.33718 41.3795 0.573985 44.364 0.0927149C47.5645 -0.423557 50.5842 1.25433 51.9067 4.17695C53.1741 6.97707 52.3982 10.3219 49.9604 12.3432C49.5086 12.7195 49.308 13.0783 49.3278 13.6602C49.3697 14.9115 49.341 16.1649 49.341 17.5694C49.7598 17.5694 50.1279 17.5694 50.496 17.5694C59.5178 17.5694 68.5417 17.5672 77.5634 17.5759C78.1475 17.5759 78.7515 17.5803 79.3113 17.716C80.9446 18.1119 82.0181 19.5951 81.9674 21.2861C81.9189 22.9618 80.733 24.3662 79.0645 24.6594C78.4914 24.76 77.8962 24.7556 77.3099 24.7753C76.7258 24.7928 76.1395 24.7797 75.4254 24.7797C75.5841 25.1603 75.6965 25.4491 75.8243 25.7291C79.7918 34.3985 83.7638 43.068 87.7247 51.7418C87.9627 52.2646 88.1699 52.6255 88.8665 52.7196C89.9179 52.8618 90.5218 54.0409 90.0611 55.0122C89.2103 56.8017 88.3551 58.602 87.3147 60.2843C86.2986 61.9294 84.6278 62.5091 82.6992 62.5025C76.1748 62.4806 69.6504 62.4938 63.126 62.4938C62.8902 62.4938 62.6565 62.485 62.4207 62.4719C60.6132 62.3734 59.1893 61.5662 58.2944 60.0218C57.3885 58.4577 56.5818 56.8345 55.7993 55.2047C55.2218 54.0015 55.8522 52.9187 57.1549 52.6299C57.4194 52.5709 57.7588 52.374 57.8624 52.1508C61.9908 43.1708 66.0972 34.1776 70.2036 25.1866C70.2477 25.0881 70.2499 24.9722 70.2808 24.8169C63.309 24.8169 56.3834 24.8169 49.3388 24.8169C49.3388 26.1535 49.341 27.4573 49.3366 28.7589C49.3366 29.1089 49.3499 29.4633 49.2992 29.8068C49.2 30.4784 48.7217 30.9334 48.1067 30.8568C47.646 30.7978 47.1413 30.3974 46.8393 30.008C46.6277 29.7346 46.6916 29.2271 46.6894 28.8224C46.6762 27.2188 46.6806 25.6132 46.685 24.0097C46.6894 22.5593 47.1082 22.1415 48.5784 22.1415C58.2173 22.1393 67.8584 22.1415 77.4973 22.1371C77.8764 22.1371 78.3305 22.2027 78.6148 22.0233C78.9256 21.8286 79.2496 21.3867 79.2474 21.0542C79.2452 20.783 78.8176 20.4329 78.498 20.2667C78.2401 20.1332 77.8654 20.2098 77.5436 20.2098C67.9928 20.2076 58.4399 20.2098 48.8892 20.2076C47.02 20.2076 46.685 19.8707 46.6828 18.0069C46.6828 16.6965 46.6828 15.3862 46.6828 14.0167C45.8628 14.0167 45.087 14.0167 44.17 14.0167C44.17 15.3074 44.17 16.6353 44.17 17.9632C44.17 19.8926 43.8548 20.2076 41.924 20.2076C32.4614 20.2076 22.9966 20.2076 13.5341 20.2076C13.3577 20.2076 13.1814 20.2054 13.0051 20.2076C11.9669 20.2186 11.5084 20.5095 11.5613 21.1833C11.6341 22.1218 12.3548 22.1371 13.0536 22.1371C22.6925 22.1393 32.3336 22.1393 41.9725 22.1393C43.8636 22.1393 44.17 22.4433 44.17 24.3181C44.17 40.4472 44.17 56.5785 44.17 72.7076C44.17 73.0533 44.17 73.3989 44.17 73.8036C45.0142 73.8036 45.7901 73.8036 46.6828 73.8036C46.6828 73.4274 46.6828 73.0576 46.6828 72.6901C46.6828 60.6737 46.6828 48.6551 46.6872 36.6386C46.6872 36.2624 46.6894 35.873 46.7842 35.5142C46.9649 34.8295 47.4609 34.5057 48.1728 34.5801C48.8451 34.6501 49.2308 35.0526 49.3102 35.7111C49.3521 36.0567 49.3366 36.4089 49.3366 36.7589C49.3388 48.7469 49.3366 60.7349 49.3366 72.7229C49.3366 73.0664 49.3366 73.4077 49.3366 73.8649C49.7422 73.8649 50.0552 73.8649 50.3682 73.8649C53.0419 73.8649 55.7177 73.8561 58.3914 73.8671C61.4685 73.8802 63.1811 75.5931 63.1987 78.6513C63.201 79.2004 63.1987 79.7517 63.1987 80.4189C63.8842 80.4189 64.4926 80.408 65.101 80.4211C67.8143 80.4823 69.527 82.1974 69.5688 84.8969C69.5821 85.8004 69.5402 86.706 69.5798 87.6095C69.6173 88.4233 69.4234 89.0993 68.7048 89.5652C53.1917 89.5652 37.6743 89.5652 22.1568 89.5652ZM30.2925 52.6037C26.1817 43.6127 22.115 34.7201 17.9689 25.6547C13.8272 34.707 9.7539 43.6127 5.6409 52.6037C13.9154 52.6037 22.018 52.6037 30.2925 52.6037ZM72.8972 25.6547C68.7467 34.731 64.68 43.6258 60.5978 52.5534C68.8304 52.5534 76.9617 52.5534 85.2031 52.5534C81.0989 43.5842 77.0432 34.7157 72.8972 25.6547ZM23.9599 86.8876C38.3003 86.8876 52.5658 86.8876 66.926 86.8876C66.926 86.3845 66.926 85.9251 66.926 85.4657C66.9238 83.4947 66.483 83.0571 64.486 83.0549C56.6677 83.0549 48.8517 83.0549 41.0335 83.0506C40.6544 83.0506 40.2664 83.0353 39.9005 82.9499C39.2459 82.7946 38.8954 82.3287 38.9285 81.6724C38.9637 80.9811 39.3693 80.5436 40.0813 80.4517C40.4009 80.4101 40.7271 80.4189 41.0489 80.4189C47.192 80.4167 53.3328 80.4167 59.4759 80.4167C59.8109 80.4167 60.1482 80.4167 60.5449 80.4167C60.5449 79.8786 60.5449 79.5023 60.5449 79.126C60.5449 76.8706 60.1636 76.4965 57.8602 76.4965C49.8083 76.4965 41.7542 76.5381 33.7024 76.4769C30.3167 76.4506 30.2374 77.0259 30.3388 80.0951C30.341 80.1739 30.4027 80.2505 30.4776 80.4167C31.5885 80.4167 32.7281 80.4014 33.8677 80.4211C34.7846 80.4386 35.3489 80.9286 35.3753 81.6702C35.404 82.4534 34.8331 82.9806 33.8743 83.044C33.6406 83.0593 33.4048 83.0484 33.1689 83.0484C30.7289 83.0484 28.2911 83.0396 25.8511 83.0528C24.6917 83.0593 24.0679 83.5493 23.9731 84.5841C23.9026 85.3366 23.9599 86.0913 23.9599 86.8876ZM32.0713 55.2944C22.6153 55.2944 13.3159 55.2944 3.88857 55.2944C4.35806 56.2176 4.82535 57.0489 5.20888 57.9173C5.82605 59.3152 6.84658 59.8971 8.39392 59.8774C12.7957 59.8249 17.1996 59.8599 21.6036 59.8599C23.7174 59.8599 25.8312 59.8533 27.945 59.8599C28.959 59.8643 29.8076 59.5318 30.3145 58.6327C30.9141 57.5739 31.4497 56.4823 32.0713 55.2944ZM58.8212 55.3075C59.2885 56.2285 59.7536 57.0642 60.1393 57.9326C60.7609 59.3305 61.7925 59.8905 63.3354 59.8796C69.0883 59.8337 74.8434 59.8621 80.5964 59.8599C81.4758 59.8599 82.3818 59.9715 83.2304 59.8008C83.8938 59.6674 84.6917 59.324 85.0665 58.8121C85.8269 57.7708 86.3427 56.5501 87.0105 55.3075C77.5458 55.3075 68.2353 55.3075 58.8212 55.3075ZM45.4749 11.3544C47.8378 11.3413 49.8524 9.33529 49.8414 7.00769C49.8304 4.57946 47.851 2.59969 45.4352 2.59969C42.9776 2.59969 40.9982 4.61665 41.0247 7.09082C41.0511 9.40529 43.0988 11.3676 45.4749 11.3544Z" fill="#2C98B3"/>
    </svg>