<svg width="71" height="70" viewBox="0 0 71 70" fill="none" xmlns="http://www.w3.org/2000/svg">
<g clip-path="url(#clip0_6032_131778)">
<path d="M30.7324 53.3676L38.3881 45.7119L39.9352 47.2585L32.279 54.9147L30.7324 53.3676ZM30.9588 45.9372H33.1463V48.1247H30.9588V45.9372ZM37.5213 52.4997H39.7088V54.6872H37.5213V52.4997Z" fill="#1FB9B3"/>
<path d="M35.334 61.25C41.3748 61.25 46.2715 56.3533 46.2715 50.3125C46.2715 44.2717 41.3748 39.375 35.334 39.375C29.2932 39.375 24.3965 44.2717 24.3965 50.3125C24.4029 56.3505 29.2959 61.2436 35.334 61.25ZM35.334 41.5625C40.1667 41.5625 44.084 45.4798 44.084 50.3125C44.084 55.1452 40.1667 59.0625 35.334 59.0625C30.5013 59.0625 26.584 55.1452 26.584 50.3125C26.5895 45.4825 30.504 41.568 35.334 41.5625Z" fill="#1FB9B3"/>
<path d="M11.2715 64.5312V65.625H59.3965V64.5312C59.4002 61.5122 61.8462 59.0662 64.8652 59.0625H65.959V41.5625H64.8652C61.8462 41.5588 59.4002 39.1128 59.3965 36.0938V35H11.2715V36.0938C11.2678 39.1128 8.82176 41.5588 5.80273 41.5625H4.70898V59.0625H5.80273C8.82176 59.0662 11.2678 61.5122 11.2715 64.5312ZM6.89648 43.6726C10.2542 43.1823 12.8913 40.5452 13.3816 37.1875H57.2864C57.7766 40.5452 60.4138 43.1823 63.7715 43.6726V56.9524C60.4138 57.4427 57.7766 60.0798 57.2864 63.4375H13.3816C12.8913 60.0798 10.2542 57.4427 6.89648 56.9524V43.6726Z" fill="#1FB9B3"/>
<path d="M60.0527 13.4587L54.4213 14.9681L46.767 0.576133L0.913398 24.9651L1.94207 26.8963L45.8635 3.53486L52.2496 15.5486L50.0766 16.1306L48.0354 12.2881L47.0688 12.8056C44.4039 14.2193 41.0975 13.2077 39.6796 10.545L39.1621 9.57783L20.3137 19.6075L21.3405 21.5391L38.3284 12.5017C40.336 15.2366 43.9024 16.3267 47.0962 15.1822L47.909 16.7135L12.1693 26.2873L12.7359 28.4002L58.503 16.1371L62.3804 30.625H60.1126L58.6504 25.1638L57.5962 25.4451C54.6765 26.2175 51.6809 24.4854 50.8938 21.5701L50.6101 20.5133L29.0637 26.2873L29.6302 28.4002L49.1351 23.1734C50.4793 26.289 53.7067 28.1554 57.0776 27.7672L57.8435 30.6281H0.333984V70H70.334V30.625H64.6462L60.0527 13.4587ZM68.1465 67.8125H2.52148V32.8125H68.1465V67.8125ZM57.209 0H70.334V2.1875H57.209V0ZM61.584 4.375H70.334V6.5625H61.584V4.375ZM65.959 8.75H70.334V10.9375H65.959V8.75ZM0.333984 0H13.459V2.1875H0.333984V0ZM0.333984 4.375H9.08398V6.5625H0.333984V4.375ZM0.333984 8.75H4.70898V10.9375H0.333984V8.75Z" fill="#1FB9B3"/>
</g>
<defs>
<clipPath id="clip0_6032_131778">
<rect width="70" height="70" fill="white" transform="translate(0.333984)"/>
</clipPath>
</defs>
</svg>
