<svg width="49" height="42" viewBox="0 0 49 42" fill="none" xmlns="http://www.w3.org/2000/svg">
<path d="M48.1397 23.7171L48.1394 23.7165L39.0768 0.961137C39.0311 0.846158 38.9632 0.741316 38.8769 0.652595C38.7906 0.563875 38.6877 0.493014 38.5741 0.44406C38.4604 0.395105 38.3383 0.369015 38.2145 0.36728C38.0908 0.365545 37.9679 0.388198 37.853 0.433946L37.8519 0.434417L1.08615 15.0742C0.936232 15.139 0.806177 15.2424 0.709252 15.3738C0.559206 15.4518 0.433193 15.569 0.344721 15.7131C0.256248 15.8572 0.208651 16.0226 0.207031 16.1917V40.6903C0.207031 40.9402 0.306304 41.1798 0.483011 41.3566C0.659717 41.5333 0.899383 41.6325 1.14928 41.6325H40.7239C40.9738 41.6325 41.2135 41.5333 41.3902 41.3566C41.5669 41.1798 41.6661 40.9402 41.6661 40.6903V27.3103L47.6136 24.9415C47.7286 24.8956 47.8334 24.8276 47.922 24.7412C48.0106 24.6549 48.0814 24.5519 48.1302 24.4382C48.1791 24.3245 48.205 24.2024 48.2067 24.0786C48.2083 23.9549 48.1855 23.8321 48.1397 23.7171ZM39.7816 39.748H2.09154V17.134H39.7816V39.748ZM15.9285 15.2542L31.7056 8.96746C32.4024 9.69989 33.2402 10.2838 34.1685 10.6841C35.0969 11.0844 36.0966 11.2928 37.1075 11.2967L38.6811 15.2542H15.9285ZM41.6661 25.2863V16.1917C41.6661 15.9418 41.5669 15.7021 41.3902 15.5254C41.2135 15.3487 40.9738 15.2495 40.7239 15.2495H40.7088L38.7122 10.2348C38.6901 10.193 38.6642 10.1532 38.6349 10.1161C38.5861 9.89662 38.4595 9.70227 38.2785 9.56891C38.0975 9.43555 37.8743 9.37219 37.6503 9.39053C36.7147 9.47582 35.7727 9.32586 34.9099 8.95427C34.0471 8.58269 33.2909 8.00127 32.71 7.26292C32.568 7.08767 32.3673 6.96975 32.1451 6.93095C31.9229 6.89215 31.6941 6.9351 31.5011 7.05186C31.4564 7.05719 31.412 7.06537 31.3683 7.07636L12.1067 14.7463C11.9914 14.7915 11.8862 14.8593 11.7973 14.9457C11.7085 15.0321 11.6378 15.1354 11.5894 15.2495H5.73994L37.6748 2.53376L46.041 23.5413L41.6661 25.2863Z" fill="#1FB9B3"/>
<path d="M4.64933 33.387C5.54973 33.6531 6.36934 34.1401 7.03366 34.8036C7.69798 35.4671 8.18594 36.2861 8.45321 37.1861C8.51121 37.3805 8.63039 37.5509 8.79302 37.6721C8.95565 37.7934 9.15305 37.8589 9.35588 37.8589C9.40478 37.8558 9.45332 37.8486 9.50099 37.8372C9.54327 37.8492 9.5865 37.8581 9.63008 37.8636H32.2441C32.283 37.8585 32.3214 37.8507 32.3591 37.8401C32.5852 37.895 32.8238 37.858 33.0226 37.737C33.2213 37.6161 33.3639 37.4211 33.4189 37.1951L33.4201 37.1899C33.6866 36.2889 34.1743 35.469 34.8386 34.8046C35.503 34.1402 36.323 33.6526 37.2239 33.386C37.4386 33.3204 37.6223 33.1793 37.7411 32.9888C37.8599 32.7983 37.9058 32.5712 37.8703 32.3495C37.8829 32.3038 37.892 32.2572 37.8977 32.2101V24.6721C37.8921 24.6249 37.8827 24.5782 37.8694 24.5326C37.9051 24.3109 37.8594 24.0838 37.7405 23.8932C37.6217 23.7026 37.4378 23.5616 37.223 23.4961C36.3221 23.2297 35.5022 22.7419 34.8381 22.0773C34.174 21.4127 33.6868 20.5925 33.421 19.6913C33.3551 19.4752 33.2128 19.2905 33.0207 19.1716C32.8286 19.0527 32.5998 19.0077 32.377 19.0449C32.3334 19.0328 32.289 19.024 32.2441 19.0186H9.63008C9.5826 19.0242 9.53565 19.0336 9.48968 19.0468C9.26802 19.0115 9.04106 19.0575 8.85061 19.1763C8.66015 19.295 8.51902 19.4786 8.45321 19.6932C8.18651 20.594 7.69879 21.4138 7.03443 22.078C6.37007 22.7421 5.55017 23.2297 4.64933 23.4961C4.43464 23.5618 4.25095 23.7029 4.13215 23.8934C4.01335 24.0839 3.96746 24.3109 4.00295 24.5326C3.99069 24.5784 3.98187 24.625 3.97656 24.6721V32.2101C3.98198 32.2544 3.99081 32.2982 4.00295 32.3411C3.96558 32.5641 4.01053 32.7932 4.12944 32.9856C4.24835 33.178 4.4331 33.3206 4.64933 33.387ZM5.86107 25.0546C6.79739 24.6786 7.64791 24.1169 8.3614 23.4034C9.07488 22.6899 9.63657 21.8394 10.0126 20.9031H31.8606C32.2369 21.8394 32.7988 22.6899 33.5124 23.4034C34.2261 24.1169 35.0767 24.6786 36.0132 25.0546V31.8275C35.0771 32.204 34.2268 32.7659 33.5134 33.4793C32.7999 34.1927 32.2381 35.043 31.8616 35.9791H10.0126C9.63614 35.043 9.0743 34.1927 8.36087 33.4793C7.64743 32.7659 6.79714 32.204 5.86107 31.8275V25.0546Z" fill="#1FB9B3"/>
<path d="M20.9364 34.0941C24.0588 34.0941 26.5899 31.563 26.5899 28.4406C26.5899 25.3182 24.0588 22.7871 20.9364 22.7871C17.814 22.7871 15.2828 25.3182 15.2828 28.4406C15.2859 31.5617 17.8153 34.0911 20.9364 34.0941ZM20.9364 24.6716C23.0179 24.6716 24.7054 26.3591 24.7054 28.4406C24.7054 30.5222 23.0179 32.2096 20.9364 32.2096C18.8548 32.2096 17.1674 30.5222 17.1674 28.4406C17.1674 26.3591 18.8548 24.6716 20.9364 24.6716ZM10.5716 29.854C11.3521 29.854 11.985 29.2212 11.985 28.4406C11.985 27.6601 11.3521 27.0272 10.5716 27.0272C9.79104 27.0272 9.1582 27.6601 9.1582 28.4406C9.1582 29.2213 9.79104 29.854 10.5716 29.854ZM10.5716 27.9695C10.6965 27.9695 10.8164 28.0191 10.9047 28.1075C10.9931 28.1958 11.0427 28.3157 11.0427 28.4406C11.0427 28.5656 10.9931 28.6854 10.9047 28.7738C10.8164 28.8621 10.6965 28.9118 10.5716 28.9118C10.4466 28.9118 10.3268 28.8621 10.2384 28.7738C10.1501 28.6854 10.1005 28.5656 10.1005 28.4406C10.1005 28.3157 10.1501 28.1958 10.2384 28.1075C10.3268 28.0191 10.4466 27.9695 10.5716 27.9695ZM31.3011 29.854C32.0817 29.854 32.7145 29.2212 32.7145 28.4406C32.7145 27.6601 32.0817 27.0272 31.3011 27.0272C30.5206 27.0272 29.8878 27.6601 29.8878 28.4406C29.8878 29.2213 30.5206 29.854 31.3011 29.854ZM31.3011 27.9695C31.4261 27.9695 31.5459 28.0191 31.6343 28.1075C31.7226 28.1958 31.7723 28.3157 31.7723 28.4406C31.7723 28.5656 31.7226 28.6854 31.6343 28.7738C31.5459 28.8621 31.4261 28.9118 31.3011 28.9118C31.1762 28.9118 31.0564 28.8621 30.968 28.7738C30.8797 28.6854 30.83 28.5656 30.83 28.4406C30.83 28.3157 30.8797 28.1958 30.968 28.1075C31.0564 28.0191 31.1762 27.9695 31.3011 27.9695Z" fill="#1FB9B3"/>
</svg>
