<svg width="112" height="112" viewBox="0 0 112 112" fill="none" xmlns="http://www.w3.org/2000/svg">
<circle cx="56" cy="56" r="56" fill="#FFBC00" fill-opacity="0.1"/>
<path d="M65.1427 84.2517H25.7227C22.8727 84.2517 20.2327 82.9318 18.5227 80.6218C16.7827 78.2818 16.2728 75.3416 17.1428 72.5516L29.7727 31.9615C30.9127 28.1815 34.3928 25.6016 38.3528 25.6016H75.2527C78.8827 25.6016 82.1528 27.7618 83.5328 31.1218C84.2828 32.8618 84.4327 34.8419 83.9827 36.7919L73.8728 77.3816C72.9128 81.4316 69.3127 84.2517 65.1427 84.2517ZM38.3827 30.1316C36.4327 30.1316 34.6627 31.4218 34.0927 33.3118L21.4628 73.9019C21.0428 75.3119 21.2827 76.7818 22.1827 77.9818C23.0227 79.1218 24.3427 79.7817 25.7527 79.7817H65.1728C67.2428 79.7817 69.0427 78.3717 69.5227 76.3617L79.6327 35.7416C79.8727 34.7516 79.8128 33.7617 79.4228 32.8917C78.7028 31.1817 77.1128 30.1016 75.2828 30.1016H38.3827V30.1316Z" fill="#FFBC00"/>
<path d="M78.34 84.2489H64C62.77 84.2489 61.75 83.2289 61.75 81.9989C61.75 80.7689 62.77 79.7489 64 79.7489H78.34C79.57 79.7489 80.71 79.239 81.55 78.339C82.39 77.439 82.81 76.2391 82.72 75.0091L79.75 34.1491C79.66 32.9191 80.59 31.8389 81.82 31.7489C83.05 31.6889 84.13 32.5888 84.22 33.8188L87.19 74.6791C87.37 77.1391 86.5 79.5991 84.82 81.3991C83.17 83.2291 80.8 84.2489 78.34 84.2489Z" fill="#FFBC00"/>
<path d="M45.0373 37.3882C44.8573 37.3882 44.6774 37.3581 44.4974 37.3281C43.2974 37.0281 42.5474 35.828 42.8474 34.598L45.9673 21.6382C46.2673 20.4382 47.4673 19.688 48.6973 19.988C49.8973 20.288 50.6474 21.4881 50.3474 22.7181L47.2274 35.6783C46.9874 36.6983 46.0573 37.3882 45.0373 37.3882Z" fill="#FFBC00"/>
<path d="M65.1384 37.4173C64.9884 37.4173 64.8083 37.4172 64.6583 37.3572C63.4583 37.0872 62.6784 35.8872 62.9184 34.6872L65.7383 21.6673C66.0083 20.4373 67.2083 19.6874 68.4083 19.9274C69.6083 20.1674 70.3883 21.3971 70.1483 22.5971L67.3283 35.6173C67.1183 36.6973 66.1884 37.4173 65.1384 37.4173Z" fill="#FFBC00"/>
<path d="M63.1016 54.25H39.1016C37.8716 54.25 36.8516 53.23 36.8516 52C36.8516 50.77 37.8716 49.75 39.1016 49.75H63.1016C64.3316 49.75 65.3516 50.77 65.3516 52C65.3516 53.23 64.3316 54.25 63.1016 54.25Z" fill="#FFBC00"/>
<path d="M60.1016 66.25H36.1016C34.8716 66.25 33.8516 65.23 33.8516 64C33.8516 62.77 34.8716 61.75 36.1016 61.75H60.1016C61.3316 61.75 62.3516 62.77 62.3516 64C62.3516 65.23 61.3316 66.25 60.1016 66.25Z" fill="#FFBC00"/>
</svg>
