<svg width="326" height="229" viewBox="0 0 326 229" fill="none" xmlns="http://www.w3.org/2000/svg">
<g clip-path="url(#clip0_1008_19351)">
<path opacity="0.1" d="M10.0271 125.456C22.4226 102.731 47.5185 85.3819 53.767 82.5919C94.2049 64.4823 131.341 30.0386 172.388 15.3277C213.436 0.616806 260.376 7.61716 305.285 66.6636C329.364 98.3681 331.092 130.022 312.397 149.45C242.596 222.142 159.739 245.883 72.2587 215.243C54.9863 209.207 37.4598 200.989 19.8825 184.604C-1.65726 164.618 0.273192 143.414 10.0271 125.456Z" fill="#1FB9B3"/>
<path opacity="0.1" d="M10.895 102.334C26.227 81.7815 52.9343 68.4352 59.3638 66.6083C100.958 54.8352 141.81 26.4172 183.503 18.1455C225.196 9.87383 269.313 23.8799 303.785 89.089C322.283 124.104 324.657 159.16 303.785 175.5C225.741 236.751 137.062 244.17 57.435 200.579C41.7073 191.952 26.0291 181.194 11.5874 162.316C-6.16804 139.277 -1.17278 118.573 10.895 102.334Z" fill="#1FB9B3"/>
<path d="M249.7 114.012C249.7 114.012 249.7 111.559 246.266 108.16C242.833 104.761 240.655 102.789 240.655 102.789C240.655 102.789 238.948 108.4 242.127 111.819C244.46 114.22 246.99 116.422 249.69 118.402L249.7 114.012Z" fill="#1FB9B3"/>
<path d="M244.745 129.246C244.745 129.246 244.745 126.794 241.311 123.394C237.878 119.995 235.71 118.023 235.71 118.023C235.71 118.023 233.998 123.635 237.181 127.054C239.514 129.455 242.044 131.656 244.745 133.636V129.246Z" fill="#1FB9B3"/>
<path d="M249.483 118.167C249.483 118.167 249.743 115.744 253.5 112.708C257.257 109.672 259.646 107.965 259.646 107.965C259.646 107.965 260.749 113.723 257.237 116.794C254.664 118.936 251.915 120.858 249.021 122.542L249.483 118.167Z" fill="#1FB9B3"/>
<path d="M243.498 136.157C243.498 136.157 243.989 133.773 248.065 131.149C252.141 128.525 254.672 127.078 254.672 127.078C254.672 127.078 255.162 132.925 251.351 135.598C248.566 137.458 245.631 139.082 242.576 140.454L243.498 136.157Z" fill="#1FB9B3"/>
<path d="M244.623 155.777C244.623 155.777 244.623 153.325 248.057 149.921C251.49 146.517 253.663 144.555 253.663 144.555C253.663 144.555 255.375 150.166 252.191 153.58C249.859 155.983 247.329 158.187 244.628 160.167L244.623 155.777Z" fill="#1FB9B3"/>
<path d="M244.568 160.566C244.568 160.566 244.912 158.153 242.018 154.287C239.124 150.422 237.225 148.176 237.225 148.176C237.225 148.176 234.739 153.488 237.392 157.319C239.359 160.028 241.55 162.568 243.94 164.912L244.568 160.566Z" fill="#1FB9B3"/>
<path d="M241.197 174.756C241.197 174.756 241.197 172.303 244.631 168.904C248.064 165.505 250.242 163.533 250.242 163.533C250.242 163.533 251.949 169.144 248.771 172.563C246.437 174.965 243.907 177.169 241.207 179.151L241.197 174.756Z" fill="#1FB9B3"/>
<path d="M243.48 187.621C243.48 187.621 242.862 185.262 245.3 181.092C247.738 176.923 249.371 174.48 249.371 174.48C249.371 174.48 252.442 179.474 250.239 183.584C248.592 186.498 246.703 189.269 244.594 191.869L243.48 187.621Z" fill="#1FB9B3"/>
<path d="M250.009 113.389C249.838 115.928 249.526 118.457 249.077 120.962C247.724 127.937 244.349 132.44 243 138.738C241.651 145.036 245.526 153.153 244.472 161.247C243.417 169.34 240.288 173.838 241.185 179.238C242.083 184.638 246.811 199.265 246.811 199.265" stroke="#263238" stroke-linecap="round" stroke-linejoin="round"/>
<path d="M249.453 119.79L253.132 116.965" stroke="#263238" stroke-linecap="round" stroke-linejoin="round"/>
<path d="M249.625 116.539L248.08 113.797" stroke="#263238" stroke-linecap="round" stroke-linejoin="round"/>
<path d="M243.205 138.449C243.205 138.449 246.285 136.138 249.454 133.828" stroke="#263238" stroke-linecap="round" stroke-linejoin="round"/>
<path d="M244.744 133.635C244.744 133.635 242.174 128.603 239.266 125.268" stroke="#263238" stroke-linecap="round" stroke-linejoin="round"/>
<path d="M244.744 159.253C246.501 156.005 248.722 153.031 251.336 150.424" stroke="#263238" stroke-linecap="round" stroke-linejoin="round"/>
<path d="M244.147 162.672C243.213 160.47 242.095 158.35 240.807 156.335C239.012 153.681 238.752 153.338 238.752 153.338" stroke="#263238" stroke-linecap="round" stroke-linejoin="round"/>
<path d="M241.197 179.239C241.979 177.306 242.907 175.435 243.973 173.642C245.04 171.976 246.243 170.402 247.569 168.934" stroke="#263238" stroke-linecap="round" stroke-linejoin="round"/>
<path d="M244.595 191.868C244.417 190.019 244.735 188.156 245.517 186.472C246.803 183.99 248.254 180.738 248.853 179.453" stroke="#263238" stroke-linecap="round" stroke-linejoin="round"/>
<path d="M221.829 146.606C221.829 146.606 221.564 145.075 223.334 142.559C225.105 140.043 226.277 138.586 226.277 138.586C226.277 138.586 227.955 141.921 226.336 144.403C225.134 146.164 223.787 147.821 222.309 149.357L221.829 146.606Z" fill="#1FB9B3"/>
<path d="M226.592 155.621C226.592 155.621 226.327 154.091 228.098 151.575C229.869 149.058 231.041 147.602 231.041 147.602C231.041 147.602 232.718 150.937 231.1 153.424C229.897 155.182 228.55 156.837 227.073 158.373L226.592 155.621Z" fill="#1FB9B3"/>
<path d="M222.413 149.186C222.413 149.186 221.991 147.715 219.303 146.199C216.615 144.683 214.938 143.889 214.938 143.889C214.938 143.889 214.869 147.621 217.39 149.162C219.236 150.224 221.167 151.131 223.163 151.874L222.413 149.186Z" fill="#1FB9B3"/>
<path d="M228.124 159.819C228.124 159.819 227.545 158.377 224.72 157.17C221.895 155.964 220.129 155.336 220.129 155.336C220.129 155.336 220.453 159.054 223.141 160.319C225.088 161.182 227.105 161.881 229.169 162.409L228.124 159.819Z" fill="#1FB9B3"/>
<path d="M229.544 172.243C229.544 172.243 229.284 170.713 226.768 168.942C224.252 167.171 222.667 166.186 222.667 166.186C222.667 166.186 222.206 169.889 224.565 171.684C226.289 172.939 228.115 174.047 230.025 174.995L229.544 172.243Z" fill="#1FB9B3"/>
<path d="M230.102 175.239C230.102 175.239 229.612 173.767 231.019 171.021C232.427 168.274 233.359 166.67 233.359 166.67C233.359 166.67 235.493 169.731 234.247 172.423C233.308 174.335 232.211 176.165 230.966 177.893L230.102 175.239Z" fill="#1FB9B3"/>
<path d="M234.389 187.577C234.389 187.577 234.566 186.037 236.974 184.143C239.382 182.25 240.898 181.156 240.898 181.156C240.898 181.156 241.57 184.83 239.319 186.758C237.67 188.107 235.911 189.316 234.061 190.373L234.389 187.577Z" fill="#1FB9B3"/>
<path d="M233.749 183.769C233.749 183.769 233.484 182.238 230.973 180.468C228.462 178.697 226.882 177.711 226.882 177.711C226.882 177.711 226.421 181.414 228.78 183.214C230.505 184.467 232.331 185.575 234.24 186.525L233.749 183.769Z" fill="#1FB9B3"/>
<path d="M233.748 192.089C233.748 192.089 233.876 190.539 231.894 188.19C229.912 185.84 228.627 184.486 228.627 184.486C228.627 184.486 227.239 187.949 229.069 190.289C230.41 191.937 231.887 193.469 233.483 194.87L233.748 192.089Z" fill="#1FB9B3"/>
<path d="M221.568 146.24C221.952 147.815 222.422 149.367 222.976 150.89C224.58 155.118 227.185 157.576 228.715 161.377C230.245 165.178 228.715 170.696 230.226 175.655C231.736 180.614 234.238 183.096 234.238 186.579C234.238 190.061 232.884 199.749 232.884 199.749" stroke="#263238" stroke-linecap="round" stroke-linejoin="round"/>
<path d="M222.616 150.195L220.002 148.826" stroke="#263238" stroke-linecap="round" stroke-linejoin="round"/>
<path d="M222.152 148.176L222.819 146.293" stroke="#263238" stroke-linecap="round" stroke-linejoin="round"/>
<path d="M228.553 161.22C228.553 161.22 226.37 160.107 224.139 158.998" stroke="#263238" stroke-linecap="round" stroke-linejoin="round"/>
<path d="M227.066 158.371C227.71 156.35 228.556 154.399 229.592 152.549" stroke="#263238" stroke-linecap="round" stroke-linejoin="round"/>
<path d="M229.849 174.433C228.394 172.591 226.679 170.97 224.758 169.621" stroke="#263238" stroke-linecap="round" stroke-linejoin="round"/>
<path d="M230.594 176.51C230.943 175.03 231.414 173.581 232.001 172.178C232.84 170.319 232.982 170.074 232.982 170.074" stroke="#263238" stroke-linecap="round" stroke-linejoin="round"/>
<path d="M234.123 189.226C234.974 188.172 235.916 187.196 236.939 186.308C237.589 185.829 238.199 185.297 238.763 184.719" stroke="#263238" stroke-linecap="round" stroke-linejoin="round"/>
<path d="M234.239 186.583C233.538 185.452 232.753 184.377 231.889 183.365C231.039 182.437 230.114 181.581 229.123 180.805" stroke="#263238" stroke-linecap="round" stroke-linejoin="round"/>
<path d="M233.484 194.869C233.396 193.69 232.995 192.555 232.321 191.583C231.247 190.165 229.982 188.282 229.467 187.541" stroke="#263238" stroke-linecap="round" stroke-linejoin="round"/>
<path d="M82.5097 125.24L80.3613 119.104L82.5097 121.709L80.8224 112.502L83.4318 119.104L84.354 106.209L85.8892 118.486L87.5766 116.034V119.104L89.5729 114.959L88.4987 122.17L90.3381 120.944L87.4245 124.931L82.5097 125.24Z" fill="#1FB9B3"/>
<path d="M89.2636 123.705H81.2832L82.7204 139.818H87.8264L89.2636 123.705Z" fill="#263238" stroke="#263238" stroke-linecap="round" stroke-linejoin="round"/>
<path d="M104.235 139.637H77.0469V197.221H104.235V139.637Z" fill="white" stroke="#263238" stroke-linecap="round" stroke-linejoin="round"/>
<path d="M105.721 139.637H90.6387V197.221H105.721V139.637Z" fill="white" stroke="#263238" stroke-linecap="round" stroke-linejoin="round"/>
<path d="M104.024 139.637H90.6387V197.221H104.024V139.637Z" fill="#263238" stroke="#263238" stroke-linecap="round" stroke-linejoin="round"/>
<path d="M102.519 183.832H90.6387V195.624H102.519V183.832Z" fill="#1FB9B3" stroke="#263238" stroke-linecap="round" stroke-linejoin="round"/>
<path d="M102.519 184.467H90.6387V185.978H102.519V184.467Z" fill="white" stroke="#263238" stroke-linecap="round" stroke-linejoin="round"/>
<path d="M102.519 193.148H90.6387V194.659H102.519V193.148Z" fill="white" stroke="#263238" stroke-linecap="round" stroke-linejoin="round"/>
<path d="M92.8887 184.074V198.985" stroke="#263238" stroke-linecap="round" stroke-linejoin="round"/>
<path d="M97.0352 184.074V198.985" stroke="#263238" stroke-linecap="round" stroke-linejoin="round"/>
<path d="M100.672 184.074V198.985" stroke="#263238" stroke-linecap="round" stroke-linejoin="round"/>
<path d="M102.519 141.775H90.6387V159.115H102.519V141.775Z" fill="#1FB9B3" stroke="#263238" stroke-linecap="round" stroke-linejoin="round"/>
<path d="M102.519 142.5H90.6387V144.217H102.519V142.5Z" fill="white" stroke="#263238" stroke-linecap="round" stroke-linejoin="round"/>
<path d="M102.519 153.617H90.6387V155.334H102.519V153.617Z" fill="white" stroke="#263238" stroke-linecap="round" stroke-linejoin="round"/>
<path d="M92.8887 142.049V158.996" stroke="#263238" stroke-linecap="round" stroke-linejoin="round"/>
<path d="M97.0352 142.049V158.996" stroke="#263238" stroke-linecap="round" stroke-linejoin="round"/>
<path d="M100.672 142.049V158.996" stroke="#263238" stroke-linecap="round" stroke-linejoin="round"/>
<path d="M102.519 162.67H90.6387V180.009H102.519V162.67Z" fill="#1FB9B3" stroke="#263238" stroke-linecap="round" stroke-linejoin="round"/>
<path d="M102.519 163.396H90.6387V165.113H102.519V163.396Z" fill="white" stroke="#263238" stroke-linecap="round" stroke-linejoin="round"/>
<path d="M102.519 174.512H90.6387V176.228H102.519V174.512Z" fill="white" stroke="#263238" stroke-linecap="round" stroke-linejoin="round"/>
<path d="M92.8887 162.951V179.893" stroke="#263238" stroke-linecap="round" stroke-linejoin="round"/>
<path d="M97.0352 162.951V179.893" stroke="#263238" stroke-linecap="round" stroke-linejoin="round"/>
<path d="M100.672 162.951V179.893" stroke="#263238" stroke-linecap="round" stroke-linejoin="round"/>
<path d="M104.23 158.871H90.6387V160.843H104.23V158.871Z" fill="white" stroke="#263238" stroke-linecap="round" stroke-linejoin="round"/>
<path d="M104.23 179.902H90.6387V181.874H104.23V179.902Z" fill="white" stroke="#263238" stroke-linecap="round" stroke-linejoin="round"/>
<path d="M104.229 139.637V197.216" stroke="#263238" stroke-linecap="round" stroke-linejoin="round"/>
<path d="M88.7188 139.636V197.215H90.6366V141.774H103.993V139.611L88.7188 139.636Z" fill="white" stroke="#263238" stroke-linecap="round" stroke-linejoin="round"/>
<path d="M90.6387 141.775V139.637" stroke="#263238" stroke-linecap="round" stroke-linejoin="round"/>
<path d="M104.129 113.182C102.702 110.43 102.104 108.458 102.104 108.002C102.104 107.1 104.066 106.56 104.066 106.56C107.126 104.941 121.522 107.281 128.002 108.36C131.629 108.993 135.298 109.353 138.979 109.439C138.979 109.439 139.877 108.723 140.941 107.821C142.006 106.918 147.058 100.983 149.039 100.463C151.021 99.9433 152.816 101.184 152.816 101.184C152.816 101.184 156.058 103.146 155.514 103.524C154.969 103.902 147.058 110.72 145.076 111.98C143.094 113.241 138.96 112.701 135.359 113.422C132.259 114.04 119.703 114.805 116.823 115.041C114.661 115.554 112.392 115.365 110.344 114.501" fill="white"/>
<mask id="mask0_1008_19351" style="mask-type:luminance" maskUnits="userSpaceOnUse" x="102" y="100" width="54" height="16">
<path d="M104.131 113.182C102.704 110.43 102.105 108.458 102.105 108.002C102.105 107.1 104.067 106.56 104.067 106.56C107.128 104.941 121.524 107.281 128.004 108.36C131.631 108.993 135.3 109.353 138.981 109.439C138.981 109.439 139.879 108.723 140.943 107.821C142.007 106.918 147.06 100.983 149.041 100.463C151.023 99.9433 152.818 101.184 152.818 101.184C152.818 101.184 156.06 103.146 155.516 103.524C154.971 103.902 147.06 110.72 145.078 111.98C143.096 113.241 138.961 112.701 135.361 113.422C132.261 114.04 119.705 114.805 116.825 115.041C114.663 115.554 112.394 115.365 110.346 114.501" fill="white"/>
</mask>
<g mask="url(#mask0_1008_19351)">
<path d="M152.849 101.164C152.849 101.164 151.049 99.9033 149.072 100.443C147.096 100.982 142.053 106.922 140.974 107.8C139.895 108.678 139.012 109.419 139.012 109.419C135.331 109.333 131.662 108.972 128.035 108.34C121.556 107.261 107.159 104.906 104.099 106.54C104.099 106.54 102.137 107.079 102.137 107.982C102.205 108.486 102.335 108.981 102.524 109.453L102.794 109.551C102.794 109.551 106.389 109.174 114.149 109.36C121.909 109.547 139.856 110.611 141.009 111.028C141.499 111.214 144.977 110.429 148.832 109.066C151.775 106.667 155.233 103.67 155.581 103.459C156.092 103.141 152.849 101.164 152.849 101.164Z" fill="#1FB9B3"/>
<path opacity="0.5" d="M152.849 101.164C152.849 101.164 151.049 99.9033 149.072 100.443C147.096 100.982 142.053 106.922 140.974 107.8C139.895 108.678 139.012 109.419 139.012 109.419C135.331 109.333 131.662 108.972 128.035 108.34C121.556 107.261 107.159 104.906 104.099 106.54C104.099 106.54 102.137 107.079 102.137 107.982C102.205 108.486 102.335 108.981 102.524 109.453L102.794 109.551C102.794 109.551 106.389 109.174 114.149 109.36C121.909 109.547 139.856 110.611 141.009 111.028C141.499 111.214 144.977 110.429 148.832 109.066C151.775 106.667 155.233 103.67 155.581 103.459C156.092 103.141 152.849 101.164 152.849 101.164Z" fill="white"/>
</g>
<path d="M104.129 113.182C102.702 110.43 102.104 108.458 102.104 108.002C102.104 107.1 104.066 106.56 104.066 106.56C107.126 104.941 121.522 107.281 128.002 108.36C131.629 108.993 135.298 109.353 138.979 109.439C138.979 109.439 139.877 108.723 140.941 107.821C142.006 106.918 147.058 100.983 149.039 100.463C151.021 99.9433 152.816 101.184 152.816 101.184C152.816 101.184 156.058 103.146 155.514 103.524C154.969 103.902 147.058 110.72 145.076 111.98C143.094 113.241 138.96 112.701 135.359 113.422C132.259 114.04 119.703 114.805 116.823 115.041C114.661 115.554 112.392 115.365 110.344 114.501" stroke="#263238" stroke-linecap="round" stroke-linejoin="round"/>
<path d="M175.209 129.184C175.534 128.566 176.023 128.049 176.621 127.688C177.219 127.328 177.905 127.138 178.603 127.139H211.319C211.319 127.139 213.684 127.139 212.977 131.632C212.271 136.125 202.569 163.558 200.224 171.852C197.88 180.147 197.384 197.628 197.384 197.628H158.145C158.145 197.628 161.254 155.823 175.209 129.184Z" fill="white"/>
<mask id="mask1_1008_19351" style="mask-type:luminance" maskUnits="userSpaceOnUse" x="158" y="127" width="56" height="71">
<path d="M175.209 129.182C175.534 128.564 176.023 128.047 176.621 127.686C177.219 127.326 177.905 127.136 178.603 127.137H211.319C211.319 127.137 213.684 127.137 212.977 131.63C212.271 136.123 202.569 163.556 200.224 171.851C197.88 180.145 197.384 197.626 197.384 197.626H158.145C158.145 197.626 161.254 155.821 175.209 129.182Z" fill="white"/>
</mask>
<g mask="url(#mask1_1008_19351)">
<path opacity="0.16" d="M189.945 127.137H178.604C177.906 127.136 177.22 127.326 176.622 127.686C176.024 128.047 175.536 128.564 175.21 129.182C161.255 155.821 158.111 197.611 158.111 197.611H175.71L180.051 181.126L198.151 184.859C198.278 183.475 198.425 182.068 198.597 180.679L198.2 176.265C198.2 176.265 194.492 172.366 193.324 171.389C192.157 170.413 192.932 168.652 192.736 161.045C192.539 153.437 185.712 147.968 183.171 143.284C180.63 138.6 184.539 135.671 188.051 130.987C189.302 129.295 189.812 128.049 189.945 127.137Z" fill="black"/>
</g>
<path d="M175.209 129.184C175.534 128.566 176.023 128.049 176.621 127.688C177.219 127.328 177.905 127.138 178.603 127.139H211.319C211.319 127.139 213.684 127.139 212.977 131.632C212.271 136.125 202.569 163.558 200.224 171.852C197.88 180.147 197.384 197.628 197.384 197.628H158.145C158.145 197.628 161.254 155.823 175.209 129.184Z" stroke="#263238" stroke-linecap="round" stroke-linejoin="round"/>
<path d="M205.643 134.94C202.338 142.655 195.343 173.198 194.205 197.611H197.364C197.364 197.611 197.854 180.11 200.204 171.835C202.553 163.56 212.265 136.122 212.957 131.614C213.648 127.106 211.299 127.121 211.299 127.121C211.299 127.121 208.297 128.754 205.643 134.94Z" fill="#263238" stroke="#263238" stroke-linecap="round" stroke-linejoin="round"/>
<path d="M148.171 119.519C148.171 119.519 142.952 116.459 140.975 111.063C138.999 105.668 156.45 97.025 164.029 96.4855C171.607 95.9459 173.745 97.9226 178.253 105.663C182.761 113.403 185.812 124.017 183.472 129.236C181.132 134.455 177.174 135.716 180.039 140.027C182.903 144.338 191.016 156.581 190.476 162.34C189.937 168.098 184.36 173.131 176.252 173.68C168.144 174.229 157.353 169.359 148.357 161.418C139.362 153.476 141.696 141.798 144.924 138.021C148.151 134.244 153.022 132.802 153.38 129.025C153.738 125.248 148.171 119.519 148.171 119.519Z" fill="#263238" stroke="#263238" stroke-linecap="round" stroke-linejoin="round"/>
<path d="M170.416 110.98C173.187 116.141 176.655 123.052 177.739 127.226C179.632 134.534 169.891 139.135 172.594 142.652" stroke="white" stroke-linecap="round" stroke-linejoin="round"/>
<path d="M166.637 104.221C166.637 104.221 167.716 106.06 169.207 108.768" stroke="white" stroke-linecap="round" stroke-linejoin="round"/>
<path d="M181.176 117.203C181.495 118.17 181.703 119.171 181.794 120.185" stroke="white" stroke-linecap="round" stroke-linejoin="round"/>
<path d="M168.514 101.535C168.514 101.535 177.039 107.833 180.443 115.372" stroke="white" stroke-linecap="round" stroke-linejoin="round"/>
<path d="M156.682 106.262C150.595 107.969 141.839 110.74 142.551 112.339" stroke="white" stroke-linecap="round" stroke-linejoin="round"/>
<path d="M162.308 104.76C162.308 104.76 161.008 105.083 159.07 105.603" stroke="white" stroke-linecap="round" stroke-linejoin="round"/>
<path d="M154.779 101.581C158.266 100.482 161.918 100 165.57 100.158" stroke="white" stroke-linecap="round" stroke-linejoin="round"/>
<path d="M152.295 102.597C152.846 102.31 153.417 102.061 154.002 101.852" stroke="white" stroke-linecap="round" stroke-linejoin="round"/>
<path d="M104.129 113.182C103.303 111.669 102.645 110.07 102.167 108.414C102.643 110.071 103.301 111.67 104.129 113.182ZM102.113 108.134C102.113 108.164 102.113 108.198 102.113 108.242C102.123 108.198 102.118 108.164 102.113 108.134ZM104.129 113.177C105.963 116.651 108.246 119.87 110.917 122.751C117.397 129.77 136.114 148.13 137.895 149.39C139.675 150.651 139.155 154.246 137.895 157.846C136.634 161.447 131.955 166.675 132.136 172.424C132.318 178.173 134.098 187.002 133.937 188.802C133.775 190.602 129.272 196.723 129.272 196.723H175.702C175.702 196.723 169.915 189.366 169.915 186.85C169.915 184.333 177.861 152.093 178.219 149.753C178.577 147.413 177.14 145.795 174.26 145.613C171.381 145.432 160.404 143.092 159.864 141.292C159.325 139.492 162.743 132.654 162.743 132.654L151.953 133.194C151.953 133.194 151.413 137.873 150.692 138.776C149.971 139.678 148.892 137.873 146.371 136.618C143.85 135.362 139.013 134.278 137.193 132.836C135.374 131.394 118.118 115.178 118.118 115.178" fill="white"/>
<mask id="mask2_1008_19351" style="mask-type:luminance" maskUnits="userSpaceOnUse" x="102" y="108" width="77" height="89">
<path d="M104.127 113.182C103.301 111.669 102.643 110.07 102.165 108.414C102.641 110.071 103.299 111.67 104.127 113.182ZM102.111 108.134C102.111 108.164 102.111 108.198 102.111 108.242C102.121 108.198 102.116 108.164 102.111 108.134ZM104.127 113.177C105.961 116.651 108.244 119.87 110.916 122.751C117.395 129.77 136.112 148.13 137.893 149.39C139.673 150.651 139.153 154.246 137.893 157.846C136.632 161.447 131.953 166.675 132.134 172.424C132.316 178.173 134.096 187.002 133.935 188.802C133.773 190.602 129.27 196.723 129.27 196.723H175.701C175.701 196.723 169.913 189.366 169.913 186.85C169.913 184.333 177.859 152.093 178.217 149.753C178.575 147.413 177.138 145.795 174.258 145.613C171.379 145.432 160.402 143.092 159.862 141.292C159.323 139.492 162.742 132.654 162.742 132.654L151.951 133.194C151.951 133.194 151.411 137.873 150.69 138.776C149.969 139.678 148.89 137.873 146.369 136.618C143.848 135.362 139.011 134.278 137.192 132.836C135.372 131.394 118.116 115.178 118.116 115.178" fill="white"/>
</mask>
<g mask="url(#mask2_1008_19351)">
<path d="M139.953 134.221C140.851 135.79 141.748 137.208 141.748 137.208C141.748 137.208 144.775 138.91 145.53 138.91C146.285 138.91 150.827 141.362 150.827 141.362C150.827 141.362 154.614 140.416 153.28 137.198C152.859 136.374 152.328 135.612 151.701 134.932C151.475 136.359 151.112 138.228 150.685 138.763C149.964 139.66 148.885 137.86 146.364 136.605C144.731 135.79 142.087 135.045 139.953 134.221Z" fill="#1FB9B3"/>
<path d="M130.709 126.937C125.152 121.791 118.118 115.194 118.118 115.194L114.028 114.605L113.537 114.88C113.537 114.88 125.083 125.097 127.541 126.235C128.535 126.692 129.615 126.931 130.709 126.937Z" fill="#1FB9B3"/>
<path d="M136.531 132.263L136.09 131.871C136.315 132.244 136.443 132.479 136.443 132.479L136.531 132.263Z" fill="#1FB9B3"/>
<g opacity="0.5">
<path d="M139.949 134.221C140.847 135.79 141.744 137.208 141.744 137.208C141.744 137.208 144.771 138.91 145.526 138.91C146.282 138.91 150.824 141.362 150.824 141.362C150.824 141.362 154.61 140.416 153.276 137.198C152.855 136.374 152.324 135.612 151.697 134.932C151.471 136.359 151.108 138.228 150.681 138.763C149.96 139.66 148.881 137.86 146.36 136.605C144.727 135.79 142.083 135.045 139.949 134.221Z" fill="white"/>
<path d="M130.709 126.937C125.152 121.791 118.118 115.194 118.118 115.194L114.028 114.605L113.537 114.88C113.537 114.88 125.083 125.097 127.541 126.235C128.535 126.692 129.615 126.931 130.709 126.937Z" fill="white"/>
<path d="M136.531 132.263L136.09 131.871C136.315 132.244 136.443 132.479 136.443 132.479L136.531 132.263Z" fill="white"/>
</g>
</g>
<path d="M102.103 108.002C102.101 108.036 102.101 108.071 102.103 108.105M102.167 108.414C102.645 110.07 103.303 111.669 104.129 113.182C103.301 111.67 102.643 110.071 102.167 108.414ZM102.167 108.414C102.153 108.367 102.144 108.32 102.138 108.272M104.129 113.177C105.963 116.651 108.246 119.87 110.917 122.751C117.397 129.77 136.114 148.13 137.895 149.39C139.675 150.651 139.155 154.246 137.895 157.846C136.634 161.447 131.955 166.675 132.136 172.424C132.318 178.173 134.098 187.002 133.937 188.802C133.775 190.602 129.272 196.723 129.272 196.723H175.702C175.702 196.723 169.915 189.366 169.915 186.85C169.915 184.333 177.861 152.093 178.219 149.753C178.577 147.413 177.14 145.795 174.26 145.613C171.381 145.432 160.404 143.092 159.864 141.292C159.325 139.492 162.743 132.654 162.743 132.654L151.953 133.194C151.953 133.194 151.413 137.873 150.692 138.776C149.971 139.678 148.892 137.873 146.371 136.618C143.85 135.362 139.013 134.278 137.193 132.836C135.374 131.394 118.118 115.178 118.118 115.178M102.113 108.134C102.113 108.164 102.113 108.198 102.113 108.242C102.123 108.198 102.118 108.164 102.113 108.134Z" stroke="#263238" stroke-linecap="round" stroke-linejoin="round"/>
<path d="M118.119 115.198C118.119 115.198 112.37 115.306 109.162 112.662" stroke="#263238" stroke-linecap="round" stroke-linejoin="round"/>
<path d="M159.869 141.292C159.33 139.497 162.749 132.654 162.749 132.654L151.958 133.194C151.958 133.194 151.418 137.873 150.697 138.776C149.976 139.678 148.897 137.873 146.376 136.618C146.185 136.519 145.974 136.426 145.758 136.333L145.105 146.589C145.105 146.589 146.052 156.522 157.402 154.634C161.998 153.868 166.903 149.768 171.136 145.157C166.781 144.358 160.281 142.67 159.869 141.292Z" fill="white"/>
<mask id="mask3_1008_19351" style="mask-type:luminance" maskUnits="userSpaceOnUse" x="145" y="132" width="27" height="23">
<path d="M159.871 141.288C159.332 139.493 162.751 132.65 162.751 132.65L151.96 133.19C151.96 133.19 151.42 137.869 150.699 138.772C149.978 139.674 148.899 137.869 146.378 136.614C146.187 136.516 145.976 136.422 145.76 136.329L145.107 146.585C145.107 146.585 146.054 156.518 157.404 154.63C162 153.864 166.905 149.764 171.138 145.153C166.783 144.354 160.283 142.666 159.871 141.288Z" fill="white"/>
</mask>
<g mask="url(#mask3_1008_19351)">
<path d="M159.566 134.01C159.566 134.01 158.914 137.669 158.389 141.716C157.864 145.762 157.477 148.774 157.477 148.774L159.87 141.289L162.568 133.357C162.568 133.357 159.958 133.357 159.566 134.01Z" fill="#1FB9B3"/>
<path opacity="0.5" d="M159.566 134.01C159.566 134.01 158.914 137.669 158.389 141.716C157.864 145.762 157.477 148.774 157.477 148.774L159.87 141.289L162.568 133.357C162.568 133.357 159.958 133.357 159.566 134.01Z" fill="white"/>
</g>
<path d="M159.869 141.292C159.33 139.497 162.749 132.654 162.749 132.654L151.958 133.194C151.958 133.194 151.418 137.873 150.697 138.776C149.976 139.678 148.897 137.873 146.376 136.618C146.185 136.519 145.974 136.426 145.758 136.333L145.105 146.589C145.105 146.589 146.052 156.522 157.402 154.634C161.998 153.868 166.903 149.768 171.136 145.157C166.781 144.358 160.281 142.67 159.869 141.292Z" stroke="#263238" stroke-linecap="round" stroke-linejoin="round"/>
<path d="M150.693 138.777C149.972 139.675 148.893 137.875 146.372 136.619C144.782 135.819 142.251 135.094 140.157 134.309C139.564 132.901 138.779 131.067 138.274 129.958C137.376 127.996 135.934 129.237 135.934 129.237C135.182 128.381 134.574 127.409 134.134 126.358C133.236 124.396 131.794 124.558 129.817 124.2C127.841 123.842 123.696 120.06 123.696 120.06C123.696 120.06 121.758 118.588 120.959 117.857C120.027 119.692 117.795 122.919 112.969 124.935C120.665 132.975 136.277 148.249 137.915 149.396C139.716 150.652 139.176 154.252 137.915 157.853C136.655 161.453 131.976 166.682 132.157 172.43C132.339 178.179 134.119 187.008 133.957 188.808C133.795 190.412 130.205 195.44 129.425 196.519L131.255 196.725H140.78C140.726 191.898 140.731 172.2 144.032 164.352C147.814 155.331 150.693 138.777 150.693 138.777Z" fill="#1FB9B3"/>
<mask id="mask4_1008_19351" style="mask-type:luminance" maskUnits="userSpaceOnUse" x="112" y="117" width="39" height="80">
<path d="M150.695 138.775C149.974 139.673 148.895 137.873 146.374 136.617C144.784 135.818 142.253 135.092 140.159 134.307C139.566 132.899 138.781 131.065 138.276 129.956C137.378 127.994 135.936 129.235 135.936 129.235C135.183 128.379 134.575 127.407 134.136 126.356C133.238 124.394 131.796 124.556 129.819 124.198C127.843 123.84 123.698 120.058 123.698 120.058C123.698 120.058 121.76 118.586 120.961 117.855C120.029 119.69 117.797 122.917 112.971 124.933C120.667 132.973 136.279 148.247 137.917 149.395C139.718 150.65 139.178 154.25 137.917 157.851C136.657 161.451 131.978 166.68 132.159 172.428C132.34 178.177 134.121 187.006 133.959 188.806C133.797 190.41 130.207 195.438 129.427 196.517L131.256 196.723H140.782C140.728 191.896 140.733 172.198 144.034 164.35C147.816 155.33 150.695 138.775 150.695 138.775Z" fill="white"/>
</mask>
<g mask="url(#mask4_1008_19351)">
<path opacity="0.16" d="M146.371 136.617C144.782 135.818 142.251 135.092 140.157 134.307C139.563 132.899 138.778 131.065 138.273 129.956C137.376 127.994 135.933 129.235 135.933 129.235C135.181 128.379 134.573 127.407 134.133 126.356C133.236 124.394 131.794 124.556 129.817 124.198C127.84 123.84 123.696 120.058 123.696 120.058C123.696 120.058 121.758 118.586 120.959 117.855C120.56 118.634 120.085 119.372 119.541 120.058C122.759 122.78 126.31 125.664 127.551 126.238C130.003 127.371 130.577 126.424 132.456 127.562C134.334 128.7 136.429 132.467 136.429 132.467C136.429 132.467 137.567 129.436 138.513 131.521C139.46 133.605 141.731 137.196 141.731 137.196C141.731 137.196 144.758 138.898 145.513 138.898C146.106 138.898 149.015 140.409 150.251 141.061C150.526 139.624 150.678 138.761 150.678 138.761C149.972 139.673 148.892 137.873 146.371 136.617Z" fill="black"/>
</g>
<path d="M150.693 138.777C149.972 139.675 148.893 137.875 146.372 136.619C144.782 135.819 142.251 135.094 140.157 134.309C139.564 132.901 138.779 131.067 138.274 129.958C137.376 127.996 135.934 129.237 135.934 129.237C135.182 128.381 134.574 127.409 134.134 126.358C133.236 124.396 131.794 124.558 129.817 124.2C127.841 123.842 123.696 120.06 123.696 120.06C123.696 120.06 121.758 118.588 120.959 117.857C120.027 119.692 117.795 122.919 112.969 124.935C120.665 132.975 136.277 148.249 137.915 149.396C139.716 150.652 139.176 154.252 137.915 157.853C136.655 161.453 131.976 166.682 132.157 172.43C132.339 178.179 134.119 187.008 133.957 188.808C133.795 190.412 130.205 195.44 129.425 196.519L131.255 196.725H140.78C140.726 191.898 140.731 172.2 144.032 164.352C147.814 155.331 150.693 138.777 150.693 138.777Z" stroke="#263238" stroke-linecap="round" stroke-linejoin="round"/>
<path d="M150.82 138.15C150.82 138.15 148.583 137.463 147.205 138.67C145.827 139.876 143.771 146.066 142.56 152.781C141.813 156.69 142.328 160.735 144.031 164.332C144.031 164.332 146.862 156.911 147.72 153.296C148.578 149.681 150.82 138.15 150.82 138.15Z" fill="#1FB9B3"/>
<mask id="mask5_1008_19351" style="mask-type:luminance" maskUnits="userSpaceOnUse" x="142" y="137" width="9" height="28">
<path d="M150.818 138.148C150.818 138.148 148.581 137.461 147.203 138.668C145.825 139.874 143.769 146.064 142.558 152.779C141.811 156.688 142.327 160.734 144.029 164.33C144.029 164.33 146.86 156.909 147.718 153.294C148.576 149.679 150.818 138.148 150.818 138.148Z" fill="white"/>
</mask>
<g mask="url(#mask5_1008_19351)">
<path opacity="0.16" d="M146.529 139.242C146.529 139.242 148.148 138.85 148.815 139.075C149.377 139.316 149.902 139.635 150.375 140.022L150.821 138.148C150.152 137.806 149.392 137.681 148.648 137.79C147.535 138.016 146.529 139.242 146.529 139.242Z" fill="black"/>
</g>
<path d="M150.82 138.15C150.82 138.15 148.583 137.463 147.205 138.67C145.827 139.876 143.771 146.066 142.56 152.781C141.813 156.69 142.328 160.735 144.031 164.332C144.031 164.332 146.862 156.911 147.72 153.296C148.578 149.681 150.82 138.15 150.82 138.15Z" stroke="#263238" stroke-linecap="round" stroke-linejoin="round"/>
<path d="M135.757 138.736L138.636 150.435L132.156 135.676" stroke="#263238" stroke-linecap="round" stroke-linejoin="round"/>
<path d="M154.725 196.726H175.708C175.708 196.726 169.921 189.369 169.921 186.852C169.921 184.336 177.867 152.096 178.225 149.756C178.583 147.416 177.146 145.798 174.266 145.616C171.387 145.435 160.41 143.095 159.87 141.295C159.87 141.295 155.73 155.873 154.293 165.771C153.057 174.261 154.337 191.88 154.725 196.726Z" fill="#1FB9B3"/>
<mask id="mask6_1008_19351" style="mask-type:luminance" maskUnits="userSpaceOnUse" x="153" y="141" width="26" height="56">
<path d="M154.725 196.722H175.708C175.708 196.722 169.921 189.365 169.921 186.848C169.921 184.332 177.867 152.092 178.225 149.752C178.583 147.412 177.146 145.794 174.266 145.612C171.387 145.431 160.41 143.091 159.87 141.291C159.87 141.291 155.73 155.869 154.293 165.767C153.057 174.257 154.337 191.876 154.725 196.722Z" fill="white"/>
</mask>
<g mask="url(#mask6_1008_19351)">
<path opacity="0.16" d="M174.264 145.613C171.904 145.465 164.11 143.866 161.074 142.307L162.178 144.857C164.177 145.918 166.328 146.666 168.554 147.074C172.209 147.727 175.608 147.599 177.83 150.866L177.938 151.028C178.075 150.4 178.168 149.958 178.198 149.752C178.585 147.413 177.143 145.794 174.264 145.613Z" fill="black"/>
</g>
<path d="M154.725 196.726H175.708C175.708 196.726 169.921 189.369 169.921 186.852C169.921 184.336 177.867 152.096 178.225 149.756C178.583 147.416 177.146 145.798 174.266 145.616C171.387 145.435 160.41 143.095 159.87 141.295C159.87 141.295 155.73 155.873 154.293 165.771C153.057 174.261 154.337 191.88 154.725 196.726Z" stroke="#263238" stroke-linecap="round" stroke-linejoin="round"/>
<path d="M159.872 141.295C159.872 141.295 154.319 158.953 154.295 165.771C154.295 165.771 162.182 156.221 163.212 149.511C164.242 142.801 159.872 141.295 159.872 141.295Z" fill="#1FB9B3"/>
<mask id="mask7_1008_19351" style="mask-type:luminance" maskUnits="userSpaceOnUse" x="154" y="141" width="10" height="25">
<path d="M159.87 141.291C159.87 141.291 154.317 158.949 154.293 165.767C154.293 165.767 162.18 156.217 163.21 149.507C164.24 142.797 159.87 141.291 159.87 141.291Z" fill="white"/>
</mask>
<g mask="url(#mask7_1008_19351)">
<path opacity="0.16" d="M158.914 143.547C159.748 143.519 160.577 143.695 161.328 144.059C162.079 144.423 162.731 144.965 163.226 145.637C163.226 145.637 162.137 142.434 159.871 141.291L158.914 143.547Z" fill="black"/>
</g>
<path d="M159.872 141.295C159.872 141.295 154.319 158.953 154.295 165.771C154.295 165.771 162.182 156.221 163.212 149.511C164.242 142.801 159.872 141.295 159.872 141.295Z" stroke="#263238" stroke-linecap="round" stroke-linejoin="round"/>
<path d="M219.146 193.402C219.146 193.402 223.212 193.569 225.875 193.952C227.652 194.193 229.44 194.335 231.232 194.379C231.232 194.379 229.76 191.406 228.191 190.567C226.621 189.729 223.776 188.228 221.392 188.561C219.008 188.895 215.599 191.298 215.884 192.063C216.168 192.829 217.439 193.172 219.146 193.402Z" fill="white"/>
<mask id="mask8_1008_19351" style="mask-type:luminance" maskUnits="userSpaceOnUse" x="215" y="188" width="17" height="7">
<path d="M219.148 193.404C219.148 193.404 223.214 193.571 225.877 193.954C227.654 194.195 229.442 194.337 231.234 194.38C231.234 194.38 229.762 191.408 228.192 190.569C226.623 189.731 223.778 188.23 221.394 188.563C219.01 188.897 215.601 191.3 215.886 192.065C216.17 192.831 217.441 193.174 219.148 193.404Z" fill="white"/>
</mask>
<g mask="url(#mask8_1008_19351)">
<path d="M219.148 193.404C219.148 193.404 223.214 193.571 225.877 193.954C227.654 194.195 229.442 194.337 231.234 194.38C231.234 194.38 229.762 191.408 228.192 190.569C226.623 189.731 223.778 188.23 221.394 188.563C219.01 188.897 215.601 191.3 215.886 192.065C216.17 192.831 217.441 193.174 219.148 193.404Z" fill="#1FB9B3"/>
<path opacity="0.5" d="M219.148 193.404C219.148 193.404 223.214 193.571 225.877 193.954C227.654 194.195 229.442 194.337 231.234 194.38C231.234 194.38 229.762 191.408 228.192 190.569C226.623 189.731 223.778 188.23 221.394 188.563C219.01 188.897 215.601 191.3 215.886 192.065C216.17 192.831 217.441 193.174 219.148 193.404Z" fill="white"/>
</g>
<path d="M219.146 193.402C219.146 193.402 223.212 193.569 225.875 193.952C227.652 194.193 229.44 194.335 231.232 194.379C231.232 194.379 229.76 191.406 228.191 190.567C226.621 189.729 223.776 188.228 221.392 188.561C219.008 188.895 215.599 191.298 215.884 192.063C216.168 192.829 217.439 193.172 219.146 193.402Z" stroke="#263238" stroke-linecap="round" stroke-linejoin="round"/>
<path d="M225.902 192.185C225.902 192.185 229.125 190.513 229.929 190.537C230.734 190.562 236.08 194.177 235.815 194.756C235.635 195.024 235.376 195.229 235.073 195.342C234.77 195.454 234.44 195.469 234.128 195.383C233.534 195.104 229.934 193.574 229.934 193.574L227.58 194.128L225.902 192.185Z" fill="white"/>
<mask id="mask9_1008_19351" style="mask-type:luminance" maskUnits="userSpaceOnUse" x="225" y="190" width="11" height="6">
<path d="M225.902 192.187C225.902 192.187 229.125 190.515 229.929 190.539C230.734 190.564 236.08 194.179 235.815 194.758C235.635 195.026 235.376 195.231 235.073 195.344C234.77 195.456 234.44 195.471 234.128 195.385C233.534 195.106 229.934 193.576 229.934 193.576L227.58 194.13L225.902 192.187Z" fill="white"/>
</mask>
<g mask="url(#mask9_1008_19351)">
<path d="M225.902 192.187C225.902 192.187 229.125 190.515 229.929 190.539C230.734 190.564 236.08 194.179 235.815 194.758C235.55 195.336 234.285 195.807 234.128 195.385C233.971 194.964 229.934 193.576 229.934 193.576L227.58 194.13L225.902 192.187Z" fill="#1FB9B3"/>
<path opacity="0.5" d="M225.902 192.187C225.902 192.187 229.125 190.515 229.929 190.539C230.734 190.564 236.08 194.179 235.815 194.758C235.55 195.336 234.285 195.807 234.128 195.385C233.971 194.964 229.934 193.576 229.934 193.576L227.58 194.13L225.902 192.187Z" fill="white"/>
</g>
<path d="M225.902 192.185C225.902 192.185 229.125 190.513 229.929 190.537C230.734 190.562 236.08 194.177 235.815 194.756C235.635 195.024 235.376 195.229 235.073 195.342C234.77 195.454 234.44 195.469 234.128 195.383C233.534 195.104 229.934 193.574 229.934 193.574L227.58 194.128L225.902 192.185Z" stroke="#263238" stroke-linecap="round" stroke-linejoin="round"/>
<path d="M223.6 189.435C223.6 189.435 227.896 189.297 228.75 189.729C229.603 190.161 233.459 196.773 232.88 197.253C232.301 197.734 230.702 197.592 230.751 197.057C230.8 196.523 227.2 192.981 227.2 192.981L224.399 192.368L223.6 189.435Z" fill="white"/>
<mask id="mask10_1008_19351" style="mask-type:luminance" maskUnits="userSpaceOnUse" x="223" y="189" width="10" height="9">
<path d="M223.596 189.435C223.596 189.435 227.892 189.297 228.746 189.729C229.599 190.161 233.455 196.773 232.876 197.253C232.297 197.734 230.698 197.592 230.747 197.057C230.796 196.523 227.196 192.981 227.196 192.981L224.395 192.368L223.596 189.435Z" fill="white"/>
</mask>
<g mask="url(#mask10_1008_19351)">
<path d="M223.596 189.435C223.596 189.435 227.892 189.297 228.746 189.729C229.599 190.161 233.455 196.773 232.876 197.253C232.297 197.734 230.698 197.592 230.747 197.057C230.796 196.523 227.196 192.981 227.196 192.981L224.395 192.368L223.596 189.435Z" fill="#1FB9B3"/>
<path opacity="0.5" d="M223.596 189.435C223.596 189.435 227.892 189.297 228.746 189.729C229.599 190.161 233.455 196.773 232.876 197.253C232.297 197.734 230.698 197.592 230.747 197.057C230.796 196.523 227.196 192.981 227.196 192.981L224.395 192.368L223.596 189.435Z" fill="white"/>
</g>
<path d="M223.6 189.435C223.6 189.435 227.896 189.297 228.75 189.729C229.603 190.161 233.459 196.773 232.88 197.253C232.301 197.734 230.702 197.592 230.751 197.057C230.8 196.523 227.2 192.981 227.2 192.981L224.399 192.368L223.6 189.435Z" stroke="#263238" stroke-linecap="round" stroke-linejoin="round"/>
<path d="M221.053 188.547C221.053 188.547 225.403 188.405 226.267 188.846C227.13 189.288 231.034 195.973 230.446 196.464C229.857 196.954 228.248 196.802 228.297 196.263C228.346 195.723 224.702 192.138 224.702 192.138L221.867 191.515L221.053 188.547Z" fill="white"/>
<mask id="mask11_1008_19351" style="mask-type:luminance" maskUnits="userSpaceOnUse" x="221" y="188" width="10" height="9">
<path d="M221.053 188.545C221.053 188.545 225.403 188.403 226.267 188.844C227.13 189.286 231.034 195.971 230.446 196.462C229.857 196.952 228.248 196.8 228.297 196.261C228.346 195.721 224.702 192.136 224.702 192.136L221.867 191.513L221.053 188.545Z" fill="white"/>
</mask>
<g mask="url(#mask11_1008_19351)">
<path d="M221.053 188.545C221.053 188.545 225.403 188.403 226.267 188.844C227.13 189.286 231.034 195.971 230.446 196.462C229.857 196.952 228.248 196.8 228.297 196.261C228.346 195.721 224.702 192.136 224.702 192.136L221.867 191.513L221.053 188.545Z" fill="#1FB9B3"/>
<path opacity="0.5" d="M221.053 188.545C221.053 188.545 225.403 188.403 226.267 188.844C227.13 189.286 231.034 195.971 230.446 196.462C229.857 196.952 228.248 196.8 228.297 196.261C228.346 195.721 224.702 192.136 224.702 192.136L221.867 191.513L221.053 188.545Z" fill="white"/>
</g>
<path d="M221.053 188.547C221.053 188.547 225.403 188.405 226.267 188.846C227.13 189.288 231.034 195.973 230.446 196.464C229.857 196.954 228.248 196.802 228.297 196.263C228.346 195.723 224.702 192.138 224.702 192.138L221.867 191.515L221.053 188.547Z" stroke="#263238" stroke-linecap="round" stroke-linejoin="round"/>
<path d="M171.587 163.62C174.736 168.471 181.058 180.763 182.903 182.146C185.782 184.304 205.029 189.543 206.883 190.975C208.737 192.407 208.61 193.844 210.366 194.369C212.122 194.894 218.704 196.4 221.215 196.635C223.727 196.871 222.604 195.316 222.604 195.316L218.321 192.373L222.054 191.451C222.054 191.451 225.797 195.954 226.498 196.199C227.2 196.444 228.436 196.199 228.357 195.645C228.22 194.757 224.227 187.492 222.81 187.183C221.392 186.874 212.789 188.066 212.789 188.066C212.789 188.066 194.743 175.897 194.42 175.465C194.42 175.465 193.34 172.405 192.458 171.144C191.575 169.884 191.015 170.247 191.015 170.247C191.015 170.247 191.378 168.623 190.839 168.083L187.96 165.204L187.857 165.342C187.366 164.361 186.876 163.242 186.336 161.967C184.83 158.421 179.499 148.468 178.601 147.031C177.929 145.957 172.298 145.187 169.443 144.863" fill="#1FB9B3"/>
<mask id="mask12_1008_19351" style="mask-type:luminance" maskUnits="userSpaceOnUse" x="169" y="144" width="60" height="53">
<path d="M171.587 163.616C174.736 168.467 181.058 180.759 182.903 182.142C185.782 184.3 205.029 189.539 206.883 190.971C208.737 192.403 208.61 193.841 210.366 194.365C212.122 194.89 218.704 196.396 221.215 196.631C223.727 196.867 222.604 195.312 222.604 195.312L218.321 192.369L222.054 191.447C222.054 191.447 225.797 195.95 226.498 196.195C227.2 196.44 228.436 196.195 228.357 195.641C228.22 194.753 224.227 187.489 222.81 187.18C221.392 186.871 212.789 188.062 212.789 188.062C212.789 188.062 194.743 175.893 194.42 175.462C194.42 175.462 193.34 172.401 192.458 171.14C191.575 169.88 191.015 170.243 191.015 170.243C191.015 170.243 191.378 168.619 190.839 168.08L187.96 165.2L187.857 165.338C187.366 164.357 186.876 163.238 186.336 161.963C184.83 158.417 179.499 148.465 178.601 147.027C177.929 145.953 172.298 145.183 169.443 144.859" fill="white"/>
</mask>
<g mask="url(#mask12_1008_19351)">
<path opacity="0.16" d="M184.125 163.929C186.479 166.018 185.695 166.018 185.17 167.853C184.645 169.687 185.562 167.2 187.784 167.333C190.006 167.465 189.354 170.335 189.089 170.86C188.824 171.384 191.836 172.037 191.311 173.209C190.786 174.381 187.784 176.083 186.087 177.785C184.39 179.487 190.526 175.039 192.616 174.911C193.253 174.867 193.778 174.95 194.219 174.94C193.756 173.628 193.161 172.366 192.444 171.173C191.541 169.913 191.002 170.276 191.002 170.276C191.002 170.276 191.365 168.652 190.825 168.113L187.946 165.234L187.843 165.371C187.352 164.39 186.862 163.272 186.322 161.996C184.817 158.45 179.485 148.498 178.587 147.061C177.915 145.986 172.284 145.216 169.43 144.893L169.69 147.164L169.753 147.213C169.753 147.213 173.28 147.865 174.457 147.997C175.634 148.13 177.072 149.17 176.939 149.959C176.807 150.749 173.413 154.271 174.457 154.536C175.502 154.801 176.679 151.921 177.856 152.314C179.034 152.706 181.756 161.839 184.125 163.929Z" fill="black"/>
</g>
<path d="M171.587 163.62C174.736 168.471 181.058 180.763 182.903 182.146C185.782 184.304 205.029 189.543 206.883 190.975C208.737 192.407 208.61 193.844 210.366 194.369C212.122 194.894 218.704 196.4 221.215 196.635C223.727 196.871 222.604 195.316 222.604 195.316L218.321 192.373L222.054 191.451C222.054 191.451 225.797 195.954 226.498 196.199C227.2 196.444 228.436 196.199 228.357 195.645C228.22 194.757 224.227 187.492 222.81 187.183C221.392 186.874 212.789 188.066 212.789 188.066C212.789 188.066 194.743 175.897 194.42 175.465C194.42 175.465 193.34 172.405 192.458 171.144C191.575 169.884 191.015 170.247 191.015 170.247C191.015 170.247 191.378 168.623 190.839 168.083L187.96 165.204L187.857 165.342C187.366 164.361 186.876 163.242 186.336 161.967C184.83 158.421 179.499 148.468 178.601 147.031C177.929 145.957 172.298 145.187 169.443 144.863" stroke="#263238" stroke-linecap="round" stroke-linejoin="round"/>
<path d="M171.634 156.963C171.502 157.404 171.389 157.846 171.301 158.297" stroke="#263238" stroke-linecap="round" stroke-linejoin="round"/>
<path d="M176.404 148.844C174.863 150.601 173.563 152.555 172.539 154.656" stroke="#263238" stroke-linecap="round" stroke-linejoin="round"/>
<path d="M183.609 176.695C184.934 174.733 187.043 172.246 189.368 171.535" stroke="#263238" stroke-linecap="round" stroke-linejoin="round"/>
<path d="M182.143 179.109C182.143 179.109 182.378 178.648 182.8 177.951" stroke="#263238" stroke-linecap="round" stroke-linejoin="round"/>
<path d="M182.143 176.011C182.143 176.011 184.551 169.988 186.959 168.438C189.368 166.888 187.989 169.988 187.989 169.988" stroke="#263238" stroke-linecap="round" stroke-linejoin="round"/>
<path d="M206.885 190.982C208.744 192.419 208.612 193.851 210.368 194.376C212.123 194.901 218.706 196.407 221.217 196.642C223.729 196.878 222.605 195.323 222.605 195.323L218.323 192.38L222.056 191.458C222.056 191.458 225.799 195.96 226.5 196.206C227.201 196.451 228.536 196.539 228.359 195.651C228.016 193.935 224.229 187.499 222.811 187.19C221.394 186.881 212.791 188.073 212.791 188.073C212.791 188.073 196.354 176.792 194.554 175.57C187.574 176.242 184.253 179.897 182.855 182.089L182.905 182.128C185.784 184.306 205.031 189.545 206.885 190.982Z" fill="white"/>
<mask id="mask13_1008_19351" style="mask-type:luminance" maskUnits="userSpaceOnUse" x="182" y="175" width="47" height="22">
<path d="M206.885 190.978C208.744 192.415 208.612 193.847 210.368 194.372C212.123 194.897 218.706 196.403 221.217 196.638C223.729 196.874 222.605 195.319 222.605 195.319L218.323 192.376L222.056 191.454C222.056 191.454 225.799 195.956 226.5 196.202C227.201 196.447 228.536 196.535 228.359 195.647C228.016 193.931 224.229 187.495 222.811 187.186C221.394 186.877 212.791 188.069 212.791 188.069C212.791 188.069 196.354 176.788 194.554 175.566C187.574 176.238 184.253 179.893 182.855 182.085L182.905 182.124C185.784 184.302 205.031 189.541 206.885 190.978Z" fill="white"/>
</mask>
<g mask="url(#mask13_1008_19351)">
<path d="M228.352 195.669C227.459 193.486 224.222 187.517 222.804 187.208C221.387 186.899 212.783 188.091 212.783 188.091C212.783 188.091 196.347 176.809 194.547 175.588C192.715 175.747 190.917 176.182 189.215 176.878C191.81 178.349 209.105 188.159 211.287 188.596C213.602 189.086 221.328 187.816 222.686 188.728C223.55 189.307 226.12 193.383 227.856 196.277C228.352 196.204 228.533 196.11 228.352 195.669Z" fill="#1FB9B3"/>
<path opacity="0.5" d="M228.352 195.669C226.959 192.544 224.222 187.517 222.804 187.208C221.387 186.899 212.783 188.091 212.783 188.091C212.783 188.091 196.347 176.809 194.547 175.588C192.715 175.747 190.917 176.182 189.215 176.878C191.81 178.349 209.105 188.159 211.287 188.596C213.602 189.086 221.328 187.816 222.686 188.728C223.55 189.307 226.12 193.383 227.856 196.277C228.352 196.204 228.548 196.105 228.352 195.669Z" fill="white"/>
</g>
<path d="M206.885 190.982C208.744 192.419 208.612 193.851 210.368 194.376C212.123 194.901 218.706 196.407 221.217 196.642C223.729 196.878 222.605 195.323 222.605 195.323L218.323 192.38L222.056 191.458C222.056 191.458 225.799 195.96 226.5 196.206C227.201 196.451 228.536 196.539 228.359 195.651C228.016 193.935 224.229 187.499 222.811 187.19C221.394 186.881 212.791 188.073 212.791 188.073C212.791 188.073 196.354 176.792 194.554 175.57C187.574 176.242 184.253 179.897 182.855 182.089L182.905 182.128C185.784 184.306 205.031 189.545 206.885 190.982Z" stroke="#263238" stroke-linecap="round" stroke-linejoin="round"/>
<path d="M163.532 105.328L148.758 111.494C148.579 114.09 147.936 116.634 146.86 119.003C145.114 122.697 146.134 129.686 147.812 133.458C149.489 137.23 156.881 135.754 159.584 135.283C161.417 134.934 163.212 134.41 164.945 133.718C165.734 134.022 166.587 134.121 167.425 134.004C168.262 133.887 169.056 133.559 169.732 133.051C169.732 133.051 161.825 110.856 163.532 105.328Z" fill="white"/>
<mask id="mask14_1008_19351" style="mask-type:luminance" maskUnits="userSpaceOnUse" x="145" y="105" width="25" height="31">
<path d="M163.534 105.326L148.76 111.492C148.581 114.088 147.938 116.632 146.862 119.001C145.116 122.695 146.136 129.684 147.814 133.456C149.491 137.228 156.883 135.752 159.586 135.281C161.419 134.932 163.214 134.408 164.947 133.716C165.736 134.02 166.589 134.119 167.427 134.002C168.264 133.885 169.058 133.557 169.734 133.049C169.734 133.049 161.827 110.854 163.534 105.326Z" fill="white"/>
</mask>
<g mask="url(#mask14_1008_19351)">
<path d="M163.534 105.326L148.76 111.492C148.581 114.088 147.938 116.632 146.862 119.001C145.116 122.695 146.136 129.684 147.814 133.456C148.094 134.063 148.546 134.574 149.113 134.928V134.643C149.113 134.643 146.372 127.85 146.892 123.931C147.411 120.012 149.638 118.045 149.898 115.568C150.158 113.091 150.026 111.914 154.995 110.084C159.963 108.254 162.048 106.557 162.568 108.382C163.088 110.207 165.182 122.234 166.619 125.108C168.057 127.982 167.924 130.994 165.707 132.294C163.466 133.639 161.065 134.697 158.56 135.443L159.605 135.261C161.438 134.913 163.234 134.389 164.966 133.697C165.755 134.001 166.609 134.099 167.446 133.982C168.284 133.866 169.078 133.538 169.754 133.029C169.754 133.029 161.827 110.854 163.534 105.326Z" fill="#1FB9B3"/>
<path opacity="0.5" d="M163.534 105.326L148.76 111.492C148.581 114.088 147.938 116.632 146.862 119.001C145.116 122.695 146.136 129.684 147.814 133.456C148.094 134.063 148.546 134.574 149.113 134.928V134.643C149.113 134.643 146.372 127.85 146.892 123.931C147.411 120.012 149.638 118.045 149.898 115.568C150.158 113.091 150.026 111.914 154.995 110.084C159.963 108.254 162.048 106.557 162.568 108.382C163.088 110.207 165.182 122.234 166.619 125.108C168.057 127.982 167.924 130.994 165.707 132.294C163.466 133.639 161.065 134.697 158.56 135.443L159.605 135.261C161.438 134.913 163.234 134.389 164.966 133.697C165.755 134.001 166.609 134.099 167.446 133.982C168.284 133.866 169.078 133.538 169.754 133.029C169.754 133.029 161.827 110.854 163.534 105.326Z" fill="white"/>
</g>
<path d="M163.532 105.328L148.758 111.494C148.579 114.09 147.936 116.634 146.86 119.003C145.114 122.697 146.134 129.686 147.812 133.458C149.489 137.23 156.881 135.754 159.584 135.283C161.417 134.934 163.212 134.41 164.945 133.718C165.734 134.022 166.587 134.121 167.425 134.004C168.262 133.887 169.056 133.559 169.732 133.051C169.732 133.051 161.825 110.856 163.532 105.328Z" stroke="#263238" stroke-linecap="round" stroke-linejoin="round"/>
<path d="M156.07 114.996C156.11 115.865 156.002 116.734 155.751 117.566C155.359 118.547 151.655 122.403 151.768 122.82C151.881 123.236 152.215 124.576 152.872 124.703" stroke="#263238" stroke-linecap="round" stroke-linejoin="round"/>
<path d="M160.176 118.446C160.691 117.416 162.383 118.422 162.358 120.742" stroke="#263238" stroke-linecap="round" stroke-linejoin="round"/>
<path d="M151.787 115.412C151.787 115.412 153.229 114.779 154.519 117.114" stroke="#263238" stroke-linecap="round" stroke-linejoin="round"/>
<path d="M158.125 121.844C159.791 121.928 161.376 122.592 162.603 123.722" stroke="#263238" stroke-width="0.5" stroke-linecap="round" stroke-linejoin="round"/>
<path d="M150.045 118.779C150.906 118.894 151.748 119.127 152.546 119.471" stroke="#263238" stroke-width="0.5" stroke-linecap="round" stroke-linejoin="round"/>
<path d="M155.906 112.818C155.525 112.617 155.103 112.507 154.672 112.496C154.241 112.486 153.814 112.576 153.424 112.759C152.105 113.392 151.295 114.089 151.384 113.279C151.472 112.47 153.022 111.577 153.488 111.459C153.954 111.342 156.038 111.018 155.906 112.818Z" fill="#263238"/>
<path d="M159.604 110.989C160.979 112.101 162.071 113.523 162.792 115.138C163.773 117.591 164.548 114.913 163.773 113.309C162.998 111.705 160.756 109.998 159.604 110.989Z" fill="#263238"/>
<path d="M169.95 137.247C169.95 138.39 169.302 139.317 168.507 139.317C167.713 139.317 167.07 138.39 167.07 137.247C167.07 136.104 167.713 133.195 168.507 133.195C169.302 133.195 169.95 136.104 169.95 137.247Z" fill="#1FB9B3" stroke="#263238" stroke-linecap="round" stroke-linejoin="round"/>
<path d="M160.303 117.998C160.246 118.148 160.202 118.302 160.17 118.459C160.028 119.185 159.886 120.701 160.17 120.764C160.455 120.828 161.151 119.411 161.274 118.685C161.301 118.542 161.318 118.398 161.323 118.253C160.988 118.148 160.647 118.063 160.303 117.998Z" fill="#263238"/>
<path d="M151.933 115.269C151.89 115.397 151.855 115.528 151.83 115.662C151.683 116.387 151.688 117.982 151.997 118.04C152.306 118.099 152.811 116.608 152.953 115.882C152.989 115.706 153.009 115.527 153.012 115.348C152.661 115.251 152.295 115.224 151.933 115.269Z" fill="#263238"/>
<path d="M160.176 118.469L160.666 117.557C161.444 117.708 162.148 118.116 162.668 118.714" stroke="#263238" stroke-width="0.75" stroke-linecap="round" stroke-linejoin="round"/>
<path d="M151.936 115.272L152.426 114.698C152.426 114.698 152.637 114.595 153.795 115.119" stroke="#263238" stroke-width="0.75" stroke-linecap="round" stroke-linejoin="round"/>
<path d="M150.074 128.574C150.074 128.574 150.898 127.059 152.002 127.059C153.105 127.059 153.93 129.536 153.93 129.536" stroke="#263238" stroke-linecap="round" stroke-linejoin="round"/>
<path d="M114.557 193.936C113.49 193.883 112.443 193.634 111.467 193.2C111.331 193.15 111.206 193.073 111.101 192.973C110.996 192.873 110.912 192.752 110.855 192.619C110.798 192.486 110.768 192.342 110.768 192.197C110.768 192.052 110.798 191.908 110.855 191.775C110.913 191.642 110.996 191.522 111.102 191.422C111.207 191.322 111.331 191.245 111.468 191.194C111.604 191.144 111.749 191.122 111.893 191.13C112.038 191.137 112.18 191.174 112.31 191.238C113.291 191.655 114.562 191.915 114.9 191.768C115.523 191.072 116.48 186.863 115.244 184.833C114.964 184.381 114.704 184.298 114.532 184.278C113.831 184.18 112.791 184.901 112.423 185.259C112.321 185.356 112.2 185.431 112.069 185.481C111.937 185.532 111.797 185.555 111.656 185.551C111.515 185.547 111.377 185.515 111.248 185.458C111.12 185.4 111.004 185.318 110.908 185.215C110.811 185.113 110.735 184.992 110.685 184.861C110.635 184.729 110.612 184.589 110.616 184.448C110.62 184.307 110.652 184.169 110.709 184.04C110.767 183.912 110.849 183.796 110.952 183.7C111.143 183.513 112.914 181.919 114.802 182.174C115.27 182.242 115.717 182.418 116.106 182.687C116.496 182.955 116.818 183.31 117.049 183.724C118.868 186.692 117.622 192.337 116.225 193.456C115.739 193.799 115.151 193.969 114.557 193.936Z" fill="white"/>
<mask id="mask15_1008_19351" style="mask-type:luminance" maskUnits="userSpaceOnUse" x="110" y="182" width="8" height="12">
<path d="M114.559 193.94C113.492 193.887 112.445 193.638 111.469 193.204C111.333 193.154 111.208 193.077 111.103 192.977C110.998 192.877 110.914 192.756 110.857 192.623C110.8 192.49 110.77 192.346 110.77 192.201C110.77 192.056 110.8 191.912 110.857 191.779C110.914 191.646 110.998 191.526 111.104 191.426C111.209 191.326 111.333 191.248 111.469 191.198C111.606 191.148 111.751 191.126 111.895 191.134C112.04 191.141 112.182 191.178 112.312 191.242C113.293 191.659 114.564 191.919 114.902 191.772C115.525 191.076 116.482 186.867 115.245 184.836C114.966 184.385 114.706 184.302 114.534 184.282C113.833 184.184 112.793 184.905 112.425 185.263C112.323 185.36 112.202 185.435 112.071 185.485C111.939 185.535 111.799 185.559 111.658 185.555C111.517 185.551 111.379 185.519 111.25 185.461C111.122 185.404 111.006 185.321 110.909 185.219C110.813 185.117 110.737 184.996 110.687 184.865C110.637 184.733 110.614 184.593 110.618 184.452C110.622 184.311 110.654 184.173 110.711 184.044C110.769 183.916 110.851 183.8 110.954 183.703C111.145 183.517 112.916 181.923 114.804 182.178C115.272 182.246 115.719 182.422 116.108 182.691C116.498 182.959 116.82 183.314 117.051 183.728C118.87 186.695 117.624 192.341 116.226 193.459C115.741 193.803 115.153 193.972 114.559 193.94Z" fill="white"/>
</mask>
<g mask="url(#mask15_1008_19351)">
<path d="M115.993 184.511C115.865 184.206 115.663 183.938 115.407 183.729C115.15 183.52 114.846 183.378 114.522 183.314C113.296 183.118 112.143 184.349 112.015 184.486C111.898 184.628 111.826 184.801 111.807 184.983C111.789 185.166 111.826 185.35 111.912 185.512C112.105 185.473 112.284 185.381 112.427 185.247C112.795 184.903 113.835 184.182 114.537 184.266C114.708 184.266 114.968 184.369 115.248 184.82C116.484 186.831 115.527 191.059 114.904 191.756C114.566 191.903 113.3 191.643 112.315 191.226C112.193 191.175 112.064 191.147 111.932 191.142C111.941 191.277 111.983 191.407 112.055 191.521C112.127 191.635 112.226 191.729 112.344 191.795C112.964 192.126 113.648 192.32 114.35 192.364C114.751 192.383 115.143 192.246 115.444 191.981C116.366 191.133 117.18 186.792 115.993 184.511Z" fill="#1FB9B3"/>
<path opacity="0.5" d="M115.993 184.511C115.865 184.206 115.663 183.938 115.407 183.729C115.15 183.52 114.846 183.378 114.522 183.314C113.296 183.118 112.143 184.349 112.015 184.486C111.898 184.628 111.826 184.801 111.807 184.983C111.789 185.166 111.826 185.35 111.912 185.512C112.105 185.473 112.284 185.381 112.427 185.247C112.795 184.903 113.835 184.182 114.537 184.266C114.708 184.266 114.968 184.369 115.248 184.82C116.484 186.831 115.527 191.059 114.904 191.756C114.566 191.903 113.3 191.643 112.315 191.226C112.193 191.175 112.064 191.147 111.932 191.142C111.941 191.277 111.983 191.407 112.055 191.521C112.127 191.635 112.226 191.729 112.344 191.795C112.964 192.126 113.648 192.32 114.35 192.364C114.751 192.383 115.143 192.246 115.444 191.981C116.366 191.133 117.18 186.792 115.993 184.511Z" fill="white"/>
</g>
<path d="M114.557 193.936C113.49 193.883 112.443 193.634 111.467 193.2C111.331 193.15 111.206 193.073 111.101 192.973C110.996 192.873 110.912 192.752 110.855 192.619C110.798 192.486 110.768 192.342 110.768 192.197C110.768 192.052 110.798 191.908 110.855 191.775C110.913 191.642 110.996 191.522 111.102 191.422C111.207 191.322 111.331 191.245 111.468 191.194C111.604 191.144 111.749 191.122 111.893 191.13C112.038 191.137 112.18 191.174 112.31 191.238C113.291 191.655 114.562 191.915 114.9 191.768C115.523 191.072 116.48 186.863 115.244 184.833C114.964 184.381 114.704 184.298 114.532 184.278C113.831 184.18 112.791 184.901 112.423 185.259C112.321 185.356 112.2 185.431 112.069 185.481C111.937 185.532 111.797 185.555 111.656 185.551C111.515 185.547 111.377 185.515 111.248 185.458C111.12 185.4 111.004 185.318 110.908 185.215C110.811 185.113 110.735 184.992 110.685 184.861C110.635 184.729 110.612 184.589 110.616 184.448C110.62 184.307 110.652 184.169 110.709 184.04C110.767 183.912 110.849 183.796 110.952 183.7C111.143 183.513 112.914 181.919 114.802 182.174C115.27 182.242 115.717 182.418 116.106 182.687C116.496 182.955 116.818 183.31 117.049 183.724C118.868 186.692 117.622 192.337 116.225 193.456C115.739 193.799 115.151 193.969 114.557 193.936Z" stroke="#263238" stroke-linecap="round" stroke-linejoin="round"/>
<path d="M112.683 181.281H100.887V196.938H112.683V181.281Z" fill="white"/>
<mask id="mask16_1008_19351" style="mask-type:luminance" maskUnits="userSpaceOnUse" x="100" y="181" width="13" height="16">
<path d="M112.687 181.277H100.891V196.934H112.687V181.277Z" fill="white"/>
</mask>
<g mask="url(#mask16_1008_19351)">
<path d="M105.722 181.277H100.891V196.934H105.722V181.277Z" fill="#1FB9B3"/>
<path opacity="0.5" d="M105.722 181.277H100.891V196.934H105.722V181.277Z" fill="white"/>
</g>
<path d="M112.683 181.281H100.887V196.938H112.683V181.281Z" stroke="#263238" stroke-linecap="round" stroke-linejoin="round"/>
<path d="M177.513 196.725H127.119L125.476 169.022C125.43 168.753 125.444 168.478 125.515 168.215C125.586 167.952 125.714 167.708 125.888 167.499C126.063 167.29 126.281 167.121 126.528 167.005C126.774 166.888 127.043 166.827 127.315 166.824H177.297C177.571 166.824 177.842 166.884 178.09 166.999C178.339 167.114 178.559 167.282 178.736 167.491C178.913 167.7 179.043 167.946 179.115 168.21C179.188 168.474 179.201 168.751 179.156 169.022L177.513 196.725Z" fill="#263238" stroke="#263238" stroke-linecap="round" stroke-linejoin="round"/>
<path d="M129.6 167.484H176.933C177.2 167.482 177.465 167.537 177.708 167.648C177.952 167.758 178.168 167.92 178.343 168.123C178.517 168.326 178.645 168.564 178.717 168.822C178.79 169.079 178.805 169.349 178.762 169.613" stroke="white" stroke-linecap="round" stroke-linejoin="round"/>
<path d="M125.846 169.177C125.885 168.713 126.098 168.281 126.442 167.968C126.785 167.654 127.235 167.481 127.7 167.484" stroke="white" stroke-linecap="round" stroke-linejoin="round"/>
<path d="M177.724 194.025H126.908V196.723H177.724V194.025Z" fill="white" stroke="#263238" stroke-linecap="round" stroke-linejoin="round"/>
<path d="M152.135 184.039C154.124 184.039 155.736 183.073 155.736 181.881C155.736 180.689 154.124 179.723 152.135 179.723C150.147 179.723 148.535 180.689 148.535 181.881C148.535 183.073 150.147 184.039 152.135 184.039Z" fill="white" stroke="#263238" stroke-linecap="round" stroke-linejoin="round"/>
<path d="M254.365 196.404H65.1016V201H254.365V196.404Z" fill="#263238"/>
<path d="M205.288 26H114.237C111.168 26 108.68 28.4881 108.68 31.5573V83.8003C108.68 86.8695 111.168 89.3576 114.237 89.3576H205.288C208.357 89.3576 210.846 86.8695 210.846 83.8003V31.5573C210.846 28.4881 208.357 26 205.288 26Z" fill="#1FB9B3"/>
<path d="M162.166 62.4103C170.425 61.0829 176.044 53.3115 174.717 45.0522C173.39 36.793 165.618 31.1736 157.359 32.5009C149.1 33.8283 143.48 41.5997 144.808 49.859C146.135 58.1182 153.907 63.7376 162.166 62.4103Z" fill="#263238"/>
<path d="M159.649 50.2556L154.601 56.7351C154.43 57.0048 154.194 57.2276 153.915 57.3834C153.636 57.5393 153.322 57.6232 153.002 57.6278C152.564 57.6337 152.141 57.4663 151.825 57.1618C151.665 57.0146 151.538 56.8346 151.453 56.634C151.369 56.4334 151.328 56.2169 151.335 55.9993C151.35 55.5119 151.522 55.0425 151.825 54.6602L157.579 47.5431L152.183 40.4211C151.933 40.0869 151.795 39.6813 151.791 39.2635C151.79 39.0143 151.84 38.7676 151.939 38.5388C152.037 38.3101 152.182 38.1042 152.365 37.9343C152.536 37.7556 152.741 37.6135 152.969 37.5165C153.197 37.4196 153.442 37.3698 153.689 37.3702C154.006 37.3753 154.316 37.4597 154.592 37.6156C154.868 37.7716 155.101 37.9941 155.268 38.2629L160.144 44.6835L165.049 38.3708C165.224 38.0763 165.47 37.8296 165.763 37.6525C166.057 37.4754 166.389 37.3734 166.731 37.3555C166.944 37.3549 167.154 37.3982 167.349 37.4826C167.544 37.567 167.719 37.6907 167.864 37.846C168.019 37.9915 168.142 38.1671 168.227 38.3619C168.311 38.5567 168.355 38.7667 168.355 38.979C168.35 39.3589 168.219 39.7264 167.982 40.0238L162.209 47.4107L167.786 54.7682C168.05 55.097 168.196 55.5043 168.203 55.9257C168.204 56.1694 168.153 56.4106 168.052 56.6325C167.952 56.8543 167.804 57.0517 167.619 57.2108C167.259 57.5569 166.779 57.7503 166.28 57.7504C165.962 57.7464 165.649 57.6626 165.372 57.5067C165.094 57.3507 164.86 57.1276 164.691 56.8577L159.649 50.2556Z" fill="white"/>
<path d="M188.62 78.3837H130.883C129.712 78.3837 128.59 77.9186 127.762 77.0907C126.934 76.2628 126.469 75.14 126.469 73.9692C126.469 72.7984 126.934 71.6755 127.762 70.8477C128.59 70.0198 129.712 69.5547 130.883 69.5547H188.62C189.791 69.5547 190.913 70.0198 191.741 70.8477C192.569 71.6755 193.034 72.7984 193.034 73.9692C193.034 75.14 192.569 76.2628 191.741 77.0907C190.913 77.9186 189.791 78.3837 188.62 78.3837Z" fill="white"/>
<path d="M138.796 75.3912C138.758 75.3912 138.72 75.3834 138.684 75.3682C138.649 75.353 138.617 75.3308 138.59 75.3029C138.561 75.2741 138.538 75.2397 138.523 75.2017C138.508 75.1637 138.501 75.1231 138.502 75.0822C138.502 75.0131 138.52 74.9453 138.556 74.886L138.997 74.1993H138.095C138.053 74.2014 138.011 74.1947 137.972 74.1794C137.934 74.1642 137.898 74.1409 137.869 74.111C137.819 74.0523 137.791 73.9775 137.791 73.9001C137.791 73.8227 137.819 73.7479 137.869 73.6892C137.898 73.6593 137.934 73.636 137.972 73.6207C138.011 73.6055 138.053 73.5987 138.095 73.6009L138.983 73.6254L138.59 72.9878C138.551 72.9224 138.529 72.8481 138.526 72.7719C138.525 72.7311 138.533 72.6904 138.548 72.6524C138.563 72.6145 138.586 72.58 138.615 72.5512C138.642 72.5232 138.675 72.5009 138.711 72.4857C138.747 72.4706 138.786 72.4628 138.826 72.4629C138.881 72.4621 138.934 72.4775 138.981 72.5072C139.027 72.5368 139.063 72.5794 139.086 72.6297L139.517 73.3998L139.929 72.664C139.955 72.6068 139.996 72.5578 140.048 72.5223C140.1 72.4868 140.161 72.4663 140.224 72.4629C140.262 72.4629 140.3 72.4708 140.336 72.4859C140.371 72.5011 140.403 72.5233 140.43 72.5512C140.458 72.5782 140.481 72.6109 140.496 72.6472C140.511 72.6836 140.519 72.7227 140.518 72.7621C140.517 72.8318 140.497 72.8998 140.459 72.9583L140.027 73.6499L140.925 73.6254C140.967 73.6229 141.009 73.6296 141.047 73.6448C141.086 73.66 141.122 73.6835 141.151 73.7137C141.201 73.7724 141.229 73.8472 141.229 73.9246C141.229 74.002 141.201 74.0768 141.151 74.1355C141.122 74.1657 141.086 74.1892 141.047 74.2044C141.009 74.2197 140.967 74.2263 140.925 74.2238H140.018L140.42 74.8517C140.465 74.9274 140.49 75.0135 140.493 75.1018C140.495 75.1415 140.488 75.1812 140.474 75.2183C140.459 75.2553 140.438 75.2891 140.41 75.3176C140.384 75.3452 140.353 75.3672 140.318 75.3823C140.284 75.3975 140.247 75.4055 140.209 75.4059C140.148 75.4044 140.089 75.3856 140.039 75.3518C139.988 75.3179 139.949 75.2703 139.924 75.2146L139.517 74.4936L139.11 75.2146C139.081 75.2714 139.035 75.3184 138.98 75.3497C138.924 75.3811 138.86 75.3955 138.796 75.3912Z" fill="black"/>
<path d="M143.3 75.3923C143.262 75.3923 143.223 75.3845 143.188 75.3693C143.153 75.3541 143.121 75.3319 143.094 75.304C143.065 75.2752 143.042 75.2407 143.027 75.2028C143.012 75.1648 143.005 75.1241 143.006 75.0833C143.006 75.0142 143.024 74.9464 143.06 74.8871L143.501 74.2004H142.599C142.557 74.2025 142.515 74.1958 142.476 74.1805C142.437 74.1653 142.402 74.142 142.373 74.1121C142.323 74.0534 142.295 73.9786 142.295 73.9012C142.295 73.8238 142.323 73.749 142.373 73.6903C142.402 73.6604 142.437 73.637 142.476 73.6218C142.515 73.6066 142.557 73.5998 142.599 73.602L143.486 73.6265L143.07 72.9643C143.03 72.899 143.008 72.8247 143.006 72.7485C143.005 72.7076 143.012 72.667 143.027 72.629C143.042 72.591 143.065 72.5566 143.094 72.5278C143.122 72.4997 143.154 72.4775 143.191 72.4623C143.227 72.4471 143.266 72.4394 143.305 72.4395C143.36 72.4387 143.414 72.4541 143.46 72.4837C143.506 72.5134 143.543 72.556 143.565 72.6063L143.997 73.3763L144.409 72.6406C144.435 72.5833 144.476 72.5343 144.528 72.4989C144.58 72.4634 144.64 72.4429 144.703 72.4395C144.741 72.4395 144.78 72.4473 144.815 72.4625C144.85 72.4777 144.882 72.4999 144.909 72.5278C144.938 72.5547 144.96 72.5874 144.976 72.6238C144.991 72.6601 144.998 72.6993 144.997 72.7387C144.997 72.8083 144.976 72.8764 144.938 72.9349L144.507 73.6265L145.404 73.602C145.446 73.5995 145.488 73.6061 145.527 73.6214C145.566 73.6366 145.601 73.6601 145.63 73.6903C145.68 73.749 145.708 73.8238 145.708 73.9012C145.708 73.9786 145.68 74.0534 145.63 74.1121C145.601 74.1422 145.566 74.1657 145.527 74.181C145.488 74.1962 145.446 74.2028 145.404 74.2004H144.497L144.899 74.8282C144.944 74.904 144.97 74.9901 144.973 75.0784C144.974 75.1181 144.967 75.1577 144.953 75.1948C144.939 75.2319 144.917 75.2657 144.889 75.2942C144.863 75.3217 144.832 75.3437 144.798 75.3589C144.763 75.3741 144.726 75.3821 144.688 75.3825C144.627 75.3816 144.568 75.3631 144.518 75.3291C144.467 75.2951 144.427 75.2472 144.404 75.1912L143.997 74.4702L143.589 75.1912C143.565 75.2487 143.525 75.2982 143.474 75.3338C143.423 75.3694 143.362 75.3897 143.3 75.3923Z" fill="black"/>
<path d="M147.802 75.3923C147.764 75.3923 147.725 75.3845 147.69 75.3693C147.655 75.3541 147.623 75.3319 147.596 75.304C147.567 75.2752 147.544 75.2407 147.529 75.2028C147.514 75.1648 147.507 75.1241 147.508 75.0833C147.508 75.0142 147.526 74.9464 147.562 74.8871L148.003 74.2004H147.101C147.059 74.2025 147.017 74.1958 146.978 74.1805C146.939 74.1653 146.904 74.142 146.875 74.1121C146.825 74.0534 146.797 73.9786 146.797 73.9012C146.797 73.8238 146.825 73.749 146.875 73.6903C146.904 73.6604 146.939 73.637 146.978 73.6218C147.017 73.6066 147.059 73.5998 147.101 73.602L147.988 73.6265L147.572 72.9643C147.532 72.899 147.51 72.8247 147.508 72.7485C147.507 72.7076 147.514 72.667 147.529 72.629C147.544 72.591 147.567 72.5566 147.596 72.5278C147.624 72.4997 147.656 72.4775 147.693 72.4623C147.729 72.4471 147.768 72.4394 147.807 72.4395C147.862 72.4387 147.916 72.4541 147.962 72.4837C148.008 72.5134 148.045 72.556 148.067 72.6063L148.499 73.3763L148.911 72.6406C148.937 72.5833 148.978 72.5343 149.03 72.4989C149.081 72.4634 149.142 72.4429 149.205 72.4395C149.243 72.4395 149.282 72.4473 149.317 72.4625C149.352 72.4777 149.384 72.4999 149.411 72.5278C149.44 72.5547 149.462 72.5874 149.478 72.6238C149.493 72.6601 149.5 72.6993 149.499 72.7387C149.499 72.8083 149.478 72.8764 149.44 72.9349L149.009 73.6265L149.906 73.602C149.948 73.5995 149.99 73.6061 150.029 73.6214C150.068 73.6366 150.103 73.6601 150.132 73.6903C150.182 73.749 150.21 73.8238 150.21 73.9012C150.21 73.9786 150.182 74.0534 150.132 74.1121C150.103 74.1422 150.068 74.1657 150.029 74.181C149.99 74.1962 149.948 74.2028 149.906 74.2004H148.999L149.401 74.8282C149.446 74.904 149.472 74.9901 149.475 75.0784C149.476 75.1181 149.469 75.1577 149.455 75.1948C149.441 75.2319 149.419 75.2657 149.391 75.2942C149.365 75.3217 149.334 75.3437 149.3 75.3589C149.265 75.3741 149.228 75.3821 149.19 75.3825C149.129 75.3816 149.07 75.3631 149.019 75.3291C148.969 75.2951 148.929 75.2472 148.906 75.1912L148.499 74.4702L148.091 75.1912C148.067 75.2487 148.027 75.2982 147.976 75.3338C147.925 75.3694 147.864 75.3897 147.802 75.3923Z" fill="black"/>
<path d="M152.324 75.3923C152.285 75.3923 152.247 75.3845 152.211 75.3693C152.176 75.3541 152.144 75.3319 152.118 75.304C152.089 75.2752 152.066 75.2407 152.051 75.2028C152.035 75.1648 152.028 75.1241 152.029 75.0833C152.029 75.0142 152.048 74.9464 152.083 74.8871L152.525 74.2004H151.622C151.58 74.2025 151.539 74.1958 151.5 74.1805C151.461 74.1653 151.426 74.142 151.396 74.1121C151.346 74.0534 151.318 73.9786 151.318 73.9012C151.318 73.8238 151.346 73.749 151.396 73.6903C151.426 73.6604 151.461 73.637 151.5 73.6218C151.539 73.6066 151.58 73.5998 151.622 73.602L152.51 73.6265L152.093 72.9643C152.054 72.899 152.032 72.8247 152.029 72.7485C152.028 72.7076 152.035 72.667 152.051 72.629C152.066 72.591 152.089 72.5566 152.118 72.5278C152.145 72.4997 152.178 72.4775 152.214 72.4623C152.25 72.4471 152.289 72.4394 152.328 72.4395C152.383 72.4387 152.437 72.4541 152.484 72.4837C152.53 72.5134 152.566 72.556 152.588 72.6063L153.02 73.3763L153.432 72.6406C153.458 72.5833 153.499 72.5343 153.551 72.4989C153.603 72.4634 153.664 72.4429 153.726 72.4395C153.765 72.4395 153.803 72.4473 153.838 72.4625C153.874 72.4777 153.906 72.4999 153.932 72.5278C153.961 72.5547 153.984 72.5874 153.999 72.6238C154.014 72.6601 154.022 72.6993 154.021 72.7387C154.02 72.8083 154 72.8764 153.962 72.9349L153.53 73.6265L154.428 73.602C154.47 73.5995 154.511 73.6061 154.55 73.6214C154.589 73.6366 154.624 73.6601 154.653 73.6903C154.704 73.749 154.732 73.8238 154.732 73.9012C154.732 73.9786 154.704 74.0534 154.653 74.1121C154.624 74.1422 154.589 74.1657 154.55 74.181C154.511 74.1962 154.47 74.2028 154.428 74.2004H153.52L153.923 74.8282C153.968 74.904 153.993 74.9901 153.996 75.0784C153.998 75.1181 153.991 75.1577 153.977 75.1948C153.962 75.2319 153.941 75.2657 153.913 75.2942C153.887 75.3217 153.856 75.3437 153.821 75.3589C153.787 75.3741 153.749 75.3821 153.712 75.3825C153.651 75.381 153.592 75.3622 153.542 75.3283C153.491 75.2944 153.451 75.2468 153.427 75.1912L153.02 74.4702L152.613 75.1912C152.589 75.2487 152.549 75.2982 152.497 75.3338C152.446 75.3694 152.386 75.3897 152.324 75.3923Z" fill="black"/>
<path d="M156.808 75.3923C156.769 75.3923 156.731 75.3845 156.696 75.3693C156.66 75.3541 156.628 75.3319 156.602 75.304C156.573 75.2752 156.55 75.2407 156.535 75.2028C156.52 75.1648 156.512 75.1241 156.514 75.0833C156.516 75.0145 156.534 74.9473 156.568 74.8871L157.009 74.2004H156.107C156.065 74.2025 156.023 74.1958 155.984 74.1805C155.945 74.1653 155.91 74.142 155.881 74.1121C155.83 74.0534 155.803 73.9786 155.803 73.9012C155.803 73.8238 155.83 73.749 155.881 73.6903C155.91 73.6604 155.945 73.637 155.984 73.6218C156.023 73.6066 156.065 73.5998 156.107 73.602L156.994 73.6265L156.577 72.9643C156.538 72.899 156.516 72.8247 156.514 72.7485C156.512 72.7076 156.52 72.667 156.535 72.629C156.55 72.591 156.573 72.5566 156.602 72.5278C156.629 72.4997 156.662 72.4775 156.698 72.4623C156.735 72.4471 156.774 72.4394 156.813 72.4395C156.868 72.4387 156.922 72.4541 156.968 72.4837C157.014 72.5134 157.051 72.556 157.073 72.6063L157.504 73.3763L157.916 72.6406C157.942 72.5833 157.984 72.5343 158.035 72.4989C158.087 72.4634 158.148 72.4429 158.211 72.4395C158.249 72.4389 158.288 72.4465 158.323 72.4617C158.359 72.4769 158.391 72.4994 158.417 72.5278C158.445 72.5547 158.468 72.5874 158.483 72.6238C158.499 72.6601 158.506 72.6993 158.505 72.7387C158.504 72.8083 158.484 72.8764 158.446 72.9349L158.015 73.6265L158.912 73.602C158.954 73.5995 158.996 73.6061 159.035 73.6214C159.074 73.6366 159.109 73.6601 159.138 73.6903C159.188 73.749 159.216 73.8238 159.216 73.9012C159.216 73.9786 159.188 74.0534 159.138 74.1121C159.109 74.1422 159.074 74.1657 159.035 74.181C158.996 74.1962 158.954 74.2028 158.912 74.2004H158.005L158.407 74.8282C158.452 74.904 158.478 74.9901 158.481 75.0784C158.482 75.1181 158.475 75.1577 158.461 75.1948C158.447 75.2319 158.425 75.2657 158.397 75.2942C158.371 75.3217 158.34 75.3437 158.306 75.3589C158.271 75.3741 158.234 75.3821 158.196 75.3825C158.135 75.381 158.076 75.3622 158.026 75.3283C157.975 75.2944 157.936 75.2469 157.912 75.1912L157.504 74.4702L157.097 75.1912C157.073 75.2487 157.033 75.2982 156.982 75.3338C156.931 75.3694 156.87 75.3897 156.808 75.3923Z" fill="black"/>
<path d="M161.31 75.3923C161.271 75.3923 161.233 75.3845 161.198 75.3693C161.162 75.3541 161.13 75.3319 161.104 75.304C161.075 75.2752 161.052 75.2407 161.037 75.2028C161.022 75.1648 161.014 75.1241 161.016 75.0833C161.018 75.0145 161.036 74.9473 161.07 74.8871L161.511 74.2004H160.613C160.571 74.2029 160.528 74.1963 160.489 74.1811C160.449 74.1659 160.413 74.1424 160.383 74.1121C160.332 74.0534 160.305 73.9786 160.305 73.9012C160.305 73.8238 160.332 73.749 160.383 73.6903C160.413 73.66 160.449 73.6365 160.489 73.6212C160.528 73.606 160.571 73.5994 160.613 73.602L161.496 73.6265L161.079 72.9643C161.04 72.899 161.018 72.8247 161.016 72.7485C161.014 72.7076 161.022 72.667 161.037 72.629C161.052 72.591 161.075 72.5566 161.104 72.5278C161.131 72.4997 161.164 72.4775 161.2 72.4623C161.237 72.4471 161.275 72.4394 161.315 72.4395C161.37 72.4387 161.424 72.4541 161.47 72.4837C161.516 72.5134 161.553 72.556 161.575 72.6063L162.006 73.3763L162.418 72.6406C162.444 72.5833 162.486 72.5343 162.537 72.4989C162.589 72.4634 162.65 72.4429 162.713 72.4395C162.751 72.4389 162.79 72.4465 162.825 72.4617C162.861 72.4769 162.892 72.4994 162.919 72.5278C162.947 72.5547 162.97 72.5874 162.985 72.6238C163.001 72.6601 163.008 72.6993 163.007 72.7387C163.006 72.8083 162.986 72.8764 162.948 72.9349L162.516 73.6265L163.414 73.602C163.456 73.5995 163.498 73.6061 163.537 73.6214C163.576 73.6366 163.611 73.6601 163.64 73.6903C163.69 73.749 163.718 73.8238 163.718 73.9012C163.718 73.9786 163.69 74.0534 163.64 74.1121C163.611 74.1422 163.576 74.1657 163.537 74.181C163.498 74.1962 163.456 74.2028 163.414 74.2004H162.507L162.909 74.8282C162.954 74.904 162.98 74.9901 162.982 75.0784C162.984 75.1181 162.977 75.1577 162.963 75.1948C162.949 75.2319 162.927 75.2657 162.899 75.2942C162.873 75.3217 162.842 75.3437 162.808 75.3589C162.773 75.3741 162.736 75.3821 162.698 75.3825C162.637 75.381 162.578 75.3622 162.528 75.3283C162.477 75.2944 162.438 75.2469 162.413 75.1912L162.006 74.4702L161.599 75.1912C161.575 75.2487 161.535 75.2982 161.484 75.3338C161.433 75.3694 161.372 75.3897 161.31 75.3923Z" fill="black"/>
<path d="M165.812 75.3912C165.773 75.3912 165.735 75.3834 165.7 75.3682C165.664 75.353 165.632 75.3308 165.606 75.3029C165.577 75.2741 165.554 75.2397 165.539 75.2017C165.524 75.1637 165.516 75.1231 165.518 75.0822C165.517 75.0131 165.536 74.9453 165.571 74.886L166.013 74.1993H165.11C165.069 74.2014 165.027 74.1947 164.988 74.1794C164.949 74.1642 164.914 74.1409 164.885 74.111C164.834 74.0523 164.807 73.9775 164.807 73.9001C164.807 73.8227 164.834 73.7479 164.885 73.6892C164.914 73.6593 164.949 73.636 164.988 73.6207C165.027 73.6055 165.069 73.5987 165.11 73.6009L165.998 73.6254L165.567 72.9878C165.527 72.9224 165.505 72.8481 165.503 72.7719C165.502 72.7311 165.509 72.6904 165.524 72.6524C165.539 72.6145 165.562 72.58 165.591 72.5512C165.619 72.5232 165.651 72.5009 165.688 72.4858C165.724 72.4706 165.763 72.4628 165.802 72.4629C165.857 72.4621 165.911 72.4775 165.957 72.5072C166.003 72.5368 166.04 72.5794 166.062 72.6297L166.494 73.3998L166.906 72.664C166.932 72.6068 166.973 72.5578 167.025 72.5223C167.077 72.4868 167.137 72.4663 167.2 72.4629C167.239 72.4623 167.277 72.4699 167.312 72.4851C167.348 72.5003 167.38 72.5228 167.406 72.5512C167.435 72.5782 167.457 72.6109 167.473 72.6472C167.488 72.6836 167.495 72.7227 167.494 72.7621C167.494 72.8318 167.473 72.8998 167.435 72.9583L167.004 73.6499L167.901 73.6254C167.943 73.6229 167.985 73.6296 168.024 73.6448C168.063 73.66 168.098 73.6835 168.127 73.7137C168.177 73.7724 168.205 73.8472 168.205 73.9246C168.205 74.002 168.177 74.0768 168.127 74.1355C168.098 74.1657 168.063 74.1892 168.024 74.2044C167.985 74.2197 167.943 74.2263 167.901 74.2238H166.994L167.396 74.8517C167.442 74.9274 167.467 75.0135 167.47 75.1018C167.471 75.1415 167.464 75.1812 167.45 75.2183C167.436 75.2553 167.414 75.2892 167.386 75.3176C167.36 75.3452 167.329 75.3672 167.295 75.3823C167.26 75.3975 167.223 75.4055 167.185 75.4059C167.124 75.4044 167.065 75.3856 167.015 75.3518C166.965 75.3179 166.925 75.2703 166.901 75.2146L166.494 74.4936L166.086 75.2146C166.06 75.2654 166.021 75.3085 165.973 75.3394C165.924 75.3704 165.869 75.3883 165.812 75.3912Z" fill="black"/>
<path d="M170.316 75.3924C170.277 75.3924 170.239 75.3846 170.204 75.3694C170.168 75.3542 170.136 75.332 170.11 75.3041C170.081 75.2753 170.058 75.2408 170.043 75.2029C170.028 75.1649 170.02 75.1243 170.022 75.0834C170.024 75.0146 170.042 74.9474 170.076 74.8872L170.517 74.2005H169.619C169.578 74.2036 169.536 74.1973 169.496 74.182C169.457 74.1668 169.422 74.1429 169.394 74.1122C169.34 74.055 169.311 73.9796 169.311 73.9013C169.311 73.823 169.34 73.7476 169.394 73.6904C169.422 73.6597 169.457 73.6358 169.496 73.6205C169.536 73.6052 169.578 73.5989 169.619 73.6021L170.502 73.6266L170.085 72.9644C170.046 72.8991 170.024 72.8248 170.022 72.7486C170.02 72.7085 170.027 72.6685 170.041 72.6311C170.056 72.5937 170.078 72.5595 170.106 72.5307C170.134 72.5018 170.167 72.4789 170.204 72.4633C170.241 72.4476 170.281 72.4396 170.321 72.4396C170.376 72.4388 170.43 72.4542 170.476 72.4838C170.522 72.5135 170.559 72.5561 170.581 72.6064L171.012 73.3764L171.424 72.6407C171.45 72.5834 171.491 72.5344 171.543 72.499C171.595 72.4635 171.656 72.443 171.719 72.4396C171.757 72.4384 171.796 72.4456 171.831 72.4609C171.867 72.4761 171.899 72.499 171.925 72.5279C171.953 72.5548 171.976 72.5876 171.991 72.6239C172.007 72.6602 172.014 72.6994 172.013 72.7388C172.012 72.8084 171.992 72.8765 171.954 72.935L171.522 73.6266L172.42 73.6021C172.462 73.5996 172.504 73.6062 172.543 73.6215C172.582 73.6367 172.617 73.6602 172.646 73.6904C172.696 73.7491 172.724 73.8239 172.724 73.9013C172.724 73.9787 172.696 74.0535 172.646 74.1122C172.617 74.1423 172.582 74.1658 172.543 74.1811C172.504 74.1963 172.462 74.2029 172.42 74.2005H171.513L171.915 74.8283C171.96 74.9041 171.986 74.9902 171.988 75.0785C171.99 75.1171 171.983 75.1557 171.97 75.1919C171.956 75.2281 171.936 75.2612 171.909 75.2895C171.883 75.3177 171.851 75.3405 171.816 75.3565C171.781 75.3724 171.743 75.3813 171.704 75.3826C171.643 75.3811 171.584 75.3623 171.534 75.3284C171.483 75.2945 171.444 75.247 171.419 75.1913L171.012 74.4703L170.605 75.1913C170.581 75.2488 170.541 75.2983 170.49 75.3339C170.439 75.3695 170.378 75.3898 170.316 75.3924Z" fill="black"/>
<path d="M174.818 75.3924C174.779 75.3924 174.741 75.3846 174.706 75.3694C174.67 75.3542 174.638 75.332 174.612 75.3041C174.583 75.2753 174.56 75.2408 174.545 75.2029C174.53 75.1649 174.522 75.1243 174.524 75.0834C174.526 75.0146 174.544 74.9474 174.577 74.8872L175.019 74.2005H174.116C174.075 74.2029 174.034 74.1962 173.996 74.181C173.958 74.1657 173.924 74.1422 173.896 74.1122C173.842 74.055 173.813 73.9796 173.812 73.9013C173.813 73.823 173.842 73.7476 173.896 73.6904C173.924 73.6603 173.958 73.6368 173.996 73.6216C174.034 73.6063 174.075 73.5997 174.116 73.6021L175.004 73.6266L174.587 72.9644C174.548 72.8991 174.526 72.8248 174.524 72.7486C174.522 72.7085 174.529 72.6685 174.543 72.6311C174.558 72.5937 174.58 72.5595 174.608 72.5307C174.636 72.5018 174.669 72.4789 174.706 72.4633C174.743 72.4476 174.783 72.4396 174.823 72.4396C174.878 72.4388 174.932 72.4542 174.978 72.4838C175.024 72.5135 175.061 72.5561 175.083 72.6064L175.514 73.3764L175.926 72.6407C175.952 72.5834 175.993 72.5344 176.045 72.499C176.097 72.4635 176.158 72.443 176.221 72.4396C176.259 72.4384 176.298 72.4456 176.333 72.4609C176.369 72.4761 176.401 72.499 176.427 72.5279C176.455 72.5548 176.478 72.5876 176.493 72.6239C176.509 72.6602 176.516 72.6994 176.515 72.7388C176.514 72.8084 176.494 72.8765 176.456 72.935L176.024 73.6266L176.922 73.6021C176.964 73.5996 177.006 73.6062 177.045 73.6215C177.084 73.6367 177.119 73.6602 177.148 73.6904C177.198 73.7491 177.226 73.8239 177.226 73.9013C177.226 73.9787 177.198 74.0535 177.148 74.1122C177.119 74.1423 177.084 74.1658 177.045 74.1811C177.006 74.1963 176.964 74.2029 176.922 74.2005H176.015L176.417 74.8283C176.462 74.9041 176.488 74.9902 176.49 75.0785C176.492 75.1171 176.485 75.1557 176.472 75.1919C176.458 75.2281 176.438 75.2612 176.411 75.2895C176.385 75.3177 176.353 75.3405 176.318 75.3565C176.283 75.3724 176.245 75.3813 176.206 75.3826C176.145 75.3811 176.086 75.3623 176.036 75.3284C175.985 75.2945 175.946 75.247 175.921 75.1913L175.514 74.4703L175.107 75.1913C175.083 75.2488 175.043 75.2983 174.992 75.3339C174.94 75.3695 174.88 75.3898 174.818 75.3924Z" fill="black"/>
<path d="M179.3 75.3924C179.262 75.3924 179.224 75.3846 179.188 75.3694C179.153 75.3542 179.121 75.332 179.094 75.3041C179.065 75.2753 179.042 75.2408 179.027 75.2029C179.012 75.1649 179.005 75.1243 179.006 75.0834C179.008 75.0146 179.027 74.9474 179.06 74.8872L179.501 74.2005H178.599C178.558 74.2029 178.517 74.1962 178.479 74.181C178.44 74.1657 178.406 74.1422 178.378 74.1122C178.325 74.055 178.295 73.9796 178.295 73.9013C178.295 73.823 178.325 73.7476 178.378 73.6904C178.406 73.6603 178.44 73.6368 178.479 73.6216C178.517 73.6063 178.558 73.5997 178.599 73.6021L179.487 73.6266L179.07 72.9644C179.03 72.8991 179.008 72.8248 179.006 72.7486C179.005 72.7077 179.012 72.6671 179.027 72.6291C179.042 72.5911 179.065 72.5567 179.094 72.5279C179.122 72.4998 179.155 72.4776 179.191 72.4624C179.227 72.4473 179.266 72.4395 179.305 72.4396C179.36 72.4388 179.414 72.4542 179.46 72.4838C179.506 72.5135 179.543 72.5561 179.565 72.6064L179.997 73.3764L180.409 72.6407C180.435 72.5834 180.476 72.5344 180.528 72.499C180.58 72.4635 180.64 72.443 180.703 72.4396C180.742 72.4384 180.78 72.4456 180.816 72.4609C180.851 72.4761 180.883 72.499 180.909 72.5279C180.938 72.5548 180.961 72.5876 180.976 72.6239C180.991 72.6602 180.998 72.6994 180.997 72.7388C180.997 72.8084 180.976 72.8765 180.938 72.935L180.507 73.6266L181.404 73.6021C181.446 73.5996 181.488 73.6062 181.527 73.6215C181.566 73.6367 181.601 73.6602 181.63 73.6904C181.681 73.7491 181.708 73.8239 181.708 73.9013C181.708 73.9787 181.681 74.0535 181.63 74.1122C181.601 74.1423 181.566 74.1658 181.527 74.1811C181.488 74.1963 181.446 74.2029 181.404 74.2005H180.497L180.899 74.8283C180.945 74.9041 180.97 74.9902 180.973 75.0785C180.974 75.1182 180.968 75.1578 180.953 75.1949C180.939 75.232 180.917 75.2658 180.889 75.2943C180.864 75.3218 180.832 75.3438 180.798 75.359C180.763 75.3742 180.726 75.3822 180.688 75.3826C180.628 75.3811 180.569 75.3623 180.518 75.3284C180.468 75.2945 180.428 75.247 180.404 75.1913L179.997 74.4703L179.59 75.1913C179.565 75.2488 179.525 75.2983 179.474 75.3339C179.423 75.3695 179.363 75.3898 179.3 75.3924Z" fill="black"/>
<path d="M194.734 86.2422H200.733" stroke="white" stroke-width="3" stroke-linecap="round" stroke-linejoin="round"/>
<path d="M111.527 42.0742V81.9174C111.527 83.0713 111.986 84.1779 112.802 84.9938C113.618 85.8097 114.724 86.2681 115.878 86.2681H189.036" stroke="white" stroke-width="3" stroke-linecap="round" stroke-linejoin="round"/>
<path d="M111.527 31.5078V37.4821" stroke="white" stroke-width="3" stroke-linecap="round" stroke-linejoin="round"/>
</g>
<defs>
<clipPath id="clip0_1008_19351">
<rect width="325.053" height="228.314" fill="white"/>
</clipPath>
</defs>
</svg>
