<svg width="181" height="62" viewBox="0 0 181 62" fill="none" xmlns="http://www.w3.org/2000/svg">
<rect x="66.5" y="6.5" width="114" height="55" rx="3.5" stroke="#CDD7D8"/>
<path d="M121.288 7.92H122.848V9H121.288V7.92ZM114.52 9C114.112 9 113.784 8.92 113.536 8.76C113.288 8.6 113.108 8.34 112.996 7.98C112.892 7.612 112.84 7.128 112.84 6.528C112.84 6.168 112.868 5.792 112.924 5.4C112.988 5 113.072 4.664 113.176 4.392L114.088 4.548C113.992 4.868 113.92 5.18 113.872 5.484C113.824 5.788 113.8 6.072 113.8 6.336C113.8 6.664 113.812 6.956 113.836 7.212C113.868 7.46 113.92 7.696 113.992 7.92H120.448V3.36H121.408V9H114.52ZM117.268 11.4C117.188 11.4 117.096 11.364 116.992 11.292C116.888 11.22 116.796 11.128 116.716 11.016C116.644 10.912 116.608 10.82 116.608 10.74C116.608 10.652 116.644 10.556 116.716 10.452C116.796 10.356 116.888 10.268 116.992 10.188C117.096 10.116 117.188 10.08 117.268 10.08C117.356 10.08 117.448 10.116 117.544 10.188C117.648 10.268 117.736 10.356 117.808 10.452C117.888 10.556 117.928 10.652 117.928 10.74C117.928 10.82 117.888 10.912 117.808 11.016C117.736 11.12 117.648 11.208 117.544 11.28C117.44 11.36 117.348 11.4 117.268 11.4ZM130.357 9C129.845 9 129.429 8.968 129.109 8.904C128.789 8.84 128.541 8.724 128.365 8.556C128.197 8.388 128.081 8.156 128.017 7.86C127.953 7.564 127.921 7.188 127.921 6.732V4.44H128.881V7.284C128.881 7.54 128.953 7.712 129.097 7.8C129.241 7.88 129.481 7.92 129.817 7.92H131.413C131.469 7.64 131.505 7.344 131.521 7.032C131.545 6.712 131.557 6.344 131.557 5.928C131.557 5.576 131.529 5.196 131.473 4.788C131.417 4.38 131.341 3.964 131.245 3.54L132.193 3.384C132.249 3.592 132.301 3.848 132.349 4.152C132.397 4.448 132.437 4.752 132.469 5.064C132.501 5.368 132.517 5.644 132.517 5.892C132.517 6.684 132.457 7.308 132.337 7.764C132.217 8.212 132.001 8.532 131.689 8.724C131.385 8.908 130.941 9 130.357 9ZM126.445 9H125.245V7.92H126.985C127.321 7.92 127.561 7.88 127.705 7.8C127.849 7.712 127.921 7.54 127.921 7.284V4.44H128.881V6.732C128.881 7.188 128.849 7.564 128.785 7.86C128.729 8.156 128.613 8.388 128.437 8.556C128.269 8.724 128.025 8.84 127.705 8.904C127.385 8.968 126.965 9 126.445 9ZM125.245 9H122.365V7.92H124.285V4.44H125.245V9ZM131.737 7.92H133.957V9H130.357L131.737 7.92ZM139.271 5.76H140.375V6.84H139.319C139.079 6.84 138.891 6.788 138.755 6.684C138.619 6.572 138.507 6.4 138.419 6.168C138.251 5.696 138.047 5.328 137.807 5.064C137.567 4.792 137.263 4.6 136.895 4.488C136.527 4.376 136.067 4.32 135.515 4.32C135.363 4.32 135.203 4.324 135.035 4.332C134.875 4.34 134.703 4.352 134.519 4.368L134.363 3.312C134.595 3.288 134.815 3.272 135.023 3.264C135.239 3.248 135.443 3.24 135.635 3.24C136.307 3.24 136.871 3.328 137.327 3.504C137.783 3.672 138.167 3.94 138.479 4.308C138.791 4.676 139.055 5.16 139.271 5.76ZM138.467 5.82L139.355 6.204C139.203 6.604 139.011 6.976 138.779 7.32C138.547 7.656 138.271 7.952 137.951 8.208C137.631 8.456 137.263 8.652 136.847 8.796C136.431 8.932 135.959 9 135.431 9H133.475V7.92H135.707C136.075 7.92 136.407 7.856 136.703 7.728C136.999 7.6 137.259 7.432 137.483 7.224C137.715 7.016 137.911 6.792 138.071 6.552C138.239 6.304 138.371 6.06 138.467 5.82ZM152.659 7.92H154.219V9H152.659V7.92ZM145.891 9C145.483 9 145.155 8.92 144.907 8.76C144.659 8.6 144.479 8.34 144.367 7.98C144.263 7.612 144.211 7.128 144.211 6.528C144.211 6.168 144.239 5.792 144.295 5.4C144.359 5 144.443 4.664 144.547 4.392L145.459 4.548C145.363 4.868 145.291 5.18 145.243 5.484C145.195 5.788 145.171 6.072 145.171 6.336C145.171 6.664 145.183 6.956 145.207 7.212C145.239 7.46 145.291 7.696 145.363 7.92H151.819V3.36H152.779V9H145.891ZM148.639 11.4C148.559 11.4 148.467 11.364 148.363 11.292C148.259 11.22 148.167 11.128 148.087 11.016C148.015 10.912 147.979 10.82 147.979 10.74C147.979 10.652 148.015 10.556 148.087 10.452C148.167 10.356 148.259 10.268 148.363 10.188C148.467 10.116 148.559 10.08 148.639 10.08C148.727 10.08 148.819 10.116 148.915 10.188C149.019 10.268 149.107 10.356 149.179 10.452C149.259 10.556 149.299 10.652 149.299 10.74C149.299 10.82 149.259 10.912 149.179 11.016C149.107 11.12 149.019 11.208 148.915 11.28C148.811 11.36 148.719 11.4 148.639 11.4ZM156.617 7.92H158.057V9H153.737V7.92H155.657V3.36H156.617V7.92ZM155.213 11.28C155.133 11.28 155.041 11.244 154.937 11.172C154.833 11.1 154.741 11.008 154.661 10.896C154.589 10.792 154.553 10.7 154.553 10.62C154.553 10.532 154.589 10.436 154.661 10.332C154.741 10.236 154.833 10.148 154.937 10.068C155.041 9.996 155.133 9.96 155.213 9.96C155.301 9.96 155.393 9.996 155.489 10.068C155.593 10.148 155.681 10.236 155.753 10.332C155.833 10.436 155.873 10.532 155.873 10.62C155.873 10.7 155.833 10.792 155.753 10.896C155.681 11 155.593 11.088 155.489 11.16C155.385 11.24 155.293 11.28 155.213 11.28ZM156.941 11.28C156.861 11.28 156.769 11.244 156.665 11.172C156.561 11.1 156.469 11.008 156.389 10.896C156.317 10.792 156.281 10.7 156.281 10.62C156.281 10.532 156.317 10.436 156.389 10.332C156.469 10.236 156.561 10.148 156.665 10.068C156.769 9.996 156.861 9.96 156.941 9.96C157.029 9.96 157.121 9.996 157.217 10.068C157.321 10.148 157.409 10.236 157.481 10.332C157.561 10.436 157.601 10.532 157.601 10.62C157.601 10.7 157.561 10.792 157.481 10.896C157.409 11 157.321 11.088 157.217 11.16C157.113 11.24 157.021 11.28 156.941 11.28ZM157.58 9V7.92H159.5V3.36H160.46V9H157.58ZM159.116 1.92C159.036 1.92 158.944 1.884 158.84 1.812C158.736 1.74 158.644 1.652 158.564 1.548C158.492 1.436 158.456 1.34 158.456 1.26C158.456 1.172 158.492 1.08 158.564 0.983999C158.644 0.879999 158.736 0.791999 158.84 0.719999C158.944 0.639999 159.036 0.599999 159.116 0.599999C159.204 0.599999 159.296 0.639999 159.392 0.719999C159.496 0.791999 159.584 0.879999 159.656 0.983999C159.736 1.08 159.776 1.172 159.776 1.26C159.776 1.34 159.736 1.432 159.656 1.536C159.584 1.64 159.496 1.732 159.392 1.812C159.288 1.884 159.196 1.92 159.116 1.92ZM160.844 1.92C160.764 1.92 160.672 1.884 160.568 1.812C160.464 1.74 160.372 1.652 160.292 1.548C160.22 1.436 160.184 1.34 160.184 1.26C160.184 1.172 160.22 1.08 160.292 0.983999C160.372 0.879999 160.464 0.791999 160.568 0.719999C160.672 0.639999 160.764 0.599999 160.844 0.599999C160.932 0.599999 161.024 0.639999 161.12 0.719999C161.224 0.791999 161.312 0.879999 161.384 0.983999C161.464 1.08 161.504 1.172 161.504 1.26C161.504 1.34 161.464 1.432 161.384 1.536C161.312 1.64 161.224 1.732 161.12 1.812C161.016 1.884 160.924 1.92 160.844 1.92ZM164.184 7.92H165.624V9H164.184V7.92ZM162.408 12.108L162 11.268C162.312 11.116 162.556 10.944 162.732 10.752C162.916 10.56 163.044 10.324 163.116 10.044C163.196 9.764 163.236 9.416 163.236 9V3.36H164.196V9C164.196 9.528 164.136 9.984 164.016 10.368C163.896 10.76 163.704 11.096 163.44 11.376C163.176 11.656 162.832 11.9 162.408 12.108ZM165.139 9V7.92H167.059V3.36H168.019V9H165.139ZM166.675 1.92C166.595 1.92 166.503 1.884 166.399 1.812C166.295 1.74 166.203 1.652 166.123 1.548C166.051 1.436 166.015 1.34 166.015 1.26C166.015 1.172 166.051 1.08 166.123 0.983999C166.203 0.879999 166.295 0.791999 166.399 0.719999C166.503 0.639999 166.595 0.599999 166.675 0.599999C166.763 0.599999 166.855 0.639999 166.951 0.719999C167.055 0.791999 167.143 0.879999 167.215 0.983999C167.295 1.08 167.335 1.172 167.335 1.26C167.335 1.34 167.295 1.432 167.215 1.536C167.143 1.64 167.055 1.732 166.951 1.812C166.847 1.884 166.755 1.92 166.675 1.92ZM168.403 1.92C168.323 1.92 168.231 1.884 168.127 1.812C168.023 1.74 167.931 1.652 167.851 1.548C167.779 1.436 167.743 1.34 167.743 1.26C167.743 1.172 167.779 1.08 167.851 0.983999C167.931 0.879999 168.023 0.791999 168.127 0.719999C168.231 0.639999 168.323 0.599999 168.403 0.599999C168.491 0.599999 168.583 0.639999 168.679 0.719999C168.783 0.791999 168.871 0.879999 168.943 0.983999C169.023 1.08 169.063 1.172 169.063 1.26C169.063 1.34 169.023 1.432 168.943 1.536C168.871 1.64 168.783 1.732 168.679 1.812C168.575 1.884 168.483 1.92 168.403 1.92Z" fill="#979797"/>
<path d="M121.288 7.92V3.92C119.079 3.92 117.288 5.71086 117.288 7.92H121.288ZM122.848 7.92H126.848C126.848 5.71086 125.057 3.92 122.848 3.92V7.92ZM122.848 9V13C125.057 13 126.848 11.2091 126.848 9H122.848ZM121.288 9H117.288C117.288 11.2091 119.079 13 121.288 13V9ZM112.996 7.98L109.147 9.06783C109.156 9.10144 109.166 9.13492 109.177 9.16827L112.996 7.98ZM112.924 5.4L108.974 4.76804C108.971 4.7901 108.967 4.81219 108.964 4.83431L112.924 5.4ZM113.176 4.392L113.85 0.449264C111.969 0.127376 110.122 1.18021 109.44 2.96345L113.176 4.392ZM114.088 4.548L117.919 5.69739C118.249 4.6 118.091 3.41411 117.488 2.44035C116.884 1.46659 115.892 0.798435 114.762 0.605264L114.088 4.548ZM113.872 5.484L117.823 6.10785V6.10785L113.872 5.484ZM113.836 7.212L109.853 7.58536C109.858 7.63162 109.863 7.6778 109.869 7.72388L113.836 7.212ZM113.992 7.92L110.184 9.14404C110.716 10.7982 112.254 11.92 113.992 11.92V7.92ZM120.448 7.92V11.92C122.657 11.92 124.448 10.1291 124.448 7.92H120.448ZM120.448 3.36V-0.64C118.239 -0.64 116.448 1.15086 116.448 3.36H120.448ZM121.408 3.36H125.408C125.408 1.15086 123.617 -0.64 121.408 -0.64V3.36ZM121.408 9V13C123.617 13 125.408 11.2091 125.408 9H121.408ZM116.992 11.292L114.715 14.5808L114.715 14.5808L116.992 11.292ZM116.716 11.016L113.427 13.2928C113.438 13.309 113.45 13.325 113.461 13.341L116.716 11.016ZM116.716 10.452L113.643 7.89126C113.567 7.98264 113.495 8.07736 113.427 8.17516L116.716 10.452ZM116.992 10.188L114.715 6.89923C114.66 6.93729 114.606 6.97673 114.553 7.01751L116.992 10.188ZM117.544 10.188L119.983 7.0175C119.97 7.00759 119.957 6.99776 119.944 6.988L117.544 10.188ZM117.808 10.452L114.608 12.852C114.618 12.865 114.628 12.878 114.638 12.8908L117.808 10.452ZM117.808 11.016L114.638 8.57716C114.597 8.63016 114.557 8.68418 114.519 8.73916L117.808 11.016ZM117.544 11.28L115.267 7.99123C115.212 8.02929 115.158 8.06873 115.105 8.1095L117.544 11.28ZM121.288 11.92H122.848V3.92H121.288V11.92ZM118.848 7.92V9H126.848V7.92H118.848ZM122.848 5H121.288V13H122.848V5ZM125.288 9V7.92H117.288V9H125.288ZM114.52 5C114.598 5 115.103 5.01085 115.705 5.39881L111.367 12.1212C112.465 12.8292 113.626 13 114.52 13V5ZM115.705 5.39881C116.442 5.87478 116.728 6.51013 116.815 6.79173L109.177 9.16827C109.488 10.1699 110.134 11.3252 111.367 12.1212L115.705 5.39881ZM116.845 6.89217C116.868 6.97343 116.864 6.9895 116.856 6.91371C116.848 6.84172 116.84 6.71662 116.84 6.528H108.84C108.84 7.31233 108.903 8.20451 109.147 9.06783L116.845 6.89217ZM116.84 6.528C116.84 6.37493 116.852 6.18864 116.884 5.96569L108.964 4.83431C108.884 5.39536 108.84 5.96107 108.84 6.528H116.84ZM116.874 6.03196C116.891 5.92714 116.906 5.85766 116.916 5.81814C116.926 5.77756 116.927 5.78193 116.912 5.82055L109.44 2.96345C109.208 3.57086 109.066 4.19293 108.974 4.76804L116.874 6.03196ZM112.502 8.33474L113.414 8.49074L114.762 0.605264L113.85 0.449264L112.502 8.33474ZM110.257 3.39861C110.113 3.87643 109.999 4.36415 109.921 4.86015L117.823 6.10785C117.841 5.99585 117.871 5.85957 117.919 5.69739L110.257 3.39861ZM109.921 4.86015C109.846 5.33755 109.8 5.83219 109.8 6.336H117.8C117.8 6.31181 117.802 6.23845 117.823 6.10785L109.921 4.86015ZM109.8 6.336C109.8 6.75658 109.815 7.17696 109.853 7.58536L117.819 6.83864C117.809 6.73504 117.8 6.57142 117.8 6.336H109.8ZM109.869 7.72388C109.93 8.19859 110.033 8.674 110.184 9.14404L117.8 6.69596C117.804 6.70664 117.805 6.71301 117.805 6.71429C117.806 6.71552 117.805 6.71104 117.803 6.70012L109.869 7.72388ZM113.992 11.92H120.448V3.92H113.992V11.92ZM124.448 7.92V3.36H116.448V7.92H124.448ZM120.448 7.36H121.408V-0.64H120.448V7.36ZM117.408 3.36V9H125.408V3.36H117.408ZM121.408 5H114.52V13H121.408V5ZM117.268 7.4C118.35 7.4 119.062 7.86033 119.269 8.00323L114.715 14.5808C115.13 14.8677 116.026 15.4 117.268 15.4V7.4ZM119.269 8.00323C119.576 8.2159 119.807 8.46087 119.971 8.69104L113.461 13.341C113.785 13.7951 114.2 14.2241 114.715 14.5808L119.269 8.00323ZM120.005 8.73916C120.148 8.94557 120.608 9.65845 120.608 10.74H112.608C112.608 11.9815 113.14 12.8784 113.427 13.2928L120.005 8.73916ZM120.608 10.74C120.608 11.7503 120.202 12.4441 120.005 12.7288L113.427 8.17516C113.086 8.66794 112.608 9.55369 112.608 10.74H120.608ZM119.789 13.0127C119.671 13.1537 119.548 13.2681 119.431 13.3585L114.553 7.01751C114.228 7.2679 113.921 7.55833 113.643 7.89126L119.789 13.0127ZM119.269 13.4768C119.062 13.6197 118.35 14.08 117.268 14.08V6.08C116.026 6.08 115.13 6.61233 114.715 6.89923L119.269 13.4768ZM117.268 14.08C116.225 14.08 115.492 13.6493 115.144 13.388L119.944 6.988C119.404 6.58274 118.487 6.08 117.268 6.08V14.08ZM115.105 13.3585C114.948 13.2378 114.773 13.0718 114.608 12.852L121.008 8.052C120.699 7.64018 120.348 7.29818 119.983 7.0175L115.105 13.3585ZM114.638 12.8908C114.432 12.6237 113.928 11.8739 113.928 10.74H121.928C121.928 9.43009 121.344 8.4883 120.978 8.01316L114.638 12.8908ZM113.928 10.74C113.928 10.1108 114.085 9.6077 114.23 9.2741C114.373 8.94373 114.535 8.71021 114.638 8.57716L120.978 13.4548C121.28 13.063 121.928 12.1091 121.928 10.74H113.928ZM114.519 8.73916C114.721 8.44776 114.976 8.19297 115.267 7.99123L119.821 14.5688C120.32 14.223 120.751 13.7922 121.097 13.2928L114.519 8.73916ZM115.105 8.1095C115.238 8.00715 115.472 7.84536 115.802 7.70172C116.136 7.55667 116.639 7.4 117.268 7.4V15.4C118.637 15.4 119.591 14.7519 119.983 14.4505L115.105 8.1095ZM129.109 8.904L129.894 4.98168V4.98168L129.109 8.904ZM128.365 8.556L125.537 11.3844C125.559 11.4063 125.581 11.428 125.604 11.4494L128.365 8.556ZM128.017 7.86L131.927 7.01467V7.01467L128.017 7.86ZM127.921 4.44V0.44C125.712 0.44 123.921 2.23086 123.921 4.44H127.921ZM128.881 4.44H132.881C132.881 2.23086 131.091 0.44 128.881 0.44V4.44ZM129.097 7.8L127.012 11.2131C127.059 11.2419 127.107 11.2698 127.155 11.2966L129.097 7.8ZM131.413 7.92V11.92C133.32 11.92 134.962 10.5742 135.336 8.70447L131.413 7.92ZM131.521 7.032L127.533 6.73284C127.53 6.76425 127.528 6.79569 127.527 6.82714L131.521 7.032ZM131.473 4.788L127.511 5.33192L127.511 5.33192L131.473 4.788ZM131.245 3.54L130.596 -0.406918C129.508 -0.227948 128.543 0.391865 127.927 1.30619C127.312 2.22051 127.101 3.3483 127.344 4.4233L131.245 3.54ZM132.193 3.384L136.056 2.3441C135.522 0.360099 133.571 -0.896538 131.544 -0.562918L132.193 3.384ZM132.349 4.152L128.398 4.77585C128.399 4.78133 128.4 4.78681 128.401 4.79228L132.349 4.152ZM132.469 5.064L128.49 5.47212L128.491 5.48274L132.469 5.064ZM132.337 7.764L136.201 8.79894C136.203 8.79329 136.204 8.78763 136.206 8.78197L132.337 7.764ZM131.689 8.724L133.761 12.146C133.769 12.1409 133.777 12.1358 133.786 12.1306L131.689 8.724ZM125.245 9H121.245C121.245 11.2091 123.036 13 125.245 13V9ZM125.245 7.92V3.92C123.036 3.92 121.245 5.71086 121.245 7.92H125.245ZM127.705 7.8L129.648 11.2966C129.696 11.2698 129.744 11.2419 129.791 11.2131L127.705 7.8ZM127.921 4.44V0.44C125.712 0.44 123.921 2.23086 123.921 4.44H127.921ZM128.881 4.44H132.881C132.881 2.23086 131.091 0.44 128.881 0.44V4.44ZM128.785 7.86L124.876 7.01467C124.868 7.0485 124.862 7.08242 124.855 7.11643L128.785 7.86ZM128.437 8.556L125.676 5.66258C125.653 5.68398 125.631 5.70565 125.609 5.72757L128.437 8.556ZM127.705 8.904L126.921 4.98168V4.98168L127.705 8.904ZM125.245 9V13C127.455 13 129.245 11.2091 129.245 9H125.245ZM122.365 9H118.365C118.365 11.2091 120.156 13 122.365 13V9ZM122.365 7.92V3.92C120.156 3.92 118.365 5.71086 118.365 7.92H122.365ZM124.285 7.92V11.92C126.495 11.92 128.285 10.1291 128.285 7.92H124.285ZM124.285 4.44V0.44C122.076 0.44 120.285 2.23086 120.285 4.44H124.285ZM125.245 4.44H129.245C129.245 2.23086 127.455 0.44 125.245 0.44V4.44ZM131.737 7.92V3.92C130.844 3.92 129.976 4.21923 129.272 4.76998L131.737 7.92ZM133.957 7.92H137.957C137.957 5.71086 136.167 3.92 133.957 3.92V7.92ZM133.957 9V13C136.167 13 137.957 11.2091 137.957 9H133.957ZM130.357 9L127.892 5.84998C126.548 6.90178 126.02 8.69042 126.576 10.3038C127.132 11.9172 128.651 13 130.357 13V9ZM130.357 5C130.182 5 130.054 4.99441 129.968 4.98778C129.879 4.98091 129.86 4.97486 129.894 4.98168L128.325 12.8263C129.006 12.9625 129.713 13 130.357 13V5ZM129.894 4.98168C130.07 5.01698 130.598 5.15697 131.127 5.66258L125.604 11.4494C126.485 12.291 127.509 12.663 128.325 12.8263L129.894 4.98168ZM131.194 5.72757C131.701 6.23419 131.873 6.76412 131.927 7.01467L124.108 8.70533C124.29 9.54788 124.694 10.5418 125.537 11.3844L131.194 5.72757ZM131.927 7.01467C131.939 7.06826 131.936 7.07409 131.931 7.0168C131.926 6.96193 131.921 6.86919 131.921 6.732H123.921C123.921 7.34484 123.962 8.02991 124.108 8.70533L131.927 7.01467ZM131.921 6.732V4.44H123.921V6.732H131.921ZM127.921 8.44H128.881V0.44H127.921V8.44ZM124.881 4.44V7.284H132.881V4.44H124.881ZM124.881 7.284C124.881 8.16212 125.143 10.071 127.012 11.2131L131.183 4.38687C132.764 5.35302 132.881 6.91788 132.881 7.284H124.881ZM127.155 11.2966C128.246 11.9027 129.371 11.92 129.817 11.92V3.92C129.793 3.92 129.881 3.91749 130.043 3.94442C130.179 3.96715 130.57 4.04247 131.04 4.30337L127.155 11.2966ZM129.817 11.92H131.413V3.92H129.817V11.92ZM135.336 8.70447C135.433 8.21643 135.491 7.72561 135.516 7.23686L127.527 6.82714C127.52 6.96239 127.506 7.06357 127.491 7.13553L135.336 8.70447ZM135.51 7.33116C135.544 6.88756 135.557 6.41637 135.557 5.928H127.557C127.557 6.27163 127.547 6.53644 127.533 6.73284L135.51 7.33116ZM135.557 5.928C135.557 5.36658 135.513 4.80289 135.436 4.24408L127.511 5.33192C127.546 5.58911 127.557 5.78542 127.557 5.928H135.557ZM135.436 4.24408C135.364 3.71603 135.267 3.18672 135.147 2.6567L127.344 4.4233C127.416 4.74128 127.471 5.04397 127.511 5.33192L135.436 4.24408ZM131.895 7.48692L132.843 7.33092L131.544 -0.562918L130.596 -0.406918L131.895 7.48692ZM128.331 4.4239C128.338 4.45069 128.364 4.55804 128.398 4.77585L136.301 3.52815C136.239 3.13796 136.161 2.73331 136.056 2.3441L128.331 4.4239ZM128.401 4.79228C128.436 5.00779 128.466 5.23426 128.49 5.47212L136.449 4.65588C136.409 4.26974 136.359 3.88821 136.298 3.51172L128.401 4.79228ZM128.491 5.48274C128.512 5.67819 128.517 5.81155 128.517 5.892H136.517C136.517 5.47645 136.491 5.05781 136.447 4.64526L128.491 5.48274ZM128.517 5.892C128.517 6.1917 128.506 6.41434 128.491 6.57115C128.475 6.73399 128.46 6.78136 128.469 6.74603L136.206 8.78197C136.452 7.84477 136.517 6.82884 136.517 5.892H128.517ZM128.474 6.72906C128.545 6.4636 128.82 5.79321 129.593 5.31737L133.786 12.1306C135.183 11.2708 135.89 9.9604 136.201 8.79894L128.474 6.72906ZM129.618 5.302C129.945 5.10394 130.211 5.03616 130.317 5.0142C130.425 4.99173 130.45 5 130.357 5V13C131.251 13 132.55 12.8788 133.761 12.146L129.618 5.302ZM126.445 5H125.245V13H126.445V5ZM129.245 9V7.92H121.245V9H129.245ZM125.245 11.92H126.985V3.92H125.245V11.92ZM126.985 11.92C127.432 11.92 128.557 11.9027 129.648 11.2966L125.763 4.30337C126.233 4.04247 126.624 3.96715 126.76 3.94442C126.922 3.91749 127.01 3.92 126.985 3.92V11.92ZM129.791 11.2131C131.66 10.071 131.921 8.16212 131.921 7.284H123.921C123.921 6.91788 124.039 5.35302 125.62 4.38687L129.791 11.2131ZM131.921 7.284V4.44H123.921V7.284H131.921ZM127.921 8.44H128.881V0.44H127.921V8.44ZM124.881 4.44V6.732H132.881V4.44H124.881ZM124.881 6.732C124.881 6.86919 124.877 6.96193 124.872 7.0168C124.867 7.07409 124.864 7.06826 124.876 7.01467L132.695 8.70533C132.841 8.02991 132.881 7.34484 132.881 6.732H124.881ZM124.855 7.11643C124.917 6.78939 125.116 6.19666 125.676 5.66258L131.199 11.4494C132.111 10.5793 132.542 9.52261 132.716 8.60357L124.855 7.11643ZM125.609 5.72757C126.172 5.16438 126.747 5.01644 126.921 4.98168L128.49 12.8263C129.304 12.6636 130.367 12.2836 131.266 11.3844L125.609 5.72757ZM126.921 4.98168C126.958 4.97437 126.939 4.98053 126.847 4.98756C126.758 4.99432 126.626 5 126.445 5V13C127.094 13 127.806 12.9631 128.49 12.8263L126.921 4.98168ZM125.245 5H122.365V13H125.245V5ZM126.365 9V7.92H118.365V9H126.365ZM122.365 11.92H124.285V3.92H122.365V11.92ZM128.285 7.92V4.44H120.285V7.92H128.285ZM124.285 8.44H125.245V0.44H124.285V8.44ZM121.245 4.44V9H129.245V4.44H121.245ZM131.737 11.92H133.957V3.92H131.737V11.92ZM129.957 7.92V9H137.957V7.92H129.957ZM133.957 5H130.357V13H133.957V5ZM132.823 12.15L134.203 11.07L129.272 4.76998L127.892 5.84998L132.823 12.15ZM139.271 5.76L135.507 7.11488C136.079 8.70191 137.584 9.76 139.271 9.76V5.76ZM140.375 5.76H144.375C144.375 3.55086 142.584 1.76 140.375 1.76V5.76ZM140.375 6.84V10.84C142.584 10.84 144.375 9.04914 144.375 6.84H140.375ZM138.755 6.684L136.212 9.77172C136.249 9.8023 136.287 9.83221 136.325 9.86143L138.755 6.684ZM138.419 6.168L134.65 7.5093C134.66 7.53517 134.669 7.56094 134.679 7.58662L138.419 6.168ZM137.807 5.064L134.807 7.71049C134.821 7.72532 134.834 7.74005 134.847 7.75469L137.807 5.064ZM135.035 4.332L134.845 0.336516L134.835 0.33699L135.035 4.332ZM134.519 4.368L130.562 4.95256C130.871 7.04594 132.757 8.53628 134.865 8.35296L134.519 4.368ZM134.363 3.312L133.951 -0.666768C132.866 -0.554494 131.874 -0.00373816 131.204 0.857876C130.535 1.71949 130.246 2.81717 130.406 3.89656L134.363 3.312ZM135.023 3.264L135.177 7.26104C135.224 7.25923 135.271 7.25657 135.318 7.25307L135.023 3.264ZM137.327 3.504L135.887 7.23569C135.906 7.24307 135.925 7.25029 135.944 7.25737L137.327 3.504ZM138.479 4.308L141.53 1.72126V1.72126L138.479 4.308ZM138.467 5.82L140.054 2.14857C139.063 1.71989 137.941 1.71031 136.942 2.12199C135.944 2.53368 135.154 3.33165 134.753 4.33443L138.467 5.82ZM139.355 6.204L143.094 7.62487C143.854 5.62521 142.906 3.38163 140.942 2.53257L139.355 6.204ZM138.779 7.32L142.07 9.59276C142.079 9.58074 142.087 9.56868 142.095 9.55657L138.779 7.32ZM137.951 8.208L140.401 11.3697C140.417 11.3571 140.434 11.3443 140.45 11.3315L137.951 8.208ZM136.847 8.796L138.09 12.598C138.112 12.5908 138.134 12.5835 138.155 12.5759L136.847 8.796ZM133.475 9H129.475C129.475 11.2091 131.266 13 133.475 13V9ZM133.475 7.92V3.92C131.266 3.92 129.475 5.71086 129.475 7.92H133.475ZM137.483 7.224L134.813 4.24572C134.795 4.26127 134.778 4.27697 134.761 4.29283L137.483 7.224ZM138.071 6.552L134.759 4.30861C134.754 4.31678 134.748 4.32498 134.743 4.3332L138.071 6.552ZM139.271 9.76H140.375V1.76H139.271V9.76ZM136.375 5.76V6.84H144.375V5.76H136.375ZM140.375 2.84H139.319V10.84H140.375V2.84ZM139.319 2.84C139.612 2.84 140.391 2.89983 141.185 3.50657L136.325 9.86143C137.39 10.6762 138.546 10.84 139.319 10.84V2.84ZM141.298 3.59628C141.875 4.07144 142.095 4.58216 142.159 4.74938L134.679 7.58662C134.918 8.21784 135.363 9.07256 136.212 9.77172L141.298 3.59628ZM142.187 4.8267C141.908 4.04303 141.476 3.15339 140.767 2.37331L134.847 7.75469C134.726 7.62144 134.663 7.51697 134.641 7.47734C134.619 7.43765 134.626 7.44201 134.65 7.5093L142.187 4.8267ZM140.806 2.41751C140.046 1.55567 139.092 0.975505 138.059 0.661304L135.73 8.3147C135.434 8.22449 135.088 8.02833 134.807 7.71049L140.806 2.41751ZM138.059 0.661304C137.189 0.396406 136.305 0.32 135.515 0.32V8.32C135.659 8.32 135.748 8.32748 135.79 8.33268C135.835 8.33807 135.808 8.33846 135.73 8.3147L138.059 0.661304ZM135.515 0.32C135.293 0.32 135.069 0.325822 134.845 0.336527L135.225 8.32747C135.336 8.32218 135.433 8.32 135.515 8.32V0.32ZM134.835 0.33699C134.619 0.347775 134.398 0.363414 134.172 0.383038L134.865 8.35296C135.008 8.34059 135.13 8.33222 135.235 8.32701L134.835 0.33699ZM138.476 3.78344L138.32 2.72743L130.406 3.89656L130.562 4.95256L138.476 3.78344ZM134.774 7.29077C134.931 7.2746 135.064 7.26537 135.177 7.26104L134.869 -0.733045C134.565 -0.721366 134.259 -0.698599 133.951 -0.666768L134.774 7.29077ZM135.318 7.25307C135.448 7.24345 135.553 7.24 135.635 7.24V-0.76C135.333 -0.76 135.029 -0.747451 134.727 -0.725071L135.318 7.25307ZM135.635 7.24C135.8 7.24 135.899 7.25101 135.945 7.25818C135.991 7.26537 135.964 7.26573 135.887 7.23569L138.767 -0.227693C137.715 -0.633921 136.627 -0.76 135.635 -0.76V7.24ZM135.944 7.25737C135.863 7.22754 135.767 7.18029 135.668 7.11113C135.568 7.04188 135.488 6.96573 135.428 6.89474L141.53 1.72126C140.768 0.823029 139.808 0.155316 138.71 -0.249372L135.944 7.25737ZM135.428 6.89474C135.385 6.84427 135.379 6.82613 135.399 6.86241C135.419 6.89897 135.458 6.97871 135.507 7.11488L143.034 4.40512C142.706 3.49177 142.233 2.55035 141.53 1.72126L135.428 6.89474ZM136.879 9.49143L137.767 9.87543L140.942 2.53257L140.054 2.14857L136.879 9.49143ZM135.616 4.78313C135.569 4.9049 135.517 5.00206 135.463 5.08343L142.095 9.55657C142.504 8.94994 142.836 8.3031 143.094 7.62487L135.616 4.78313ZM135.487 5.04724C135.477 5.06138 135.469 5.07106 135.452 5.08453L140.45 11.3315C141.073 10.8329 141.616 10.2506 142.07 9.59276L135.487 5.04724ZM135.501 5.04634C135.525 5.0274 135.544 5.01592 135.554 5.01053C135.564 5.00533 135.56 5.00843 135.538 5.01606L138.155 12.5759C138.947 12.3018 139.708 11.9069 140.401 11.3697L135.501 5.04634ZM135.604 4.99402C135.662 4.975 135.621 5 135.431 5V13C136.297 13 137.2 12.889 138.09 12.598L135.604 4.99402ZM135.431 5H133.475V13H135.431V5ZM137.475 9V7.92H129.475V9H137.475ZM133.475 11.92H135.707V3.92H133.475V11.92ZM135.707 11.92C136.544 11.92 137.427 11.7727 138.29 11.3994L135.115 4.05657C135.386 3.93931 135.605 3.92 135.707 3.92V11.92ZM138.29 11.3994C138.981 11.1009 139.629 10.6893 140.205 10.1552L134.761 4.29283C134.888 4.1747 135.017 4.09906 135.115 4.05657L138.29 11.3994ZM140.153 10.2023C140.615 9.78765 141.038 9.31204 141.399 8.7708L134.743 4.3332C134.783 4.27196 134.814 4.24435 134.813 4.24572L140.153 10.2023ZM141.383 8.79539C141.687 8.34648 141.963 7.84994 142.181 7.30556L134.753 4.33443C134.766 4.30161 134.776 4.28333 134.778 4.27972C134.78 4.2762 134.775 4.28588 134.759 4.30861L141.383 8.79539ZM152.659 7.92V3.92C150.45 3.92 148.659 5.71086 148.659 7.92H152.659ZM154.219 7.92H158.219C158.219 5.71086 156.428 3.92 154.219 3.92V7.92ZM154.219 9V13C156.428 13 158.219 11.2091 158.219 9H154.219ZM152.659 9H148.659C148.659 11.2091 150.45 13 152.659 13V9ZM144.367 7.98L140.518 9.06783C140.527 9.10144 140.537 9.13492 140.548 9.16827L144.367 7.98ZM144.295 5.4L140.345 4.76804C140.342 4.7901 140.338 4.81219 140.335 4.83431L144.295 5.4ZM144.547 4.392L145.222 0.449264C143.34 0.127376 141.493 1.18021 140.811 2.96345L144.547 4.392ZM145.459 4.548L149.29 5.69739C149.62 4.6 149.462 3.41411 148.859 2.44035C148.255 1.46659 147.263 0.798435 146.134 0.605264L145.459 4.548ZM145.243 5.484L149.194 6.10785V6.10785L145.243 5.484ZM145.207 7.212L141.225 7.58536C141.229 7.63162 141.234 7.6778 141.24 7.72388L145.207 7.212ZM145.363 7.92L141.555 9.14404C142.087 10.7982 143.626 11.92 145.363 11.92V7.92ZM151.819 7.92V11.92C154.028 11.92 155.819 10.1291 155.819 7.92H151.819ZM151.819 3.36V-0.64C149.61 -0.64 147.819 1.15086 147.819 3.36H151.819ZM152.779 3.36H156.779C156.779 1.15086 154.988 -0.64 152.779 -0.64V3.36ZM152.779 9V13C154.988 13 156.779 11.2091 156.779 9H152.779ZM148.363 11.292L146.086 14.5808L146.086 14.5808L148.363 11.292ZM148.087 11.016L144.798 13.2928C144.809 13.309 144.821 13.325 144.832 13.341L148.087 11.016ZM148.087 10.452L145.014 7.89126C144.938 7.98264 144.866 8.07736 144.798 8.17516L148.087 10.452ZM148.363 10.188L146.086 6.89923C146.031 6.93729 145.977 6.97673 145.924 7.01751L148.363 10.188ZM148.915 10.188L151.354 7.0175C151.341 7.00759 151.328 6.99776 151.315 6.988L148.915 10.188ZM149.179 10.452L145.979 12.852C145.989 12.865 145.999 12.878 146.009 12.8908L149.179 10.452ZM149.179 11.016L146.009 8.57716C145.968 8.63016 145.928 8.68418 145.89 8.73916L149.179 11.016ZM148.915 11.28L146.638 7.99123C146.583 8.02929 146.529 8.06873 146.476 8.1095L148.915 11.28ZM152.659 11.92H154.219V3.92H152.659V11.92ZM150.219 7.92V9H158.219V7.92H150.219ZM154.219 5H152.659V13H154.219V5ZM156.659 9V7.92H148.659V9H156.659ZM145.891 5C145.969 5 146.474 5.01085 147.076 5.39881L142.739 12.1212C143.836 12.8292 144.998 13 145.891 13V5ZM147.076 5.39881C147.813 5.87478 148.099 6.51013 148.187 6.79173L140.548 9.16827C140.859 10.1699 141.505 11.3252 142.739 12.1212L147.076 5.39881ZM148.216 6.89217C148.239 6.97343 148.235 6.9895 148.227 6.91371C148.219 6.84172 148.211 6.71662 148.211 6.528H140.211C140.211 7.31233 140.274 8.20451 140.518 9.06783L148.216 6.89217ZM148.211 6.528C148.211 6.37493 148.223 6.18864 148.255 5.96569L140.335 4.83431C140.255 5.39536 140.211 5.96107 140.211 6.528H148.211ZM148.245 6.03196C148.262 5.92714 148.277 5.85766 148.287 5.81814C148.297 5.77756 148.298 5.78193 148.283 5.82055L140.811 2.96345C140.579 3.57086 140.437 4.19293 140.345 4.76804L148.245 6.03196ZM143.873 8.33474L144.785 8.49074L146.134 0.605264L145.222 0.449264L143.873 8.33474ZM141.628 3.39861C141.484 3.87643 141.37 4.36415 141.292 4.86015L149.194 6.10785C149.212 5.99585 149.242 5.85957 149.29 5.69739L141.628 3.39861ZM141.292 4.86015C141.217 5.33755 141.171 5.83219 141.171 6.336H149.171C149.171 6.31181 149.174 6.23845 149.194 6.10785L141.292 4.86015ZM141.171 6.336C141.171 6.75658 141.186 7.17696 141.225 7.58536L149.19 6.83864C149.18 6.73504 149.171 6.57142 149.171 6.336H141.171ZM141.24 7.72388C141.301 8.19859 141.404 8.674 141.555 9.14404L149.171 6.69596C149.175 6.70664 149.176 6.71301 149.176 6.71429C149.177 6.71552 149.176 6.71104 149.174 6.70012L141.24 7.72388ZM145.363 11.92H151.819V3.92H145.363V11.92ZM155.819 7.92V3.36H147.819V7.92H155.819ZM151.819 7.36H152.779V-0.64H151.819V7.36ZM148.779 3.36V9H156.779V3.36H148.779ZM152.779 5H145.891V13H152.779V5ZM148.639 7.4C149.721 7.4 150.434 7.86033 150.64 8.00323L146.086 14.5808C146.501 14.8677 147.398 15.4 148.639 15.4V7.4ZM150.64 8.00323C150.947 8.2159 151.178 8.46087 151.342 8.69104L144.832 13.341C145.157 13.7951 145.571 14.2241 146.086 14.5808L150.64 8.00323ZM151.376 8.73916C151.519 8.94557 151.979 9.65845 151.979 10.74H143.979C143.979 11.9815 144.511 12.8784 144.798 13.2928L151.376 8.73916ZM151.979 10.74C151.979 11.7503 151.573 12.4441 151.376 12.7288L144.798 8.17516C144.457 8.66794 143.979 9.55369 143.979 10.74H151.979ZM151.16 13.0127C151.043 13.1537 150.919 13.2681 150.802 13.3585L145.924 7.01751C145.599 7.2679 145.292 7.55833 145.014 7.89126L151.16 13.0127ZM150.64 13.4768C150.434 13.6197 149.721 14.08 148.639 14.08V6.08C147.398 6.08 146.501 6.61233 146.086 6.89923L150.64 13.4768ZM148.639 14.08C147.596 14.08 146.863 13.6493 146.515 13.388L151.315 6.988C150.775 6.58274 149.858 6.08 148.639 6.08V14.08ZM146.476 13.3585C146.319 13.2378 146.144 13.0718 145.979 12.852L152.379 8.052C152.07 7.64018 151.719 7.29818 151.354 7.0175L146.476 13.3585ZM146.009 12.8908C145.803 12.6237 145.299 11.8739 145.299 10.74H153.299C153.299 9.43009 152.715 8.4883 152.35 8.01316L146.009 12.8908ZM145.299 10.74C145.299 10.1108 145.456 9.6077 145.601 9.2741C145.744 8.94373 145.906 8.71021 146.009 8.57716L152.35 13.4548C152.651 13.063 153.299 12.1091 153.299 10.74H145.299ZM145.89 8.73916C146.092 8.44776 146.347 8.19297 146.638 7.99123L151.192 14.5688C151.691 14.223 152.122 13.7922 152.468 13.2928L145.89 8.73916ZM146.476 8.1095C146.609 8.00715 146.843 7.84536 147.173 7.70172C147.507 7.55667 148.01 7.4 148.639 7.4V15.4C150.008 15.4 150.962 14.7519 151.354 14.4505L146.476 8.1095ZM156.617 7.92H152.617C152.617 10.1291 154.407 11.92 156.617 11.92V7.92ZM158.057 7.92H162.057C162.057 5.71086 160.266 3.92 158.057 3.92V7.92ZM158.057 9V13C160.266 13 162.057 11.2091 162.057 9H158.057ZM153.737 9H149.737C149.737 11.2091 151.527 13 153.737 13V9ZM153.737 7.92V3.92C151.527 3.92 149.737 5.71086 149.737 7.92H153.737ZM155.657 7.92V11.92C157.866 11.92 159.657 10.1291 159.657 7.92H155.657ZM155.657 3.36V-0.64C153.447 -0.64 151.657 1.15086 151.657 3.36H155.657ZM156.617 3.36H160.617C160.617 1.15086 158.826 -0.64 156.617 -0.64V3.36ZM154.937 11.172L157.213 7.88323V7.88323L154.937 11.172ZM154.661 10.896L151.372 13.1728C151.383 13.189 151.394 13.205 151.406 13.221L154.661 10.896ZM154.661 10.332L151.588 7.77126C151.512 7.86264 151.439 7.95736 151.372 8.05516L154.661 10.332ZM154.937 10.068L152.66 6.77923C152.605 6.8173 152.551 6.85673 152.498 6.8975L154.937 10.068ZM155.489 10.068L157.927 6.8975C157.915 6.88759 157.902 6.87776 157.889 6.868L155.489 10.068ZM155.753 10.332L152.553 12.732C152.562 12.745 152.572 12.758 152.582 12.7708L155.753 10.332ZM155.753 10.896L152.582 8.45716C152.541 8.51016 152.502 8.56418 152.464 8.61916L155.753 10.896ZM155.489 11.16L153.212 7.87123C153.157 7.9093 153.103 7.94873 153.05 7.9895L155.489 11.16ZM156.665 11.172L154.388 14.4608V14.4608L156.665 11.172ZM156.389 10.896L153.1 13.1728C153.111 13.189 153.122 13.205 153.134 13.221L156.389 10.896ZM156.389 10.332L153.316 7.77126C153.24 7.86264 153.167 7.95736 153.1 8.05516L156.389 10.332ZM156.665 10.068L154.388 6.77923C154.333 6.81729 154.279 6.85673 154.226 6.8975L156.665 10.068ZM157.217 10.068L159.655 6.8975C159.643 6.88759 159.63 6.87776 159.617 6.868L157.217 10.068ZM157.481 10.332L154.281 12.732C154.29 12.745 154.3 12.758 154.31 12.7708L157.481 10.332ZM157.481 10.896L154.31 8.45716C154.269 8.51016 154.23 8.56418 154.192 8.61916L157.481 10.896ZM157.217 11.16L154.94 7.87123C154.885 7.9093 154.831 7.94873 154.778 7.9895L157.217 11.16ZM156.617 11.92H158.057V3.92H156.617V11.92ZM154.057 7.92V9H162.057V7.92H154.057ZM158.057 5H153.737V13H158.057V5ZM157.737 9V7.92H149.737V9H157.737ZM153.737 11.92H155.657V3.92H153.737V11.92ZM159.657 7.92V3.36H151.657V7.92H159.657ZM155.657 7.36H156.617V-0.64H155.657V7.36ZM152.617 3.36V7.92H160.617V3.36H152.617ZM155.213 7.28C156.294 7.28 157.007 7.74033 157.213 7.88323L152.66 14.4608C153.074 14.7477 153.971 15.28 155.213 15.28V7.28ZM157.213 7.88323C157.521 8.0959 157.751 8.34087 157.915 8.57105L151.406 13.221C151.73 13.6751 152.145 14.1041 152.66 14.4608L157.213 7.88323ZM157.949 8.61916C158.092 8.82557 158.553 9.53845 158.553 10.62H150.553C150.553 11.8615 151.085 12.7584 151.372 13.1728L157.949 8.61916ZM158.553 10.62C158.553 11.6303 158.146 12.3241 157.949 12.6088L151.372 8.05516C151.031 8.54794 150.553 9.43369 150.553 10.62H158.553ZM157.733 12.8927C157.616 13.0337 157.493 13.1481 157.375 13.2385L152.498 6.8975C152.172 7.1479 151.865 7.43834 151.588 7.77126L157.733 12.8927ZM157.213 13.3568C157.007 13.4997 156.294 13.96 155.213 13.96V5.96C153.971 5.96 153.074 6.49233 152.66 6.77923L157.213 13.3568ZM155.213 13.96C154.169 13.96 153.437 13.5293 153.089 13.268L157.889 6.868C157.348 6.46274 156.432 5.96 155.213 5.96V13.96ZM153.05 13.2385C152.893 13.1178 152.717 12.9518 152.553 12.732L158.953 7.932C158.644 7.52018 158.292 7.17818 157.927 6.8975L153.05 13.2385ZM152.582 12.7708C152.377 12.5037 151.873 11.7539 151.873 10.62H159.873C159.873 9.31009 159.289 8.3683 158.923 7.89316L152.582 12.7708ZM151.873 10.62C151.873 9.99079 152.029 9.4877 152.174 9.15409C152.318 8.82373 152.48 8.59021 152.582 8.45716L158.923 13.3348C159.224 12.943 159.873 11.9891 159.873 10.62H151.873ZM152.464 8.61916C152.666 8.32776 152.92 8.07297 153.212 7.87123L157.765 14.4488C158.265 14.103 158.696 13.6722 159.041 13.1728L152.464 8.61916ZM153.05 7.9895C153.183 7.88716 153.416 7.72536 153.747 7.58172C154.08 7.43668 154.583 7.28 155.213 7.28V15.28C156.582 15.28 157.536 14.6319 157.927 14.3305L153.05 7.9895ZM156.941 7.28C158.022 7.28 158.735 7.74033 158.941 7.88323L154.388 14.4608C154.802 14.7477 155.699 15.28 156.941 15.28V7.28ZM158.941 7.88323C159.249 8.0959 159.479 8.34087 159.643 8.57105L153.134 13.221C153.458 13.6751 153.873 14.1041 154.388 14.4608L158.941 7.88323ZM159.677 8.61916C159.82 8.82557 160.281 9.53845 160.281 10.62H152.281C152.281 11.8615 152.813 12.7584 153.1 13.1728L159.677 8.61916ZM160.281 10.62C160.281 11.6303 159.874 12.3241 159.677 12.6088L153.1 8.05516C152.759 8.54794 152.281 9.43369 152.281 10.62H160.281ZM159.461 12.8927C159.344 13.0337 159.221 13.1481 159.103 13.2385L154.226 6.8975C153.9 7.1479 153.593 7.43833 153.316 7.77126L159.461 12.8927ZM158.941 13.3568C158.735 13.4997 158.022 13.96 156.941 13.96V5.96C155.699 5.96 154.802 6.49233 154.388 6.77923L158.941 13.3568ZM156.941 13.96C155.897 13.96 155.165 13.5293 154.817 13.268L159.617 6.868C159.076 6.46274 158.16 5.96 156.941 5.96V13.96ZM154.778 13.2385C154.621 13.1178 154.445 12.9518 154.281 12.732L160.681 7.932C160.372 7.52018 160.02 7.17818 159.655 6.8975L154.778 13.2385ZM154.31 12.7708C154.105 12.5037 153.601 11.7539 153.601 10.62H161.601C161.601 9.31009 161.017 8.3683 160.651 7.89316L154.31 12.7708ZM153.601 10.62C153.601 9.99079 153.757 9.4877 153.902 9.1541C154.046 8.82373 154.208 8.59021 154.31 8.45716L160.651 13.3348C160.952 12.943 161.601 11.9891 161.601 10.62H153.601ZM154.192 8.61916C154.394 8.32776 154.648 8.07297 154.94 7.87123L159.493 14.4488C159.993 14.103 160.424 13.6722 160.769 13.1728L154.192 8.61916ZM154.778 7.9895C154.911 7.88715 155.144 7.72536 155.475 7.58172C155.808 7.43668 156.311 7.28 156.941 7.28V15.28C158.31 15.28 159.264 14.6319 159.655 14.3305L154.778 7.9895ZM157.58 9H153.58C153.58 11.2091 155.371 13 157.58 13V9ZM157.58 7.92V3.92C155.371 3.92 153.58 5.71086 153.58 7.92H157.58ZM159.5 7.92V11.92C161.709 11.92 163.5 10.1291 163.5 7.92H159.5ZM159.5 3.36V-0.64C157.291 -0.64 155.5 1.15086 155.5 3.36H159.5ZM160.46 3.36H164.46C164.46 1.15086 162.669 -0.64 160.46 -0.64V3.36ZM160.46 9V13C162.669 13 164.46 11.2091 164.46 9H160.46ZM158.84 1.812L156.563 5.10077L158.84 1.812ZM158.564 1.548L155.2 3.71103C155.26 3.80566 155.325 3.89768 155.394 3.98684L158.564 1.548ZM158.564 0.983999L155.394 -1.45484C155.384 -1.44195 155.374 -1.42901 155.364 -1.416L158.564 0.983999ZM158.84 0.719999L161.117 4.00877C161.172 3.9707 161.226 3.93127 161.279 3.8905L158.84 0.719999ZM159.392 0.719999L156.832 3.79289C156.923 3.86903 157.018 3.94106 157.115 4.00877L159.392 0.719999ZM159.656 0.983999L156.368 3.26084C156.435 3.35863 156.507 3.45336 156.583 3.54473L159.656 0.983999ZM159.656 1.536L156.486 -0.902841C156.445 -0.849838 156.406 -0.79582 156.368 -0.740839L159.656 1.536ZM159.392 1.812L161.669 5.10077C161.724 5.06271 161.778 5.02327 161.831 4.9825L159.392 1.812ZM160.568 1.812L162.845 -1.47677L162.845 -1.47677L160.568 1.812ZM160.292 1.548L156.928 3.71103C156.988 3.80566 157.053 3.89768 157.122 3.98684L160.292 1.548ZM160.292 0.983999L157.122 -1.45484C157.112 -1.44195 157.102 -1.42901 157.092 -1.416L160.292 0.983999ZM160.568 0.719999L162.845 4.00877C162.9 3.97071 162.954 3.93127 163.007 3.8905L160.568 0.719999ZM161.12 0.719999L158.56 3.79288C158.651 3.86903 158.746 3.94106 158.843 4.00877L161.12 0.719999ZM161.384 0.983999L158.096 3.26084C158.163 3.35863 158.235 3.45336 158.311 3.54473L161.384 0.983999ZM161.384 1.536L158.214 -0.902841C158.173 -0.849838 158.134 -0.79582 158.096 -0.740839L161.384 1.536ZM161.12 1.812L163.397 5.10077C163.452 5.0627 163.506 5.02327 163.559 4.9825L161.12 1.812ZM161.58 9V7.92H153.58V9H161.58ZM157.58 11.92H159.5V3.92H157.58V11.92ZM163.5 7.92V3.36H155.5V7.92H163.5ZM159.5 7.36H160.46V-0.64H159.5V7.36ZM156.46 3.36V9H164.46V3.36H156.46ZM160.46 5H157.58V13H160.46V5ZM159.116 -2.08C160.198 -2.08 160.911 -1.61967 161.117 -1.47677L156.563 5.10077C156.978 5.38767 157.875 5.92 159.116 5.92V-2.08ZM161.117 -1.47677C161.366 -1.30466 161.572 -1.10231 161.735 -0.890843L155.394 3.98684C155.716 4.40631 156.107 4.78466 156.563 5.10077L161.117 -1.47677ZM161.929 -0.615031C162.004 -0.498988 162.123 -0.295202 162.229 -0.0124948C162.334 0.268048 162.456 0.706554 162.456 1.26H154.456C154.456 2.46244 154.96 3.33786 155.2 3.71103L161.929 -0.615031ZM162.456 1.26C162.456 2.30327 162.026 3.03566 161.764 3.384L155.364 -1.416C154.959 -0.875659 154.456 0.040731 154.456 1.26H162.456ZM161.735 3.42284C161.572 3.63431 161.366 3.83666 161.117 4.00877L156.563 -2.56877C156.107 -2.25266 155.716 -1.87431 155.394 -1.45484L161.735 3.42284ZM161.279 3.8905C161.146 3.99285 160.913 4.15464 160.582 4.29828C160.249 4.44333 159.746 4.6 159.116 4.6V-3.4C157.747 -3.4 156.793 -2.75192 156.401 -2.4505L161.279 3.8905ZM159.116 4.6C157.944 4.6 157.157 4.06445 156.832 3.79289L161.953 -2.35289C161.435 -2.78445 160.465 -3.4 159.116 -3.4V4.6ZM157.115 4.00877C156.824 3.80703 156.569 3.55224 156.368 3.26084L162.945 -1.29284C162.599 -1.79224 162.169 -2.22303 161.669 -2.56877L157.115 4.00877ZM156.583 3.54473C156.312 3.21885 155.776 2.43264 155.776 1.26H163.776C163.776 -0.0886421 163.161 -1.05886 162.729 -1.57673L156.583 3.54473ZM155.776 1.26C155.776 0.630791 155.933 0.1277 156.078 -0.205904C156.222 -0.536268 156.383 -0.769787 156.486 -0.902841L162.827 3.97484C163.128 3.583 163.776 2.62913 163.776 1.26H155.776ZM156.368 -0.740839C156.54 -0.989435 156.742 -1.19583 156.953 -1.3585L161.831 4.9825C162.251 4.65983 162.629 4.26943 162.945 3.81284L156.368 -0.740839ZM157.115 -1.47677C157.322 -1.61967 158.035 -2.08 159.116 -2.08V5.92C160.358 5.92 161.255 5.38767 161.669 5.10077L157.115 -1.47677ZM160.844 -2.08C161.926 -2.08 162.639 -1.61967 162.845 -1.47677L158.291 5.10077C158.706 5.38767 159.603 5.92 160.844 5.92V-2.08ZM162.845 -1.47677C163.094 -1.30466 163.3 -1.10231 163.463 -0.890841L157.122 3.98684C157.444 4.40631 157.835 4.78466 158.291 5.10077L162.845 -1.47677ZM163.657 -0.615032C163.732 -0.498989 163.851 -0.295203 163.957 -0.0124953C164.062 0.268048 164.184 0.706554 164.184 1.26H156.184C156.184 2.46244 156.688 3.33786 156.928 3.71103L163.657 -0.615032ZM164.184 1.26C164.184 2.30327 163.754 3.03566 163.492 3.384L157.092 -1.416C156.687 -0.875659 156.184 0.0407302 156.184 1.26H164.184ZM163.463 3.42284C163.3 3.63431 163.094 3.83666 162.845 4.00877L158.291 -2.56877C157.835 -2.25267 157.444 -1.87431 157.122 -1.45484L163.463 3.42284ZM163.007 3.8905C162.874 3.99285 162.641 4.15464 162.31 4.29828C161.977 4.44333 161.474 4.6 160.844 4.6V-3.4C159.475 -3.4 158.521 -2.75192 158.129 -2.4505L163.007 3.8905ZM160.844 4.6C159.672 4.6 158.885 4.06445 158.56 3.79288L163.681 -2.35289C163.163 -2.78445 162.193 -3.4 160.844 -3.4V4.6ZM158.843 4.00877C158.552 3.80703 158.297 3.55224 158.096 3.26084L164.673 -1.29284C164.327 -1.79224 163.897 -2.22303 163.397 -2.56877L158.843 4.00877ZM158.311 3.54473C158.04 3.21885 157.504 2.43264 157.504 1.26H165.504C165.504 -0.0886421 164.889 -1.05886 164.457 -1.57673L158.311 3.54473ZM157.504 1.26C157.504 0.630791 157.661 0.1277 157.806 -0.205904C157.95 -0.536268 158.111 -0.769787 158.214 -0.902841L164.555 3.97484C164.856 3.583 165.504 2.62913 165.504 1.26H157.504ZM158.096 -0.740839C158.268 -0.989436 158.47 -1.19583 158.681 -1.3585L163.559 4.9825C163.979 4.65983 164.357 4.26943 164.673 3.81284L158.096 -0.740839ZM158.843 -1.47677C159.05 -1.61967 159.763 -2.08 160.844 -2.08V5.92C162.086 5.92 162.983 5.38767 163.397 5.10077L158.843 -1.47677ZM164.184 7.92V3.92C161.975 3.92 160.184 5.71086 160.184 7.92H164.184ZM165.624 7.92H169.624C169.624 5.71086 167.833 3.92 165.624 3.92V7.92ZM165.624 9V13C167.833 13 169.624 11.2091 169.624 9H165.624ZM164.184 9H160.184C160.184 11.2091 161.975 13 164.184 13V9ZM162.408 12.108L158.81 13.8556C159.275 14.8123 160.101 15.5446 161.107 15.8905C162.113 16.2364 163.215 16.1676 164.17 15.6992L162.408 12.108ZM162 11.268L160.248 7.67204C158.264 8.63877 157.438 11.0301 158.402 13.0156L162 11.268ZM162.732 10.752L159.844 7.98438C159.824 8.00573 159.803 8.0273 159.783 8.0491L162.732 10.752ZM163.116 10.044L159.27 8.94512C159.26 8.97923 159.251 9.01347 159.242 9.04784L163.116 10.044ZM163.236 3.36V-0.64C161.027 -0.64 159.236 1.15086 159.236 3.36H163.236ZM164.196 3.36H168.196C168.196 1.15086 166.405 -0.64 164.196 -0.64V3.36ZM164.016 10.368L160.198 9.1749C160.196 9.18231 160.194 9.18972 160.191 9.19714L164.016 10.368ZM163.44 11.376L166.35 14.1201L163.44 11.376ZM164.184 11.92H165.624V3.92H164.184V11.92ZM161.624 7.92V9H169.624V7.92H161.624ZM165.624 5H164.184V13H165.624V5ZM168.184 9V7.92H160.184V9H168.184ZM166.006 10.3604L165.598 9.52038L158.402 13.0156L158.81 13.8556L166.006 10.3604ZM163.752 14.864C164.374 14.561 165.073 14.1177 165.681 13.4549L159.783 8.0491C159.915 7.9057 160.033 7.81137 160.112 7.75564C160.191 7.70019 160.242 7.67521 160.248 7.67204L163.752 14.864ZM165.62 13.5196C166.32 12.789 166.762 11.9259 166.99 11.0402L159.242 9.04784C159.326 8.7221 159.512 8.33102 159.844 7.98438L165.62 13.5196ZM166.962 11.1429C167.178 10.3889 167.236 9.64287 167.236 9H159.236C159.236 9.04023 159.235 9.06999 159.234 9.09011C159.233 9.11032 159.232 9.11863 159.232 9.11624C159.232 9.11394 159.234 9.09811 159.24 9.0705C159.245 9.04298 159.254 9.00033 159.27 8.94512L166.962 11.1429ZM167.236 9V3.36H159.236V9H167.236ZM163.236 7.36H164.196V-0.64H163.236V7.36ZM160.196 3.36V9H168.196V3.36H160.196ZM160.196 9C160.196 9.11446 160.189 9.18428 160.185 9.21618C160.181 9.2482 160.181 9.23046 160.198 9.1749L167.834 11.5611C168.106 10.6919 168.196 9.8139 168.196 9H160.196ZM160.191 9.19714C160.239 9.04073 160.345 8.82809 160.53 8.63195L166.35 14.1201C167.063 13.3639 167.553 12.4793 167.841 11.5389L160.191 9.19714ZM160.53 8.63195C160.66 8.49379 160.734 8.47367 160.646 8.51684L164.17 15.6992C164.93 15.3263 165.692 14.8182 166.35 14.1201L160.53 8.63195ZM165.139 9H161.139C161.139 11.2091 162.93 13 165.139 13V9ZM165.139 7.92V3.92C162.93 3.92 161.139 5.71086 161.139 7.92H165.139ZM167.059 7.92V11.92C169.268 11.92 171.059 10.1291 171.059 7.92H167.059ZM167.059 3.36V-0.64C164.85 -0.64 163.059 1.15086 163.059 3.36H167.059ZM168.019 3.36H172.019C172.019 1.15086 170.228 -0.64 168.019 -0.64V3.36ZM168.019 9V13C170.228 13 172.019 11.2091 172.019 9H168.019ZM166.399 1.812L164.122 5.10077L166.399 1.812ZM166.123 1.548L162.758 3.71103C162.819 3.80566 162.884 3.89768 162.952 3.98684L166.123 1.548ZM166.123 0.983999L162.952 -1.45484C162.942 -1.44195 162.933 -1.42901 162.923 -1.416L166.123 0.983999ZM166.399 0.719999L168.676 4.00877C168.731 3.9707 168.785 3.93127 168.838 3.8905L166.399 0.719999ZM166.951 0.719999L164.39 3.79289C164.482 3.86903 164.576 3.94106 164.674 4.00877L166.951 0.719999ZM167.215 0.983999L163.926 3.26084C163.994 3.35863 164.066 3.45336 164.142 3.54473L167.215 0.983999ZM167.215 1.536L164.044 -0.902841C164.004 -0.849838 163.964 -0.79582 163.926 -0.740839L167.215 1.536ZM166.951 1.812L169.228 5.10077C169.283 5.06271 169.337 5.02327 169.39 4.9825L166.951 1.812ZM168.127 1.812L170.404 -1.47677L170.404 -1.47677L168.127 1.812ZM167.851 1.548L164.486 3.71103C164.547 3.80566 164.612 3.89768 164.68 3.98684L167.851 1.548ZM167.851 0.983999L164.68 -1.45484C164.67 -1.44195 164.661 -1.42901 164.651 -1.416L167.851 0.983999ZM168.127 0.719999L170.404 4.00877C170.459 3.97071 170.513 3.93127 170.566 3.8905L168.127 0.719999ZM168.679 0.719999L166.118 3.79288C166.21 3.86903 166.304 3.94106 166.402 4.00877L168.679 0.719999ZM168.943 0.983999L165.654 3.26084C165.722 3.35863 165.794 3.45336 165.87 3.54473L168.943 0.983999ZM168.943 1.536L165.772 -0.902841C165.732 -0.849838 165.692 -0.79582 165.654 -0.740839L168.943 1.536ZM168.679 1.812L170.956 5.10077C171.011 5.0627 171.065 5.02327 171.118 4.9825L168.679 1.812ZM169.139 9V7.92H161.139V9H169.139ZM165.139 11.92H167.059V3.92H165.139V11.92ZM171.059 7.92V3.36H163.059V7.92H171.059ZM167.059 7.36H168.019V-0.64H167.059V7.36ZM164.019 3.36V9H172.019V3.36H164.019ZM168.019 5H165.139V13H168.019V5ZM166.675 -2.08C167.756 -2.08 168.469 -1.61967 168.676 -1.47677L164.122 5.10077C164.536 5.38767 165.433 5.92 166.675 5.92V-2.08ZM168.676 -1.47677C168.924 -1.30466 169.131 -1.10231 169.293 -0.890843L162.952 3.98684C163.275 4.40631 163.665 4.78466 164.122 5.10077L168.676 -1.47677ZM169.488 -0.615031C169.562 -0.498988 169.681 -0.295202 169.787 -0.0124948C169.892 0.268048 170.015 0.706554 170.015 1.26H162.015C162.015 2.46244 162.518 3.33786 162.758 3.71103L169.488 -0.615031ZM170.015 1.26C170.015 2.30327 169.584 3.03566 169.323 3.384L162.923 -1.416C162.518 -0.875659 162.015 0.040731 162.015 1.26H170.015ZM169.293 3.42284C169.131 3.63431 168.924 3.83666 168.676 4.00877L164.122 -2.56877C163.665 -2.25266 163.275 -1.87431 162.952 -1.45484L169.293 3.42284ZM168.838 3.8905C168.705 3.99285 168.471 4.15464 168.141 4.29828C167.807 4.44333 167.304 4.6 166.675 4.6V-3.4C165.306 -3.4 164.352 -2.75192 163.96 -2.4505L168.838 3.8905ZM166.675 4.6C165.502 4.6 164.716 4.06445 164.39 3.79289L169.512 -2.35289C168.994 -2.78445 168.024 -3.4 166.675 -3.4V4.6ZM164.674 4.00877C164.383 3.80703 164.128 3.55224 163.926 3.26084L170.504 -1.29284C170.158 -1.79224 169.727 -2.22303 169.228 -2.56877L164.674 4.00877ZM164.142 3.54473C163.87 3.21885 163.335 2.43264 163.335 1.26H171.335C171.335 -0.0886421 170.719 -1.05886 170.288 -1.57673L164.142 3.54473ZM163.335 1.26C163.335 0.630791 163.492 0.1277 163.637 -0.205904C163.78 -0.536268 163.942 -0.769787 164.044 -0.902841L170.385 3.97484C170.687 3.583 171.335 2.62913 171.335 1.26H163.335ZM163.926 -0.740839C164.098 -0.989435 164.301 -1.19583 164.512 -1.3585L169.39 4.9825C169.809 4.65983 170.188 4.26943 170.504 3.81284L163.926 -0.740839ZM164.674 -1.47677C164.88 -1.61967 165.593 -2.08 166.675 -2.08V5.92C167.916 5.92 168.813 5.38767 169.228 5.10077L164.674 -1.47677ZM168.403 -2.08C169.484 -2.08 170.197 -1.61967 170.404 -1.47677L165.85 5.10077C166.264 5.38767 167.161 5.92 168.403 5.92V-2.08ZM170.404 -1.47677C170.652 -1.30466 170.859 -1.10231 171.021 -0.890841L164.68 3.98684C165.003 4.40631 165.393 4.78466 165.85 5.10077L170.404 -1.47677ZM171.216 -0.615032C171.29 -0.498989 171.409 -0.295203 171.515 -0.0124953C171.62 0.268048 171.743 0.706554 171.743 1.26H163.743C163.743 2.46244 164.246 3.33786 164.486 3.71103L171.216 -0.615032ZM171.743 1.26C171.743 2.30327 171.312 3.03566 171.051 3.384L164.651 -1.416C164.246 -0.875659 163.743 0.0407302 163.743 1.26H171.743ZM171.021 3.42284C170.859 3.63431 170.652 3.83666 170.404 4.00877L165.85 -2.56877C165.393 -2.25267 165.003 -1.87431 164.68 -1.45484L171.021 3.42284ZM170.566 3.8905C170.433 3.99285 170.199 4.15464 169.869 4.29828C169.535 4.44333 169.032 4.6 168.403 4.6V-3.4C167.034 -3.4 166.08 -2.75192 165.688 -2.4505L170.566 3.8905ZM168.403 4.6C167.23 4.6 166.444 4.06445 166.118 3.79288L171.24 -2.35289C170.722 -2.78445 169.752 -3.4 168.403 -3.4V4.6ZM166.402 4.00877C166.111 3.80703 165.856 3.55224 165.654 3.26084L172.232 -1.29284C171.886 -1.79224 171.455 -2.22303 170.956 -2.56877L166.402 4.00877ZM165.87 3.54473C165.598 3.21885 165.063 2.43264 165.063 1.26H173.063C173.063 -0.0886421 172.447 -1.05886 172.016 -1.57673L165.87 3.54473ZM165.063 1.26C165.063 0.630791 165.22 0.1277 165.365 -0.205904C165.508 -0.536268 165.67 -0.769787 165.772 -0.902841L172.113 3.97484C172.415 3.583 173.063 2.62913 173.063 1.26H165.063ZM165.654 -0.740839C165.826 -0.989436 166.029 -1.19583 166.24 -1.3585L171.118 4.9825C171.537 4.65983 171.916 4.26943 172.232 3.81284L165.654 -0.740839ZM166.402 -1.47677C166.608 -1.61967 167.321 -2.08 168.403 -2.08V5.92C169.644 5.92 170.541 5.38767 170.956 5.10077L166.402 -1.47677Z" fill="white"/>
<path d="M101.36 39C100.816 39 100.379 38.8933 100.048 38.68C99.7173 38.4667 99.4773 38.12 99.328 37.64C99.1893 37.1493 99.12 36.504 99.12 35.704C99.12 35.224 99.1573 34.7227 99.232 34.2C99.3173 33.6667 99.4293 33.2187 99.568 32.856L100.784 33.064C100.656 33.4907 100.56 33.9067 100.496 34.312C100.432 34.7173 100.4 35.096 100.4 35.448C100.4 35.8853 100.416 36.2747 100.448 36.616C100.491 36.9467 100.56 37.2613 100.656 37.56H109.264V31.48H110.544V39H101.36ZM105.024 42.2C104.917 42.2 104.795 42.152 104.656 42.056C104.517 41.96 104.395 41.8373 104.288 41.688C104.192 41.5493 104.144 41.4267 104.144 41.32C104.144 41.2027 104.192 41.0747 104.288 40.936C104.395 40.808 104.517 40.6907 104.656 40.584C104.795 40.488 104.917 40.44 105.024 40.44C105.141 40.44 105.264 40.488 105.392 40.584C105.531 40.6907 105.648 40.808 105.744 40.936C105.851 41.0747 105.904 41.2027 105.904 41.32C105.904 41.4267 105.851 41.5493 105.744 41.688C105.648 41.8267 105.531 41.944 105.392 42.04C105.253 42.1467 105.131 42.2 105.024 42.2ZM115.501 37.56H117.421V39H115.501V37.56ZM113.133 43.144L112.589 42.024C113.005 41.8213 113.33 41.592 113.565 41.336C113.81 41.08 113.981 40.7653 114.077 40.392C114.183 40.0187 114.237 39.5547 114.237 39V31.48H115.517V39C115.517 39.704 115.437 40.312 115.277 40.824C115.117 41.3467 114.861 41.7947 114.509 42.168C114.157 42.5413 113.698 42.8667 113.133 43.144ZM116.774 37.56H119.334C119.28 37.2613 119.238 36.904 119.206 36.488C119.184 36.072 119.174 35.5227 119.174 34.84C119.174 34.1467 119.222 33.576 119.318 33.128C119.414 32.6693 119.584 32.312 119.83 32.056C120.075 31.7893 120.416 31.6027 120.854 31.496C121.291 31.3787 121.851 31.32 122.534 31.32C123.12 31.32 123.664 31.3573 124.166 31.432C124.667 31.5067 125.238 31.6347 125.878 31.816V39H116.774V37.56ZM123.862 37.56C124.139 37.56 124.331 37.5013 124.438 37.384C124.544 37.2667 124.598 37.0587 124.598 36.76V32.792H121.27C120.982 32.792 120.784 32.8507 120.678 32.968C120.582 33.0853 120.534 33.32 120.534 33.672V37.56H123.862ZM121.382 29.56C121.275 29.56 121.152 29.512 121.014 29.416C120.875 29.32 120.752 29.2027 120.646 29.064C120.55 28.9147 120.502 28.7867 120.502 28.68C120.502 28.5627 120.55 28.44 120.646 28.312C120.752 28.1733 120.875 28.056 121.014 27.96C121.152 27.8533 121.275 27.8 121.382 27.8C121.499 27.8 121.622 27.8533 121.75 27.96C121.888 28.056 122.006 28.1733 122.102 28.312C122.208 28.44 122.262 28.5627 122.262 28.68C122.262 28.7867 122.208 28.9093 122.102 29.048C122.006 29.1867 121.888 29.3093 121.75 29.416C121.611 29.512 121.488 29.56 121.382 29.56ZM123.686 29.56C123.579 29.56 123.456 29.512 123.318 29.416C123.179 29.32 123.056 29.2027 122.95 29.064C122.854 28.9147 122.806 28.7867 122.806 28.68C122.806 28.5627 122.854 28.44 122.95 28.312C123.056 28.1733 123.179 28.056 123.318 27.96C123.456 27.8533 123.579 27.8 123.686 27.8C123.803 27.8 123.926 27.8533 124.054 27.96C124.192 28.056 124.31 28.1733 124.406 28.312C124.512 28.44 124.566 28.5627 124.566 28.68C124.566 28.7867 124.512 28.9093 124.406 29.048C124.31 29.1867 124.192 29.3093 124.054 29.416C123.915 29.512 123.792 29.56 123.686 29.56ZM134.716 32.744V28.92H135.996V32.136C135.996 32.456 135.964 32.744 135.9 33C135.847 33.2453 135.751 33.4533 135.612 33.624C135.484 33.7947 135.298 33.9227 135.052 34.008V34.12C135.554 34.5467 135.895 34.9413 136.076 35.304C136.268 35.6667 136.364 36.0773 136.364 36.536C136.364 37.4747 136.039 38.1627 135.388 38.6C134.738 39.0267 133.687 39.24 132.236 39.24C131.308 39.24 130.578 39.1653 130.044 39.016C129.522 38.8667 129.154 38.6213 128.94 38.28C128.727 37.928 128.62 37.464 128.62 36.888C128.62 36.3867 128.679 35.9813 128.796 35.672C128.914 35.3627 129.138 35.096 129.468 34.872C129.799 34.6373 130.274 34.4027 130.892 34.168L134.716 32.744ZM129.98 37.8H133.212C133.842 37.8 134.295 37.6773 134.572 37.432C134.86 37.1867 135.004 36.904 135.004 36.584C135.004 36.36 134.94 36.1307 134.812 35.896C134.695 35.6613 134.524 35.4587 134.3 35.288L133.5 34.648L129.98 35.96V37.8ZM132.668 33.992L129.02 31.048L129.868 30.008L134.156 33.464L132.668 33.992ZM139.241 39V28.92H140.521V39H139.241Z" fill="#1FB9B3"/>
<path d="M158.999 25C159.244 25 159.48 25.09 159.663 25.2527C159.846 25.4155 159.963 25.6397 159.992 25.883L159.999 26V27.314C161.695 27.5352 163.27 28.3109 164.479 29.5204C165.688 30.7298 166.464 32.3051 166.685 34.001L167.999 34C168.254 34.0003 168.499 34.0979 168.684 34.2728C168.87 34.4478 168.981 34.687 168.996 34.9414C169.011 35.1958 168.928 35.4464 168.765 35.6418C168.601 35.8373 168.369 35.9629 168.116 35.993L167.999 36H166.685C166.464 37.6957 165.688 39.2708 164.479 40.48C163.27 41.6893 161.695 42.4648 159.999 42.686V44C159.999 44.2549 159.901 44.5 159.726 44.6854C159.551 44.8707 159.312 44.9822 159.057 44.9972C158.803 45.0121 158.553 44.9293 158.357 44.7657C158.162 44.6021 158.036 44.3701 158.006 44.117L157.999 44V42.686C156.303 42.4646 154.728 41.689 153.519 40.4798C152.31 39.2705 151.535 37.6956 151.314 36H149.999C149.744 35.9997 149.499 35.9021 149.314 35.7272C149.128 35.5522 149.017 35.313 149.002 35.0586C148.987 34.8042 149.07 34.5536 149.233 34.3582C149.397 34.1627 149.629 34.0371 149.882 34.007L149.999 34H151.313C151.534 32.3044 152.31 30.7296 153.519 29.5206C154.728 28.3115 156.303 27.5361 157.999 27.315V26C157.999 25.7348 158.104 25.4804 158.292 25.2929C158.479 25.1054 158.734 25 158.999 25ZM158.999 29.25C157.474 29.25 156.011 29.8558 154.933 30.9341C153.855 32.0125 153.249 33.475 153.249 35C153.249 36.525 153.855 37.9875 154.933 39.0659C156.011 40.1442 157.474 40.75 158.999 40.75C160.524 40.75 161.986 40.1442 163.065 39.0659C164.143 37.9875 164.749 36.525 164.749 35C164.749 33.475 164.143 32.0125 163.065 30.9341C161.986 29.8558 160.524 29.25 158.999 29.25ZM158.999 31C160.06 31 161.077 31.4214 161.827 32.1716C162.577 32.9217 162.999 33.9391 162.999 35C162.999 36.0609 162.577 37.0783 161.827 37.8284C161.077 38.5786 160.06 39 158.999 39C157.938 39 156.921 38.5786 156.17 37.8284C155.42 37.0783 154.999 36.0609 154.999 35C154.999 33.9391 155.42 32.9217 156.17 32.1716C156.921 31.4214 157.938 31 158.999 31Z" fill="#1FB9B3"/>
</svg>
