<svg width="88" height="88" viewBox="0 0 88 88" fill="none" xmlns="http://www.w3.org/2000/svg">
    <path d="M58.1711 14.7124C55.3872 14.7124 52.6815 14.7124 49.9196 14.7124C49.9196 35.1896 49.9196 55.6399 49.9196 76.1831C52.4444 75.4425 54.9277 74.7166 57.4085 73.9858C61.6785 72.727 65.946 71.4561 70.2208 70.212C73.6035 69.227 76.2481 71.2092 76.2603 74.7141C76.2726 77.85 75.3853 79.0794 72.4035 80.128C65.2689 82.6381 58.1418 85.1678 51.0048 87.6633C50.4158 87.8686 49.7607 87.9811 49.135 87.9835C42.2914 88.0055 35.4477 88.0055 28.6065 87.9835C27.9808 87.9811 27.3306 87.8686 26.7343 87.6731C22.0683 86.1455 17.4147 84.5861 12.7561 83.039C12.4457 82.9363 12.1304 82.8508 11.7344 82.7334C11.7344 83.5327 11.7515 84.2342 11.7295 84.9332C11.6978 85.9573 11.1503 86.517 10.1213 86.5219C7.34227 86.539 4.56081 86.5341 1.78179 86.5268C0.505942 86.5219 0.00733237 85.9866 0.0048882 84.6399C0.00244404 77.5836 0.00244399 70.5248 0.00244399 63.4685C0.00244399 60.0467 -1.21099e-07 56.6249 0.0048882 53.2031C0.00733237 51.8294 0.505942 51.3382 1.88934 51.3357C4.54614 51.3308 7.20539 51.3308 9.8622 51.3357C11.2334 51.3382 11.7247 51.8392 11.732 53.2226C11.7369 54.0145 11.732 54.8064 11.732 55.7352C12.3381 55.7352 12.9052 55.7743 13.4698 55.7303C18.4461 55.3417 23.2122 56.1972 27.9246 57.8054C31.9623 59.1839 36.1052 60.2471 40.2016 61.4497C40.4582 61.5254 40.7198 61.5841 41.0228 61.6623C41.0228 56.2411 41.0228 50.9055 41.0228 45.4697C40.6293 45.4697 40.2725 45.4697 39.9156 45.4697C27.3282 45.4697 14.7432 45.4697 2.15575 45.4697C0.408175 45.4697 0 45.0615 0 43.3164C0 33.0216 0 22.7268 0 12.4295C0 10.6771 0.403287 10.2738 2.15086 10.2738C14.7065 10.2738 27.2622 10.2738 39.8179 10.2738C40.1845 10.2738 40.5487 10.2738 41.0619 10.2738C41.0619 9.92425 41.0619 9.60407 41.0619 9.28388C41.0619 6.81039 41.057 4.33445 41.0644 1.86096C41.0668 0.531335 41.5703 0.018061 42.8755 0.0107285C44.1269 0.000951863 45.3808 0.032726 46.6322 0.000951873C47.473 -0.0210456 48.0131 0.338246 48.3724 1.07638C49.0275 2.42067 49.7485 3.73319 50.362 5.09459C50.6479 5.73007 51.0195 5.89139 51.6867 5.88894C63.0814 5.86694 74.4761 5.87183 85.8732 5.88405C86.3474 5.88405 86.8876 5.91338 87.2811 6.1358C87.9728 6.52442 88.1878 7.21123 87.8261 7.95426C86.8656 9.92914 85.9246 11.9187 84.854 13.8325C84.6169 14.2553 83.8983 14.5828 83.3704 14.6342C82.1923 14.7539 80.9971 14.6708 79.7042 14.6708C79.7653 14.9934 79.7946 15.2501 79.8606 15.4969C80.8627 19.2707 81.8648 23.0421 82.8816 26.811C82.9916 27.2192 83.1749 27.6102 83.3557 27.9964C85.9368 33.5569 85.7168 39.0025 82.3267 44.1132C78.9318 49.2288 73.9726 51.6266 67.8597 51.2893C56.5604 50.666 49.4919 38.5356 54.3362 28.2897C54.9032 27.0921 55.2234 25.7673 55.5803 24.4792C56.4039 21.512 57.1836 18.5302 57.978 15.5556C58.0464 15.2965 58.0978 15.0301 58.1711 14.7124ZM41.0228 13.2703C28.2936 13.2703 15.6378 13.2703 3.00876 13.2703C3.00876 23.0592 3.00876 32.7821 3.00876 42.4878C15.716 42.4878 28.3498 42.4878 41.0228 42.4878C41.0228 32.7356 41.0228 23.0347 41.0228 13.2703ZM11.8151 58.6731C11.7711 58.8491 11.7442 58.9077 11.7442 58.9639C11.7393 65.6512 11.7466 72.3409 11.7198 79.0281C11.7173 79.6269 12.0595 79.7198 12.4726 79.8591C17.4782 81.5236 22.4814 83.1954 27.4895 84.8501C27.8855 84.9821 28.3205 85.0529 28.7385 85.0554C35.4868 85.0676 42.2376 85.0676 48.9859 85.0578C49.3428 85.0578 49.7216 85.0163 50.0565 84.899C57.3914 82.3253 64.7214 79.7418 72.0515 77.1485C73.276 76.7159 73.7331 75.4498 73.2687 73.9271C72.9754 72.969 72.1957 72.6953 70.849 73.0912C65.9069 74.543 60.9428 75.9313 56.0275 77.4736C52.3662 78.6224 48.7146 79.5438 44.826 79.2236C43.1273 79.0843 41.4041 79.1381 39.6981 79.2212C38.3636 79.2847 37.2173 78.9425 36.0636 78.2851C32.2238 76.0902 28.3425 73.9687 24.471 71.8276C23.7597 71.4341 23.3075 70.8866 23.53 70.0482C23.7475 69.2245 24.3732 68.897 25.2042 68.9361C25.4169 68.9459 25.6319 68.9386 25.8446 68.9386C31.2193 68.9386 36.594 68.9386 41.9712 68.9386C43.5672 68.9386 44.1049 68.3373 43.9998 66.7462C43.9265 65.6634 43.1493 65.375 42.2962 65.1232C36.9142 63.5443 31.5346 61.9532 26.1525 60.3742C24.1923 59.7999 22.259 58.9517 20.2597 58.7489C17.4831 58.4629 14.6552 58.6731 11.8151 58.6731ZM55.7318 35.2042C55.7489 42.5147 61.6638 48.4052 68.9767 48.3929C76.2554 48.3807 82.1483 42.4243 82.1263 35.104C82.1043 27.9255 76.1528 21.9984 68.9694 22.0033C61.6491 22.0082 55.7147 27.9255 55.7318 35.2042ZM46.9304 65.5534C46.9304 65.2186 46.9304 64.8837 46.9304 64.5489C46.9304 55.7523 46.9304 46.9582 46.9304 38.1617C46.9304 30.0079 46.9304 21.8518 46.9304 13.698C46.9304 12.2071 47.4021 11.7452 48.9101 11.7403C49.1228 11.7403 49.3379 11.7403 49.5505 11.7403C60.2999 11.7403 71.0518 11.7427 81.8012 11.7305C82.1361 11.7305 82.6469 11.6865 82.774 11.4763C83.2775 10.6599 83.6588 9.76783 84.1354 8.80727C83.649 8.80727 83.3166 8.80727 82.9842 8.80727C72.203 8.80727 61.4218 8.79016 50.6406 8.83171C49.3892 8.8366 48.6584 8.41865 48.1745 7.27723C47.627 5.98915 46.9622 4.74507 46.2827 3.52055C46.1336 3.24924 45.7278 3.03905 45.4028 2.96572C44.9775 2.8704 44.5131 2.94372 43.9949 2.94372C43.9949 3.37879 43.9949 3.70875 43.9949 4.03627C43.9949 23.2156 43.9949 42.395 43.9949 61.5743C43.9949 61.7576 43.9485 61.958 44.0072 62.1194C44.0854 62.3467 44.1905 62.6473 44.3738 62.7402C45.5836 63.3512 46.3584 64.3142 46.9304 65.5534ZM8.74033 83.5547C8.74033 73.7634 8.74033 64.0429 8.74033 54.342C6.77278 54.342 4.87122 54.342 2.98188 54.342C2.98188 64.1138 2.98188 73.8147 2.98188 83.5547C4.90788 83.5547 6.78988 83.5547 8.74033 83.5547ZM76.6001 14.6977C71.46 14.6977 66.3932 14.6977 61.2532 14.6977C60.5957 17.1614 59.9407 19.6203 59.2416 22.2355C65.7431 18.0291 72.1101 18.012 78.6116 22.2355C77.915 19.6178 77.2576 17.159 76.6001 14.6977ZM30.9895 71.9034C30.9773 71.9571 30.9651 72.0109 30.9504 72.0647C33.0549 73.233 35.2082 74.328 37.249 75.5965C38.4736 76.3566 39.6981 76.298 40.9935 76.2149C40.9935 74.7386 40.9935 73.3234 40.9935 71.9034C37.6181 71.9034 34.3038 71.9034 30.9895 71.9034ZM46.8913 68.6355C46.3609 69.9333 45.525 70.911 44.2516 71.505C44.1294 71.5636 44.012 71.7836 44.0096 71.9302C43.9925 73.3503 43.9998 74.7704 43.9998 76.2051C45.0239 76.2051 45.9454 76.2051 46.8913 76.2051C46.8913 73.6436 46.8913 71.1408 46.8913 68.6355Z" fill="#2C98B3"/>
    <path d="M38.0879 16.1372C38.0879 17.132 38.0879 18.0363 38.0879 19.0702C37.0589 19.0702 36.0323 19.0311 35.0107 19.0897C34.6318 19.1117 34.1821 19.2828 33.9059 19.537C32.8109 20.5562 31.7575 21.6219 30.7236 22.7022C30.2006 23.2472 29.6213 23.4868 28.8587 23.4794C26.1115 23.4501 23.3618 23.4843 20.6121 23.455C20.0622 23.4501 19.7224 23.5992 19.4267 24.0783C18.8034 25.0926 18.1802 26.1167 17.4249 27.0308C17.0852 27.4439 16.4522 27.7641 15.9169 27.8325C14.6924 27.9889 13.309 27.6492 12.2457 28.1062C11.2021 28.556 10.4664 29.7292 9.61583 30.6066C9.23454 30.9977 8.90458 31.4401 8.52573 31.8874C7.75826 31.0515 7.13011 30.3647 6.49219 29.673C7.8707 28.2676 9.32008 26.7448 10.8379 25.293C11.119 25.0242 11.6787 24.9753 12.1138 24.9508C13.1794 24.8946 14.4284 25.249 15.2643 24.8017C16.1002 24.3569 16.6135 23.1861 17.1047 22.2476C17.8233 20.8764 18.8474 20.4316 20.375 20.5025C22.9047 20.6222 25.4442 20.5587 27.9788 20.5122C28.4041 20.5049 28.9125 20.28 29.2302 19.9867C30.3301 18.9749 31.32 17.8408 32.4443 16.8558C32.8818 16.4745 33.5466 16.2129 34.1308 16.1665C35.4091 16.0687 36.6972 16.1372 38.0879 16.1372Z" fill="#2C98B3"/>
    <path d="M35.2617 22.0481C36.2321 22.0481 37.1364 22.0481 38.0847 22.0481C38.0847 27.8799 38.0847 33.6677 38.0847 39.5288C37.1779 39.5288 36.2516 39.5288 35.2617 39.5288C35.2617 33.741 35.2617 27.9312 35.2617 22.0481Z" fill="#2C98B3"/>
    <path d="M30.7366 39.5594C29.7687 39.5594 28.8644 39.5594 27.916 39.5594C27.916 34.7077 27.916 29.8952 27.916 25.0117C28.8204 25.0117 29.7467 25.0117 30.7366 25.0117C30.7366 29.8194 30.7366 34.6515 30.7366 39.5594Z" fill="#2C98B3"/>
    <path d="M20.5781 39.5414C20.5781 35.6234 20.5781 31.7885 20.5781 27.9121C21.5265 27.9121 22.4308 27.9121 23.3987 27.9121C23.3987 31.7714 23.3987 35.6259 23.3987 39.5414C22.4821 39.5414 21.5558 39.5414 20.5781 39.5414Z" fill="#2C98B3"/>
    <path d="M16.0881 30.8635C16.0881 33.8039 16.0881 36.6611 16.0881 39.5599C15.1398 39.5599 14.2355 39.5599 13.2676 39.5599C13.2676 36.6806 13.2676 33.8014 13.2676 30.8635C14.1841 30.8635 15.1105 30.8635 16.0881 30.8635Z" fill="#2C98B3"/>
    <path d="M8.73756 39.5606C7.76967 39.5606 6.86533 39.5606 5.91699 39.5606C5.91699 37.642 5.91699 35.7624 5.91699 33.8095C6.82133 33.8095 7.74767 33.8095 8.73756 33.8095C8.73756 35.6866 8.73756 37.5882 8.73756 39.5606Z" fill="#2C98B3"/>
    <path d="M70.3877 27.8514C71.3898 27.8514 72.2966 27.8514 73.2645 27.8514C73.2645 28.8437 73.2645 29.7701 73.2645 30.7649C71.3776 30.7649 69.4956 30.7649 67.5378 30.7649C67.5378 31.7547 67.5378 32.6811 67.5378 33.737C68.3835 33.737 69.256 33.7321 70.1286 33.737C72.1182 33.7492 73.3109 34.9419 73.328 36.929C73.3329 37.6012 73.3305 38.2733 73.328 38.9455C73.3256 41.1868 72.6437 42.0593 70.4024 42.6264C70.4024 43.5209 70.4024 44.4302 70.4024 45.4054C69.4222 45.4054 68.4959 45.4054 67.5011 45.4054C67.5011 44.4962 67.5011 43.5918 67.5011 42.5873C66.5112 42.5873 65.5825 42.5873 64.5926 42.5873C64.5926 41.5632 64.5926 40.6368 64.5926 39.6421C66.4819 39.6421 68.3639 39.6421 70.3217 39.6421C70.3217 38.6522 70.3217 37.7258 70.3217 36.6724C69.4736 36.6724 68.601 36.6773 67.7284 36.6724C65.7364 36.6577 64.5461 35.4674 64.5315 33.4779C64.5266 32.8057 64.5315 32.1336 64.5315 31.4614C64.5315 29.2055 65.2134 28.3354 67.4547 27.7854C67.4547 26.8909 67.4547 25.9792 67.4547 25.0064C68.4348 25.0064 69.3611 25.0064 70.3877 25.0064C70.3877 25.9303 70.3877 26.8591 70.3877 27.8514Z" fill="#2C98B3"/>
    </svg>