<svg width="50" height="26" viewBox="0 0 50 26" fill="none" xmlns="http://www.w3.org/2000/svg">
<path d="M3.00706 6.01411L0 3.00706L3.00706 0L6.01412 3.00706L3.00706 6.01411ZM0.518458 3.00706L3.00706 5.49565L5.49566 3.00706L3.00706 0.518458L0.518458 3.00706Z" fill="#F6F8F9" fill-opacity="0.5"/>
<path d="M3.00706 12.9267L0 9.91966L3.00706 6.9126L6.01412 9.91966L3.00706 12.9267ZM0.518458 9.91966L3.00706 12.4082L5.49566 9.91966L3.00706 7.43106L0.518458 9.91966Z" fill="#F6F8F9" fill-opacity="0.5"/>
<path d="M3.00706 19.8051L0 16.7981L3.00706 13.791L6.01412 16.7981L3.00706 19.8051ZM0.518458 16.8326L3.00706 19.3212L5.49566 16.8326L3.00706 14.344L0.518458 16.8326Z" fill="#F6F8F9" fill-opacity="0.5"/>
<path d="M3.00706 26.7177L0 23.7107L3.00706 20.7036L6.01412 23.7107L3.00706 26.7177ZM0.518458 23.7107L3.00706 26.1993L5.49566 23.7107L3.00706 21.2221L0.518458 23.7107Z" fill="#F6F8F9" fill-opacity="0.5"/>
<path d="M8.01878 9.47065L5.01172 6.4636L8.01878 3.45654L11.0258 6.4636L8.01878 9.47065ZM5.53018 6.4636L8.01878 8.95219L10.5074 6.4636L8.01878 3.975L5.53018 6.4636Z" fill="#F6F8F9" fill-opacity="0.5"/>
<path d="M8.01878 16.3491L5.01172 13.342L8.01878 10.335L11.0258 13.342L8.01878 16.3491ZM5.53018 13.3766L8.01878 15.8652L10.5074 13.3766L8.01878 10.888L5.53018 13.3766Z" fill="#F6F8F9" fill-opacity="0.5"/>
<path d="M8.01878 23.2617L5.01172 20.2546L8.01878 17.2476L11.0258 20.2546L8.01878 23.2617ZM5.53018 20.2892L8.01878 22.7778L10.5074 20.2892L8.01878 17.8006L5.53018 20.2892Z" fill="#F6F8F9" fill-opacity="0.5"/>
<path d="M8.01878 30.1743L5.01172 27.1672L8.01878 24.1602L11.0258 27.1672L8.01878 30.1743ZM5.53018 27.1672L8.01878 29.6558L10.5074 27.1672L8.01878 24.6786L5.53018 27.1672Z" fill="#F6F8F9" fill-opacity="0.5"/>
<path d="M12.6848 6.01411L9.67773 3.00706L12.6848 0L15.6919 3.00706L12.6848 6.01411ZM10.1616 3.00706L12.6502 5.49565L15.1388 3.00706L12.6502 0.518458L10.1616 3.00706Z" fill="#F6F8F9" fill-opacity="0.5"/>
<path d="M12.6848 12.9267L9.67773 9.91966L12.6848 6.9126L15.6919 9.91966L12.6848 12.9267ZM10.1616 9.91966L12.6502 12.4082L15.1388 9.91966L12.6502 7.43106L10.1616 9.91966Z" fill="#F6F8F9" fill-opacity="0.5"/>
<path d="M12.6848 19.8051L9.67773 16.7981L12.6848 13.791L15.6919 16.7981L12.6848 19.8051ZM10.1616 16.8326L12.6502 19.3212L15.1388 16.8326L12.6502 14.344L10.1616 16.8326Z" fill="#F6F8F9" fill-opacity="0.5"/>
<path d="M12.6848 26.7177L9.67773 23.7107L12.6848 20.7036L15.6919 23.7107L12.6848 26.7177ZM10.1616 23.7107L12.6502 26.1993L15.1388 23.7107L12.6502 21.2221L10.1616 23.7107Z" fill="#F6F8F9" fill-opacity="0.5"/>
<path d="M17.6965 9.47065L14.6895 6.4636L17.6965 3.45654L20.7036 6.4636L17.6965 9.47065ZM15.1734 6.4636L17.662 8.95219L20.1506 6.4636L17.662 3.975L15.1734 6.4636Z" fill="#F6F8F9" fill-opacity="0.5"/>
<path d="M17.6965 16.3491L14.6895 13.342L17.6965 10.335L20.7036 13.342L17.6965 16.3491ZM15.1734 13.3766L17.662 15.8652L20.1506 13.3766L17.662 10.888L15.1734 13.3766Z" fill="#F6F8F9" fill-opacity="0.5"/>
<path d="M17.6965 23.2617L14.6895 20.2546L17.6965 17.2476L20.7036 20.2546L17.6965 23.2617ZM15.1734 20.2892L17.662 22.7778L20.1506 20.2892L17.662 17.8006L15.1734 20.2892Z" fill="#F6F8F9" fill-opacity="0.5"/>
<path d="M17.6965 30.1743L14.6895 27.1672L17.6965 24.1602L20.7036 27.1672L17.6965 30.1743ZM15.1734 27.1672L17.662 29.6558L20.1506 27.1672L17.662 24.6786L15.1734 27.1672Z" fill="#F6F8F9" fill-opacity="0.5"/>
<path d="M22.3283 6.01411L19.3213 3.00706L22.3283 0L25.3354 3.00706L22.3283 6.01411ZM19.8052 3.00706L22.2938 5.49565L24.7824 3.00706L22.2938 0.518458L19.8052 3.00706Z" fill="#F6F8F9" fill-opacity="0.5"/>
<path d="M22.3283 12.9267L19.3213 9.91966L22.3283 6.9126L25.3354 9.91966L22.3283 12.9267ZM19.8052 9.91966L22.2938 12.4082L24.7824 9.91966L22.2938 7.43106L19.8052 9.91966Z" fill="#F6F8F9" fill-opacity="0.5"/>
<path d="M22.3283 19.8051L19.3213 16.7981L22.3283 13.791L25.3354 16.7981L22.3283 19.8051ZM19.8052 16.8326L22.2938 19.3212L24.7824 16.8326L22.2938 14.344L19.8052 16.8326Z" fill="#F6F8F9" fill-opacity="0.5"/>
<path d="M22.3283 26.7177L19.3213 23.7107L22.3283 20.7036L25.3354 23.7107L22.3283 26.7177ZM19.8052 23.7107L22.2938 26.1993L24.7824 23.7107L22.2938 21.2221L19.8052 23.7107Z" fill="#F6F8F9" fill-opacity="0.5"/>
<path d="M27.34 9.47065L24.333 6.4636L27.34 3.45654L30.3471 6.4636L27.34 9.47065ZM24.8169 6.4636L27.3055 8.95219L29.7941 6.4636L27.3055 3.975L24.8169 6.4636Z" fill="#F6F8F9" fill-opacity="0.5"/>
<path d="M27.34 16.3491L24.333 13.342L27.34 10.335L30.3471 13.342L27.34 16.3491ZM24.8169 13.3766L27.3055 15.8652L29.7941 13.3766L27.3055 10.888L24.8169 13.3766Z" fill="#F6F8F9" fill-opacity="0.5"/>
<path d="M27.34 23.2617L24.333 20.2546L27.34 17.2476L30.3471 20.2546L27.34 23.2617ZM24.8169 20.2892L27.3055 22.7778L29.7941 20.2892L27.3055 17.8006L24.8169 20.2892Z" fill="#F6F8F9" fill-opacity="0.5"/>
<path d="M27.34 30.1743L24.333 27.1672L27.34 24.1602L30.3471 27.1672L27.34 30.1743ZM24.8169 27.1672L27.3055 29.6558L29.7941 27.1672L27.3055 24.6786L24.8169 27.1672Z" fill="#F6F8F9" fill-opacity="0.5"/>
<path d="M31.9719 6.01411L28.9648 3.00706L31.9719 0L34.979 3.00706L31.9719 6.01411ZM29.4833 3.00706L31.9719 5.49565L34.4605 3.00706L31.9719 0.518458L29.4833 3.00706Z" fill="#F6F8F9" fill-opacity="0.5"/>
<path d="M31.9719 12.9267L28.9648 9.91966L31.9719 6.9126L34.979 9.91966L31.9719 12.9267ZM29.4833 9.91966L31.9719 12.4082L34.4605 9.91966L31.9719 7.43106L29.4833 9.91966Z" fill="#F6F8F9" fill-opacity="0.5"/>
<path d="M31.9719 19.8051L28.9648 16.7981L31.9719 13.791L34.979 16.7981L31.9719 19.8051ZM29.4833 16.8326L31.9719 19.3212L34.4605 16.8326L31.9719 14.344L29.4833 16.8326Z" fill="#F6F8F9" fill-opacity="0.5"/>
<path d="M31.9719 26.7177L28.9648 23.7107L31.9719 20.7036L34.979 23.7107L31.9719 26.7177ZM29.4833 23.7107L31.9719 26.1993L34.4605 23.7107L31.9719 21.2221L29.4833 23.7107Z" fill="#F6F8F9" fill-opacity="0.5"/>
<path d="M36.9836 9.47065L33.9766 6.4636L36.9836 3.45654L39.9907 6.4636L36.9836 9.47065ZM34.495 6.4636L36.9836 8.95219L39.4722 6.4636L36.9836 3.975L34.495 6.4636Z" fill="#F6F8F9" fill-opacity="0.5"/>
<path d="M36.9836 16.3491L33.9766 13.342L36.9836 10.335L39.9907 13.342L36.9836 16.3491ZM34.495 13.3766L36.9836 15.8652L39.4722 13.3766L36.9836 10.888L34.495 13.3766Z" fill="#F6F8F9" fill-opacity="0.5"/>
<path d="M36.9836 23.2617L33.9766 20.2546L36.9836 17.2476L39.9907 20.2546L36.9836 23.2617ZM34.495 20.2892L36.9836 22.7778L39.4722 20.2892L36.9836 17.8006L34.495 20.2892Z" fill="#F6F8F9" fill-opacity="0.5"/>
<path d="M36.9836 30.1743L33.9766 27.1672L36.9836 24.1602L39.9907 27.1672L36.9836 30.1743ZM34.495 27.1672L36.9836 29.6558L39.4722 27.1672L36.9836 24.6786L34.495 27.1672Z" fill="#F6F8F9" fill-opacity="0.5"/>
<path d="M41.6145 6.01411L38.6074 3.00706L41.6145 0L44.6215 3.00706L41.6145 6.01411ZM39.1259 3.00706L41.6145 5.49565L44.103 3.00706L41.6145 0.518458L39.1259 3.00706Z" fill="#F6F8F9" fill-opacity="0.5"/>
<path d="M41.6145 12.9267L38.6074 9.91966L41.6145 6.9126L44.6215 9.91966L41.6145 12.9267ZM39.1259 9.91966L41.6145 12.4082L44.103 9.91966L41.6145 7.43106L39.1259 9.91966Z" fill="#F6F8F9" fill-opacity="0.5"/>
<path d="M41.6145 19.8051L38.6074 16.7981L41.6145 13.791L44.6215 16.7981L41.6145 19.8051ZM39.1259 16.8326L41.6145 19.3212L44.103 16.8326L41.6145 14.344L39.1259 16.8326Z" fill="#F6F8F9" fill-opacity="0.5"/>
<path d="M41.6145 26.7177L38.6074 23.7107L41.6145 20.7036L44.6215 23.7107L41.6145 26.7177ZM39.1259 23.7107L41.6145 26.1993L44.103 23.7107L41.6145 21.2221L39.1259 23.7107Z" fill="#F6F8F9" fill-opacity="0.5"/>
<path d="M46.6272 9.47065L43.6201 6.4636L46.6272 3.45654L49.6342 6.4636L46.6272 9.47065ZM44.1386 6.4636L46.6272 8.95219L49.1157 6.4636L46.6272 3.975L44.1386 6.4636Z" fill="#F6F8F9" fill-opacity="0.5"/>
<path d="M46.6272 16.3491L43.6201 13.342L46.6272 10.335L49.6342 13.342L46.6272 16.3491ZM44.1386 13.3766L46.6272 15.8652L49.1157 13.3766L46.6272 10.888L44.1386 13.3766Z" fill="#F6F8F9" fill-opacity="0.5"/>
<path d="M46.6272 23.2617L43.6201 20.2546L46.6272 17.2476L49.6342 20.2546L46.6272 23.2617ZM44.1386 20.2892L46.6272 22.7778L49.1157 20.2892L46.6272 17.8006L44.1386 20.2892Z" fill="#F6F8F9" fill-opacity="0.5"/>
<path d="M46.6272 30.1743L43.6201 27.1672L46.6272 24.1602L49.6342 27.1672L46.6272 30.1743ZM44.1386 27.1672L46.6272 29.6558L49.1157 27.1672L46.6272 24.6786L44.1386 27.1672Z" fill="#F6F8F9" fill-opacity="0.5"/>
</svg>
