<svg width="63" height="57" viewBox="0 0 63 57" fill="none" xmlns="http://www.w3.org/2000/svg">
<path d="M30.941 0.871153C30.6379 5.71748 35.1562 8.10006 39.1999 10.7262C44.4359 14.1218 43.7141 21.2272 37.8719 23.7333L31.5392 26.4512C33.6567 17.648 21.4978 16.3138 18.3873 10.2461C17.183 7.89533 18.3673 5.11743 20.9714 3.95261C23.6712 2.74544 27.5035 1.03352 29.6171 0.0875508C30.2551 -0.194828 30.9809 0.242859 30.941 0.871153Z" fill="white" fill-opacity="0.1"/>
<path d="M32.129 55.395C32.4321 50.5486 27.9139 48.1661 23.8702 45.5399C18.6342 42.1443 19.3599 35.039 25.1981 32.5328L31.5308 29.8149C29.4173 38.6181 41.5762 39.9524 44.6868 46.02C45.8911 48.3708 44.7067 51.1487 42.1026 52.3135C39.4029 53.5207 35.5705 55.2326 33.457 56.1786C32.8189 56.4609 32.0891 56.0233 32.129 55.395Z" fill="white" fill-opacity="0.1"/>
<path d="M0.984216 28.6289C6.45953 28.9007 9.15133 24.898 12.1183 21.3188C15.9506 16.6843 23.9781 17.3267 26.8135 22.4942L29.8881 28.0995C19.9384 26.2252 18.431 36.9909 11.5759 39.7405C8.92003 40.8065 5.78159 39.7582 4.46561 37.4497C3.10176 35.0636 1.16766 31.6716 0.0989136 29.8008C-0.220114 29.2396 0.274379 28.5936 0.984216 28.6289Z" fill="white" fill-opacity="0.1"/>
<path d="M62.0142 27.6054C56.5349 27.3371 53.8471 31.3363 50.8801 34.9155C47.0438 39.55 39.0163 38.9076 36.1849 33.7401L33.1143 28.1349C43.0599 30.0056 44.5674 19.2435 51.4225 16.4903C54.0784 15.4243 57.2168 16.4726 58.5328 18.7775C59.8966 21.1672 61.8307 24.5592 62.8995 26.43C63.2185 26.9948 62.724 27.6372 62.0142 27.6054Z" fill="white" fill-opacity="0.1"/>
</svg>
