<svg width="47" height="42" viewBox="0 0 47 42" fill="none" xmlns="http://www.w3.org/2000/svg">
<path d="M23.0833 0.665549C22.8572 4.28116 26.228 6.05868 29.2448 8.0179C33.1511 10.5512 32.6126 15.8522 28.2541 17.7218L23.5296 19.7495C25.1093 13.1819 16.0382 12.1865 13.7176 7.65976C12.8191 5.90594 13.7027 3.83349 15.6454 2.96448C17.6596 2.06387 20.5187 0.786684 22.0955 0.0809423C22.5716 -0.129727 23.113 0.19681 23.0833 0.665549Z" fill="white" fill-opacity="0.1"/>
<path d="M23.9697 41.3433C24.1958 37.7277 20.8249 35.9501 17.8082 33.9909C13.9018 31.4576 14.4433 26.1567 18.7989 24.287L23.5234 22.2593C21.9466 28.8269 31.0178 29.8223 33.3384 34.3491C34.2369 36.1029 33.3532 38.1753 31.4105 39.0443C29.3963 39.945 26.5372 41.2221 24.9604 41.9279C24.4844 42.1385 23.9399 41.812 23.9697 41.3433Z" fill="white" fill-opacity="0.1"/>
<path d="M0.734275 21.3743C4.81914 21.5771 6.82735 18.5909 9.04085 15.9206C11.9 12.463 17.8889 12.9423 20.0042 16.7976L22.2981 20.9793C14.8751 19.581 13.7505 27.6128 8.63624 29.6642C6.6548 30.4595 4.31336 29.6773 3.33157 27.9551C2.31407 26.175 0.871131 23.6443 0.0737945 22.2486C-0.164216 21.8299 0.204701 21.348 0.734275 21.3743Z" fill="white" fill-opacity="0.1"/>
<path d="M46.2649 20.6107C42.1771 20.4105 40.1718 23.3941 37.9583 26.0644C35.0962 29.522 29.1073 29.0427 26.995 25.1874L24.7041 21.0057C32.1241 22.4013 33.2487 14.3722 38.3629 12.3182C40.3444 11.5229 42.6858 12.305 43.6676 14.0246C44.6851 15.8074 46.1281 18.3381 46.9254 19.7337C47.1634 20.1551 46.7945 20.6344 46.2649 20.6107Z" fill="white" fill-opacity="0.1"/>
</svg>
