<svg width="88" height="88" viewBox="0 0 88 88" fill="none" xmlns="http://www.w3.org/2000/svg">
    <path d="M28.579 17.7976C28.463 21.0633 26.8176 24.2602 23.5528 26.5782C23.1172 26.8894 22.9373 27.1981 22.942 27.7325C22.9515 29.3642 23.0083 31.0054 22.8497 32.6228C22.5585 35.6225 19.9898 37.8266 16.9665 37.8219C13.9409 37.8171 11.3935 35.613 11.0976 32.6062C10.9461 31.0481 10.991 29.464 11.0123 27.894C11.0218 27.2646 10.8395 26.8917 10.3092 26.5212C5.8986 23.4289 4.19639 17.8783 6.09037 12.893C8.00802 7.83886 13.0578 4.75363 18.3941 5.3759C24.2015 6.05042 28.6334 11.1355 28.579 17.7976ZM20.1318 26.9701C19.817 25.5047 20.7853 24.9774 21.7678 24.3338C24.256 22.7045 25.5794 20.3436 25.7309 17.3558C25.9463 13.1448 23.0604 9.31378 18.9978 8.3875C14.8334 7.43984 10.617 9.60829 8.90056 13.5818C7.22439 17.4627 8.55727 22.0228 12.1179 24.3005C13.1312 24.9489 14.1327 25.4786 13.832 26.9677C15.9509 26.9701 17.949 26.9701 20.1318 26.9701ZM13.8817 29.9152C13.7917 31.763 13.6213 33.5182 15.4561 34.5799C16.5167 35.195 17.9206 35.0881 18.8794 34.3329C20.3662 33.1596 20.1484 31.5469 20.0608 29.9152C17.9727 29.9152 15.9698 29.9152 13.8817 29.9152Z" fill="#2C98B3"/>
    <path d="M37.1476 11.7247C36.9582 10.8079 36.7807 9.94579 36.6055 9.08601C56.9941 4.05797 80.1835 20.1634 79.4922 45.2561C80.335 45.2561 81.1802 45.2466 82.023 45.2585C83.5382 45.2822 84.1514 46.3415 83.382 47.6549C82.0775 49.878 80.7564 52.0892 79.4188 54.2933C78.6518 55.5544 77.4657 55.5616 76.7033 54.3051C75.3633 52.1035 74.0423 49.8923 72.7354 47.6692C71.94 46.3154 72.565 45.2751 74.1559 45.2585C74.9467 45.2513 75.7374 45.2561 76.5187 45.2561C77.7924 25.7472 59.8185 7.28095 37.1476 11.7247ZM78.0575 51.0347C78.6778 49.9944 79.2057 49.1061 79.7716 48.1537C78.5594 48.1537 77.513 48.1537 76.3411 48.1537C76.9188 49.1227 77.4396 49.9991 78.0575 51.0347Z" fill="#2C98B3"/>
    <path d="M45.3852 79.4559C21.6703 80.0449 6.52554 59.3793 8.67758 40.8917C9.54644 40.9559 10.4177 41.0224 11.3244 41.0889C10.832 53.1828 15.1218 63.0061 24.7574 70.3C31.4597 75.3731 39.9542 77.0262 45.3876 76.468C45.3876 75.6605 45.3757 74.8387 45.3899 74.017C45.416 72.542 46.4648 71.915 47.7243 72.656C49.9686 73.9766 52.1964 75.3209 54.4171 76.6794C55.634 77.4252 55.6553 78.6151 54.455 79.3538C52.213 80.7337 49.9592 82.0922 47.6888 83.4246C46.4814 84.1324 45.4231 83.4983 45.3923 82.0875C45.371 81.2348 45.3852 80.3798 45.3852 79.4559ZM51.15 78.0308C50.1202 77.4133 49.2276 76.8789 48.2735 76.3065C48.2735 77.5178 48.2735 78.57 48.2735 79.7504C49.2418 79.1709 50.1202 78.6484 51.15 78.0308Z" fill="#2C98B3"/>
    <path d="M73.8493 59.5061C81.5862 59.5014 87.9878 65.9117 87.9997 73.6758C88.0115 81.5777 81.6548 88.0047 73.8304 87.9999C65.9538 87.9952 59.6066 81.6395 59.5948 73.7423C59.5805 65.8879 65.9656 59.5109 73.8493 59.5061ZM73.7854 85.157C79.9763 85.1736 85.1232 80.0672 85.1563 73.8753C85.1918 67.5339 80.1113 62.361 73.8446 62.3586C67.5281 62.3562 62.4357 67.4484 62.431 73.7708C62.4286 80.0315 67.5234 85.1403 73.7854 85.157Z" fill="#2C98B3"/>
    <path d="M38.3242 36.6426C38.3242 35.7044 38.3242 34.828 38.3242 33.9017C43.9706 33.9017 49.5768 33.9017 55.2564 33.9017C55.2564 34.7781 55.2564 35.6783 55.2564 36.6426C49.6549 36.6426 44.0275 36.6426 38.3242 36.6426Z" fill="#2C98B3"/>
    <path d="M55.2895 43.8921C55.2895 44.8279 55.2895 45.7067 55.2895 46.6306C49.6218 46.6306 43.9943 46.6306 38.3242 46.6306C38.3242 45.7114 38.3242 44.8326 38.3242 43.8921C43.9588 43.8921 49.5863 43.8921 55.2895 43.8921Z" fill="#2C98B3"/>
    <path d="M55.2747 56.6142C49.633 56.6142 44.0268 56.6142 38.3496 56.6142C38.3496 55.7236 38.3496 54.8234 38.3496 53.8639C43.9653 53.8639 49.5927 53.8639 55.2747 53.8639C55.2747 54.7735 55.2747 55.6713 55.2747 56.6142Z" fill="#2C98B3"/>
    <path d="M28.0442 4.10632C28.6668 4.72384 29.2918 5.34611 29.9145 5.96364C29.164 6.71891 28.3993 7.48606 27.6275 8.26271C26.9954 7.62144 26.3633 6.97779 25.7217 6.32702C26.4816 5.60025 27.2676 4.84972 28.0442 4.10632Z" fill="#2C98B3"/>
    <path d="M15.6035 0C16.5174 0 17.391 0 18.3308 0C18.3308 1.08066 18.3308 2.16132 18.3308 3.30849C17.4454 3.30849 16.5505 3.30849 15.6035 3.30849C15.6035 2.20645 15.6035 1.12816 15.6035 0Z" fill="#2C98B3"/>
    <path d="M0 15.6666C1.11271 15.6666 2.16387 15.6666 3.26948 15.6666C3.26948 16.5786 3.26948 17.4502 3.26948 18.4003C2.20648 18.4003 1.13875 18.4003 0 18.4003C0 17.5263 0 16.6356 0 15.6666Z" fill="#2C98B3"/>
    <path d="M33.9737 18.4384C32.8563 18.4384 31.8075 18.4384 30.6924 18.4384C30.6924 17.5145 30.6924 16.6239 30.6924 15.6786C31.7862 15.6786 32.8563 15.6786 33.9737 15.6786C33.9737 16.593 33.9737 17.467 33.9737 18.4384Z" fill="#2C98B3"/>
    <path d="M6.25274 8.26162C5.51409 7.49447 4.78017 6.7297 4.01074 5.92929C4.64996 5.3379 5.31285 4.72513 5.94733 4.13611C6.6339 4.83438 7.39623 5.60866 8.18223 6.40906C7.61167 6.9577 6.96298 7.57997 6.25274 8.26162Z" fill="#2C98B3"/>
    <path d="M8.04725 27.8523C7.42461 28.4935 6.66702 29.2726 5.89522 30.0658C5.26784 29.4364 4.6452 28.8118 3.99414 28.1587C4.80618 27.42 5.60402 26.6932 6.44921 25.9237C6.89666 26.4676 7.47432 27.1635 8.04725 27.8523Z" fill="#2C98B3"/>
    <path d="M27.6488 25.8217C28.4254 26.5888 29.1782 27.3346 29.9737 28.1207C29.3013 28.7501 28.6408 29.3676 27.9684 29.997C27.27 29.2726 26.5148 28.4889 25.7383 27.6837C26.3301 27.1066 26.9741 26.4796 27.6488 25.8217Z" fill="#2C98B3"/>
    <path d="M32.666 33.8906C33.5941 33.8906 34.4677 33.8906 35.391 33.8906C35.391 34.824 35.391 35.7218 35.391 36.6623C34.4819 36.6623 33.6059 36.6623 32.666 36.6623C32.666 35.7693 32.666 34.8715 32.666 33.8906Z" fill="#2C98B3"/>
    <path d="M35.3981 43.8901C35.3981 44.8402 35.3981 45.7166 35.3981 46.6357C34.4819 46.6357 33.6083 46.6357 32.666 46.6357C32.666 45.7474 32.666 44.8497 32.666 43.8901C33.5467 43.8901 34.4416 43.8901 35.3981 43.8901Z" fill="#2C98B3"/>
    <path d="M32.6729 53.8242C33.5985 53.8242 34.4532 53.8242 35.3718 53.8242C35.3718 54.7386 35.3718 55.6364 35.3718 56.5959C34.4911 56.5959 33.5962 56.5959 32.6729 56.5959C32.6729 55.6673 32.6729 54.7481 32.6729 53.8242Z" fill="#2C98B3"/>
    <path d="M75.2224 80.9095C75.2224 81.3632 75.2224 81.7741 75.2224 82.2467C74.2778 82.2467 73.3781 82.2467 72.4098 82.2467C72.3885 81.8121 72.3672 81.3798 72.3459 80.9594C69.3842 80.0474 68.3046 78.9501 68.1508 76.6629C69.0551 76.6629 69.9595 76.6629 70.916 76.6629C71.2545 77.7934 72.1068 78.1259 73.2384 78.0428C73.8848 77.9953 74.5406 78.0594 75.1892 78.0404C76.0108 78.0167 76.6026 77.4229 76.6239 76.6463C76.6476 75.8364 76.0344 75.1951 75.175 75.1761C74.3464 75.1571 73.5178 75.188 72.6916 75.1808C70.2696 75.1618 68.3425 73.4732 68.1271 71.1907C67.9353 69.1553 69.5144 67.2314 71.7872 66.7303C71.96 66.6923 72.1328 66.6519 72.3364 66.6068C72.3577 66.1674 72.3814 65.7328 72.4051 65.2554C73.3213 65.2554 74.1996 65.2554 75.1679 65.2554C75.1916 65.671 75.2177 66.1009 75.2484 66.5997C77.6419 66.9916 79.169 68.2907 79.4838 70.9104C78.6173 70.9104 77.8219 70.9318 77.0288 70.8938C76.8559 70.8843 76.6192 70.6943 76.5387 70.5281C76.1717 69.7585 75.5728 69.4616 74.7513 69.483C73.9818 69.5044 73.2124 69.4664 72.4453 69.4806C71.5717 69.4973 70.9609 70.1029 70.9609 70.9152C70.9633 71.7275 71.5741 72.3307 72.4501 72.345C73.2479 72.3592 74.0481 72.3355 74.846 72.3379C77.2868 72.3497 79.1974 73.9862 79.4531 76.2805C79.6827 78.3302 78.0799 80.2896 75.7551 80.7979C75.613 80.8216 75.4686 80.8549 75.2224 80.9095Z" fill="#2C98B3"/>
    </svg>