<svg width="32" height="32" viewBox="0 0 32 32" fill="none"
xmlns="http://www.w3.org/2000/svg">
<path
    d="M19.866 30.3333H12.1327C10.946 30.3333 9.42601 29.7066 8.59934 28.8666L3.13269 23.4C2.29269 22.56 1.66602 21.04 1.66602 19.8666V12.1333C1.66602 10.9467 2.29269 9.42667 3.13269 8.60001L8.59934 3.13333C9.43934 2.29333 10.9594 1.66666 12.1327 1.66666H19.866C21.0527 1.66666 22.5727 2.29333 23.3994 3.13333L28.866 8.60001C29.706 9.44001 30.3327 10.96 30.3327 12.1333V19.8666C30.3327 21.0533 29.706 22.5733 28.866 23.4L23.3994 28.8666C22.5594 29.7066 21.0527 30.3333 19.866 30.3333ZM12.1327 3.66666C11.4794 3.66666 10.466 4.07999 10.0127 4.54666L4.54602 10.0133C4.09269 10.48 3.66602 11.48 3.66602 12.1333V19.8666C3.66602 20.52 4.07935 21.5333 4.54602 21.9866L10.0127 27.4533C10.4793 27.9067 11.4794 28.3333 12.1327 28.3333H19.866C20.5193 28.3333 21.5327 27.92 21.986 27.4533L27.4527 21.9866C27.906 21.52 28.3327 20.52 28.3327 19.8666V12.1333C28.3327 11.48 27.9193 10.4667 27.4527 10.0133L21.986 4.54666C21.5194 4.09333 20.5193 3.66666 19.866 3.66666H12.1327Z"
    fill="white" />
<path
    d="M6.58651 26.44C6.33318 26.44 6.07984 26.3466 5.87984 26.1466C5.49318 25.76 5.49318 25.12 5.87984 24.7333L24.7332 5.88C25.1198 5.49333 25.7598 5.49333 26.1465 5.88C26.5332 6.26666 26.5332 6.90666 26.1465 7.29333L7.29317 26.1466C7.09317 26.3466 6.83984 26.44 6.58651 26.44Z"
    fill="white" />
</svg>