<svg width="98" height="84" viewBox="0 0 98 84" fill="none" xmlns="http://www.w3.org/2000/svg">
    <path d="M33.5612 39.9796C32.186 37.2736 30.8469 34.6501 29.516 32.0235C26.5942 26.245 28.318 20.2344 33.741 17.3909C44.219 11.8995 54.6998 6.41425 65.1889 0.953387C70.1637 -1.63655 75.5729 1.26797 76.5994 7.03424C77.2745 10.8214 75.5424 14.5506 72.1392 16.4594C67.585 19.0158 63.0031 21.5141 58.4323 24.0399C55.6848 25.5578 52.9374 27.0757 50.1899 28.5967C49.8274 28.7983 49.476 29.0151 49.0389 29.2717C49.4318 29.9069 49.7776 30.4659 50.1235 31.0248C55.6461 39.9307 61.1632 48.8459 66.719 57.7274C67.0289 58.2222 67.6293 58.5581 68.155 58.8177C69.9119 59.6821 71.7934 60.2868 73.448 61.3344C77.7144 64.0404 81.9615 64.2908 86.2197 61.539C88.7043 59.9325 91.2636 58.7169 94.1578 58.4848C94.6752 58.4421 95.1981 58.3901 95.71 58.439C96.9135 58.5612 97.7823 59.6057 97.7823 60.864C97.7823 62.0857 96.9938 63.0783 95.8123 63.2616C95.0598 63.3776 94.2574 63.2585 93.5491 63.4998C92.0771 64.0068 90.5415 64.468 89.2328 65.3262C83.0572 69.3699 76.9978 69.3607 70.8361 65.259C66.7024 62.5072 62.4166 62.5224 58.2635 65.2773C52.1543 69.3302 46.1143 69.4065 39.9775 65.3262C35.7691 62.5255 31.4473 62.498 27.2196 65.317C21.1823 69.3455 15.1617 69.4157 9.11887 65.3995C7.24572 64.1534 5.2702 63.3532 3.06226 63.3349C2.71917 63.3318 2.37055 63.2829 2.03576 63.1913C1.10056 62.9348 0.406087 62.0032 0.40332 60.9495C0.40332 59.8592 0.854315 59.0376 1.78951 58.6223C2.10216 58.4848 2.49505 58.3474 2.79387 58.436C4.64212 58.9765 6.02554 57.9076 7.48367 56.9547C15.7759 51.5366 24.0875 46.1521 32.3908 40.7554C32.7781 40.511 33.1544 40.2514 33.5612 39.9796ZM61.8715 58.6681C61.4952 58.045 61.2545 57.6327 61.0027 57.2265C55.8536 48.9558 50.6962 40.6943 45.5554 32.4175C43.6961 29.4244 44.4431 26.3183 47.3815 24.6874C50.6824 22.8549 53.9888 21.0346 57.2924 19.2082C61.5837 16.8351 65.8806 14.4712 70.1665 12.0889C71.8211 11.1696 72.5847 9.53256 72.225 7.8039C71.6882 5.24145 69.4305 4.15111 67.0925 5.36972C56.5398 10.8733 45.9926 16.3861 35.4481 21.9111C32.5734 23.4168 31.7295 26.3794 33.2817 29.4335C34.5323 31.8952 35.8106 34.3385 37.0751 36.791C38.796 40.1384 38.2095 42.6459 35.2157 44.5944C27.2417 49.7865 19.2593 54.9664 11.2825 60.1555C11.0667 60.296 10.8758 60.4792 10.6462 60.6655C15.4826 64.2694 20.0036 64.3946 24.9009 61.1542C25.6701 60.6472 26.4504 60.131 27.2832 59.7767C32.637 57.4983 37.7502 58.0114 42.6475 61.3832C46.4297 63.9854 50.4306 64.2358 54.3983 62.046C56.7722 60.7388 58.9884 59.0896 61.8715 58.6681Z" fill="#F2631C"/>
    <path d="M18.0844 83.3422C15.0022 83.3667 12.1247 82.5359 9.53489 80.679C7.42102 79.1641 5.15221 78.3212 2.61778 78.2998C1.30354 78.2876 0.362809 77.1698 0.401544 75.8229C0.44028 74.4638 1.39207 73.4986 2.73676 73.4681C6.021 73.3948 8.96215 74.5218 11.7262 76.4398C15.2899 78.9106 19.0639 79.0878 22.9347 77.3683C23.4134 77.1575 23.8699 76.8705 24.3071 76.5681C30.5242 72.2831 36.6859 72.3961 42.9445 76.5834C46.9703 79.2771 51.1399 79.1092 55.2597 76.6047C56.5546 75.8168 57.855 74.9708 59.2467 74.4546C64.2243 72.6129 68.986 73.2879 73.4683 76.3024C77.115 78.7549 80.9222 79.1336 84.8705 77.3408C85.7254 76.9529 86.514 76.3787 87.3219 75.8626C89.7954 74.2805 92.4433 73.4253 95.3153 73.465C96.79 73.4864 97.8027 74.479 97.7916 75.9023C97.7805 77.2889 96.8149 78.2906 95.3928 78.3151C93.124 78.3517 91.0627 79.0695 89.1203 80.3644C83.2519 84.289 77.2921 84.4234 71.3655 80.5813C66.7089 77.5637 62.2156 77.6676 57.5756 80.7095C51.9616 84.3898 46.1762 84.4142 40.5733 80.7034C35.8171 77.5515 31.2352 77.4691 26.5565 80.7706C23.9889 82.5817 21.1307 83.3728 18.0844 83.3422Z" fill="#F2631C"/>
    <path d="M79.6441 55.8127C70.934 55.773 63.862 47.8963 63.8731 38.2481C63.8841 28.7374 71.1305 20.7844 79.7105 20.8668C88.4924 20.9524 95.5755 28.7955 95.5285 38.3764C95.4815 48.0307 88.3541 55.8524 79.6441 55.8127ZM79.68 50.8894C85.9552 50.923 91.0324 45.3674 91.0684 38.4253C91.1043 31.4709 86.0963 25.8421 79.835 25.7993C73.4325 25.7535 68.3581 31.306 68.3387 38.3795C68.3166 45.2788 73.3716 50.8558 79.68 50.8894Z" fill="#F2631C"/>
    </svg>