<svg width="90" height="90" viewBox="0 0 90 90" fill="none" xmlns="http://www.w3.org/2000/svg">
    <path d="M73.3 89.5608C71.4347 89.0601 69.8712 88.1592 68.933 86.3727C67.3411 83.3377 68.6138 79.605 71.754 78.2034C72.1367 78.0329 72.4428 77.9279 72.4406 77.3769C72.4188 70.8475 72.4253 64.316 72.4231 57.7867C72.4231 57.6774 72.3969 57.5659 72.3772 57.4172C68.9156 57.4172 65.4867 57.4172 61.9288 57.4172C61.9288 58.1847 61.9332 58.9588 61.9266 59.7306C61.9135 61.281 61.2903 61.9151 59.742 61.9173C55.69 61.9238 51.6379 61.9195 47.5858 61.9195C47.2709 61.9195 46.956 61.9195 46.5318 61.9195C46.5318 62.5798 46.5318 63.1812 46.5318 63.7847C46.5318 66.4961 46.5449 69.2076 46.5208 71.9168C46.5164 72.4394 46.6236 72.7259 47.1615 72.9555C49.7791 74.0816 51.1743 76.8586 50.5751 79.6204C49.989 82.3231 47.5508 84.2998 44.7911 84.3041C42.0336 84.3107 39.5888 82.3449 38.9918 79.64C38.3817 76.8871 39.7921 74.1188 42.3681 72.9249C42.6437 72.798 43.0001 72.4482 43.0045 72.1967C43.046 68.8161 43.0329 65.4356 43.0329 61.9851C40.6034 61.9851 38.2045 61.9851 35.6854 61.9851C35.6854 62.2759 35.6854 62.5842 35.6854 62.8925C35.6854 66.448 35.6876 70.0057 35.6854 73.5612C35.6832 75.3367 35.1037 75.9118 33.3149 75.9118C29.8751 75.914 26.4353 75.9162 22.9955 75.9074C22.5932 75.9053 22.1667 75.8878 21.7928 75.7631C21.0537 75.5138 20.6622 74.93 20.6644 74.1625C20.6666 73.395 21.0602 72.8133 21.8015 72.5706C22.1799 72.446 22.6019 72.4241 23.0043 72.4219C26.0308 72.411 29.0573 72.4154 32.134 72.4154C32.134 68.8992 32.134 65.4509 32.134 61.9173C31.3512 61.9173 30.6011 61.9217 29.8511 61.9173C28.2635 61.9063 27.6402 61.281 27.6402 59.6694C27.6359 55.646 27.638 51.6226 27.638 47.6013C27.638 47.2843 27.638 46.9672 27.638 46.6479C27.5221 46.5998 27.4456 46.5386 27.3691 46.5386C24.0452 46.5299 20.7235 46.5167 17.3996 46.5474C17.1503 46.5495 16.7873 46.8251 16.6736 47.0656C15.5627 49.4315 13.3322 50.8572 10.9071 50.7042C8.36165 50.5424 6.28859 48.9286 5.53853 46.5233C4.78628 44.118 5.5757 41.6536 7.61159 40.0486C10.5287 37.7505 15.0072 38.8394 16.5467 42.2747C16.8288 42.9044 17.1459 43.0444 17.7691 43.0378C20.7432 43.0072 23.7172 43.0247 26.689 43.0247C26.9733 43.0247 27.2575 43.0247 27.5877 43.0247C27.5877 40.5691 27.5877 38.19 27.5877 35.6775C27.2925 35.6775 26.9864 35.6775 26.6802 35.6775C23.1245 35.6775 19.5667 35.6797 16.011 35.6775C14.22 35.6775 13.6383 35.1025 13.6361 33.3313C13.634 26.3931 13.6274 19.4548 13.6493 12.5166C13.6514 11.8869 13.5071 11.572 12.8795 11.2965C10.3407 10.1769 8.98706 7.33864 9.60373 4.63376C10.227 1.93544 12.6936 -0.0259796 15.438 0.00026016C18.2021 0.0286865 20.6273 2.01853 21.1936 4.72123C21.7666 7.45453 20.3758 10.2163 17.8282 11.3446C17.4018 11.5348 17.124 11.6769 17.1262 12.2498C17.1525 18.7223 17.1415 25.1926 17.1437 31.6651C17.1437 31.805 17.1612 31.9449 17.1743 32.133C20.6404 32.133 24.0692 32.133 27.6402 32.133C27.6402 31.4726 27.6402 30.7882 27.6402 30.1038C27.6424 28.1883 28.1847 27.6351 30.0697 27.6351C34.0344 27.6329 37.999 27.6351 41.9636 27.6351C42.2807 27.6351 42.5978 27.6351 42.9629 27.6351C42.9892 27.3967 43.0307 27.2043 43.0307 27.0119C43.0351 23.8631 43.022 20.7143 43.0439 17.5678C43.0482 17.0626 42.9017 16.8177 42.4184 16.6078C39.7921 15.4708 38.3948 12.7178 38.9852 9.94949C39.5625 7.2468 41.9942 5.26351 44.7561 5.24821C47.5442 5.2329 50.0197 7.24243 50.586 9.98229C51.1612 12.7615 49.7572 15.438 47.1287 16.6494C46.8773 16.7653 46.5602 17.102 46.558 17.3404C46.5252 20.6925 46.5405 24.0446 46.5492 27.3967C46.5492 27.447 46.5886 27.4995 46.6302 27.5935C48.9941 27.5935 51.3733 27.5935 53.8815 27.5935C53.8815 27.2918 53.8815 26.9856 53.8815 26.6795C53.8815 23.0934 53.8793 19.5073 53.8837 15.9234C53.8859 14.2528 54.4894 13.6449 56.1492 13.6449C59.648 13.6405 63.1469 13.6427 66.6435 13.6427C66.731 13.6427 66.8184 13.6405 66.9059 13.6427C68.113 13.6755 68.9068 14.36 68.9156 15.3767C68.9243 16.3913 68.1283 17.1261 66.93 17.1348C64.1025 17.1523 61.275 17.1414 58.4475 17.1414C58.1304 17.1414 57.8133 17.1414 57.4394 17.1414C57.4394 20.6444 57.4394 24.0949 57.4394 27.6394C58.231 27.6394 59.0095 27.6329 59.788 27.6416C61.264 27.6569 61.9244 28.3064 61.9266 29.7845C61.9354 33.8364 61.9288 37.8882 61.9288 41.9401C61.9288 42.2593 61.9288 42.5786 61.9288 42.9634C62.1759 42.9875 62.3968 43.029 62.6177 43.029C65.736 43.0334 68.8565 43.0247 71.9749 43.04C72.4603 43.0422 72.7358 42.946 72.9523 42.4387C74.0916 39.7928 76.8164 38.3999 79.5936 38.9794C82.3314 39.5501 84.341 42.0319 84.317 44.8177C84.2951 47.5795 82.3095 50.0088 79.6045 50.5795C76.8317 51.1656 74.1179 49.7595 72.9261 47.1487C72.8146 46.9038 72.539 46.5605 72.3357 46.5583C68.9024 46.5211 65.467 46.5321 61.9791 46.5321C61.9791 48.9942 61.9791 51.393 61.9791 53.877C62.9938 53.877 63.9778 53.877 64.9619 53.877C67.8768 53.877 70.7918 53.8726 73.7068 53.8792C75.2987 53.8835 75.922 54.5111 75.922 56.1205C75.9263 63.0587 75.9307 69.9969 75.911 76.9352C75.9089 77.613 76.0422 77.9847 76.742 78.2952C78.9178 79.2596 80.2715 81.6474 80.0965 83.9565C79.9063 86.4799 78.3165 88.5069 75.946 89.2569C75.6442 89.3531 75.3447 89.4624 75.0451 89.5652C74.4656 89.5608 73.8839 89.5608 73.3 89.5608ZM31.1784 58.3596C40.2929 58.3596 49.3374 58.3596 58.36 58.3596C58.36 49.2522 58.36 40.2083 58.36 31.1774C49.2652 31.1774 40.2404 31.1774 31.1784 31.1774C31.1784 40.2476 31.1784 49.2719 31.1784 58.3596ZM17.8369 5.91295C17.8194 4.57909 16.6976 3.48358 15.3659 3.49889C14.0319 3.51638 12.9364 4.63813 12.9517 5.9698C12.9692 7.30365 14.091 8.39916 15.4227 8.38385C16.7589 8.36855 17.8544 7.2468 17.8369 5.91295ZM74.1529 86.0557C75.4868 86.0688 76.6042 84.9689 76.6174 83.635C76.6305 82.3012 75.5305 81.1838 74.1966 81.1707C72.8627 81.1576 71.7452 82.2574 71.7321 83.5913C71.719 84.923 72.8189 86.0425 74.1529 86.0557ZM47.2271 11.2134C47.2425 9.87952 46.1469 8.75996 44.8108 8.74465C43.4746 8.72934 42.355 9.82267 42.3397 11.1587C42.3244 12.4904 43.4222 13.6143 44.7561 13.6296C46.0878 13.6449 47.2118 12.5472 47.2271 11.2134ZM13.6361 44.7587C13.6252 43.427 12.5056 42.3249 11.1716 42.3359C9.83772 42.3468 8.73996 43.462 8.75089 44.798C8.76183 46.1341 9.87708 47.234 11.211 47.2208C12.5449 47.2077 13.6471 46.0904 13.6361 44.7587ZM80.8182 44.8483C80.8553 43.5145 79.7816 42.3731 78.4477 42.3337C77.1181 42.2943 75.9723 43.3724 75.9307 44.704C75.8892 46.0313 76.9716 47.1771 78.3034 47.2187C79.6373 47.2602 80.781 46.18 80.8182 44.8483ZM47.2271 78.4418C47.2665 77.1101 46.1884 75.9665 44.8567 75.9249C43.5293 75.8834 42.3813 76.9658 42.3419 78.2974C42.3004 79.6291 43.3806 80.7727 44.7124 80.8099C46.0463 80.8493 47.1878 79.7734 47.2271 78.4418Z" fill="#F2631C"/>
    <path d="M0 73.2916C0.513891 71.3564 1.47607 69.7733 3.34576 68.8418C6.33508 67.3505 10.0417 68.7127 11.3996 71.8287C12.7248 74.8747 11.1897 78.533 8.09543 79.6963C4.93117 80.888 1.39516 79.2502 0.356444 76.1123C0.238358 75.7537 0.120272 75.3973 0.00218677 75.0387C0 74.4571 0 73.8732 0 73.2916ZM5.92615 71.7216C4.59222 71.7325 3.49227 72.8521 3.50321 74.1859C3.51414 75.5198 4.63377 76.6196 5.9677 76.6087C7.30163 76.5978 8.40158 75.4782 8.39064 74.1444C8.37971 72.8105 7.26008 71.7106 5.92615 71.7216Z" fill="#F2631C"/>
    <path d="M89.5655 15.3536C89.5918 18.5898 86.8867 21.3209 83.6372 21.3297C80.3964 21.3406 77.6761 18.6226 77.6826 15.3798C77.6892 12.1676 80.3439 9.48898 83.5672 9.44525C86.7971 9.40589 89.5393 12.102 89.5655 15.3536ZM83.6022 12.9461C82.2683 12.9592 81.1683 14.0766 81.1815 15.4104C81.1946 16.7443 82.312 17.8442 83.646 17.831C84.9799 17.8179 86.0798 16.7005 86.0667 15.3667C86.0536 14.0328 84.9361 12.9351 83.6022 12.9461Z" fill="#F2631C"/>
    <path d="M73.3664 13.6471C74.2958 13.6296 75.0918 14.4125 75.1071 15.3571C75.1202 16.2995 74.3505 17.1042 73.4189 17.1195C72.4873 17.137 71.6957 16.3564 71.6848 15.4074C71.6695 14.454 72.4239 13.6646 73.3664 13.6471Z" fill="#F2631C"/>
    <path d="M17.893 74.2385C17.858 75.1788 17.038 75.9463 16.1151 75.9026C15.1748 75.8589 14.4379 75.0498 14.4729 74.103C14.5057 73.1671 15.3345 72.3908 16.2507 72.4368C17.1888 72.4827 17.928 73.2939 17.893 74.2385Z" fill="#F2631C"/>
    <path d="M44.8639 36.7314C46.7883 36.7314 48.7126 36.7248 50.637 36.7336C52.1874 36.7401 52.8281 37.3699 52.8303 38.9093C52.8369 42.8146 52.8369 46.7221 52.8303 50.6275C52.8281 52.1778 52.194 52.8185 50.6545 52.8207C46.7489 52.8273 42.8411 52.8273 38.9356 52.8207C37.3851 52.8185 36.7444 52.1844 36.7422 50.645C36.7357 46.7396 36.7357 42.8321 36.7422 38.9268C36.7444 37.3764 37.3786 36.7401 38.9181 36.7336C40.8993 36.7248 42.8805 36.7314 44.8639 36.7314ZM40.2848 40.2694C40.2848 43.3328 40.2848 46.2914 40.2848 49.2674C43.3135 49.2674 46.294 49.2674 49.2681 49.2674C49.2681 46.2301 49.2681 43.2498 49.2681 40.2694C46.2459 40.2694 43.285 40.2694 40.2848 40.2694Z" fill="#F2631C"/>
    </svg>