<svg width="13" height="13" viewBox="0 0 13 13" fill="none" xmlns="http://www.w3.org/2000/svg">
<path d="M5.7552 0.387897C5.82398 0.269872 5.9225 0.171943 6.04094 0.103881C6.15938 0.0358179 6.29359 0 6.4302 0C6.5668 0 6.70102 0.0358179 6.81946 0.103881C6.9379 0.171943 7.03642 0.269872 7.1052 0.387897L8.85207 3.38665L12.2446 4.12165C12.378 4.15064 12.5015 4.21412 12.6028 4.30573C12.7041 4.39734 12.7796 4.5139 12.8217 4.64379C12.8639 4.77367 12.8713 4.91234 12.8432 5.04597C12.8151 5.1796 12.7524 5.30353 12.6614 5.4054L10.3489 7.99352L10.6989 11.4466C10.7128 11.5826 10.6906 11.7198 10.6348 11.8446C10.579 11.9694 10.4915 12.0773 10.3809 12.1576C10.2703 12.238 10.1406 12.2879 10.0047 12.3024C9.86883 12.3169 9.7315 12.2955 9.60645 12.2404L6.4302 10.8404L3.25395 12.2404C3.1289 12.2955 2.99157 12.3169 2.85567 12.3024C2.71977 12.2879 2.59006 12.238 2.47949 12.1576C2.36892 12.0773 2.28136 11.9694 2.22555 11.8446C2.16974 11.7198 2.14764 11.5826 2.16145 11.4466L2.51145 7.99352L0.198947 5.40602C0.107839 5.30416 0.0450441 5.18019 0.0168306 5.04647C-0.0113829 4.91276 -0.00402779 4.77398 0.0381618 4.64399C0.0803513 4.51401 0.155899 4.39737 0.257263 4.30571C0.358627 4.21405 0.482261 4.15058 0.615822 4.12165L4.00832 3.38665L5.7552 0.387897Z" fill="#FFBC00"/>
</svg>
