<svg width="45" height="45" viewBox="0 0 45 45" fill="none" xmlns="http://www.w3.org/2000/svg">
<path d="M13.3889 13.3826H31.6111M13.3889 22.4886H27.0556M28.1944 35.0094L22.5 40.7007L15.6667 33.8712H8.83333C7.02102 33.8712 5.28294 33.1516 4.00144 31.8709C2.71994 30.5901 2 28.853 2 27.0416V8.82954C2 7.01823 2.71994 5.28111 4.00144 4.00033C5.28294 2.71954 7.02102 2 8.83333 2H36.1667C37.979 2 39.7171 2.71954 40.9986 4.00033C42.2801 5.28111 43 7.01823 43 8.82954V19.0738M38.4444 42.9772V43M38.4444 36.1477C39.4656 36.1444 40.4561 35.7989 41.2574 35.1664C42.0588 34.5339 42.6247 33.651 42.8646 32.659C43.1045 31.667 43.0044 30.6233 42.5805 29.6948C42.1566 28.7664 41.4333 28.0069 40.5263 27.5379C39.6202 27.074 38.5836 26.9302 37.5853 27.1298C36.5869 27.3294 35.6856 27.8608 35.0278 28.6375" stroke="#1FB9B3" stroke-width="3" stroke-linecap="round" stroke-linejoin="round"/>
</svg>
