<svg width="160" height="160" viewBox="0 0 160 160" fill="none" xmlns="http://www.w3.org/2000/svg">
<circle cx="80" cy="80" r="80" fill="white"/>
<path d="M80 88.792C77.4717 88.792 75.375 86.6953 75.375 84.167V51.792C75.375 49.2637 77.4717 47.167 80 47.167C82.5283 47.167 84.625 49.2637 84.625 51.792V84.167C84.625 86.6953 82.5283 88.792 80 88.792Z" fill="#FFBC00"/>
<path d="M80.0026 110.375C78.3376 110.375 76.7958 109.758 75.6241 108.586C75.0691 107.97 74.6376 107.291 74.2676 106.551C73.9593 105.811 73.8359 105.01 73.8359 104.208C73.8359 102.605 74.5141 101.001 75.6241 99.8294C77.9058 97.5477 82.0994 97.5477 84.3811 99.8294C85.4911 101.001 86.1693 102.605 86.1693 104.208C86.1693 105.01 85.9842 105.811 85.6758 106.551C85.3675 107.291 84.9361 107.97 84.3811 108.586C83.2094 109.758 81.6676 110.375 80.0026 110.375Z" fill="#FFBC00"/>
<path d="M80.0005 144.292C75.8688 144.292 71.6754 143.243 67.9754 141.085L31.3454 119.933C23.9454 115.617 19.3203 107.662 19.3203 99.09V56.9102C19.3203 48.3386 23.9454 40.3835 31.3454 36.0669L67.9754 14.9152C75.3754 10.5986 84.5639 10.5986 92.0256 14.9152L128.656 36.0669C136.056 40.3835 140.681 48.3386 140.681 56.9102V99.09C140.681 107.662 136.056 115.617 128.656 119.933L92.0256 141.085C88.3256 143.243 84.1321 144.292 80.0005 144.292ZM80.0005 20.9584C77.4721 20.9584 74.8821 21.6368 72.6004 22.9318L35.9704 44.0834C31.4071 46.7351 28.5703 51.6069 28.5703 56.9102V99.09C28.5703 104.332 31.4071 109.265 35.9704 111.917L72.6004 133.068C77.1637 135.72 82.8372 135.72 87.3388 133.068L123.969 111.917C128.532 109.265 131.369 104.393 131.369 99.09V56.9102C131.369 51.6686 128.532 46.7351 123.969 44.0834L87.3388 22.9318C85.1188 21.6368 82.5288 20.9584 80.0005 20.9584Z" fill="#FFBC00"/>
</svg>
