<svg width="232" height="232" viewBox="0 0 232 232" fill="none" xmlns="http://www.w3.org/2000/svg">
<path d="M116 142.583C112.037 142.583 108.75 139.297 108.75 135.333V87C108.75 83.0367 112.037 79.75 116 79.75C119.963 79.75 123.25 83.0367 123.25 87V135.333C123.25 139.297 119.963 142.583 116 142.583Z" fill="#DC831D"/>
<path d="M115.997 174.002C115.417 174.002 114.74 173.905 114.063 173.809C113.483 173.712 112.903 173.519 112.323 173.229C111.743 173.035 111.163 172.745 110.583 172.359C110.1 171.972 109.617 171.585 109.133 171.199C107.393 169.362 106.33 166.849 106.33 164.335C106.33 161.822 107.393 159.309 109.133 157.472C109.617 157.085 110.1 156.699 110.583 156.312C111.163 155.925 111.743 155.635 112.323 155.442C112.903 155.152 113.483 154.959 114.063 154.862C115.32 154.572 116.673 154.572 117.833 154.862C118.51 154.959 119.09 155.152 119.67 155.442C120.25 155.635 120.83 155.925 121.41 156.312C121.893 156.699 122.377 157.085 122.86 157.472C124.6 159.309 125.663 161.822 125.663 164.335C125.663 166.849 124.6 169.362 122.86 171.199C122.377 171.585 121.893 171.972 121.41 172.359C120.83 172.745 120.25 173.035 119.67 173.229C119.09 173.519 118.51 173.712 117.833 173.809C117.253 173.905 116.577 174.002 115.997 174.002Z" fill="#DC831D"/>
<path d="M174.581 214.212H57.4212C38.5712 214.212 24.1679 207.348 16.8212 194.975C9.57123 182.602 10.5379 166.652 19.7212 150.122L78.3012 44.7552C87.9679 27.3552 101.308 17.7852 116.001 17.7852C130.695 17.7852 144.035 27.3552 153.701 44.7552L212.281 150.218C221.465 166.748 222.528 182.602 215.181 195.072C207.835 207.348 193.431 214.212 174.581 214.212ZM116.001 32.2852C106.915 32.2852 98.0212 39.2452 90.9646 51.8118L32.4812 157.275C25.9079 169.068 24.8446 179.895 29.3879 187.725C33.9312 195.555 43.9846 199.809 57.5179 199.809H174.678C188.211 199.809 198.168 195.555 202.808 187.725C207.448 179.895 206.288 169.165 199.715 157.275L141.038 51.8118C133.981 39.2452 125.088 32.2852 116.001 32.2852Z" fill="#DC831D"/>
</svg>
