<svg width="71" height="71" viewBox="0 0 71 71" fill="none" xmlns="http://www.w3.org/2000/svg">
<path d="M61.416 69.4062C61.7061 69.4062 61.9843 69.291 62.1894 69.0859C62.3945 68.8808 62.5098 68.6026 62.5098 68.3125V58.4688C62.5075 56.9807 62 55.5375 61.0705 54.3755C60.1409 53.2135 58.8444 52.4015 57.3932 52.0725C58.0389 51.3999 58.534 50.5975 58.8457 49.7188H63.6035C65.0534 49.717 66.4434 49.1403 67.4686 48.1151C68.4938 47.0899 69.0705 45.6999 69.0723 44.25V7.0625C69.0705 5.61263 68.4938 4.22264 67.4686 3.19743C66.4434 2.17221 65.0534 1.59549 63.6035 1.59375H6.72852C5.27865 1.59549 3.88866 2.17221 2.86344 3.19743C1.83823 4.22264 1.2615 5.61263 1.25977 7.0625V44.25C1.2615 45.6999 1.83823 47.0899 2.86344 48.1151C3.88866 49.1403 5.27865 49.717 6.72852 49.7188H11.4863C11.798 50.5975 12.2931 51.3999 12.9388 52.0725C11.4876 52.4015 10.1911 53.2135 9.26157 54.3755C8.33205 55.5375 7.82458 56.9807 7.82227 58.4688V68.3125C7.82227 68.6026 7.9375 68.8808 8.14262 69.0859C8.34774 69.291 8.62594 69.4062 8.91602 69.4062H61.416ZM52.666 38.7812C51.3102 38.7828 49.9882 39.2042 48.8816 39.9877C47.775 40.7711 46.9383 41.878 46.4863 43.1562H41.3457C40.8953 41.877 40.0589 40.769 38.952 39.9852C37.8451 39.2015 36.5223 38.7806 35.166 38.7806C33.8097 38.7806 32.4869 39.2015 31.38 39.9852C30.2731 40.769 29.4368 41.877 28.9863 43.1562H23.8457C23.3953 41.877 22.5589 40.769 21.452 39.9852C20.3451 39.2015 19.0223 38.7806 17.666 38.7806C16.3097 38.7806 14.9869 39.2015 13.88 39.9852C12.7731 40.769 11.9368 41.877 11.4863 43.1562H7.82227V8.15625H62.5098V43.1562H58.8457C58.3938 41.878 57.557 40.7711 56.4504 39.9877C55.3439 39.2042 54.0218 38.7828 52.666 38.7812ZM52.666 51.9062C51.5057 51.9062 50.3929 51.4453 49.5724 50.6248C48.752 49.8044 48.291 48.6916 48.291 47.5312V45.3438C48.291 44.1834 48.752 43.0706 49.5724 42.2502C50.3929 41.4297 51.5057 40.9688 52.666 40.9688C53.8263 40.9688 54.9391 41.4297 55.7596 42.2502C56.5801 43.0706 57.041 44.1834 57.041 45.3438V47.5312C57.041 48.6916 56.5801 49.8044 55.7596 50.6248C54.9391 51.4453 53.8263 51.9062 52.666 51.9062ZM43.916 54.8484C42.9815 53.4406 41.541 52.4466 39.8932 52.0725C40.5389 51.3999 41.034 50.5975 41.3457 49.7188H46.4863C46.798 50.5975 47.2931 51.3999 47.9388 52.0725C46.291 52.4466 44.8505 53.4406 43.916 54.8484ZM26.416 54.8484C25.4815 53.4406 24.041 52.4466 22.3932 52.0725C23.0389 51.3999 23.534 50.5975 23.8457 49.7188H28.9863C29.298 50.5975 29.7931 51.3999 30.4388 52.0725C28.791 52.4466 27.3505 53.4406 26.416 54.8484ZM13.291 47.5312V45.3438C13.291 44.1834 13.752 43.0706 14.5724 42.2502C15.3929 41.4297 16.5057 40.9688 17.666 40.9688C18.8263 40.9688 19.9391 41.4297 20.7596 42.2502C21.5801 43.0706 22.041 44.1834 22.041 45.3438V47.5312C22.041 48.6916 21.5801 49.8044 20.7596 50.6248C19.9391 51.4453 18.8263 51.9062 17.666 51.9062C16.5057 51.9062 15.3929 51.4453 14.5724 50.6248C13.752 49.8044 13.291 48.6916 13.291 47.5312ZM24.2285 45.3438H28.6035V47.5312H24.2285V45.3438ZM30.791 47.5312V45.3438C30.791 44.1834 31.252 43.0706 32.0724 42.2502C32.8929 41.4297 34.0057 40.9688 35.166 40.9688C36.3263 40.9688 37.4391 41.4297 38.2596 42.2502C39.0801 43.0706 39.541 44.1834 39.541 45.3438V47.5312C39.541 48.6916 39.0801 49.8044 38.2596 50.6248C37.4391 51.4453 36.3263 51.9062 35.166 51.9062C34.0057 51.9062 32.8929 51.4453 32.0724 50.6248C31.252 49.8044 30.791 48.6916 30.791 47.5312ZM41.7285 45.3438H46.1035V47.5312H41.7285V45.3438ZM10.0098 58.4688C10.0098 57.3084 10.4707 56.1956 11.2912 55.3752C12.1116 54.5547 13.2244 54.0938 14.3848 54.0938H20.9473C22.1076 54.0938 23.2204 54.5547 24.0409 55.3752C24.8613 56.1956 25.3223 57.3084 25.3223 58.4688V67.2188H10.0098V58.4688ZM27.5098 58.4688C27.5098 57.3084 27.9707 56.1956 28.7912 55.3752C29.6116 54.5547 30.7244 54.0938 31.8848 54.0938H38.4473C39.6076 54.0938 40.7204 54.5547 41.5409 55.3752C42.3613 56.1956 42.8223 57.3084 42.8223 58.4688V67.2188H27.5098V58.4688ZM60.3223 58.4688V67.2188H45.0098V58.4688C45.0098 57.3084 45.4707 56.1956 46.2912 55.3752C47.1116 54.5547 48.2244 54.0938 49.3848 54.0938H55.9473C57.1076 54.0938 58.2204 54.5547 59.0409 55.3752C59.8613 56.1956 60.3223 57.3084 60.3223 58.4688ZM66.8848 44.25C66.8848 45.1202 66.5391 45.9548 65.9237 46.5702C65.3084 47.1855 64.4738 47.5312 63.6035 47.5312H59.2285V45.3438H63.6035C63.8936 45.3438 64.1718 45.2285 64.3769 45.0234C64.582 44.8183 64.6973 44.5401 64.6973 44.25V7.0625C64.6973 6.77242 64.582 6.49422 64.3769 6.2891C64.1718 6.08398 63.8936 5.96875 63.6035 5.96875H6.72852C6.43844 5.96875 6.16024 6.08398 5.95512 6.2891C5.75 6.49422 5.63477 6.77242 5.63477 7.0625V44.25C5.63477 44.5401 5.75 44.8183 5.95512 45.0234C6.16024 45.2285 6.43844 45.3438 6.72852 45.3438H11.1035V47.5312H6.72852C5.85827 47.5312 5.02368 47.1855 4.40832 46.5702C3.79297 45.9548 3.44727 45.1202 3.44727 44.25V7.0625C3.44727 6.19226 3.79297 5.35766 4.40832 4.74231C5.02368 4.12695 5.85827 3.78125 6.72852 3.78125H63.6035C64.4738 3.78125 65.3084 4.12695 65.9237 4.74231C66.5391 5.35766 66.8848 6.19226 66.8848 7.0625V44.25Z" fill="#1FB9B3"/>
<path d="M46.1035 11.4375H24.2285C23.3583 11.4375 22.5237 11.7832 21.9083 12.3986C21.293 13.0139 20.9473 13.8485 20.9473 14.7188V27.8438C20.9473 28.714 21.293 29.5486 21.9083 30.1639C22.5237 30.7793 23.3583 31.125 24.2285 31.125H46.1035C46.9738 31.125 47.8084 30.7793 48.4237 30.1639C49.0391 29.5486 49.3848 28.714 49.3848 27.8438V14.7188C49.3848 13.8485 49.0391 13.0139 48.4237 12.3986C47.8084 11.7832 46.9738 11.4375 46.1035 11.4375ZM47.1973 27.8438C47.1973 28.1338 47.082 28.412 46.8769 28.6171C46.6718 28.8223 46.3936 28.9375 46.1035 28.9375H24.2285C23.9384 28.9375 23.6602 28.8223 23.4551 28.6171C23.25 28.412 23.1348 28.1338 23.1348 27.8438V14.7188C23.1348 14.4287 23.25 14.1505 23.4551 13.9454C23.6602 13.7402 23.9384 13.625 24.2285 13.625H46.1035C46.3936 13.625 46.6718 13.7402 46.8769 13.9454C47.082 14.1505 47.1973 14.4287 47.1973 14.7188V27.8438Z" fill="#1FB9B3"/>
<path d="M40.0299 20.3019L31.2799 15.9269C31.1131 15.8435 30.9278 15.8042 30.7415 15.8126C30.5553 15.8211 30.3742 15.877 30.2157 15.9751C30.0571 16.0732 29.9262 16.2102 29.8355 16.373C29.7448 16.5359 29.6972 16.7193 29.6973 16.9058V25.6558C29.6972 25.8422 29.7448 26.0256 29.8355 26.1885C29.9262 26.3514 30.0571 26.4884 30.2157 26.5865C30.3742 26.6846 30.5553 26.7405 30.7415 26.7489C30.9278 26.7574 31.1131 26.718 31.2799 26.6347L40.0299 22.2597C40.2119 22.169 40.365 22.0293 40.4721 21.8564C40.5791 21.6835 40.6358 21.4841 40.6358 21.2808C40.6358 21.0774 40.5791 20.8781 40.4721 20.7052C40.365 20.5322 40.2119 20.3926 40.0299 20.3019ZM31.8848 23.8861V18.6755L37.0954 21.2808L31.8848 23.8861ZM26.416 32.2183C25.7398 32.2211 25.081 32.4328 24.5296 32.8243C23.9783 33.2159 23.5614 33.7682 23.336 34.4058H20.9473V36.5933H23.336C23.5588 37.2326 23.9749 37.7868 24.5268 38.179C25.0787 38.5711 25.739 38.7818 26.416 38.7818C27.0931 38.7818 27.7533 38.5711 28.3052 38.179C28.8571 37.7868 29.2733 37.2326 29.496 36.5933H49.3848V34.4058H29.496C29.2706 33.7682 28.8537 33.2159 28.3024 32.8243C27.7511 32.4328 27.0922 32.2211 26.416 32.2183ZM26.416 36.5933C26.1997 36.5933 25.9882 36.5291 25.8084 36.409C25.6285 36.2888 25.4883 36.1179 25.4055 35.9181C25.3227 35.7182 25.3011 35.4983 25.3433 35.2862C25.3855 35.074 25.4897 34.8791 25.6426 34.7261C25.7956 34.5732 25.9905 34.469 26.2026 34.4268C26.4148 34.3846 26.6347 34.4063 26.8346 34.489C27.0344 34.5718 27.2053 34.712 27.3254 34.8919C27.4456 35.0717 27.5098 35.2832 27.5098 35.4995C27.5098 35.7896 27.3945 36.0678 27.1894 36.2729C26.9843 36.478 26.7061 36.5933 26.416 36.5933Z" fill="#1FB9B3"/>
</svg>
