<svg width="32" height="32" viewBox="0 0 32 32" fill="none" xmlns="http://www.w3.org/2000/svg">
<g id="material-symbols:personal-places-rounded">
<path id="Vector" d="M8 27.9203V8.15556C8 7.37909 8.27671 6.71415 8.83012 6.16074C9.38353 5.60733 10.048 5.33109 10.8235 5.33203H21.3412C21.8118 5.33203 22.2471 5.43792 22.6471 5.64968C23.0471 5.86145 23.3765 6.15556 23.6353 6.53203L26.6353 10.7673C26.9647 11.2614 27.1294 11.8026 27.1294 12.3909C27.1294 12.9791 26.9647 13.5203 26.6353 14.0144L23.6353 18.2497C23.3765 18.6261 23.0471 18.9203 22.6471 19.132C22.2471 19.3438 21.8118 19.4497 21.3412 19.4497H10.8235V27.9203C10.8235 28.3203 10.688 28.6558 10.4169 28.9268C10.1459 29.1979 9.81083 29.333 9.41177 29.332C9.01177 29.332 8.67624 29.1965 8.40518 28.9254C8.13412 28.6544 7.99906 28.3193 8 27.9203Z" fill="white"/>
</g>
</svg>
