<svg width="32" height="32" viewBox="0 0 32 32" fill="none" xmlns="http://www.w3.org/2000/svg">
<g id="material-symbols:play-shapes-rounded">
<path id="Vector" d="M4.93269 14.6671C4.42158 14.6671 4.03802 14.4502 3.78202 14.0164C3.52602 13.5826 3.52069 13.1439 3.76602 12.7004L8.16602 4.76706C8.41047 4.32261 8.79936 4.10039 9.33269 4.10039C9.86602 4.10039 10.2549 4.32261 10.4994 4.76706L14.8994 12.7004C15.1438 13.1448 15.138 13.5839 14.882 14.0177C14.626 14.4515 14.2429 14.6679 13.7327 14.6671H4.93269ZM9.33269 28.0004C7.86602 28.0004 6.61047 27.4782 5.56602 26.4337C4.52158 25.3893 3.99936 24.1337 3.99936 22.6671C3.99936 21.2004 4.52158 19.9448 5.56602 18.9004C6.61047 17.8559 7.86602 17.3337 9.33269 17.3337C10.7994 17.3337 12.0549 17.8559 13.0994 18.9004C14.1438 19.9448 14.666 21.2004 14.666 22.6671C14.666 24.1337 14.1438 25.3893 13.0994 26.4337C12.0549 27.4782 10.7994 28.0004 9.33269 28.0004ZM18.666 28.0004C18.2882 28.0004 17.9714 27.8724 17.7154 27.6164C17.4594 27.3604 17.3318 27.0439 17.3327 26.6671V18.6671C17.3327 18.2893 17.4607 17.9724 17.7167 17.7164C17.9727 17.4604 18.2891 17.3328 18.666 17.3337H26.666C27.0438 17.3337 27.3607 17.4617 27.6167 17.7177C27.8727 17.9737 28.0002 18.2902 27.9994 18.6671V26.6671C27.9994 27.0448 27.8714 27.3617 27.6154 27.6177C27.3594 27.8737 27.0429 28.0013 26.666 28.0004H18.666ZM20.7994 8.66706L18.266 6.13372C18.0216 5.88928 17.8994 5.57817 17.8994 5.20039C17.8994 4.82261 18.0216 4.5115 18.266 4.26706C18.5105 4.02261 18.8216 3.90039 19.1994 3.90039C19.5771 3.90039 19.8882 4.02261 20.1327 4.26706L22.666 6.80039L25.1994 4.26706C25.4438 4.02261 25.7549 3.90039 26.1327 3.90039C26.5105 3.90039 26.8216 4.02261 27.066 4.26706C27.3105 4.5115 27.4327 4.82261 27.4327 5.20039C27.4327 5.57817 27.3105 5.88928 27.066 6.13372L24.5327 8.66706L27.066 11.2004C27.3105 11.4448 27.4327 11.7559 27.4327 12.1337C27.4327 12.5115 27.3105 12.8226 27.066 13.0671C26.8216 13.3115 26.5105 13.4337 26.1327 13.4337C25.7549 13.4337 25.4438 13.3115 25.1994 13.0671L22.666 10.5337L20.1327 13.0671C19.8882 13.3115 19.5771 13.4337 19.1994 13.4337C18.8216 13.4337 18.5105 13.3115 18.266 13.0671C18.0216 12.8226 17.8994 12.5115 17.8994 12.1337C17.8994 11.7559 18.0216 11.4448 18.266 11.2004L20.7994 8.66706Z" fill="white"/>
</g>
</svg>
