<svg width="32" height="27" viewBox="0 0 32 27" fill="none" xmlns="http://www.w3.org/2000/svg">
<g id="Union">
<path d="M26.0632 10.0296C24.9578 11.1314 23.4585 11.7504 21.8952 11.7504C20.3319 11.7504 18.8326 11.1314 17.7272 10.0296C16.6218 8.92776 16.0008 7.43338 16.0008 5.87518C16.0008 4.31699 16.6218 2.82261 17.7272 1.7208C18.8326 0.618991 20.3319 0 21.8952 0C23.4585 0 24.9578 0.618991 26.0632 1.7208C27.1687 2.82261 27.7897 4.31699 27.7897 5.87518C27.7897 7.43338 27.1687 8.92776 26.0632 10.0296Z" fill="white"/>
<path d="M14.1432 13.4894C14.3374 13.4495 14.5365 13.429 14.7377 13.429H29.0528C29.8344 13.429 30.5841 13.7385 31.1368 14.2894C31.6895 14.8403 32 15.5875 32 16.3666V16.7862C32 18.7947 30.7175 20.4935 28.897 21.6484C27.0655 22.81 24.5881 23.5007 21.8952 23.5007C20.5913 23.5007 19.3378 23.3388 18.1837 23.0399C18.1963 23.0523 18.2085 23.0652 18.2205 23.0785C18.535 23.4306 18.5037 23.9706 18.1504 24.2848C17.5155 24.8478 16.7754 25.3277 15.9505 25.711C15.8335 25.7652 15.7105 25.7912 15.589 25.7912H15.5883C15.2656 25.7912 14.9563 25.6085 14.811 25.2972C14.6113 24.8694 14.7968 24.3613 15.2261 24.1622C15.8998 23.8495 16.5004 23.461 17.0102 23.0087C17.1252 22.9066 17.2602 22.8411 17.4009 22.8113C16.4784 22.5102 15.6331 22.1177 14.8935 21.6484C13.589 20.8209 12.5608 19.7142 12.0827 18.4144H11.2532C11.0669 18.4144 10.8947 18.355 10.7539 18.2547C10.613 18.3557 10.4409 18.4144 10.2546 18.4144H7.86978C7.39655 18.4144 7.01274 18.0318 7.01274 17.5602C7.01274 17.0885 7.39655 16.7059 7.86978 16.7059H10.2546C10.4409 16.7059 10.613 16.7654 10.7539 16.8656C10.8947 16.7646 11.0669 16.7059 11.2532 16.7059H11.7904V16.3666C11.7904 15.6921 12.0232 15.0414 12.4444 14.5214C12.168 14.6293 11.884 14.7167 11.5957 14.782C11.5316 14.7969 11.4675 14.8036 11.4049 14.8036V14.8043C11.0137 14.8043 10.6604 14.5354 10.5702 14.1395C10.4652 13.6797 10.7543 13.2214 11.2156 13.1167C11.8401 12.9748 12.4363 12.6881 12.9401 12.287C13.3098 11.9921 13.8493 12.053 14.1444 12.4214C14.3994 12.7397 14.3896 13.1845 14.1432 13.4894Z" fill="white"/>
<path d="M9.10881 14.8058C9.04621 14.8058 8.98212 14.7991 8.91877 14.7843C8.04386 14.5867 7.20844 14.1863 6.50418 13.6262C6.1338 13.3321 6.07343 12.795 6.36855 12.4259C6.66367 12.0567 7.20248 11.9965 7.57286 12.2907C8.07665 12.691 8.67359 12.977 9.2981 13.1182C9.75941 13.2221 10.0493 13.6797 9.94423 14.1403C9.85405 14.5369 9.50081 14.8058 9.10881 14.8058Z" fill="white"/>
<path d="M5.60393 12.024C5.28571 12.024 4.97941 11.8465 4.83186 11.5412C4.43613 10.7256 4.23492 9.8498 4.23417 8.93837C4.23417 8.46669 4.61723 8.08414 5.09046 8.0834H5.0912C5.56443 8.0834 5.94749 8.4652 5.94823 8.93689C5.94823 9.58907 6.09281 10.2153 6.37526 10.7976C6.58169 11.2225 6.40283 11.7328 5.97655 11.9386C5.85657 11.9965 5.72913 12.024 5.60393 12.024Z" fill="white"/>
<path d="M14.9068 12.0195C14.7816 12.0195 14.6549 11.9921 14.5349 11.9349C14.1087 11.7298 13.9298 11.2195 14.1355 10.7946C14.4172 10.2115 14.5603 9.58536 14.5603 8.93243V8.92129C14.5603 8.4496 14.9441 8.06706 15.4173 8.06706C15.8905 8.06706 16.2743 8.4496 16.2743 8.92129V8.93243C16.2743 9.84385 16.0739 10.7204 15.6796 11.5367C15.5321 11.842 15.2258 12.0203 14.9068 12.0203V12.0195Z" fill="white"/>
<path d="M5.59797 7.55824C5.47351 7.55824 5.34682 7.53075 5.22684 7.47356C4.80056 7.26928 4.62095 6.75898 4.82589 6.33335C5.21491 5.5274 5.79173 4.80539 6.49375 4.24531C6.86339 3.95042 7.4022 4.00984 7.69881 4.37828C7.99467 4.74671 7.93505 5.2845 7.56541 5.5794C7.06237 5.98051 6.64951 6.49751 6.37079 7.07467C6.22323 7.3807 5.91693 7.55898 5.59797 7.55898V7.55824Z" fill="white"/>
<path d="M14.9038 7.54338C14.5856 7.54338 14.2801 7.36585 14.1318 7.06204C13.8515 6.48636 13.4372 5.97086 12.9327 5.57048C12.5623 5.27707 12.5012 4.73928 12.7955 4.37011C13.0899 4.00093 13.6295 3.94002 13.9998 4.23343C14.7034 4.79128 15.2824 5.5118 15.6737 6.31626C15.8801 6.74041 15.7027 7.25146 15.2765 7.45796C15.1557 7.5159 15.0283 7.54412 14.9031 7.54412L14.9038 7.54338Z" fill="white"/>
<path d="M9.09689 4.76974C8.70638 4.76974 8.35313 4.50158 8.26221 4.10567C8.15639 3.64587 8.4448 3.18756 8.9061 3.08208C9.77953 2.883 10.7096 2.88152 11.583 3.07762C12.0451 3.18161 12.3342 3.63844 12.2306 4.09898C12.1263 4.55952 11.6672 4.84773 11.2059 4.74448C10.5814 4.60409 9.91293 4.60483 9.28841 4.74745C9.22432 4.76231 9.15949 4.76899 9.09614 4.76899L9.09689 4.76974Z" fill="white"/>
<path d="M10.9663 26.8571C10.5161 26.8571 10.1383 26.5073 10.1115 26.0534C10.0832 25.5825 10.4438 25.1784 10.9163 25.1502C11.7026 25.1034 12.4523 25.0031 13.1431 24.8508C13.6052 24.7491 14.0628 25.0402 14.1649 25.5008C14.2669 25.9613 13.9748 26.4174 13.5128 26.5192C12.7332 26.6908 11.8941 26.8037 11.0169 26.8557C10.9998 26.8564 10.9827 26.8571 10.9655 26.8571H10.9663Z" fill="white"/>
<path d="M8.58365 26.8475C8.56579 26.8475 8.54718 26.8475 8.52857 26.846C7.38164 26.7739 6.48809 26.6276 6.05734 26.5467C5.59231 26.4597 5.28602 26.0133 5.37321 25.5491C5.4604 25.0855 5.90829 24.7803 6.37407 24.8672C6.76607 24.9407 7.58211 25.0737 8.63738 25.1405C9.10986 25.1702 9.46832 25.5758 9.43851 26.0467C9.4102 26.4991 9.03236 26.8467 8.58372 26.8467L8.58365 26.8475Z" fill="white"/>
<path d="M4.13014 25.4354C3.96768 25.4354 3.80373 25.3894 3.65766 25.2935C2.86695 24.7721 2.19549 24.2365 1.66338 23.7039C1.32952 23.3697 1.33101 22.8289 1.66637 22.4961C2.00173 22.1633 2.54426 22.1648 2.87813 22.4991C3.32826 22.95 3.9088 23.4113 4.60337 23.8696C4.99835 24.1296 5.10641 24.6599 4.84483 25.0536C4.68013 25.3017 4.40737 25.4362 4.1294 25.4362L4.13014 25.4354Z" fill="white"/>
<path d="M0.983722 21.9843C0.616317 21.9843 0.276485 21.7466 0.163954 21.3782C0.055148 21.0209 0 20.6584 0 20.3019C0 19.6467 0.181839 19.0094 0.541047 18.4084C0.783251 18.0029 1.30865 17.8699 1.71555 18.1106C2.12245 18.3513 2.25585 18.8757 2.01439 19.2812C1.81541 19.6148 1.71481 19.9579 1.71406 20.3019C1.71406 20.4905 1.74462 20.6859 1.80424 20.882C1.94211 21.3336 1.68574 21.8105 1.23338 21.9472C1.15066 21.9724 1.06644 21.9843 0.984467 21.9843H0.983722Z" fill="white"/>
<path d="M5.48425 18.4144H3.09947C2.62624 18.4144 2.24244 18.0318 2.24244 17.5602C2.24244 17.0885 2.62624 16.7059 3.09947 16.7059H5.48425C5.95748 16.7059 6.34128 17.0885 6.34128 17.5602C6.34128 18.0318 5.95748 18.4144 5.48425 18.4144Z" fill="white"/>
</g>
</svg>
