<svg width="19" height="19" viewBox="0 0 19 19" fill="none" xmlns="http://www.w3.org/2000/svg">
<path d="M13.851 11.3863C13.6129 11.2658 12.4533 10.7 12.2366 10.6192C12.0199 10.542 11.8625 10.5017 11.7046 10.7397C11.5502 10.9719 11.0954 11.5033 10.9565 11.6583C10.8175 11.8133 10.681 11.8251 10.4464 11.72C10.2083 11.5995 9.44775 11.3519 8.54466 10.542C7.83928 9.91444 7.36963 9.14137 7.23009 8.90328C7.09116 8.66816 7.21466 8.53516 7.33222 8.41759C7.44028 8.30953 7.57031 8.14566 7.69084 8.00316C7.80544 7.86066 7.84225 7.76506 7.92597 7.61069C8.00316 7.44384 7.96337 7.31381 7.90459 7.19625C7.84581 7.07869 7.37259 5.91316 7.17487 5.44884C6.98606 4.98809 6.78834 5.04688 6.64287 5.04688C6.50691 5.03441 6.34897 5.03441 6.19163 5.03441C6.03428 5.03441 5.77719 5.09319 5.56047 5.31881C5.34375 5.55691 4.73159 6.12572 4.73159 7.27641C4.73159 8.43006 5.57888 9.54631 5.69644 9.71316C5.81697 9.86753 7.36309 12.2425 9.73512 13.2632C10.301 13.5013 10.7403 13.6438 11.0835 13.7613C11.6494 13.9407 12.1659 13.9157 12.5738 13.8569C13.0251 13.7827 13.9715 13.2846 14.1698 12.7282C14.3711 12.1683 14.3711 11.7046 14.3123 11.5995C14.2536 11.4914 14.0992 11.4327 13.8611 11.3276L13.851 11.3863ZM9.54928 17.2188H9.53681C8.13259 17.2188 6.74441 16.8382 5.53197 16.1268L5.24756 15.957L2.27881 16.7301L3.07681 13.8415L2.88503 13.5446C2.10096 12.298 1.685 10.8552 1.68506 9.38244C1.68506 5.07181 5.21372 1.55562 9.55522 1.55562C11.6583 1.55562 13.6313 2.375 15.1157 3.85938C15.8479 4.58291 16.4288 5.44503 16.8243 6.39543C17.2198 7.34584 17.4222 8.36549 17.4194 9.39491C17.4135 13.7026 13.8878 17.2188 9.55225 17.2188H9.54928ZM16.2444 2.73066C14.4382 0.986219 12.0632 0 9.53681 0C4.32606 0 0.083125 4.22453 0.0801563 9.41628C0.0801563 11.074 0.513 12.6914 1.34187 14.1229L0 19L5.016 17.692C6.40556 18.4411 7.95876 18.8352 9.53741 18.8391H9.54038C14.7541 18.8391 18.997 14.6146 19 9.41925C19 6.90531 18.0197 4.53922 16.2325 2.76094L16.2444 2.73066Z" fill="#707070"/>
</svg>
