<svg width="24" height="24" viewBox="0 0 24 24" fill="none" xmlns="http://www.w3.org/2000/svg">
<path d="M13.3735 15.3761H11.7064C10.5271 15.3761 9.56055 14.383 9.56055 13.1593C9.56055 12.7958 9.86204 12.4943 10.2256 12.4943C10.5892 12.4943 10.8906 12.7958 10.8906 13.1593C10.8906 13.647 11.2542 14.046 11.7064 14.046H13.3735C13.7193 14.046 13.9942 13.7357 13.9942 13.3544C13.9942 12.8756 13.8612 12.8046 13.5597 12.6982L10.8906 11.7671C10.3231 11.5721 9.56055 11.1553 9.56055 9.8518C9.56055 8.74341 10.4384 7.83008 11.5114 7.83008H13.1784C14.3578 7.83008 15.3243 8.82322 15.3243 10.0469C15.3243 10.4104 15.0228 10.7119 14.6593 10.7119C14.2957 10.7119 13.9942 10.4104 13.9942 10.0469C13.9942 9.55921 13.6306 9.16018 13.1784 9.16018H11.5114C11.1655 9.16018 10.8906 9.47053 10.8906 9.8518C10.8906 10.3306 11.0237 10.4016 11.3251 10.508L13.9942 11.4391C14.5617 11.6341 15.3243 12.0509 15.3243 13.3544C15.3243 14.4717 14.4464 15.3761 13.3735 15.3761Z" fill="#2CB7B3"/>
<path d="M12.4424 16.2619C12.0788 16.2619 11.7773 15.9604 11.7773 15.5968V7.61622C11.7773 7.25266 12.0788 6.95117 12.4424 6.95117C12.806 6.95117 13.1074 7.25266 13.1074 7.61622V15.5968C13.1074 15.9604 12.806 16.2619 12.4424 16.2619Z" fill="#2CB7B3"/>
<path d="M12.4425 21.139C7.18421 21.139 2.91016 16.8649 2.91016 11.6066C2.91016 6.34827 7.18421 2.07422 12.4425 2.07422C12.8061 2.07422 13.1076 2.37571 13.1076 2.73927C13.1076 3.10283 12.8061 3.40432 12.4425 3.40432C7.92019 3.40432 4.24025 7.08426 4.24025 11.6066C4.24025 16.1289 7.92019 19.8089 12.4425 19.8089C16.9649 19.8089 20.6448 16.1289 20.6448 11.6066C20.6448 11.243 20.9463 10.9415 21.3099 10.9415C21.6734 10.9415 21.9749 11.243 21.9749 11.6066C21.9749 16.8649 17.7009 21.139 12.4425 21.139Z" fill="#2CB7B3"/>
<path d="M20.4229 7.83797H16.876C16.5124 7.83797 16.2109 7.53648 16.2109 7.17292V3.62599C16.2109 3.26243 16.5124 2.96094 16.876 2.96094C17.2395 2.96094 17.541 3.26243 17.541 3.62599V6.50787H20.4229C20.7865 6.50787 21.088 6.80936 21.088 7.17292C21.088 7.53648 20.7865 7.83797 20.4229 7.83797Z" fill="#2CB7B3"/>
<path d="M16.8757 7.83772C16.7072 7.83772 16.5388 7.77564 16.4058 7.64263C16.1486 7.38548 16.1486 6.95985 16.4058 6.7027L20.8394 2.26904C21.0966 2.01188 21.5222 2.01188 21.7794 2.26904C22.0365 2.52619 22.0365 2.95182 21.7794 3.20897L17.3457 7.64263C17.2127 7.77564 17.0442 7.83772 16.8757 7.83772Z" fill="#2CB7B3"/>
</svg>
