<svg width="24" height="24" viewBox="0 0 24 24" fill="none" xmlns="http://www.w3.org/2000/svg">
<path d="M9.44531 12.6656C9.44531 13.6287 10.1899 14.4031 11.1033 14.4031H12.9698C13.7641 14.4031 14.4094 13.7279 14.4094 12.884C14.4094 11.9806 14.0123 11.6529 13.4265 11.4445L10.4381 10.402C9.85237 10.1935 9.45525 9.87579 9.45525 8.96239C9.45525 8.12841 10.1006 7.44336 10.8948 7.44336H12.7613C13.6747 7.44336 14.4194 8.21776 14.4194 9.18081" stroke="#2CB7B3" stroke-width="1.48924" stroke-linecap="round" stroke-linejoin="round"/>
<path d="M11.9277 6.46094V15.3964" stroke="#2CB7B3" stroke-width="1.48924" stroke-linecap="round" stroke-linejoin="round"/>
<path d="M21.8565 10.9282C21.8565 16.4086 17.4086 20.8565 11.9282 20.8565C6.44785 20.8565 2 16.4086 2 10.9282C2 5.44785 6.44785 1 11.9282 1" stroke="#2CB7B3" stroke-width="1.48924" stroke-linecap="round" stroke-linejoin="round"/>
<path d="M21.8561 4.9713V1H17.8848" stroke="#2CB7B3" stroke-width="1.48924" stroke-linecap="round" stroke-linejoin="round"/>
<path d="M16.8926 5.96412L21.8567 1" stroke="#2CB7B3" stroke-width="1.48924" stroke-linecap="round" stroke-linejoin="round"/>
</svg>
