<svg width="16" height="16" viewBox="0 0 16 16" fill="none" xmlns="http://www.w3.org/2000/svg">
<path d="M14.7433 1.73262C14.7379 1.70671 14.7253 1.68286 14.7069 1.66387C14.6884 1.64488 14.665 1.63153 14.6392 1.62539C12.9233 1.20586 8.95859 2.70088 6.81054 4.84805C6.42742 5.22807 6.07815 5.64077 5.7667 6.08145C5.10429 6.02285 4.44189 6.07178 3.87734 6.31787C2.28447 7.01895 1.8207 8.84824 1.6915 9.63515C1.68417 9.67823 1.68694 9.72241 1.69958 9.76423C1.71222 9.80605 1.73439 9.84437 1.76434 9.87618C1.7943 9.90798 1.83123 9.9324 1.87222 9.94751C1.91321 9.96263 1.95715 9.96802 2.00058 9.96328L4.55849 9.68115C4.56032 9.874 4.57196 10.0666 4.59336 10.2583C4.60623 10.3914 4.66531 10.5158 4.76035 10.6099L5.75087 11.598C5.84503 11.693 5.96938 11.752 6.10244 11.765C6.29303 11.7864 6.48459 11.798 6.67636 11.7999L6.3957 14.3546C6.39102 14.398 6.39646 14.4419 6.41159 14.4829C6.42673 14.5238 6.45115 14.5607 6.48294 14.5907C6.51472 14.6206 6.55302 14.6428 6.59481 14.6555C6.6366 14.6681 6.68076 14.6709 6.72382 14.6637C7.50927 14.5377 9.34179 14.0739 10.0388 12.4811C10.2849 11.9165 10.3352 11.2573 10.2784 10.5981C10.7202 10.2867 11.1339 9.9373 11.515 9.554C13.6698 7.41006 15.1563 3.53379 14.7433 1.73262ZM9.36523 6.99639C9.16847 6.79976 9.03445 6.54919 8.98011 6.27638C8.92578 6.00357 8.95357 5.72077 9.05998 5.46376C9.16639 5.20674 9.34663 4.98706 9.5779 4.8325C9.80918 4.67794 10.0811 4.59544 10.3593 4.59544C10.6374 4.59544 10.9094 4.67794 11.1406 4.8325C11.3719 4.98706 11.5522 5.20674 11.6586 5.46376C11.765 5.72077 11.7928 6.00357 11.7384 6.27638C11.6841 6.54919 11.5501 6.79976 11.3533 6.99639C11.2228 7.12705 11.0679 7.2307 10.8973 7.30142C10.7268 7.37215 10.5439 7.40855 10.3593 7.40855C10.1746 7.40855 9.99179 7.37215 9.82122 7.30142C9.65065 7.2307 9.4957 7.12705 9.36523 6.99639Z" fill="#2CB7B3"/>
<path d="M5.68359 12.3153C5.52305 12.4762 5.26553 12.5389 4.95557 12.5925C4.25918 12.7111 3.64424 12.1094 3.76934 11.4054C3.81709 11.1385 3.9583 10.7644 4.04619 10.6765C4.0654 10.6576 4.07819 10.6332 4.08273 10.6067C4.08728 10.5802 4.08336 10.5529 4.07152 10.5287C4.05968 10.5046 4.04053 10.4847 4.01679 10.4721C3.99305 10.4594 3.96592 10.4546 3.93926 10.4582C3.54983 10.5059 3.18754 10.6824 2.91006 10.9598C2.22129 11.6491 2.15625 14.207 2.15625 14.207C2.15625 14.207 4.71562 14.142 5.40439 13.4526C5.68261 13.1754 5.85939 12.8125 5.90625 12.4226C5.91709 12.3001 5.76797 12.2271 5.68359 12.3153Z" fill="#2CB7B3"/>
</svg>
