<svg width="16" height="13" viewBox="0 0 16 13" fill="none" xmlns="http://www.w3.org/2000/svg">
<path d="M12.75 10.397V10.8256C12.75 11.5357 12.1904 12.1113 11.5 12.1113H1.5C0.809635 12.1113 0.25 11.5357 0.25 10.8256V3.96847C0.25 3.25838 0.809635 2.68276 1.5 2.68276H1.91667V3.96847H1.65625C1.61481 3.96847 1.57507 3.9854 1.54576 4.01554C1.51646 4.04568 1.5 4.08656 1.5 4.12919V10.6649C1.5 10.7075 1.51646 10.7484 1.54576 10.7785C1.57507 10.8087 1.61481 10.8256 1.65625 10.8256H11.3438C11.3852 10.8256 11.4249 10.8087 11.4542 10.7785C11.4835 10.7484 11.5 10.7075 11.5 10.6649V10.397H12.75ZM13.8438 1.39704H4.15625C4.11481 1.39704 4.07507 1.41397 4.04576 1.44411C4.01646 1.47425 4 1.51513 4 1.55776V8.09347C4 8.1361 4.01646 8.17697 4.04576 8.20711C4.07507 8.23725 4.11481 8.25419 4.15625 8.25419H13.8438C13.8852 8.25419 13.9249 8.23725 13.9542 8.20711C13.9835 8.17697 14 8.1361 14 8.09347V1.55776C14 1.51513 13.9835 1.47425 13.9542 1.44411C13.9249 1.41397 13.8852 1.39704 13.8438 1.39704ZM14 0.111328C14.6904 0.111328 15.25 0.686953 15.25 1.39704V8.25419C15.25 8.96427 14.6904 9.5399 14 9.5399H4C3.30964 9.5399 2.75 8.96427 2.75 8.25419V1.39704C2.75 0.686953 3.30964 0.111328 4 0.111328H14ZM7.125 3.11133C7.125 3.70305 6.65862 4.18276 6.08333 4.18276C5.50805 4.18276 5.04167 3.70305 5.04167 3.11133C5.04167 2.5196 5.50805 2.0399 6.08333 2.0399C6.65862 2.0399 7.125 2.5196 7.125 3.11133ZM5.25 5.68276L6.27904 4.62432C6.40107 4.4988 6.59893 4.4988 6.72099 4.62432L7.75 5.68276L10.4457 2.91003C10.5677 2.78452 10.7656 2.78452 10.8877 2.91003L12.75 4.82561V6.96847H5.25V5.68276Z" fill="white"/>
</svg>
