<svg width="19" height="19" viewBox="0 0 19 19" fill="none" xmlns="http://www.w3.org/2000/svg">
<path d="M7.4043 11.0326C7.4043 11.8609 8.04473 12.5269 8.83032 12.5269H10.4357C11.1188 12.5269 11.6738 11.9462 11.6738 11.2204C11.6738 10.4434 11.3323 10.1616 10.8285 9.98226L8.2582 9.08566C7.7544 8.90634 7.41284 8.63309 7.41284 7.8475C7.41284 7.13021 7.96787 6.54102 8.651 6.54102H10.2563C11.0419 6.54102 11.6824 7.20706 11.6824 8.03536" stroke="#CF1F3E" stroke-linecap="round" stroke-linejoin="round"/>
<path d="M9.53906 5.69727V13.3824" stroke="#CF1F3E" stroke-linecap="round" stroke-linejoin="round"/>
<path d="M18.0781 9.53905C18.0781 14.2526 14.2526 18.0781 9.53905 18.0781C4.82549 18.0781 1 14.2526 1 9.53905C1 4.82549 4.82549 1 9.53905 1" stroke="#CF1F3E" stroke-linecap="round" stroke-linejoin="round"/>
<path d="M18.0777 4.41562V1H14.6621" stroke="#CF1F3E" stroke-linecap="round" stroke-linejoin="round"/>
<path d="M13.8086 5.26953L18.0781 1" stroke="#CF1F3E" stroke-linecap="round" stroke-linejoin="round"/>
</svg>
